999
dxflib 2.2.0.0
  0
SECTION
  2
HEADER
  9
$ACADVER
  1
AC1015
  9
$HANDSEED
  5
FFFF
  9
$DIMASZ
 40
0.1
  9
$PLIMMIN
 10
0.0
 20
0.0
  9
$DIMEXE
 40
0.05
  9
$DIMGAP
 40
0.025
  9
$PLIMMAX
 10
8.2677165354330722
 20
11.6929133858267722
  9
$ANGBASE
 50
0.0
  9
$ANGDIR
 70
0
  9
$INSUNITS
 70
1
  9
$DIMSTYLE
  2
Standard
  9
$DIMEXO
 40
0.025
  9
$DIMTXT
 40
0.1
  0
ENDSEC
  0
SECTION
  2
TABLES
  0
TABLE
  2
VPORT
  5
8
100
AcDbSymbolTable
 70
1
  0
VPORT
  5
30
100
AcDbSymbolTableRecord
100
AcDbViewportTableRecord
  2
*Active
 70
0
 10
0.0
 20
0.0
 11
1.0
 21
1.0
 12
286.3055555555554861
 22
148.5
 13
0.0
 23
0.0
 14
10.0
 24
10.0
 15
10.0
 25
10.0
 16
0.0
 26
0.0
 36
1.0
 17
0.0
 27
0.0
 37
0.0
 40
297.0
 41
1.92798353909465
 42
50.0
 43
0.0
 44
0.0
 50
0.0
 51
0.0
 71
0
 72
100
 73
1
 74
3
 75
1
 76
1
 77
0
 78
0
281
0
 65
1
110
0.0
120
0.0
130
0.0
111
1.0
121
0.0
131
0.0
112
0.0
122
1.0
132
0.0
 79
0
146
0.0
  0
ENDTAB
  0
TABLE
  2
LTYPE
  5
5
100
AcDbSymbolTable
 70
21
  0
LTYPE
  5
14
100
AcDbSymbolTableRecord
100
AcDbLinetypeTableRecord
  2
ByBlock
 70
0
  3

 72
65
 73
0
 40
0.0
  0
LTYPE
  5
15
100
AcDbSymbolTableRecord
100
AcDbLinetypeTableRecord
  2
ByLayer
 70
0
  3

 72
65
 73
0
 40
0.0
  0
LTYPE
  5
16
100
AcDbSymbolTableRecord
100
AcDbLinetypeTableRecord
  2
CONTINUOUS
 70
0
  3
Solid line
 72
65
 73
0
 40
0.0
  0
LTYPE
  5
31
100
AcDbSymbolTableRecord
100
AcDbLinetypeTableRecord
  2
DOT
 70
0
  3
Dot . . . . . . . . . . . . . . . . . . . . . .
 72
65
 73
2
 40
6.3499999999999996
 49
0.0
 74
0
 49
-6.3499999999999996
 74
0
  0
LTYPE
  5
32
100
AcDbSymbolTableRecord
100
AcDbLinetypeTableRecord
  2
DOT2
 70
0
  3
Dot (.5x) .....................................
 72
65
 73
2
 40
3.1749999999999998
 49
0.0
 74
0
 49
-3.1749999999999998
 74
0
  0
LTYPE
  5
33
100
AcDbSymbolTableRecord
100
AcDbLinetypeTableRecord
  2
DOTX2
 70
0
  3
Dot (2x) .  .  .  .  .  .  .  .  .  .  .  .  .
 72
65
 73
2
 40
12.6999999999999993
 49
0.0
 74
0
 49
-12.6999999999999993
 74
0
  0
LTYPE
  5
34
100
AcDbSymbolTableRecord
100
AcDbLinetypeTableRecord
  2
DASHED
 70
0
  3
Dashed __ __ __ __ __ __ __ __ __ __ __ __ __ _
 72
65
 73
2
 40
19.0500000000000007
 49
12.6999999999999993
 74
0
 49
-6.3499999999999996
 74
0
  0
LTYPE
  5
35
100
AcDbSymbolTableRecord
100
AcDbLinetypeTableRecord
  2
DASHED2
 70
0
  3
Dashed (.5x) _ _ _ _ _ _ _ _ _ _ _ _ _ _ _ _ _
 72
65
 73
2
 40
9.5250000000000004
 49
6.3499999999999996
 74
0
 49
-3.1749999999999998
 74
0
  0
LTYPE
  5
36
100
AcDbSymbolTableRecord
100
AcDbLinetypeTableRecord
  2
DASHEDX2
 70
0
  3
Dashed (2x) ____  ____  ____  ____  ____  ___
 72
65
 73
2
 40
38.1000000000000014
 49
25.3999999999999986
 74
0
 49
-12.6999999999999993
 74
0
  0
LTYPE
  5
37
100
AcDbSymbolTableRecord
100
AcDbLinetypeTableRecord
  2
DASHDOT
 70
0
  3
Dash dot __ . __ . __ . __ . __ . __ . __ . __
 72
65
 73
4
 40
25.3999999999999986
 49
12.6999999999999993
 74
0
 49
-6.3499999999999996
 74
0
 49
0.0
 74
0
 49
-6.3499999999999996
 74
0
  0
LTYPE
  5
38
100
AcDbSymbolTableRecord
100
AcDbLinetypeTableRecord
  2
DASHDOT2
 70
0
  3
Dash dot (.5x) _._._._._._._._._._._._._._._.
 72
65
 73
4
 40
12.6999999999999993
 49
6.3499999999999996
 74
0
 49
-3.1749999999999998
 74
0
 49
0.0
 74
0
 49
-3.1749999999999998
 74
0
  0
LTYPE
  5
39
100
AcDbSymbolTableRecord
100
AcDbLinetypeTableRecord
  2
DASHDOTX2
 70
0
  3
Dash dot (2x) ____  .  ____  .  ____  .  ___
 72
65
 73
4
 40
50.7999999999999972
 49
25.3999999999999986
 74
0
 49
-12.6999999999999993
 74
0
 49
0.0
 74
0
 49
-12.6999999999999993
 74
0
  0
LTYPE
  5
3A
100
AcDbSymbolTableRecord
100
AcDbLinetypeTableRecord
  2
DIVIDE
 70
0
  3
Divide ____ . . ____ . . ____ . . ____ . . ____
 72
65
 73
6
 40
31.75
 49
12.6999999999999993
 74
0
 49
-6.3499999999999996
 74
0
 49
0.0
 74
0
 49
-6.3499999999999996
 74
0
 49
0.0
 74
0
 49
-6.3499999999999996
 74
0
  0
LTYPE
  5
3B
100
AcDbSymbolTableRecord
100
AcDbLinetypeTableRecord
  2
DIVIDE2
 70
0
  3
Divide (.5x) __..__..__..__..__..__..__..__.._
 72
65
 73
6
 40
15.875
 49
6.3499999999999996
 74
0
 49
-3.1749999999999998
 74
0
 49
0.0
 74
0
 49
-3.1749999999999998
 74
0
 49
0.0
 74
0
 49
-3.1749999999999998
 74
0
  0
LTYPE
  5
3C
100
AcDbSymbolTableRecord
100
AcDbLinetypeTableRecord
  2
DIVIDEX2
 70
0
  3
Divide (2x) ________  .  .  ________  .  .  _
 72
65
 73
6
 40
63.5
 49
25.3999999999999986
 74
0
 49
-12.6999999999999993
 74
0
 49
0.0
 74
0
 49
-12.6999999999999993
 74
0
 49
0.0
 74
0
 49
-12.6999999999999993
 74
0
  0
LTYPE
  5
3D
100
AcDbSymbolTableRecord
100
AcDbLinetypeTableRecord
  2
CENTER
 70
0
  3
Center ____ _ ____ _ ____ _ ____ _ ____ _ ____
 72
65
 73
4
 40
50.7999999999999972
 49
31.75
 74
0
 49
-6.3499999999999996
 74
0
 49
6.3499999999999996
 74
0
 49
-6.3499999999999996
 74
0
  0
LTYPE
  5
3E
100
AcDbSymbolTableRecord
100
AcDbLinetypeTableRecord
  2
CENTER2
 70
0
  3
Center (.5x) ___ _ ___ _ ___ _ ___ _ ___ _ ___
 72
65
 73
4
 40
28.5749999999999993
 49
19.0500000000000007
 74
0
 49
-3.1749999999999998
 74
0
 49
3.1749999999999998
 74
0
 49
-3.1749999999999998
 74
0
  0
LTYPE
  5
3F
100
AcDbSymbolTableRecord
100
AcDbLinetypeTableRecord
  2
CENTERX2
 70
0
  3
Center (2x) ________  __  ________  __  _____
 72
65
 73
4
 40
101.5999999999999943
 49
63.5
 74
0
 49
-12.6999999999999993
 74
0
 49
12.6999999999999993
 74
0
 49
-12.6999999999999993
 74
0
  0
LTYPE
  5
40
100
AcDbSymbolTableRecord
100
AcDbLinetypeTableRecord
  2
BORDER
 70
0
  3
Border __ __ . __ __ . __ __ . __ __ . __ __ .
 72
65
 73
6
 40
44.4500000000000028
 49
12.6999999999999993
 74
0
 49
-6.3499999999999996
 74
0
 49
12.6999999999999993
 74
0
 49
-6.3499999999999996
 74
0
 49
0.0
 74
0
 49
-6.3499999999999996
 74
0
  0
LTYPE
  5
41
100
AcDbSymbolTableRecord
100
AcDbLinetypeTableRecord
  2
BORDER2
 70
0
  3
Border (.5x) __.__.__.__.__.__.__.__.__.__.__.
 72
65
 73
6
 40
22.2250000000000014
 49
6.3499999999999996
 74
0
 49
-3.1749999999999998
 74
0
 49
6.3499999999999996
 74
0
 49
-3.1749999999999998
 74
0
 49
0.0
 74
0
 49
-3.1749999999999998
 74
0
  0
LTYPE
  5
42
100
AcDbSymbolTableRecord
100
AcDbLinetypeTableRecord
  2
BORDERX2
 70
0
  3
Border (2x) ____  ____  .  ____  ____  .  ___
 72
65
 73
6
 40
88.9000000000000057
 49
25.3999999999999986
 74
0
 49
-12.6999999999999993
 74
0
 49
25.3999999999999986
 74
0
 49
-12.6999999999999993
 74
0
 49
0.0
 74
0
 49
-12.6999999999999993
 74
0
  0
ENDTAB
  0
TABLE
  2
LAYER
  5
2
100
AcDbSymbolTable
 70
25
  0
LAYER
  5
10
100
AcDbSymbolTableRecord
100
AcDbLayerTableRecord
  2
0
 70
0
 62
7
  6
CONTINUOUS
370
0
390
F
  0
LAYER
  5
43
100
AcDbSymbolTableRecord
100
AcDbLayerTableRecord
  2
BLACK
 70
0
 62
1
  6
CONTINUOUS
390
F
  0
LAYER
  5
44
100
AcDbSymbolTableRecord
100
AcDbLayerTableRecord
  2
BLUE
 70
0
 62
2
  6
CONTINUOUS
390
F
  0
LAYER
  5
45
100
AcDbSymbolTableRecord
100
AcDbLayerTableRecord
  2
GREEN
 70
0
 62
3
  6
CONTINUOUS
390
F
  0
LAYER
  5
46
100
AcDbSymbolTableRecord
100
AcDbLayerTableRecord
  2
CYAN
 70
0
 62
4
  6
CONTINUOUS
390
F
  0
LAYER
  5
47
100
AcDbSymbolTableRecord
100
AcDbLayerTableRecord
  2
RED
 70
0
 62
5
  6
CONTINUOUS
390
F
  0
LAYER
  5
48
100
AcDbSymbolTableRecord
100
AcDbLayerTableRecord
  2
MAGENTA
 70
0
 62
6
  6
CONTINUOUS
390
F
  0
LAYER
  5
49
100
AcDbSymbolTableRecord
100
AcDbLayerTableRecord
  2
BROWN
 70
0
 62
7
  6
CONTINUOUS
390
F
  0
LAYER
  5
4A
100
AcDbSymbolTableRecord
100
AcDbLayerTableRecord
  2
GRAY
 70
0
 62
8
  6
CONTINUOUS
390
F
  0
LAYER
  5
4B
100
AcDbSymbolTableRecord
100
AcDbLayerTableRecord
  2
DARKGRAY
 70
0
 62
9
  6
CONTINUOUS
390
F
  0
LAYER
  5
4C
100
AcDbSymbolTableRecord
100
AcDbLayerTableRecord
  2
LIGHTBLUE
 70
0
 62
1
  6
CONTINUOUS
390
F
  0
LAYER
  5
4D
100
AcDbSymbolTableRecord
100
AcDbLayerTableRecord
  2
LIGHTGREEN
 70
0
 62
11
  6
CONTINUOUS
390
F
  0
LAYER
  5
4E
100
AcDbSymbolTableRecord
100
AcDbLayerTableRecord
  2
LIGHTCYAN
 70
0
 62
12
  6
CONTINUOUS
390
F
  0
LAYER
  5
4F
100
AcDbSymbolTableRecord
100
AcDbLayerTableRecord
  2
LIGHTRED
 70
0
 62
13
  6
CONTINUOUS
390
F
  0
LAYER
  5
50
100
AcDbSymbolTableRecord
100
AcDbLayerTableRecord
  2
LIGHTMAGENTA
 70
0
 62
14
  6
CONTINUOUS
390
F
  0
LAYER
  5
51
100
AcDbSymbolTableRecord
100
AcDbLayerTableRecord
  2
YELLOW
 70
0
 62
15
  6
CONTINUOUS
390
F
  0
LAYER
  5
52
100
AcDbSymbolTableRecord
100
AcDbLayerTableRecord
  2
WHITE
 70
0
 62
16
  6
CONTINUOUS
390
F
  0
LAYER
  5
53
100
AcDbSymbolTableRecord
100
AcDbLayerTableRecord
  2
DARKDARKGRAY
 70
0
 62
17
  6
CONTINUOUS
390
F
  0
LAYER
  5
54
100
AcDbSymbolTableRecord
100
AcDbLayerTableRecord
  2
DARKBLUE
 70
0
 62
18
  6
CONTINUOUS
390
F
  0
LAYER
  5
55
100
AcDbSymbolTableRecord
100
AcDbLayerTableRecord
  2
DARKGREEN
 70
0
 62
19
  6
CONTINUOUS
390
F
  0
LAYER
  5
56
100
AcDbSymbolTableRecord
100
AcDbLayerTableRecord
  2
DARKCYAN
 70
0
 62
20
  6
CONTINUOUS
390
F
  0
LAYER
  5
57
100
AcDbSymbolTableRecord
100
AcDbLayerTableRecord
  2
DARKRED
 70
0
 62
21
  6
CONTINUOUS
390
F
  0
LAYER
  5
58
100
AcDbSymbolTableRecord
100
AcDbLayerTableRecord
  2
DARKMAGENTA
 70
0
 62
22
  6
CONTINUOUS
390
F
  0
LAYER
  5
59
100
AcDbSymbolTableRecord
100
AcDbLayerTableRecord
  2
DARKBROWN
 70
0
 62
23
  6
CONTINUOUS
390
F
  0
LAYER
  5
5A
100
AcDbSymbolTableRecord
100
AcDbLayerTableRecord
  2
LIGHTYELLOW
 70
0
 62
24
  6
CONTINUOUS
390
F
  0
ENDTAB
  0
TABLE
  2
STYLE
  5
3
100
AcDbSymbolTable
 70
1
  0
STYLE
  5
11
100
AcDbSymbolTableRecord
100
AcDbTextStyleTableRecord
  2
Standard
 70
0
 40
0.0
 41
0.75
 50
0.0
 71
0
 42
2.5
  3
txt
  4

  0
ENDTAB
  0
TABLE
  2
VIEW
  5
6
100
AcDbSymbolTable
 70
0
  0
ENDTAB
  0
TABLE
  2
UCS
  5
7
100
AcDbSymbolTable
 70
0
  0
ENDTAB
  0
TABLE
  2
APPID
  5
9
100
AcDbSymbolTable
 70
1
  0
APPID
  5
12
100
AcDbSymbolTableRecord
100
AcDbRegAppTableRecord
  2
ACAD
 70
0
  0
ENDTAB
  0
TABLE
  2
DIMSTYLE
  5
A
100
AcDbSymbolTable
 70
1
100
AcDbDimStyleTable
 71
0
  0
DIMSTYLE
105
27
100
AcDbSymbolTableRecord
100
AcDbDimStyleTableRecord
  2
Standard
 41
0.1
 42
0.025
 43
3.75
 44
0.05
 70
0
 73
0
 74
0
 77
1
 78
8
140
0.1
141
2.5
143
0.03937007874016
147
0.025
171
3
172
1
271
2
272
2
274
3
278
44
283
0
284
8
340
11
  0
ENDTAB
  0
TABLE
  2
BLOCK_RECORD
  5
1
100
AcDbSymbolTable
 70
1
  0
BLOCK_RECORD
  5
1F
100
AcDbSymbolTableRecord
100
AcDbBlockTableRecord
  2
*Model_Space
340
22
  0
BLOCK_RECORD
  5
1B
100
AcDbSymbolTableRecord
100
AcDbBlockTableRecord
  2
*Paper_Space
340
1E
  0
BLOCK_RECORD
  5
23
100
AcDbSymbolTableRecord
100
AcDbBlockTableRecord
  2
*Paper_Space0
340
26
  0
ENDTAB
  0
ENDSEC
  0
SECTION
  2
BLOCKS
  0
BLOCK
  5
20
100
AcDbEntity
  8
0
100
AcDbBlockBegin
  2
*Model_Space
 70
0
 10
0.0
 20
0.0
 30
0.0
  3
*Model_Space
  1

  0
ENDBLK
  5
21
100
AcDbEntity
  8
0
100
AcDbBlockEnd
  0
BLOCK
  5
1C
100
AcDbEntity
 67
1
  8
0
100
AcDbBlockBegin
  2
*Paper_Space
 70
0
 10
0.0
 20
0.0
 30
0.0
  3
*Paper_Space
  1

  0
ENDBLK
  5
1D
100
AcDbEntity
 67
1
  8
0
100
AcDbBlockEnd
  0
BLOCK
  5
24
100
AcDbEntity
  8
0
100
AcDbBlockBegin
  2
*Paper_Space0
 70
0
 10
0.0
 20
0.0
 30
0.0
  3
*Paper_Space0
  1

  0
ENDBLK
  5
25
100
AcDbEntity
  8
0
100
AcDbBlockEnd
  0
ENDSEC
  0
SECTION
  2
ENTITIES
  0
LINE
  5
5B
100
AcDbEntity
100
AcDbLine
  8
BLACK
 62
256
370
-1
  6
ByLayer
 10
4.6000000000000005
 20
0.0
 30
0.0
 11
0.0
 21
0.0
 31
0.0
  0
LINE
  5
5C
100
AcDbEntity
100
AcDbLine
  8
BLACK
 62
256
370
-1
  6
ByLayer
 10
0.0
 20
2.1000000000000001
 30
0.0
 11
4.6000000000000005
 21
2.1000000000000001
 31
0.0
  0
LINE
  5
5D
100
AcDbEntity
100
AcDbLine
  8
BLACK
 62
256
370
-1
  6
ByLayer
 10
0.0
 20
2.1000000000000001
 30
0.0
 11
0.0
 21
0.0
 31
0.0
  0
LINE
  5
5E
100
AcDbEntity
100
AcDbLine
  8
BLACK
 62
256
370
-1
  6
ByLayer
 10
4.6000000000000005
 20
0.0
 30
0.0
 11
4.6000000000000005
 21
2.1000000000000001
 31
0.0
  0
LINE
  5
5F
100
AcDbEntity
100
AcDbLine
  8
BLACK
 62
256
370
-1
  6
ByLayer
 10
1.6700000000000002
 20
0.5700000000000001
 30
0.0
 11
1.6300000000000001
 21
0.5700000000000001
 31
0.0
  0
LINE
  5
60
100
AcDbEntity
100
AcDbLine
  8
BLACK
 62
256
370
-1
  6
ByLayer
 10
1.6500000000000001
 20
0.55
 30
0.0
 11
1.6500000000000001
 21
0.5900000000000001
 31
0.0
  0
LINE
  5
61
100
AcDbEntity
100
AcDbLine
  8
BLACK
 62
256
370
-1
  6
ByLayer
 10
1.595
 20
0.48
 30
0.0
 11
1.595
 21
0.54
 31
0.0
  0
LINE
  5
62
100
AcDbEntity
100
AcDbLine
  8
BLACK
 62
256
370
-1
  6
ByLayer
 10
1.595
 20
0.54
 30
0.0
 11
1.7050000000000001
 21
0.54
 31
0.0
  0
LINE
  5
63
100
AcDbEntity
100
AcDbLine
  8
BLACK
 62
256
370
-1
  6
ByLayer
 10
1.7050000000000001
 20
0.54
 30
0.0
 11
1.7050000000000001
 21
0.48
 31
0.0
  0
LINE
  5
64
100
AcDbEntity
100
AcDbLine
  8
BLACK
 62
256
370
-1
  6
ByLayer
 10
1.7050000000000001
 20
0.42
 30
0.0
 11
1.7050000000000001
 21
0.36
 31
0.0
  0
LINE
  5
65
100
AcDbEntity
100
AcDbLine
  8
BLACK
 62
256
370
-1
  6
ByLayer
 10
1.7050000000000001
 20
0.36
 30
0.0
 11
1.595
 21
0.36
 31
0.0
  0
LINE
  5
66
100
AcDbEntity
100
AcDbLine
  8
BLACK
 62
256
370
-1
  6
ByLayer
 10
1.595
 20
0.36
 30
0.0
 11
1.595
 21
0.42
 31
0.0
  0
LINE
  5
67
100
AcDbEntity
100
AcDbLine
  8
BLACK
 62
256
370
-1
  6
ByLayer
 10
4.0800000000000001
 20
1.645
 30
0.0
 11
4.0800000000000001
 21
1.605
 31
0.0
  0
LINE
  5
68
100
AcDbEntity
100
AcDbLine
  8
BLACK
 62
256
370
-1
  6
ByLayer
 10
4.1000000000000005
 20
1.625
 30
0.0
 11
4.0600000000000005
 21
1.625
 31
0.0
  0
LINE
  5
69
100
AcDbEntity
100
AcDbLine
  8
BLACK
 62
256
370
-1
  6
ByLayer
 10
4.1699999999999999
 20
1.5700000000000001
 30
0.0
 11
4.1100000000000003
 21
1.5700000000000001
 31
0.0
  0
LINE
  5
6A
100
AcDbEntity
100
AcDbLine
  8
BLACK
 62
256
370
-1
  6
ByLayer
 10
4.1100000000000003
 20
1.5700000000000001
 30
0.0
 11
4.1100000000000003
 21
1.6800000000000002
 31
0.0
  0
LINE
  5
6B
100
AcDbEntity
100
AcDbLine
  8
BLACK
 62
256
370
-1
  6
ByLayer
 10
4.1100000000000003
 20
1.6800000000000002
 30
0.0
 11
4.1699999999999999
 21
1.6800000000000002
 31
0.0
  0
LINE
  5
6C
100
AcDbEntity
100
AcDbLine
  8
BLACK
 62
256
370
-1
  6
ByLayer
 10
4.2300000000000004
 20
1.6800000000000002
 30
0.0
 11
4.29
 21
1.6800000000000002
 31
0.0
  0
LINE
  5
6D
100
AcDbEntity
100
AcDbLine
  8
BLACK
 62
256
370
-1
  6
ByLayer
 10
4.29
 20
1.6800000000000002
 30
0.0
 11
4.29
 21
1.5700000000000001
 31
0.0
  0
LINE
  5
6E
100
AcDbEntity
100
AcDbLine
  8
BLACK
 62
256
370
-1
  6
ByLayer
 10
4.29
 20
1.5700000000000001
 30
0.0
 11
4.2300000000000004
 21
1.5700000000000001
 31
0.0
  0
LINE
  5
6F
100
AcDbEntity
100
AcDbLine
  8
BLACK
 62
256
370
-1
  6
ByLayer
 10
3.4700000000000002
 20
1.1950000000000001
 30
0.0
 11
3.4100000000000001
 21
1.1950000000000001
 31
0.0
  0
LINE
  5
70
100
AcDbEntity
100
AcDbLine
  8
BLACK
 62
256
370
-1
  6
ByLayer
 10
3.4100000000000001
 20
1.1950000000000001
 30
0.0
 11
3.4100000000000001
 21
1.3050000000000002
 31
0.0
  0
LINE
  5
71
100
AcDbEntity
100
AcDbLine
  8
BLACK
 62
256
370
-1
  6
ByLayer
 10
3.4100000000000001
 20
1.3050000000000002
 30
0.0
 11
3.4700000000000002
 21
1.3050000000000002
 31
0.0
  0
LINE
  5
72
100
AcDbEntity
100
AcDbLine
  8
BLACK
 62
256
370
-1
  6
ByLayer
 10
3.5300000000000002
 20
1.3050000000000002
 30
0.0
 11
3.5900000000000003
 21
1.3050000000000002
 31
0.0
  0
LINE
  5
73
100
AcDbEntity
100
AcDbLine
  8
BLACK
 62
256
370
-1
  6
ByLayer
 10
3.5900000000000003
 20
1.3050000000000002
 30
0.0
 11
3.5900000000000003
 21
1.1950000000000001
 31
0.0
  0
LINE
  5
74
100
AcDbEntity
100
AcDbLine
  8
BLACK
 62
256
370
-1
  6
ByLayer
 10
3.5900000000000003
 20
1.1950000000000001
 30
0.0
 11
3.5300000000000002
 21
1.1950000000000001
 31
0.0
  0
LINE
  5
75
100
AcDbEntity
100
AcDbLine
  8
BLACK
 62
256
370
-1
  6
ByLayer
 10
2.1950000000000003
 20
0.48
 30
0.0
 11
2.1950000000000003
 21
0.54
 31
0.0
  0
LINE
  5
76
100
AcDbEntity
100
AcDbLine
  8
BLACK
 62
256
370
-1
  6
ByLayer
 10
2.1950000000000003
 20
0.54
 30
0.0
 11
2.3050000000000002
 21
0.54
 31
0.0
  0
LINE
  5
77
100
AcDbEntity
100
AcDbLine
  8
BLACK
 62
256
370
-1
  6
ByLayer
 10
2.3050000000000002
 20
0.54
 30
0.0
 11
2.3050000000000002
 21
0.48
 31
0.0
  0
LINE
  5
78
100
AcDbEntity
100
AcDbLine
  8
BLACK
 62
256
370
-1
  6
ByLayer
 10
2.3050000000000002
 20
0.42
 30
0.0
 11
2.3050000000000002
 21
0.36
 31
0.0
  0
LINE
  5
79
100
AcDbEntity
100
AcDbLine
  8
BLACK
 62
256
370
-1
  6
ByLayer
 10
2.3050000000000002
 20
0.36
 30
0.0
 11
2.1950000000000003
 21
0.36
 31
0.0
  0
LINE
  5
7A
100
AcDbEntity
100
AcDbLine
  8
BLACK
 62
256
370
-1
  6
ByLayer
 10
2.1950000000000003
 20
0.36
 30
0.0
 11
2.1950000000000003
 21
0.42
 31
0.0
  0
LINE
  5
7B
100
AcDbEntity
100
AcDbLine
  8
BLACK
 62
256
370
-1
  6
ByLayer
 10
4.1699999999999999
 20
1.7450000000000001
 30
0.0
 11
4.1100000000000003
 21
1.7450000000000001
 31
0.0
  0
LINE
  5
7C
100
AcDbEntity
100
AcDbLine
  8
BLACK
 62
256
370
-1
  6
ByLayer
 10
4.1100000000000003
 20
1.7450000000000001
 30
0.0
 11
4.1100000000000003
 21
1.855
 31
0.0
  0
LINE
  5
7D
100
AcDbEntity
100
AcDbLine
  8
BLACK
 62
256
370
-1
  6
ByLayer
 10
4.1100000000000003
 20
1.855
 30
0.0
 11
4.1699999999999999
 21
1.855
 31
0.0
  0
LINE
  5
7E
100
AcDbEntity
100
AcDbLine
  8
BLACK
 62
256
370
-1
  6
ByLayer
 10
4.2300000000000004
 20
1.855
 30
0.0
 11
4.29
 21
1.855
 31
0.0
  0
LINE
  5
7F
100
AcDbEntity
100
AcDbLine
  8
BLACK
 62
256
370
-1
  6
ByLayer
 10
4.29
 20
1.855
 30
0.0
 11
4.29
 21
1.7450000000000001
 31
0.0
  0
LINE
  5
80
100
AcDbEntity
100
AcDbLine
  8
BLACK
 62
256
370
-1
  6
ByLayer
 10
4.29
 20
1.7450000000000001
 30
0.0
 11
4.2300000000000004
 21
1.7450000000000001
 31
0.0
  0
LINE
  5
81
100
AcDbEntity
100
AcDbLine
  8
BLACK
 62
256
370
-1
  6
ByLayer
 10
4.1699999999999999
 20
1.9200000000000002
 30
0.0
 11
4.1100000000000003
 21
1.9200000000000002
 31
0.0
  0
LINE
  5
82
100
AcDbEntity
100
AcDbLine
  8
BLACK
 62
256
370
-1
  6
ByLayer
 10
4.1100000000000003
 20
1.9200000000000002
 30
0.0
 11
4.1100000000000003
 21
2.0300000000000002
 31
0.0
  0
LINE
  5
83
100
AcDbEntity
100
AcDbLine
  8
BLACK
 62
256
370
-1
  6
ByLayer
 10
4.1100000000000003
 20
2.0300000000000002
 30
0.0
 11
4.1699999999999999
 21
2.0300000000000002
 31
0.0
  0
LINE
  5
84
100
AcDbEntity
100
AcDbLine
  8
BLACK
 62
256
370
-1
  6
ByLayer
 10
4.2300000000000004
 20
2.0300000000000002
 30
0.0
 11
4.29
 21
2.0300000000000002
 31
0.0
  0
LINE
  5
85
100
AcDbEntity
100
AcDbLine
  8
BLACK
 62
256
370
-1
  6
ByLayer
 10
4.29
 20
2.0300000000000002
 30
0.0
 11
4.29
 21
1.9200000000000002
 31
0.0
  0
LINE
  5
86
100
AcDbEntity
100
AcDbLine
  8
BLACK
 62
256
370
-1
  6
ByLayer
 10
4.29
 20
1.9200000000000002
 30
0.0
 11
4.2300000000000004
 21
1.9200000000000002
 31
0.0
  0
LINE
  5
87
100
AcDbEntity
100
AcDbLine
  8
BLACK
 62
256
370
-1
  6
ByLayer
 10
2.7949999999999999
 20
0.48
 30
0.0
 11
2.7949999999999999
 21
0.54
 31
0.0
  0
LINE
  5
88
100
AcDbEntity
100
AcDbLine
  8
BLACK
 62
256
370
-1
  6
ByLayer
 10
2.7949999999999999
 20
0.54
 30
0.0
 11
2.9050000000000002
 21
0.54
 31
0.0
  0
LINE
  5
89
100
AcDbEntity
100
AcDbLine
  8
BLACK
 62
256
370
-1
  6
ByLayer
 10
2.9050000000000002
 20
0.54
 30
0.0
 11
2.9050000000000002
 21
0.48
 31
0.0
  0
LINE
  5
8A
100
AcDbEntity
100
AcDbLine
  8
BLACK
 62
256
370
-1
  6
ByLayer
 10
2.9050000000000002
 20
0.42
 30
0.0
 11
2.9050000000000002
 21
0.36
 31
0.0
  0
LINE
  5
8B
100
AcDbEntity
100
AcDbLine
  8
BLACK
 62
256
370
-1
  6
ByLayer
 10
2.9050000000000002
 20
0.36
 30
0.0
 11
2.7949999999999999
 21
0.36
 31
0.0
  0
LINE
  5
8C
100
AcDbEntity
100
AcDbLine
  8
BLACK
 62
256
370
-1
  6
ByLayer
 10
2.7949999999999999
 20
0.36
 30
0.0
 11
2.7949999999999999
 21
0.42
 31
0.0
  0
CIRCLE
  5
8D
100
AcDbEntity
100
AcDbCircle
  8
BLACK
 62
256
370
-1
  6
ByLayer
 10
2.3250000000000002
 20
1.1000000000000001
 30
0.0
 40
0.0353
  0
LINE
  5
8E
100
AcDbEntity
100
AcDbLine
  8
BLACK
 62
256
370
-1
  6
ByLayer
 10
2.375
 20
1.2
 30
0.0
 11
2.375
 21
1.05
 31
0.0
  0
LINE
  5
8F
100
AcDbEntity
100
AcDbLine
  8
BLACK
 62
256
370
-1
  6
ByLayer
 10
2.375
 20
1.05
 30
0.0
 11
1.925
 21
1.05
 31
0.0
  0
LINE
  5
90
100
AcDbEntity
100
AcDbLine
  8
BLACK
 62
256
370
-1
  6
ByLayer
 10
1.925
 20
1.05
 30
0.0
 11
1.925
 21
1.2
 31
0.0
  0
LINE
  5
91
100
AcDbEntity
100
AcDbLine
  8
BLACK
 62
256
370
-1
  6
ByLayer
 10
1.925
 20
1.2
 30
0.0
 11
2.375
 21
1.2
 31
0.0
  0
LINE
  5
92
100
AcDbEntity
100
AcDbLine
  8
BLACK
 62
256
370
-1
  6
ByLayer
 10
4.3700000000000001
 20
0.605
 30
0.0
 11
4.3700000000000001
 21
0.665
 31
0.0
  0
LINE
  5
93
100
AcDbEntity
100
AcDbLine
  8
BLACK
 62
256
370
-1
  6
ByLayer
 10
4.3700000000000001
 20
0.665
 30
0.0
 11
4.4800000000000004
 21
0.665
 31
0.0
  0
LINE
  5
94
100
AcDbEntity
100
AcDbLine
  8
BLACK
 62
256
370
-1
  6
ByLayer
 10
4.4800000000000004
 20
0.665
 30
0.0
 11
4.4800000000000004
 21
0.605
 31
0.0
  0
LINE
  5
95
100
AcDbEntity
100
AcDbLine
  8
BLACK
 62
256
370
-1
  6
ByLayer
 10
4.4800000000000004
 20
0.545
 30
0.0
 11
4.4800000000000004
 21
0.485
 31
0.0
  0
LINE
  5
96
100
AcDbEntity
100
AcDbLine
  8
BLACK
 62
256
370
-1
  6
ByLayer
 10
4.4800000000000004
 20
0.485
 30
0.0
 11
4.3700000000000001
 21
0.485
 31
0.0
  0
LINE
  5
97
100
AcDbEntity
100
AcDbLine
  8
BLACK
 62
256
370
-1
  6
ByLayer
 10
4.3700000000000001
 20
0.485
 30
0.0
 11
4.3700000000000001
 21
0.545
 31
0.0
  0
LINE
  5
98
100
AcDbEntity
100
AcDbLine
  8
BLACK
 62
256
370
-1
  6
ByLayer
 10
0.8300000000000001
 20
0.295
 30
0.0
 11
0.8300000000000001
 21
0.235
 31
0.0
  0
LINE
  5
99
100
AcDbEntity
100
AcDbLine
  8
BLACK
 62
256
370
-1
  6
ByLayer
 10
0.8300000000000001
 20
0.235
 30
0.0
 11
0.7200000000000001
 21
0.235
 31
0.0
  0
LINE
  5
9A
100
AcDbEntity
100
AcDbLine
  8
BLACK
 62
256
370
-1
  6
ByLayer
 10
0.7200000000000001
 20
0.235
 30
0.0
 11
0.7200000000000001
 21
0.295
 31
0.0
  0
LINE
  5
9B
100
AcDbEntity
100
AcDbLine
  8
BLACK
 62
256
370
-1
  6
ByLayer
 10
0.7200000000000001
 20
0.355
 30
0.0
 11
0.7200000000000001
 21
0.415
 31
0.0
  0
LINE
  5
9C
100
AcDbEntity
100
AcDbLine
  8
BLACK
 62
256
370
-1
  6
ByLayer
 10
0.7200000000000001
 20
0.415
 30
0.0
 11
0.8300000000000001
 21
0.415
 31
0.0
  0
LINE
  5
9D
100
AcDbEntity
100
AcDbLine
  8
BLACK
 62
256
370
-1
  6
ByLayer
 10
0.8300000000000001
 20
0.415
 30
0.0
 11
0.8300000000000001
 21
0.355
 31
0.0
  0
LINE
  5
9E
100
AcDbEntity
100
AcDbLine
  8
BLACK
 62
256
370
-1
  6
ByLayer
 10
0.8300000000000001
 20
0.545
 30
0.0
 11
0.8300000000000001
 21
0.485
 31
0.0
  0
LINE
  5
9F
100
AcDbEntity
100
AcDbLine
  8
BLACK
 62
256
370
-1
  6
ByLayer
 10
0.8300000000000001
 20
0.485
 30
0.0
 11
0.7200000000000001
 21
0.485
 31
0.0
  0
LINE
  5
A0
100
AcDbEntity
100
AcDbLine
  8
BLACK
 62
256
370
-1
  6
ByLayer
 10
0.7200000000000001
 20
0.485
 30
0.0
 11
0.7200000000000001
 21
0.545
 31
0.0
  0
LINE
  5
A1
100
AcDbEntity
100
AcDbLine
  8
BLACK
 62
256
370
-1
  6
ByLayer
 10
0.7200000000000001
 20
0.605
 30
0.0
 11
0.7200000000000001
 21
0.665
 31
0.0
  0
LINE
  5
A2
100
AcDbEntity
100
AcDbLine
  8
BLACK
 62
256
370
-1
  6
ByLayer
 10
0.7200000000000001
 20
0.665
 30
0.0
 11
0.8300000000000001
 21
0.665
 31
0.0
  0
LINE
  5
A3
100
AcDbEntity
100
AcDbLine
  8
BLACK
 62
256
370
-1
  6
ByLayer
 10
0.8300000000000001
 20
0.665
 30
0.0
 11
0.8300000000000001
 21
0.605
 31
0.0
  0
CIRCLE
  5
A4
100
AcDbEntity
100
AcDbCircle
  8
BLACK
 62
256
370
-1
  6
ByLayer
 10
3.6000000000000001
 20
1.1000000000000001
 30
0.0
 40
0.025
  0
LINE
  5
A5
100
AcDbEntity
100
AcDbLine
  8
BLACK
 62
256
370
-1
  6
ByLayer
 10
3.3500000000000001
 20
1.1500000000000001
 30
0.0
 11
3.6500000000000004
 21
1.1500000000000001
 31
0.0
  0
LINE
  5
A6
100
AcDbEntity
100
AcDbLine
  8
BLACK
 62
256
370
-1
  6
ByLayer
 10
3.6500000000000004
 20
1.1500000000000001
 30
0.0
 11
3.6500000000000004
 21
0.5
 31
0.0
  0
LINE
  5
A7
100
AcDbEntity
100
AcDbLine
  8
BLACK
 62
256
370
-1
  6
ByLayer
 10
3.6500000000000004
 20
0.5
 30
0.0
 11
3.3500000000000001
 21
0.5
 31
0.0
  0
LINE
  5
A8
100
AcDbEntity
100
AcDbLine
  8
BLACK
 62
256
370
-1
  6
ByLayer
 10
3.3500000000000001
 20
0.5
 30
0.0
 11
3.3500000000000001
 21
1.1500000000000001
 31
0.0
  0
CIRCLE
  5
A9
100
AcDbEntity
100
AcDbCircle
  8
BLACK
 62
256
370
-1
  6
ByLayer
 10
1.0250000000000001
 20
0.25
 30
0.0
 40
0.025
  0
LINE
  5
AA
100
AcDbEntity
100
AcDbLine
  8
BLACK
 62
256
370
-1
  6
ByLayer
 10
1.1000000000000001
 20
0.225
 30
0.0
 11
1.0
 21
0.225
 31
0.0
  0
LINE
  5
AB
100
AcDbEntity
100
AcDbLine
  8
BLACK
 62
256
370
-1
  6
ByLayer
 10
1.0
 20
0.225
 30
0.0
 11
1.0
 21
0.675
 31
0.0
  0
LINE
  5
AC
100
AcDbEntity
100
AcDbLine
  8
BLACK
 62
256
370
-1
  6
ByLayer
 10
1.0
 20
0.675
 30
0.0
 11
1.1000000000000001
 21
0.675
 31
0.0
  0
LINE
  5
AD
100
AcDbEntity
100
AcDbLine
  8
BLACK
 62
256
370
-1
  6
ByLayer
 10
1.1000000000000001
 20
0.675
 30
0.0
 11
1.1000000000000001
 21
0.225
 31
0.0
  0
LINE
  5
AE
100
AcDbEntity
100
AcDbLine
  8
BLACK
 62
256
370
-1
  6
ByLayer
 10
1.6566000000000001
 20
0.2876
 30
0.0
 11
1.6585000000000001
 21
0.2857
 31
0.0
  0
LINE
  5
AF
100
AcDbEntity
100
AcDbLine
  8
BLACK
 62
256
370
-1
  6
ByLayer
 10
1.6585000000000001
 20
0.2857
 30
0.0
 11
1.6642000000000001
 21
0.2838
 31
0.0
  0
LINE
  5
B0
100
AcDbEntity
100
AcDbLine
  8
BLACK
 62
256
370
-1
  6
ByLayer
 10
1.6642000000000001
 20
0.2838
 30
0.0
 11
1.6680000000000001
 21
0.2838
 31
0.0
  0
LINE
  5
B1
100
AcDbEntity
100
AcDbLine
  8
BLACK
 62
256
370
-1
  6
ByLayer
 10
1.6680000000000001
 20
0.2838
 30
0.0
 11
1.6738000000000002
 21
0.2857
 31
0.0
  0
LINE
  5
B2
100
AcDbEntity
100
AcDbLine
  8
BLACK
 62
256
370
-1
  6
ByLayer
 10
1.6738000000000002
 20
0.2857
 30
0.0
 11
1.6776
 21
0.2895
 31
0.0
  0
LINE
  5
B3
100
AcDbEntity
100
AcDbLine
  8
BLACK
 62
256
370
-1
  6
ByLayer
 10
1.6776
 20
0.2895
 30
0.0
 11
1.6795
 21
0.2933
 31
0.0
  0
LINE
  5
B4
100
AcDbEntity
100
AcDbLine
  8
BLACK
 62
256
370
-1
  6
ByLayer
 10
1.6795
 20
0.2933
 30
0.0
 11
1.6814
 21
0.301
 31
0.0
  0
LINE
  5
B5
100
AcDbEntity
100
AcDbLine
  8
BLACK
 62
256
370
-1
  6
ByLayer
 10
1.6814
 20
0.301
 30
0.0
 11
1.6814
 21
0.3067
 31
0.0
  0
LINE
  5
B6
100
AcDbEntity
100
AcDbLine
  8
BLACK
 62
256
370
-1
  6
ByLayer
 10
1.6814
 20
0.3067
 30
0.0
 11
1.6795
 21
0.3143
 31
0.0
  0
LINE
  5
B7
100
AcDbEntity
100
AcDbLine
  8
BLACK
 62
256
370
-1
  6
ByLayer
 10
1.6795
 20
0.3143
 30
0.0
 11
1.6776
 21
0.3181
 31
0.0
  0
LINE
  5
B8
100
AcDbEntity
100
AcDbLine
  8
BLACK
 62
256
370
-1
  6
ByLayer
 10
1.6776
 20
0.3181
 30
0.0
 11
1.6738000000000002
 21
0.3219
 31
0.0
  0
LINE
  5
B9
100
AcDbEntity
100
AcDbLine
  8
BLACK
 62
256
370
-1
  6
ByLayer
 10
1.6738000000000002
 20
0.3219
 30
0.0
 11
1.6680000000000001
 21
0.3238
 31
0.0
  0
LINE
  5
BA
100
AcDbEntity
100
AcDbLine
  8
BLACK
 62
256
370
-1
  6
ByLayer
 10
1.6680000000000001
 20
0.3238
 30
0.0
 11
1.6642000000000001
 21
0.3238
 31
0.0
  0
LINE
  5
BB
100
AcDbEntity
100
AcDbLine
  8
BLACK
 62
256
370
-1
  6
ByLayer
 10
1.6642000000000001
 20
0.3238
 30
0.0
 11
1.6585000000000001
 21
0.3219
 31
0.0
  0
LINE
  5
BC
100
AcDbEntity
100
AcDbLine
  8
BLACK
 62
256
370
-1
  6
ByLayer
 10
1.6585000000000001
 20
0.3219
 30
0.0
 11
1.6566000000000001
 21
0.32
 31
0.0
  0
LINE
  5
BD
100
AcDbEntity
100
AcDbLine
  8
BLACK
 62
256
370
-1
  6
ByLayer
 10
1.6204000000000001
 20
0.3238
 30
0.0
 11
1.6395000000000002
 21
0.3238
 31
0.0
  0
LINE
  5
BE
100
AcDbEntity
100
AcDbLine
  8
BLACK
 62
256
370
-1
  6
ByLayer
 10
1.6395000000000002
 20
0.3238
 30
0.0
 11
1.6414
 21
0.3048
 31
0.0
  0
LINE
  5
BF
100
AcDbEntity
100
AcDbLine
  8
BLACK
 62
256
370
-1
  6
ByLayer
 10
1.6414
 20
0.3048
 30
0.0
 11
1.6395000000000002
 21
0.3067
 31
0.0
  0
LINE
  5
C0
100
AcDbEntity
100
AcDbLine
  8
BLACK
 62
256
370
-1
  6
ByLayer
 10
1.6395000000000002
 20
0.3067
 30
0.0
 11
1.6357000000000002
 21
0.3086
 31
0.0
  0
LINE
  5
C1
100
AcDbEntity
100
AcDbLine
  8
BLACK
 62
256
370
-1
  6
ByLayer
 10
1.6357000000000002
 20
0.3086
 30
0.0
 11
1.6261000000000001
 21
0.3086
 31
0.0
  0
LINE
  5
C2
100
AcDbEntity
100
AcDbLine
  8
BLACK
 62
256
370
-1
  6
ByLayer
 10
1.6261000000000001
 20
0.3086
 30
0.0
 11
1.6223000000000001
 21
0.3067
 31
0.0
  0
LINE
  5
C3
100
AcDbEntity
100
AcDbLine
  8
BLACK
 62
256
370
-1
  6
ByLayer
 10
1.6223000000000001
 20
0.3067
 30
0.0
 11
1.6204000000000001
 21
0.3048
 31
0.0
  0
LINE
  5
C4
100
AcDbEntity
100
AcDbLine
  8
BLACK
 62
256
370
-1
  6
ByLayer
 10
1.6204000000000001
 20
0.3048
 30
0.0
 11
1.6185
 21
0.301
 31
0.0
  0
LINE
  5
C5
100
AcDbEntity
100
AcDbLine
  8
BLACK
 62
256
370
-1
  6
ByLayer
 10
1.6185
 20
0.301
 30
0.0
 11
1.6185
 21
0.2914
 31
0.0
  0
LINE
  5
C6
100
AcDbEntity
100
AcDbLine
  8
BLACK
 62
256
370
-1
  6
ByLayer
 10
1.6185
 20
0.2914
 30
0.0
 11
1.6204000000000001
 21
0.2876
 31
0.0
  0
LINE
  5
C7
100
AcDbEntity
100
AcDbLine
  8
BLACK
 62
256
370
-1
  6
ByLayer
 10
1.6204000000000001
 20
0.2876
 30
0.0
 11
1.6223000000000001
 21
0.2857
 31
0.0
  0
LINE
  5
C8
100
AcDbEntity
100
AcDbLine
  8
BLACK
 62
256
370
-1
  6
ByLayer
 10
1.6223000000000001
 20
0.2857
 30
0.0
 11
1.6261000000000001
 21
0.2838
 31
0.0
  0
LINE
  5
C9
100
AcDbEntity
100
AcDbLine
  8
BLACK
 62
256
370
-1
  6
ByLayer
 10
1.6261000000000001
 20
0.2838
 30
0.0
 11
1.6357000000000002
 21
0.2838
 31
0.0
  0
LINE
  5
CA
100
AcDbEntity
100
AcDbLine
  8
BLACK
 62
256
370
-1
  6
ByLayer
 10
1.6357000000000002
 20
0.2838
 30
0.0
 11
1.6395000000000002
 21
0.2857
 31
0.0
  0
LINE
  5
CB
100
AcDbEntity
100
AcDbLine
  8
BLACK
 62
256
370
-1
  6
ByLayer
 10
1.6395000000000002
 20
0.2857
 30
0.0
 11
1.6414
 21
0.2876
 31
0.0
  0
LINE
  5
CC
100
AcDbEntity
100
AcDbLine
  8
BLACK
 62
256
370
-1
  6
ByLayer
 10
1.5600000000000001
 20
0.5064000000000001
 30
0.0
 11
1.5586
 21
0.505
 31
0.0
  0
LINE
  5
CD
100
AcDbEntity
100
AcDbLine
  8
BLACK
 62
256
370
-1
  6
ByLayer
 10
1.5586
 20
0.505
 30
0.0
 11
1.5571000000000002
 21
0.5021
 31
0.0
  0
LINE
  5
CE
100
AcDbEntity
100
AcDbLine
  8
BLACK
 62
256
370
-1
  6
ByLayer
 10
1.5571000000000002
 20
0.5021
 30
0.0
 11
1.5571000000000002
 21
0.4950000000000001
 31
0.0
  0
LINE
  5
CF
100
AcDbEntity
100
AcDbLine
  8
BLACK
 62
256
370
-1
  6
ByLayer
 10
1.5571000000000002
 20
0.4950000000000001
 30
0.0
 11
1.5586
 21
0.4921
 31
0.0
  0
LINE
  5
D0
100
AcDbEntity
100
AcDbLine
  8
BLACK
 62
256
370
-1
  6
ByLayer
 10
1.5586
 20
0.4921
 30
0.0
 11
1.5600000000000001
 21
0.4907
 31
0.0
  0
LINE
  5
D1
100
AcDbEntity
100
AcDbLine
  8
BLACK
 62
256
370
-1
  6
ByLayer
 10
1.5600000000000001
 20
0.4907
 30
0.0
 11
1.5629000000000002
 21
0.4892
 31
0.0
  0
LINE
  5
D2
100
AcDbEntity
100
AcDbLine
  8
BLACK
 62
256
370
-1
  6
ByLayer
 10
1.5629000000000002
 20
0.4892
 30
0.0
 11
1.5657000000000001
 21
0.4892
 31
0.0
  0
LINE
  5
D3
100
AcDbEntity
100
AcDbLine
  8
BLACK
 62
256
370
-1
  6
ByLayer
 10
1.5657000000000001
 20
0.4892
 30
0.0
 11
1.5700000000000001
 21
0.4907
 31
0.0
  0
LINE
  5
D4
100
AcDbEntity
100
AcDbLine
  8
BLACK
 62
256
370
-1
  6
ByLayer
 10
1.5700000000000001
 20
0.4907
 30
0.0
 11
1.5871000000000002
 21
0.5078
 31
0.0
  0
LINE
  5
D5
100
AcDbEntity
100
AcDbLine
  8
BLACK
 62
256
370
-1
  6
ByLayer
 10
1.5871000000000002
 20
0.5078
 30
0.0
 11
1.5871000000000002
 21
0.4892
 31
0.0
  0
LINE
  5
D6
100
AcDbEntity
100
AcDbLine
  8
BLACK
 62
256
370
-1
  6
ByLayer
 10
1.5843
 20
0.4764
 30
0.0
 11
1.5857000000000001
 21
0.4749
 31
0.0
  0
LINE
  5
D7
100
AcDbEntity
100
AcDbLine
  8
BLACK
 62
256
370
-1
  6
ByLayer
 10
1.5857000000000001
 20
0.4749
 30
0.0
 11
1.5871000000000002
 21
0.4764
 31
0.0
  0
LINE
  5
D8
100
AcDbEntity
100
AcDbLine
  8
BLACK
 62
256
370
-1
  6
ByLayer
 10
1.5871000000000002
 20
0.4764
 30
0.0
 11
1.5857000000000001
 21
0.4778
 31
0.0
  0
LINE
  5
D9
100
AcDbEntity
100
AcDbLine
  8
BLACK
 62
256
370
-1
  6
ByLayer
 10
1.5857000000000001
 20
0.4778
 30
0.0
 11
1.5843
 21
0.4764
 31
0.0
  0
LINE
  5
DA
100
AcDbEntity
100
AcDbLine
  8
BLACK
 62
256
370
-1
  6
ByLayer
 10
1.5843
 20
0.4764
 30
0.0
 11
1.5871000000000002
 21
0.4764
 31
0.0
  0
LINE
  5
DB
100
AcDbEntity
100
AcDbLine
  8
BLACK
 62
256
370
-1
  6
ByLayer
 10
1.5600000000000001
 20
0.4635
 30
0.0
 11
1.5586
 21
0.4621
 31
0.0
  0
LINE
  5
DC
100
AcDbEntity
100
AcDbLine
  8
BLACK
 62
256
370
-1
  6
ByLayer
 10
1.5586
 20
0.4621
 30
0.0
 11
1.5571000000000002
 21
0.4592
 31
0.0
  0
LINE
  5
DD
100
AcDbEntity
100
AcDbLine
  8
BLACK
 62
256
370
-1
  6
ByLayer
 10
1.5571000000000002
 20
0.4592
 30
0.0
 11
1.5571000000000002
 21
0.4521
 31
0.0
  0
LINE
  5
DE
100
AcDbEntity
100
AcDbLine
  8
BLACK
 62
256
370
-1
  6
ByLayer
 10
1.5571000000000002
 20
0.4521
 30
0.0
 11
1.5586
 21
0.4492
 31
0.0
  0
LINE
  5
DF
100
AcDbEntity
100
AcDbLine
  8
BLACK
 62
256
370
-1
  6
ByLayer
 10
1.5586
 20
0.4492
 30
0.0
 11
1.5600000000000001
 21
0.4478
 31
0.0
  0
LINE
  5
E0
100
AcDbEntity
100
AcDbLine
  8
BLACK
 62
256
370
-1
  6
ByLayer
 10
1.5600000000000001
 20
0.4478
 30
0.0
 11
1.5629000000000002
 21
0.4463
 31
0.0
  0
LINE
  5
E1
100
AcDbEntity
100
AcDbLine
  8
BLACK
 62
256
370
-1
  6
ByLayer
 10
1.5629000000000002
 20
0.4463
 30
0.0
 11
1.5657000000000001
 21
0.4463
 31
0.0
  0
LINE
  5
E2
100
AcDbEntity
100
AcDbLine
  8
BLACK
 62
256
370
-1
  6
ByLayer
 10
1.5657000000000001
 20
0.4463
 30
0.0
 11
1.5700000000000001
 21
0.4478
 31
0.0
  0
LINE
  5
E3
100
AcDbEntity
100
AcDbLine
  8
BLACK
 62
256
370
-1
  6
ByLayer
 10
1.5700000000000001
 20
0.4478
 30
0.0
 11
1.5871000000000002
 21
0.4649
 31
0.0
  0
LINE
  5
E4
100
AcDbEntity
100
AcDbLine
  8
BLACK
 62
256
370
-1
  6
ByLayer
 10
1.5871000000000002
 20
0.4649
 30
0.0
 11
1.5871000000000002
 21
0.4463
 31
0.0
  0
LINE
  5
E5
100
AcDbEntity
100
AcDbLine
  8
BLACK
 62
256
370
-1
  6
ByLayer
 10
1.5671000000000002
 20
0.4206
 30
0.0
 11
1.5871000000000002
 21
0.4206
 31
0.0
  0
LINE
  5
E6
100
AcDbEntity
100
AcDbLine
  8
BLACK
 62
256
370
-1
  6
ByLayer
 10
1.5671000000000002
 20
0.4335
 30
0.0
 11
1.5829
 21
0.4335
 31
0.0
  0
LINE
  5
E7
100
AcDbEntity
100
AcDbLine
  8
BLACK
 62
256
370
-1
  6
ByLayer
 10
1.5829
 20
0.4335
 30
0.0
 11
1.5857000000000001
 21
0.432
 31
0.0
  0
LINE
  5
E8
100
AcDbEntity
100
AcDbLine
  8
BLACK
 62
256
370
-1
  6
ByLayer
 10
1.5857000000000001
 20
0.432
 30
0.0
 11
1.5871000000000002
 21
0.4292
 31
0.0
  0
LINE
  5
E9
100
AcDbEntity
100
AcDbLine
  8
BLACK
 62
256
370
-1
  6
ByLayer
 10
1.5871000000000002
 20
0.4292
 30
0.0
 11
1.5871000000000002
 21
0.4249
 31
0.0
  0
LINE
  5
EA
100
AcDbEntity
100
AcDbLine
  8
BLACK
 62
256
370
-1
  6
ByLayer
 10
1.5871000000000002
 20
0.4249
 30
0.0
 11
1.5857000000000001
 21
0.422
 31
0.0
  0
LINE
  5
EB
100
AcDbEntity
100
AcDbLine
  8
BLACK
 62
256
370
-1
  6
ByLayer
 10
1.5857000000000001
 20
0.422
 30
0.0
 11
1.5843
 21
0.4206
 31
0.0
  0
LINE
  5
EC
100
AcDbEntity
100
AcDbLine
  8
BLACK
 62
256
370
-1
  6
ByLayer
 10
1.5714000000000001
 20
0.3964
 30
0.0
 11
1.5714000000000001
 21
0.4064
 31
0.0
  0
LINE
  5
ED
100
AcDbEntity
100
AcDbLine
  8
BLACK
 62
256
370
-1
  6
ByLayer
 10
1.5871000000000002
 20
0.4064
 30
0.0
 11
1.5571000000000002
 21
0.4064
 31
0.0
  0
LINE
  5
EE
100
AcDbEntity
100
AcDbLine
  8
BLACK
 62
256
370
-1
  6
ByLayer
 10
1.5571000000000002
 20
0.4064
 30
0.0
 11
1.5571000000000002
 21
0.3921
 31
0.0
  0
LINE
  5
EF
100
AcDbEntity
100
AcDbLine
  8
BLACK
 62
256
370
-1
  6
ByLayer
 10
4.3374000000000006
 20
1.6316000000000002
 30
0.0
 11
4.3393000000000006
 21
1.6335000000000002
 31
0.0
  0
LINE
  5
F0
100
AcDbEntity
100
AcDbLine
  8
BLACK
 62
256
370
-1
  6
ByLayer
 10
4.3393000000000006
 20
1.6335000000000002
 30
0.0
 11
4.3412000000000006
 21
1.6392
 31
0.0
  0
LINE
  5
F1
100
AcDbEntity
100
AcDbLine
  8
BLACK
 62
256
370
-1
  6
ByLayer
 10
4.3412000000000006
 20
1.6392
 30
0.0
 11
4.3412000000000006
 21
1.643
 31
0.0
  0
LINE
  5
F2
100
AcDbEntity
100
AcDbLine
  8
BLACK
 62
256
370
-1
  6
ByLayer
 10
4.3412000000000006
 20
1.643
 30
0.0
 11
4.3393000000000006
 21
1.6488
 31
0.0
  0
LINE
  5
F3
100
AcDbEntity
100
AcDbLine
  8
BLACK
 62
256
370
-1
  6
ByLayer
 10
4.3393000000000006
 20
1.6488
 30
0.0
 11
4.3355000000000006
 21
1.6526000000000001
 31
0.0
  0
LINE
  5
F4
100
AcDbEntity
100
AcDbLine
  8
BLACK
 62
256
370
-1
  6
ByLayer
 10
4.3355000000000006
 20
1.6526000000000001
 30
0.0
 11
4.3317000000000005
 21
1.6545000000000001
 31
0.0
  0
LINE
  5
F5
100
AcDbEntity
100
AcDbLine
  8
BLACK
 62
256
370
-1
  6
ByLayer
 10
4.3317000000000005
 20
1.6545000000000001
 30
0.0
 11
4.3239999999999998
 21
1.6564000000000001
 31
0.0
  0
LINE
  5
F6
100
AcDbEntity
100
AcDbLine
  8
BLACK
 62
256
370
-1
  6
ByLayer
 10
4.3239999999999998
 20
1.6564000000000001
 30
0.0
 11
4.3182999999999998
 21
1.6564000000000001
 31
0.0
  0
LINE
  5
F7
100
AcDbEntity
100
AcDbLine
  8
BLACK
 62
256
370
-1
  6
ByLayer
 10
4.3182999999999998
 20
1.6564000000000001
 30
0.0
 11
4.3107000000000006
 21
1.6545000000000001
 31
0.0
  0
LINE
  5
F8
100
AcDbEntity
100
AcDbLine
  8
BLACK
 62
256
370
-1
  6
ByLayer
 10
4.3107000000000006
 20
1.6545000000000001
 30
0.0
 11
4.3069000000000006
 21
1.6526000000000001
 31
0.0
  0
LINE
  5
F9
100
AcDbEntity
100
AcDbLine
  8
BLACK
 62
256
370
-1
  6
ByLayer
 10
4.3069000000000006
 20
1.6526000000000001
 30
0.0
 11
4.3031000000000006
 21
1.6488
 31
0.0
  0
LINE
  5
FA
100
AcDbEntity
100
AcDbLine
  8
BLACK
 62
256
370
-1
  6
ByLayer
 10
4.3031000000000006
 20
1.6488
 30
0.0
 11
4.3012000000000006
 21
1.643
 31
0.0
  0
LINE
  5
FB
100
AcDbEntity
100
AcDbLine
  8
BLACK
 62
256
370
-1
  6
ByLayer
 10
4.3012000000000006
 20
1.643
 30
0.0
 11
4.3012000000000006
 21
1.6392
 31
0.0
  0
LINE
  5
FC
100
AcDbEntity
100
AcDbLine
  8
BLACK
 62
256
370
-1
  6
ByLayer
 10
4.3012000000000006
 20
1.6392
 30
0.0
 11
4.3031000000000006
 21
1.6335000000000002
 31
0.0
  0
LINE
  5
FD
100
AcDbEntity
100
AcDbLine
  8
BLACK
 62
256
370
-1
  6
ByLayer
 10
4.3031000000000006
 20
1.6335000000000002
 30
0.0
 11
4.3050000000000006
 21
1.6316000000000002
 31
0.0
  0
LINE
  5
FE
100
AcDbEntity
100
AcDbLine
  8
BLACK
 62
256
370
-1
  6
ByLayer
 10
4.3012000000000006
 20
1.5973000000000002
 30
0.0
 11
4.3012000000000006
 21
1.605
 31
0.0
  0
LINE
  5
FF
100
AcDbEntity
100
AcDbLine
  8
BLACK
 62
256
370
-1
  6
ByLayer
 10
4.3012000000000006
 20
1.605
 30
0.0
 11
4.3031000000000006
 21
1.6088
 31
0.0
  0
LINE
  5
100
100
AcDbEntity
100
AcDbLine
  8
BLACK
 62
256
370
-1
  6
ByLayer
 10
4.3031000000000006
 20
1.6088
 30
0.0
 11
4.3050000000000006
 21
1.6107
 31
0.0
  0
LINE
  5
101
100
AcDbEntity
100
AcDbLine
  8
BLACK
 62
256
370
-1
  6
ByLayer
 10
4.3050000000000006
 20
1.6107
 30
0.0
 11
4.3107000000000006
 21
1.6145
 31
0.0
  0
LINE
  5
102
100
AcDbEntity
100
AcDbLine
  8
BLACK
 62
256
370
-1
  6
ByLayer
 10
4.3107000000000006
 20
1.6145
 30
0.0
 11
4.3182999999999998
 21
1.6164000000000001
 31
0.0
  0
LINE
  5
103
100
AcDbEntity
100
AcDbLine
  8
BLACK
 62
256
370
-1
  6
ByLayer
 10
4.3182999999999998
 20
1.6164000000000001
 30
0.0
 11
4.3336000000000006
 21
1.6164000000000001
 31
0.0
  0
LINE
  5
104
100
AcDbEntity
100
AcDbLine
  8
BLACK
 62
256
370
-1
  6
ByLayer
 10
4.3336000000000006
 20
1.6164000000000001
 30
0.0
 11
4.3374000000000006
 21
1.6145
 31
0.0
  0
LINE
  5
105
100
AcDbEntity
100
AcDbLine
  8
BLACK
 62
256
370
-1
  6
ByLayer
 10
4.3374000000000006
 20
1.6145
 30
0.0
 11
4.3393000000000006
 21
1.6126
 31
0.0
  0
LINE
  5
106
100
AcDbEntity
100
AcDbLine
  8
BLACK
 62
256
370
-1
  6
ByLayer
 10
4.3393000000000006
 20
1.6126
 30
0.0
 11
4.3412000000000006
 21
1.6088
 31
0.0
  0
LINE
  5
107
100
AcDbEntity
100
AcDbLine
  8
BLACK
 62
256
370
-1
  6
ByLayer
 10
4.3412000000000006
 20
1.6088
 30
0.0
 11
4.3412000000000006
 21
1.6011
 31
0.0
  0
LINE
  5
108
100
AcDbEntity
100
AcDbLine
  8
BLACK
 62
256
370
-1
  6
ByLayer
 10
4.3412000000000006
 20
1.6011
 30
0.0
 11
4.3393000000000006
 21
1.5973000000000002
 31
0.0
  0
LINE
  5
109
100
AcDbEntity
100
AcDbLine
  8
BLACK
 62
256
370
-1
  6
ByLayer
 10
4.3393000000000006
 20
1.5973000000000002
 30
0.0
 11
4.3374000000000006
 21
1.5954000000000002
 31
0.0
  0
LINE
  5
10A
100
AcDbEntity
100
AcDbLine
  8
BLACK
 62
256
370
-1
  6
ByLayer
 10
4.3374000000000006
 20
1.5954000000000002
 30
0.0
 11
4.3336000000000006
 21
1.5935000000000001
 31
0.0
  0
LINE
  5
10B
100
AcDbEntity
100
AcDbLine
  8
BLACK
 62
256
370
-1
  6
ByLayer
 10
4.3336000000000006
 20
1.5935000000000001
 30
0.0
 11
4.3239999999999998
 21
1.5935000000000001
 31
0.0
  0
LINE
  5
10C
100
AcDbEntity
100
AcDbLine
  8
BLACK
 62
256
370
-1
  6
ByLayer
 10
4.3239999999999998
 20
1.5935000000000001
 30
0.0
 11
4.3201999999999998
 21
1.5954000000000002
 31
0.0
  0
LINE
  5
10D
100
AcDbEntity
100
AcDbLine
  8
BLACK
 62
256
370
-1
  6
ByLayer
 10
4.3201999999999998
 20
1.5954000000000002
 30
0.0
 11
4.3182999999999998
 21
1.5973000000000002
 31
0.0
  0
LINE
  5
10E
100
AcDbEntity
100
AcDbLine
  8
BLACK
 62
256
370
-1
  6
ByLayer
 10
4.3182999999999998
 20
1.5973000000000002
 30
0.0
 11
4.3163999999999998
 21
1.6011
 31
0.0
  0
LINE
  5
10F
100
AcDbEntity
100
AcDbLine
  8
BLACK
 62
256
370
-1
  6
ByLayer
 10
4.3163999999999998
 20
1.6011
 30
0.0
 11
4.3163999999999998
 21
1.6088
 31
0.0
  0
LINE
  5
110
100
AcDbEntity
100
AcDbLine
  8
BLACK
 62
256
370
-1
  6
ByLayer
 10
4.3163999999999998
 20
1.6088
 30
0.0
 11
4.3182999999999998
 21
1.6126
 31
0.0
  0
LINE
  5
111
100
AcDbEntity
100
AcDbLine
  8
BLACK
 62
256
370
-1
  6
ByLayer
 10
4.3182999999999998
 20
1.6126
 30
0.0
 11
4.3201999999999998
 21
1.6145
 31
0.0
  0
LINE
  5
112
100
AcDbEntity
100
AcDbLine
  8
BLACK
 62
256
370
-1
  6
ByLayer
 10
4.3201999999999998
 20
1.6145
 30
0.0
 11
4.3239999999999998
 21
1.6164000000000001
 31
0.0
  0
LINE
  5
113
100
AcDbEntity
100
AcDbLine
  8
BLACK
 62
256
370
-1
  6
ByLayer
 10
4.2564000000000002
 20
1.5450000000000002
 30
0.0
 11
4.2549999999999999
 21
1.5464
 31
0.0
  0
LINE
  5
114
100
AcDbEntity
100
AcDbLine
  8
BLACK
 62
256
370
-1
  6
ByLayer
 10
4.2549999999999999
 20
1.5464
 30
0.0
 11
4.2521000000000004
 21
1.5479000000000001
 31
0.0
  0
LINE
  5
115
100
AcDbEntity
100
AcDbLine
  8
BLACK
 62
256
370
-1
  6
ByLayer
 10
4.2521000000000004
 20
1.5479000000000001
 30
0.0
 11
4.2450000000000001
 21
1.5479000000000001
 31
0.0
  0
LINE
  5
116
100
AcDbEntity
100
AcDbLine
  8
BLACK
 62
256
370
-1
  6
ByLayer
 10
4.2450000000000001
 20
1.5479000000000001
 30
0.0
 11
4.2420999999999998
 21
1.5464
 31
0.0
  0
LINE
  5
117
100
AcDbEntity
100
AcDbLine
  8
BLACK
 62
256
370
-1
  6
ByLayer
 10
4.2420999999999998
 20
1.5464
 30
0.0
 11
4.2407000000000004
 21
1.5450000000000002
 31
0.0
  0
LINE
  5
118
100
AcDbEntity
100
AcDbLine
  8
BLACK
 62
256
370
-1
  6
ByLayer
 10
4.2407000000000004
 20
1.5450000000000002
 30
0.0
 11
4.2392000000000003
 21
1.5421
 31
0.0
  0
LINE
  5
119
100
AcDbEntity
100
AcDbLine
  8
BLACK
 62
256
370
-1
  6
ByLayer
 10
4.2392000000000003
 20
1.5421
 30
0.0
 11
4.2392000000000003
 21
1.5393000000000001
 31
0.0
  0
LINE
  5
11A
100
AcDbEntity
100
AcDbLine
  8
BLACK
 62
256
370
-1
  6
ByLayer
 10
4.2392000000000003
 20
1.5393000000000001
 30
0.0
 11
4.2407000000000004
 21
1.5350000000000001
 31
0.0
  0
LINE
  5
11B
100
AcDbEntity
100
AcDbLine
  8
BLACK
 62
256
370
-1
  6
ByLayer
 10
4.2407000000000004
 20
1.5350000000000001
 30
0.0
 11
4.2578000000000005
 21
1.5179
 31
0.0
  0
LINE
  5
11C
100
AcDbEntity
100
AcDbLine
  8
BLACK
 62
256
370
-1
  6
ByLayer
 10
4.2578000000000005
 20
1.5179
 30
0.0
 11
4.2392000000000003
 21
1.5179
 31
0.0
  0
LINE
  5
11D
100
AcDbEntity
100
AcDbLine
  8
BLACK
 62
256
370
-1
  6
ByLayer
 10
4.2263999999999999
 20
1.5207000000000002
 30
0.0
 11
4.2248999999999999
 21
1.5193000000000001
 31
0.0
  0
LINE
  5
11E
100
AcDbEntity
100
AcDbLine
  8
BLACK
 62
256
370
-1
  6
ByLayer
 10
4.2248999999999999
 20
1.5193000000000001
 30
0.0
 11
4.2263999999999999
 21
1.5179
 31
0.0
  0
LINE
  5
11F
100
AcDbEntity
100
AcDbLine
  8
BLACK
 62
256
370
-1
  6
ByLayer
 10
4.2263999999999999
 20
1.5179
 30
0.0
 11
4.2278000000000002
 21
1.5193000000000001
 31
0.0
  0
LINE
  5
120
100
AcDbEntity
100
AcDbLine
  8
BLACK
 62
256
370
-1
  6
ByLayer
 10
4.2278000000000002
 20
1.5193000000000001
 30
0.0
 11
4.2263999999999999
 21
1.5207000000000002
 31
0.0
  0
LINE
  5
121
100
AcDbEntity
100
AcDbLine
  8
BLACK
 62
256
370
-1
  6
ByLayer
 10
4.2263999999999999
 20
1.5207000000000002
 30
0.0
 11
4.2263999999999999
 21
1.5179
 31
0.0
  0
LINE
  5
122
100
AcDbEntity
100
AcDbLine
  8
BLACK
 62
256
370
-1
  6
ByLayer
 10
4.2134999999999998
 20
1.5450000000000002
 30
0.0
 11
4.2121000000000004
 21
1.5464
 31
0.0
  0
LINE
  5
123
100
AcDbEntity
100
AcDbLine
  8
BLACK
 62
256
370
-1
  6
ByLayer
 10
4.2121000000000004
 20
1.5464
 30
0.0
 11
4.2092000000000001
 21
1.5479000000000001
 31
0.0
  0
LINE
  5
124
100
AcDbEntity
100
AcDbLine
  8
BLACK
 62
256
370
-1
  6
ByLayer
 10
4.2092000000000001
 20
1.5479000000000001
 30
0.0
 11
4.2021000000000006
 21
1.5479000000000001
 31
0.0
  0
LINE
  5
125
100
AcDbEntity
100
AcDbLine
  8
BLACK
 62
256
370
-1
  6
ByLayer
 10
4.2021000000000006
 20
1.5479000000000001
 30
0.0
 11
4.1992000000000003
 21
1.5464
 31
0.0
  0
LINE
  5
126
100
AcDbEntity
100
AcDbLine
  8
BLACK
 62
256
370
-1
  6
ByLayer
 10
4.1992000000000003
 20
1.5464
 30
0.0
 11
4.1978
 21
1.5450000000000002
 31
0.0
  0
LINE
  5
127
100
AcDbEntity
100
AcDbLine
  8
BLACK
 62
256
370
-1
  6
ByLayer
 10
4.1978
 20
1.5450000000000002
 30
0.0
 11
4.1962999999999999
 21
1.5421
 31
0.0
  0
LINE
  5
128
100
AcDbEntity
100
AcDbLine
  8
BLACK
 62
256
370
-1
  6
ByLayer
 10
4.1962999999999999
 20
1.5421
 30
0.0
 11
4.1962999999999999
 21
1.5393000000000001
 31
0.0
  0
LINE
  5
129
100
AcDbEntity
100
AcDbLine
  8
BLACK
 62
256
370
-1
  6
ByLayer
 10
4.1962999999999999
 20
1.5393000000000001
 30
0.0
 11
4.1978
 21
1.5350000000000001
 31
0.0
  0
LINE
  5
12A
100
AcDbEntity
100
AcDbLine
  8
BLACK
 62
256
370
-1
  6
ByLayer
 10
4.1978
 20
1.5350000000000001
 30
0.0
 11
4.2149000000000001
 21
1.5179
 31
0.0
  0
LINE
  5
12B
100
AcDbEntity
100
AcDbLine
  8
BLACK
 62
256
370
-1
  6
ByLayer
 10
4.2149000000000001
 20
1.5179
 30
0.0
 11
4.1962999999999999
 21
1.5179
 31
0.0
  0
LINE
  5
12C
100
AcDbEntity
100
AcDbLine
  8
BLACK
 62
256
370
-1
  6
ByLayer
 10
4.1706000000000003
 20
1.5379
 30
0.0
 11
4.1706000000000003
 21
1.5179
 31
0.0
  0
LINE
  5
12D
100
AcDbEntity
100
AcDbLine
  8
BLACK
 62
256
370
-1
  6
ByLayer
 10
4.1835000000000004
 20
1.5379
 30
0.0
 11
4.1835000000000004
 21
1.5221
 31
0.0
  0
LINE
  5
12E
100
AcDbEntity
100
AcDbLine
  8
BLACK
 62
256
370
-1
  6
ByLayer
 10
4.1835000000000004
 20
1.5221
 30
0.0
 11
4.1820000000000004
 21
1.5193000000000001
 31
0.0
  0
LINE
  5
12F
100
AcDbEntity
100
AcDbLine
  8
BLACK
 62
256
370
-1
  6
ByLayer
 10
4.1820000000000004
 20
1.5193000000000001
 30
0.0
 11
4.1791999999999998
 21
1.5179
 31
0.0
  0
LINE
  5
130
100
AcDbEntity
100
AcDbLine
  8
BLACK
 62
256
370
-1
  6
ByLayer
 10
4.1791999999999998
 20
1.5179
 30
0.0
 11
4.1749000000000001
 21
1.5179
 31
0.0
  0
LINE
  5
131
100
AcDbEntity
100
AcDbLine
  8
BLACK
 62
256
370
-1
  6
ByLayer
 10
4.1749000000000001
 20
1.5179
 30
0.0
 11
4.1720000000000006
 21
1.5193000000000001
 31
0.0
  0
LINE
  5
132
100
AcDbEntity
100
AcDbLine
  8
BLACK
 62
256
370
-1
  6
ByLayer
 10
4.1720000000000006
 20
1.5193000000000001
 30
0.0
 11
4.1706000000000003
 21
1.5207000000000002
 31
0.0
  0
LINE
  5
133
100
AcDbEntity
100
AcDbLine
  8
BLACK
 62
256
370
-1
  6
ByLayer
 10
4.1463999999999999
 20
1.5336000000000001
 30
0.0
 11
4.1564000000000005
 21
1.5336000000000001
 31
0.0
  0
LINE
  5
134
100
AcDbEntity
100
AcDbLine
  8
BLACK
 62
256
370
-1
  6
ByLayer
 10
4.1564000000000005
 20
1.5179
 30
0.0
 11
4.1564000000000005
 21
1.5479000000000001
 31
0.0
  0
LINE
  5
135
100
AcDbEntity
100
AcDbLine
  8
BLACK
 62
256
370
-1
  6
ByLayer
 10
4.1564000000000005
 20
1.5479000000000001
 30
0.0
 11
4.1421000000000001
 21
1.5479000000000001
 31
0.0
  0
LINE
  5
136
100
AcDbEntity
100
AcDbLine
  8
BLACK
 62
256
370
-1
  6
ByLayer
 10
3.5066000000000002
 20
1.3376000000000001
 30
0.0
 11
3.5085000000000002
 21
1.3357000000000001
 31
0.0
  0
LINE
  5
137
100
AcDbEntity
100
AcDbLine
  8
BLACK
 62
256
370
-1
  6
ByLayer
 10
3.5085000000000002
 20
1.3357000000000001
 30
0.0
 11
3.5142000000000002
 21
1.3338000000000001
 31
0.0
  0
LINE
  5
138
100
AcDbEntity
100
AcDbLine
  8
BLACK
 62
256
370
-1
  6
ByLayer
 10
3.5142000000000002
 20
1.3338000000000001
 30
0.0
 11
3.5180000000000002
 21
1.3338000000000001
 31
0.0
  0
LINE
  5
139
100
AcDbEntity
100
AcDbLine
  8
BLACK
 62
256
370
-1
  6
ByLayer
 10
3.5180000000000002
 20
1.3338000000000001
 30
0.0
 11
3.5238
 21
1.3357000000000001
 31
0.0
  0
LINE
  5
13A
100
AcDbEntity
100
AcDbLine
  8
BLACK
 62
256
370
-1
  6
ByLayer
 10
3.5238
 20
1.3357000000000001
 30
0.0
 11
3.5276000000000001
 21
1.3395000000000001
 31
0.0
  0
LINE
  5
13B
100
AcDbEntity
100
AcDbLine
  8
BLACK
 62
256
370
-1
  6
ByLayer
 10
3.5276000000000001
 20
1.3395000000000001
 30
0.0
 11
3.5295000000000001
 21
1.3433000000000002
 31
0.0
  0
LINE
  5
13C
100
AcDbEntity
100
AcDbLine
  8
BLACK
 62
256
370
-1
  6
ByLayer
 10
3.5295000000000001
 20
1.3433000000000002
 30
0.0
 11
3.5314000000000001
 21
1.351
 31
0.0
  0
LINE
  5
13D
100
AcDbEntity
100
AcDbLine
  8
BLACK
 62
256
370
-1
  6
ByLayer
 10
3.5314000000000001
 20
1.351
 30
0.0
 11
3.5314000000000001
 21
1.3567
 31
0.0
  0
LINE
  5
13E
100
AcDbEntity
100
AcDbLine
  8
BLACK
 62
256
370
-1
  6
ByLayer
 10
3.5314000000000001
 20
1.3567
 30
0.0
 11
3.5295000000000001
 21
1.3643000000000001
 31
0.0
  0
LINE
  5
13F
100
AcDbEntity
100
AcDbLine
  8
BLACK
 62
256
370
-1
  6
ByLayer
 10
3.5295000000000001
 20
1.3643000000000001
 30
0.0
 11
3.5276000000000001
 21
1.3681000000000001
 31
0.0
  0
LINE
  5
140
100
AcDbEntity
100
AcDbLine
  8
BLACK
 62
256
370
-1
  6
ByLayer
 10
3.5276000000000001
 20
1.3681000000000001
 30
0.0
 11
3.5238
 21
1.3719000000000001
 31
0.0
  0
LINE
  5
141
100
AcDbEntity
100
AcDbLine
  8
BLACK
 62
256
370
-1
  6
ByLayer
 10
3.5238
 20
1.3719000000000001
 30
0.0
 11
3.5180000000000002
 21
1.3738000000000001
 31
0.0
  0
LINE
  5
142
100
AcDbEntity
100
AcDbLine
  8
BLACK
 62
256
370
-1
  6
ByLayer
 10
3.5180000000000002
 20
1.3738000000000001
 30
0.0
 11
3.5142000000000002
 21
1.3738000000000001
 31
0.0
  0
LINE
  5
143
100
AcDbEntity
100
AcDbLine
  8
BLACK
 62
256
370
-1
  6
ByLayer
 10
3.5142000000000002
 20
1.3738000000000001
 30
0.0
 11
3.5085000000000002
 21
1.3719000000000001
 31
0.0
  0
LINE
  5
144
100
AcDbEntity
100
AcDbLine
  8
BLACK
 62
256
370
-1
  6
ByLayer
 10
3.5085000000000002
 20
1.3719000000000001
 30
0.0
 11
3.5066000000000002
 21
1.3700000000000001
 31
0.0
  0
LINE
  5
145
100
AcDbEntity
100
AcDbLine
  8
BLACK
 62
256
370
-1
  6
ByLayer
 10
3.4685000000000001
 20
1.3338000000000001
 30
0.0
 11
3.4914000000000001
 21
1.3338000000000001
 31
0.0
  0
LINE
  5
146
100
AcDbEntity
100
AcDbLine
  8
BLACK
 62
256
370
-1
  6
ByLayer
 10
3.48
 20
1.3338000000000001
 30
0.0
 11
3.48
 21
1.3738000000000001
 31
0.0
  0
LINE
  5
147
100
AcDbEntity
100
AcDbLine
  8
BLACK
 62
256
370
-1
  6
ByLayer
 10
3.48
 20
1.3738000000000001
 30
0.0
 11
3.4838
 21
1.3681000000000001
 31
0.0
  0
LINE
  5
148
100
AcDbEntity
100
AcDbLine
  8
BLACK
 62
256
370
-1
  6
ByLayer
 10
3.4838
 20
1.3681000000000001
 30
0.0
 11
3.4876
 21
1.3643000000000001
 31
0.0
  0
LINE
  5
149
100
AcDbEntity
100
AcDbLine
  8
BLACK
 62
256
370
-1
  6
ByLayer
 10
3.4876
 20
1.3643000000000001
 30
0.0
 11
3.4914000000000001
 21
1.3624000000000001
 31
0.0
  0
LINE
  5
14A
100
AcDbEntity
100
AcDbLine
  8
BLACK
 62
256
370
-1
  6
ByLayer
 10
3.6121000000000003
 20
1.2992000000000001
 30
0.0
 11
3.6121000000000003
 21
1.2964
 31
0.0
  0
LINE
  5
14B
100
AcDbEntity
100
AcDbLine
  8
BLACK
 62
256
370
-1
  6
ByLayer
 10
3.6121000000000003
 20
1.2964
 30
0.0
 11
3.6136000000000004
 21
1.2935000000000001
 31
0.0
  0
LINE
  5
14C
100
AcDbEntity
100
AcDbLine
  8
BLACK
 62
256
370
-1
  6
ByLayer
 10
3.6136000000000004
 20
1.2935000000000001
 30
0.0
 11
3.6150000000000002
 21
1.2921
 31
0.0
  0
LINE
  5
14D
100
AcDbEntity
100
AcDbLine
  8
BLACK
 62
256
370
-1
  6
ByLayer
 10
3.6150000000000002
 20
1.2921
 30
0.0
 11
3.6179000000000001
 21
1.2907
 31
0.0
  0
LINE
  5
14E
100
AcDbEntity
100
AcDbLine
  8
BLACK
 62
256
370
-1
  6
ByLayer
 10
3.6179000000000001
 20
1.2907
 30
0.0
 11
3.6236000000000002
 21
1.2892000000000001
 31
0.0
  0
LINE
  5
14F
100
AcDbEntity
100
AcDbLine
  8
BLACK
 62
256
370
-1
  6
ByLayer
 10
3.6236000000000002
 20
1.2892000000000001
 30
0.0
 11
3.6307
 21
1.2892000000000001
 31
0.0
  0
LINE
  5
150
100
AcDbEntity
100
AcDbLine
  8
BLACK
 62
256
370
-1
  6
ByLayer
 10
3.6307
 20
1.2892000000000001
 30
0.0
 11
3.6364000000000001
 21
1.2907
 31
0.0
  0
LINE
  5
151
100
AcDbEntity
100
AcDbLine
  8
BLACK
 62
256
370
-1
  6
ByLayer
 10
3.6364000000000001
 20
1.2907
 30
0.0
 11
3.6393
 21
1.2921
 31
0.0
  0
LINE
  5
152
100
AcDbEntity
100
AcDbLine
  8
BLACK
 62
256
370
-1
  6
ByLayer
 10
3.6393
 20
1.2921
 30
0.0
 11
3.6407000000000003
 21
1.2935000000000001
 31
0.0
  0
LINE
  5
153
100
AcDbEntity
100
AcDbLine
  8
BLACK
 62
256
370
-1
  6
ByLayer
 10
3.6407000000000003
 20
1.2935000000000001
 30
0.0
 11
3.6421000000000001
 21
1.2964
 31
0.0
  0
LINE
  5
154
100
AcDbEntity
100
AcDbLine
  8
BLACK
 62
256
370
-1
  6
ByLayer
 10
3.6421000000000001
 20
1.2964
 30
0.0
 11
3.6421000000000001
 21
1.2992000000000001
 31
0.0
  0
LINE
  5
155
100
AcDbEntity
100
AcDbLine
  8
BLACK
 62
256
370
-1
  6
ByLayer
 10
3.6421000000000001
 20
1.2992000000000001
 30
0.0
 11
3.6407000000000003
 21
1.3021
 31
0.0
  0
LINE
  5
156
100
AcDbEntity
100
AcDbLine
  8
BLACK
 62
256
370
-1
  6
ByLayer
 10
3.6407000000000003
 20
1.3021
 30
0.0
 11
3.6393
 21
1.3035000000000001
 31
0.0
  0
LINE
  5
157
100
AcDbEntity
100
AcDbLine
  8
BLACK
 62
256
370
-1
  6
ByLayer
 10
3.6393
 20
1.3035000000000001
 30
0.0
 11
3.6364000000000001
 21
1.3050000000000002
 31
0.0
  0
LINE
  5
158
100
AcDbEntity
100
AcDbLine
  8
BLACK
 62
256
370
-1
  6
ByLayer
 10
3.6364000000000001
 20
1.3050000000000002
 30
0.0
 11
3.6307
 21
1.3064
 31
0.0
  0
LINE
  5
159
100
AcDbEntity
100
AcDbLine
  8
BLACK
 62
256
370
-1
  6
ByLayer
 10
3.6307
 20
1.3064
 30
0.0
 11
3.6236000000000002
 21
1.3064
 31
0.0
  0
LINE
  5
15A
100
AcDbEntity
100
AcDbLine
  8
BLACK
 62
256
370
-1
  6
ByLayer
 10
3.6236000000000002
 20
1.3064
 30
0.0
 11
3.6179000000000001
 21
1.3050000000000002
 31
0.0
  0
LINE
  5
15B
100
AcDbEntity
100
AcDbLine
  8
BLACK
 62
256
370
-1
  6
ByLayer
 10
3.6179000000000001
 20
1.3050000000000002
 30
0.0
 11
3.6150000000000002
 21
1.3035000000000001
 31
0.0
  0
LINE
  5
15C
100
AcDbEntity
100
AcDbLine
  8
BLACK
 62
256
370
-1
  6
ByLayer
 10
3.6150000000000002
 20
1.3035000000000001
 30
0.0
 11
3.6136000000000004
 21
1.3021
 31
0.0
  0
LINE
  5
15D
100
AcDbEntity
100
AcDbLine
  8
BLACK
 62
256
370
-1
  6
ByLayer
 10
3.6136000000000004
 20
1.3021
 30
0.0
 11
3.6121000000000003
 21
1.2992000000000001
 31
0.0
  0
LINE
  5
15E
100
AcDbEntity
100
AcDbLine
  8
BLACK
 62
256
370
-1
  6
ByLayer
 10
3.6393
 20
1.2764
 30
0.0
 11
3.6407000000000003
 21
1.2749000000000001
 31
0.0
  0
LINE
  5
15F
100
AcDbEntity
100
AcDbLine
  8
BLACK
 62
256
370
-1
  6
ByLayer
 10
3.6407000000000003
 20
1.2749000000000001
 30
0.0
 11
3.6421000000000001
 21
1.2764
 31
0.0
  0
LINE
  5
160
100
AcDbEntity
100
AcDbLine
  8
BLACK
 62
256
370
-1
  6
ByLayer
 10
3.6421000000000001
 20
1.2764
 30
0.0
 11
3.6407000000000003
 21
1.2778
 31
0.0
  0
LINE
  5
161
100
AcDbEntity
100
AcDbLine
  8
BLACK
 62
256
370
-1
  6
ByLayer
 10
3.6407000000000003
 20
1.2778
 30
0.0
 11
3.6393
 21
1.2764
 31
0.0
  0
LINE
  5
162
100
AcDbEntity
100
AcDbLine
  8
BLACK
 62
256
370
-1
  6
ByLayer
 10
3.6393
 20
1.2764
 30
0.0
 11
3.6421000000000001
 21
1.2764
 31
0.0
  0
LINE
  5
163
100
AcDbEntity
100
AcDbLine
  8
BLACK
 62
256
370
-1
  6
ByLayer
 10
3.6421000000000001
 20
1.2463
 30
0.0
 11
3.6421000000000001
 21
1.2635000000000001
 31
0.0
  0
LINE
  5
164
100
AcDbEntity
100
AcDbLine
  8
BLACK
 62
256
370
-1
  6
ByLayer
 10
3.6421000000000001
 20
1.2549000000000001
 30
0.0
 11
3.6121000000000003
 21
1.2549000000000001
 31
0.0
  0
LINE
  5
165
100
AcDbEntity
100
AcDbLine
  8
BLACK
 62
256
370
-1
  6
ByLayer
 10
3.6121000000000003
 20
1.2549000000000001
 30
0.0
 11
3.6164000000000001
 21
1.2578
 31
0.0
  0
LINE
  5
166
100
AcDbEntity
100
AcDbLine
  8
BLACK
 62
256
370
-1
  6
ByLayer
 10
3.6164000000000001
 20
1.2578
 30
0.0
 11
3.6193
 21
1.2606000000000002
 31
0.0
  0
LINE
  5
167
100
AcDbEntity
100
AcDbLine
  8
BLACK
 62
256
370
-1
  6
ByLayer
 10
3.6193
 20
1.2606000000000002
 30
0.0
 11
3.6207000000000003
 21
1.2635000000000001
 31
0.0
  0
LINE
  5
168
100
AcDbEntity
100
AcDbLine
  8
BLACK
 62
256
370
-1
  6
ByLayer
 10
3.6221000000000001
 20
1.2206000000000001
 30
0.0
 11
3.6421000000000001
 21
1.2206000000000001
 31
0.0
  0
LINE
  5
169
100
AcDbEntity
100
AcDbLine
  8
BLACK
 62
256
370
-1
  6
ByLayer
 10
3.6221000000000001
 20
1.2335
 30
0.0
 11
3.6379000000000001
 21
1.2335
 31
0.0
  0
LINE
  5
16A
100
AcDbEntity
100
AcDbLine
  8
BLACK
 62
256
370
-1
  6
ByLayer
 10
3.6379000000000001
 20
1.2335
 30
0.0
 11
3.6407000000000003
 21
1.232
 31
0.0
  0
LINE
  5
16B
100
AcDbEntity
100
AcDbLine
  8
BLACK
 62
256
370
-1
  6
ByLayer
 10
3.6407000000000003
 20
1.232
 30
0.0
 11
3.6421000000000001
 21
1.2292000000000001
 31
0.0
  0
LINE
  5
16C
100
AcDbEntity
100
AcDbLine
  8
BLACK
 62
256
370
-1
  6
ByLayer
 10
3.6421000000000001
 20
1.2292000000000001
 30
0.0
 11
3.6421000000000001
 21
1.2249000000000001
 31
0.0
  0
LINE
  5
16D
100
AcDbEntity
100
AcDbLine
  8
BLACK
 62
256
370
-1
  6
ByLayer
 10
3.6421000000000001
 20
1.2249000000000001
 30
0.0
 11
3.6407000000000003
 21
1.222
 31
0.0
  0
LINE
  5
16E
100
AcDbEntity
100
AcDbLine
  8
BLACK
 62
256
370
-1
  6
ByLayer
 10
3.6407000000000003
 20
1.222
 30
0.0
 11
3.6393
 21
1.2206000000000001
 31
0.0
  0
LINE
  5
16F
100
AcDbEntity
100
AcDbLine
  8
BLACK
 62
256
370
-1
  6
ByLayer
 10
3.6264000000000003
 20
1.1964000000000001
 30
0.0
 11
3.6264000000000003
 21
1.2064000000000001
 31
0.0
  0
LINE
  5
170
100
AcDbEntity
100
AcDbLine
  8
BLACK
 62
256
370
-1
  6
ByLayer
 10
3.6421000000000001
 20
1.2064000000000001
 30
0.0
 11
3.6121000000000003
 21
1.2064000000000001
 31
0.0
  0
LINE
  5
171
100
AcDbEntity
100
AcDbLine
  8
BLACK
 62
256
370
-1
  6
ByLayer
 10
3.6121000000000003
 20
1.2064000000000001
 30
0.0
 11
3.6121000000000003
 21
1.1921000000000002
 31
0.0
  0
LINE
  5
172
100
AcDbEntity
100
AcDbLine
  8
BLACK
 62
256
370
-1
  6
ByLayer
 10
2.2566000000000002
 20
0.2876
 30
0.0
 11
2.2585000000000002
 21
0.2857
 31
0.0
  0
LINE
  5
173
100
AcDbEntity
100
AcDbLine
  8
BLACK
 62
256
370
-1
  6
ByLayer
 10
2.2585000000000002
 20
0.2857
 30
0.0
 11
2.2642000000000002
 21
0.2838
 31
0.0
  0
LINE
  5
174
100
AcDbEntity
100
AcDbLine
  8
BLACK
 62
256
370
-1
  6
ByLayer
 10
2.2642000000000002
 20
0.2838
 30
0.0
 11
2.2680000000000002
 21
0.2838
 31
0.0
  0
LINE
  5
175
100
AcDbEntity
100
AcDbLine
  8
BLACK
 62
256
370
-1
  6
ByLayer
 10
2.2680000000000002
 20
0.2838
 30
0.0
 11
2.2738
 21
0.2857
 31
0.0
  0
LINE
  5
176
100
AcDbEntity
100
AcDbLine
  8
BLACK
 62
256
370
-1
  6
ByLayer
 10
2.2738
 20
0.2857
 30
0.0
 11
2.2776000000000001
 21
0.2895
 31
0.0
  0
LINE
  5
177
100
AcDbEntity
100
AcDbLine
  8
BLACK
 62
256
370
-1
  6
ByLayer
 10
2.2776000000000001
 20
0.2895
 30
0.0
 11
2.2795000000000001
 21
0.2933
 31
0.0
  0
LINE
  5
178
100
AcDbEntity
100
AcDbLine
  8
BLACK
 62
256
370
-1
  6
ByLayer
 10
2.2795000000000001
 20
0.2933
 30
0.0
 11
2.2814000000000001
 21
0.301
 31
0.0
  0
LINE
  5
179
100
AcDbEntity
100
AcDbLine
  8
BLACK
 62
256
370
-1
  6
ByLayer
 10
2.2814000000000001
 20
0.301
 30
0.0
 11
2.2814000000000001
 21
0.3067
 31
0.0
  0
LINE
  5
17A
100
AcDbEntity
100
AcDbLine
  8
BLACK
 62
256
370
-1
  6
ByLayer
 10
2.2814000000000001
 20
0.3067
 30
0.0
 11
2.2795000000000001
 21
0.3143
 31
0.0
  0
LINE
  5
17B
100
AcDbEntity
100
AcDbLine
  8
BLACK
 62
256
370
-1
  6
ByLayer
 10
2.2795000000000001
 20
0.3143
 30
0.0
 11
2.2776000000000001
 21
0.3181
 31
0.0
  0
LINE
  5
17C
100
AcDbEntity
100
AcDbLine
  8
BLACK
 62
256
370
-1
  6
ByLayer
 10
2.2776000000000001
 20
0.3181
 30
0.0
 11
2.2738
 21
0.3219
 31
0.0
  0
LINE
  5
17D
100
AcDbEntity
100
AcDbLine
  8
BLACK
 62
256
370
-1
  6
ByLayer
 10
2.2738
 20
0.3219
 30
0.0
 11
2.2680000000000002
 21
0.3238
 31
0.0
  0
LINE
  5
17E
100
AcDbEntity
100
AcDbLine
  8
BLACK
 62
256
370
-1
  6
ByLayer
 10
2.2680000000000002
 20
0.3238
 30
0.0
 11
2.2642000000000002
 21
0.3238
 31
0.0
  0
LINE
  5
17F
100
AcDbEntity
100
AcDbLine
  8
BLACK
 62
256
370
-1
  6
ByLayer
 10
2.2642000000000002
 20
0.3238
 30
0.0
 11
2.2585000000000002
 21
0.3219
 31
0.0
  0
LINE
  5
180
100
AcDbEntity
100
AcDbLine
  8
BLACK
 62
256
370
-1
  6
ByLayer
 10
2.2585000000000002
 20
0.3219
 30
0.0
 11
2.2566000000000002
 21
0.32
 31
0.0
  0
LINE
  5
181
100
AcDbEntity
100
AcDbLine
  8
BLACK
 62
256
370
-1
  6
ByLayer
 10
2.2433000000000001
 20
0.3238
 30
0.0
 11
2.2166000000000001
 21
0.3238
 31
0.0
  0
LINE
  5
182
100
AcDbEntity
100
AcDbLine
  8
BLACK
 62
256
370
-1
  6
ByLayer
 10
2.2166000000000001
 20
0.3238
 30
0.0
 11
2.2338
 21
0.2838
 31
0.0
  0
LINE
  5
183
100
AcDbEntity
100
AcDbLine
  8
BLACK
 62
256
370
-1
  6
ByLayer
 10
2.2991999999999999
 20
0.5929
 30
0.0
 11
2.2964000000000002
 21
0.5929
 31
0.0
  0
LINE
  5
184
100
AcDbEntity
100
AcDbLine
  8
BLACK
 62
256
370
-1
  6
ByLayer
 10
2.2964000000000002
 20
0.5929
 30
0.0
 11
2.2935000000000003
 21
0.5914
 31
0.0
  0
LINE
  5
185
100
AcDbEntity
100
AcDbLine
  8
BLACK
 62
256
370
-1
  6
ByLayer
 10
2.2935000000000003
 20
0.5914
 30
0.0
 11
2.2921
 21
0.5900000000000001
 31
0.0
  0
LINE
  5
186
100
AcDbEntity
100
AcDbLine
  8
BLACK
 62
256
370
-1
  6
ByLayer
 10
2.2921
 20
0.5900000000000001
 30
0.0
 11
2.2907000000000002
 21
0.5871000000000001
 31
0.0
  0
LINE
  5
187
100
AcDbEntity
100
AcDbLine
  8
BLACK
 62
256
370
-1
  6
ByLayer
 10
2.2907000000000002
 20
0.5871000000000001
 30
0.0
 11
2.2892000000000001
 21
0.5814
 31
0.0
  0
LINE
  5
188
100
AcDbEntity
100
AcDbLine
  8
BLACK
 62
256
370
-1
  6
ByLayer
 10
2.2892000000000001
 20
0.5814
 30
0.0
 11
2.2892000000000001
 21
0.5743
 31
0.0
  0
LINE
  5
189
100
AcDbEntity
100
AcDbLine
  8
BLACK
 62
256
370
-1
  6
ByLayer
 10
2.2892000000000001
 20
0.5743
 30
0.0
 11
2.2907000000000002
 21
0.5686
 31
0.0
  0
LINE
  5
18A
100
AcDbEntity
100
AcDbLine
  8
BLACK
 62
256
370
-1
  6
ByLayer
 10
2.2907000000000002
 20
0.5686
 30
0.0
 11
2.2921
 21
0.5657
 31
0.0
  0
LINE
  5
18B
100
AcDbEntity
100
AcDbLine
  8
BLACK
 62
256
370
-1
  6
ByLayer
 10
2.2921
 20
0.5657
 30
0.0
 11
2.2935000000000003
 21
0.5643
 31
0.0
  0
LINE
  5
18C
100
AcDbEntity
100
AcDbLine
  8
BLACK
 62
256
370
-1
  6
ByLayer
 10
2.2935000000000003
 20
0.5643
 30
0.0
 11
2.2964000000000002
 21
0.5629000000000001
 31
0.0
  0
LINE
  5
18D
100
AcDbEntity
100
AcDbLine
  8
BLACK
 62
256
370
-1
  6
ByLayer
 10
2.2964000000000002
 20
0.5629000000000001
 30
0.0
 11
2.2991999999999999
 21
0.5629000000000001
 31
0.0
  0
LINE
  5
18E
100
AcDbEntity
100
AcDbLine
  8
BLACK
 62
256
370
-1
  6
ByLayer
 10
2.2991999999999999
 20
0.5629000000000001
 30
0.0
 11
2.3021000000000003
 21
0.5643
 31
0.0
  0
LINE
  5
18F
100
AcDbEntity
100
AcDbLine
  8
BLACK
 62
256
370
-1
  6
ByLayer
 10
2.3021000000000003
 20
0.5643
 30
0.0
 11
2.3035000000000001
 21
0.5657
 31
0.0
  0
LINE
  5
190
100
AcDbEntity
100
AcDbLine
  8
BLACK
 62
256
370
-1
  6
ByLayer
 10
2.3035000000000001
 20
0.5657
 30
0.0
 11
2.3050000000000002
 21
0.5686
 31
0.0
  0
LINE
  5
191
100
AcDbEntity
100
AcDbLine
  8
BLACK
 62
256
370
-1
  6
ByLayer
 10
2.3050000000000002
 20
0.5686
 30
0.0
 11
2.3064
 21
0.5743
 31
0.0
  0
LINE
  5
192
100
AcDbEntity
100
AcDbLine
  8
BLACK
 62
256
370
-1
  6
ByLayer
 10
2.3064
 20
0.5743
 30
0.0
 11
2.3064
 21
0.5814
 31
0.0
  0
LINE
  5
193
100
AcDbEntity
100
AcDbLine
  8
BLACK
 62
256
370
-1
  6
ByLayer
 10
2.3064
 20
0.5814
 30
0.0
 11
2.3050000000000002
 21
0.5871000000000001
 31
0.0
  0
LINE
  5
194
100
AcDbEntity
100
AcDbLine
  8
BLACK
 62
256
370
-1
  6
ByLayer
 10
2.3050000000000002
 20
0.5871000000000001
 30
0.0
 11
2.3035000000000001
 21
0.5900000000000001
 31
0.0
  0
LINE
  5
195
100
AcDbEntity
100
AcDbLine
  8
BLACK
 62
256
370
-1
  6
ByLayer
 10
2.3035000000000001
 20
0.5900000000000001
 30
0.0
 11
2.3021000000000003
 21
0.5914
 31
0.0
  0
LINE
  5
196
100
AcDbEntity
100
AcDbLine
  8
BLACK
 62
256
370
-1
  6
ByLayer
 10
2.3021000000000003
 20
0.5914
 30
0.0
 11
2.2991999999999999
 21
0.5929
 31
0.0
  0
LINE
  5
197
100
AcDbEntity
100
AcDbLine
  8
BLACK
 62
256
370
-1
  6
ByLayer
 10
2.2764000000000002
 20
0.5657
 30
0.0
 11
2.2749000000000001
 21
0.5643
 31
0.0
  0
LINE
  5
198
100
AcDbEntity
100
AcDbLine
  8
BLACK
 62
256
370
-1
  6
ByLayer
 10
2.2749000000000001
 20
0.5643
 30
0.0
 11
2.2764000000000002
 21
0.5629000000000001
 31
0.0
  0
LINE
  5
199
100
AcDbEntity
100
AcDbLine
  8
BLACK
 62
256
370
-1
  6
ByLayer
 10
2.2764000000000002
 20
0.5629000000000001
 30
0.0
 11
2.2778
 21
0.5643
 31
0.0
  0
LINE
  5
19A
100
AcDbEntity
100
AcDbLine
  8
BLACK
 62
256
370
-1
  6
ByLayer
 10
2.2778
 20
0.5643
 30
0.0
 11
2.2764000000000002
 21
0.5657
 31
0.0
  0
LINE
  5
19B
100
AcDbEntity
100
AcDbLine
  8
BLACK
 62
256
370
-1
  6
ByLayer
 10
2.2764000000000002
 20
0.5657
 30
0.0
 11
2.2764000000000002
 21
0.5629000000000001
 31
0.0
  0
LINE
  5
19C
100
AcDbEntity
100
AcDbLine
  8
BLACK
 62
256
370
-1
  6
ByLayer
 10
2.2463000000000002
 20
0.5629000000000001
 30
0.0
 11
2.2635000000000001
 21
0.5629000000000001
 31
0.0
  0
LINE
  5
19D
100
AcDbEntity
100
AcDbLine
  8
BLACK
 62
256
370
-1
  6
ByLayer
 10
2.2549000000000001
 20
0.5629000000000001
 30
0.0
 11
2.2549000000000001
 21
0.5929
 31
0.0
  0
LINE
  5
19E
100
AcDbEntity
100
AcDbLine
  8
BLACK
 62
256
370
-1
  6
ByLayer
 10
2.2549000000000001
 20
0.5929
 30
0.0
 11
2.2578
 21
0.5886
 31
0.0
  0
LINE
  5
19F
100
AcDbEntity
100
AcDbLine
  8
BLACK
 62
256
370
-1
  6
ByLayer
 10
2.2578
 20
0.5886
 30
0.0
 11
2.2606000000000002
 21
0.5857
 31
0.0
  0
LINE
  5
1A0
100
AcDbEntity
100
AcDbLine
  8
BLACK
 62
256
370
-1
  6
ByLayer
 10
2.2606000000000002
 20
0.5857
 30
0.0
 11
2.2635000000000001
 21
0.5843
 31
0.0
  0
LINE
  5
1A1
100
AcDbEntity
100
AcDbLine
  8
BLACK
 62
256
370
-1
  6
ByLayer
 10
2.2206000000000001
 20
0.5829
 30
0.0
 11
2.2206000000000001
 21
0.5629000000000001
 31
0.0
  0
LINE
  5
1A2
100
AcDbEntity
100
AcDbLine
  8
BLACK
 62
256
370
-1
  6
ByLayer
 10
2.2335000000000003
 20
0.5829
 30
0.0
 11
2.2335000000000003
 21
0.5671
 31
0.0
  0
LINE
  5
1A3
100
AcDbEntity
100
AcDbLine
  8
BLACK
 62
256
370
-1
  6
ByLayer
 10
2.2335000000000003
 20
0.5671
 30
0.0
 11
2.2320000000000002
 21
0.5643
 31
0.0
  0
LINE
  5
1A4
100
AcDbEntity
100
AcDbLine
  8
BLACK
 62
256
370
-1
  6
ByLayer
 10
2.2320000000000002
 20
0.5643
 30
0.0
 11
2.2292000000000001
 21
0.5629000000000001
 31
0.0
  0
LINE
  5
1A5
100
AcDbEntity
100
AcDbLine
  8
BLACK
 62
256
370
-1
  6
ByLayer
 10
2.2292000000000001
 20
0.5629000000000001
 30
0.0
 11
2.2249000000000003
 21
0.5629000000000001
 31
0.0
  0
LINE
  5
1A6
100
AcDbEntity
100
AcDbLine
  8
BLACK
 62
256
370
-1
  6
ByLayer
 10
2.2249000000000003
 20
0.5629000000000001
 30
0.0
 11
2.222
 21
0.5643
 31
0.0
  0
LINE
  5
1A7
100
AcDbEntity
100
AcDbLine
  8
BLACK
 62
256
370
-1
  6
ByLayer
 10
2.222
 20
0.5643
 30
0.0
 11
2.2206000000000001
 21
0.5657
 31
0.0
  0
LINE
  5
1A8
100
AcDbEntity
100
AcDbLine
  8
BLACK
 62
256
370
-1
  6
ByLayer
 10
2.1964000000000001
 20
0.5786
 30
0.0
 11
2.2063999999999999
 21
0.5786
 31
0.0
  0
LINE
  5
1A9
100
AcDbEntity
100
AcDbLine
  8
BLACK
 62
256
370
-1
  6
ByLayer
 10
2.2063999999999999
 20
0.5629000000000001
 30
0.0
 11
2.2063999999999999
 21
0.5929
 31
0.0
  0
LINE
  5
1AA
100
AcDbEntity
100
AcDbLine
  8
BLACK
 62
256
370
-1
  6
ByLayer
 10
2.2063999999999999
 20
0.5929
 30
0.0
 11
2.1920999999999999
 21
0.5929
 31
0.0
  0
LINE
  5
1AB
100
AcDbEntity
100
AcDbLine
  8
BLACK
 62
256
370
-1
  6
ByLayer
 10
4.3374000000000006
 20
1.8066
 30
0.0
 11
4.3393000000000006
 21
1.8085
 31
0.0
  0
LINE
  5
1AC
100
AcDbEntity
100
AcDbLine
  8
BLACK
 62
256
370
-1
  6
ByLayer
 10
4.3393000000000006
 20
1.8085
 30
0.0
 11
4.3412000000000006
 21
1.8142
 31
0.0
  0
LINE
  5
1AD
100
AcDbEntity
100
AcDbLine
  8
BLACK
 62
256
370
-1
  6
ByLayer
 10
4.3412000000000006
 20
1.8142
 30
0.0
 11
4.3412000000000006
 21
1.8180000000000001
 31
0.0
  0
LINE
  5
1AE
100
AcDbEntity
100
AcDbLine
  8
BLACK
 62
256
370
-1
  6
ByLayer
 10
4.3412000000000006
 20
1.8180000000000001
 30
0.0
 11
4.3393000000000006
 21
1.8238000000000001
 31
0.0
  0
LINE
  5
1AF
100
AcDbEntity
100
AcDbLine
  8
BLACK
 62
256
370
-1
  6
ByLayer
 10
4.3393000000000006
 20
1.8238000000000001
 30
0.0
 11
4.3355000000000006
 21
1.8276000000000001
 31
0.0
  0
LINE
  5
1B0
100
AcDbEntity
100
AcDbLine
  8
BLACK
 62
256
370
-1
  6
ByLayer
 10
4.3355000000000006
 20
1.8276000000000001
 30
0.0
 11
4.3317000000000005
 21
1.8295000000000001
 31
0.0
  0
LINE
  5
1B1
100
AcDbEntity
100
AcDbLine
  8
BLACK
 62
256
370
-1
  6
ByLayer
 10
4.3317000000000005
 20
1.8295000000000001
 30
0.0
 11
4.3239999999999998
 21
1.8314000000000001
 31
0.0
  0
LINE
  5
1B2
100
AcDbEntity
100
AcDbLine
  8
BLACK
 62
256
370
-1
  6
ByLayer
 10
4.3239999999999998
 20
1.8314000000000001
 30
0.0
 11
4.3182999999999998
 21
1.8314000000000001
 31
0.0
  0
LINE
  5
1B3
100
AcDbEntity
100
AcDbLine
  8
BLACK
 62
256
370
-1
  6
ByLayer
 10
4.3182999999999998
 20
1.8314000000000001
 30
0.0
 11
4.3107000000000006
 21
1.8295000000000001
 31
0.0
  0
LINE
  5
1B4
100
AcDbEntity
100
AcDbLine
  8
BLACK
 62
256
370
-1
  6
ByLayer
 10
4.3107000000000006
 20
1.8295000000000001
 30
0.0
 11
4.3069000000000006
 21
1.8276000000000001
 31
0.0
  0
LINE
  5
1B5
100
AcDbEntity
100
AcDbLine
  8
BLACK
 62
256
370
-1
  6
ByLayer
 10
4.3069000000000006
 20
1.8276000000000001
 30
0.0
 11
4.3031000000000006
 21
1.8238000000000001
 31
0.0
  0
LINE
  5
1B6
100
AcDbEntity
100
AcDbLine
  8
BLACK
 62
256
370
-1
  6
ByLayer
 10
4.3031000000000006
 20
1.8238000000000001
 30
0.0
 11
4.3012000000000006
 21
1.8180000000000001
 31
0.0
  0
LINE
  5
1B7
100
AcDbEntity
100
AcDbLine
  8
BLACK
 62
256
370
-1
  6
ByLayer
 10
4.3012000000000006
 20
1.8180000000000001
 30
0.0
 11
4.3012000000000006
 21
1.8142
 31
0.0
  0
LINE
  5
1B8
100
AcDbEntity
100
AcDbLine
  8
BLACK
 62
256
370
-1
  6
ByLayer
 10
4.3012000000000006
 20
1.8142
 30
0.0
 11
4.3031000000000006
 21
1.8085
 31
0.0
  0
LINE
  5
1B9
100
AcDbEntity
100
AcDbLine
  8
BLACK
 62
256
370
-1
  6
ByLayer
 10
4.3031000000000006
 20
1.8085
 30
0.0
 11
4.3050000000000006
 21
1.8066
 31
0.0
  0
LINE
  5
1BA
100
AcDbEntity
100
AcDbLine
  8
BLACK
 62
256
370
-1
  6
ByLayer
 10
4.3144999999999998
 20
1.7723
 30
0.0
 11
4.3412000000000006
 21
1.7723
 31
0.0
  0
LINE
  5
1BB
100
AcDbEntity
100
AcDbLine
  8
BLACK
 62
256
370
-1
  6
ByLayer
 10
4.2993000000000006
 20
1.7819
 30
0.0
 11
4.3279000000000005
 21
1.7914000000000001
 31
0.0
  0
LINE
  5
1BC
100
AcDbEntity
100
AcDbLine
  8
BLACK
 62
256
370
-1
  6
ByLayer
 10
4.3279000000000005
 20
1.7914000000000001
 30
0.0
 11
4.3279000000000005
 21
1.7666000000000002
 31
0.0
  0
LINE
  5
1BD
100
AcDbEntity
100
AcDbLine
  8
BLACK
 62
256
370
-1
  6
ByLayer
 10
4.2321
 20
1.6979000000000002
 30
0.0
 11
4.2492999999999999
 21
1.6979000000000002
 31
0.0
  0
LINE
  5
1BE
100
AcDbEntity
100
AcDbLine
  8
BLACK
 62
256
370
-1
  6
ByLayer
 10
4.2407000000000004
 20
1.6979000000000002
 30
0.0
 11
4.2407000000000004
 21
1.7279
 31
0.0
  0
LINE
  5
1BF
100
AcDbEntity
100
AcDbLine
  8
BLACK
 62
256
370
-1
  6
ByLayer
 10
4.2407000000000004
 20
1.7279
 30
0.0
 11
4.2435999999999998
 21
1.7236
 31
0.0
  0
LINE
  5
1C0
100
AcDbEntity
100
AcDbLine
  8
BLACK
 62
256
370
-1
  6
ByLayer
 10
4.2435999999999998
 20
1.7236
 30
0.0
 11
4.2464000000000004
 21
1.7207000000000001
 31
0.0
  0
LINE
  5
1C1
100
AcDbEntity
100
AcDbLine
  8
BLACK
 62
256
370
-1
  6
ByLayer
 10
4.2464000000000004
 20
1.7207000000000001
 30
0.0
 11
4.2492999999999999
 21
1.7193000000000001
 31
0.0
  0
LINE
  5
1C2
100
AcDbEntity
100
AcDbLine
  8
BLACK
 62
256
370
-1
  6
ByLayer
 10
4.2134999999999998
 20
1.7279
 30
0.0
 11
4.2107000000000001
 21
1.7279
 31
0.0
  0
LINE
  5
1C3
100
AcDbEntity
100
AcDbLine
  8
BLACK
 62
256
370
-1
  6
ByLayer
 10
4.2107000000000001
 20
1.7279
 30
0.0
 11
4.2077999999999998
 21
1.7264000000000002
 31
0.0
  0
LINE
  5
1C4
100
AcDbEntity
100
AcDbLine
  8
BLACK
 62
256
370
-1
  6
ByLayer
 10
4.2077999999999998
 20
1.7264000000000002
 30
0.0
 11
4.2064000000000004
 21
1.7250000000000001
 31
0.0
  0
LINE
  5
1C5
100
AcDbEntity
100
AcDbLine
  8
BLACK
 62
256
370
-1
  6
ByLayer
 10
4.2064000000000004
 20
1.7250000000000001
 30
0.0
 11
4.2050000000000001
 21
1.7221000000000002
 31
0.0
  0
LINE
  5
1C6
100
AcDbEntity
100
AcDbLine
  8
BLACK
 62
256
370
-1
  6
ByLayer
 10
4.2050000000000001
 20
1.7221000000000002
 30
0.0
 11
4.2035
 21
1.7164000000000001
 31
0.0
  0
LINE
  5
1C7
100
AcDbEntity
100
AcDbLine
  8
BLACK
 62
256
370
-1
  6
ByLayer
 10
4.2035
 20
1.7164000000000001
 30
0.0
 11
4.2035
 21
1.7093
 31
0.0
  0
LINE
  5
1C8
100
AcDbEntity
100
AcDbLine
  8
BLACK
 62
256
370
-1
  6
ByLayer
 10
4.2035
 20
1.7093
 30
0.0
 11
4.2050000000000001
 21
1.7036
 31
0.0
  0
LINE
  5
1C9
100
AcDbEntity
100
AcDbLine
  8
BLACK
 62
256
370
-1
  6
ByLayer
 10
4.2050000000000001
 20
1.7036
 30
0.0
 11
4.2064000000000004
 21
1.7007000000000001
 31
0.0
  0
LINE
  5
1CA
100
AcDbEntity
100
AcDbLine
  8
BLACK
 62
256
370
-1
  6
ByLayer
 10
4.2064000000000004
 20
1.7007000000000001
 30
0.0
 11
4.2077999999999998
 21
1.6993
 31
0.0
  0
LINE
  5
1CB
100
AcDbEntity
100
AcDbLine
  8
BLACK
 62
256
370
-1
  6
ByLayer
 10
4.2077999999999998
 20
1.6993
 30
0.0
 11
4.2107000000000001
 21
1.6979000000000002
 31
0.0
  0
LINE
  5
1CC
100
AcDbEntity
100
AcDbLine
  8
BLACK
 62
256
370
-1
  6
ByLayer
 10
4.2107000000000001
 20
1.6979000000000002
 30
0.0
 11
4.2134999999999998
 21
1.6979000000000002
 31
0.0
  0
LINE
  5
1CD
100
AcDbEntity
100
AcDbLine
  8
BLACK
 62
256
370
-1
  6
ByLayer
 10
4.2134999999999998
 20
1.6979000000000002
 30
0.0
 11
4.2164000000000001
 21
1.6993
 31
0.0
  0
LINE
  5
1CE
100
AcDbEntity
100
AcDbLine
  8
BLACK
 62
256
370
-1
  6
ByLayer
 10
4.2164000000000001
 20
1.6993
 30
0.0
 11
4.2178000000000004
 21
1.7007000000000001
 31
0.0
  0
LINE
  5
1CF
100
AcDbEntity
100
AcDbLine
  8
BLACK
 62
256
370
-1
  6
ByLayer
 10
4.2178000000000004
 20
1.7007000000000001
 30
0.0
 11
4.2193000000000005
 21
1.7036
 31
0.0
  0
LINE
  5
1D0
100
AcDbEntity
100
AcDbLine
  8
BLACK
 62
256
370
-1
  6
ByLayer
 10
4.2193000000000005
 20
1.7036
 30
0.0
 11
4.2206999999999999
 21
1.7093
 31
0.0
  0
LINE
  5
1D1
100
AcDbEntity
100
AcDbLine
  8
BLACK
 62
256
370
-1
  6
ByLayer
 10
4.2206999999999999
 20
1.7093
 30
0.0
 11
4.2206999999999999
 21
1.7164000000000001
 31
0.0
  0
LINE
  5
1D2
100
AcDbEntity
100
AcDbLine
  8
BLACK
 62
256
370
-1
  6
ByLayer
 10
4.2206999999999999
 20
1.7164000000000001
 30
0.0
 11
4.2193000000000005
 21
1.7221000000000002
 31
0.0
  0
LINE
  5
1D3
100
AcDbEntity
100
AcDbLine
  8
BLACK
 62
256
370
-1
  6
ByLayer
 10
4.2193000000000005
 20
1.7221000000000002
 30
0.0
 11
4.2178000000000004
 21
1.7250000000000001
 31
0.0
  0
LINE
  5
1D4
100
AcDbEntity
100
AcDbLine
  8
BLACK
 62
256
370
-1
  6
ByLayer
 10
4.2178000000000004
 20
1.7250000000000001
 30
0.0
 11
4.2164000000000001
 21
1.7264000000000002
 31
0.0
  0
LINE
  5
1D5
100
AcDbEntity
100
AcDbLine
  8
BLACK
 62
256
370
-1
  6
ByLayer
 10
4.2164000000000001
 20
1.7264000000000002
 30
0.0
 11
4.2134999999999998
 21
1.7279
 31
0.0
  0
LINE
  5
1D6
100
AcDbEntity
100
AcDbLine
  8
BLACK
 62
256
370
-1
  6
ByLayer
 10
4.1778000000000004
 20
1.7179
 30
0.0
 11
4.1778000000000004
 21
1.6979000000000002
 31
0.0
  0
LINE
  5
1D7
100
AcDbEntity
100
AcDbLine
  8
BLACK
 62
256
370
-1
  6
ByLayer
 10
4.1907000000000005
 20
1.7179
 30
0.0
 11
4.1907000000000005
 21
1.7021000000000002
 31
0.0
  0
LINE
  5
1D8
100
AcDbEntity
100
AcDbLine
  8
BLACK
 62
256
370
-1
  6
ByLayer
 10
4.1907000000000005
 20
1.7021000000000002
 30
0.0
 11
4.1892000000000005
 21
1.6993
 31
0.0
  0
LINE
  5
1D9
100
AcDbEntity
100
AcDbLine
  8
BLACK
 62
256
370
-1
  6
ByLayer
 10
4.1892000000000005
 20
1.6993
 30
0.0
 11
4.1863999999999999
 21
1.6979000000000002
 31
0.0
  0
LINE
  5
1DA
100
AcDbEntity
100
AcDbLine
  8
BLACK
 62
256
370
-1
  6
ByLayer
 10
4.1863999999999999
 20
1.6979000000000002
 30
0.0
 11
4.1821000000000002
 21
1.6979000000000002
 31
0.0
  0
LINE
  5
1DB
100
AcDbEntity
100
AcDbLine
  8
BLACK
 62
256
370
-1
  6
ByLayer
 10
4.1821000000000002
 20
1.6979000000000002
 30
0.0
 11
4.1791999999999998
 21
1.6993
 31
0.0
  0
LINE
  5
1DC
100
AcDbEntity
100
AcDbLine
  8
BLACK
 62
256
370
-1
  6
ByLayer
 10
4.1791999999999998
 20
1.6993
 30
0.0
 11
4.1778000000000004
 21
1.7007000000000001
 31
0.0
  0
LINE
  5
1DD
100
AcDbEntity
100
AcDbLine
  8
BLACK
 62
256
370
-1
  6
ByLayer
 10
4.1536
 20
1.7136
 30
0.0
 11
4.1636000000000006
 21
1.7136
 31
0.0
  0
LINE
  5
1DE
100
AcDbEntity
100
AcDbLine
  8
BLACK
 62
256
370
-1
  6
ByLayer
 10
4.1636000000000006
 20
1.6979000000000002
 30
0.0
 11
4.1636000000000006
 21
1.7279
 31
0.0
  0
LINE
  5
1DF
100
AcDbEntity
100
AcDbLine
  8
BLACK
 62
256
370
-1
  6
ByLayer
 10
4.1636000000000006
 20
1.7279
 30
0.0
 11
4.1493000000000002
 21
1.7279
 31
0.0
  0
LINE
  5
1E0
100
AcDbEntity
100
AcDbLine
  8
BLACK
 62
256
370
-1
  6
ByLayer
 10
4.3374000000000006
 20
1.9816
 30
0.0
 11
4.3393000000000006
 21
1.9835
 31
0.0
  0
LINE
  5
1E1
100
AcDbEntity
100
AcDbLine
  8
BLACK
 62
256
370
-1
  6
ByLayer
 10
4.3393000000000006
 20
1.9835
 30
0.0
 11
4.3412000000000006
 21
1.9892000000000001
 31
0.0
  0
LINE
  5
1E2
100
AcDbEntity
100
AcDbLine
  8
BLACK
 62
256
370
-1
  6
ByLayer
 10
4.3412000000000006
 20
1.9892000000000001
 30
0.0
 11
4.3412000000000006
 21
1.9930000000000001
 31
0.0
  0
LINE
  5
1E3
100
AcDbEntity
100
AcDbLine
  8
BLACK
 62
256
370
-1
  6
ByLayer
 10
4.3412000000000006
 20
1.9930000000000001
 30
0.0
 11
4.3393000000000006
 21
1.9988000000000001
 31
0.0
  0
LINE
  5
1E4
100
AcDbEntity
100
AcDbLine
  8
BLACK
 62
256
370
-1
  6
ByLayer
 10
4.3393000000000006
 20
1.9988000000000001
 30
0.0
 11
4.3355000000000006
 21
2.0026000000000002
 31
0.0
  0
LINE
  5
1E5
100
AcDbEntity
100
AcDbLine
  8
BLACK
 62
256
370
-1
  6
ByLayer
 10
4.3355000000000006
 20
2.0026000000000002
 30
0.0
 11
4.3317000000000005
 21
2.0045000000000002
 31
0.0
  0
LINE
  5
1E6
100
AcDbEntity
100
AcDbLine
  8
BLACK
 62
256
370
-1
  6
ByLayer
 10
4.3317000000000005
 20
2.0045000000000002
 30
0.0
 11
4.3239999999999998
 21
2.0064000000000002
 31
0.0
  0
LINE
  5
1E7
100
AcDbEntity
100
AcDbLine
  8
BLACK
 62
256
370
-1
  6
ByLayer
 10
4.3239999999999998
 20
2.0064000000000002
 30
0.0
 11
4.3182999999999998
 21
2.0064000000000002
 31
0.0
  0
LINE
  5
1E8
100
AcDbEntity
100
AcDbLine
  8
BLACK
 62
256
370
-1
  6
ByLayer
 10
4.3182999999999998
 20
2.0064000000000002
 30
0.0
 11
4.3107000000000006
 21
2.0045000000000002
 31
0.0
  0
LINE
  5
1E9
100
AcDbEntity
100
AcDbLine
  8
BLACK
 62
256
370
-1
  6
ByLayer
 10
4.3107000000000006
 20
2.0045000000000002
 30
0.0
 11
4.3069000000000006
 21
2.0026000000000002
 31
0.0
  0
LINE
  5
1EA
100
AcDbEntity
100
AcDbLine
  8
BLACK
 62
256
370
-1
  6
ByLayer
 10
4.3069000000000006
 20
2.0026000000000002
 30
0.0
 11
4.3031000000000006
 21
1.9988000000000001
 31
0.0
  0
LINE
  5
1EB
100
AcDbEntity
100
AcDbLine
  8
BLACK
 62
256
370
-1
  6
ByLayer
 10
4.3031000000000006
 20
1.9988000000000001
 30
0.0
 11
4.3012000000000006
 21
1.9930000000000001
 31
0.0
  0
LINE
  5
1EC
100
AcDbEntity
100
AcDbLine
  8
BLACK
 62
256
370
-1
  6
ByLayer
 10
4.3012000000000006
 20
1.9930000000000001
 30
0.0
 11
4.3012000000000006
 21
1.9892000000000001
 31
0.0
  0
LINE
  5
1ED
100
AcDbEntity
100
AcDbLine
  8
BLACK
 62
256
370
-1
  6
ByLayer
 10
4.3012000000000006
 20
1.9892000000000001
 30
0.0
 11
4.3031000000000006
 21
1.9835
 31
0.0
  0
LINE
  5
1EE
100
AcDbEntity
100
AcDbLine
  8
BLACK
 62
256
370
-1
  6
ByLayer
 10
4.3031000000000006
 20
1.9835
 30
0.0
 11
4.3050000000000006
 21
1.9816
 31
0.0
  0
LINE
  5
1EF
100
AcDbEntity
100
AcDbLine
  8
BLACK
 62
256
370
-1
  6
ByLayer
 10
4.3050000000000006
 20
1.9664000000000001
 30
0.0
 11
4.3031000000000006
 21
1.9645000000000001
 31
0.0
  0
LINE
  5
1F0
100
AcDbEntity
100
AcDbLine
  8
BLACK
 62
256
370
-1
  6
ByLayer
 10
4.3031000000000006
 20
1.9645000000000001
 30
0.0
 11
4.3012000000000006
 21
1.9607000000000001
 31
0.0
  0
LINE
  5
1F1
100
AcDbEntity
100
AcDbLine
  8
BLACK
 62
256
370
-1
  6
ByLayer
 10
4.3012000000000006
 20
1.9607000000000001
 30
0.0
 11
4.3012000000000006
 21
1.9511000000000001
 31
0.0
  0
LINE
  5
1F2
100
AcDbEntity
100
AcDbLine
  8
BLACK
 62
256
370
-1
  6
ByLayer
 10
4.3012000000000006
 20
1.9511000000000001
 30
0.0
 11
4.3031000000000006
 21
1.9473
 31
0.0
  0
LINE
  5
1F3
100
AcDbEntity
100
AcDbLine
  8
BLACK
 62
256
370
-1
  6
ByLayer
 10
4.3031000000000006
 20
1.9473
 30
0.0
 11
4.3050000000000006
 21
1.9454
 31
0.0
  0
LINE
  5
1F4
100
AcDbEntity
100
AcDbLine
  8
BLACK
 62
256
370
-1
  6
ByLayer
 10
4.3050000000000006
 20
1.9454
 30
0.0
 11
4.3088000000000006
 21
1.9435
 31
0.0
  0
LINE
  5
1F5
100
AcDbEntity
100
AcDbLine
  8
BLACK
 62
256
370
-1
  6
ByLayer
 10
4.3088000000000006
 20
1.9435
 30
0.0
 11
4.3125999999999998
 21
1.9435
 31
0.0
  0
LINE
  5
1F6
100
AcDbEntity
100
AcDbLine
  8
BLACK
 62
256
370
-1
  6
ByLayer
 10
4.3125999999999998
 20
1.9435
 30
0.0
 11
4.3182999999999998
 21
1.9454
 31
0.0
  0
LINE
  5
1F7
100
AcDbEntity
100
AcDbLine
  8
BLACK
 62
256
370
-1
  6
ByLayer
 10
4.3182999999999998
 20
1.9454
 30
0.0
 11
4.3412000000000006
 21
1.9683000000000002
 31
0.0
  0
LINE
  5
1F8
100
AcDbEntity
100
AcDbLine
  8
BLACK
 62
256
370
-1
  6
ByLayer
 10
4.3412000000000006
 20
1.9683000000000002
 30
0.0
 11
4.3412000000000006
 21
1.9435
 31
0.0
  0
LINE
  5
1F9
100
AcDbEntity
100
AcDbLine
  8
BLACK
 62
256
370
-1
  6
ByLayer
 10
4.2492000000000001
 20
1.9079000000000002
 30
0.0
 11
4.2464000000000004
 21
1.9079000000000002
 31
0.0
  0
LINE
  5
1FA
100
AcDbEntity
100
AcDbLine
  8
BLACK
 62
256
370
-1
  6
ByLayer
 10
4.2464000000000004
 20
1.9079000000000002
 30
0.0
 11
4.2435
 21
1.9064000000000001
 31
0.0
  0
LINE
  5
1FB
100
AcDbEntity
100
AcDbLine
  8
BLACK
 62
256
370
-1
  6
ByLayer
 10
4.2435
 20
1.9064000000000001
 30
0.0
 11
4.2420999999999998
 21
1.905
 31
0.0
  0
LINE
  5
1FC
100
AcDbEntity
100
AcDbLine
  8
BLACK
 62
256
370
-1
  6
ByLayer
 10
4.2420999999999998
 20
1.905
 30
0.0
 11
4.2407000000000004
 21
1.9021000000000001
 31
0.0
  0
LINE
  5
1FD
100
AcDbEntity
100
AcDbLine
  8
BLACK
 62
256
370
-1
  6
ByLayer
 10
4.2407000000000004
 20
1.9021000000000001
 30
0.0
 11
4.2392000000000003
 21
1.8964000000000001
 31
0.0
  0
LINE
  5
1FE
100
AcDbEntity
100
AcDbLine
  8
BLACK
 62
256
370
-1
  6
ByLayer
 10
4.2392000000000003
 20
1.8964000000000001
 30
0.0
 11
4.2392000000000003
 21
1.8893000000000002
 31
0.0
  0
LINE
  5
1FF
100
AcDbEntity
100
AcDbLine
  8
BLACK
 62
256
370
-1
  6
ByLayer
 10
4.2392000000000003
 20
1.8893000000000002
 30
0.0
 11
4.2407000000000004
 21
1.8836000000000002
 31
0.0
  0
LINE
  5
200
100
AcDbEntity
100
AcDbLine
  8
BLACK
 62
256
370
-1
  6
ByLayer
 10
4.2407000000000004
 20
1.8836000000000002
 30
0.0
 11
4.2420999999999998
 21
1.8807
 31
0.0
  0
LINE
  5
201
100
AcDbEntity
100
AcDbLine
  8
BLACK
 62
256
370
-1
  6
ByLayer
 10
4.2420999999999998
 20
1.8807
 30
0.0
 11
4.2435
 21
1.8793000000000002
 31
0.0
  0
LINE
  5
202
100
AcDbEntity
100
AcDbLine
  8
BLACK
 62
256
370
-1
  6
ByLayer
 10
4.2435
 20
1.8793000000000002
 30
0.0
 11
4.2464000000000004
 21
1.8779000000000001
 31
0.0
  0
LINE
  5
203
100
AcDbEntity
100
AcDbLine
  8
BLACK
 62
256
370
-1
  6
ByLayer
 10
4.2464000000000004
 20
1.8779000000000001
 30
0.0
 11
4.2492000000000001
 21
1.8779000000000001
 31
0.0
  0
LINE
  5
204
100
AcDbEntity
100
AcDbLine
  8
BLACK
 62
256
370
-1
  6
ByLayer
 10
4.2492000000000001
 20
1.8779000000000001
 30
0.0
 11
4.2521000000000004
 21
1.8793000000000002
 31
0.0
  0
LINE
  5
205
100
AcDbEntity
100
AcDbLine
  8
BLACK
 62
256
370
-1
  6
ByLayer
 10
4.2521000000000004
 20
1.8793000000000002
 30
0.0
 11
4.2534999999999998
 21
1.8807
 31
0.0
  0
LINE
  5
206
100
AcDbEntity
100
AcDbLine
  8
BLACK
 62
256
370
-1
  6
ByLayer
 10
4.2534999999999998
 20
1.8807
 30
0.0
 11
4.2549999999999999
 21
1.8836000000000002
 31
0.0
  0
LINE
  5
207
100
AcDbEntity
100
AcDbLine
  8
BLACK
 62
256
370
-1
  6
ByLayer
 10
4.2549999999999999
 20
1.8836000000000002
 30
0.0
 11
4.2564000000000002
 21
1.8893000000000002
 31
0.0
  0
LINE
  5
208
100
AcDbEntity
100
AcDbLine
  8
BLACK
 62
256
370
-1
  6
ByLayer
 10
4.2564000000000002
 20
1.8893000000000002
 30
0.0
 11
4.2564000000000002
 21
1.8964000000000001
 31
0.0
  0
LINE
  5
209
100
AcDbEntity
100
AcDbLine
  8
BLACK
 62
256
370
-1
  6
ByLayer
 10
4.2564000000000002
 20
1.8964000000000001
 30
0.0
 11
4.2549999999999999
 21
1.9021000000000001
 31
0.0
  0
LINE
  5
20A
100
AcDbEntity
100
AcDbLine
  8
BLACK
 62
256
370
-1
  6
ByLayer
 10
4.2549999999999999
 20
1.9021000000000001
 30
0.0
 11
4.2534999999999998
 21
1.905
 31
0.0
  0
LINE
  5
20B
100
AcDbEntity
100
AcDbLine
  8
BLACK
 62
256
370
-1
  6
ByLayer
 10
4.2534999999999998
 20
1.905
 30
0.0
 11
4.2521000000000004
 21
1.9064000000000001
 31
0.0
  0
LINE
  5
20C
100
AcDbEntity
100
AcDbLine
  8
BLACK
 62
256
370
-1
  6
ByLayer
 10
4.2521000000000004
 20
1.9064000000000001
 30
0.0
 11
4.2492000000000001
 21
1.9079000000000002
 31
0.0
  0
LINE
  5
20D
100
AcDbEntity
100
AcDbLine
  8
BLACK
 62
256
370
-1
  6
ByLayer
 10
4.2263999999999999
 20
1.8807
 30
0.0
 11
4.2248999999999999
 21
1.8793000000000002
 31
0.0
  0
LINE
  5
20E
100
AcDbEntity
100
AcDbLine
  8
BLACK
 62
256
370
-1
  6
ByLayer
 10
4.2248999999999999
 20
1.8793000000000002
 30
0.0
 11
4.2263999999999999
 21
1.8779000000000001
 31
0.0
  0
LINE
  5
20F
100
AcDbEntity
100
AcDbLine
  8
BLACK
 62
256
370
-1
  6
ByLayer
 10
4.2263999999999999
 20
1.8779000000000001
 30
0.0
 11
4.2278000000000002
 21
1.8793000000000002
 31
0.0
  0
LINE
  5
210
100
AcDbEntity
100
AcDbLine
  8
BLACK
 62
256
370
-1
  6
ByLayer
 10
4.2278000000000002
 20
1.8793000000000002
 30
0.0
 11
4.2263999999999999
 21
1.8807
 31
0.0
  0
LINE
  5
211
100
AcDbEntity
100
AcDbLine
  8
BLACK
 62
256
370
-1
  6
ByLayer
 10
4.2263999999999999
 20
1.8807
 30
0.0
 11
4.2263999999999999
 21
1.8779000000000001
 31
0.0
  0
LINE
  5
212
100
AcDbEntity
100
AcDbLine
  8
BLACK
 62
256
370
-1
  6
ByLayer
 10
4.1962999999999999
 20
1.8779000000000001
 30
0.0
 11
4.2134999999999998
 21
1.8779000000000001
 31
0.0
  0
LINE
  5
213
100
AcDbEntity
100
AcDbLine
  8
BLACK
 62
256
370
-1
  6
ByLayer
 10
4.2049000000000003
 20
1.8779000000000001
 30
0.0
 11
4.2049000000000003
 21
1.9079000000000002
 31
0.0
  0
LINE
  5
214
100
AcDbEntity
100
AcDbLine
  8
BLACK
 62
256
370
-1
  6
ByLayer
 10
4.2049000000000003
 20
1.9079000000000002
 30
0.0
 11
4.2077999999999998
 21
1.9036000000000002
 31
0.0
  0
LINE
  5
215
100
AcDbEntity
100
AcDbLine
  8
BLACK
 62
256
370
-1
  6
ByLayer
 10
4.2077999999999998
 20
1.9036000000000002
 30
0.0
 11
4.2106000000000003
 21
1.9007000000000001
 31
0.0
  0
LINE
  5
216
100
AcDbEntity
100
AcDbLine
  8
BLACK
 62
256
370
-1
  6
ByLayer
 10
4.2106000000000003
 20
1.9007000000000001
 30
0.0
 11
4.2134999999999998
 21
1.8993
 31
0.0
  0
LINE
  5
217
100
AcDbEntity
100
AcDbLine
  8
BLACK
 62
256
370
-1
  6
ByLayer
 10
4.1706000000000003
 20
1.8979000000000001
 30
0.0
 11
4.1706000000000003
 21
1.8779000000000001
 31
0.0
  0
LINE
  5
218
100
AcDbEntity
100
AcDbLine
  8
BLACK
 62
256
370
-1
  6
ByLayer
 10
4.1835000000000004
 20
1.8979000000000001
 30
0.0
 11
4.1835000000000004
 21
1.8821000000000001
 31
0.0
  0
LINE
  5
219
100
AcDbEntity
100
AcDbLine
  8
BLACK
 62
256
370
-1
  6
ByLayer
 10
4.1835000000000004
 20
1.8821000000000001
 30
0.0
 11
4.1820000000000004
 21
1.8793000000000002
 31
0.0
  0
LINE
  5
21A
100
AcDbEntity
100
AcDbLine
  8
BLACK
 62
256
370
-1
  6
ByLayer
 10
4.1820000000000004
 20
1.8793000000000002
 30
0.0
 11
4.1791999999999998
 21
1.8779000000000001
 31
0.0
  0
LINE
  5
21B
100
AcDbEntity
100
AcDbLine
  8
BLACK
 62
256
370
-1
  6
ByLayer
 10
4.1791999999999998
 20
1.8779000000000001
 30
0.0
 11
4.1749000000000001
 21
1.8779000000000001
 31
0.0
  0
LINE
  5
21C
100
AcDbEntity
100
AcDbLine
  8
BLACK
 62
256
370
-1
  6
ByLayer
 10
4.1749000000000001
 20
1.8779000000000001
 30
0.0
 11
4.1720000000000006
 21
1.8793000000000002
 31
0.0
  0
LINE
  5
21D
100
AcDbEntity
100
AcDbLine
  8
BLACK
 62
256
370
-1
  6
ByLayer
 10
4.1720000000000006
 20
1.8793000000000002
 30
0.0
 11
4.1706000000000003
 21
1.8807
 31
0.0
  0
LINE
  5
21E
100
AcDbEntity
100
AcDbLine
  8
BLACK
 62
256
370
-1
  6
ByLayer
 10
4.1463999999999999
 20
1.8936000000000002
 30
0.0
 11
4.1564000000000005
 21
1.8936000000000002
 31
0.0
  0
LINE
  5
21F
100
AcDbEntity
100
AcDbLine
  8
BLACK
 62
256
370
-1
  6
ByLayer
 10
4.1564000000000005
 20
1.8779000000000001
 30
0.0
 11
4.1564000000000005
 21
1.9079000000000002
 31
0.0
  0
LINE
  5
220
100
AcDbEntity
100
AcDbLine
  8
BLACK
 62
256
370
-1
  6
ByLayer
 10
4.1564000000000005
 20
1.9079000000000002
 30
0.0
 11
4.1421000000000001
 21
1.9079000000000002
 31
0.0
  0
LINE
  5
221
100
AcDbEntity
100
AcDbLine
  8
BLACK
 62
256
370
-1
  6
ByLayer
 10
2.8566000000000003
 20
0.2876
 30
0.0
 11
2.8585000000000003
 21
0.2857
 31
0.0
  0
LINE
  5
222
100
AcDbEntity
100
AcDbLine
  8
BLACK
 62
256
370
-1
  6
ByLayer
 10
2.8585000000000003
 20
0.2857
 30
0.0
 11
2.8642000000000003
 21
0.2838
 31
0.0
  0
LINE
  5
223
100
AcDbEntity
100
AcDbLine
  8
BLACK
 62
256
370
-1
  6
ByLayer
 10
2.8642000000000003
 20
0.2838
 30
0.0
 11
2.8680000000000003
 21
0.2838
 31
0.0
  0
LINE
  5
224
100
AcDbEntity
100
AcDbLine
  8
BLACK
 62
256
370
-1
  6
ByLayer
 10
2.8680000000000003
 20
0.2838
 30
0.0
 11
2.8738000000000001
 21
0.2857
 31
0.0
  0
LINE
  5
225
100
AcDbEntity
100
AcDbLine
  8
BLACK
 62
256
370
-1
  6
ByLayer
 10
2.8738000000000001
 20
0.2857
 30
0.0
 11
2.8776000000000002
 21
0.2895
 31
0.0
  0
LINE
  5
226
100
AcDbEntity
100
AcDbLine
  8
BLACK
 62
256
370
-1
  6
ByLayer
 10
2.8776000000000002
 20
0.2895
 30
0.0
 11
2.8795000000000002
 21
0.2933
 31
0.0
  0
LINE
  5
227
100
AcDbEntity
100
AcDbLine
  8
BLACK
 62
256
370
-1
  6
ByLayer
 10
2.8795000000000002
 20
0.2933
 30
0.0
 11
2.8814000000000002
 21
0.301
 31
0.0
  0
LINE
  5
228
100
AcDbEntity
100
AcDbLine
  8
BLACK
 62
256
370
-1
  6
ByLayer
 10
2.8814000000000002
 20
0.301
 30
0.0
 11
2.8814000000000002
 21
0.3067
 31
0.0
  0
LINE
  5
229
100
AcDbEntity
100
AcDbLine
  8
BLACK
 62
256
370
-1
  6
ByLayer
 10
2.8814000000000002
 20
0.3067
 30
0.0
 11
2.8795000000000002
 21
0.3143
 31
0.0
  0
LINE
  5
22A
100
AcDbEntity
100
AcDbLine
  8
BLACK
 62
256
370
-1
  6
ByLayer
 10
2.8795000000000002
 20
0.3143
 30
0.0
 11
2.8776000000000002
 21
0.3181
 31
0.0
  0
LINE
  5
22B
100
AcDbEntity
100
AcDbLine
  8
BLACK
 62
256
370
-1
  6
ByLayer
 10
2.8776000000000002
 20
0.3181
 30
0.0
 11
2.8738000000000001
 21
0.3219
 31
0.0
  0
LINE
  5
22C
100
AcDbEntity
100
AcDbLine
  8
BLACK
 62
256
370
-1
  6
ByLayer
 10
2.8738000000000001
 20
0.3219
 30
0.0
 11
2.8680000000000003
 21
0.3238
 31
0.0
  0
LINE
  5
22D
100
AcDbEntity
100
AcDbLine
  8
BLACK
 62
256
370
-1
  6
ByLayer
 10
2.8680000000000003
 20
0.3238
 30
0.0
 11
2.8642000000000003
 21
0.3238
 31
0.0
  0
LINE
  5
22E
100
AcDbEntity
100
AcDbLine
  8
BLACK
 62
256
370
-1
  6
ByLayer
 10
2.8642000000000003
 20
0.3238
 30
0.0
 11
2.8585000000000003
 21
0.3219
 31
0.0
  0
LINE
  5
22F
100
AcDbEntity
100
AcDbLine
  8
BLACK
 62
256
370
-1
  6
ByLayer
 10
2.8585000000000003
 20
0.3219
 30
0.0
 11
2.8566000000000003
 21
0.32
 31
0.0
  0
LINE
  5
230
100
AcDbEntity
100
AcDbLine
  8
BLACK
 62
256
370
-1
  6
ByLayer
 10
2.8433000000000002
 20
0.3238
 30
0.0
 11
2.8185000000000002
 21
0.3238
 31
0.0
  0
LINE
  5
231
100
AcDbEntity
100
AcDbLine
  8
BLACK
 62
256
370
-1
  6
ByLayer
 10
2.8185000000000002
 20
0.3238
 30
0.0
 11
2.8319000000000001
 21
0.3086
 31
0.0
  0
LINE
  5
232
100
AcDbEntity
100
AcDbLine
  8
BLACK
 62
256
370
-1
  6
ByLayer
 10
2.8319000000000001
 20
0.3086
 30
0.0
 11
2.8261000000000003
 21
0.3086
 31
0.0
  0
LINE
  5
233
100
AcDbEntity
100
AcDbLine
  8
BLACK
 62
256
370
-1
  6
ByLayer
 10
2.8261000000000003
 20
0.3086
 30
0.0
 11
2.8223000000000003
 21
0.3067
 31
0.0
  0
LINE
  5
234
100
AcDbEntity
100
AcDbLine
  8
BLACK
 62
256
370
-1
  6
ByLayer
 10
2.8223000000000003
 20
0.3067
 30
0.0
 11
2.8204000000000002
 21
0.3048
 31
0.0
  0
LINE
  5
235
100
AcDbEntity
100
AcDbLine
  8
BLACK
 62
256
370
-1
  6
ByLayer
 10
2.8204000000000002
 20
0.3048
 30
0.0
 11
2.8185000000000002
 21
0.301
 31
0.0
  0
LINE
  5
236
100
AcDbEntity
100
AcDbLine
  8
BLACK
 62
256
370
-1
  6
ByLayer
 10
2.8185000000000002
 20
0.301
 30
0.0
 11
2.8185000000000002
 21
0.2914
 31
0.0
  0
LINE
  5
237
100
AcDbEntity
100
AcDbLine
  8
BLACK
 62
256
370
-1
  6
ByLayer
 10
2.8185000000000002
 20
0.2914
 30
0.0
 11
2.8204000000000002
 21
0.2876
 31
0.0
  0
LINE
  5
238
100
AcDbEntity
100
AcDbLine
  8
BLACK
 62
256
370
-1
  6
ByLayer
 10
2.8204000000000002
 20
0.2876
 30
0.0
 11
2.8223000000000003
 21
0.2857
 31
0.0
  0
LINE
  5
239
100
AcDbEntity
100
AcDbLine
  8
BLACK
 62
256
370
-1
  6
ByLayer
 10
2.8223000000000003
 20
0.2857
 30
0.0
 11
2.8261000000000003
 21
0.2838
 31
0.0
  0
LINE
  5
23A
100
AcDbEntity
100
AcDbLine
  8
BLACK
 62
256
370
-1
  6
ByLayer
 10
2.8261000000000003
 20
0.2838
 30
0.0
 11
2.8376000000000001
 21
0.2838
 31
0.0
  0
LINE
  5
23B
100
AcDbEntity
100
AcDbLine
  8
BLACK
 62
256
370
-1
  6
ByLayer
 10
2.8376000000000001
 20
0.2838
 30
0.0
 11
2.8414000000000001
 21
0.2857
 31
0.0
  0
LINE
  5
23C
100
AcDbEntity
100
AcDbLine
  8
BLACK
 62
256
370
-1
  6
ByLayer
 10
2.8414000000000001
 20
0.2857
 30
0.0
 11
2.8433000000000002
 21
0.2876
 31
0.0
  0
LINE
  5
23D
100
AcDbEntity
100
AcDbLine
  8
BLACK
 62
256
370
-1
  6
ByLayer
 10
2.8821000000000003
 20
0.5629000000000001
 30
0.0
 11
2.8993000000000002
 21
0.5629000000000001
 31
0.0
  0
LINE
  5
23E
100
AcDbEntity
100
AcDbLine
  8
BLACK
 62
256
370
-1
  6
ByLayer
 10
2.8907000000000003
 20
0.5629000000000001
 30
0.0
 11
2.8907000000000003
 21
0.5929
 31
0.0
  0
LINE
  5
23F
100
AcDbEntity
100
AcDbLine
  8
BLACK
 62
256
370
-1
  6
ByLayer
 10
2.8907000000000003
 20
0.5929
 30
0.0
 11
2.8936000000000002
 21
0.5886
 31
0.0
  0
LINE
  5
240
100
AcDbEntity
100
AcDbLine
  8
BLACK
 62
256
370
-1
  6
ByLayer
 10
2.8936000000000002
 20
0.5886
 30
0.0
 11
2.8964000000000003
 21
0.5857
 31
0.0
  0
LINE
  5
241
100
AcDbEntity
100
AcDbLine
  8
BLACK
 62
256
370
-1
  6
ByLayer
 10
2.8964000000000003
 20
0.5857
 30
0.0
 11
2.8993000000000002
 21
0.5843
 31
0.0
  0
LINE
  5
242
100
AcDbEntity
100
AcDbLine
  8
BLACK
 62
256
370
-1
  6
ByLayer
 10
2.8635000000000002
 20
0.5929
 30
0.0
 11
2.8607
 21
0.5929
 31
0.0
  0
LINE
  5
243
100
AcDbEntity
100
AcDbLine
  8
BLACK
 62
256
370
-1
  6
ByLayer
 10
2.8607
 20
0.5929
 30
0.0
 11
2.8578000000000001
 21
0.5914
 31
0.0
  0
LINE
  5
244
100
AcDbEntity
100
AcDbLine
  8
BLACK
 62
256
370
-1
  6
ByLayer
 10
2.8578000000000001
 20
0.5914
 30
0.0
 11
2.8564000000000003
 21
0.5900000000000001
 31
0.0
  0
LINE
  5
245
100
AcDbEntity
100
AcDbLine
  8
BLACK
 62
256
370
-1
  6
ByLayer
 10
2.8564000000000003
 20
0.5900000000000001
 30
0.0
 11
2.855
 21
0.5871000000000001
 31
0.0
  0
LINE
  5
246
100
AcDbEntity
100
AcDbLine
  8
BLACK
 62
256
370
-1
  6
ByLayer
 10
2.855
 20
0.5871000000000001
 30
0.0
 11
2.8534999999999999
 21
0.5814
 31
0.0
  0
LINE
  5
247
100
AcDbEntity
100
AcDbLine
  8
BLACK
 62
256
370
-1
  6
ByLayer
 10
2.8534999999999999
 20
0.5814
 30
0.0
 11
2.8534999999999999
 21
0.5743
 31
0.0
  0
LINE
  5
248
100
AcDbEntity
100
AcDbLine
  8
BLACK
 62
256
370
-1
  6
ByLayer
 10
2.8534999999999999
 20
0.5743
 30
0.0
 11
2.855
 21
0.5686
 31
0.0
  0
LINE
  5
249
100
AcDbEntity
100
AcDbLine
  8
BLACK
 62
256
370
-1
  6
ByLayer
 10
2.855
 20
0.5686
 30
0.0
 11
2.8564000000000003
 21
0.5657
 31
0.0
  0
LINE
  5
24A
100
AcDbEntity
100
AcDbLine
  8
BLACK
 62
256
370
-1
  6
ByLayer
 10
2.8564000000000003
 20
0.5657
 30
0.0
 11
2.8578000000000001
 21
0.5643
 31
0.0
  0
LINE
  5
24B
100
AcDbEntity
100
AcDbLine
  8
BLACK
 62
256
370
-1
  6
ByLayer
 10
2.8578000000000001
 20
0.5643
 30
0.0
 11
2.8607
 21
0.5629000000000001
 31
0.0
  0
LINE
  5
24C
100
AcDbEntity
100
AcDbLine
  8
BLACK
 62
256
370
-1
  6
ByLayer
 10
2.8607
 20
0.5629000000000001
 30
0.0
 11
2.8635000000000002
 21
0.5629000000000001
 31
0.0
  0
LINE
  5
24D
100
AcDbEntity
100
AcDbLine
  8
BLACK
 62
256
370
-1
  6
ByLayer
 10
2.8635000000000002
 20
0.5629000000000001
 30
0.0
 11
2.8664000000000001
 21
0.5643
 31
0.0
  0
LINE
  5
24E
100
AcDbEntity
100
AcDbLine
  8
BLACK
 62
256
370
-1
  6
ByLayer
 10
2.8664000000000001
 20
0.5643
 30
0.0
 11
2.8678000000000003
 21
0.5657
 31
0.0
  0
LINE
  5
24F
100
AcDbEntity
100
AcDbLine
  8
BLACK
 62
256
370
-1
  6
ByLayer
 10
2.8678000000000003
 20
0.5657
 30
0.0
 11
2.8693
 21
0.5686
 31
0.0
  0
LINE
  5
250
100
AcDbEntity
100
AcDbLine
  8
BLACK
 62
256
370
-1
  6
ByLayer
 10
2.8693
 20
0.5686
 30
0.0
 11
2.8707000000000003
 21
0.5743
 31
0.0
  0
LINE
  5
251
100
AcDbEntity
100
AcDbLine
  8
BLACK
 62
256
370
-1
  6
ByLayer
 10
2.8707000000000003
 20
0.5743
 30
0.0
 11
2.8707000000000003
 21
0.5814
 31
0.0
  0
LINE
  5
252
100
AcDbEntity
100
AcDbLine
  8
BLACK
 62
256
370
-1
  6
ByLayer
 10
2.8707000000000003
 20
0.5814
 30
0.0
 11
2.8693
 21
0.5871000000000001
 31
0.0
  0
LINE
  5
253
100
AcDbEntity
100
AcDbLine
  8
BLACK
 62
256
370
-1
  6
ByLayer
 10
2.8693
 20
0.5871000000000001
 30
0.0
 11
2.8678000000000003
 21
0.5900000000000001
 31
0.0
  0
LINE
  5
254
100
AcDbEntity
100
AcDbLine
  8
BLACK
 62
256
370
-1
  6
ByLayer
 10
2.8678000000000003
 20
0.5900000000000001
 30
0.0
 11
2.8664000000000001
 21
0.5914
 31
0.0
  0
LINE
  5
255
100
AcDbEntity
100
AcDbLine
  8
BLACK
 62
256
370
-1
  6
ByLayer
 10
2.8664000000000001
 20
0.5914
 30
0.0
 11
2.8635000000000002
 21
0.5929
 31
0.0
  0
LINE
  5
256
100
AcDbEntity
100
AcDbLine
  8
BLACK
 62
256
370
-1
  6
ByLayer
 10
2.8278000000000003
 20
0.5829
 30
0.0
 11
2.8278000000000003
 21
0.5629000000000001
 31
0.0
  0
LINE
  5
257
100
AcDbEntity
100
AcDbLine
  8
BLACK
 62
256
370
-1
  6
ByLayer
 10
2.8407
 20
0.5829
 30
0.0
 11
2.8407
 21
0.5671
 31
0.0
  0
LINE
  5
258
100
AcDbEntity
100
AcDbLine
  8
BLACK
 62
256
370
-1
  6
ByLayer
 10
2.8407
 20
0.5671
 30
0.0
 11
2.8391999999999999
 21
0.5643
 31
0.0
  0
LINE
  5
259
100
AcDbEntity
100
AcDbLine
  8
BLACK
 62
256
370
-1
  6
ByLayer
 10
2.8391999999999999
 20
0.5643
 30
0.0
 11
2.8364000000000003
 21
0.5629000000000001
 31
0.0
  0
LINE
  5
25A
100
AcDbEntity
100
AcDbLine
  8
BLACK
 62
256
370
-1
  6
ByLayer
 10
2.8364000000000003
 20
0.5629000000000001
 30
0.0
 11
2.8321000000000001
 21
0.5629000000000001
 31
0.0
  0
LINE
  5
25B
100
AcDbEntity
100
AcDbLine
  8
BLACK
 62
256
370
-1
  6
ByLayer
 10
2.8321000000000001
 20
0.5629000000000001
 30
0.0
 11
2.8292000000000002
 21
0.5643
 31
0.0
  0
LINE
  5
25C
100
AcDbEntity
100
AcDbLine
  8
BLACK
 62
256
370
-1
  6
ByLayer
 10
2.8292000000000002
 20
0.5643
 30
0.0
 11
2.8278000000000003
 21
0.5657
 31
0.0
  0
LINE
  5
25D
100
AcDbEntity
100
AcDbLine
  8
BLACK
 62
256
370
-1
  6
ByLayer
 10
2.8036000000000003
 20
0.5786
 30
0.0
 11
2.8136000000000001
 21
0.5786
 31
0.0
  0
LINE
  5
25E
100
AcDbEntity
100
AcDbLine
  8
BLACK
 62
256
370
-1
  6
ByLayer
 10
2.8136000000000001
 20
0.5629000000000001
 30
0.0
 11
2.8136000000000001
 21
0.5929
 31
0.0
  0
LINE
  5
25F
100
AcDbEntity
100
AcDbLine
  8
BLACK
 62
256
370
-1
  6
ByLayer
 10
2.8136000000000001
 20
0.5929
 30
0.0
 11
2.7993000000000001
 21
0.5929
 31
0.0
  0
LINE
  5
260
100
AcDbEntity
100
AcDbLine
  8
BLACK
 62
256
370
-1
  6
ByLayer
 10
1.8912
 20
1.1516
 30
0.0
 11
1.8721000000000001
 21
1.165
 31
0.0
  0
LINE
  5
261
100
AcDbEntity
100
AcDbLine
  8
BLACK
 62
256
370
-1
  6
ByLayer
 10
1.8912
 20
1.1745000000000001
 30
0.0
 11
1.8512000000000002
 21
1.1745000000000001
 31
0.0
  0
LINE
  5
262
100
AcDbEntity
100
AcDbLine
  8
BLACK
 62
256
370
-1
  6
ByLayer
 10
1.8512000000000002
 20
1.1745000000000001
 30
0.0
 11
1.8512000000000002
 21
1.1592
 31
0.0
  0
LINE
  5
263
100
AcDbEntity
100
AcDbLine
  8
BLACK
 62
256
370
-1
  6
ByLayer
 10
1.8512000000000002
 20
1.1592
 30
0.0
 11
1.8531000000000002
 21
1.1554
 31
0.0
  0
LINE
  5
264
100
AcDbEntity
100
AcDbLine
  8
BLACK
 62
256
370
-1
  6
ByLayer
 10
1.8531000000000002
 20
1.1554
 30
0.0
 11
1.855
 21
1.1535
 31
0.0
  0
LINE
  5
265
100
AcDbEntity
100
AcDbLine
  8
BLACK
 62
256
370
-1
  6
ByLayer
 10
1.855
 20
1.1535
 30
0.0
 11
1.8588
 21
1.1516
 31
0.0
  0
LINE
  5
266
100
AcDbEntity
100
AcDbLine
  8
BLACK
 62
256
370
-1
  6
ByLayer
 10
1.8588
 20
1.1516
 30
0.0
 11
1.8645
 21
1.1516
 31
0.0
  0
LINE
  5
267
100
AcDbEntity
100
AcDbLine
  8
BLACK
 62
256
370
-1
  6
ByLayer
 10
1.8645
 20
1.1516
 30
0.0
 11
1.8683000000000001
 21
1.1535
 31
0.0
  0
LINE
  5
268
100
AcDbEntity
100
AcDbLine
  8
BLACK
 62
256
370
-1
  6
ByLayer
 10
1.8683000000000001
 20
1.1535
 30
0.0
 11
1.8702000000000001
 21
1.1554
 31
0.0
  0
LINE
  5
269
100
AcDbEntity
100
AcDbLine
  8
BLACK
 62
256
370
-1
  6
ByLayer
 10
1.8702000000000001
 20
1.1554
 30
0.0
 11
1.8721000000000001
 21
1.1592
 31
0.0
  0
LINE
  5
26A
100
AcDbEntity
100
AcDbLine
  8
BLACK
 62
256
370
-1
  6
ByLayer
 10
1.8721000000000001
 20
1.1592
 30
0.0
 11
1.8721000000000001
 21
1.1745000000000001
 31
0.0
  0
LINE
  5
26B
100
AcDbEntity
100
AcDbLine
  8
BLACK
 62
256
370
-1
  6
ByLayer
 10
1.8912
 20
1.1345000000000001
 30
0.0
 11
1.8512000000000002
 21
1.1345000000000001
 31
0.0
  0
LINE
  5
26C
100
AcDbEntity
100
AcDbLine
  8
BLACK
 62
256
370
-1
  6
ByLayer
 10
1.8512000000000002
 20
1.1345000000000001
 30
0.0
 11
1.8512000000000002
 21
1.1192
 31
0.0
  0
LINE
  5
26D
100
AcDbEntity
100
AcDbLine
  8
BLACK
 62
256
370
-1
  6
ByLayer
 10
1.8512000000000002
 20
1.1192
 30
0.0
 11
1.8531000000000002
 21
1.1153999999999999
 31
0.0
  0
LINE
  5
26E
100
AcDbEntity
100
AcDbLine
  8
BLACK
 62
256
370
-1
  6
ByLayer
 10
1.8531000000000002
 20
1.1153999999999999
 30
0.0
 11
1.855
 21
1.1135000000000002
 31
0.0
  0
LINE
  5
26F
100
AcDbEntity
100
AcDbLine
  8
BLACK
 62
256
370
-1
  6
ByLayer
 10
1.855
 20
1.1135000000000002
 30
0.0
 11
1.8588
 21
1.1116000000000001
 31
0.0
  0
LINE
  5
270
100
AcDbEntity
100
AcDbLine
  8
BLACK
 62
256
370
-1
  6
ByLayer
 10
1.8588
 20
1.1116000000000001
 30
0.0
 11
1.8645
 21
1.1116000000000001
 31
0.0
  0
LINE
  5
271
100
AcDbEntity
100
AcDbLine
  8
BLACK
 62
256
370
-1
  6
ByLayer
 10
1.8645
 20
1.1116000000000001
 30
0.0
 11
1.8683000000000001
 21
1.1135000000000002
 31
0.0
  0
LINE
  5
272
100
AcDbEntity
100
AcDbLine
  8
BLACK
 62
256
370
-1
  6
ByLayer
 10
1.8683000000000001
 20
1.1135000000000002
 30
0.0
 11
1.8702000000000001
 21
1.1153999999999999
 31
0.0
  0
LINE
  5
273
100
AcDbEntity
100
AcDbLine
  8
BLACK
 62
256
370
-1
  6
ByLayer
 10
1.8702000000000001
 20
1.1153999999999999
 30
0.0
 11
1.8721000000000001
 21
1.1192
 31
0.0
  0
LINE
  5
274
100
AcDbEntity
100
AcDbLine
  8
BLACK
 62
256
370
-1
  6
ByLayer
 10
1.8721000000000001
 20
1.1192
 30
0.0
 11
1.8721000000000001
 21
1.1345000000000001
 31
0.0
  0
LINE
  5
275
100
AcDbEntity
100
AcDbLine
  8
BLACK
 62
256
370
-1
  6
ByLayer
 10
1.8912
 20
1.0735000000000001
 30
0.0
 11
1.8912
 21
1.0964
 31
0.0
  0
LINE
  5
276
100
AcDbEntity
100
AcDbLine
  8
BLACK
 62
256
370
-1
  6
ByLayer
 10
1.8912
 20
1.085
 30
0.0
 11
1.8512000000000002
 21
1.085
 31
0.0
  0
LINE
  5
277
100
AcDbEntity
100
AcDbLine
  8
BLACK
 62
256
370
-1
  6
ByLayer
 10
1.8512000000000002
 20
1.085
 30
0.0
 11
1.8569
 21
1.0888
 31
0.0
  0
LINE
  5
278
100
AcDbEntity
100
AcDbLine
  8
BLACK
 62
256
370
-1
  6
ByLayer
 10
1.8569
 20
1.0888
 30
0.0
 11
1.8607
 21
1.0926
 31
0.0
  0
LINE
  5
279
100
AcDbEntity
100
AcDbLine
  8
BLACK
 62
256
370
-1
  6
ByLayer
 10
1.8607
 20
1.0926
 30
0.0
 11
1.8626
 21
1.0964
 31
0.0
  0
LINE
  5
27A
100
AcDbEntity
100
AcDbLine
  8
BLACK
 62
256
370
-1
  6
ByLayer
 10
2.4050000000000002
 20
1.1812
 30
0.0
 11
2.4031000000000002
 21
1.1793
 31
0.0
  0
LINE
  5
27B
100
AcDbEntity
100
AcDbLine
  8
BLACK
 62
256
370
-1
  6
ByLayer
 10
2.4031000000000002
 20
1.1793
 30
0.0
 11
2.4012000000000002
 21
1.1755
 31
0.0
  0
LINE
  5
27C
100
AcDbEntity
100
AcDbLine
  8
BLACK
 62
256
370
-1
  6
ByLayer
 10
2.4012000000000002
 20
1.1755
 30
0.0
 11
2.4012000000000002
 21
1.1659000000000002
 31
0.0
  0
LINE
  5
27D
100
AcDbEntity
100
AcDbLine
  8
BLACK
 62
256
370
-1
  6
ByLayer
 10
2.4012000000000002
 20
1.1659000000000002
 30
0.0
 11
2.4031000000000002
 21
1.1621000000000001
 31
0.0
  0
LINE
  5
27E
100
AcDbEntity
100
AcDbLine
  8
BLACK
 62
256
370
-1
  6
ByLayer
 10
2.4031000000000002
 20
1.1621000000000001
 30
0.0
 11
2.4050000000000002
 21
1.1602000000000001
 31
0.0
  0
LINE
  5
27F
100
AcDbEntity
100
AcDbLine
  8
BLACK
 62
256
370
-1
  6
ByLayer
 10
2.4050000000000002
 20
1.1602000000000001
 30
0.0
 11
2.4088000000000003
 21
1.1583000000000001
 31
0.0
  0
LINE
  5
280
100
AcDbEntity
100
AcDbLine
  8
BLACK
 62
256
370
-1
  6
ByLayer
 10
2.4088000000000003
 20
1.1583000000000001
 30
0.0
 11
2.4126000000000003
 21
1.1583000000000001
 31
0.0
  0
LINE
  5
281
100
AcDbEntity
100
AcDbLine
  8
BLACK
 62
256
370
-1
  6
ByLayer
 10
2.4126000000000003
 20
1.1583000000000001
 30
0.0
 11
2.4182999999999999
 21
1.1602000000000001
 31
0.0
  0
LINE
  5
282
100
AcDbEntity
100
AcDbLine
  8
BLACK
 62
256
370
-1
  6
ByLayer
 10
2.4182999999999999
 20
1.1602000000000001
 30
0.0
 11
2.4412000000000003
 21
1.1831
 31
0.0
  0
LINE
  5
283
100
AcDbEntity
100
AcDbLine
  8
BLACK
 62
256
370
-1
  6
ByLayer
 10
2.4412000000000003
 20
1.1831
 30
0.0
 11
2.4412000000000003
 21
1.1583000000000001
 31
0.0
  0
LINE
  5
284
100
AcDbEntity
100
AcDbLine
  8
BLACK
 62
256
370
-1
  6
ByLayer
 10
2.4374000000000002
 20
1.1412
 30
0.0
 11
2.4393000000000002
 21
1.1393
 31
0.0
  0
LINE
  5
285
100
AcDbEntity
100
AcDbLine
  8
BLACK
 62
256
370
-1
  6
ByLayer
 10
2.4393000000000002
 20
1.1393
 30
0.0
 11
2.4412000000000003
 21
1.1412
 31
0.0
  0
LINE
  5
286
100
AcDbEntity
100
AcDbLine
  8
BLACK
 62
256
370
-1
  6
ByLayer
 10
2.4412000000000003
 20
1.1412
 30
0.0
 11
2.4393000000000002
 21
1.1431
 31
0.0
  0
LINE
  5
287
100
AcDbEntity
100
AcDbLine
  8
BLACK
 62
256
370
-1
  6
ByLayer
 10
2.4393000000000002
 20
1.1431
 30
0.0
 11
2.4374000000000002
 21
1.1412
 31
0.0
  0
LINE
  5
288
100
AcDbEntity
100
AcDbLine
  8
BLACK
 62
256
370
-1
  6
ByLayer
 10
2.4374000000000002
 20
1.1412
 30
0.0
 11
2.4412000000000003
 21
1.1412
 31
0.0
  0
LINE
  5
289
100
AcDbEntity
100
AcDbLine
  8
BLACK
 62
256
370
-1
  6
ByLayer
 10
2.4050000000000002
 20
1.1241000000000001
 30
0.0
 11
2.4031000000000002
 21
1.1222000000000001
 31
0.0
  0
LINE
  5
28A
100
AcDbEntity
100
AcDbLine
  8
BLACK
 62
256
370
-1
  6
ByLayer
 10
2.4031000000000002
 20
1.1222000000000001
 30
0.0
 11
2.4012000000000002
 21
1.1184000000000001
 31
0.0
  0
LINE
  5
28B
100
AcDbEntity
100
AcDbLine
  8
BLACK
 62
256
370
-1
  6
ByLayer
 10
2.4012000000000002
 20
1.1184000000000001
 30
0.0
 11
2.4012000000000002
 21
1.1088
 31
0.0
  0
LINE
  5
28C
100
AcDbEntity
100
AcDbLine
  8
BLACK
 62
256
370
-1
  6
ByLayer
 10
2.4012000000000002
 20
1.1088
 30
0.0
 11
2.4031000000000002
 21
1.105
 31
0.0
  0
LINE
  5
28D
100
AcDbEntity
100
AcDbLine
  8
BLACK
 62
256
370
-1
  6
ByLayer
 10
2.4031000000000002
 20
1.105
 30
0.0
 11
2.4050000000000002
 21
1.1031
 31
0.0
  0
LINE
  5
28E
100
AcDbEntity
100
AcDbLine
  8
BLACK
 62
256
370
-1
  6
ByLayer
 10
2.4050000000000002
 20
1.1031
 30
0.0
 11
2.4088000000000003
 21
1.1012
 31
0.0
  0
LINE
  5
28F
100
AcDbEntity
100
AcDbLine
  8
BLACK
 62
256
370
-1
  6
ByLayer
 10
2.4088000000000003
 20
1.1012
 30
0.0
 11
2.4126000000000003
 21
1.1012
 31
0.0
  0
LINE
  5
290
100
AcDbEntity
100
AcDbLine
  8
BLACK
 62
256
370
-1
  6
ByLayer
 10
2.4126000000000003
 20
1.1012
 30
0.0
 11
2.4182999999999999
 21
1.1031
 31
0.0
  0
LINE
  5
291
100
AcDbEntity
100
AcDbLine
  8
BLACK
 62
256
370
-1
  6
ByLayer
 10
2.4182999999999999
 20
1.1031
 30
0.0
 11
2.4412000000000003
 21
1.1260000000000001
 31
0.0
  0
LINE
  5
292
100
AcDbEntity
100
AcDbLine
  8
BLACK
 62
256
370
-1
  6
ByLayer
 10
2.4412000000000003
 20
1.1260000000000001
 30
0.0
 11
2.4412000000000003
 21
1.1012
 31
0.0
  0
LINE
  5
293
100
AcDbEntity
100
AcDbLine
  8
BLACK
 62
256
370
-1
  6
ByLayer
 10
2.4412000000000003
 20
1.0841000000000001
 30
0.0
 11
2.4012000000000002
 21
1.0841000000000001
 31
0.0
  0
LINE
  5
294
100
AcDbEntity
100
AcDbLine
  8
BLACK
 62
256
370
-1
  6
ByLayer
 10
2.4260000000000002
 20
1.0803
 30
0.0
 11
2.4412000000000003
 21
1.0688
 31
0.0
  0
LINE
  5
295
100
AcDbEntity
100
AcDbLine
  8
BLACK
 62
256
370
-1
  6
ByLayer
 10
2.4145000000000003
 20
1.0688
 30
0.0
 11
2.4298000000000002
 21
1.0841000000000001
 31
0.0
  0
LINE
  5
296
100
AcDbEntity
100
AcDbLine
  8
BLACK
 62
256
370
-1
  6
ByLayer
 10
4.4316000000000004
 20
0.6876
 30
0.0
 11
4.4335000000000004
 21
0.6857000000000001
 31
0.0
  0
LINE
  5
297
100
AcDbEntity
100
AcDbLine
  8
BLACK
 62
256
370
-1
  6
ByLayer
 10
4.4335000000000004
 20
0.6857000000000001
 30
0.0
 11
4.4392000000000005
 21
0.6838000000000001
 31
0.0
  0
LINE
  5
298
100
AcDbEntity
100
AcDbLine
  8
BLACK
 62
256
370
-1
  6
ByLayer
 10
4.4392000000000005
 20
0.6838000000000001
 30
0.0
 11
4.4430000000000005
 21
0.6838000000000001
 31
0.0
  0
LINE
  5
299
100
AcDbEntity
100
AcDbLine
  8
BLACK
 62
256
370
-1
  6
ByLayer
 10
4.4430000000000005
 20
0.6838000000000001
 30
0.0
 11
4.4488000000000003
 21
0.6857000000000001
 31
0.0
  0
LINE
  5
29A
100
AcDbEntity
100
AcDbLine
  8
BLACK
 62
256
370
-1
  6
ByLayer
 10
4.4488000000000003
 20
0.6857000000000001
 30
0.0
 11
4.4526000000000003
 21
0.6895
 31
0.0
  0
LINE
  5
29B
100
AcDbEntity
100
AcDbLine
  8
BLACK
 62
256
370
-1
  6
ByLayer
 10
4.4526000000000003
 20
0.6895
 30
0.0
 11
4.4545000000000003
 21
0.6933
 31
0.0
  0
LINE
  5
29C
100
AcDbEntity
100
AcDbLine
  8
BLACK
 62
256
370
-1
  6
ByLayer
 10
4.4545000000000003
 20
0.6933
 30
0.0
 11
4.4564000000000004
 21
0.7010000000000001
 31
0.0
  0
LINE
  5
29D
100
AcDbEntity
100
AcDbLine
  8
BLACK
 62
256
370
-1
  6
ByLayer
 10
4.4564000000000004
 20
0.7010000000000001
 30
0.0
 11
4.4564000000000004
 21
0.7067
 31
0.0
  0
LINE
  5
29E
100
AcDbEntity
100
AcDbLine
  8
BLACK
 62
256
370
-1
  6
ByLayer
 10
4.4564000000000004
 20
0.7067
 30
0.0
 11
4.4545000000000003
 21
0.7143
 31
0.0
  0
LINE
  5
29F
100
AcDbEntity
100
AcDbLine
  8
BLACK
 62
256
370
-1
  6
ByLayer
 10
4.4545000000000003
 20
0.7143
 30
0.0
 11
4.4526000000000003
 21
0.7181000000000001
 31
0.0
  0
LINE
  5
2A0
100
AcDbEntity
100
AcDbLine
  8
BLACK
 62
256
370
-1
  6
ByLayer
 10
4.4526000000000003
 20
0.7181000000000001
 30
0.0
 11
4.4488000000000003
 21
0.7219
 31
0.0
  0
LINE
  5
2A1
100
AcDbEntity
100
AcDbLine
  8
BLACK
 62
256
370
-1
  6
ByLayer
 10
4.4488000000000003
 20
0.7219
 30
0.0
 11
4.4430000000000005
 21
0.7238
 31
0.0
  0
LINE
  5
2A2
100
AcDbEntity
100
AcDbLine
  8
BLACK
 62
256
370
-1
  6
ByLayer
 10
4.4430000000000005
 20
0.7238
 30
0.0
 11
4.4392000000000005
 21
0.7238
 31
0.0
  0
LINE
  5
2A3
100
AcDbEntity
100
AcDbLine
  8
BLACK
 62
256
370
-1
  6
ByLayer
 10
4.4392000000000005
 20
0.7238
 30
0.0
 11
4.4335000000000004
 21
0.7219
 31
0.0
  0
LINE
  5
2A4
100
AcDbEntity
100
AcDbLine
  8
BLACK
 62
256
370
-1
  6
ByLayer
 10
4.4335000000000004
 20
0.7219
 30
0.0
 11
4.4316000000000004
 21
0.7200000000000001
 31
0.0
  0
LINE
  5
2A5
100
AcDbEntity
100
AcDbLine
  8
BLACK
 62
256
370
-1
  6
ByLayer
 10
4.4088000000000003
 20
0.7067
 30
0.0
 11
4.4126000000000003
 21
0.7086
 31
0.0
  0
LINE
  5
2A6
100
AcDbEntity
100
AcDbLine
  8
BLACK
 62
256
370
-1
  6
ByLayer
 10
4.4126000000000003
 20
0.7086
 30
0.0
 11
4.4145000000000003
 21
0.7105
 31
0.0
  0
LINE
  5
2A7
100
AcDbEntity
100
AcDbLine
  8
BLACK
 62
256
370
-1
  6
ByLayer
 10
4.4145000000000003
 20
0.7105
 30
0.0
 11
4.4164000000000003
 21
0.7143
 31
0.0
  0
LINE
  5
2A8
100
AcDbEntity
100
AcDbLine
  8
BLACK
 62
256
370
-1
  6
ByLayer
 10
4.4164000000000003
 20
0.7143
 30
0.0
 11
4.4164000000000003
 21
0.7162000000000001
 31
0.0
  0
LINE
  5
2A9
100
AcDbEntity
100
AcDbLine
  8
BLACK
 62
256
370
-1
  6
ByLayer
 10
4.4164000000000003
 20
0.7162000000000001
 30
0.0
 11
4.4145000000000003
 21
0.7200000000000001
 31
0.0
  0
LINE
  5
2AA
100
AcDbEntity
100
AcDbLine
  8
BLACK
 62
256
370
-1
  6
ByLayer
 10
4.4145000000000003
 20
0.7200000000000001
 30
0.0
 11
4.4126000000000003
 21
0.7219
 31
0.0
  0
LINE
  5
2AB
100
AcDbEntity
100
AcDbLine
  8
BLACK
 62
256
370
-1
  6
ByLayer
 10
4.4126000000000003
 20
0.7219
 30
0.0
 11
4.4088000000000003
 21
0.7238
 31
0.0
  0
LINE
  5
2AC
100
AcDbEntity
100
AcDbLine
  8
BLACK
 62
256
370
-1
  6
ByLayer
 10
4.4088000000000003
 20
0.7238
 30
0.0
 11
4.4011000000000005
 21
0.7238
 31
0.0
  0
LINE
  5
2AD
100
AcDbEntity
100
AcDbLine
  8
BLACK
 62
256
370
-1
  6
ByLayer
 10
4.4011000000000005
 20
0.7238
 30
0.0
 11
4.3973000000000004
 21
0.7219
 31
0.0
  0
LINE
  5
2AE
100
AcDbEntity
100
AcDbLine
  8
BLACK
 62
256
370
-1
  6
ByLayer
 10
4.3973000000000004
 20
0.7219
 30
0.0
 11
4.3954000000000004
 21
0.7200000000000001
 31
0.0
  0
LINE
  5
2AF
100
AcDbEntity
100
AcDbLine
  8
BLACK
 62
256
370
-1
  6
ByLayer
 10
4.3954000000000004
 20
0.7200000000000001
 30
0.0
 11
4.3935000000000004
 21
0.7162000000000001
 31
0.0
  0
LINE
  5
2B0
100
AcDbEntity
100
AcDbLine
  8
BLACK
 62
256
370
-1
  6
ByLayer
 10
4.3935000000000004
 20
0.7162000000000001
 30
0.0
 11
4.3935000000000004
 21
0.7143
 31
0.0
  0
LINE
  5
2B1
100
AcDbEntity
100
AcDbLine
  8
BLACK
 62
256
370
-1
  6
ByLayer
 10
4.3935000000000004
 20
0.7143
 30
0.0
 11
4.3954000000000004
 21
0.7105
 31
0.0
  0
LINE
  5
2B2
100
AcDbEntity
100
AcDbLine
  8
BLACK
 62
256
370
-1
  6
ByLayer
 10
4.3954000000000004
 20
0.7105
 30
0.0
 11
4.3973000000000004
 21
0.7086
 31
0.0
  0
LINE
  5
2B3
100
AcDbEntity
100
AcDbLine
  8
BLACK
 62
256
370
-1
  6
ByLayer
 10
4.3973000000000004
 20
0.7086
 30
0.0
 11
4.4011000000000005
 21
0.7067
 31
0.0
  0
LINE
  5
2B4
100
AcDbEntity
100
AcDbLine
  8
BLACK
 62
256
370
-1
  6
ByLayer
 10
4.4011000000000005
 20
0.7067
 30
0.0
 11
4.4088000000000003
 21
0.7067
 31
0.0
  0
LINE
  5
2B5
100
AcDbEntity
100
AcDbLine
  8
BLACK
 62
256
370
-1
  6
ByLayer
 10
4.4088000000000003
 20
0.7067
 30
0.0
 11
4.4126000000000003
 21
0.7048
 31
0.0
  0
LINE
  5
2B6
100
AcDbEntity
100
AcDbLine
  8
BLACK
 62
256
370
-1
  6
ByLayer
 10
4.4126000000000003
 20
0.7048
 30
0.0
 11
4.4145000000000003
 21
0.7029000000000001
 31
0.0
  0
LINE
  5
2B7
100
AcDbEntity
100
AcDbLine
  8
BLACK
 62
256
370
-1
  6
ByLayer
 10
4.4145000000000003
 20
0.7029000000000001
 30
0.0
 11
4.4164000000000003
 21
0.6990000000000001
 31
0.0
  0
LINE
  5
2B8
100
AcDbEntity
100
AcDbLine
  8
BLACK
 62
256
370
-1
  6
ByLayer
 10
4.4164000000000003
 20
0.6990000000000001
 30
0.0
 11
4.4164000000000003
 21
0.6914
 31
0.0
  0
LINE
  5
2B9
100
AcDbEntity
100
AcDbLine
  8
BLACK
 62
256
370
-1
  6
ByLayer
 10
4.4164000000000003
 20
0.6914
 30
0.0
 11
4.4145000000000003
 21
0.6876
 31
0.0
  0
LINE
  5
2BA
100
AcDbEntity
100
AcDbLine
  8
BLACK
 62
256
370
-1
  6
ByLayer
 10
4.4145000000000003
 20
0.6876
 30
0.0
 11
4.4126000000000003
 21
0.6857000000000001
 31
0.0
  0
LINE
  5
2BB
100
AcDbEntity
100
AcDbLine
  8
BLACK
 62
256
370
-1
  6
ByLayer
 10
4.4126000000000003
 20
0.6857000000000001
 30
0.0
 11
4.4088000000000003
 21
0.6838000000000001
 31
0.0
  0
LINE
  5
2BC
100
AcDbEntity
100
AcDbLine
  8
BLACK
 62
256
370
-1
  6
ByLayer
 10
4.4088000000000003
 20
0.6838000000000001
 30
0.0
 11
4.4011000000000005
 21
0.6838000000000001
 31
0.0
  0
LINE
  5
2BD
100
AcDbEntity
100
AcDbLine
  8
BLACK
 62
256
370
-1
  6
ByLayer
 10
4.4011000000000005
 20
0.6838000000000001
 30
0.0
 11
4.3973000000000004
 21
0.6857000000000001
 31
0.0
  0
LINE
  5
2BE
100
AcDbEntity
100
AcDbLine
  8
BLACK
 62
256
370
-1
  6
ByLayer
 10
4.3973000000000004
 20
0.6857000000000001
 30
0.0
 11
4.3954000000000004
 21
0.6876
 31
0.0
  0
LINE
  5
2BF
100
AcDbEntity
100
AcDbLine
  8
BLACK
 62
256
370
-1
  6
ByLayer
 10
4.3954000000000004
 20
0.6876
 30
0.0
 11
4.3935000000000004
 21
0.6914
 31
0.0
  0
LINE
  5
2C0
100
AcDbEntity
100
AcDbLine
  8
BLACK
 62
256
370
-1
  6
ByLayer
 10
4.3935000000000004
 20
0.6914
 30
0.0
 11
4.3935000000000004
 21
0.6990000000000001
 31
0.0
  0
LINE
  5
2C1
100
AcDbEntity
100
AcDbLine
  8
BLACK
 62
256
370
-1
  6
ByLayer
 10
4.3935000000000004
 20
0.6990000000000001
 30
0.0
 11
4.3954000000000004
 21
0.7029000000000001
 31
0.0
  0
LINE
  5
2C2
100
AcDbEntity
100
AcDbLine
  8
BLACK
 62
256
370
-1
  6
ByLayer
 10
4.3954000000000004
 20
0.7029000000000001
 30
0.0
 11
4.3973000000000004
 21
0.7048
 31
0.0
  0
LINE
  5
2C3
100
AcDbEntity
100
AcDbLine
  8
BLACK
 62
256
370
-1
  6
ByLayer
 10
4.3973000000000004
 20
0.7048
 30
0.0
 11
4.4011000000000005
 21
0.7067
 31
0.0
  0
LINE
  5
2C4
100
AcDbEntity
100
AcDbLine
  8
BLACK
 62
256
370
-1
  6
ByLayer
 10
4.4571000000000005
 20
0.4379
 30
0.0
 11
4.4743000000000004
 21
0.4379
 31
0.0
  0
LINE
  5
2C5
100
AcDbEntity
100
AcDbLine
  8
BLACK
 62
256
370
-1
  6
ByLayer
 10
4.4657
 20
0.4379
 30
0.0
 11
4.4657
 21
0.4679
 31
0.0
  0
LINE
  5
2C6
100
AcDbEntity
100
AcDbLine
  8
BLACK
 62
256
370
-1
  6
ByLayer
 10
4.4657
 20
0.4679
 30
0.0
 11
4.4686000000000003
 21
0.4636
 31
0.0
  0
LINE
  5
2C7
100
AcDbEntity
100
AcDbLine
  8
BLACK
 62
256
370
-1
  6
ByLayer
 10
4.4686000000000003
 20
0.4636
 30
0.0
 11
4.4714
 21
0.4607
 31
0.0
  0
LINE
  5
2C8
100
AcDbEntity
100
AcDbLine
  8
BLACK
 62
256
370
-1
  6
ByLayer
 10
4.4714
 20
0.4607
 30
0.0
 11
4.4743000000000004
 21
0.4593
 31
0.0
  0
LINE
  5
2C9
100
AcDbEntity
100
AcDbLine
  8
BLACK
 62
256
370
-1
  6
ByLayer
 10
4.4385000000000003
 20
0.4679
 30
0.0
 11
4.4357000000000006
 21
0.4679
 31
0.0
  0
LINE
  5
2CA
100
AcDbEntity
100
AcDbLine
  8
BLACK
 62
256
370
-1
  6
ByLayer
 10
4.4357000000000006
 20
0.4679
 30
0.0
 11
4.4328000000000003
 21
0.4664
 31
0.0
  0
LINE
  5
2CB
100
AcDbEntity
100
AcDbLine
  8
BLACK
 62
256
370
-1
  6
ByLayer
 10
4.4328000000000003
 20
0.4664
 30
0.0
 11
4.4314
 21
0.465
 31
0.0
  0
LINE
  5
2CC
100
AcDbEntity
100
AcDbLine
  8
BLACK
 62
256
370
-1
  6
ByLayer
 10
4.4314
 20
0.465
 30
0.0
 11
4.4300000000000006
 21
0.4621
 31
0.0
  0
LINE
  5
2CD
100
AcDbEntity
100
AcDbLine
  8
BLACK
 62
256
370
-1
  6
ByLayer
 10
4.4300000000000006
 20
0.4621
 30
0.0
 11
4.4285000000000005
 21
0.4564
 31
0.0
  0
LINE
  5
2CE
100
AcDbEntity
100
AcDbLine
  8
BLACK
 62
256
370
-1
  6
ByLayer
 10
4.4285000000000005
 20
0.4564
 30
0.0
 11
4.4285000000000005
 21
0.4493
 31
0.0
  0
LINE
  5
2CF
100
AcDbEntity
100
AcDbLine
  8
BLACK
 62
256
370
-1
  6
ByLayer
 10
4.4285000000000005
 20
0.4493
 30
0.0
 11
4.4300000000000006
 21
0.4436
 31
0.0
  0
LINE
  5
2D0
100
AcDbEntity
100
AcDbLine
  8
BLACK
 62
256
370
-1
  6
ByLayer
 10
4.4300000000000006
 20
0.4436
 30
0.0
 11
4.4314
 21
0.4407
 31
0.0
  0
LINE
  5
2D1
100
AcDbEntity
100
AcDbLine
  8
BLACK
 62
256
370
-1
  6
ByLayer
 10
4.4314
 20
0.4407
 30
0.0
 11
4.4328000000000003
 21
0.4393
 31
0.0
  0
LINE
  5
2D2
100
AcDbEntity
100
AcDbLine
  8
BLACK
 62
256
370
-1
  6
ByLayer
 10
4.4328000000000003
 20
0.4393
 30
0.0
 11
4.4357000000000006
 21
0.4379
 31
0.0
  0
LINE
  5
2D3
100
AcDbEntity
100
AcDbLine
  8
BLACK
 62
256
370
-1
  6
ByLayer
 10
4.4357000000000006
 20
0.4379
 30
0.0
 11
4.4385000000000003
 21
0.4379
 31
0.0
  0
LINE
  5
2D4
100
AcDbEntity
100
AcDbLine
  8
BLACK
 62
256
370
-1
  6
ByLayer
 10
4.4385000000000003
 20
0.4379
 30
0.0
 11
4.4413999999999998
 21
0.4393
 31
0.0
  0
LINE
  5
2D5
100
AcDbEntity
100
AcDbLine
  8
BLACK
 62
256
370
-1
  6
ByLayer
 10
4.4413999999999998
 20
0.4393
 30
0.0
 11
4.4428000000000001
 21
0.4407
 31
0.0
  0
LINE
  5
2D6
100
AcDbEntity
100
AcDbLine
  8
BLACK
 62
256
370
-1
  6
ByLayer
 10
4.4428000000000001
 20
0.4407
 30
0.0
 11
4.4443000000000001
 21
0.4436
 31
0.0
  0
LINE
  5
2D7
100
AcDbEntity
100
AcDbLine
  8
BLACK
 62
256
370
-1
  6
ByLayer
 10
4.4443000000000001
 20
0.4436
 30
0.0
 11
4.4457000000000004
 21
0.4493
 31
0.0
  0
LINE
  5
2D8
100
AcDbEntity
100
AcDbLine
  8
BLACK
 62
256
370
-1
  6
ByLayer
 10
4.4457000000000004
 20
0.4493
 30
0.0
 11
4.4457000000000004
 21
0.4564
 31
0.0
  0
LINE
  5
2D9
100
AcDbEntity
100
AcDbLine
  8
BLACK
 62
256
370
-1
  6
ByLayer
 10
4.4457000000000004
 20
0.4564
 30
0.0
 11
4.4443000000000001
 21
0.4621
 31
0.0
  0
LINE
  5
2DA
100
AcDbEntity
100
AcDbLine
  8
BLACK
 62
256
370
-1
  6
ByLayer
 10
4.4443000000000001
 20
0.4621
 30
0.0
 11
4.4428000000000001
 21
0.465
 31
0.0
  0
LINE
  5
2DB
100
AcDbEntity
100
AcDbLine
  8
BLACK
 62
256
370
-1
  6
ByLayer
 10
4.4428000000000001
 20
0.465
 30
0.0
 11
4.4413999999999998
 21
0.4664
 31
0.0
  0
LINE
  5
2DC
100
AcDbEntity
100
AcDbLine
  8
BLACK
 62
256
370
-1
  6
ByLayer
 10
4.4413999999999998
 20
0.4664
 30
0.0
 11
4.4385000000000003
 21
0.4679
 31
0.0
  0
LINE
  5
2DD
100
AcDbEntity
100
AcDbLine
  8
BLACK
 62
256
370
-1
  6
ByLayer
 10
4.4028
 20
0.4579
 30
0.0
 11
4.4028
 21
0.4379
 31
0.0
  0
LINE
  5
2DE
100
AcDbEntity
100
AcDbLine
  8
BLACK
 62
256
370
-1
  6
ByLayer
 10
4.4157000000000002
 20
0.4579
 30
0.0
 11
4.4157000000000002
 21
0.4421
 31
0.0
  0
LINE
  5
2DF
100
AcDbEntity
100
AcDbLine
  8
BLACK
 62
256
370
-1
  6
ByLayer
 10
4.4157000000000002
 20
0.4421
 30
0.0
 11
4.4142000000000001
 21
0.4393
 31
0.0
  0
LINE
  5
2E0
100
AcDbEntity
100
AcDbLine
  8
BLACK
 62
256
370
-1
  6
ByLayer
 10
4.4142000000000001
 20
0.4393
 30
0.0
 11
4.4114000000000004
 21
0.4379
 31
0.0
  0
LINE
  5
2E1
100
AcDbEntity
100
AcDbLine
  8
BLACK
 62
256
370
-1
  6
ByLayer
 10
4.4114000000000004
 20
0.4379
 30
0.0
 11
4.4070999999999998
 21
0.4379
 31
0.0
  0
LINE
  5
2E2
100
AcDbEntity
100
AcDbLine
  8
BLACK
 62
256
370
-1
  6
ByLayer
 10
4.4070999999999998
 20
0.4379
 30
0.0
 11
4.4042000000000003
 21
0.4393
 31
0.0
  0
LINE
  5
2E3
100
AcDbEntity
100
AcDbLine
  8
BLACK
 62
256
370
-1
  6
ByLayer
 10
4.4042000000000003
 20
0.4393
 30
0.0
 11
4.4028
 21
0.4407
 31
0.0
  0
LINE
  5
2E4
100
AcDbEntity
100
AcDbLine
  8
BLACK
 62
256
370
-1
  6
ByLayer
 10
4.3786000000000005
 20
0.4536
 30
0.0
 11
4.3886000000000003
 21
0.4536
 31
0.0
  0
LINE
  5
2E5
100
AcDbEntity
100
AcDbLine
  8
BLACK
 62
256
370
-1
  6
ByLayer
 10
4.3886000000000003
 20
0.4379
 30
0.0
 11
4.3886000000000003
 21
0.4679
 31
0.0
  0
LINE
  5
2E6
100
AcDbEntity
100
AcDbLine
  8
BLACK
 62
256
370
-1
  6
ByLayer
 10
4.3886000000000003
 20
0.4679
 30
0.0
 11
4.3742999999999999
 21
0.4679
 31
0.0
  0
LINE
  5
2E7
100
AcDbEntity
100
AcDbLine
  8
BLACK
 62
256
370
-1
  6
ByLayer
 10
0.7816000000000001
 20
0.1876
 30
0.0
 11
0.7835000000000001
 21
0.1857
 31
0.0
  0
LINE
  5
2E8
100
AcDbEntity
100
AcDbLine
  8
BLACK
 62
256
370
-1
  6
ByLayer
 10
0.7835000000000001
 20
0.1857
 30
0.0
 11
0.7892
 21
0.1838
 31
0.0
  0
LINE
  5
2E9
100
AcDbEntity
100
AcDbLine
  8
BLACK
 62
256
370
-1
  6
ByLayer
 10
0.7892
 20
0.1838
 30
0.0
 11
0.793
 21
0.1838
 31
0.0
  0
LINE
  5
2EA
100
AcDbEntity
100
AcDbLine
  8
BLACK
 62
256
370
-1
  6
ByLayer
 10
0.793
 20
0.1838
 30
0.0
 11
0.7988000000000001
 21
0.1857
 31
0.0
  0
LINE
  5
2EB
100
AcDbEntity
100
AcDbLine
  8
BLACK
 62
256
370
-1
  6
ByLayer
 10
0.7988000000000001
 20
0.1857
 30
0.0
 11
0.8026000000000001
 21
0.1895
 31
0.0
  0
LINE
  5
2EC
100
AcDbEntity
100
AcDbLine
  8
BLACK
 62
256
370
-1
  6
ByLayer
 10
0.8026000000000001
 20
0.1895
 30
0.0
 11
0.8045
 21
0.1933
 31
0.0
  0
LINE
  5
2ED
100
AcDbEntity
100
AcDbLine
  8
BLACK
 62
256
370
-1
  6
ByLayer
 10
0.8045
 20
0.1933
 30
0.0
 11
0.8064
 21
0.201
 31
0.0
  0
LINE
  5
2EE
100
AcDbEntity
100
AcDbLine
  8
BLACK
 62
256
370
-1
  6
ByLayer
 10
0.8064
 20
0.201
 30
0.0
 11
0.8064
 21
0.2067
 31
0.0
  0
LINE
  5
2EF
100
AcDbEntity
100
AcDbLine
  8
BLACK
 62
256
370
-1
  6
ByLayer
 10
0.8064
 20
0.2067
 30
0.0
 11
0.8045
 21
0.2143
 31
0.0
  0
LINE
  5
2F0
100
AcDbEntity
100
AcDbLine
  8
BLACK
 62
256
370
-1
  6
ByLayer
 10
0.8045
 20
0.2143
 30
0.0
 11
0.8026000000000001
 21
0.2181
 31
0.0
  0
LINE
  5
2F1
100
AcDbEntity
100
AcDbLine
  8
BLACK
 62
256
370
-1
  6
ByLayer
 10
0.8026000000000001
 20
0.2181
 30
0.0
 11
0.7988000000000001
 21
0.2219
 31
0.0
  0
LINE
  5
2F2
100
AcDbEntity
100
AcDbLine
  8
BLACK
 62
256
370
-1
  6
ByLayer
 10
0.7988000000000001
 20
0.2219
 30
0.0
 11
0.793
 21
0.2238
 31
0.0
  0
LINE
  5
2F3
100
AcDbEntity
100
AcDbLine
  8
BLACK
 62
256
370
-1
  6
ByLayer
 10
0.793
 20
0.2238
 30
0.0
 11
0.7892
 21
0.2238
 31
0.0
  0
LINE
  5
2F4
100
AcDbEntity
100
AcDbLine
  8
BLACK
 62
256
370
-1
  6
ByLayer
 10
0.7892
 20
0.2238
 30
0.0
 11
0.7835000000000001
 21
0.2219
 31
0.0
  0
LINE
  5
2F5
100
AcDbEntity
100
AcDbLine
  8
BLACK
 62
256
370
-1
  6
ByLayer
 10
0.7835000000000001
 20
0.2219
 30
0.0
 11
0.7816000000000001
 21
0.22
 31
0.0
  0
LINE
  5
2F6
100
AcDbEntity
100
AcDbLine
  8
BLACK
 62
256
370
-1
  6
ByLayer
 10
0.7626000000000001
 20
0.1838
 30
0.0
 11
0.755
 21
0.1838
 31
0.0
  0
LINE
  5
2F7
100
AcDbEntity
100
AcDbLine
  8
BLACK
 62
256
370
-1
  6
ByLayer
 10
0.755
 20
0.1838
 30
0.0
 11
0.7511
 21
0.1857
 31
0.0
  0
LINE
  5
2F8
100
AcDbEntity
100
AcDbLine
  8
BLACK
 62
256
370
-1
  6
ByLayer
 10
0.7511
 20
0.1857
 30
0.0
 11
0.7492000000000001
 21
0.1876
 31
0.0
  0
LINE
  5
2F9
100
AcDbEntity
100
AcDbLine
  8
BLACK
 62
256
370
-1
  6
ByLayer
 10
0.7492000000000001
 20
0.1876
 30
0.0
 11
0.7454000000000001
 21
0.1933
 31
0.0
  0
LINE
  5
2FA
100
AcDbEntity
100
AcDbLine
  8
BLACK
 62
256
370
-1
  6
ByLayer
 10
0.7454000000000001
 20
0.1933
 30
0.0
 11
0.7435
 21
0.201
 31
0.0
  0
LINE
  5
2FB
100
AcDbEntity
100
AcDbLine
  8
BLACK
 62
256
370
-1
  6
ByLayer
 10
0.7435
 20
0.201
 30
0.0
 11
0.7435
 21
0.2162
 31
0.0
  0
LINE
  5
2FC
100
AcDbEntity
100
AcDbLine
  8
BLACK
 62
256
370
-1
  6
ByLayer
 10
0.7435
 20
0.2162
 30
0.0
 11
0.7454000000000001
 21
0.22
 31
0.0
  0
LINE
  5
2FD
100
AcDbEntity
100
AcDbLine
  8
BLACK
 62
256
370
-1
  6
ByLayer
 10
0.7454000000000001
 20
0.22
 30
0.0
 11
0.7473000000000001
 21
0.2219
 31
0.0
  0
LINE
  5
2FE
100
AcDbEntity
100
AcDbLine
  8
BLACK
 62
256
370
-1
  6
ByLayer
 10
0.7473000000000001
 20
0.2219
 30
0.0
 11
0.7511
 21
0.2238
 31
0.0
  0
LINE
  5
2FF
100
AcDbEntity
100
AcDbLine
  8
BLACK
 62
256
370
-1
  6
ByLayer
 10
0.7511
 20
0.2238
 30
0.0
 11
0.7588
 21
0.2238
 31
0.0
  0
LINE
  5
300
100
AcDbEntity
100
AcDbLine
  8
BLACK
 62
256
370
-1
  6
ByLayer
 10
0.7588
 20
0.2238
 30
0.0
 11
0.7626000000000001
 21
0.2219
 31
0.0
  0
LINE
  5
301
100
AcDbEntity
100
AcDbLine
  8
BLACK
 62
256
370
-1
  6
ByLayer
 10
0.7626000000000001
 20
0.2219
 30
0.0
 11
0.7645000000000001
 21
0.22
 31
0.0
  0
LINE
  5
302
100
AcDbEntity
100
AcDbLine
  8
BLACK
 62
256
370
-1
  6
ByLayer
 10
0.7645000000000001
 20
0.22
 30
0.0
 11
0.7664000000000001
 21
0.2162
 31
0.0
  0
LINE
  5
303
100
AcDbEntity
100
AcDbLine
  8
BLACK
 62
256
370
-1
  6
ByLayer
 10
0.7664000000000001
 20
0.2162
 30
0.0
 11
0.7664000000000001
 21
0.2067
 31
0.0
  0
LINE
  5
304
100
AcDbEntity
100
AcDbLine
  8
BLACK
 62
256
370
-1
  6
ByLayer
 10
0.7664000000000001
 20
0.2067
 30
0.0
 11
0.7645000000000001
 21
0.2029
 31
0.0
  0
LINE
  5
305
100
AcDbEntity
100
AcDbLine
  8
BLACK
 62
256
370
-1
  6
ByLayer
 10
0.7645000000000001
 20
0.2029
 30
0.0
 11
0.7626000000000001
 21
0.201
 31
0.0
  0
LINE
  5
306
100
AcDbEntity
100
AcDbLine
  8
BLACK
 62
256
370
-1
  6
ByLayer
 10
0.7626000000000001
 20
0.201
 30
0.0
 11
0.7588
 21
0.199
 31
0.0
  0
LINE
  5
307
100
AcDbEntity
100
AcDbLine
  8
BLACK
 62
256
370
-1
  6
ByLayer
 10
0.7588
 20
0.199
 30
0.0
 11
0.7511
 21
0.199
 31
0.0
  0
LINE
  5
308
100
AcDbEntity
100
AcDbLine
  8
BLACK
 62
256
370
-1
  6
ByLayer
 10
0.7511
 20
0.199
 30
0.0
 11
0.7473000000000001
 21
0.201
 31
0.0
  0
LINE
  5
309
100
AcDbEntity
100
AcDbLine
  8
BLACK
 62
256
370
-1
  6
ByLayer
 10
0.7473000000000001
 20
0.201
 30
0.0
 11
0.7454000000000001
 21
0.2029
 31
0.0
  0
LINE
  5
30A
100
AcDbEntity
100
AcDbLine
  8
BLACK
 62
256
370
-1
  6
ByLayer
 10
0.7454000000000001
 20
0.2029
 30
0.0
 11
0.7435
 21
0.2067
 31
0.0
  0
LINE
  5
30B
100
AcDbEntity
100
AcDbLine
  8
BLACK
 62
256
370
-1
  6
ByLayer
 10
0.7121000000000001
 20
0.3428
 30
0.0
 11
0.7121000000000001
 21
0.36
 31
0.0
  0
LINE
  5
30C
100
AcDbEntity
100
AcDbLine
  8
BLACK
 62
256
370
-1
  6
ByLayer
 10
0.7121000000000001
 20
0.3514
 30
0.0
 11
0.6821
 21
0.3514
 31
0.0
  0
LINE
  5
30D
100
AcDbEntity
100
AcDbLine
  8
BLACK
 62
256
370
-1
  6
ByLayer
 10
0.6821
 20
0.3514
 30
0.0
 11
0.6864
 21
0.3543
 31
0.0
  0
LINE
  5
30E
100
AcDbEntity
100
AcDbLine
  8
BLACK
 62
256
370
-1
  6
ByLayer
 10
0.6864
 20
0.3543
 30
0.0
 11
0.6893
 21
0.3571
 31
0.0
  0
LINE
  5
30F
100
AcDbEntity
100
AcDbLine
  8
BLACK
 62
256
370
-1
  6
ByLayer
 10
0.6893
 20
0.3571
 30
0.0
 11
0.6907
 21
0.36
 31
0.0
  0
LINE
  5
310
100
AcDbEntity
100
AcDbLine
  8
BLACK
 62
256
370
-1
  6
ByLayer
 10
0.6921
 20
0.3171
 30
0.0
 11
0.7121000000000001
 21
0.3171
 31
0.0
  0
LINE
  5
311
100
AcDbEntity
100
AcDbLine
  8
BLACK
 62
256
370
-1
  6
ByLayer
 10
0.6921
 20
0.33
 30
0.0
 11
0.7079000000000001
 21
0.33
 31
0.0
  0
LINE
  5
312
100
AcDbEntity
100
AcDbLine
  8
BLACK
 62
256
370
-1
  6
ByLayer
 10
0.7079000000000001
 20
0.33
 30
0.0
 11
0.7107
 21
0.3285
 31
0.0
  0
LINE
  5
313
100
AcDbEntity
100
AcDbLine
  8
BLACK
 62
256
370
-1
  6
ByLayer
 10
0.7107
 20
0.3285
 30
0.0
 11
0.7121000000000001
 21
0.3257
 31
0.0
  0
LINE
  5
314
100
AcDbEntity
100
AcDbLine
  8
BLACK
 62
256
370
-1
  6
ByLayer
 10
0.7121000000000001
 20
0.3257
 30
0.0
 11
0.7121000000000001
 21
0.3214
 31
0.0
  0
LINE
  5
315
100
AcDbEntity
100
AcDbLine
  8
BLACK
 62
256
370
-1
  6
ByLayer
 10
0.7121000000000001
 20
0.3214
 30
0.0
 11
0.7107
 21
0.3185
 31
0.0
  0
LINE
  5
316
100
AcDbEntity
100
AcDbLine
  8
BLACK
 62
256
370
-1
  6
ByLayer
 10
0.7107
 20
0.3185
 30
0.0
 11
0.7093
 21
0.3171
 31
0.0
  0
LINE
  5
317
100
AcDbEntity
100
AcDbLine
  8
BLACK
 62
256
370
-1
  6
ByLayer
 10
0.6964
 20
0.2929
 30
0.0
 11
0.6964
 21
0.3029
 31
0.0
  0
LINE
  5
318
100
AcDbEntity
100
AcDbLine
  8
BLACK
 62
256
370
-1
  6
ByLayer
 10
0.7121000000000001
 20
0.3029
 30
0.0
 11
0.6821
 21
0.3029
 31
0.0
  0
LINE
  5
319
100
AcDbEntity
100
AcDbLine
  8
BLACK
 62
256
370
-1
  6
ByLayer
 10
0.6821
 20
0.3029
 30
0.0
 11
0.6821
 21
0.2886
 31
0.0
  0
LINE
  5
31A
100
AcDbEntity
100
AcDbLine
  8
BLACK
 62
256
370
-1
  6
ByLayer
 10
0.8007000000000001
 20
0.6876
 30
0.0
 11
0.8026000000000001
 21
0.6857000000000001
 31
0.0
  0
LINE
  5
31B
100
AcDbEntity
100
AcDbLine
  8
BLACK
 62
256
370
-1
  6
ByLayer
 10
0.8026000000000001
 20
0.6857000000000001
 30
0.0
 11
0.8083
 21
0.6838000000000001
 31
0.0
  0
LINE
  5
31C
100
AcDbEntity
100
AcDbLine
  8
BLACK
 62
256
370
-1
  6
ByLayer
 10
0.8083
 20
0.6838000000000001
 30
0.0
 11
0.8121
 21
0.6838000000000001
 31
0.0
  0
LINE
  5
31D
100
AcDbEntity
100
AcDbLine
  8
BLACK
 62
256
370
-1
  6
ByLayer
 10
0.8121
 20
0.6838000000000001
 30
0.0
 11
0.8179000000000001
 21
0.6857000000000001
 31
0.0
  0
LINE
  5
31E
100
AcDbEntity
100
AcDbLine
  8
BLACK
 62
256
370
-1
  6
ByLayer
 10
0.8179000000000001
 20
0.6857000000000001
 30
0.0
 11
0.8217
 21
0.6895
 31
0.0
  0
LINE
  5
31F
100
AcDbEntity
100
AcDbLine
  8
BLACK
 62
256
370
-1
  6
ByLayer
 10
0.8217
 20
0.6895
 30
0.0
 11
0.8236
 21
0.6933
 31
0.0
  0
LINE
  5
320
100
AcDbEntity
100
AcDbLine
  8
BLACK
 62
256
370
-1
  6
ByLayer
 10
0.8236
 20
0.6933
 30
0.0
 11
0.8255
 21
0.7010000000000001
 31
0.0
  0
LINE
  5
321
100
AcDbEntity
100
AcDbLine
  8
BLACK
 62
256
370
-1
  6
ByLayer
 10
0.8255
 20
0.7010000000000001
 30
0.0
 11
0.8255
 21
0.7067
 31
0.0
  0
LINE
  5
322
100
AcDbEntity
100
AcDbLine
  8
BLACK
 62
256
370
-1
  6
ByLayer
 10
0.8255
 20
0.7067
 30
0.0
 11
0.8236
 21
0.7143
 31
0.0
  0
LINE
  5
323
100
AcDbEntity
100
AcDbLine
  8
BLACK
 62
256
370
-1
  6
ByLayer
 10
0.8236
 20
0.7143
 30
0.0
 11
0.8217
 21
0.7181000000000001
 31
0.0
  0
LINE
  5
324
100
AcDbEntity
100
AcDbLine
  8
BLACK
 62
256
370
-1
  6
ByLayer
 10
0.8217
 20
0.7181000000000001
 30
0.0
 11
0.8179000000000001
 21
0.7219
 31
0.0
  0
LINE
  5
325
100
AcDbEntity
100
AcDbLine
  8
BLACK
 62
256
370
-1
  6
ByLayer
 10
0.8179000000000001
 20
0.7219
 30
0.0
 11
0.8121
 21
0.7238
 31
0.0
  0
LINE
  5
326
100
AcDbEntity
100
AcDbLine
  8
BLACK
 62
256
370
-1
  6
ByLayer
 10
0.8121
 20
0.7238
 30
0.0
 11
0.8083
 21
0.7238
 31
0.0
  0
LINE
  5
327
100
AcDbEntity
100
AcDbLine
  8
BLACK
 62
256
370
-1
  6
ByLayer
 10
0.8083
 20
0.7238
 30
0.0
 11
0.8026000000000001
 21
0.7219
 31
0.0
  0
LINE
  5
328
100
AcDbEntity
100
AcDbLine
  8
BLACK
 62
256
370
-1
  6
ByLayer
 10
0.8026000000000001
 20
0.7219
 30
0.0
 11
0.8007000000000001
 21
0.7200000000000001
 31
0.0
  0
LINE
  5
329
100
AcDbEntity
100
AcDbLine
  8
BLACK
 62
256
370
-1
  6
ByLayer
 10
0.7626000000000001
 20
0.6838000000000001
 30
0.0
 11
0.7855000000000001
 21
0.6838000000000001
 31
0.0
  0
LINE
  5
32A
100
AcDbEntity
100
AcDbLine
  8
BLACK
 62
256
370
-1
  6
ByLayer
 10
0.7741
 20
0.6838000000000001
 30
0.0
 11
0.7741
 21
0.7238
 31
0.0
  0
LINE
  5
32B
100
AcDbEntity
100
AcDbLine
  8
BLACK
 62
256
370
-1
  6
ByLayer
 10
0.7741
 20
0.7238
 30
0.0
 11
0.7779
 21
0.7181000000000001
 31
0.0
  0
LINE
  5
32C
100
AcDbEntity
100
AcDbLine
  8
BLACK
 62
256
370
-1
  6
ByLayer
 10
0.7779
 20
0.7181000000000001
 30
0.0
 11
0.7817000000000001
 21
0.7143
 31
0.0
  0
LINE
  5
32D
100
AcDbEntity
100
AcDbLine
  8
BLACK
 62
256
370
-1
  6
ByLayer
 10
0.7817000000000001
 20
0.7143
 30
0.0
 11
0.7855000000000001
 21
0.7124
 31
0.0
  0
LINE
  5
32E
100
AcDbEntity
100
AcDbLine
  8
BLACK
 62
256
370
-1
  6
ByLayer
 10
0.7379
 20
0.7238
 30
0.0
 11
0.734
 21
0.7238
 31
0.0
  0
LINE
  5
32F
100
AcDbEntity
100
AcDbLine
  8
BLACK
 62
256
370
-1
  6
ByLayer
 10
0.734
 20
0.7238
 30
0.0
 11
0.7302000000000001
 21
0.7219
 31
0.0
  0
LINE
  5
330
100
AcDbEntity
100
AcDbLine
  8
BLACK
 62
256
370
-1
  6
ByLayer
 10
0.7302000000000001
 20
0.7219
 30
0.0
 11
0.7283000000000001
 21
0.7200000000000001
 31
0.0
  0
LINE
  5
331
100
AcDbEntity
100
AcDbLine
  8
BLACK
 62
256
370
-1
  6
ByLayer
 10
0.7283000000000001
 20
0.7200000000000001
 30
0.0
 11
0.7264
 21
0.7162000000000001
 31
0.0
  0
LINE
  5
332
100
AcDbEntity
100
AcDbLine
  8
BLACK
 62
256
370
-1
  6
ByLayer
 10
0.7264
 20
0.7162000000000001
 30
0.0
 11
0.7245
 21
0.7086
 31
0.0
  0
LINE
  5
333
100
AcDbEntity
100
AcDbLine
  8
BLACK
 62
256
370
-1
  6
ByLayer
 10
0.7245
 20
0.7086
 30
0.0
 11
0.7245
 21
0.6990000000000001
 31
0.0
  0
LINE
  5
334
100
AcDbEntity
100
AcDbLine
  8
BLACK
 62
256
370
-1
  6
ByLayer
 10
0.7245
 20
0.6990000000000001
 30
0.0
 11
0.7264
 21
0.6914
 31
0.0
  0
LINE
  5
335
100
AcDbEntity
100
AcDbLine
  8
BLACK
 62
256
370
-1
  6
ByLayer
 10
0.7264
 20
0.6914
 30
0.0
 11
0.7283000000000001
 21
0.6876
 31
0.0
  0
LINE
  5
336
100
AcDbEntity
100
AcDbLine
  8
BLACK
 62
256
370
-1
  6
ByLayer
 10
0.7283000000000001
 20
0.6876
 30
0.0
 11
0.7302000000000001
 21
0.6857000000000001
 31
0.0
  0
LINE
  5
337
100
AcDbEntity
100
AcDbLine
  8
BLACK
 62
256
370
-1
  6
ByLayer
 10
0.7302000000000001
 20
0.6857000000000001
 30
0.0
 11
0.734
 21
0.6838000000000001
 31
0.0
  0
LINE
  5
338
100
AcDbEntity
100
AcDbLine
  8
BLACK
 62
256
370
-1
  6
ByLayer
 10
0.734
 20
0.6838000000000001
 30
0.0
 11
0.7379
 21
0.6838000000000001
 31
0.0
  0
LINE
  5
339
100
AcDbEntity
100
AcDbLine
  8
BLACK
 62
256
370
-1
  6
ByLayer
 10
0.7379
 20
0.6838000000000001
 30
0.0
 11
0.7417
 21
0.6857000000000001
 31
0.0
  0
LINE
  5
33A
100
AcDbEntity
100
AcDbLine
  8
BLACK
 62
256
370
-1
  6
ByLayer
 10
0.7417
 20
0.6857000000000001
 30
0.0
 11
0.7436
 21
0.6876
 31
0.0
  0
LINE
  5
33B
100
AcDbEntity
100
AcDbLine
  8
BLACK
 62
256
370
-1
  6
ByLayer
 10
0.7436
 20
0.6876
 30
0.0
 11
0.7455000000000001
 21
0.6914
 31
0.0
  0
LINE
  5
33C
100
AcDbEntity
100
AcDbLine
  8
BLACK
 62
256
370
-1
  6
ByLayer
 10
0.7455000000000001
 20
0.6914
 30
0.0
 11
0.7474000000000001
 21
0.6990000000000001
 31
0.0
  0
LINE
  5
33D
100
AcDbEntity
100
AcDbLine
  8
BLACK
 62
256
370
-1
  6
ByLayer
 10
0.7474000000000001
 20
0.6990000000000001
 30
0.0
 11
0.7474000000000001
 21
0.7086
 31
0.0
  0
LINE
  5
33E
100
AcDbEntity
100
AcDbLine
  8
BLACK
 62
256
370
-1
  6
ByLayer
 10
0.7474000000000001
 20
0.7086
 30
0.0
 11
0.7455000000000001
 21
0.7162000000000001
 31
0.0
  0
LINE
  5
33F
100
AcDbEntity
100
AcDbLine
  8
BLACK
 62
256
370
-1
  6
ByLayer
 10
0.7455000000000001
 20
0.7162000000000001
 30
0.0
 11
0.7436
 21
0.7200000000000001
 31
0.0
  0
LINE
  5
340
100
AcDbEntity
100
AcDbLine
  8
BLACK
 62
256
370
-1
  6
ByLayer
 10
0.7436
 20
0.7200000000000001
 30
0.0
 11
0.7417
 21
0.7219
 31
0.0
  0
LINE
  5
341
100
AcDbEntity
100
AcDbLine
  8
BLACK
 62
256
370
-1
  6
ByLayer
 10
0.7417
 20
0.7219
 30
0.0
 11
0.7379
 21
0.7238
 31
0.0
  0
LINE
  5
342
100
AcDbEntity
100
AcDbLine
  8
BLACK
 62
256
370
-1
  6
ByLayer
 10
0.7121000000000001
 20
0.5928
 30
0.0
 11
0.7121000000000001
 21
0.61
 31
0.0
  0
LINE
  5
343
100
AcDbEntity
100
AcDbLine
  8
BLACK
 62
256
370
-1
  6
ByLayer
 10
0.7121000000000001
 20
0.6014
 30
0.0
 11
0.6821
 21
0.6014
 31
0.0
  0
LINE
  5
344
100
AcDbEntity
100
AcDbLine
  8
BLACK
 62
256
370
-1
  6
ByLayer
 10
0.6821
 20
0.6014
 30
0.0
 11
0.6864
 21
0.6043000000000001
 31
0.0
  0
LINE
  5
345
100
AcDbEntity
100
AcDbLine
  8
BLACK
 62
256
370
-1
  6
ByLayer
 10
0.6864
 20
0.6043000000000001
 30
0.0
 11
0.6893
 21
0.6071000000000001
 31
0.0
  0
LINE
  5
346
100
AcDbEntity
100
AcDbLine
  8
BLACK
 62
256
370
-1
  6
ByLayer
 10
0.6893
 20
0.6071000000000001
 30
0.0
 11
0.6907
 21
0.61
 31
0.0
  0
LINE
  5
347
100
AcDbEntity
100
AcDbLine
  8
BLACK
 62
256
370
-1
  6
ByLayer
 10
0.6921
 20
0.5671
 30
0.0
 11
0.7121000000000001
 21
0.5671
 31
0.0
  0
LINE
  5
348
100
AcDbEntity
100
AcDbLine
  8
BLACK
 62
256
370
-1
  6
ByLayer
 10
0.6921
 20
0.5800000000000001
 30
0.0
 11
0.7079000000000001
 21
0.5800000000000001
 31
0.0
  0
LINE
  5
349
100
AcDbEntity
100
AcDbLine
  8
BLACK
 62
256
370
-1
  6
ByLayer
 10
0.7079000000000001
 20
0.5800000000000001
 30
0.0
 11
0.7107
 21
0.5785
 31
0.0
  0
LINE
  5
34A
100
AcDbEntity
100
AcDbLine
  8
BLACK
 62
256
370
-1
  6
ByLayer
 10
0.7107
 20
0.5785
 30
0.0
 11
0.7121000000000001
 21
0.5757
 31
0.0
  0
LINE
  5
34B
100
AcDbEntity
100
AcDbLine
  8
BLACK
 62
256
370
-1
  6
ByLayer
 10
0.7121000000000001
 20
0.5757
 30
0.0
 11
0.7121000000000001
 21
0.5714
 31
0.0
  0
LINE
  5
34C
100
AcDbEntity
100
AcDbLine
  8
BLACK
 62
256
370
-1
  6
ByLayer
 10
0.7121000000000001
 20
0.5714
 30
0.0
 11
0.7107
 21
0.5685
 31
0.0
  0
LINE
  5
34D
100
AcDbEntity
100
AcDbLine
  8
BLACK
 62
256
370
-1
  6
ByLayer
 10
0.7107
 20
0.5685
 30
0.0
 11
0.7093
 21
0.5671
 31
0.0
  0
LINE
  5
34E
100
AcDbEntity
100
AcDbLine
  8
BLACK
 62
256
370
-1
  6
ByLayer
 10
0.6964
 20
0.5429
 30
0.0
 11
0.6964
 21
0.5529000000000001
 31
0.0
  0
LINE
  5
34F
100
AcDbEntity
100
AcDbLine
  8
BLACK
 62
256
370
-1
  6
ByLayer
 10
0.7121000000000001
 20
0.5529000000000001
 30
0.0
 11
0.6821
 21
0.5529000000000001
 31
0.0
  0
LINE
  5
350
100
AcDbEntity
100
AcDbLine
  8
BLACK
 62
256
370
-1
  6
ByLayer
 10
0.6821
 20
0.5529000000000001
 30
0.0
 11
0.6821
 21
0.5386000000000001
 31
0.0
  0
LINE
  5
351
100
AcDbEntity
100
AcDbLine
  8
BLACK
 62
256
370
-1
  6
ByLayer
 10
0.6512
 20
1.6236000000000002
 30
0.0
 11
0.6112000000000001
 21
1.6236000000000002
 31
0.0
  0
LINE
  5
352
100
AcDbEntity
100
AcDbLine
  8
BLACK
 62
256
370
-1
  6
ByLayer
 10
0.6112000000000001
 20
1.6236000000000002
 30
0.0
 11
0.6112000000000001
 21
1.6141000000000001
 31
0.0
  0
LINE
  5
353
100
AcDbEntity
100
AcDbLine
  8
BLACK
 62
256
370
-1
  6
ByLayer
 10
0.6112000000000001
 20
1.6141000000000001
 30
0.0
 11
0.6131
 21
1.6083000000000001
 31
0.0
  0
LINE
  5
354
100
AcDbEntity
100
AcDbLine
  8
BLACK
 62
256
370
-1
  6
ByLayer
 10
0.6131
 20
1.6083000000000001
 30
0.0
 11
0.6169
 21
1.6045
 31
0.0
  0
LINE
  5
355
100
AcDbEntity
100
AcDbLine
  8
BLACK
 62
256
370
-1
  6
ByLayer
 10
0.6169
 20
1.6045
 30
0.0
 11
0.6207
 21
1.6026
 31
0.0
  0
LINE
  5
356
100
AcDbEntity
100
AcDbLine
  8
BLACK
 62
256
370
-1
  6
ByLayer
 10
0.6207
 20
1.6026
 30
0.0
 11
0.6283000000000001
 21
1.6007
 31
0.0
  0
LINE
  5
357
100
AcDbEntity
100
AcDbLine
  8
BLACK
 62
256
370
-1
  6
ByLayer
 10
0.6283000000000001
 20
1.6007
 30
0.0
 11
0.634
 21
1.6007
 31
0.0
  0
LINE
  5
358
100
AcDbEntity
100
AcDbLine
  8
BLACK
 62
256
370
-1
  6
ByLayer
 10
0.634
 20
1.6007
 30
0.0
 11
0.6417
 21
1.6026
 31
0.0
  0
LINE
  5
359
100
AcDbEntity
100
AcDbLine
  8
BLACK
 62
256
370
-1
  6
ByLayer
 10
0.6417
 20
1.6026
 30
0.0
 11
0.6455000000000001
 21
1.6045
 31
0.0
  0
LINE
  5
35A
100
AcDbEntity
100
AcDbLine
  8
BLACK
 62
256
370
-1
  6
ByLayer
 10
0.6455000000000001
 20
1.6045
 30
0.0
 11
0.6493
 21
1.6083000000000001
 31
0.0
  0
LINE
  5
35B
100
AcDbEntity
100
AcDbLine
  8
BLACK
 62
256
370
-1
  6
ByLayer
 10
0.6493
 20
1.6083000000000001
 30
0.0
 11
0.6512
 21
1.6141000000000001
 31
0.0
  0
LINE
  5
35C
100
AcDbEntity
100
AcDbLine
  8
BLACK
 62
256
370
-1
  6
ByLayer
 10
0.6512
 20
1.6141000000000001
 30
0.0
 11
0.6512
 21
1.6236000000000002
 31
0.0
  0
LINE
  5
35D
100
AcDbEntity
100
AcDbLine
  8
BLACK
 62
256
370
-1
  6
ByLayer
 10
0.6512
 20
1.5626
 30
0.0
 11
0.6512
 21
1.5855000000000001
 31
0.0
  0
LINE
  5
35E
100
AcDbEntity
100
AcDbLine
  8
BLACK
 62
256
370
-1
  6
ByLayer
 10
0.6512
 20
1.5741000000000001
 30
0.0
 11
0.6112000000000001
 21
1.5741000000000001
 31
0.0
  0
LINE
  5
35F
100
AcDbEntity
100
AcDbLine
  8
BLACK
 62
256
370
-1
  6
ByLayer
 10
0.6112000000000001
 20
1.5741000000000001
 30
0.0
 11
0.6169
 21
1.5779000000000001
 31
0.0
  0
LINE
  5
360
100
AcDbEntity
100
AcDbLine
  8
BLACK
 62
256
370
-1
  6
ByLayer
 10
0.6169
 20
1.5779000000000001
 30
0.0
 11
0.6207
 21
1.5817000000000001
 31
0.0
  0
LINE
  5
361
100
AcDbEntity
100
AcDbLine
  8
BLACK
 62
256
370
-1
  6
ByLayer
 10
0.6207
 20
1.5817000000000001
 30
0.0
 11
0.6226
 21
1.5855000000000001
 31
0.0
  0
LINE
  5
362
100
AcDbEntity
100
AcDbLine
  8
BLACK
 62
256
370
-1
  6
ByLayer
 10
0.6112000000000001
 20
1.5379
 30
0.0
 11
0.6112000000000001
 21
1.534
 31
0.0
  0
LINE
  5
363
100
AcDbEntity
100
AcDbLine
  8
BLACK
 62
256
370
-1
  6
ByLayer
 10
0.6112000000000001
 20
1.534
 30
0.0
 11
0.6131
 21
1.5302
 31
0.0
  0
LINE
  5
364
100
AcDbEntity
100
AcDbLine
  8
BLACK
 62
256
370
-1
  6
ByLayer
 10
0.6131
 20
1.5302
 30
0.0
 11
0.615
 21
1.5283
 31
0.0
  0
LINE
  5
365
100
AcDbEntity
100
AcDbLine
  8
BLACK
 62
256
370
-1
  6
ByLayer
 10
0.615
 20
1.5283
 30
0.0
 11
0.6188
 21
1.5264
 31
0.0
  0
LINE
  5
366
100
AcDbEntity
100
AcDbLine
  8
BLACK
 62
256
370
-1
  6
ByLayer
 10
0.6188
 20
1.5264
 30
0.0
 11
0.6264000000000001
 21
1.5245
 31
0.0
  0
LINE
  5
367
100
AcDbEntity
100
AcDbLine
  8
BLACK
 62
256
370
-1
  6
ByLayer
 10
0.6264000000000001
 20
1.5245
 30
0.0
 11
0.636
 21
1.5245
 31
0.0
  0
LINE
  5
368
100
AcDbEntity
100
AcDbLine
  8
BLACK
 62
256
370
-1
  6
ByLayer
 10
0.636
 20
1.5245
 30
0.0
 11
0.6436000000000001
 21
1.5264
 31
0.0
  0
LINE
  5
369
100
AcDbEntity
100
AcDbLine
  8
BLACK
 62
256
370
-1
  6
ByLayer
 10
0.6436000000000001
 20
1.5264
 30
0.0
 11
0.6474000000000001
 21
1.5283
 31
0.0
  0
LINE
  5
36A
100
AcDbEntity
100
AcDbLine
  8
BLACK
 62
256
370
-1
  6
ByLayer
 10
0.6474000000000001
 20
1.5283
 30
0.0
 11
0.6493
 21
1.5302
 31
0.0
  0
LINE
  5
36B
100
AcDbEntity
100
AcDbLine
  8
BLACK
 62
256
370
-1
  6
ByLayer
 10
0.6493
 20
1.5302
 30
0.0
 11
0.6512
 21
1.534
 31
0.0
  0
LINE
  5
36C
100
AcDbEntity
100
AcDbLine
  8
BLACK
 62
256
370
-1
  6
ByLayer
 10
0.6512
 20
1.534
 30
0.0
 11
0.6512
 21
1.5379
 31
0.0
  0
LINE
  5
36D
100
AcDbEntity
100
AcDbLine
  8
BLACK
 62
256
370
-1
  6
ByLayer
 10
0.6512
 20
1.5379
 30
0.0
 11
0.6493
 21
1.5417000000000001
 31
0.0
  0
LINE
  5
36E
100
AcDbEntity
100
AcDbLine
  8
BLACK
 62
256
370
-1
  6
ByLayer
 10
0.6493
 20
1.5417000000000001
 30
0.0
 11
0.6474000000000001
 21
1.5436000000000001
 31
0.0
  0
LINE
  5
36F
100
AcDbEntity
100
AcDbLine
  8
BLACK
 62
256
370
-1
  6
ByLayer
 10
0.6474000000000001
 20
1.5436000000000001
 30
0.0
 11
0.6436000000000001
 21
1.5455000000000001
 31
0.0
  0
LINE
  5
370
100
AcDbEntity
100
AcDbLine
  8
BLACK
 62
256
370
-1
  6
ByLayer
 10
0.6436000000000001
 20
1.5455000000000001
 30
0.0
 11
0.636
 21
1.5474000000000001
 31
0.0
  0
LINE
  5
371
100
AcDbEntity
100
AcDbLine
  8
BLACK
 62
256
370
-1
  6
ByLayer
 10
0.636
 20
1.5474000000000001
 30
0.0
 11
0.6264000000000001
 21
1.5474000000000001
 31
0.0
  0
LINE
  5
372
100
AcDbEntity
100
AcDbLine
  8
BLACK
 62
256
370
-1
  6
ByLayer
 10
0.6264000000000001
 20
1.5474000000000001
 30
0.0
 11
0.6188
 21
1.5455000000000001
 31
0.0
  0
LINE
  5
373
100
AcDbEntity
100
AcDbLine
  8
BLACK
 62
256
370
-1
  6
ByLayer
 10
0.6188
 20
1.5455000000000001
 30
0.0
 11
0.615
 21
1.5436000000000001
 31
0.0
  0
LINE
  5
374
100
AcDbEntity
100
AcDbLine
  8
BLACK
 62
256
370
-1
  6
ByLayer
 10
0.615
 20
1.5436000000000001
 30
0.0
 11
0.6131
 21
1.5417000000000001
 31
0.0
  0
LINE
  5
375
100
AcDbEntity
100
AcDbLine
  8
BLACK
 62
256
370
-1
  6
ByLayer
 10
0.6131
 20
1.5417000000000001
 30
0.0
 11
0.6112000000000001
 21
1.5379
 31
0.0
  0
LINE
  5
376
100
AcDbEntity
100
AcDbLine
  8
BLACK
 62
256
370
-1
  6
ByLayer
 10
1.0512000000000001
 20
1.6236000000000002
 30
0.0
 11
1.0112000000000001
 21
1.6236000000000002
 31
0.0
  0
LINE
  5
377
100
AcDbEntity
100
AcDbLine
  8
BLACK
 62
256
370
-1
  6
ByLayer
 10
1.0112000000000001
 20
1.6236000000000002
 30
0.0
 11
1.0112000000000001
 21
1.6141000000000001
 31
0.0
  0
LINE
  5
378
100
AcDbEntity
100
AcDbLine
  8
BLACK
 62
256
370
-1
  6
ByLayer
 10
1.0112000000000001
 20
1.6141000000000001
 30
0.0
 11
1.0131000000000001
 21
1.6083000000000001
 31
0.0
  0
LINE
  5
379
100
AcDbEntity
100
AcDbLine
  8
BLACK
 62
256
370
-1
  6
ByLayer
 10
1.0131000000000001
 20
1.6083000000000001
 30
0.0
 11
1.0169000000000001
 21
1.6045
 31
0.0
  0
LINE
  5
37A
100
AcDbEntity
100
AcDbLine
  8
BLACK
 62
256
370
-1
  6
ByLayer
 10
1.0169000000000001
 20
1.6045
 30
0.0
 11
1.0206999999999999
 21
1.6026
 31
0.0
  0
LINE
  5
37B
100
AcDbEntity
100
AcDbLine
  8
BLACK
 62
256
370
-1
  6
ByLayer
 10
1.0206999999999999
 20
1.6026
 30
0.0
 11
1.0283
 21
1.6007
 31
0.0
  0
LINE
  5
37C
100
AcDbEntity
100
AcDbLine
  8
BLACK
 62
256
370
-1
  6
ByLayer
 10
1.0283
 20
1.6007
 30
0.0
 11
1.034
 21
1.6007
 31
0.0
  0
LINE
  5
37D
100
AcDbEntity
100
AcDbLine
  8
BLACK
 62
256
370
-1
  6
ByLayer
 10
1.034
 20
1.6007
 30
0.0
 11
1.0417000000000001
 21
1.6026
 31
0.0
  0
LINE
  5
37E
100
AcDbEntity
100
AcDbLine
  8
BLACK
 62
256
370
-1
  6
ByLayer
 10
1.0417000000000001
 20
1.6026
 30
0.0
 11
1.0455000000000001
 21
1.6045
 31
0.0
  0
LINE
  5
37F
100
AcDbEntity
100
AcDbLine
  8
BLACK
 62
256
370
-1
  6
ByLayer
 10
1.0455000000000001
 20
1.6045
 30
0.0
 11
1.0493000000000001
 21
1.6083000000000001
 31
0.0
  0
LINE
  5
380
100
AcDbEntity
100
AcDbLine
  8
BLACK
 62
256
370
-1
  6
ByLayer
 10
1.0493000000000001
 20
1.6083000000000001
 30
0.0
 11
1.0512000000000001
 21
1.6141000000000001
 31
0.0
  0
LINE
  5
381
100
AcDbEntity
100
AcDbLine
  8
BLACK
 62
256
370
-1
  6
ByLayer
 10
1.0512000000000001
 20
1.6141000000000001
 30
0.0
 11
1.0512000000000001
 21
1.6236000000000002
 31
0.0
  0
LINE
  5
382
100
AcDbEntity
100
AcDbLine
  8
BLACK
 62
256
370
-1
  6
ByLayer
 10
1.0512000000000001
 20
1.5626
 30
0.0
 11
1.0512000000000001
 21
1.5855000000000001
 31
0.0
  0
LINE
  5
383
100
AcDbEntity
100
AcDbLine
  8
BLACK
 62
256
370
-1
  6
ByLayer
 10
1.0512000000000001
 20
1.5741000000000001
 30
0.0
 11
1.0112000000000001
 21
1.5741000000000001
 31
0.0
  0
LINE
  5
384
100
AcDbEntity
100
AcDbLine
  8
BLACK
 62
256
370
-1
  6
ByLayer
 10
1.0112000000000001
 20
1.5741000000000001
 30
0.0
 11
1.0169000000000001
 21
1.5779000000000001
 31
0.0
  0
LINE
  5
385
100
AcDbEntity
100
AcDbLine
  8
BLACK
 62
256
370
-1
  6
ByLayer
 10
1.0169000000000001
 20
1.5779000000000001
 30
0.0
 11
1.0206999999999999
 21
1.5817000000000001
 31
0.0
  0
LINE
  5
386
100
AcDbEntity
100
AcDbLine
  8
BLACK
 62
256
370
-1
  6
ByLayer
 10
1.0206999999999999
 20
1.5817000000000001
 30
0.0
 11
1.0226
 21
1.5855000000000001
 31
0.0
  0
LINE
  5
387
100
AcDbEntity
100
AcDbLine
  8
BLACK
 62
256
370
-1
  6
ByLayer
 10
1.0512000000000001
 20
1.5245
 30
0.0
 11
1.0512000000000001
 21
1.5474000000000001
 31
0.0
  0
LINE
  5
388
100
AcDbEntity
100
AcDbLine
  8
BLACK
 62
256
370
-1
  6
ByLayer
 10
1.0512000000000001
 20
1.536
 30
0.0
 11
1.0112000000000001
 21
1.536
 31
0.0
  0
LINE
  5
389
100
AcDbEntity
100
AcDbLine
  8
BLACK
 62
256
370
-1
  6
ByLayer
 10
1.0112000000000001
 20
1.536
 30
0.0
 11
1.0169000000000001
 21
1.5398000000000001
 31
0.0
  0
LINE
  5
38A
100
AcDbEntity
100
AcDbLine
  8
BLACK
 62
256
370
-1
  6
ByLayer
 10
1.0169000000000001
 20
1.5398000000000001
 30
0.0
 11
1.0206999999999999
 21
1.5436000000000001
 31
0.0
  0
LINE
  5
38B
100
AcDbEntity
100
AcDbLine
  8
BLACK
 62
256
370
-1
  6
ByLayer
 10
1.0206999999999999
 20
1.5436000000000001
 30
0.0
 11
1.0226
 21
1.5474000000000001
 31
0.0
  0
LINE
  5
38C
100
AcDbEntity
100
AcDbLine
  8
BLACK
 62
256
370
-1
  6
ByLayer
 10
1.4512
 20
1.6236000000000002
 30
0.0
 11
1.4112
 21
1.6236000000000002
 31
0.0
  0
LINE
  5
38D
100
AcDbEntity
100
AcDbLine
  8
BLACK
 62
256
370
-1
  6
ByLayer
 10
1.4112
 20
1.6236000000000002
 30
0.0
 11
1.4112
 21
1.6141000000000001
 31
0.0
  0
LINE
  5
38E
100
AcDbEntity
100
AcDbLine
  8
BLACK
 62
256
370
-1
  6
ByLayer
 10
1.4112
 20
1.6141000000000001
 30
0.0
 11
1.4131
 21
1.6083000000000001
 31
0.0
  0
LINE
  5
38F
100
AcDbEntity
100
AcDbLine
  8
BLACK
 62
256
370
-1
  6
ByLayer
 10
1.4131
 20
1.6083000000000001
 30
0.0
 11
1.4169
 21
1.6045
 31
0.0
  0
LINE
  5
390
100
AcDbEntity
100
AcDbLine
  8
BLACK
 62
256
370
-1
  6
ByLayer
 10
1.4169
 20
1.6045
 30
0.0
 11
1.4207000000000001
 21
1.6026
 31
0.0
  0
LINE
  5
391
100
AcDbEntity
100
AcDbLine
  8
BLACK
 62
256
370
-1
  6
ByLayer
 10
1.4207000000000001
 20
1.6026
 30
0.0
 11
1.4283000000000001
 21
1.6007
 31
0.0
  0
LINE
  5
392
100
AcDbEntity
100
AcDbLine
  8
BLACK
 62
256
370
-1
  6
ByLayer
 10
1.4283000000000001
 20
1.6007
 30
0.0
 11
1.4340000000000002
 21
1.6007
 31
0.0
  0
LINE
  5
393
100
AcDbEntity
100
AcDbLine
  8
BLACK
 62
256
370
-1
  6
ByLayer
 10
1.4340000000000002
 20
1.6007
 30
0.0
 11
1.4417
 21
1.6026
 31
0.0
  0
LINE
  5
394
100
AcDbEntity
100
AcDbLine
  8
BLACK
 62
256
370
-1
  6
ByLayer
 10
1.4417
 20
1.6026
 30
0.0
 11
1.4455
 21
1.6045
 31
0.0
  0
LINE
  5
395
100
AcDbEntity
100
AcDbLine
  8
BLACK
 62
256
370
-1
  6
ByLayer
 10
1.4455
 20
1.6045
 30
0.0
 11
1.4493
 21
1.6083000000000001
 31
0.0
  0
LINE
  5
396
100
AcDbEntity
100
AcDbLine
  8
BLACK
 62
256
370
-1
  6
ByLayer
 10
1.4493
 20
1.6083000000000001
 30
0.0
 11
1.4512
 21
1.6141000000000001
 31
0.0
  0
LINE
  5
397
100
AcDbEntity
100
AcDbLine
  8
BLACK
 62
256
370
-1
  6
ByLayer
 10
1.4512
 20
1.6141000000000001
 30
0.0
 11
1.4512
 21
1.6236000000000002
 31
0.0
  0
LINE
  5
398
100
AcDbEntity
100
AcDbLine
  8
BLACK
 62
256
370
-1
  6
ByLayer
 10
1.4512
 20
1.5626
 30
0.0
 11
1.4512
 21
1.5855000000000001
 31
0.0
  0
LINE
  5
399
100
AcDbEntity
100
AcDbLine
  8
BLACK
 62
256
370
-1
  6
ByLayer
 10
1.4512
 20
1.5741000000000001
 30
0.0
 11
1.4112
 21
1.5741000000000001
 31
0.0
  0
LINE
  5
39A
100
AcDbEntity
100
AcDbLine
  8
BLACK
 62
256
370
-1
  6
ByLayer
 10
1.4112
 20
1.5741000000000001
 30
0.0
 11
1.4169
 21
1.5779000000000001
 31
0.0
  0
LINE
  5
39B
100
AcDbEntity
100
AcDbLine
  8
BLACK
 62
256
370
-1
  6
ByLayer
 10
1.4169
 20
1.5779000000000001
 30
0.0
 11
1.4207000000000001
 21
1.5817000000000001
 31
0.0
  0
LINE
  5
39C
100
AcDbEntity
100
AcDbLine
  8
BLACK
 62
256
370
-1
  6
ByLayer
 10
1.4207000000000001
 20
1.5817000000000001
 30
0.0
 11
1.4226000000000001
 21
1.5855000000000001
 31
0.0
  0
LINE
  5
39D
100
AcDbEntity
100
AcDbLine
  8
BLACK
 62
256
370
-1
  6
ByLayer
 10
1.415
 20
1.5474000000000001
 30
0.0
 11
1.4131
 21
1.5455000000000001
 31
0.0
  0
LINE
  5
39E
100
AcDbEntity
100
AcDbLine
  8
BLACK
 62
256
370
-1
  6
ByLayer
 10
1.4131
 20
1.5455000000000001
 30
0.0
 11
1.4112
 21
1.5417000000000001
 31
0.0
  0
LINE
  5
39F
100
AcDbEntity
100
AcDbLine
  8
BLACK
 62
256
370
-1
  6
ByLayer
 10
1.4112
 20
1.5417000000000001
 30
0.0
 11
1.4112
 21
1.5321
 31
0.0
  0
LINE
  5
3A0
100
AcDbEntity
100
AcDbLine
  8
BLACK
 62
256
370
-1
  6
ByLayer
 10
1.4112
 20
1.5321
 30
0.0
 11
1.4131
 21
1.5283
 31
0.0
  0
LINE
  5
3A1
100
AcDbEntity
100
AcDbLine
  8
BLACK
 62
256
370
-1
  6
ByLayer
 10
1.4131
 20
1.5283
 30
0.0
 11
1.415
 21
1.5264
 31
0.0
  0
LINE
  5
3A2
100
AcDbEntity
100
AcDbLine
  8
BLACK
 62
256
370
-1
  6
ByLayer
 10
1.415
 20
1.5264
 30
0.0
 11
1.4188000000000001
 21
1.5245
 31
0.0
  0
LINE
  5
3A3
100
AcDbEntity
100
AcDbLine
  8
BLACK
 62
256
370
-1
  6
ByLayer
 10
1.4188000000000001
 20
1.5245
 30
0.0
 11
1.4226000000000001
 21
1.5245
 31
0.0
  0
LINE
  5
3A4
100
AcDbEntity
100
AcDbLine
  8
BLACK
 62
256
370
-1
  6
ByLayer
 10
1.4226000000000001
 20
1.5245
 30
0.0
 11
1.4283000000000001
 21
1.5264
 31
0.0
  0
LINE
  5
3A5
100
AcDbEntity
100
AcDbLine
  8
BLACK
 62
256
370
-1
  6
ByLayer
 10
1.4283000000000001
 20
1.5264
 30
0.0
 11
1.4512
 21
1.5493000000000001
 31
0.0
  0
LINE
  5
3A6
100
AcDbEntity
100
AcDbLine
  8
BLACK
 62
256
370
-1
  6
ByLayer
 10
1.4512
 20
1.5493000000000001
 30
0.0
 11
1.4512
 21
1.5245
 31
0.0
  0
LINE
  5
3A7
100
AcDbEntity
100
AcDbLine
  8
BLACK
 62
256
370
-1
  6
ByLayer
 10
1.8512000000000002
 20
1.6236000000000002
 30
0.0
 11
1.8112000000000001
 21
1.6236000000000002
 31
0.0
  0
LINE
  5
3A8
100
AcDbEntity
100
AcDbLine
  8
BLACK
 62
256
370
-1
  6
ByLayer
 10
1.8112000000000001
 20
1.6236000000000002
 30
0.0
 11
1.8112000000000001
 21
1.6141000000000001
 31
0.0
  0
LINE
  5
3A9
100
AcDbEntity
100
AcDbLine
  8
BLACK
 62
256
370
-1
  6
ByLayer
 10
1.8112000000000001
 20
1.6141000000000001
 30
0.0
 11
1.8131000000000002
 21
1.6083000000000001
 31
0.0
  0
LINE
  5
3AA
100
AcDbEntity
100
AcDbLine
  8
BLACK
 62
256
370
-1
  6
ByLayer
 10
1.8131000000000002
 20
1.6083000000000001
 30
0.0
 11
1.8169000000000002
 21
1.6045
 31
0.0
  0
LINE
  5
3AB
100
AcDbEntity
100
AcDbLine
  8
BLACK
 62
256
370
-1
  6
ByLayer
 10
1.8169000000000002
 20
1.6045
 30
0.0
 11
1.8207
 21
1.6026
 31
0.0
  0
LINE
  5
3AC
100
AcDbEntity
100
AcDbLine
  8
BLACK
 62
256
370
-1
  6
ByLayer
 10
1.8207
 20
1.6026
 30
0.0
 11
1.8283
 21
1.6007
 31
0.0
  0
LINE
  5
3AD
100
AcDbEntity
100
AcDbLine
  8
BLACK
 62
256
370
-1
  6
ByLayer
 10
1.8283
 20
1.6007
 30
0.0
 11
1.8340000000000001
 21
1.6007
 31
0.0
  0
LINE
  5
3AE
100
AcDbEntity
100
AcDbLine
  8
BLACK
 62
256
370
-1
  6
ByLayer
 10
1.8340000000000001
 20
1.6007
 30
0.0
 11
1.8417000000000001
 21
1.6026
 31
0.0
  0
LINE
  5
3AF
100
AcDbEntity
100
AcDbLine
  8
BLACK
 62
256
370
-1
  6
ByLayer
 10
1.8417000000000001
 20
1.6026
 30
0.0
 11
1.8455000000000001
 21
1.6045
 31
0.0
  0
LINE
  5
3B0
100
AcDbEntity
100
AcDbLine
  8
BLACK
 62
256
370
-1
  6
ByLayer
 10
1.8455000000000001
 20
1.6045
 30
0.0
 11
1.8493000000000002
 21
1.6083000000000001
 31
0.0
  0
LINE
  5
3B1
100
AcDbEntity
100
AcDbLine
  8
BLACK
 62
256
370
-1
  6
ByLayer
 10
1.8493000000000002
 20
1.6083000000000001
 30
0.0
 11
1.8512000000000002
 21
1.6141000000000001
 31
0.0
  0
LINE
  5
3B2
100
AcDbEntity
100
AcDbLine
  8
BLACK
 62
256
370
-1
  6
ByLayer
 10
1.8512000000000002
 20
1.6141000000000001
 30
0.0
 11
1.8512000000000002
 21
1.6236000000000002
 31
0.0
  0
LINE
  5
3B3
100
AcDbEntity
100
AcDbLine
  8
BLACK
 62
256
370
-1
  6
ByLayer
 10
1.8512000000000002
 20
1.5626
 30
0.0
 11
1.8512000000000002
 21
1.5855000000000001
 31
0.0
  0
LINE
  5
3B4
100
AcDbEntity
100
AcDbLine
  8
BLACK
 62
256
370
-1
  6
ByLayer
 10
1.8512000000000002
 20
1.5741000000000001
 30
0.0
 11
1.8112000000000001
 21
1.5741000000000001
 31
0.0
  0
LINE
  5
3B5
100
AcDbEntity
100
AcDbLine
  8
BLACK
 62
256
370
-1
  6
ByLayer
 10
1.8112000000000001
 20
1.5741000000000001
 30
0.0
 11
1.8169000000000002
 21
1.5779000000000001
 31
0.0
  0
LINE
  5
3B6
100
AcDbEntity
100
AcDbLine
  8
BLACK
 62
256
370
-1
  6
ByLayer
 10
1.8169000000000002
 20
1.5779000000000001
 30
0.0
 11
1.8207
 21
1.5817000000000001
 31
0.0
  0
LINE
  5
3B7
100
AcDbEntity
100
AcDbLine
  8
BLACK
 62
256
370
-1
  6
ByLayer
 10
1.8207
 20
1.5817000000000001
 30
0.0
 11
1.8226
 21
1.5855000000000001
 31
0.0
  0
LINE
  5
3B8
100
AcDbEntity
100
AcDbLine
  8
BLACK
 62
256
370
-1
  6
ByLayer
 10
1.8112000000000001
 20
1.5493000000000001
 30
0.0
 11
1.8112000000000001
 21
1.5245
 31
0.0
  0
LINE
  5
3B9
100
AcDbEntity
100
AcDbLine
  8
BLACK
 62
256
370
-1
  6
ByLayer
 10
1.8112000000000001
 20
1.5245
 30
0.0
 11
1.8264
 21
1.5379
 31
0.0
  0
LINE
  5
3BA
100
AcDbEntity
100
AcDbLine
  8
BLACK
 62
256
370
-1
  6
ByLayer
 10
1.8264
 20
1.5379
 30
0.0
 11
1.8264
 21
1.5321
 31
0.0
  0
LINE
  5
3BB
100
AcDbEntity
100
AcDbLine
  8
BLACK
 62
256
370
-1
  6
ByLayer
 10
1.8264
 20
1.5321
 30
0.0
 11
1.8283
 21
1.5283
 31
0.0
  0
LINE
  5
3BC
100
AcDbEntity
100
AcDbLine
  8
BLACK
 62
256
370
-1
  6
ByLayer
 10
1.8283
 20
1.5283
 30
0.0
 11
1.8302
 21
1.5264
 31
0.0
  0
LINE
  5
3BD
100
AcDbEntity
100
AcDbLine
  8
BLACK
 62
256
370
-1
  6
ByLayer
 10
1.8302
 20
1.5264
 30
0.0
 11
1.8340000000000001
 21
1.5245
 31
0.0
  0
LINE
  5
3BE
100
AcDbEntity
100
AcDbLine
  8
BLACK
 62
256
370
-1
  6
ByLayer
 10
1.8340000000000001
 20
1.5245
 30
0.0
 11
1.8436000000000001
 21
1.5245
 31
0.0
  0
LINE
  5
3BF
100
AcDbEntity
100
AcDbLine
  8
BLACK
 62
256
370
-1
  6
ByLayer
 10
1.8436000000000001
 20
1.5245
 30
0.0
 11
1.8474000000000002
 21
1.5264
 31
0.0
  0
LINE
  5
3C0
100
AcDbEntity
100
AcDbLine
  8
BLACK
 62
256
370
-1
  6
ByLayer
 10
1.8474000000000002
 20
1.5264
 30
0.0
 11
1.8493000000000002
 21
1.5283
 31
0.0
  0
LINE
  5
3C1
100
AcDbEntity
100
AcDbLine
  8
BLACK
 62
256
370
-1
  6
ByLayer
 10
1.8493000000000002
 20
1.5283
 30
0.0
 11
1.8512000000000002
 21
1.5321
 31
0.0
  0
LINE
  5
3C2
100
AcDbEntity
100
AcDbLine
  8
BLACK
 62
256
370
-1
  6
ByLayer
 10
1.8512000000000002
 20
1.5321
 30
0.0
 11
1.8512000000000002
 21
1.5436000000000001
 31
0.0
  0
LINE
  5
3C3
100
AcDbEntity
100
AcDbLine
  8
BLACK
 62
256
370
-1
  6
ByLayer
 10
1.8512000000000002
 20
1.5436000000000001
 30
0.0
 11
1.8493000000000002
 21
1.5474000000000001
 31
0.0
  0
LINE
  5
3C4
100
AcDbEntity
100
AcDbLine
  8
BLACK
 62
256
370
-1
  6
ByLayer
 10
1.8493000000000002
 20
1.5474000000000001
 30
0.0
 11
1.8474000000000002
 21
1.5493000000000001
 31
0.0
  0
LINE
  5
3C5
100
AcDbEntity
100
AcDbLine
  8
BLACK
 62
256
370
-1
  6
ByLayer
 10
2.2512000000000003
 20
1.6236000000000002
 30
0.0
 11
2.2112000000000003
 21
1.6236000000000002
 31
0.0
  0
LINE
  5
3C6
100
AcDbEntity
100
AcDbLine
  8
BLACK
 62
256
370
-1
  6
ByLayer
 10
2.2112000000000003
 20
1.6236000000000002
 30
0.0
 11
2.2112000000000003
 21
1.6141000000000001
 31
0.0
  0
LINE
  5
3C7
100
AcDbEntity
100
AcDbLine
  8
BLACK
 62
256
370
-1
  6
ByLayer
 10
2.2112000000000003
 20
1.6141000000000001
 30
0.0
 11
2.2131000000000003
 21
1.6083000000000001
 31
0.0
  0
LINE
  5
3C8
100
AcDbEntity
100
AcDbLine
  8
BLACK
 62
256
370
-1
  6
ByLayer
 10
2.2131000000000003
 20
1.6083000000000001
 30
0.0
 11
2.2169000000000003
 21
1.6045
 31
0.0
  0
LINE
  5
3C9
100
AcDbEntity
100
AcDbLine
  8
BLACK
 62
256
370
-1
  6
ByLayer
 10
2.2169000000000003
 20
1.6045
 30
0.0
 11
2.2206999999999999
 21
1.6026
 31
0.0
  0
LINE
  5
3CA
100
AcDbEntity
100
AcDbLine
  8
BLACK
 62
256
370
-1
  6
ByLayer
 10
2.2206999999999999
 20
1.6026
 30
0.0
 11
2.2282999999999999
 21
1.6007
 31
0.0
  0
LINE
  5
3CB
100
AcDbEntity
100
AcDbLine
  8
BLACK
 62
256
370
-1
  6
ByLayer
 10
2.2282999999999999
 20
1.6007
 30
0.0
 11
2.234
 21
1.6007
 31
0.0
  0
LINE
  5
3CC
100
AcDbEntity
100
AcDbLine
  8
BLACK
 62
256
370
-1
  6
ByLayer
 10
2.234
 20
1.6007
 30
0.0
 11
2.2417000000000002
 21
1.6026
 31
0.0
  0
LINE
  5
3CD
100
AcDbEntity
100
AcDbLine
  8
BLACK
 62
256
370
-1
  6
ByLayer
 10
2.2417000000000002
 20
1.6026
 30
0.0
 11
2.2455000000000003
 21
1.6045
 31
0.0
  0
LINE
  5
3CE
100
AcDbEntity
100
AcDbLine
  8
BLACK
 62
256
370
-1
  6
ByLayer
 10
2.2455000000000003
 20
1.6045
 30
0.0
 11
2.2493000000000003
 21
1.6083000000000001
 31
0.0
  0
LINE
  5
3CF
100
AcDbEntity
100
AcDbLine
  8
BLACK
 62
256
370
-1
  6
ByLayer
 10
2.2493000000000003
 20
1.6083000000000001
 30
0.0
 11
2.2512000000000003
 21
1.6141000000000001
 31
0.0
  0
LINE
  5
3D0
100
AcDbEntity
100
AcDbLine
  8
BLACK
 62
256
370
-1
  6
ByLayer
 10
2.2512000000000003
 20
1.6141000000000001
 30
0.0
 11
2.2512000000000003
 21
1.6236000000000002
 31
0.0
  0
LINE
  5
3D1
100
AcDbEntity
100
AcDbLine
  8
BLACK
 62
256
370
-1
  6
ByLayer
 10
2.2512000000000003
 20
1.5626
 30
0.0
 11
2.2512000000000003
 21
1.5855000000000001
 31
0.0
  0
LINE
  5
3D2
100
AcDbEntity
100
AcDbLine
  8
BLACK
 62
256
370
-1
  6
ByLayer
 10
2.2512000000000003
 20
1.5741000000000001
 30
0.0
 11
2.2112000000000003
 21
1.5741000000000001
 31
0.0
  0
LINE
  5
3D3
100
AcDbEntity
100
AcDbLine
  8
BLACK
 62
256
370
-1
  6
ByLayer
 10
2.2112000000000003
 20
1.5741000000000001
 30
0.0
 11
2.2169000000000003
 21
1.5779000000000001
 31
0.0
  0
LINE
  5
3D4
100
AcDbEntity
100
AcDbLine
  8
BLACK
 62
256
370
-1
  6
ByLayer
 10
2.2169000000000003
 20
1.5779000000000001
 30
0.0
 11
2.2206999999999999
 21
1.5817000000000001
 31
0.0
  0
LINE
  5
3D5
100
AcDbEntity
100
AcDbLine
  8
BLACK
 62
256
370
-1
  6
ByLayer
 10
2.2206999999999999
 20
1.5817000000000001
 30
0.0
 11
2.2225999999999999
 21
1.5855000000000001
 31
0.0
  0
LINE
  5
3D6
100
AcDbEntity
100
AcDbLine
  8
BLACK
 62
256
370
-1
  6
ByLayer
 10
2.2244999999999999
 20
1.5283
 30
0.0
 11
2.2512000000000003
 21
1.5283
 31
0.0
  0
LINE
  5
3D7
100
AcDbEntity
100
AcDbLine
  8
BLACK
 62
256
370
-1
  6
ByLayer
 10
2.2093000000000003
 20
1.5379
 30
0.0
 11
2.2379000000000002
 21
1.5474000000000001
 31
0.0
  0
LINE
  5
3D8
100
AcDbEntity
100
AcDbLine
  8
BLACK
 62
256
370
-1
  6
ByLayer
 10
2.2379000000000002
 20
1.5474000000000001
 30
0.0
 11
2.2379000000000002
 21
1.5226000000000002
 31
0.0
  0
LINE
  5
3D9
100
AcDbEntity
100
AcDbLine
  8
BLACK
 62
256
370
-1
  6
ByLayer
 10
2.6512000000000002
 20
1.6236000000000002
 30
0.0
 11
2.6112000000000002
 21
1.6236000000000002
 31
0.0
  0
LINE
  5
3DA
100
AcDbEntity
100
AcDbLine
  8
BLACK
 62
256
370
-1
  6
ByLayer
 10
2.6112000000000002
 20
1.6236000000000002
 30
0.0
 11
2.6112000000000002
 21
1.6141000000000001
 31
0.0
  0
LINE
  5
3DB
100
AcDbEntity
100
AcDbLine
  8
BLACK
 62
256
370
-1
  6
ByLayer
 10
2.6112000000000002
 20
1.6141000000000001
 30
0.0
 11
2.6131000000000002
 21
1.6083000000000001
 31
0.0
  0
LINE
  5
3DC
100
AcDbEntity
100
AcDbLine
  8
BLACK
 62
256
370
-1
  6
ByLayer
 10
2.6131000000000002
 20
1.6083000000000001
 30
0.0
 11
2.6169000000000002
 21
1.6045
 31
0.0
  0
LINE
  5
3DD
100
AcDbEntity
100
AcDbLine
  8
BLACK
 62
256
370
-1
  6
ByLayer
 10
2.6169000000000002
 20
1.6045
 30
0.0
 11
2.6207000000000003
 21
1.6026
 31
0.0
  0
LINE
  5
3DE
100
AcDbEntity
100
AcDbLine
  8
BLACK
 62
256
370
-1
  6
ByLayer
 10
2.6207000000000003
 20
1.6026
 30
0.0
 11
2.6283000000000003
 21
1.6007
 31
0.0
  0
LINE
  5
3DF
100
AcDbEntity
100
AcDbLine
  8
BLACK
 62
256
370
-1
  6
ByLayer
 10
2.6283000000000003
 20
1.6007
 30
0.0
 11
2.6340000000000003
 21
1.6007
 31
0.0
  0
LINE
  5
3E0
100
AcDbEntity
100
AcDbLine
  8
BLACK
 62
256
370
-1
  6
ByLayer
 10
2.6340000000000003
 20
1.6007
 30
0.0
 11
2.6417000000000002
 21
1.6026
 31
0.0
  0
LINE
  5
3E1
100
AcDbEntity
100
AcDbLine
  8
BLACK
 62
256
370
-1
  6
ByLayer
 10
2.6417000000000002
 20
1.6026
 30
0.0
 11
2.6455000000000002
 21
1.6045
 31
0.0
  0
LINE
  5
3E2
100
AcDbEntity
100
AcDbLine
  8
BLACK
 62
256
370
-1
  6
ByLayer
 10
2.6455000000000002
 20
1.6045
 30
0.0
 11
2.6493000000000002
 21
1.6083000000000001
 31
0.0
  0
LINE
  5
3E3
100
AcDbEntity
100
AcDbLine
  8
BLACK
 62
256
370
-1
  6
ByLayer
 10
2.6493000000000002
 20
1.6083000000000001
 30
0.0
 11
2.6512000000000002
 21
1.6141000000000001
 31
0.0
  0
LINE
  5
3E4
100
AcDbEntity
100
AcDbLine
  8
BLACK
 62
256
370
-1
  6
ByLayer
 10
2.6512000000000002
 20
1.6141000000000001
 30
0.0
 11
2.6512000000000002
 21
1.6236000000000002
 31
0.0
  0
LINE
  5
3E5
100
AcDbEntity
100
AcDbLine
  8
BLACK
 62
256
370
-1
  6
ByLayer
 10
2.6512000000000002
 20
1.5626
 30
0.0
 11
2.6512000000000002
 21
1.5855000000000001
 31
0.0
  0
LINE
  5
3E6
100
AcDbEntity
100
AcDbLine
  8
BLACK
 62
256
370
-1
  6
ByLayer
 10
2.6512000000000002
 20
1.5741000000000001
 30
0.0
 11
2.6112000000000002
 21
1.5741000000000001
 31
0.0
  0
LINE
  5
3E7
100
AcDbEntity
100
AcDbLine
  8
BLACK
 62
256
370
-1
  6
ByLayer
 10
2.6112000000000002
 20
1.5741000000000001
 30
0.0
 11
2.6169000000000002
 21
1.5779000000000001
 31
0.0
  0
LINE
  5
3E8
100
AcDbEntity
100
AcDbLine
  8
BLACK
 62
256
370
-1
  6
ByLayer
 10
2.6169000000000002
 20
1.5779000000000001
 30
0.0
 11
2.6207000000000003
 21
1.5817000000000001
 31
0.0
  0
LINE
  5
3E9
100
AcDbEntity
100
AcDbLine
  8
BLACK
 62
256
370
-1
  6
ByLayer
 10
2.6207000000000003
 20
1.5817000000000001
 30
0.0
 11
2.6226000000000003
 21
1.5855000000000001
 31
0.0
  0
LINE
  5
3EA
100
AcDbEntity
100
AcDbLine
  8
BLACK
 62
256
370
-1
  6
ByLayer
 10
2.6112000000000002
 20
1.5264
 30
0.0
 11
2.6112000000000002
 21
1.5455000000000001
 31
0.0
  0
LINE
  5
3EB
100
AcDbEntity
100
AcDbLine
  8
BLACK
 62
256
370
-1
  6
ByLayer
 10
2.6112000000000002
 20
1.5455000000000001
 30
0.0
 11
2.6302000000000003
 21
1.5474000000000001
 31
0.0
  0
LINE
  5
3EC
100
AcDbEntity
100
AcDbLine
  8
BLACK
 62
256
370
-1
  6
ByLayer
 10
2.6302000000000003
 20
1.5474000000000001
 30
0.0
 11
2.6283000000000003
 21
1.5455000000000001
 31
0.0
  0
LINE
  5
3ED
100
AcDbEntity
100
AcDbLine
  8
BLACK
 62
256
370
-1
  6
ByLayer
 10
2.6283000000000003
 20
1.5455000000000001
 30
0.0
 11
2.6264000000000003
 21
1.5417000000000001
 31
0.0
  0
LINE
  5
3EE
100
AcDbEntity
100
AcDbLine
  8
BLACK
 62
256
370
-1
  6
ByLayer
 10
2.6264000000000003
 20
1.5417000000000001
 30
0.0
 11
2.6264000000000003
 21
1.5321
 31
0.0
  0
LINE
  5
3EF
100
AcDbEntity
100
AcDbLine
  8
BLACK
 62
256
370
-1
  6
ByLayer
 10
2.6264000000000003
 20
1.5321
 30
0.0
 11
2.6283000000000003
 21
1.5283
 31
0.0
  0
LINE
  5
3F0
100
AcDbEntity
100
AcDbLine
  8
BLACK
 62
256
370
-1
  6
ByLayer
 10
2.6283000000000003
 20
1.5283
 30
0.0
 11
2.6302000000000003
 21
1.5264
 31
0.0
  0
LINE
  5
3F1
100
AcDbEntity
100
AcDbLine
  8
BLACK
 62
256
370
-1
  6
ByLayer
 10
2.6302000000000003
 20
1.5264
 30
0.0
 11
2.6340000000000003
 21
1.5245
 31
0.0
  0
LINE
  5
3F2
100
AcDbEntity
100
AcDbLine
  8
BLACK
 62
256
370
-1
  6
ByLayer
 10
2.6340000000000003
 20
1.5245
 30
0.0
 11
2.6436000000000002
 21
1.5245
 31
0.0
  0
LINE
  5
3F3
100
AcDbEntity
100
AcDbLine
  8
BLACK
 62
256
370
-1
  6
ByLayer
 10
2.6436000000000002
 20
1.5245
 30
0.0
 11
2.6474000000000002
 21
1.5264
 31
0.0
  0
LINE
  5
3F4
100
AcDbEntity
100
AcDbLine
  8
BLACK
 62
256
370
-1
  6
ByLayer
 10
2.6474000000000002
 20
1.5264
 30
0.0
 11
2.6493000000000002
 21
1.5283
 31
0.0
  0
LINE
  5
3F5
100
AcDbEntity
100
AcDbLine
  8
BLACK
 62
256
370
-1
  6
ByLayer
 10
2.6493000000000002
 20
1.5283
 30
0.0
 11
2.6512000000000002
 21
1.5321
 31
0.0
  0
LINE
  5
3F6
100
AcDbEntity
100
AcDbLine
  8
BLACK
 62
256
370
-1
  6
ByLayer
 10
2.6512000000000002
 20
1.5321
 30
0.0
 11
2.6512000000000002
 21
1.5417000000000001
 31
0.0
  0
LINE
  5
3F7
100
AcDbEntity
100
AcDbLine
  8
BLACK
 62
256
370
-1
  6
ByLayer
 10
2.6512000000000002
 20
1.5417000000000001
 30
0.0
 11
2.6493000000000002
 21
1.5455000000000001
 31
0.0
  0
LINE
  5
3F8
100
AcDbEntity
100
AcDbLine
  8
BLACK
 62
256
370
-1
  6
ByLayer
 10
2.6493000000000002
 20
1.5455000000000001
 30
0.0
 11
2.6474000000000002
 21
1.5474000000000001
 31
0.0
  0
LINE
  5
3F9
100
AcDbEntity
100
AcDbLine
  8
BLACK
 62
256
370
-1
  6
ByLayer
 10
3.0512000000000001
 20
1.6236000000000002
 30
0.0
 11
3.0112000000000001
 21
1.6236000000000002
 31
0.0
  0
LINE
  5
3FA
100
AcDbEntity
100
AcDbLine
  8
BLACK
 62
256
370
-1
  6
ByLayer
 10
3.0112000000000001
 20
1.6236000000000002
 30
0.0
 11
3.0112000000000001
 21
1.6141000000000001
 31
0.0
  0
LINE
  5
3FB
100
AcDbEntity
100
AcDbLine
  8
BLACK
 62
256
370
-1
  6
ByLayer
 10
3.0112000000000001
 20
1.6141000000000001
 30
0.0
 11
3.0131000000000001
 21
1.6083000000000001
 31
0.0
  0
LINE
  5
3FC
100
AcDbEntity
100
AcDbLine
  8
BLACK
 62
256
370
-1
  6
ByLayer
 10
3.0131000000000001
 20
1.6083000000000001
 30
0.0
 11
3.0169000000000001
 21
1.6045
 31
0.0
  0
LINE
  5
3FD
100
AcDbEntity
100
AcDbLine
  8
BLACK
 62
256
370
-1
  6
ByLayer
 10
3.0169000000000001
 20
1.6045
 30
0.0
 11
3.0207000000000002
 21
1.6026
 31
0.0
  0
LINE
  5
3FE
100
AcDbEntity
100
AcDbLine
  8
BLACK
 62
256
370
-1
  6
ByLayer
 10
3.0207000000000002
 20
1.6026
 30
0.0
 11
3.0283000000000002
 21
1.6007
 31
0.0
  0
LINE
  5
3FF
100
AcDbEntity
100
AcDbLine
  8
BLACK
 62
256
370
-1
  6
ByLayer
 10
3.0283000000000002
 20
1.6007
 30
0.0
 11
3.0340000000000003
 21
1.6007
 31
0.0
  0
LINE
  5
400
100
AcDbEntity
100
AcDbLine
  8
BLACK
 62
256
370
-1
  6
ByLayer
 10
3.0340000000000003
 20
1.6007
 30
0.0
 11
3.0417000000000001
 21
1.6026
 31
0.0
  0
LINE
  5
401
100
AcDbEntity
100
AcDbLine
  8
BLACK
 62
256
370
-1
  6
ByLayer
 10
3.0417000000000001
 20
1.6026
 30
0.0
 11
3.0455000000000001
 21
1.6045
 31
0.0
  0
LINE
  5
402
100
AcDbEntity
100
AcDbLine
  8
BLACK
 62
256
370
-1
  6
ByLayer
 10
3.0455000000000001
 20
1.6045
 30
0.0
 11
3.0493000000000001
 21
1.6083000000000001
 31
0.0
  0
LINE
  5
403
100
AcDbEntity
100
AcDbLine
  8
BLACK
 62
256
370
-1
  6
ByLayer
 10
3.0493000000000001
 20
1.6083000000000001
 30
0.0
 11
3.0512000000000001
 21
1.6141000000000001
 31
0.0
  0
LINE
  5
404
100
AcDbEntity
100
AcDbLine
  8
BLACK
 62
256
370
-1
  6
ByLayer
 10
3.0512000000000001
 20
1.6141000000000001
 30
0.0
 11
3.0512000000000001
 21
1.6236000000000002
 31
0.0
  0
LINE
  5
405
100
AcDbEntity
100
AcDbLine
  8
BLACK
 62
256
370
-1
  6
ByLayer
 10
3.0512000000000001
 20
1.5626
 30
0.0
 11
3.0512000000000001
 21
1.5855000000000001
 31
0.0
  0
LINE
  5
406
100
AcDbEntity
100
AcDbLine
  8
BLACK
 62
256
370
-1
  6
ByLayer
 10
3.0512000000000001
 20
1.5741000000000001
 30
0.0
 11
3.0112000000000001
 21
1.5741000000000001
 31
0.0
  0
LINE
  5
407
100
AcDbEntity
100
AcDbLine
  8
BLACK
 62
256
370
-1
  6
ByLayer
 10
3.0112000000000001
 20
1.5741000000000001
 30
0.0
 11
3.0169000000000001
 21
1.5779000000000001
 31
0.0
  0
LINE
  5
408
100
AcDbEntity
100
AcDbLine
  8
BLACK
 62
256
370
-1
  6
ByLayer
 10
3.0169000000000001
 20
1.5779000000000001
 30
0.0
 11
3.0207000000000002
 21
1.5817000000000001
 31
0.0
  0
LINE
  5
409
100
AcDbEntity
100
AcDbLine
  8
BLACK
 62
256
370
-1
  6
ByLayer
 10
3.0207000000000002
 20
1.5817000000000001
 30
0.0
 11
3.0226000000000002
 21
1.5855000000000001
 31
0.0
  0
LINE
  5
40A
100
AcDbEntity
100
AcDbLine
  8
BLACK
 62
256
370
-1
  6
ByLayer
 10
3.0112000000000001
 20
1.5283
 30
0.0
 11
3.0112000000000001
 21
1.536
 31
0.0
  0
LINE
  5
40B
100
AcDbEntity
100
AcDbLine
  8
BLACK
 62
256
370
-1
  6
ByLayer
 10
3.0112000000000001
 20
1.536
 30
0.0
 11
3.0131000000000001
 21
1.5398000000000001
 31
0.0
  0
LINE
  5
40C
100
AcDbEntity
100
AcDbLine
  8
BLACK
 62
256
370
-1
  6
ByLayer
 10
3.0131000000000001
 20
1.5398000000000001
 30
0.0
 11
3.0150000000000001
 21
1.5417000000000001
 31
0.0
  0
LINE
  5
40D
100
AcDbEntity
100
AcDbLine
  8
BLACK
 62
256
370
-1
  6
ByLayer
 10
3.0150000000000001
 20
1.5417000000000001
 30
0.0
 11
3.0207000000000002
 21
1.5455000000000001
 31
0.0
  0
LINE
  5
40E
100
AcDbEntity
100
AcDbLine
  8
BLACK
 62
256
370
-1
  6
ByLayer
 10
3.0207000000000002
 20
1.5455000000000001
 30
0.0
 11
3.0283000000000002
 21
1.5474000000000001
 31
0.0
  0
LINE
  5
40F
100
AcDbEntity
100
AcDbLine
  8
BLACK
 62
256
370
-1
  6
ByLayer
 10
3.0283000000000002
 20
1.5474000000000001
 30
0.0
 11
3.0436000000000001
 21
1.5474000000000001
 31
0.0
  0
LINE
  5
410
100
AcDbEntity
100
AcDbLine
  8
BLACK
 62
256
370
-1
  6
ByLayer
 10
3.0436000000000001
 20
1.5474000000000001
 30
0.0
 11
3.0474000000000001
 21
1.5455000000000001
 31
0.0
  0
LINE
  5
411
100
AcDbEntity
100
AcDbLine
  8
BLACK
 62
256
370
-1
  6
ByLayer
 10
3.0474000000000001
 20
1.5455000000000001
 30
0.0
 11
3.0493000000000001
 21
1.5436000000000001
 31
0.0
  0
LINE
  5
412
100
AcDbEntity
100
AcDbLine
  8
BLACK
 62
256
370
-1
  6
ByLayer
 10
3.0493000000000001
 20
1.5436000000000001
 30
0.0
 11
3.0512000000000001
 21
1.5398000000000001
 31
0.0
  0
LINE
  5
413
100
AcDbEntity
100
AcDbLine
  8
BLACK
 62
256
370
-1
  6
ByLayer
 10
3.0512000000000001
 20
1.5398000000000001
 30
0.0
 11
3.0512000000000001
 21
1.5321
 31
0.0
  0
LINE
  5
414
100
AcDbEntity
100
AcDbLine
  8
BLACK
 62
256
370
-1
  6
ByLayer
 10
3.0512000000000001
 20
1.5321
 30
0.0
 11
3.0493000000000001
 21
1.5283
 31
0.0
  0
LINE
  5
415
100
AcDbEntity
100
AcDbLine
  8
BLACK
 62
256
370
-1
  6
ByLayer
 10
3.0493000000000001
 20
1.5283
 30
0.0
 11
3.0474000000000001
 21
1.5264
 31
0.0
  0
LINE
  5
416
100
AcDbEntity
100
AcDbLine
  8
BLACK
 62
256
370
-1
  6
ByLayer
 10
3.0474000000000001
 20
1.5264
 30
0.0
 11
3.0436000000000001
 21
1.5245
 31
0.0
  0
LINE
  5
417
100
AcDbEntity
100
AcDbLine
  8
BLACK
 62
256
370
-1
  6
ByLayer
 10
3.0436000000000001
 20
1.5245
 30
0.0
 11
3.0340000000000003
 21
1.5245
 31
0.0
  0
LINE
  5
418
100
AcDbEntity
100
AcDbLine
  8
BLACK
 62
256
370
-1
  6
ByLayer
 10
3.0340000000000003
 20
1.5245
 30
0.0
 11
3.0302000000000002
 21
1.5264
 31
0.0
  0
LINE
  5
419
100
AcDbEntity
100
AcDbLine
  8
BLACK
 62
256
370
-1
  6
ByLayer
 10
3.0302000000000002
 20
1.5264
 30
0.0
 11
3.0283000000000002
 21
1.5283
 31
0.0
  0
LINE
  5
41A
100
AcDbEntity
100
AcDbLine
  8
BLACK
 62
256
370
-1
  6
ByLayer
 10
3.0283000000000002
 20
1.5283
 30
0.0
 11
3.0264000000000002
 21
1.5321
 31
0.0
  0
LINE
  5
41B
100
AcDbEntity
100
AcDbLine
  8
BLACK
 62
256
370
-1
  6
ByLayer
 10
3.0264000000000002
 20
1.5321
 30
0.0
 11
3.0264000000000002
 21
1.5398000000000001
 31
0.0
  0
LINE
  5
41C
100
AcDbEntity
100
AcDbLine
  8
BLACK
 62
256
370
-1
  6
ByLayer
 10
3.0264000000000002
 20
1.5398000000000001
 30
0.0
 11
3.0283000000000002
 21
1.5436000000000001
 31
0.0
  0
LINE
  5
41D
100
AcDbEntity
100
AcDbLine
  8
BLACK
 62
256
370
-1
  6
ByLayer
 10
3.0283000000000002
 20
1.5436000000000001
 30
0.0
 11
3.0302000000000002
 21
1.5455000000000001
 31
0.0
  0
LINE
  5
41E
100
AcDbEntity
100
AcDbLine
  8
BLACK
 62
256
370
-1
  6
ByLayer
 10
3.0302000000000002
 20
1.5455000000000001
 30
0.0
 11
3.0340000000000003
 21
1.5474000000000001
 31
0.0
  0
LINE
  5
41F
100
AcDbEntity
100
AcDbLine
  8
BLACK
 62
256
370
-1
  6
ByLayer
 10
3.4512
 20
1.6236000000000002
 30
0.0
 11
3.4112
 21
1.6236000000000002
 31
0.0
  0
LINE
  5
420
100
AcDbEntity
100
AcDbLine
  8
BLACK
 62
256
370
-1
  6
ByLayer
 10
3.4112
 20
1.6236000000000002
 30
0.0
 11
3.4112
 21
1.6141000000000001
 31
0.0
  0
LINE
  5
421
100
AcDbEntity
100
AcDbLine
  8
BLACK
 62
256
370
-1
  6
ByLayer
 10
3.4112
 20
1.6141000000000001
 30
0.0
 11
3.4131
 21
1.6083000000000001
 31
0.0
  0
LINE
  5
422
100
AcDbEntity
100
AcDbLine
  8
BLACK
 62
256
370
-1
  6
ByLayer
 10
3.4131
 20
1.6083000000000001
 30
0.0
 11
3.4169
 21
1.6045
 31
0.0
  0
LINE
  5
423
100
AcDbEntity
100
AcDbLine
  8
BLACK
 62
256
370
-1
  6
ByLayer
 10
3.4169
 20
1.6045
 30
0.0
 11
3.4207000000000001
 21
1.6026
 31
0.0
  0
LINE
  5
424
100
AcDbEntity
100
AcDbLine
  8
BLACK
 62
256
370
-1
  6
ByLayer
 10
3.4207000000000001
 20
1.6026
 30
0.0
 11
3.4283000000000001
 21
1.6007
 31
0.0
  0
LINE
  5
425
100
AcDbEntity
100
AcDbLine
  8
BLACK
 62
256
370
-1
  6
ByLayer
 10
3.4283000000000001
 20
1.6007
 30
0.0
 11
3.4340000000000002
 21
1.6007
 31
0.0
  0
LINE
  5
426
100
AcDbEntity
100
AcDbLine
  8
BLACK
 62
256
370
-1
  6
ByLayer
 10
3.4340000000000002
 20
1.6007
 30
0.0
 11
3.4417
 21
1.6026
 31
0.0
  0
LINE
  5
427
100
AcDbEntity
100
AcDbLine
  8
BLACK
 62
256
370
-1
  6
ByLayer
 10
3.4417
 20
1.6026
 30
0.0
 11
3.4455
 21
1.6045
 31
0.0
  0
LINE
  5
428
100
AcDbEntity
100
AcDbLine
  8
BLACK
 62
256
370
-1
  6
ByLayer
 10
3.4455
 20
1.6045
 30
0.0
 11
3.4493
 21
1.6083000000000001
 31
0.0
  0
LINE
  5
429
100
AcDbEntity
100
AcDbLine
  8
BLACK
 62
256
370
-1
  6
ByLayer
 10
3.4493
 20
1.6083000000000001
 30
0.0
 11
3.4512
 21
1.6141000000000001
 31
0.0
  0
LINE
  5
42A
100
AcDbEntity
100
AcDbLine
  8
BLACK
 62
256
370
-1
  6
ByLayer
 10
3.4512
 20
1.6141000000000001
 30
0.0
 11
3.4512
 21
1.6236000000000002
 31
0.0
  0
LINE
  5
42B
100
AcDbEntity
100
AcDbLine
  8
BLACK
 62
256
370
-1
  6
ByLayer
 10
3.4512
 20
1.5626
 30
0.0
 11
3.4512
 21
1.5855000000000001
 31
0.0
  0
LINE
  5
42C
100
AcDbEntity
100
AcDbLine
  8
BLACK
 62
256
370
-1
  6
ByLayer
 10
3.4512
 20
1.5741000000000001
 30
0.0
 11
3.4112
 21
1.5741000000000001
 31
0.0
  0
LINE
  5
42D
100
AcDbEntity
100
AcDbLine
  8
BLACK
 62
256
370
-1
  6
ByLayer
 10
3.4112
 20
1.5741000000000001
 30
0.0
 11
3.4169
 21
1.5779000000000001
 31
0.0
  0
LINE
  5
42E
100
AcDbEntity
100
AcDbLine
  8
BLACK
 62
256
370
-1
  6
ByLayer
 10
3.4169
 20
1.5779000000000001
 30
0.0
 11
3.4207000000000001
 21
1.5817000000000001
 31
0.0
  0
LINE
  5
42F
100
AcDbEntity
100
AcDbLine
  8
BLACK
 62
256
370
-1
  6
ByLayer
 10
3.4207000000000001
 20
1.5817000000000001
 30
0.0
 11
3.4226000000000001
 21
1.5855000000000001
 31
0.0
  0
LINE
  5
430
100
AcDbEntity
100
AcDbLine
  8
BLACK
 62
256
370
-1
  6
ByLayer
 10
3.4112
 20
1.5493000000000001
 30
0.0
 11
3.4112
 21
1.5226000000000002
 31
0.0
  0
LINE
  5
431
100
AcDbEntity
100
AcDbLine
  8
BLACK
 62
256
370
-1
  6
ByLayer
 10
3.4112
 20
1.5226000000000002
 30
0.0
 11
3.4512
 21
1.5398000000000001
 31
0.0
  0
LINE
  5
432
100
AcDbEntity
100
AcDbLine
  8
BLACK
 62
256
370
-1
  6
ByLayer
 10
3.3705000000000003
 20
1.2138
 30
0.0
 11
3.3705000000000003
 21
1.1814
 31
0.0
  0
LINE
  5
433
100
AcDbEntity
100
AcDbLine
  8
BLACK
 62
256
370
-1
  6
ByLayer
 10
3.3705000000000003
 20
1.1814
 30
0.0
 11
3.3686000000000003
 21
1.1776
 31
0.0
  0
LINE
  5
434
100
AcDbEntity
100
AcDbLine
  8
BLACK
 62
256
370
-1
  6
ByLayer
 10
3.3686000000000003
 20
1.1776
 30
0.0
 11
3.3667000000000002
 21
1.1757
 31
0.0
  0
LINE
  5
435
100
AcDbEntity
100
AcDbLine
  8
BLACK
 62
256
370
-1
  6
ByLayer
 10
3.3667000000000002
 20
1.1757
 30
0.0
 11
3.3629000000000002
 21
1.1738
 31
0.0
  0
LINE
  5
436
100
AcDbEntity
100
AcDbLine
  8
BLACK
 62
256
370
-1
  6
ByLayer
 10
3.3629000000000002
 20
1.1738
 30
0.0
 11
3.3552
 21
1.1738
 31
0.0
  0
LINE
  5
437
100
AcDbEntity
100
AcDbLine
  8
BLACK
 62
256
370
-1
  6
ByLayer
 10
3.3552
 20
1.1738
 30
0.0
 11
3.3514000000000004
 21
1.1757
 31
0.0
  0
LINE
  5
438
100
AcDbEntity
100
AcDbLine
  8
BLACK
 62
256
370
-1
  6
ByLayer
 10
3.3514000000000004
 20
1.1757
 30
0.0
 11
3.3495000000000004
 21
1.1776
 31
0.0
  0
LINE
  5
439
100
AcDbEntity
100
AcDbLine
  8
BLACK
 62
256
370
-1
  6
ByLayer
 10
3.3495000000000004
 20
1.1776
 30
0.0
 11
3.3476000000000004
 21
1.1814
 31
0.0
  0
LINE
  5
43A
100
AcDbEntity
100
AcDbLine
  8
BLACK
 62
256
370
-1
  6
ByLayer
 10
3.3476000000000004
 20
1.1814
 30
0.0
 11
3.3476000000000004
 21
1.2138
 31
0.0
  0
LINE
  5
43B
100
AcDbEntity
100
AcDbLine
  8
BLACK
 62
256
370
-1
  6
ByLayer
 10
3.3076000000000003
 20
1.1738
 30
0.0
 11
3.3305000000000002
 21
1.1738
 31
0.0
  0
LINE
  5
43C
100
AcDbEntity
100
AcDbLine
  8
BLACK
 62
256
370
-1
  6
ByLayer
 10
3.3191000000000002
 20
1.1738
 30
0.0
 11
3.3191000000000002
 21
1.2138
 31
0.0
  0
LINE
  5
43D
100
AcDbEntity
100
AcDbLine
  8
BLACK
 62
256
370
-1
  6
ByLayer
 10
3.3191000000000002
 20
1.2138
 30
0.0
 11
3.3229000000000002
 21
1.2081
 31
0.0
  0
LINE
  5
43E
100
AcDbEntity
100
AcDbLine
  8
BLACK
 62
256
370
-1
  6
ByLayer
 10
3.3229000000000002
 20
1.2081
 30
0.0
 11
3.3267000000000002
 21
1.2043000000000001
 31
0.0
  0
LINE
  5
43F
100
AcDbEntity
100
AcDbLine
  8
BLACK
 62
256
370
-1
  6
ByLayer
 10
3.3267000000000002
 20
1.2043000000000001
 30
0.0
 11
3.3305000000000002
 21
1.2024000000000001
 31
0.0
  0
LINE
  5
440
100
AcDbEntity
100
AcDbLine
  8
BLACK
 62
256
370
-1
  6
ByLayer
 10
3.6828000000000003
 20
0.4557
 30
0.0
 11
3.6485000000000003
 21
0.4557
 31
0.0
  0
LINE
  5
441
100
AcDbEntity
100
AcDbLine
  8
BLACK
 62
256
370
-1
  6
ByLayer
 10
3.6656
 20
0.3957
 30
0.0
 11
3.6656
 21
0.4557
 31
0.0
  0
LINE
  5
442
100
AcDbEntity
100
AcDbLine
  8
BLACK
 62
256
370
-1
  6
ByLayer
 10
3.5999000000000003
 20
0.3957
 30
0.0
 11
3.6285000000000003
 21
0.3957
 31
0.0
  0
LINE
  5
443
100
AcDbEntity
100
AcDbLine
  8
BLACK
 62
256
370
-1
  6
ByLayer
 10
3.6285000000000003
 20
0.3957
 30
0.0
 11
3.6285000000000003
 21
0.4557
 31
0.0
  0
LINE
  5
444
100
AcDbEntity
100
AcDbLine
  8
BLACK
 62
256
370
-1
  6
ByLayer
 10
3.5799000000000003
 20
0.4271
 30
0.0
 11
3.5599000000000003
 21
0.4271
 31
0.0
  0
LINE
  5
445
100
AcDbEntity
100
AcDbLine
  8
BLACK
 62
256
370
-1
  6
ByLayer
 10
3.5513000000000003
 20
0.3957
 30
0.0
 11
3.5799000000000003
 21
0.3957
 31
0.0
  0
LINE
  5
446
100
AcDbEntity
100
AcDbLine
  8
BLACK
 62
256
370
-1
  6
ByLayer
 10
3.5799000000000003
 20
0.3957
 30
0.0
 11
3.5799000000000003
 21
0.4557
 31
0.0
  0
LINE
  5
447
100
AcDbEntity
100
AcDbLine
  8
BLACK
 62
256
370
-1
  6
ByLayer
 10
3.5799000000000003
 20
0.4557
 30
0.0
 11
3.5513000000000003
 21
0.4557
 31
0.0
  0
LINE
  5
448
100
AcDbEntity
100
AcDbLine
  8
BLACK
 62
256
370
-1
  6
ByLayer
 10
3.5313000000000003
 20
0.4557
 30
0.0
 11
3.4913000000000003
 21
0.4557
 31
0.0
  0
LINE
  5
449
100
AcDbEntity
100
AcDbLine
  8
BLACK
 62
256
370
-1
  6
ByLayer
 10
3.4913000000000003
 20
0.4557
 30
0.0
 11
3.5170000000000003
 21
0.3957
 31
0.0
  0
LINE
  5
44A
100
AcDbEntity
100
AcDbLine
  8
BLACK
 62
256
370
-1
  6
ByLayer
 10
3.4714
 20
0.45
 30
0.0
 11
3.4685000000000001
 21
0.4529
 31
0.0
  0
LINE
  5
44B
100
AcDbEntity
100
AcDbLine
  8
BLACK
 62
256
370
-1
  6
ByLayer
 10
3.4685000000000001
 20
0.4529
 30
0.0
 11
3.4628000000000001
 21
0.4557
 31
0.0
  0
LINE
  5
44C
100
AcDbEntity
100
AcDbLine
  8
BLACK
 62
256
370
-1
  6
ByLayer
 10
3.4628000000000001
 20
0.4557
 30
0.0
 11
3.4485000000000001
 21
0.4557
 31
0.0
  0
LINE
  5
44D
100
AcDbEntity
100
AcDbLine
  8
BLACK
 62
256
370
-1
  6
ByLayer
 10
3.4485000000000001
 20
0.4557
 30
0.0
 11
3.4428000000000001
 21
0.4529
 31
0.0
  0
LINE
  5
44E
100
AcDbEntity
100
AcDbLine
  8
BLACK
 62
256
370
-1
  6
ByLayer
 10
3.4428000000000001
 20
0.4529
 30
0.0
 11
3.4399000000000002
 21
0.45
 31
0.0
  0
LINE
  5
44F
100
AcDbEntity
100
AcDbLine
  8
BLACK
 62
256
370
-1
  6
ByLayer
 10
3.4399000000000002
 20
0.45
 30
0.0
 11
3.4371
 21
0.4443
 31
0.0
  0
LINE
  5
450
100
AcDbEntity
100
AcDbLine
  8
BLACK
 62
256
370
-1
  6
ByLayer
 10
3.4371
 20
0.4443
 30
0.0
 11
3.4371
 21
0.4386
 31
0.0
  0
LINE
  5
451
100
AcDbEntity
100
AcDbLine
  8
BLACK
 62
256
370
-1
  6
ByLayer
 10
3.4371
 20
0.4386
 30
0.0
 11
3.4399000000000002
 21
0.43
 31
0.0
  0
LINE
  5
452
100
AcDbEntity
100
AcDbLine
  8
BLACK
 62
256
370
-1
  6
ByLayer
 10
3.4399000000000002
 20
0.43
 30
0.0
 11
3.4742000000000002
 21
0.3957
 31
0.0
  0
LINE
  5
453
100
AcDbEntity
100
AcDbLine
  8
BLACK
 62
256
370
-1
  6
ByLayer
 10
3.4742000000000002
 20
0.3957
 30
0.0
 11
3.4371
 21
0.3957
 31
0.0
  0
LINE
  5
454
100
AcDbEntity
100
AcDbLine
  8
BLACK
 62
256
370
-1
  6
ByLayer
 10
3.4171
 20
0.4557
 30
0.0
 11
3.3800000000000003
 21
0.4557
 31
0.0
  0
LINE
  5
455
100
AcDbEntity
100
AcDbLine
  8
BLACK
 62
256
370
-1
  6
ByLayer
 10
3.3800000000000003
 20
0.4557
 30
0.0
 11
3.4000000000000004
 21
0.4329
 31
0.0
  0
LINE
  5
456
100
AcDbEntity
100
AcDbLine
  8
BLACK
 62
256
370
-1
  6
ByLayer
 10
3.4000000000000004
 20
0.4329
 30
0.0
 11
3.3914
 21
0.4329
 31
0.0
  0
LINE
  5
457
100
AcDbEntity
100
AcDbLine
  8
BLACK
 62
256
370
-1
  6
ByLayer
 10
3.3914
 20
0.4329
 30
0.0
 11
3.3857000000000004
 21
0.43
 31
0.0
  0
LINE
  5
458
100
AcDbEntity
100
AcDbLine
  8
BLACK
 62
256
370
-1
  6
ByLayer
 10
3.3857000000000004
 20
0.43
 30
0.0
 11
3.3828
 21
0.4271
 31
0.0
  0
LINE
  5
459
100
AcDbEntity
100
AcDbLine
  8
BLACK
 62
256
370
-1
  6
ByLayer
 10
3.3828
 20
0.4271
 30
0.0
 11
3.3800000000000003
 21
0.4214
 31
0.0
  0
LINE
  5
45A
100
AcDbEntity
100
AcDbLine
  8
BLACK
 62
256
370
-1
  6
ByLayer
 10
3.3800000000000003
 20
0.4214
 30
0.0
 11
3.3800000000000003
 21
0.4071
 31
0.0
  0
LINE
  5
45B
100
AcDbEntity
100
AcDbLine
  8
BLACK
 62
256
370
-1
  6
ByLayer
 10
3.3800000000000003
 20
0.4071
 30
0.0
 11
3.3828
 21
0.4014
 31
0.0
  0
LINE
  5
45C
100
AcDbEntity
100
AcDbLine
  8
BLACK
 62
256
370
-1
  6
ByLayer
 10
3.3828
 20
0.4014
 30
0.0
 11
3.3857000000000004
 21
0.3986
 31
0.0
  0
LINE
  5
45D
100
AcDbEntity
100
AcDbLine
  8
BLACK
 62
256
370
-1
  6
ByLayer
 10
3.3857000000000004
 20
0.3986
 30
0.0
 11
3.3914
 21
0.3957
 31
0.0
  0
LINE
  5
45E
100
AcDbEntity
100
AcDbLine
  8
BLACK
 62
256
370
-1
  6
ByLayer
 10
3.3914
 20
0.3957
 30
0.0
 11
3.4086000000000003
 21
0.3957
 31
0.0
  0
LINE
  5
45F
100
AcDbEntity
100
AcDbLine
  8
BLACK
 62
256
370
-1
  6
ByLayer
 10
3.4086000000000003
 20
0.3957
 30
0.0
 11
3.4143000000000003
 21
0.3986
 31
0.0
  0
LINE
  5
460
100
AcDbEntity
100
AcDbLine
  8
BLACK
 62
256
370
-1
  6
ByLayer
 10
3.4143000000000003
 20
0.3986
 30
0.0
 11
3.4171
 21
0.4014
 31
0.0
  0
LINE
  5
461
100
AcDbEntity
100
AcDbLine
  8
BLACK
 62
256
370
-1
  6
ByLayer
 10
3.3600000000000003
 20
0.4557
 30
0.0
 11
3.3200000000000003
 21
0.3957
 31
0.0
  0
LINE
  5
462
100
AcDbEntity
100
AcDbLine
  8
BLACK
 62
256
370
-1
  6
ByLayer
 10
3.3200000000000003
 20
0.4557
 30
0.0
 11
3.3600000000000003
 21
0.3957
 31
0.0
  0
LINE
  5
463
100
AcDbEntity
100
AcDbLine
  8
BLACK
 62
256
370
-1
  6
ByLayer
 10
1.0805
 20
0.7488
 30
0.0
 11
1.0805
 21
0.7164
 31
0.0
  0
LINE
  5
464
100
AcDbEntity
100
AcDbLine
  8
BLACK
 62
256
370
-1
  6
ByLayer
 10
1.0805
 20
0.7164
 30
0.0
 11
1.0786
 21
0.7126
 31
0.0
  0
LINE
  5
465
100
AcDbEntity
100
AcDbLine
  8
BLACK
 62
256
370
-1
  6
ByLayer
 10
1.0786
 20
0.7126
 30
0.0
 11
1.0767
 21
0.7107
 31
0.0
  0
LINE
  5
466
100
AcDbEntity
100
AcDbLine
  8
BLACK
 62
256
370
-1
  6
ByLayer
 10
1.0767
 20
0.7107
 30
0.0
 11
1.0729
 21
0.7088
 31
0.0
  0
LINE
  5
467
100
AcDbEntity
100
AcDbLine
  8
BLACK
 62
256
370
-1
  6
ByLayer
 10
1.0729
 20
0.7088
 30
0.0
 11
1.0652000000000001
 21
0.7088
 31
0.0
  0
LINE
  5
468
100
AcDbEntity
100
AcDbLine
  8
BLACK
 62
256
370
-1
  6
ByLayer
 10
1.0652000000000001
 20
0.7088
 30
0.0
 11
1.0614000000000001
 21
0.7107
 31
0.0
  0
LINE
  5
469
100
AcDbEntity
100
AcDbLine
  8
BLACK
 62
256
370
-1
  6
ByLayer
 10
1.0614000000000001
 20
0.7107
 30
0.0
 11
1.0595000000000001
 21
0.7126
 31
0.0
  0
LINE
  5
46A
100
AcDbEntity
100
AcDbLine
  8
BLACK
 62
256
370
-1
  6
ByLayer
 10
1.0595000000000001
 20
0.7126
 30
0.0
 11
1.0576000000000001
 21
0.7164
 31
0.0
  0
LINE
  5
46B
100
AcDbEntity
100
AcDbLine
  8
BLACK
 62
256
370
-1
  6
ByLayer
 10
1.0576000000000001
 20
0.7164
 30
0.0
 11
1.0576000000000001
 21
0.7488
 31
0.0
  0
LINE
  5
46C
100
AcDbEntity
100
AcDbLine
  8
BLACK
 62
256
370
-1
  6
ByLayer
 10
1.0405
 20
0.745
 30
0.0
 11
1.0386
 21
0.7469
 31
0.0
  0
LINE
  5
46D
100
AcDbEntity
100
AcDbLine
  8
BLACK
 62
256
370
-1
  6
ByLayer
 10
1.0386
 20
0.7469
 30
0.0
 11
1.0347999999999999
 21
0.7488
 31
0.0
  0
LINE
  5
46E
100
AcDbEntity
100
AcDbLine
  8
BLACK
 62
256
370
-1
  6
ByLayer
 10
1.0347999999999999
 20
0.7488
 30
0.0
 11
1.0252000000000001
 21
0.7488
 31
0.0
  0
LINE
  5
46F
100
AcDbEntity
100
AcDbLine
  8
BLACK
 62
256
370
-1
  6
ByLayer
 10
1.0252000000000001
 20
0.7488
 30
0.0
 11
1.0214000000000001
 21
0.7469
 31
0.0
  0
LINE
  5
470
100
AcDbEntity
100
AcDbLine
  8
BLACK
 62
256
370
-1
  6
ByLayer
 10
1.0214000000000001
 20
0.7469
 30
0.0
 11
1.0195000000000001
 21
0.745
 31
0.0
  0
LINE
  5
471
100
AcDbEntity
100
AcDbLine
  8
BLACK
 62
256
370
-1
  6
ByLayer
 10
1.0195000000000001
 20
0.745
 30
0.0
 11
1.0176000000000001
 21
0.7412000000000001
 31
0.0
  0
LINE
  5
472
100
AcDbEntity
100
AcDbLine
  8
BLACK
 62
256
370
-1
  6
ByLayer
 10
1.0176000000000001
 20
0.7412000000000001
 30
0.0
 11
1.0176000000000001
 21
0.7374000000000001
 31
0.0
  0
LINE
  5
473
100
AcDbEntity
100
AcDbLine
  8
BLACK
 62
256
370
-1
  6
ByLayer
 10
1.0176000000000001
 20
0.7374000000000001
 30
0.0
 11
1.0195000000000001
 21
0.7317
 31
0.0
  0
LINE
  5
474
100
AcDbEntity
100
AcDbLine
  8
BLACK
 62
256
370
-1
  6
ByLayer
 10
1.0195000000000001
 20
0.7317
 30
0.0
 11
1.0424
 21
0.7088
 31
0.0
  0
LINE
  5
475
100
AcDbEntity
100
AcDbLine
  8
BLACK
 62
256
370
-1
  6
ByLayer
 10
1.0424
 20
0.7088
 30
0.0
 11
1.0176000000000001
 21
0.7088
 31
0.0
  0
LINE
  5
476
100
AcDbEntity
100
AcDbLine
  8
BLACK
 62
256
370
-1
  6
ByLayer
 10
1.2099
 20
0.1507
 30
0.0
 11
1.2099
 21
0.2107
 31
0.0
  0
LINE
  5
477
100
AcDbEntity
100
AcDbLine
  8
BLACK
 62
256
370
-1
  6
ByLayer
 10
1.2099
 20
0.2107
 30
0.0
 11
1.1899
 21
0.1679
 31
0.0
  0
LINE
  5
478
100
AcDbEntity
100
AcDbLine
  8
BLACK
 62
256
370
-1
  6
ByLayer
 10
1.1899
 20
0.1679
 30
0.0
 11
1.1699000000000002
 21
0.2107
 31
0.0
  0
LINE
  5
479
100
AcDbEntity
100
AcDbLine
  8
BLACK
 62
256
370
-1
  6
ByLayer
 10
1.1699000000000002
 20
0.2107
 30
0.0
 11
1.1699000000000002
 21
0.1507
 31
0.0
  0
LINE
  5
47A
100
AcDbEntity
100
AcDbLine
  8
BLACK
 62
256
370
-1
  6
ByLayer
 10
1.1442000000000001
 20
0.1679
 30
0.0
 11
1.1156000000000001
 21
0.1679
 31
0.0
  0
LINE
  5
47B
100
AcDbEntity
100
AcDbLine
  8
BLACK
 62
256
370
-1
  6
ByLayer
 10
1.1499000000000001
 20
0.1507
 30
0.0
 11
1.1299000000000001
 21
0.2107
 31
0.0
  0
LINE
  5
47C
100
AcDbEntity
100
AcDbLine
  8
BLACK
 62
256
370
-1
  6
ByLayer
 10
1.1299000000000001
 20
0.2107
 30
0.0
 11
1.1099000000000001
 21
0.1507
 31
0.0
  0
LINE
  5
47D
100
AcDbEntity
100
AcDbLine
  8
BLACK
 62
256
370
-1
  6
ByLayer
 10
1.0956000000000001
 20
0.2107
 30
0.0
 11
1.0556000000000001
 21
0.1507
 31
0.0
  0
LINE
  5
47E
100
AcDbEntity
100
AcDbLine
  8
BLACK
 62
256
370
-1
  6
ByLayer
 10
1.0556000000000001
 20
0.2107
 30
0.0
 11
1.0956000000000001
 21
0.1507
 31
0.0
  0
LINE
  5
47F
100
AcDbEntity
100
AcDbLine
  8
BLACK
 62
256
370
-1
  6
ByLayer
 10
1.0357000000000001
 20
0.205
 30
0.0
 11
1.0327999999999999
 21
0.2079
 31
0.0
  0
LINE
  5
480
100
AcDbEntity
100
AcDbLine
  8
BLACK
 62
256
370
-1
  6
ByLayer
 10
1.0327999999999999
 20
0.2079
 30
0.0
 11
1.0271000000000001
 21
0.2107
 31
0.0
  0
LINE
  5
481
100
AcDbEntity
100
AcDbLine
  8
BLACK
 62
256
370
-1
  6
ByLayer
 10
1.0271000000000001
 20
0.2107
 30
0.0
 11
1.0128000000000001
 21
0.2107
 31
0.0
  0
LINE
  5
482
100
AcDbEntity
100
AcDbLine
  8
BLACK
 62
256
370
-1
  6
ByLayer
 10
1.0128000000000001
 20
0.2107
 30
0.0
 11
1.0071000000000001
 21
0.2079
 31
0.0
  0
LINE
  5
483
100
AcDbEntity
100
AcDbLine
  8
BLACK
 62
256
370
-1
  6
ByLayer
 10
1.0071000000000001
 20
0.2079
 30
0.0
 11
1.0042
 21
0.205
 31
0.0
  0
LINE
  5
484
100
AcDbEntity
100
AcDbLine
  8
BLACK
 62
256
370
-1
  6
ByLayer
 10
1.0042
 20
0.205
 30
0.0
 11
1.0014000000000001
 21
0.1993
 31
0.0
  0
LINE
  5
485
100
AcDbEntity
100
AcDbLine
  8
BLACK
 62
256
370
-1
  6
ByLayer
 10
1.0014000000000001
 20
0.1993
 30
0.0
 11
1.0014000000000001
 21
0.1936
 31
0.0
  0
LINE
  5
486
100
AcDbEntity
100
AcDbLine
  8
BLACK
 62
256
370
-1
  6
ByLayer
 10
1.0014000000000001
 20
0.1936
 30
0.0
 11
1.0042
 21
0.185
 31
0.0
  0
LINE
  5
487
100
AcDbEntity
100
AcDbLine
  8
BLACK
 62
256
370
-1
  6
ByLayer
 10
1.0042
 20
0.185
 30
0.0
 11
1.0385
 21
0.1507
 31
0.0
  0
LINE
  5
488
100
AcDbEntity
100
AcDbLine
  8
BLACK
 62
256
370
-1
  6
ByLayer
 10
1.0385
 20
0.1507
 30
0.0
 11
1.0014000000000001
 21
0.1507
 31
0.0
  0
LINE
  5
489
100
AcDbEntity
100
AcDbLine
  8
BLACK
 62
256
370
-1
  6
ByLayer
 10
0.9814000000000001
 20
0.2107
 30
0.0
 11
0.9443
 21
0.2107
 31
0.0
  0
LINE
  5
48A
100
AcDbEntity
100
AcDbLine
  8
BLACK
 62
256
370
-1
  6
ByLayer
 10
0.9443
 20
0.2107
 30
0.0
 11
0.9643
 21
0.1879
 31
0.0
  0
LINE
  5
48B
100
AcDbEntity
100
AcDbLine
  8
BLACK
 62
256
370
-1
  6
ByLayer
 10
0.9643
 20
0.1879
 30
0.0
 11
0.9557
 21
0.1879
 31
0.0
  0
LINE
  5
48C
100
AcDbEntity
100
AcDbLine
  8
BLACK
 62
256
370
-1
  6
ByLayer
 10
0.9557
 20
0.1879
 30
0.0
 11
0.9500000000000001
 21
0.185
 31
0.0
  0
LINE
  5
48D
100
AcDbEntity
100
AcDbLine
  8
BLACK
 62
256
370
-1
  6
ByLayer
 10
0.9500000000000001
 20
0.185
 30
0.0
 11
0.9471000000000001
 21
0.1821
 31
0.0
  0
LINE
  5
48E
100
AcDbEntity
100
AcDbLine
  8
BLACK
 62
256
370
-1
  6
ByLayer
 10
0.9471000000000001
 20
0.1821
 30
0.0
 11
0.9443
 21
0.1764
 31
0.0
  0
LINE
  5
48F
100
AcDbEntity
100
AcDbLine
  8
BLACK
 62
256
370
-1
  6
ByLayer
 10
0.9443
 20
0.1764
 30
0.0
 11
0.9443
 21
0.1621
 31
0.0
  0
LINE
  5
490
100
AcDbEntity
100
AcDbLine
  8
BLACK
 62
256
370
-1
  6
ByLayer
 10
0.9443
 20
0.1621
 30
0.0
 11
0.9471000000000001
 21
0.1564
 31
0.0
  0
LINE
  5
491
100
AcDbEntity
100
AcDbLine
  8
BLACK
 62
256
370
-1
  6
ByLayer
 10
0.9471000000000001
 20
0.1564
 30
0.0
 11
0.9500000000000001
 21
0.1536
 31
0.0
  0
LINE
  5
492
100
AcDbEntity
100
AcDbLine
  8
BLACK
 62
256
370
-1
  6
ByLayer
 10
0.9500000000000001
 20
0.1536
 30
0.0
 11
0.9557
 21
0.1507
 31
0.0
  0
LINE
  5
493
100
AcDbEntity
100
AcDbLine
  8
BLACK
 62
256
370
-1
  6
ByLayer
 10
0.9557
 20
0.1507
 30
0.0
 11
0.9729000000000001
 21
0.1507
 31
0.0
  0
LINE
  5
494
100
AcDbEntity
100
AcDbLine
  8
BLACK
 62
256
370
-1
  6
ByLayer
 10
0.9729000000000001
 20
0.1507
 30
0.0
 11
0.9786
 21
0.1536
 31
0.0
  0
LINE
  5
495
100
AcDbEntity
100
AcDbLine
  8
BLACK
 62
256
370
-1
  6
ByLayer
 10
0.9786
 20
0.1536
 30
0.0
 11
0.9814000000000001
 21
0.1564
 31
0.0
  0
LINE
  5
496
100
AcDbEntity
100
AcDbLine
  8
BLACK
 62
256
370
-1
  6
ByLayer
 10
0.9215000000000001
 20
0.205
 30
0.0
 11
0.9186000000000001
 21
0.2079
 31
0.0
  0
LINE
  5
497
100
AcDbEntity
100
AcDbLine
  8
BLACK
 62
256
370
-1
  6
ByLayer
 10
0.9186000000000001
 20
0.2079
 30
0.0
 11
0.9129
 21
0.2107
 31
0.0
  0
LINE
  5
498
100
AcDbEntity
100
AcDbLine
  8
BLACK
 62
256
370
-1
  6
ByLayer
 10
0.9129
 20
0.2107
 30
0.0
 11
0.8986000000000001
 21
0.2107
 31
0.0
  0
LINE
  5
499
100
AcDbEntity
100
AcDbLine
  8
BLACK
 62
256
370
-1
  6
ByLayer
 10
0.8986000000000001
 20
0.2107
 30
0.0
 11
0.8929
 21
0.2079
 31
0.0
  0
LINE
  5
49A
100
AcDbEntity
100
AcDbLine
  8
BLACK
 62
256
370
-1
  6
ByLayer
 10
0.8929
 20
0.2079
 30
0.0
 11
0.89
 21
0.205
 31
0.0
  0
LINE
  5
49B
100
AcDbEntity
100
AcDbLine
  8
BLACK
 62
256
370
-1
  6
ByLayer
 10
0.89
 20
0.205
 30
0.0
 11
0.8872
 21
0.1993
 31
0.0
  0
LINE
  5
49C
100
AcDbEntity
100
AcDbLine
  8
BLACK
 62
256
370
-1
  6
ByLayer
 10
0.8872
 20
0.1993
 30
0.0
 11
0.8872
 21
0.1936
 31
0.0
  0
LINE
  5
49D
100
AcDbEntity
100
AcDbLine
  8
BLACK
 62
256
370
-1
  6
ByLayer
 10
0.8872
 20
0.1936
 30
0.0
 11
0.89
 21
0.185
 31
0.0
  0
LINE
  5
49E
100
AcDbEntity
100
AcDbLine
  8
BLACK
 62
256
370
-1
  6
ByLayer
 10
0.89
 20
0.185
 30
0.0
 11
0.9243
 21
0.1507
 31
0.0
  0
LINE
  5
49F
100
AcDbEntity
100
AcDbLine
  8
BLACK
 62
256
370
-1
  6
ByLayer
 10
0.9243
 20
0.1507
 30
0.0
 11
0.8872
 21
0.1507
 31
0.0
  0
ENDSEC
  0
SECTION
  2
OBJECTS
  0
DICTIONARY
  5
C
100
AcDbDictionary
280
0
281
1
  3
ACAD_GROUP
350
D
  3
ACAD_LAYOUT
350
1A
  3
ACAD_MLINESTYLE
350
17
  3
ACAD_PLOTSETTINGS
350
19
  3
ACAD_PLOTSTYLENAME
350
E
  3
AcDbVariableDictionary
350
4A0
  0
DICTIONARY
  5
D
100
AcDbDictionary
280
0
281
1
  0
ACDBDICTIONARYWDFLT
  5
E
100
AcDbDictionary
281
1
  3
Normal
350
F
100
AcDbDictionaryWithDefault
340
F
  0
ACDBPLACEHOLDER
  5
F
  0
DICTIONARY
  5
17
100
AcDbDictionary
280
0
281
1
  3
Standard
350
18
  0
MLINESTYLE
  5
18
100
AcDbMlineStyle
  2
STANDARD
 70
0
  3

 62
256
 51
90.0
 52
90.0
 71
2
 49
0.5
 62
256
  6
BYLAYER
 49
-0.5
 62
256
  6
BYLAYER
  0
DICTIONARY
  5
19
100
AcDbDictionary
280
0
281
1
  0
DICTIONARY
  5
1A
100
AcDbDictionary
281
1
  3
Layout1
350
1E
  3
Layout2
350
26
  3
Model
350
22
  0
LAYOUT
  5
1E
100
AcDbPlotSettings
  1

  2
C:\Program Files\AutoCAD 2002\plotters\DWF ePlot (optimized for plotting).pc3
  4

  6

 40
0.0
 41
0.0
 42
0.0
 43
0.0
 44
0.0
 45
0.0
 46
0.0
 47
0.0
 48
0.0
 49
0.0
140
0.0
141
0.0
142
1.0
143
1.0
 70
688
 72
0
 73
0
 74
5
  7

 75
16
147
1.0
148
0.0
149
0.0
100
AcDbLayout
  1
Layout1
 70
1
 71
1
 10
0.0
 20
0.0
 11
420.0
 21
297.0
 12
0.0
 22
0.0
 32
0.0
 14
100000000000000000000.0
 24
100000000000000000000.0
 34
100000000000000000000.0
 15
-100000000000000000000.0
 25
-100000000000000000000.0
 35
-100000000000000000000.0
146
0.0
 13
0.0
 23
0.0
 33
0.0
 16
1.0
 26
0.0
 36
0.0
 17
0.0
 27
1.0
 37
0.0
 76
0
330
1B
  0
LAYOUT
  5
22
100
AcDbPlotSettings
  1

  2
C:\Program Files\AutoCAD 2002\plotters\DWF ePlot (optimized for plotting).pc3
  4

  6

 40
0.0
 41
0.0
 42
0.0
 43
0.0
 44
0.0
 45
0.0
 46
0.0
 47
0.0
 48
0.0
 49
0.0
140
0.0
141
0.0
142
1.0
143
1.0
 70
1712
 72
0
 73
0
 74
0
  7

 75
0
147
1.0
148
0.0
149
0.0
100
AcDbLayout
  1
Model
 70
1
 71
0
 10
0.0
 20
0.0
 11
12.0
 21
9.0
 12
0.0
 22
0.0
 32
0.0
 14
0.0
 24
0.0
 34
0.0
 15
0.0
 25
0.0
 35
0.0
146
0.0
 13
0.0
 23
0.0
 33
0.0
 16
1.0
 26
0.0
 36
0.0
 17
0.0
 27
1.0
 37
0.0
 76
0
330
1F
  0
LAYOUT
  5
26
100
AcDbPlotSettings
  1

  2
C:\Program Files\AutoCAD 2002\plotters\DWF ePlot (optimized for plotting).pc3
  4

  6

 40
0.0
 41
0.0
 42
0.0
 43
0.0
 44
0.0
 45
0.0
 46
0.0
 47
0.0
 48
0.0
 49
0.0
140
0.0
141
0.0
142
1.0
143
1.0
 70
688
 72
0
 73
0
 74
5
  7

 75
16
147
1.0
148
0.0
149
0.0
100
AcDbLayout
  1
Layout2
 70
1
 71
2
 10
0.0
 20
0.0
 11
12.0
 21
9.0
 12
0.0
 22
0.0
 32
0.0
 14
0.0
 24
0.0
 34
0.0
 15
0.0
 25
0.0
 35
0.0
146
0.0
 13
0.0
 23
0.0
 33
0.0
 16
1.0
 26
0.0
 36
0.0
 17
0.0
 27
1.0
 37
0.0
 76
0
330
23
  0
DICTIONARY
  5
4A0
100
AcDbDictionary
281
1
  3
DIMASSOC
350
4A2
  3
HIDETEXT
350
4A1
  0
DICTIONARYVAR
  5
4A1
100
DictionaryVariables
280
0
  1
2
  0
DICTIONARYVAR
  5
4A2
100
DictionaryVariables
280
0
  1
1
  0
ENDSEC
  0
EOF
