999
dxflib 2.2.0.0
  0
SECTION
  2
HEADER
  9
$ACADVER
  1
AC1015
  9
$HANDSEED
  5
FFFF
  9
$DIMASZ
 40
0.1
  9
$PLIMMIN
 10
0.0
 20
0.0
  9
$DIMEXE
 40
0.05
  9
$DIMGAP
 40
0.025
  9
$PLIMMAX
 10
8.2677165354330722
 20
11.6929133858267722
  9
$ANGBASE
 50
0.0
  9
$ANGDIR
 70
0
  9
$INSUNITS
 70
1
  9
$DIMSTYLE
  2
Standard
  9
$DIMEXO
 40
0.025
  9
$DIMTXT
 40
0.1
  0
ENDSEC
  0
SECTION
  2
TABLES
  0
TABLE
  2
VPORT
  5
8
100
AcDbSymbolTable
 70
1
  0
VPORT
  5
30
100
AcDbSymbolTableRecord
100
AcDbViewportTableRecord
  2
*Active
 70
0
 10
0.0
 20
0.0
 11
1.0
 21
1.0
 12
286.3055555555554861
 22
148.5
 13
0.0
 23
0.0
 14
10.0
 24
10.0
 15
10.0
 25
10.0
 16
0.0
 26
0.0
 36
1.0
 17
0.0
 27
0.0
 37
0.0
 40
297.0
 41
1.92798353909465
 42
50.0
 43
0.0
 44
0.0
 50
0.0
 51
0.0
 71
0
 72
100
 73
1
 74
3
 75
1
 76
1
 77
0
 78
0
281
0
 65
1
110
0.0
120
0.0
130
0.0
111
1.0
121
0.0
131
0.0
112
0.0
122
1.0
132
0.0
 79
0
146
0.0
  0
ENDTAB
  0
TABLE
  2
LTYPE
  5
5
100
AcDbSymbolTable
 70
21
  0
LTYPE
  5
14
100
AcDbSymbolTableRecord
100
AcDbLinetypeTableRecord
  2
ByBlock
 70
0
  3

 72
65
 73
0
 40
0.0
  0
LTYPE
  5
15
100
AcDbSymbolTableRecord
100
AcDbLinetypeTableRecord
  2
ByLayer
 70
0
  3

 72
65
 73
0
 40
0.0
  0
LTYPE
  5
16
100
AcDbSymbolTableRecord
100
AcDbLinetypeTableRecord
  2
CONTINUOUS
 70
0
  3
Solid line
 72
65
 73
0
 40
0.0
  0
LTYPE
  5
31
100
AcDbSymbolTableRecord
100
AcDbLinetypeTableRecord
  2
DOT
 70
0
  3
Dot . . . . . . . . . . . . . . . . . . . . . .
 72
65
 73
2
 40
6.3499999999999996
 49
0.0
 74
0
 49
-6.3499999999999996
 74
0
  0
LTYPE
  5
32
100
AcDbSymbolTableRecord
100
AcDbLinetypeTableRecord
  2
DOT2
 70
0
  3
Dot (.5x) .....................................
 72
65
 73
2
 40
3.1749999999999998
 49
0.0
 74
0
 49
-3.1749999999999998
 74
0
  0
LTYPE
  5
33
100
AcDbSymbolTableRecord
100
AcDbLinetypeTableRecord
  2
DOTX2
 70
0
  3
Dot (2x) .  .  .  .  .  .  .  .  .  .  .  .  .
 72
65
 73
2
 40
12.6999999999999993
 49
0.0
 74
0
 49
-12.6999999999999993
 74
0
  0
LTYPE
  5
34
100
AcDbSymbolTableRecord
100
AcDbLinetypeTableRecord
  2
DASHED
 70
0
  3
Dashed __ __ __ __ __ __ __ __ __ __ __ __ __ _
 72
65
 73
2
 40
19.0500000000000007
 49
12.6999999999999993
 74
0
 49
-6.3499999999999996
 74
0
  0
LTYPE
  5
35
100
AcDbSymbolTableRecord
100
AcDbLinetypeTableRecord
  2
DASHED2
 70
0
  3
Dashed (.5x) _ _ _ _ _ _ _ _ _ _ _ _ _ _ _ _ _
 72
65
 73
2
 40
9.5250000000000004
 49
6.3499999999999996
 74
0
 49
-3.1749999999999998
 74
0
  0
LTYPE
  5
36
100
AcDbSymbolTableRecord
100
AcDbLinetypeTableRecord
  2
DASHEDX2
 70
0
  3
Dashed (2x) ____  ____  ____  ____  ____  ___
 72
65
 73
2
 40
38.1000000000000014
 49
25.3999999999999986
 74
0
 49
-12.6999999999999993
 74
0
  0
LTYPE
  5
37
100
AcDbSymbolTableRecord
100
AcDbLinetypeTableRecord
  2
DASHDOT
 70
0
  3
Dash dot __ . __ . __ . __ . __ . __ . __ . __
 72
65
 73
4
 40
25.3999999999999986
 49
12.6999999999999993
 74
0
 49
-6.3499999999999996
 74
0
 49
0.0
 74
0
 49
-6.3499999999999996
 74
0
  0
LTYPE
  5
38
100
AcDbSymbolTableRecord
100
AcDbLinetypeTableRecord
  2
DASHDOT2
 70
0
  3
Dash dot (.5x) _._._._._._._._._._._._._._._.
 72
65
 73
4
 40
12.6999999999999993
 49
6.3499999999999996
 74
0
 49
-3.1749999999999998
 74
0
 49
0.0
 74
0
 49
-3.1749999999999998
 74
0
  0
LTYPE
  5
39
100
AcDbSymbolTableRecord
100
AcDbLinetypeTableRecord
  2
DASHDOTX2
 70
0
  3
Dash dot (2x) ____  .  ____  .  ____  .  ___
 72
65
 73
4
 40
50.7999999999999972
 49
25.3999999999999986
 74
0
 49
-12.6999999999999993
 74
0
 49
0.0
 74
0
 49
-12.6999999999999993
 74
0
  0
LTYPE
  5
3A
100
AcDbSymbolTableRecord
100
AcDbLinetypeTableRecord
  2
DIVIDE
 70
0
  3
Divide ____ . . ____ . . ____ . . ____ . . ____
 72
65
 73
6
 40
31.75
 49
12.6999999999999993
 74
0
 49
-6.3499999999999996
 74
0
 49
0.0
 74
0
 49
-6.3499999999999996
 74
0
 49
0.0
 74
0
 49
-6.3499999999999996
 74
0
  0
LTYPE
  5
3B
100
AcDbSymbolTableRecord
100
AcDbLinetypeTableRecord
  2
DIVIDE2
 70
0
  3
Divide (.5x) __..__..__..__..__..__..__..__.._
 72
65
 73
6
 40
15.875
 49
6.3499999999999996
 74
0
 49
-3.1749999999999998
 74
0
 49
0.0
 74
0
 49
-3.1749999999999998
 74
0
 49
0.0
 74
0
 49
-3.1749999999999998
 74
0
  0
LTYPE
  5
3C
100
AcDbSymbolTableRecord
100
AcDbLinetypeTableRecord
  2
DIVIDEX2
 70
0
  3
Divide (2x) ________  .  .  ________  .  .  _
 72
65
 73
6
 40
63.5
 49
25.3999999999999986
 74
0
 49
-12.6999999999999993
 74
0
 49
0.0
 74
0
 49
-12.6999999999999993
 74
0
 49
0.0
 74
0
 49
-12.6999999999999993
 74
0
  0
LTYPE
  5
3D
100
AcDbSymbolTableRecord
100
AcDbLinetypeTableRecord
  2
CENTER
 70
0
  3
Center ____ _ ____ _ ____ _ ____ _ ____ _ ____
 72
65
 73
4
 40
50.7999999999999972
 49
31.75
 74
0
 49
-6.3499999999999996
 74
0
 49
6.3499999999999996
 74
0
 49
-6.3499999999999996
 74
0
  0
LTYPE
  5
3E
100
AcDbSymbolTableRecord
100
AcDbLinetypeTableRecord
  2
CENTER2
 70
0
  3
Center (.5x) ___ _ ___ _ ___ _ ___ _ ___ _ ___
 72
65
 73
4
 40
28.5749999999999993
 49
19.0500000000000007
 74
0
 49
-3.1749999999999998
 74
0
 49
3.1749999999999998
 74
0
 49
-3.1749999999999998
 74
0
  0
LTYPE
  5
3F
100
AcDbSymbolTableRecord
100
AcDbLinetypeTableRecord
  2
CENTERX2
 70
0
  3
Center (2x) ________  __  ________  __  _____
 72
65
 73
4
 40
101.5999999999999943
 49
63.5
 74
0
 49
-12.6999999999999993
 74
0
 49
12.6999999999999993
 74
0
 49
-12.6999999999999993
 74
0
  0
LTYPE
  5
40
100
AcDbSymbolTableRecord
100
AcDbLinetypeTableRecord
  2
BORDER
 70
0
  3
Border __ __ . __ __ . __ __ . __ __ . __ __ .
 72
65
 73
6
 40
44.4500000000000028
 49
12.6999999999999993
 74
0
 49
-6.3499999999999996
 74
0
 49
12.6999999999999993
 74
0
 49
-6.3499999999999996
 74
0
 49
0.0
 74
0
 49
-6.3499999999999996
 74
0
  0
LTYPE
  5
41
100
AcDbSymbolTableRecord
100
AcDbLinetypeTableRecord
  2
BORDER2
 70
0
  3
Border (.5x) __.__.__.__.__.__.__.__.__.__.__.
 72
65
 73
6
 40
22.2250000000000014
 49
6.3499999999999996
 74
0
 49
-3.1749999999999998
 74
0
 49
6.3499999999999996
 74
0
 49
-3.1749999999999998
 74
0
 49
0.0
 74
0
 49
-3.1749999999999998
 74
0
  0
LTYPE
  5
42
100
AcDbSymbolTableRecord
100
AcDbLinetypeTableRecord
  2
BORDERX2
 70
0
  3
Border (2x) ____  ____  .  ____  ____  .  ___
 72
65
 73
6
 40
88.9000000000000057
 49
25.3999999999999986
 74
0
 49
-12.6999999999999993
 74
0
 49
25.3999999999999986
 74
0
 49
-12.6999999999999993
 74
0
 49
0.0
 74
0
 49
-12.6999999999999993
 74
0
  0
ENDTAB
  0
TABLE
  2
LAYER
  5
2
100
AcDbSymbolTable
 70
25
  0
LAYER
  5
10
100
AcDbSymbolTableRecord
100
AcDbLayerTableRecord
  2
0
 70
0
 62
7
  6
CONTINUOUS
370
0
390
F
  0
LAYER
  5
43
100
AcDbSymbolTableRecord
100
AcDbLayerTableRecord
  2
BLACK
 70
0
 62
1
  6
CONTINUOUS
390
F
  0
LAYER
  5
44
100
AcDbSymbolTableRecord
100
AcDbLayerTableRecord
  2
BLUE
 70
0
 62
2
  6
CONTINUOUS
390
F
  0
LAYER
  5
45
100
AcDbSymbolTableRecord
100
AcDbLayerTableRecord
  2
GREEN
 70
0
 62
3
  6
CONTINUOUS
390
F
  0
LAYER
  5
46
100
AcDbSymbolTableRecord
100
AcDbLayerTableRecord
  2
CYAN
 70
0
 62
4
  6
CONTINUOUS
390
F
  0
LAYER
  5
47
100
AcDbSymbolTableRecord
100
AcDbLayerTableRecord
  2
RED
 70
0
 62
5
  6
CONTINUOUS
390
F
  0
LAYER
  5
48
100
AcDbSymbolTableRecord
100
AcDbLayerTableRecord
  2
MAGENTA
 70
0
 62
6
  6
CONTINUOUS
390
F
  0
LAYER
  5
49
100
AcDbSymbolTableRecord
100
AcDbLayerTableRecord
  2
BROWN
 70
0
 62
7
  6
CONTINUOUS
390
F
  0
LAYER
  5
4A
100
AcDbSymbolTableRecord
100
AcDbLayerTableRecord
  2
GRAY
 70
0
 62
8
  6
CONTINUOUS
390
F
  0
LAYER
  5
4B
100
AcDbSymbolTableRecord
100
AcDbLayerTableRecord
  2
DARKGRAY
 70
0
 62
9
  6
CONTINUOUS
390
F
  0
LAYER
  5
4C
100
AcDbSymbolTableRecord
100
AcDbLayerTableRecord
  2
LIGHTBLUE
 70
0
 62
1
  6
CONTINUOUS
390
F
  0
LAYER
  5
4D
100
AcDbSymbolTableRecord
100
AcDbLayerTableRecord
  2
LIGHTGREEN
 70
0
 62
11
  6
CONTINUOUS
390
F
  0
LAYER
  5
4E
100
AcDbSymbolTableRecord
100
AcDbLayerTableRecord
  2
LIGHTCYAN
 70
0
 62
12
  6
CONTINUOUS
390
F
  0
LAYER
  5
4F
100
AcDbSymbolTableRecord
100
AcDbLayerTableRecord
  2
LIGHTRED
 70
0
 62
13
  6
CONTINUOUS
390
F
  0
LAYER
  5
50
100
AcDbSymbolTableRecord
100
AcDbLayerTableRecord
  2
LIGHTMAGENTA
 70
0
 62
14
  6
CONTINUOUS
390
F
  0
LAYER
  5
51
100
AcDbSymbolTableRecord
100
AcDbLayerTableRecord
  2
YELLOW
 70
0
 62
15
  6
CONTINUOUS
390
F
  0
LAYER
  5
52
100
AcDbSymbolTableRecord
100
AcDbLayerTableRecord
  2
WHITE
 70
0
 62
16
  6
CONTINUOUS
390
F
  0
LAYER
  5
53
100
AcDbSymbolTableRecord
100
AcDbLayerTableRecord
  2
DARKDARKGRAY
 70
0
 62
17
  6
CONTINUOUS
390
F
  0
LAYER
  5
54
100
AcDbSymbolTableRecord
100
AcDbLayerTableRecord
  2
DARKBLUE
 70
0
 62
18
  6
CONTINUOUS
390
F
  0
LAYER
  5
55
100
AcDbSymbolTableRecord
100
AcDbLayerTableRecord
  2
DARKGREEN
 70
0
 62
19
  6
CONTINUOUS
390
F
  0
LAYER
  5
56
100
AcDbSymbolTableRecord
100
AcDbLayerTableRecord
  2
DARKCYAN
 70
0
 62
20
  6
CONTINUOUS
390
F
  0
LAYER
  5
57
100
AcDbSymbolTableRecord
100
AcDbLayerTableRecord
  2
DARKRED
 70
0
 62
21
  6
CONTINUOUS
390
F
  0
LAYER
  5
58
100
AcDbSymbolTableRecord
100
AcDbLayerTableRecord
  2
DARKMAGENTA
 70
0
 62
22
  6
CONTINUOUS
390
F
  0
LAYER
  5
59
100
AcDbSymbolTableRecord
100
AcDbLayerTableRecord
  2
DARKBROWN
 70
0
 62
23
  6
CONTINUOUS
390
F
  0
LAYER
  5
5A
100
AcDbSymbolTableRecord
100
AcDbLayerTableRecord
  2
LIGHTYELLOW
 70
0
 62
24
  6
CONTINUOUS
390
F
  0
ENDTAB
  0
TABLE
  2
STYLE
  5
3
100
AcDbSymbolTable
 70
1
  0
STYLE
  5
11
100
AcDbSymbolTableRecord
100
AcDbTextStyleTableRecord
  2
Standard
 70
0
 40
0.0
 41
0.75
 50
0.0
 71
0
 42
2.5
  3
txt
  4

  0
ENDTAB
  0
TABLE
  2
VIEW
  5
6
100
AcDbSymbolTable
 70
0
  0
ENDTAB
  0
TABLE
  2
UCS
  5
7
100
AcDbSymbolTable
 70
0
  0
ENDTAB
  0
TABLE
  2
APPID
  5
9
100
AcDbSymbolTable
 70
1
  0
APPID
  5
12
100
AcDbSymbolTableRecord
100
AcDbRegAppTableRecord
  2
ACAD
 70
0
  0
ENDTAB
  0
TABLE
  2
DIMSTYLE
  5
A
100
AcDbSymbolTable
 70
1
100
AcDbDimStyleTable
 71
0
  0
DIMSTYLE
105
27
100
AcDbSymbolTableRecord
100
AcDbDimStyleTableRecord
  2
Standard
 41
0.1
 42
0.025
 43
3.75
 44
0.05
 70
0
 73
0
 74
0
 77
1
 78
8
140
0.1
141
2.5
143
0.03937007874016
147
0.025
171
3
172
1
271
2
272
2
274
3
278
44
283
0
284
8
340
11
  0
ENDTAB
  0
TABLE
  2
BLOCK_RECORD
  5
1
100
AcDbSymbolTable
 70
1
  0
BLOCK_RECORD
  5
1F
100
AcDbSymbolTableRecord
100
AcDbBlockTableRecord
  2
*Model_Space
340
22
  0
BLOCK_RECORD
  5
1B
100
AcDbSymbolTableRecord
100
AcDbBlockTableRecord
  2
*Paper_Space
340
1E
  0
BLOCK_RECORD
  5
23
100
AcDbSymbolTableRecord
100
AcDbBlockTableRecord
  2
*Paper_Space0
340
26
  0
ENDTAB
  0
ENDSEC
  0
SECTION
  2
BLOCKS
  0
BLOCK
  5
20
100
AcDbEntity
  8
0
100
AcDbBlockBegin
  2
*Model_Space
 70
0
 10
0.0
 20
0.0
 30
0.0
  3
*Model_Space
  1

  0
ENDBLK
  5
21
100
AcDbEntity
  8
0
100
AcDbBlockEnd
  0
BLOCK
  5
1C
100
AcDbEntity
 67
1
  8
0
100
AcDbBlockBegin
  2
*Paper_Space
 70
0
 10
0.0
 20
0.0
 30
0.0
  3
*Paper_Space
  1

  0
ENDBLK
  5
1D
100
AcDbEntity
 67
1
  8
0
100
AcDbBlockEnd
  0
BLOCK
  5
24
100
AcDbEntity
  8
0
100
AcDbBlockBegin
  2
*Paper_Space0
 70
0
 10
0.0
 20
0.0
 30
0.0
  3
*Paper_Space0
  1

  0
ENDBLK
  5
25
100
AcDbEntity
  8
0
100
AcDbBlockEnd
  0
ENDSEC
  0
SECTION
  2
ENTITIES
  0
LINE
  5
5B
100
AcDbEntity
100
AcDbLine
  8
BLACK
 62
256
370
-1
  6
ByLayer
 10
4.6000000000000005
 20
0.0
 30
0.0
 11
0.0
 21
0.0
 31
0.0
  0
LINE
  5
5C
100
AcDbEntity
100
AcDbLine
  8
BLACK
 62
256
370
-1
  6
ByLayer
 10
0.0
 20
2.1000000000000001
 30
0.0
 11
4.6000000000000005
 21
2.1000000000000001
 31
0.0
  0
LINE
  5
5D
100
AcDbEntity
100
AcDbLine
  8
BLACK
 62
256
370
-1
  6
ByLayer
 10
0.0
 20
2.1000000000000001
 30
0.0
 11
0.0
 21
0.0
 31
0.0
  0
LINE
  5
5E
100
AcDbEntity
100
AcDbLine
  8
BLACK
 62
256
370
-1
  6
ByLayer
 10
4.6000000000000005
 20
0.0
 30
0.0
 11
4.6000000000000005
 21
2.1000000000000001
 31
0.0
  0
LINE
  5
5F
100
AcDbEntity
100
AcDbLine
  8
BLACK
 62
256
370
-1
  6
ByLayer
 10
3.4700000000000002
 20
1.1950000000000001
 30
0.0
 11
3.4100000000000001
 21
1.1950000000000001
 31
0.0
  0
LINE
  5
60
100
AcDbEntity
100
AcDbLine
  8
BLACK
 62
256
370
-1
  6
ByLayer
 10
3.4100000000000001
 20
1.1950000000000001
 30
0.0
 11
3.4100000000000001
 21
1.3050000000000002
 31
0.0
  0
LINE
  5
61
100
AcDbEntity
100
AcDbLine
  8
BLACK
 62
256
370
-1
  6
ByLayer
 10
3.4100000000000001
 20
1.3050000000000002
 30
0.0
 11
3.4700000000000002
 21
1.3050000000000002
 31
0.0
  0
LINE
  5
62
100
AcDbEntity
100
AcDbLine
  8
BLACK
 62
256
370
-1
  6
ByLayer
 10
3.5300000000000002
 20
1.3050000000000002
 30
0.0
 11
3.5900000000000003
 21
1.3050000000000002
 31
0.0
  0
LINE
  5
63
100
AcDbEntity
100
AcDbLine
  8
BLACK
 62
256
370
-1
  6
ByLayer
 10
3.5900000000000003
 20
1.3050000000000002
 30
0.0
 11
3.5900000000000003
 21
1.1950000000000001
 31
0.0
  0
LINE
  5
64
100
AcDbEntity
100
AcDbLine
  8
BLACK
 62
256
370
-1
  6
ByLayer
 10
3.5900000000000003
 20
1.1950000000000001
 30
0.0
 11
3.5300000000000002
 21
1.1950000000000001
 31
0.0
  0
CIRCLE
  5
65
100
AcDbEntity
100
AcDbCircle
  8
BLACK
 62
256
370
-1
  6
ByLayer
 10
2.3250000000000002
 20
1.1000000000000001
 30
0.0
 40
0.0353
  0
LINE
  5
66
100
AcDbEntity
100
AcDbLine
  8
BLACK
 62
256
370
-1
  6
ByLayer
 10
2.375
 20
1.2
 30
0.0
 11
2.375
 21
1.05
 31
0.0
  0
LINE
  5
67
100
AcDbEntity
100
AcDbLine
  8
BLACK
 62
256
370
-1
  6
ByLayer
 10
2.375
 20
1.05
 30
0.0
 11
1.925
 21
1.05
 31
0.0
  0
LINE
  5
68
100
AcDbEntity
100
AcDbLine
  8
BLACK
 62
256
370
-1
  6
ByLayer
 10
1.925
 20
1.05
 30
0.0
 11
1.925
 21
1.2
 31
0.0
  0
LINE
  5
69
100
AcDbEntity
100
AcDbLine
  8
BLACK
 62
256
370
-1
  6
ByLayer
 10
1.925
 20
1.2
 30
0.0
 11
2.375
 21
1.2
 31
0.0
  0
LINE
  5
6A
100
AcDbEntity
100
AcDbLine
  8
BLACK
 62
256
370
-1
  6
ByLayer
 10
0.8300000000000001
 20
0.295
 30
0.0
 11
0.8300000000000001
 21
0.235
 31
0.0
  0
LINE
  5
6B
100
AcDbEntity
100
AcDbLine
  8
BLACK
 62
256
370
-1
  6
ByLayer
 10
0.8300000000000001
 20
0.235
 30
0.0
 11
0.7200000000000001
 21
0.235
 31
0.0
  0
LINE
  5
6C
100
AcDbEntity
100
AcDbLine
  8
BLACK
 62
256
370
-1
  6
ByLayer
 10
0.7200000000000001
 20
0.235
 30
0.0
 11
0.7200000000000001
 21
0.295
 31
0.0
  0
LINE
  5
6D
100
AcDbEntity
100
AcDbLine
  8
BLACK
 62
256
370
-1
  6
ByLayer
 10
0.7200000000000001
 20
0.355
 30
0.0
 11
0.7200000000000001
 21
0.415
 31
0.0
  0
LINE
  5
6E
100
AcDbEntity
100
AcDbLine
  8
BLACK
 62
256
370
-1
  6
ByLayer
 10
0.7200000000000001
 20
0.415
 30
0.0
 11
0.8300000000000001
 21
0.415
 31
0.0
  0
LINE
  5
6F
100
AcDbEntity
100
AcDbLine
  8
BLACK
 62
256
370
-1
  6
ByLayer
 10
0.8300000000000001
 20
0.415
 30
0.0
 11
0.8300000000000001
 21
0.355
 31
0.0
  0
LINE
  5
70
100
AcDbEntity
100
AcDbLine
  8
BLACK
 62
256
370
-1
  6
ByLayer
 10
0.8300000000000001
 20
0.545
 30
0.0
 11
0.8300000000000001
 21
0.485
 31
0.0
  0
LINE
  5
71
100
AcDbEntity
100
AcDbLine
  8
BLACK
 62
256
370
-1
  6
ByLayer
 10
0.8300000000000001
 20
0.485
 30
0.0
 11
0.7200000000000001
 21
0.485
 31
0.0
  0
LINE
  5
72
100
AcDbEntity
100
AcDbLine
  8
BLACK
 62
256
370
-1
  6
ByLayer
 10
0.7200000000000001
 20
0.485
 30
0.0
 11
0.7200000000000001
 21
0.545
 31
0.0
  0
LINE
  5
73
100
AcDbEntity
100
AcDbLine
  8
BLACK
 62
256
370
-1
  6
ByLayer
 10
0.7200000000000001
 20
0.605
 30
0.0
 11
0.7200000000000001
 21
0.665
 31
0.0
  0
LINE
  5
74
100
AcDbEntity
100
AcDbLine
  8
BLACK
 62
256
370
-1
  6
ByLayer
 10
0.7200000000000001
 20
0.665
 30
0.0
 11
0.8300000000000001
 21
0.665
 31
0.0
  0
LINE
  5
75
100
AcDbEntity
100
AcDbLine
  8
BLACK
 62
256
370
-1
  6
ByLayer
 10
0.8300000000000001
 20
0.665
 30
0.0
 11
0.8300000000000001
 21
0.605
 31
0.0
  0
CIRCLE
  5
76
100
AcDbEntity
100
AcDbCircle
  8
BLACK
 62
256
370
-1
  6
ByLayer
 10
3.6000000000000001
 20
1.1000000000000001
 30
0.0
 40
0.025
  0
LINE
  5
77
100
AcDbEntity
100
AcDbLine
  8
BLACK
 62
256
370
-1
  6
ByLayer
 10
3.3500000000000001
 20
1.1500000000000001
 30
0.0
 11
3.6500000000000004
 21
1.1500000000000001
 31
0.0
  0
LINE
  5
78
100
AcDbEntity
100
AcDbLine
  8
BLACK
 62
256
370
-1
  6
ByLayer
 10
3.6500000000000004
 20
1.1500000000000001
 30
0.0
 11
3.6500000000000004
 21
0.5
 31
0.0
  0
LINE
  5
79
100
AcDbEntity
100
AcDbLine
  8
BLACK
 62
256
370
-1
  6
ByLayer
 10
3.6500000000000004
 20
0.5
 30
0.0
 11
3.3500000000000001
 21
0.5
 31
0.0
  0
LINE
  5
7A
100
AcDbEntity
100
AcDbLine
  8
BLACK
 62
256
370
-1
  6
ByLayer
 10
3.3500000000000001
 20
0.5
 30
0.0
 11
3.3500000000000001
 21
1.1500000000000001
 31
0.0
  0
CIRCLE
  5
7B
100
AcDbEntity
100
AcDbCircle
  8
BLACK
 62
256
370
-1
  6
ByLayer
 10
1.0250000000000001
 20
0.25
 30
0.0
 40
0.025
  0
LINE
  5
7C
100
AcDbEntity
100
AcDbLine
  8
BLACK
 62
256
370
-1
  6
ByLayer
 10
1.1000000000000001
 20
0.225
 30
0.0
 11
1.0
 21
0.225
 31
0.0
  0
LINE
  5
7D
100
AcDbEntity
100
AcDbLine
  8
BLACK
 62
256
370
-1
  6
ByLayer
 10
1.0
 20
0.225
 30
0.0
 11
1.0
 21
0.675
 31
0.0
  0
LINE
  5
7E
100
AcDbEntity
100
AcDbLine
  8
BLACK
 62
256
370
-1
  6
ByLayer
 10
1.0
 20
0.675
 30
0.0
 11
1.1000000000000001
 21
0.675
 31
0.0
  0
LINE
  5
7F
100
AcDbEntity
100
AcDbLine
  8
BLACK
 62
256
370
-1
  6
ByLayer
 10
1.1000000000000001
 20
0.675
 30
0.0
 11
1.1000000000000001
 21
0.225
 31
0.0
  0
LINE
  5
80
100
AcDbEntity
100
AcDbLine
  8
BLACK
 62
256
370
-1
  6
ByLayer
 10
3.5066000000000002
 20
1.3376000000000001
 30
0.0
 11
3.5085000000000002
 21
1.3357000000000001
 31
0.0
  0
LINE
  5
81
100
AcDbEntity
100
AcDbLine
  8
BLACK
 62
256
370
-1
  6
ByLayer
 10
3.5085000000000002
 20
1.3357000000000001
 30
0.0
 11
3.5142000000000002
 21
1.3338000000000001
 31
0.0
  0
LINE
  5
82
100
AcDbEntity
100
AcDbLine
  8
BLACK
 62
256
370
-1
  6
ByLayer
 10
3.5142000000000002
 20
1.3338000000000001
 30
0.0
 11
3.5180000000000002
 21
1.3338000000000001
 31
0.0
  0
LINE
  5
83
100
AcDbEntity
100
AcDbLine
  8
BLACK
 62
256
370
-1
  6
ByLayer
 10
3.5180000000000002
 20
1.3338000000000001
 30
0.0
 11
3.5238
 21
1.3357000000000001
 31
0.0
  0
LINE
  5
84
100
AcDbEntity
100
AcDbLine
  8
BLACK
 62
256
370
-1
  6
ByLayer
 10
3.5238
 20
1.3357000000000001
 30
0.0
 11
3.5276000000000001
 21
1.3395000000000001
 31
0.0
  0
LINE
  5
85
100
AcDbEntity
100
AcDbLine
  8
BLACK
 62
256
370
-1
  6
ByLayer
 10
3.5276000000000001
 20
1.3395000000000001
 30
0.0
 11
3.5295000000000001
 21
1.3433000000000002
 31
0.0
  0
LINE
  5
86
100
AcDbEntity
100
AcDbLine
  8
BLACK
 62
256
370
-1
  6
ByLayer
 10
3.5295000000000001
 20
1.3433000000000002
 30
0.0
 11
3.5314000000000001
 21
1.351
 31
0.0
  0
LINE
  5
87
100
AcDbEntity
100
AcDbLine
  8
BLACK
 62
256
370
-1
  6
ByLayer
 10
3.5314000000000001
 20
1.351
 30
0.0
 11
3.5314000000000001
 21
1.3567
 31
0.0
  0
LINE
  5
88
100
AcDbEntity
100
AcDbLine
  8
BLACK
 62
256
370
-1
  6
ByLayer
 10
3.5314000000000001
 20
1.3567
 30
0.0
 11
3.5295000000000001
 21
1.3643000000000001
 31
0.0
  0
LINE
  5
89
100
AcDbEntity
100
AcDbLine
  8
BLACK
 62
256
370
-1
  6
ByLayer
 10
3.5295000000000001
 20
1.3643000000000001
 30
0.0
 11
3.5276000000000001
 21
1.3681000000000001
 31
0.0
  0
LINE
  5
8A
100
AcDbEntity
100
AcDbLine
  8
BLACK
 62
256
370
-1
  6
ByLayer
 10
3.5276000000000001
 20
1.3681000000000001
 30
0.0
 11
3.5238
 21
1.3719000000000001
 31
0.0
  0
LINE
  5
8B
100
AcDbEntity
100
AcDbLine
  8
BLACK
 62
256
370
-1
  6
ByLayer
 10
3.5238
 20
1.3719000000000001
 30
0.0
 11
3.5180000000000002
 21
1.3738000000000001
 31
0.0
  0
LINE
  5
8C
100
AcDbEntity
100
AcDbLine
  8
BLACK
 62
256
370
-1
  6
ByLayer
 10
3.5180000000000002
 20
1.3738000000000001
 30
0.0
 11
3.5142000000000002
 21
1.3738000000000001
 31
0.0
  0
LINE
  5
8D
100
AcDbEntity
100
AcDbLine
  8
BLACK
 62
256
370
-1
  6
ByLayer
 10
3.5142000000000002
 20
1.3738000000000001
 30
0.0
 11
3.5085000000000002
 21
1.3719000000000001
 31
0.0
  0
LINE
  5
8E
100
AcDbEntity
100
AcDbLine
  8
BLACK
 62
256
370
-1
  6
ByLayer
 10
3.5085000000000002
 20
1.3719000000000001
 30
0.0
 11
3.5066000000000002
 21
1.3700000000000001
 31
0.0
  0
LINE
  5
8F
100
AcDbEntity
100
AcDbLine
  8
BLACK
 62
256
370
-1
  6
ByLayer
 10
3.4685000000000001
 20
1.3338000000000001
 30
0.0
 11
3.4914000000000001
 21
1.3338000000000001
 31
0.0
  0
LINE
  5
90
100
AcDbEntity
100
AcDbLine
  8
BLACK
 62
256
370
-1
  6
ByLayer
 10
3.48
 20
1.3338000000000001
 30
0.0
 11
3.48
 21
1.3738000000000001
 31
0.0
  0
LINE
  5
91
100
AcDbEntity
100
AcDbLine
  8
BLACK
 62
256
370
-1
  6
ByLayer
 10
3.48
 20
1.3738000000000001
 30
0.0
 11
3.4838
 21
1.3681000000000001
 31
0.0
  0
LINE
  5
92
100
AcDbEntity
100
AcDbLine
  8
BLACK
 62
256
370
-1
  6
ByLayer
 10
3.4838
 20
1.3681000000000001
 30
0.0
 11
3.4876
 21
1.3643000000000001
 31
0.0
  0
LINE
  5
93
100
AcDbEntity
100
AcDbLine
  8
BLACK
 62
256
370
-1
  6
ByLayer
 10
3.4876
 20
1.3643000000000001
 30
0.0
 11
3.4914000000000001
 21
1.3624000000000001
 31
0.0
  0
LINE
  5
94
100
AcDbEntity
100
AcDbLine
  8
BLACK
 62
256
370
-1
  6
ByLayer
 10
3.4821
 20
1.2992000000000001
 30
0.0
 11
3.4821
 21
1.2964
 31
0.0
  0
LINE
  5
95
100
AcDbEntity
100
AcDbLine
  8
BLACK
 62
256
370
-1
  6
ByLayer
 10
3.4821
 20
1.2964
 30
0.0
 11
3.4836
 21
1.2935000000000001
 31
0.0
  0
LINE
  5
96
100
AcDbEntity
100
AcDbLine
  8
BLACK
 62
256
370
-1
  6
ByLayer
 10
3.4836
 20
1.2935000000000001
 30
0.0
 11
3.4850000000000003
 21
1.2921
 31
0.0
  0
LINE
  5
97
100
AcDbEntity
100
AcDbLine
  8
BLACK
 62
256
370
-1
  6
ByLayer
 10
3.4850000000000003
 20
1.2921
 30
0.0
 11
3.4879000000000002
 21
1.2907
 31
0.0
  0
LINE
  5
98
100
AcDbEntity
100
AcDbLine
  8
BLACK
 62
256
370
-1
  6
ByLayer
 10
3.4879000000000002
 20
1.2907
 30
0.0
 11
3.4936000000000003
 21
1.2892000000000001
 31
0.0
  0
LINE
  5
99
100
AcDbEntity
100
AcDbLine
  8
BLACK
 62
256
370
-1
  6
ByLayer
 10
3.4936000000000003
 20
1.2892000000000001
 30
0.0
 11
3.5007000000000001
 21
1.2892000000000001
 31
0.0
  0
LINE
  5
9A
100
AcDbEntity
100
AcDbLine
  8
BLACK
 62
256
370
-1
  6
ByLayer
 10
3.5007000000000001
 20
1.2892000000000001
 30
0.0
 11
3.5064000000000002
 21
1.2907
 31
0.0
  0
LINE
  5
9B
100
AcDbEntity
100
AcDbLine
  8
BLACK
 62
256
370
-1
  6
ByLayer
 10
3.5064000000000002
 20
1.2907
 30
0.0
 11
3.5093000000000001
 21
1.2921
 31
0.0
  0
LINE
  5
9C
100
AcDbEntity
100
AcDbLine
  8
BLACK
 62
256
370
-1
  6
ByLayer
 10
3.5093000000000001
 20
1.2921
 30
0.0
 11
3.5107000000000004
 21
1.2935000000000001
 31
0.0
  0
LINE
  5
9D
100
AcDbEntity
100
AcDbLine
  8
BLACK
 62
256
370
-1
  6
ByLayer
 10
3.5107000000000004
 20
1.2935000000000001
 30
0.0
 11
3.5121000000000002
 21
1.2964
 31
0.0
  0
LINE
  5
9E
100
AcDbEntity
100
AcDbLine
  8
BLACK
 62
256
370
-1
  6
ByLayer
 10
3.5121000000000002
 20
1.2964
 30
0.0
 11
3.5121000000000002
 21
1.2992000000000001
 31
0.0
  0
LINE
  5
9F
100
AcDbEntity
100
AcDbLine
  8
BLACK
 62
256
370
-1
  6
ByLayer
 10
3.5121000000000002
 20
1.2992000000000001
 30
0.0
 11
3.5107000000000004
 21
1.3021
 31
0.0
  0
LINE
  5
A0
100
AcDbEntity
100
AcDbLine
  8
BLACK
 62
256
370
-1
  6
ByLayer
 10
3.5107000000000004
 20
1.3021
 30
0.0
 11
3.5093000000000001
 21
1.3035000000000001
 31
0.0
  0
LINE
  5
A1
100
AcDbEntity
100
AcDbLine
  8
BLACK
 62
256
370
-1
  6
ByLayer
 10
3.5093000000000001
 20
1.3035000000000001
 30
0.0
 11
3.5064000000000002
 21
1.3050000000000002
 31
0.0
  0
LINE
  5
A2
100
AcDbEntity
100
AcDbLine
  8
BLACK
 62
256
370
-1
  6
ByLayer
 10
3.5064000000000002
 20
1.3050000000000002
 30
0.0
 11
3.5007000000000001
 21
1.3064
 31
0.0
  0
LINE
  5
A3
100
AcDbEntity
100
AcDbLine
  8
BLACK
 62
256
370
-1
  6
ByLayer
 10
3.5007000000000001
 20
1.3064
 30
0.0
 11
3.4936000000000003
 21
1.3064
 31
0.0
  0
LINE
  5
A4
100
AcDbEntity
100
AcDbLine
  8
BLACK
 62
256
370
-1
  6
ByLayer
 10
3.4936000000000003
 20
1.3064
 30
0.0
 11
3.4879000000000002
 21
1.3050000000000002
 31
0.0
  0
LINE
  5
A5
100
AcDbEntity
100
AcDbLine
  8
BLACK
 62
256
370
-1
  6
ByLayer
 10
3.4879000000000002
 20
1.3050000000000002
 30
0.0
 11
3.4850000000000003
 21
1.3035000000000001
 31
0.0
  0
LINE
  5
A6
100
AcDbEntity
100
AcDbLine
  8
BLACK
 62
256
370
-1
  6
ByLayer
 10
3.4850000000000003
 20
1.3035000000000001
 30
0.0
 11
3.4836
 21
1.3021
 31
0.0
  0
LINE
  5
A7
100
AcDbEntity
100
AcDbLine
  8
BLACK
 62
256
370
-1
  6
ByLayer
 10
3.4836
 20
1.3021
 30
0.0
 11
3.4821
 21
1.2992000000000001
 31
0.0
  0
LINE
  5
A8
100
AcDbEntity
100
AcDbLine
  8
BLACK
 62
256
370
-1
  6
ByLayer
 10
3.5093000000000001
 20
1.2764
 30
0.0
 11
3.5107000000000004
 21
1.2749000000000001
 31
0.0
  0
LINE
  5
A9
100
AcDbEntity
100
AcDbLine
  8
BLACK
 62
256
370
-1
  6
ByLayer
 10
3.5107000000000004
 20
1.2749000000000001
 30
0.0
 11
3.5121000000000002
 21
1.2764
 31
0.0
  0
LINE
  5
AA
100
AcDbEntity
100
AcDbLine
  8
BLACK
 62
256
370
-1
  6
ByLayer
 10
3.5121000000000002
 20
1.2764
 30
0.0
 11
3.5107000000000004
 21
1.2778
 31
0.0
  0
LINE
  5
AB
100
AcDbEntity
100
AcDbLine
  8
BLACK
 62
256
370
-1
  6
ByLayer
 10
3.5107000000000004
 20
1.2778
 30
0.0
 11
3.5093000000000001
 21
1.2764
 31
0.0
  0
LINE
  5
AC
100
AcDbEntity
100
AcDbLine
  8
BLACK
 62
256
370
-1
  6
ByLayer
 10
3.5093000000000001
 20
1.2764
 30
0.0
 11
3.5121000000000002
 21
1.2764
 31
0.0
  0
LINE
  5
AD
100
AcDbEntity
100
AcDbLine
  8
BLACK
 62
256
370
-1
  6
ByLayer
 10
3.5121000000000002
 20
1.2463
 30
0.0
 11
3.5121000000000002
 21
1.2635000000000001
 31
0.0
  0
LINE
  5
AE
100
AcDbEntity
100
AcDbLine
  8
BLACK
 62
256
370
-1
  6
ByLayer
 10
3.5121000000000002
 20
1.2549000000000001
 30
0.0
 11
3.4821
 21
1.2549000000000001
 31
0.0
  0
LINE
  5
AF
100
AcDbEntity
100
AcDbLine
  8
BLACK
 62
256
370
-1
  6
ByLayer
 10
3.4821
 20
1.2549000000000001
 30
0.0
 11
3.4864000000000002
 21
1.2578
 31
0.0
  0
LINE
  5
B0
100
AcDbEntity
100
AcDbLine
  8
BLACK
 62
256
370
-1
  6
ByLayer
 10
3.4864000000000002
 20
1.2578
 30
0.0
 11
3.4893000000000001
 21
1.2606000000000002
 31
0.0
  0
LINE
  5
B1
100
AcDbEntity
100
AcDbLine
  8
BLACK
 62
256
370
-1
  6
ByLayer
 10
3.4893000000000001
 20
1.2606000000000002
 30
0.0
 11
3.4907000000000004
 21
1.2635000000000001
 31
0.0
  0
LINE
  5
B2
100
AcDbEntity
100
AcDbLine
  8
BLACK
 62
256
370
-1
  6
ByLayer
 10
3.4921000000000002
 20
1.2206000000000001
 30
0.0
 11
3.5121000000000002
 21
1.2206000000000001
 31
0.0
  0
LINE
  5
B3
100
AcDbEntity
100
AcDbLine
  8
BLACK
 62
256
370
-1
  6
ByLayer
 10
3.4921000000000002
 20
1.2335
 30
0.0
 11
3.5079000000000002
 21
1.2335
 31
0.0
  0
LINE
  5
B4
100
AcDbEntity
100
AcDbLine
  8
BLACK
 62
256
370
-1
  6
ByLayer
 10
3.5079000000000002
 20
1.2335
 30
0.0
 11
3.5107000000000004
 21
1.232
 31
0.0
  0
LINE
  5
B5
100
AcDbEntity
100
AcDbLine
  8
BLACK
 62
256
370
-1
  6
ByLayer
 10
3.5107000000000004
 20
1.232
 30
0.0
 11
3.5121000000000002
 21
1.2292000000000001
 31
0.0
  0
LINE
  5
B6
100
AcDbEntity
100
AcDbLine
  8
BLACK
 62
256
370
-1
  6
ByLayer
 10
3.5121000000000002
 20
1.2292000000000001
 30
0.0
 11
3.5121000000000002
 21
1.2249000000000001
 31
0.0
  0
LINE
  5
B7
100
AcDbEntity
100
AcDbLine
  8
BLACK
 62
256
370
-1
  6
ByLayer
 10
3.5121000000000002
 20
1.2249000000000001
 30
0.0
 11
3.5107000000000004
 21
1.222
 31
0.0
  0
LINE
  5
B8
100
AcDbEntity
100
AcDbLine
  8
BLACK
 62
256
370
-1
  6
ByLayer
 10
3.5107000000000004
 20
1.222
 30
0.0
 11
3.5093000000000001
 21
1.2206000000000001
 31
0.0
  0
LINE
  5
B9
100
AcDbEntity
100
AcDbLine
  8
BLACK
 62
256
370
-1
  6
ByLayer
 10
3.4964
 20
1.1964000000000001
 30
0.0
 11
3.4964
 21
1.2064000000000001
 31
0.0
  0
LINE
  5
BA
100
AcDbEntity
100
AcDbLine
  8
BLACK
 62
256
370
-1
  6
ByLayer
 10
3.5121000000000002
 20
1.2064000000000001
 30
0.0
 11
3.4821
 21
1.2064000000000001
 31
0.0
  0
LINE
  5
BB
100
AcDbEntity
100
AcDbLine
  8
BLACK
 62
256
370
-1
  6
ByLayer
 10
3.4821
 20
1.2064000000000001
 30
0.0
 11
3.4821
 21
1.1921000000000002
 31
0.0
  0
LINE
  5
BC
100
AcDbEntity
100
AcDbLine
  8
BLACK
 62
256
370
-1
  6
ByLayer
 10
1.8912
 20
1.1516
 30
0.0
 11
1.8721000000000001
 21
1.165
 31
0.0
  0
LINE
  5
BD
100
AcDbEntity
100
AcDbLine
  8
BLACK
 62
256
370
-1
  6
ByLayer
 10
1.8912
 20
1.1745000000000001
 30
0.0
 11
1.8512000000000002
 21
1.1745000000000001
 31
0.0
  0
LINE
  5
BE
100
AcDbEntity
100
AcDbLine
  8
BLACK
 62
256
370
-1
  6
ByLayer
 10
1.8512000000000002
 20
1.1745000000000001
 30
0.0
 11
1.8512000000000002
 21
1.1592
 31
0.0
  0
LINE
  5
BF
100
AcDbEntity
100
AcDbLine
  8
BLACK
 62
256
370
-1
  6
ByLayer
 10
1.8512000000000002
 20
1.1592
 30
0.0
 11
1.8531000000000002
 21
1.1554
 31
0.0
  0
LINE
  5
C0
100
AcDbEntity
100
AcDbLine
  8
BLACK
 62
256
370
-1
  6
ByLayer
 10
1.8531000000000002
 20
1.1554
 30
0.0
 11
1.855
 21
1.1535
 31
0.0
  0
LINE
  5
C1
100
AcDbEntity
100
AcDbLine
  8
BLACK
 62
256
370
-1
  6
ByLayer
 10
1.855
 20
1.1535
 30
0.0
 11
1.8588
 21
1.1516
 31
0.0
  0
LINE
  5
C2
100
AcDbEntity
100
AcDbLine
  8
BLACK
 62
256
370
-1
  6
ByLayer
 10
1.8588
 20
1.1516
 30
0.0
 11
1.8645
 21
1.1516
 31
0.0
  0
LINE
  5
C3
100
AcDbEntity
100
AcDbLine
  8
BLACK
 62
256
370
-1
  6
ByLayer
 10
1.8645
 20
1.1516
 30
0.0
 11
1.8683000000000001
 21
1.1535
 31
0.0
  0
LINE
  5
C4
100
AcDbEntity
100
AcDbLine
  8
BLACK
 62
256
370
-1
  6
ByLayer
 10
1.8683000000000001
 20
1.1535
 30
0.0
 11
1.8702000000000001
 21
1.1554
 31
0.0
  0
LINE
  5
C5
100
AcDbEntity
100
AcDbLine
  8
BLACK
 62
256
370
-1
  6
ByLayer
 10
1.8702000000000001
 20
1.1554
 30
0.0
 11
1.8721000000000001
 21
1.1592
 31
0.0
  0
LINE
  5
C6
100
AcDbEntity
100
AcDbLine
  8
BLACK
 62
256
370
-1
  6
ByLayer
 10
1.8721000000000001
 20
1.1592
 30
0.0
 11
1.8721000000000001
 21
1.1745000000000001
 31
0.0
  0
LINE
  5
C7
100
AcDbEntity
100
AcDbLine
  8
BLACK
 62
256
370
-1
  6
ByLayer
 10
1.8912
 20
1.1345000000000001
 30
0.0
 11
1.8512000000000002
 21
1.1345000000000001
 31
0.0
  0
LINE
  5
C8
100
AcDbEntity
100
AcDbLine
  8
BLACK
 62
256
370
-1
  6
ByLayer
 10
1.8512000000000002
 20
1.1345000000000001
 30
0.0
 11
1.8512000000000002
 21
1.1192
 31
0.0
  0
LINE
  5
C9
100
AcDbEntity
100
AcDbLine
  8
BLACK
 62
256
370
-1
  6
ByLayer
 10
1.8512000000000002
 20
1.1192
 30
0.0
 11
1.8531000000000002
 21
1.1153999999999999
 31
0.0
  0
LINE
  5
CA
100
AcDbEntity
100
AcDbLine
  8
BLACK
 62
256
370
-1
  6
ByLayer
 10
1.8531000000000002
 20
1.1153999999999999
 30
0.0
 11
1.855
 21
1.1135000000000002
 31
0.0
  0
LINE
  5
CB
100
AcDbEntity
100
AcDbLine
  8
BLACK
 62
256
370
-1
  6
ByLayer
 10
1.855
 20
1.1135000000000002
 30
0.0
 11
1.8588
 21
1.1116000000000001
 31
0.0
  0
LINE
  5
CC
100
AcDbEntity
100
AcDbLine
  8
BLACK
 62
256
370
-1
  6
ByLayer
 10
1.8588
 20
1.1116000000000001
 30
0.0
 11
1.8645
 21
1.1116000000000001
 31
0.0
  0
LINE
  5
CD
100
AcDbEntity
100
AcDbLine
  8
BLACK
 62
256
370
-1
  6
ByLayer
 10
1.8645
 20
1.1116000000000001
 30
0.0
 11
1.8683000000000001
 21
1.1135000000000002
 31
0.0
  0
LINE
  5
CE
100
AcDbEntity
100
AcDbLine
  8
BLACK
 62
256
370
-1
  6
ByLayer
 10
1.8683000000000001
 20
1.1135000000000002
 30
0.0
 11
1.8702000000000001
 21
1.1153999999999999
 31
0.0
  0
LINE
  5
CF
100
AcDbEntity
100
AcDbLine
  8
BLACK
 62
256
370
-1
  6
ByLayer
 10
1.8702000000000001
 20
1.1153999999999999
 30
0.0
 11
1.8721000000000001
 21
1.1192
 31
0.0
  0
LINE
  5
D0
100
AcDbEntity
100
AcDbLine
  8
BLACK
 62
256
370
-1
  6
ByLayer
 10
1.8721000000000001
 20
1.1192
 30
0.0
 11
1.8721000000000001
 21
1.1345000000000001
 31
0.0
  0
LINE
  5
D1
100
AcDbEntity
100
AcDbLine
  8
BLACK
 62
256
370
-1
  6
ByLayer
 10
1.8912
 20
1.0735000000000001
 30
0.0
 11
1.8912
 21
1.0964
 31
0.0
  0
LINE
  5
D2
100
AcDbEntity
100
AcDbLine
  8
BLACK
 62
256
370
-1
  6
ByLayer
 10
1.8912
 20
1.085
 30
0.0
 11
1.8512000000000002
 21
1.085
 31
0.0
  0
LINE
  5
D3
100
AcDbEntity
100
AcDbLine
  8
BLACK
 62
256
370
-1
  6
ByLayer
 10
1.8512000000000002
 20
1.085
 30
0.0
 11
1.8569
 21
1.0888
 31
0.0
  0
LINE
  5
D4
100
AcDbEntity
100
AcDbLine
  8
BLACK
 62
256
370
-1
  6
ByLayer
 10
1.8569
 20
1.0888
 30
0.0
 11
1.8607
 21
1.0926
 31
0.0
  0
LINE
  5
D5
100
AcDbEntity
100
AcDbLine
  8
BLACK
 62
256
370
-1
  6
ByLayer
 10
1.8607
 20
1.0926
 30
0.0
 11
1.8626
 21
1.0964
 31
0.0
  0
LINE
  5
D6
100
AcDbEntity
100
AcDbLine
  8
BLACK
 62
256
370
-1
  6
ByLayer
 10
0.6874
 20
0.3316
 30
0.0
 11
0.6893
 21
0.3335
 31
0.0
  0
LINE
  5
D7
100
AcDbEntity
100
AcDbLine
  8
BLACK
 62
256
370
-1
  6
ByLayer
 10
0.6893
 20
0.3335
 30
0.0
 11
0.6912
 21
0.3392
 31
0.0
  0
LINE
  5
D8
100
AcDbEntity
100
AcDbLine
  8
BLACK
 62
256
370
-1
  6
ByLayer
 10
0.6912
 20
0.3392
 30
0.0
 11
0.6912
 21
0.343
 31
0.0
  0
LINE
  5
D9
100
AcDbEntity
100
AcDbLine
  8
BLACK
 62
256
370
-1
  6
ByLayer
 10
0.6912
 20
0.343
 30
0.0
 11
0.6893
 21
0.3488
 31
0.0
  0
LINE
  5
DA
100
AcDbEntity
100
AcDbLine
  8
BLACK
 62
256
370
-1
  6
ByLayer
 10
0.6893
 20
0.3488
 30
0.0
 11
0.6855
 21
0.3526
 31
0.0
  0
LINE
  5
DB
100
AcDbEntity
100
AcDbLine
  8
BLACK
 62
256
370
-1
  6
ByLayer
 10
0.6855
 20
0.3526
 30
0.0
 11
0.6817000000000001
 21
0.3545
 31
0.0
  0
LINE
  5
DC
100
AcDbEntity
100
AcDbLine
  8
BLACK
 62
256
370
-1
  6
ByLayer
 10
0.6817000000000001
 20
0.3545
 30
0.0
 11
0.674
 21
0.3564
 31
0.0
  0
LINE
  5
DD
100
AcDbEntity
100
AcDbLine
  8
BLACK
 62
256
370
-1
  6
ByLayer
 10
0.674
 20
0.3564
 30
0.0
 11
0.6683
 21
0.3564
 31
0.0
  0
LINE
  5
DE
100
AcDbEntity
100
AcDbLine
  8
BLACK
 62
256
370
-1
  6
ByLayer
 10
0.6683
 20
0.3564
 30
0.0
 11
0.6607000000000001
 21
0.3545
 31
0.0
  0
LINE
  5
DF
100
AcDbEntity
100
AcDbLine
  8
BLACK
 62
256
370
-1
  6
ByLayer
 10
0.6607000000000001
 20
0.3545
 30
0.0
 11
0.6569
 21
0.3526
 31
0.0
  0
LINE
  5
E0
100
AcDbEntity
100
AcDbLine
  8
BLACK
 62
256
370
-1
  6
ByLayer
 10
0.6569
 20
0.3526
 30
0.0
 11
0.6531
 21
0.3488
 31
0.0
  0
LINE
  5
E1
100
AcDbEntity
100
AcDbLine
  8
BLACK
 62
256
370
-1
  6
ByLayer
 10
0.6531
 20
0.3488
 30
0.0
 11
0.6512
 21
0.343
 31
0.0
  0
LINE
  5
E2
100
AcDbEntity
100
AcDbLine
  8
BLACK
 62
256
370
-1
  6
ByLayer
 10
0.6512
 20
0.343
 30
0.0
 11
0.6512
 21
0.3392
 31
0.0
  0
LINE
  5
E3
100
AcDbEntity
100
AcDbLine
  8
BLACK
 62
256
370
-1
  6
ByLayer
 10
0.6512
 20
0.3392
 30
0.0
 11
0.6531
 21
0.3335
 31
0.0
  0
LINE
  5
E4
100
AcDbEntity
100
AcDbLine
  8
BLACK
 62
256
370
-1
  6
ByLayer
 10
0.6531
 20
0.3335
 30
0.0
 11
0.655
 21
0.3316
 31
0.0
  0
LINE
  5
E5
100
AcDbEntity
100
AcDbLine
  8
BLACK
 62
256
370
-1
  6
ByLayer
 10
0.6912
 20
0.3126
 30
0.0
 11
0.6912
 21
0.305
 31
0.0
  0
LINE
  5
E6
100
AcDbEntity
100
AcDbLine
  8
BLACK
 62
256
370
-1
  6
ByLayer
 10
0.6912
 20
0.305
 30
0.0
 11
0.6893
 21
0.3011
 31
0.0
  0
LINE
  5
E7
100
AcDbEntity
100
AcDbLine
  8
BLACK
 62
256
370
-1
  6
ByLayer
 10
0.6893
 20
0.3011
 30
0.0
 11
0.6874
 21
0.2992
 31
0.0
  0
LINE
  5
E8
100
AcDbEntity
100
AcDbLine
  8
BLACK
 62
256
370
-1
  6
ByLayer
 10
0.6874
 20
0.2992
 30
0.0
 11
0.6817000000000001
 21
0.2954
 31
0.0
  0
LINE
  5
E9
100
AcDbEntity
100
AcDbLine
  8
BLACK
 62
256
370
-1
  6
ByLayer
 10
0.6817000000000001
 20
0.2954
 30
0.0
 11
0.674
 21
0.2935
 31
0.0
  0
LINE
  5
EA
100
AcDbEntity
100
AcDbLine
  8
BLACK
 62
256
370
-1
  6
ByLayer
 10
0.674
 20
0.2935
 30
0.0
 11
0.6588000000000001
 21
0.2935
 31
0.0
  0
LINE
  5
EB
100
AcDbEntity
100
AcDbLine
  8
BLACK
 62
256
370
-1
  6
ByLayer
 10
0.6588000000000001
 20
0.2935
 30
0.0
 11
0.655
 21
0.2954
 31
0.0
  0
LINE
  5
EC
100
AcDbEntity
100
AcDbLine
  8
BLACK
 62
256
370
-1
  6
ByLayer
 10
0.655
 20
0.2954
 30
0.0
 11
0.6531
 21
0.2973
 31
0.0
  0
LINE
  5
ED
100
AcDbEntity
100
AcDbLine
  8
BLACK
 62
256
370
-1
  6
ByLayer
 10
0.6531
 20
0.2973
 30
0.0
 11
0.6512
 21
0.3011
 31
0.0
  0
LINE
  5
EE
100
AcDbEntity
100
AcDbLine
  8
BLACK
 62
256
370
-1
  6
ByLayer
 10
0.6512
 20
0.3011
 30
0.0
 11
0.6512
 21
0.3088
 31
0.0
  0
LINE
  5
EF
100
AcDbEntity
100
AcDbLine
  8
BLACK
 62
256
370
-1
  6
ByLayer
 10
0.6512
 20
0.3088
 30
0.0
 11
0.6531
 21
0.3126
 31
0.0
  0
LINE
  5
F0
100
AcDbEntity
100
AcDbLine
  8
BLACK
 62
256
370
-1
  6
ByLayer
 10
0.6531
 20
0.3126
 30
0.0
 11
0.655
 21
0.3145
 31
0.0
  0
LINE
  5
F1
100
AcDbEntity
100
AcDbLine
  8
BLACK
 62
256
370
-1
  6
ByLayer
 10
0.655
 20
0.3145
 30
0.0
 11
0.6588000000000001
 21
0.3164
 31
0.0
  0
LINE
  5
F2
100
AcDbEntity
100
AcDbLine
  8
BLACK
 62
256
370
-1
  6
ByLayer
 10
0.6588000000000001
 20
0.3164
 30
0.0
 11
0.6683
 21
0.3164
 31
0.0
  0
LINE
  5
F3
100
AcDbEntity
100
AcDbLine
  8
BLACK
 62
256
370
-1
  6
ByLayer
 10
0.6683
 20
0.3164
 30
0.0
 11
0.6721
 21
0.3145
 31
0.0
  0
LINE
  5
F4
100
AcDbEntity
100
AcDbLine
  8
BLACK
 62
256
370
-1
  6
ByLayer
 10
0.6721
 20
0.3145
 30
0.0
 11
0.674
 21
0.3126
 31
0.0
  0
LINE
  5
F5
100
AcDbEntity
100
AcDbLine
  8
BLACK
 62
256
370
-1
  6
ByLayer
 10
0.674
 20
0.3126
 30
0.0
 11
0.676
 21
0.3088
 31
0.0
  0
LINE
  5
F6
100
AcDbEntity
100
AcDbLine
  8
BLACK
 62
256
370
-1
  6
ByLayer
 10
0.676
 20
0.3088
 30
0.0
 11
0.676
 21
0.3011
 31
0.0
  0
LINE
  5
F7
100
AcDbEntity
100
AcDbLine
  8
BLACK
 62
256
370
-1
  6
ByLayer
 10
0.676
 20
0.3011
 30
0.0
 11
0.674
 21
0.2973
 31
0.0
  0
LINE
  5
F8
100
AcDbEntity
100
AcDbLine
  8
BLACK
 62
256
370
-1
  6
ByLayer
 10
0.674
 20
0.2973
 30
0.0
 11
0.6721
 21
0.2954
 31
0.0
  0
LINE
  5
F9
100
AcDbEntity
100
AcDbLine
  8
BLACK
 62
256
370
-1
  6
ByLayer
 10
0.6721
 20
0.2954
 30
0.0
 11
0.6683
 21
0.2935
 31
0.0
  0
LINE
  5
FA
100
AcDbEntity
100
AcDbLine
  8
BLACK
 62
256
370
-1
  6
ByLayer
 10
0.7928000000000001
 20
0.3129
 30
0.0
 11
0.8100000000000001
 21
0.3129
 31
0.0
  0
LINE
  5
FB
100
AcDbEntity
100
AcDbLine
  8
BLACK
 62
256
370
-1
  6
ByLayer
 10
0.8014
 20
0.3129
 30
0.0
 11
0.8014
 21
0.3429
 31
0.0
  0
LINE
  5
FC
100
AcDbEntity
100
AcDbLine
  8
BLACK
 62
256
370
-1
  6
ByLayer
 10
0.8014
 20
0.3429
 30
0.0
 11
0.8043
 21
0.3386
 31
0.0
  0
LINE
  5
FD
100
AcDbEntity
100
AcDbLine
  8
BLACK
 62
256
370
-1
  6
ByLayer
 10
0.8043
 20
0.3386
 30
0.0
 11
0.8071
 21
0.3357
 31
0.0
  0
LINE
  5
FE
100
AcDbEntity
100
AcDbLine
  8
BLACK
 62
256
370
-1
  6
ByLayer
 10
0.8071
 20
0.3357
 30
0.0
 11
0.8100000000000001
 21
0.3343
 31
0.0
  0
LINE
  5
FF
100
AcDbEntity
100
AcDbLine
  8
BLACK
 62
256
370
-1
  6
ByLayer
 10
0.7671
 20
0.3329
 30
0.0
 11
0.7671
 21
0.3129
 31
0.0
  0
LINE
  5
100
100
AcDbEntity
100
AcDbLine
  8
BLACK
 62
256
370
-1
  6
ByLayer
 10
0.78
 20
0.3329
 30
0.0
 11
0.78
 21
0.3171
 31
0.0
  0
LINE
  5
101
100
AcDbEntity
100
AcDbLine
  8
BLACK
 62
256
370
-1
  6
ByLayer
 10
0.78
 20
0.3171
 30
0.0
 11
0.7785000000000001
 21
0.3143
 31
0.0
  0
LINE
  5
102
100
AcDbEntity
100
AcDbLine
  8
BLACK
 62
256
370
-1
  6
ByLayer
 10
0.7785000000000001
 20
0.3143
 30
0.0
 11
0.7757000000000001
 21
0.3129
 31
0.0
  0
LINE
  5
103
100
AcDbEntity
100
AcDbLine
  8
BLACK
 62
256
370
-1
  6
ByLayer
 10
0.7757000000000001
 20
0.3129
 30
0.0
 11
0.7714000000000001
 21
0.3129
 31
0.0
  0
LINE
  5
104
100
AcDbEntity
100
AcDbLine
  8
BLACK
 62
256
370
-1
  6
ByLayer
 10
0.7714000000000001
 20
0.3129
 30
0.0
 11
0.7685000000000001
 21
0.3143
 31
0.0
  0
LINE
  5
105
100
AcDbEntity
100
AcDbLine
  8
BLACK
 62
256
370
-1
  6
ByLayer
 10
0.7685000000000001
 20
0.3143
 30
0.0
 11
0.7671
 21
0.3157
 31
0.0
  0
LINE
  5
106
100
AcDbEntity
100
AcDbLine
  8
BLACK
 62
256
370
-1
  6
ByLayer
 10
0.7429
 20
0.3286
 30
0.0
 11
0.7529
 21
0.3286
 31
0.0
  0
LINE
  5
107
100
AcDbEntity
100
AcDbLine
  8
BLACK
 62
256
370
-1
  6
ByLayer
 10
0.7529
 20
0.3129
 30
0.0
 11
0.7529
 21
0.3429
 31
0.0
  0
LINE
  5
108
100
AcDbEntity
100
AcDbLine
  8
BLACK
 62
256
370
-1
  6
ByLayer
 10
0.7529
 20
0.3429
 30
0.0
 11
0.7386
 21
0.3429
 31
0.0
  0
LINE
  5
109
100
AcDbEntity
100
AcDbLine
  8
BLACK
 62
256
370
-1
  6
ByLayer
 10
0.6874
 20
0.6007
 30
0.0
 11
0.6893
 21
0.6026
 31
0.0
  0
LINE
  5
10A
100
AcDbEntity
100
AcDbLine
  8
BLACK
 62
256
370
-1
  6
ByLayer
 10
0.6893
 20
0.6026
 30
0.0
 11
0.6912
 21
0.6083000000000001
 31
0.0
  0
LINE
  5
10B
100
AcDbEntity
100
AcDbLine
  8
BLACK
 62
256
370
-1
  6
ByLayer
 10
0.6912
 20
0.6083000000000001
 30
0.0
 11
0.6912
 21
0.6121
 31
0.0
  0
LINE
  5
10C
100
AcDbEntity
100
AcDbLine
  8
BLACK
 62
256
370
-1
  6
ByLayer
 10
0.6912
 20
0.6121
 30
0.0
 11
0.6893
 21
0.6179
 31
0.0
  0
LINE
  5
10D
100
AcDbEntity
100
AcDbLine
  8
BLACK
 62
256
370
-1
  6
ByLayer
 10
0.6893
 20
0.6179
 30
0.0
 11
0.6855
 21
0.6217
 31
0.0
  0
LINE
  5
10E
100
AcDbEntity
100
AcDbLine
  8
BLACK
 62
256
370
-1
  6
ByLayer
 10
0.6855
 20
0.6217
 30
0.0
 11
0.6817000000000001
 21
0.6236
 31
0.0
  0
LINE
  5
10F
100
AcDbEntity
100
AcDbLine
  8
BLACK
 62
256
370
-1
  6
ByLayer
 10
0.6817000000000001
 20
0.6236
 30
0.0
 11
0.674
 21
0.6255000000000001
 31
0.0
  0
LINE
  5
110
100
AcDbEntity
100
AcDbLine
  8
BLACK
 62
256
370
-1
  6
ByLayer
 10
0.674
 20
0.6255000000000001
 30
0.0
 11
0.6683
 21
0.6255000000000001
 31
0.0
  0
LINE
  5
111
100
AcDbEntity
100
AcDbLine
  8
BLACK
 62
256
370
-1
  6
ByLayer
 10
0.6683
 20
0.6255000000000001
 30
0.0
 11
0.6607000000000001
 21
0.6236
 31
0.0
  0
LINE
  5
112
100
AcDbEntity
100
AcDbLine
  8
BLACK
 62
256
370
-1
  6
ByLayer
 10
0.6607000000000001
 20
0.6236
 30
0.0
 11
0.6569
 21
0.6217
 31
0.0
  0
LINE
  5
113
100
AcDbEntity
100
AcDbLine
  8
BLACK
 62
256
370
-1
  6
ByLayer
 10
0.6569
 20
0.6217
 30
0.0
 11
0.6531
 21
0.6179
 31
0.0
  0
LINE
  5
114
100
AcDbEntity
100
AcDbLine
  8
BLACK
 62
256
370
-1
  6
ByLayer
 10
0.6531
 20
0.6179
 30
0.0
 11
0.6512
 21
0.6121
 31
0.0
  0
LINE
  5
115
100
AcDbEntity
100
AcDbLine
  8
BLACK
 62
256
370
-1
  6
ByLayer
 10
0.6512
 20
0.6121
 30
0.0
 11
0.6512
 21
0.6083000000000001
 31
0.0
  0
LINE
  5
116
100
AcDbEntity
100
AcDbLine
  8
BLACK
 62
256
370
-1
  6
ByLayer
 10
0.6512
 20
0.6083000000000001
 30
0.0
 11
0.6531
 21
0.6026
 31
0.0
  0
LINE
  5
117
100
AcDbEntity
100
AcDbLine
  8
BLACK
 62
256
370
-1
  6
ByLayer
 10
0.6531
 20
0.6026
 30
0.0
 11
0.655
 21
0.6007
 31
0.0
  0
LINE
  5
118
100
AcDbEntity
100
AcDbLine
  8
BLACK
 62
256
370
-1
  6
ByLayer
 10
0.6912
 20
0.5626
 30
0.0
 11
0.6912
 21
0.5855
 31
0.0
  0
LINE
  5
119
100
AcDbEntity
100
AcDbLine
  8
BLACK
 62
256
370
-1
  6
ByLayer
 10
0.6912
 20
0.5741000000000001
 30
0.0
 11
0.6512
 21
0.5741000000000001
 31
0.0
  0
LINE
  5
11A
100
AcDbEntity
100
AcDbLine
  8
BLACK
 62
256
370
-1
  6
ByLayer
 10
0.6512
 20
0.5741000000000001
 30
0.0
 11
0.6569
 21
0.5779000000000001
 31
0.0
  0
LINE
  5
11B
100
AcDbEntity
100
AcDbLine
  8
BLACK
 62
256
370
-1
  6
ByLayer
 10
0.6569
 20
0.5779000000000001
 30
0.0
 11
0.6607000000000001
 21
0.5817
 31
0.0
  0
LINE
  5
11C
100
AcDbEntity
100
AcDbLine
  8
BLACK
 62
256
370
-1
  6
ByLayer
 10
0.6607000000000001
 20
0.5817
 30
0.0
 11
0.6626000000000001
 21
0.5855
 31
0.0
  0
LINE
  5
11D
100
AcDbEntity
100
AcDbLine
  8
BLACK
 62
256
370
-1
  6
ByLayer
 10
0.6512
 20
0.5379
 30
0.0
 11
0.6512
 21
0.534
 31
0.0
  0
LINE
  5
11E
100
AcDbEntity
100
AcDbLine
  8
BLACK
 62
256
370
-1
  6
ByLayer
 10
0.6512
 20
0.534
 30
0.0
 11
0.6531
 21
0.5302
 31
0.0
  0
LINE
  5
11F
100
AcDbEntity
100
AcDbLine
  8
BLACK
 62
256
370
-1
  6
ByLayer
 10
0.6531
 20
0.5302
 30
0.0
 11
0.655
 21
0.5283
 31
0.0
  0
LINE
  5
120
100
AcDbEntity
100
AcDbLine
  8
BLACK
 62
256
370
-1
  6
ByLayer
 10
0.655
 20
0.5283
 30
0.0
 11
0.6588000000000001
 21
0.5264
 31
0.0
  0
LINE
  5
121
100
AcDbEntity
100
AcDbLine
  8
BLACK
 62
256
370
-1
  6
ByLayer
 10
0.6588000000000001
 20
0.5264
 30
0.0
 11
0.6664
 21
0.5245000000000001
 31
0.0
  0
LINE
  5
122
100
AcDbEntity
100
AcDbLine
  8
BLACK
 62
256
370
-1
  6
ByLayer
 10
0.6664
 20
0.5245000000000001
 30
0.0
 11
0.676
 21
0.5245000000000001
 31
0.0
  0
LINE
  5
123
100
AcDbEntity
100
AcDbLine
  8
BLACK
 62
256
370
-1
  6
ByLayer
 10
0.676
 20
0.5245000000000001
 30
0.0
 11
0.6836
 21
0.5264
 31
0.0
  0
LINE
  5
124
100
AcDbEntity
100
AcDbLine
  8
BLACK
 62
256
370
-1
  6
ByLayer
 10
0.6836
 20
0.5264
 30
0.0
 11
0.6874
 21
0.5283
 31
0.0
  0
LINE
  5
125
100
AcDbEntity
100
AcDbLine
  8
BLACK
 62
256
370
-1
  6
ByLayer
 10
0.6874
 20
0.5283
 30
0.0
 11
0.6893
 21
0.5302
 31
0.0
  0
LINE
  5
126
100
AcDbEntity
100
AcDbLine
  8
BLACK
 62
256
370
-1
  6
ByLayer
 10
0.6893
 20
0.5302
 30
0.0
 11
0.6912
 21
0.534
 31
0.0
  0
LINE
  5
127
100
AcDbEntity
100
AcDbLine
  8
BLACK
 62
256
370
-1
  6
ByLayer
 10
0.6912
 20
0.534
 30
0.0
 11
0.6912
 21
0.5379
 31
0.0
  0
LINE
  5
128
100
AcDbEntity
100
AcDbLine
  8
BLACK
 62
256
370
-1
  6
ByLayer
 10
0.6912
 20
0.5379
 30
0.0
 11
0.6893
 21
0.5417000000000001
 31
0.0
  0
LINE
  5
129
100
AcDbEntity
100
AcDbLine
  8
BLACK
 62
256
370
-1
  6
ByLayer
 10
0.6893
 20
0.5417000000000001
 30
0.0
 11
0.6874
 21
0.5436
 31
0.0
  0
LINE
  5
12A
100
AcDbEntity
100
AcDbLine
  8
BLACK
 62
256
370
-1
  6
ByLayer
 10
0.6874
 20
0.5436
 30
0.0
 11
0.6836
 21
0.5455
 31
0.0
  0
LINE
  5
12B
100
AcDbEntity
100
AcDbLine
  8
BLACK
 62
256
370
-1
  6
ByLayer
 10
0.6836
 20
0.5455
 30
0.0
 11
0.676
 21
0.5474
 31
0.0
  0
LINE
  5
12C
100
AcDbEntity
100
AcDbLine
  8
BLACK
 62
256
370
-1
  6
ByLayer
 10
0.676
 20
0.5474
 30
0.0
 11
0.6664
 21
0.5474
 31
0.0
  0
LINE
  5
12D
100
AcDbEntity
100
AcDbLine
  8
BLACK
 62
256
370
-1
  6
ByLayer
 10
0.6664
 20
0.5474
 30
0.0
 11
0.6588000000000001
 21
0.5455
 31
0.0
  0
LINE
  5
12E
100
AcDbEntity
100
AcDbLine
  8
BLACK
 62
256
370
-1
  6
ByLayer
 10
0.6588000000000001
 20
0.5455
 30
0.0
 11
0.655
 21
0.5436
 31
0.0
  0
LINE
  5
12F
100
AcDbEntity
100
AcDbLine
  8
BLACK
 62
256
370
-1
  6
ByLayer
 10
0.655
 20
0.5436
 30
0.0
 11
0.6531
 21
0.5417000000000001
 31
0.0
  0
LINE
  5
130
100
AcDbEntity
100
AcDbLine
  8
BLACK
 62
256
370
-1
  6
ByLayer
 10
0.6531
 20
0.5417000000000001
 30
0.0
 11
0.6512
 21
0.5379
 31
0.0
  0
LINE
  5
131
100
AcDbEntity
100
AcDbLine
  8
BLACK
 62
256
370
-1
  6
ByLayer
 10
0.7928000000000001
 20
0.5629000000000001
 30
0.0
 11
0.8100000000000001
 21
0.5629000000000001
 31
0.0
  0
LINE
  5
132
100
AcDbEntity
100
AcDbLine
  8
BLACK
 62
256
370
-1
  6
ByLayer
 10
0.8014
 20
0.5629000000000001
 30
0.0
 11
0.8014
 21
0.5929
 31
0.0
  0
LINE
  5
133
100
AcDbEntity
100
AcDbLine
  8
BLACK
 62
256
370
-1
  6
ByLayer
 10
0.8014
 20
0.5929
 30
0.0
 11
0.8043
 21
0.5886
 31
0.0
  0
LINE
  5
134
100
AcDbEntity
100
AcDbLine
  8
BLACK
 62
256
370
-1
  6
ByLayer
 10
0.8043
 20
0.5886
 30
0.0
 11
0.8071
 21
0.5857
 31
0.0
  0
LINE
  5
135
100
AcDbEntity
100
AcDbLine
  8
BLACK
 62
256
370
-1
  6
ByLayer
 10
0.8071
 20
0.5857
 30
0.0
 11
0.8100000000000001
 21
0.5843
 31
0.0
  0
LINE
  5
136
100
AcDbEntity
100
AcDbLine
  8
BLACK
 62
256
370
-1
  6
ByLayer
 10
0.7671
 20
0.5829
 30
0.0
 11
0.7671
 21
0.5629000000000001
 31
0.0
  0
LINE
  5
137
100
AcDbEntity
100
AcDbLine
  8
BLACK
 62
256
370
-1
  6
ByLayer
 10
0.78
 20
0.5829
 30
0.0
 11
0.78
 21
0.5671
 31
0.0
  0
LINE
  5
138
100
AcDbEntity
100
AcDbLine
  8
BLACK
 62
256
370
-1
  6
ByLayer
 10
0.78
 20
0.5671
 30
0.0
 11
0.7785000000000001
 21
0.5643
 31
0.0
  0
LINE
  5
139
100
AcDbEntity
100
AcDbLine
  8
BLACK
 62
256
370
-1
  6
ByLayer
 10
0.7785000000000001
 20
0.5643
 30
0.0
 11
0.7757000000000001
 21
0.5629000000000001
 31
0.0
  0
LINE
  5
13A
100
AcDbEntity
100
AcDbLine
  8
BLACK
 62
256
370
-1
  6
ByLayer
 10
0.7757000000000001
 20
0.5629000000000001
 30
0.0
 11
0.7714000000000001
 21
0.5629000000000001
 31
0.0
  0
LINE
  5
13B
100
AcDbEntity
100
AcDbLine
  8
BLACK
 62
256
370
-1
  6
ByLayer
 10
0.7714000000000001
 20
0.5629000000000001
 30
0.0
 11
0.7685000000000001
 21
0.5643
 31
0.0
  0
LINE
  5
13C
100
AcDbEntity
100
AcDbLine
  8
BLACK
 62
256
370
-1
  6
ByLayer
 10
0.7685000000000001
 20
0.5643
 30
0.0
 11
0.7671
 21
0.5657
 31
0.0
  0
LINE
  5
13D
100
AcDbEntity
100
AcDbLine
  8
BLACK
 62
256
370
-1
  6
ByLayer
 10
0.7429
 20
0.5786
 30
0.0
 11
0.7529
 21
0.5786
 31
0.0
  0
LINE
  5
13E
100
AcDbEntity
100
AcDbLine
  8
BLACK
 62
256
370
-1
  6
ByLayer
 10
0.7529
 20
0.5629000000000001
 30
0.0
 11
0.7529
 21
0.5929
 31
0.0
  0
LINE
  5
13F
100
AcDbEntity
100
AcDbLine
  8
BLACK
 62
256
370
-1
  6
ByLayer
 10
0.7529
 20
0.5929
 30
0.0
 11
0.7386
 21
0.5929
 31
0.0
  0
LINE
  5
140
100
AcDbEntity
100
AcDbLine
  8
BLACK
 62
256
370
-1
  6
ByLayer
 10
0.6512
 20
1.6236000000000002
 30
0.0
 11
0.6112000000000001
 21
1.6236000000000002
 31
0.0
  0
LINE
  5
141
100
AcDbEntity
100
AcDbLine
  8
BLACK
 62
256
370
-1
  6
ByLayer
 10
0.6112000000000001
 20
1.6236000000000002
 30
0.0
 11
0.6112000000000001
 21
1.6141000000000001
 31
0.0
  0
LINE
  5
142
100
AcDbEntity
100
AcDbLine
  8
BLACK
 62
256
370
-1
  6
ByLayer
 10
0.6112000000000001
 20
1.6141000000000001
 30
0.0
 11
0.6131
 21
1.6083000000000001
 31
0.0
  0
LINE
  5
143
100
AcDbEntity
100
AcDbLine
  8
BLACK
 62
256
370
-1
  6
ByLayer
 10
0.6131
 20
1.6083000000000001
 30
0.0
 11
0.6169
 21
1.6045
 31
0.0
  0
LINE
  5
144
100
AcDbEntity
100
AcDbLine
  8
BLACK
 62
256
370
-1
  6
ByLayer
 10
0.6169
 20
1.6045
 30
0.0
 11
0.6207
 21
1.6026
 31
0.0
  0
LINE
  5
145
100
AcDbEntity
100
AcDbLine
  8
BLACK
 62
256
370
-1
  6
ByLayer
 10
0.6207
 20
1.6026
 30
0.0
 11
0.6283000000000001
 21
1.6007
 31
0.0
  0
LINE
  5
146
100
AcDbEntity
100
AcDbLine
  8
BLACK
 62
256
370
-1
  6
ByLayer
 10
0.6283000000000001
 20
1.6007
 30
0.0
 11
0.634
 21
1.6007
 31
0.0
  0
LINE
  5
147
100
AcDbEntity
100
AcDbLine
  8
BLACK
 62
256
370
-1
  6
ByLayer
 10
0.634
 20
1.6007
 30
0.0
 11
0.6417
 21
1.6026
 31
0.0
  0
LINE
  5
148
100
AcDbEntity
100
AcDbLine
  8
BLACK
 62
256
370
-1
  6
ByLayer
 10
0.6417
 20
1.6026
 30
0.0
 11
0.6455000000000001
 21
1.6045
 31
0.0
  0
LINE
  5
149
100
AcDbEntity
100
AcDbLine
  8
BLACK
 62
256
370
-1
  6
ByLayer
 10
0.6455000000000001
 20
1.6045
 30
0.0
 11
0.6493
 21
1.6083000000000001
 31
0.0
  0
LINE
  5
14A
100
AcDbEntity
100
AcDbLine
  8
BLACK
 62
256
370
-1
  6
ByLayer
 10
0.6493
 20
1.6083000000000001
 30
0.0
 11
0.6512
 21
1.6141000000000001
 31
0.0
  0
LINE
  5
14B
100
AcDbEntity
100
AcDbLine
  8
BLACK
 62
256
370
-1
  6
ByLayer
 10
0.6512
 20
1.6141000000000001
 30
0.0
 11
0.6512
 21
1.6236000000000002
 31
0.0
  0
LINE
  5
14C
100
AcDbEntity
100
AcDbLine
  8
BLACK
 62
256
370
-1
  6
ByLayer
 10
0.6512
 20
1.5626
 30
0.0
 11
0.6512
 21
1.5855000000000001
 31
0.0
  0
LINE
  5
14D
100
AcDbEntity
100
AcDbLine
  8
BLACK
 62
256
370
-1
  6
ByLayer
 10
0.6512
 20
1.5741000000000001
 30
0.0
 11
0.6112000000000001
 21
1.5741000000000001
 31
0.0
  0
LINE
  5
14E
100
AcDbEntity
100
AcDbLine
  8
BLACK
 62
256
370
-1
  6
ByLayer
 10
0.6112000000000001
 20
1.5741000000000001
 30
0.0
 11
0.6169
 21
1.5779000000000001
 31
0.0
  0
LINE
  5
14F
100
AcDbEntity
100
AcDbLine
  8
BLACK
 62
256
370
-1
  6
ByLayer
 10
0.6169
 20
1.5779000000000001
 30
0.0
 11
0.6207
 21
1.5817000000000001
 31
0.0
  0
LINE
  5
150
100
AcDbEntity
100
AcDbLine
  8
BLACK
 62
256
370
-1
  6
ByLayer
 10
0.6207
 20
1.5817000000000001
 30
0.0
 11
0.6226
 21
1.5855000000000001
 31
0.0
  0
LINE
  5
151
100
AcDbEntity
100
AcDbLine
  8
BLACK
 62
256
370
-1
  6
ByLayer
 10
0.6112000000000001
 20
1.5379
 30
0.0
 11
0.6112000000000001
 21
1.534
 31
0.0
  0
LINE
  5
152
100
AcDbEntity
100
AcDbLine
  8
BLACK
 62
256
370
-1
  6
ByLayer
 10
0.6112000000000001
 20
1.534
 30
0.0
 11
0.6131
 21
1.5302
 31
0.0
  0
LINE
  5
153
100
AcDbEntity
100
AcDbLine
  8
BLACK
 62
256
370
-1
  6
ByLayer
 10
0.6131
 20
1.5302
 30
0.0
 11
0.615
 21
1.5283
 31
0.0
  0
LINE
  5
154
100
AcDbEntity
100
AcDbLine
  8
BLACK
 62
256
370
-1
  6
ByLayer
 10
0.615
 20
1.5283
 30
0.0
 11
0.6188
 21
1.5264
 31
0.0
  0
LINE
  5
155
100
AcDbEntity
100
AcDbLine
  8
BLACK
 62
256
370
-1
  6
ByLayer
 10
0.6188
 20
1.5264
 30
0.0
 11
0.6264000000000001
 21
1.5245
 31
0.0
  0
LINE
  5
156
100
AcDbEntity
100
AcDbLine
  8
BLACK
 62
256
370
-1
  6
ByLayer
 10
0.6264000000000001
 20
1.5245
 30
0.0
 11
0.636
 21
1.5245
 31
0.0
  0
LINE
  5
157
100
AcDbEntity
100
AcDbLine
  8
BLACK
 62
256
370
-1
  6
ByLayer
 10
0.636
 20
1.5245
 30
0.0
 11
0.6436000000000001
 21
1.5264
 31
0.0
  0
LINE
  5
158
100
AcDbEntity
100
AcDbLine
  8
BLACK
 62
256
370
-1
  6
ByLayer
 10
0.6436000000000001
 20
1.5264
 30
0.0
 11
0.6474000000000001
 21
1.5283
 31
0.0
  0
LINE
  5
159
100
AcDbEntity
100
AcDbLine
  8
BLACK
 62
256
370
-1
  6
ByLayer
 10
0.6474000000000001
 20
1.5283
 30
0.0
 11
0.6493
 21
1.5302
 31
0.0
  0
LINE
  5
15A
100
AcDbEntity
100
AcDbLine
  8
BLACK
 62
256
370
-1
  6
ByLayer
 10
0.6493
 20
1.5302
 30
0.0
 11
0.6512
 21
1.534
 31
0.0
  0
LINE
  5
15B
100
AcDbEntity
100
AcDbLine
  8
BLACK
 62
256
370
-1
  6
ByLayer
 10
0.6512
 20
1.534
 30
0.0
 11
0.6512
 21
1.5379
 31
0.0
  0
LINE
  5
15C
100
AcDbEntity
100
AcDbLine
  8
BLACK
 62
256
370
-1
  6
ByLayer
 10
0.6512
 20
1.5379
 30
0.0
 11
0.6493
 21
1.5417000000000001
 31
0.0
  0
LINE
  5
15D
100
AcDbEntity
100
AcDbLine
  8
BLACK
 62
256
370
-1
  6
ByLayer
 10
0.6493
 20
1.5417000000000001
 30
0.0
 11
0.6474000000000001
 21
1.5436000000000001
 31
0.0
  0
LINE
  5
15E
100
AcDbEntity
100
AcDbLine
  8
BLACK
 62
256
370
-1
  6
ByLayer
 10
0.6474000000000001
 20
1.5436000000000001
 30
0.0
 11
0.6436000000000001
 21
1.5455000000000001
 31
0.0
  0
LINE
  5
15F
100
AcDbEntity
100
AcDbLine
  8
BLACK
 62
256
370
-1
  6
ByLayer
 10
0.6436000000000001
 20
1.5455000000000001
 30
0.0
 11
0.636
 21
1.5474000000000001
 31
0.0
  0
LINE
  5
160
100
AcDbEntity
100
AcDbLine
  8
BLACK
 62
256
370
-1
  6
ByLayer
 10
0.636
 20
1.5474000000000001
 30
0.0
 11
0.6264000000000001
 21
1.5474000000000001
 31
0.0
  0
LINE
  5
161
100
AcDbEntity
100
AcDbLine
  8
BLACK
 62
256
370
-1
  6
ByLayer
 10
0.6264000000000001
 20
1.5474000000000001
 30
0.0
 11
0.6188
 21
1.5455000000000001
 31
0.0
  0
LINE
  5
162
100
AcDbEntity
100
AcDbLine
  8
BLACK
 62
256
370
-1
  6
ByLayer
 10
0.6188
 20
1.5455000000000001
 30
0.0
 11
0.615
 21
1.5436000000000001
 31
0.0
  0
LINE
  5
163
100
AcDbEntity
100
AcDbLine
  8
BLACK
 62
256
370
-1
  6
ByLayer
 10
0.615
 20
1.5436000000000001
 30
0.0
 11
0.6131
 21
1.5417000000000001
 31
0.0
  0
LINE
  5
164
100
AcDbEntity
100
AcDbLine
  8
BLACK
 62
256
370
-1
  6
ByLayer
 10
0.6131
 20
1.5417000000000001
 30
0.0
 11
0.6112000000000001
 21
1.5379
 31
0.0
  0
LINE
  5
165
100
AcDbEntity
100
AcDbLine
  8
BLACK
 62
256
370
-1
  6
ByLayer
 10
1.0512000000000001
 20
1.6236000000000002
 30
0.0
 11
1.0112000000000001
 21
1.6236000000000002
 31
0.0
  0
LINE
  5
166
100
AcDbEntity
100
AcDbLine
  8
BLACK
 62
256
370
-1
  6
ByLayer
 10
1.0112000000000001
 20
1.6236000000000002
 30
0.0
 11
1.0112000000000001
 21
1.6141000000000001
 31
0.0
  0
LINE
  5
167
100
AcDbEntity
100
AcDbLine
  8
BLACK
 62
256
370
-1
  6
ByLayer
 10
1.0112000000000001
 20
1.6141000000000001
 30
0.0
 11
1.0131000000000001
 21
1.6083000000000001
 31
0.0
  0
LINE
  5
168
100
AcDbEntity
100
AcDbLine
  8
BLACK
 62
256
370
-1
  6
ByLayer
 10
1.0131000000000001
 20
1.6083000000000001
 30
0.0
 11
1.0169000000000001
 21
1.6045
 31
0.0
  0
LINE
  5
169
100
AcDbEntity
100
AcDbLine
  8
BLACK
 62
256
370
-1
  6
ByLayer
 10
1.0169000000000001
 20
1.6045
 30
0.0
 11
1.0206999999999999
 21
1.6026
 31
0.0
  0
LINE
  5
16A
100
AcDbEntity
100
AcDbLine
  8
BLACK
 62
256
370
-1
  6
ByLayer
 10
1.0206999999999999
 20
1.6026
 30
0.0
 11
1.0283
 21
1.6007
 31
0.0
  0
LINE
  5
16B
100
AcDbEntity
100
AcDbLine
  8
BLACK
 62
256
370
-1
  6
ByLayer
 10
1.0283
 20
1.6007
 30
0.0
 11
1.034
 21
1.6007
 31
0.0
  0
LINE
  5
16C
100
AcDbEntity
100
AcDbLine
  8
BLACK
 62
256
370
-1
  6
ByLayer
 10
1.034
 20
1.6007
 30
0.0
 11
1.0417000000000001
 21
1.6026
 31
0.0
  0
LINE
  5
16D
100
AcDbEntity
100
AcDbLine
  8
BLACK
 62
256
370
-1
  6
ByLayer
 10
1.0417000000000001
 20
1.6026
 30
0.0
 11
1.0455000000000001
 21
1.6045
 31
0.0
  0
LINE
  5
16E
100
AcDbEntity
100
AcDbLine
  8
BLACK
 62
256
370
-1
  6
ByLayer
 10
1.0455000000000001
 20
1.6045
 30
0.0
 11
1.0493000000000001
 21
1.6083000000000001
 31
0.0
  0
LINE
  5
16F
100
AcDbEntity
100
AcDbLine
  8
BLACK
 62
256
370
-1
  6
ByLayer
 10
1.0493000000000001
 20
1.6083000000000001
 30
0.0
 11
1.0512000000000001
 21
1.6141000000000001
 31
0.0
  0
LINE
  5
170
100
AcDbEntity
100
AcDbLine
  8
BLACK
 62
256
370
-1
  6
ByLayer
 10
1.0512000000000001
 20
1.6141000000000001
 30
0.0
 11
1.0512000000000001
 21
1.6236000000000002
 31
0.0
  0
LINE
  5
171
100
AcDbEntity
100
AcDbLine
  8
BLACK
 62
256
370
-1
  6
ByLayer
 10
1.0512000000000001
 20
1.5626
 30
0.0
 11
1.0512000000000001
 21
1.5855000000000001
 31
0.0
  0
LINE
  5
172
100
AcDbEntity
100
AcDbLine
  8
BLACK
 62
256
370
-1
  6
ByLayer
 10
1.0512000000000001
 20
1.5741000000000001
 30
0.0
 11
1.0112000000000001
 21
1.5741000000000001
 31
0.0
  0
LINE
  5
173
100
AcDbEntity
100
AcDbLine
  8
BLACK
 62
256
370
-1
  6
ByLayer
 10
1.0112000000000001
 20
1.5741000000000001
 30
0.0
 11
1.0169000000000001
 21
1.5779000000000001
 31
0.0
  0
LINE
  5
174
100
AcDbEntity
100
AcDbLine
  8
BLACK
 62
256
370
-1
  6
ByLayer
 10
1.0169000000000001
 20
1.5779000000000001
 30
0.0
 11
1.0206999999999999
 21
1.5817000000000001
 31
0.0
  0
LINE
  5
175
100
AcDbEntity
100
AcDbLine
  8
BLACK
 62
256
370
-1
  6
ByLayer
 10
1.0206999999999999
 20
1.5817000000000001
 30
0.0
 11
1.0226
 21
1.5855000000000001
 31
0.0
  0
LINE
  5
176
100
AcDbEntity
100
AcDbLine
  8
BLACK
 62
256
370
-1
  6
ByLayer
 10
1.0512000000000001
 20
1.5245
 30
0.0
 11
1.0512000000000001
 21
1.5474000000000001
 31
0.0
  0
LINE
  5
177
100
AcDbEntity
100
AcDbLine
  8
BLACK
 62
256
370
-1
  6
ByLayer
 10
1.0512000000000001
 20
1.536
 30
0.0
 11
1.0112000000000001
 21
1.536
 31
0.0
  0
LINE
  5
178
100
AcDbEntity
100
AcDbLine
  8
BLACK
 62
256
370
-1
  6
ByLayer
 10
1.0112000000000001
 20
1.536
 30
0.0
 11
1.0169000000000001
 21
1.5398000000000001
 31
0.0
  0
LINE
  5
179
100
AcDbEntity
100
AcDbLine
  8
BLACK
 62
256
370
-1
  6
ByLayer
 10
1.0169000000000001
 20
1.5398000000000001
 30
0.0
 11
1.0206999999999999
 21
1.5436000000000001
 31
0.0
  0
LINE
  5
17A
100
AcDbEntity
100
AcDbLine
  8
BLACK
 62
256
370
-1
  6
ByLayer
 10
1.0206999999999999
 20
1.5436000000000001
 30
0.0
 11
1.0226
 21
1.5474000000000001
 31
0.0
  0
LINE
  5
17B
100
AcDbEntity
100
AcDbLine
  8
BLACK
 62
256
370
-1
  6
ByLayer
 10
1.4512
 20
1.6236000000000002
 30
0.0
 11
1.4112
 21
1.6236000000000002
 31
0.0
  0
LINE
  5
17C
100
AcDbEntity
100
AcDbLine
  8
BLACK
 62
256
370
-1
  6
ByLayer
 10
1.4112
 20
1.6236000000000002
 30
0.0
 11
1.4112
 21
1.6141000000000001
 31
0.0
  0
LINE
  5
17D
100
AcDbEntity
100
AcDbLine
  8
BLACK
 62
256
370
-1
  6
ByLayer
 10
1.4112
 20
1.6141000000000001
 30
0.0
 11
1.4131
 21
1.6083000000000001
 31
0.0
  0
LINE
  5
17E
100
AcDbEntity
100
AcDbLine
  8
BLACK
 62
256
370
-1
  6
ByLayer
 10
1.4131
 20
1.6083000000000001
 30
0.0
 11
1.4169
 21
1.6045
 31
0.0
  0
LINE
  5
17F
100
AcDbEntity
100
AcDbLine
  8
BLACK
 62
256
370
-1
  6
ByLayer
 10
1.4169
 20
1.6045
 30
0.0
 11
1.4207000000000001
 21
1.6026
 31
0.0
  0
LINE
  5
180
100
AcDbEntity
100
AcDbLine
  8
BLACK
 62
256
370
-1
  6
ByLayer
 10
1.4207000000000001
 20
1.6026
 30
0.0
 11
1.4283000000000001
 21
1.6007
 31
0.0
  0
LINE
  5
181
100
AcDbEntity
100
AcDbLine
  8
BLACK
 62
256
370
-1
  6
ByLayer
 10
1.4283000000000001
 20
1.6007
 30
0.0
 11
1.4340000000000002
 21
1.6007
 31
0.0
  0
LINE
  5
182
100
AcDbEntity
100
AcDbLine
  8
BLACK
 62
256
370
-1
  6
ByLayer
 10
1.4340000000000002
 20
1.6007
 30
0.0
 11
1.4417
 21
1.6026
 31
0.0
  0
LINE
  5
183
100
AcDbEntity
100
AcDbLine
  8
BLACK
 62
256
370
-1
  6
ByLayer
 10
1.4417
 20
1.6026
 30
0.0
 11
1.4455
 21
1.6045
 31
0.0
  0
LINE
  5
184
100
AcDbEntity
100
AcDbLine
  8
BLACK
 62
256
370
-1
  6
ByLayer
 10
1.4455
 20
1.6045
 30
0.0
 11
1.4493
 21
1.6083000000000001
 31
0.0
  0
LINE
  5
185
100
AcDbEntity
100
AcDbLine
  8
BLACK
 62
256
370
-1
  6
ByLayer
 10
1.4493
 20
1.6083000000000001
 30
0.0
 11
1.4512
 21
1.6141000000000001
 31
0.0
  0
LINE
  5
186
100
AcDbEntity
100
AcDbLine
  8
BLACK
 62
256
370
-1
  6
ByLayer
 10
1.4512
 20
1.6141000000000001
 30
0.0
 11
1.4512
 21
1.6236000000000002
 31
0.0
  0
LINE
  5
187
100
AcDbEntity
100
AcDbLine
  8
BLACK
 62
256
370
-1
  6
ByLayer
 10
1.4512
 20
1.5626
 30
0.0
 11
1.4512
 21
1.5855000000000001
 31
0.0
  0
LINE
  5
188
100
AcDbEntity
100
AcDbLine
  8
BLACK
 62
256
370
-1
  6
ByLayer
 10
1.4512
 20
1.5741000000000001
 30
0.0
 11
1.4112
 21
1.5741000000000001
 31
0.0
  0
LINE
  5
189
100
AcDbEntity
100
AcDbLine
  8
BLACK
 62
256
370
-1
  6
ByLayer
 10
1.4112
 20
1.5741000000000001
 30
0.0
 11
1.4169
 21
1.5779000000000001
 31
0.0
  0
LINE
  5
18A
100
AcDbEntity
100
AcDbLine
  8
BLACK
 62
256
370
-1
  6
ByLayer
 10
1.4169
 20
1.5779000000000001
 30
0.0
 11
1.4207000000000001
 21
1.5817000000000001
 31
0.0
  0
LINE
  5
18B
100
AcDbEntity
100
AcDbLine
  8
BLACK
 62
256
370
-1
  6
ByLayer
 10
1.4207000000000001
 20
1.5817000000000001
 30
0.0
 11
1.4226000000000001
 21
1.5855000000000001
 31
0.0
  0
LINE
  5
18C
100
AcDbEntity
100
AcDbLine
  8
BLACK
 62
256
370
-1
  6
ByLayer
 10
1.415
 20
1.5474000000000001
 30
0.0
 11
1.4131
 21
1.5455000000000001
 31
0.0
  0
LINE
  5
18D
100
AcDbEntity
100
AcDbLine
  8
BLACK
 62
256
370
-1
  6
ByLayer
 10
1.4131
 20
1.5455000000000001
 30
0.0
 11
1.4112
 21
1.5417000000000001
 31
0.0
  0
LINE
  5
18E
100
AcDbEntity
100
AcDbLine
  8
BLACK
 62
256
370
-1
  6
ByLayer
 10
1.4112
 20
1.5417000000000001
 30
0.0
 11
1.4112
 21
1.5321
 31
0.0
  0
LINE
  5
18F
100
AcDbEntity
100
AcDbLine
  8
BLACK
 62
256
370
-1
  6
ByLayer
 10
1.4112
 20
1.5321
 30
0.0
 11
1.4131
 21
1.5283
 31
0.0
  0
LINE
  5
190
100
AcDbEntity
100
AcDbLine
  8
BLACK
 62
256
370
-1
  6
ByLayer
 10
1.4131
 20
1.5283
 30
0.0
 11
1.415
 21
1.5264
 31
0.0
  0
LINE
  5
191
100
AcDbEntity
100
AcDbLine
  8
BLACK
 62
256
370
-1
  6
ByLayer
 10
1.415
 20
1.5264
 30
0.0
 11
1.4188000000000001
 21
1.5245
 31
0.0
  0
LINE
  5
192
100
AcDbEntity
100
AcDbLine
  8
BLACK
 62
256
370
-1
  6
ByLayer
 10
1.4188000000000001
 20
1.5245
 30
0.0
 11
1.4226000000000001
 21
1.5245
 31
0.0
  0
LINE
  5
193
100
AcDbEntity
100
AcDbLine
  8
BLACK
 62
256
370
-1
  6
ByLayer
 10
1.4226000000000001
 20
1.5245
 30
0.0
 11
1.4283000000000001
 21
1.5264
 31
0.0
  0
LINE
  5
194
100
AcDbEntity
100
AcDbLine
  8
BLACK
 62
256
370
-1
  6
ByLayer
 10
1.4283000000000001
 20
1.5264
 30
0.0
 11
1.4512
 21
1.5493000000000001
 31
0.0
  0
LINE
  5
195
100
AcDbEntity
100
AcDbLine
  8
BLACK
 62
256
370
-1
  6
ByLayer
 10
1.4512
 20
1.5493000000000001
 30
0.0
 11
1.4512
 21
1.5245
 31
0.0
  0
LINE
  5
196
100
AcDbEntity
100
AcDbLine
  8
BLACK
 62
256
370
-1
  6
ByLayer
 10
1.8512000000000002
 20
1.6236000000000002
 30
0.0
 11
1.8112000000000001
 21
1.6236000000000002
 31
0.0
  0
LINE
  5
197
100
AcDbEntity
100
AcDbLine
  8
BLACK
 62
256
370
-1
  6
ByLayer
 10
1.8112000000000001
 20
1.6236000000000002
 30
0.0
 11
1.8112000000000001
 21
1.6141000000000001
 31
0.0
  0
LINE
  5
198
100
AcDbEntity
100
AcDbLine
  8
BLACK
 62
256
370
-1
  6
ByLayer
 10
1.8112000000000001
 20
1.6141000000000001
 30
0.0
 11
1.8131000000000002
 21
1.6083000000000001
 31
0.0
  0
LINE
  5
199
100
AcDbEntity
100
AcDbLine
  8
BLACK
 62
256
370
-1
  6
ByLayer
 10
1.8131000000000002
 20
1.6083000000000001
 30
0.0
 11
1.8169000000000002
 21
1.6045
 31
0.0
  0
LINE
  5
19A
100
AcDbEntity
100
AcDbLine
  8
BLACK
 62
256
370
-1
  6
ByLayer
 10
1.8169000000000002
 20
1.6045
 30
0.0
 11
1.8207
 21
1.6026
 31
0.0
  0
LINE
  5
19B
100
AcDbEntity
100
AcDbLine
  8
BLACK
 62
256
370
-1
  6
ByLayer
 10
1.8207
 20
1.6026
 30
0.0
 11
1.8283
 21
1.6007
 31
0.0
  0
LINE
  5
19C
100
AcDbEntity
100
AcDbLine
  8
BLACK
 62
256
370
-1
  6
ByLayer
 10
1.8283
 20
1.6007
 30
0.0
 11
1.8340000000000001
 21
1.6007
 31
0.0
  0
LINE
  5
19D
100
AcDbEntity
100
AcDbLine
  8
BLACK
 62
256
370
-1
  6
ByLayer
 10
1.8340000000000001
 20
1.6007
 30
0.0
 11
1.8417000000000001
 21
1.6026
 31
0.0
  0
LINE
  5
19E
100
AcDbEntity
100
AcDbLine
  8
BLACK
 62
256
370
-1
  6
ByLayer
 10
1.8417000000000001
 20
1.6026
 30
0.0
 11
1.8455000000000001
 21
1.6045
 31
0.0
  0
LINE
  5
19F
100
AcDbEntity
100
AcDbLine
  8
BLACK
 62
256
370
-1
  6
ByLayer
 10
1.8455000000000001
 20
1.6045
 30
0.0
 11
1.8493000000000002
 21
1.6083000000000001
 31
0.0
  0
LINE
  5
1A0
100
AcDbEntity
100
AcDbLine
  8
BLACK
 62
256
370
-1
  6
ByLayer
 10
1.8493000000000002
 20
1.6083000000000001
 30
0.0
 11
1.8512000000000002
 21
1.6141000000000001
 31
0.0
  0
LINE
  5
1A1
100
AcDbEntity
100
AcDbLine
  8
BLACK
 62
256
370
-1
  6
ByLayer
 10
1.8512000000000002
 20
1.6141000000000001
 30
0.0
 11
1.8512000000000002
 21
1.6236000000000002
 31
0.0
  0
LINE
  5
1A2
100
AcDbEntity
100
AcDbLine
  8
BLACK
 62
256
370
-1
  6
ByLayer
 10
1.8512000000000002
 20
1.5626
 30
0.0
 11
1.8512000000000002
 21
1.5855000000000001
 31
0.0
  0
LINE
  5
1A3
100
AcDbEntity
100
AcDbLine
  8
BLACK
 62
256
370
-1
  6
ByLayer
 10
1.8512000000000002
 20
1.5741000000000001
 30
0.0
 11
1.8112000000000001
 21
1.5741000000000001
 31
0.0
  0
LINE
  5
1A4
100
AcDbEntity
100
AcDbLine
  8
BLACK
 62
256
370
-1
  6
ByLayer
 10
1.8112000000000001
 20
1.5741000000000001
 30
0.0
 11
1.8169000000000002
 21
1.5779000000000001
 31
0.0
  0
LINE
  5
1A5
100
AcDbEntity
100
AcDbLine
  8
BLACK
 62
256
370
-1
  6
ByLayer
 10
1.8169000000000002
 20
1.5779000000000001
 30
0.0
 11
1.8207
 21
1.5817000000000001
 31
0.0
  0
LINE
  5
1A6
100
AcDbEntity
100
AcDbLine
  8
BLACK
 62
256
370
-1
  6
ByLayer
 10
1.8207
 20
1.5817000000000001
 30
0.0
 11
1.8226
 21
1.5855000000000001
 31
0.0
  0
LINE
  5
1A7
100
AcDbEntity
100
AcDbLine
  8
BLACK
 62
256
370
-1
  6
ByLayer
 10
1.8112000000000001
 20
1.5493000000000001
 30
0.0
 11
1.8112000000000001
 21
1.5245
 31
0.0
  0
LINE
  5
1A8
100
AcDbEntity
100
AcDbLine
  8
BLACK
 62
256
370
-1
  6
ByLayer
 10
1.8112000000000001
 20
1.5245
 30
0.0
 11
1.8264
 21
1.5379
 31
0.0
  0
LINE
  5
1A9
100
AcDbEntity
100
AcDbLine
  8
BLACK
 62
256
370
-1
  6
ByLayer
 10
1.8264
 20
1.5379
 30
0.0
 11
1.8264
 21
1.5321
 31
0.0
  0
LINE
  5
1AA
100
AcDbEntity
100
AcDbLine
  8
BLACK
 62
256
370
-1
  6
ByLayer
 10
1.8264
 20
1.5321
 30
0.0
 11
1.8283
 21
1.5283
 31
0.0
  0
LINE
  5
1AB
100
AcDbEntity
100
AcDbLine
  8
BLACK
 62
256
370
-1
  6
ByLayer
 10
1.8283
 20
1.5283
 30
0.0
 11
1.8302
 21
1.5264
 31
0.0
  0
LINE
  5
1AC
100
AcDbEntity
100
AcDbLine
  8
BLACK
 62
256
370
-1
  6
ByLayer
 10
1.8302
 20
1.5264
 30
0.0
 11
1.8340000000000001
 21
1.5245
 31
0.0
  0
LINE
  5
1AD
100
AcDbEntity
100
AcDbLine
  8
BLACK
 62
256
370
-1
  6
ByLayer
 10
1.8340000000000001
 20
1.5245
 30
0.0
 11
1.8436000000000001
 21
1.5245
 31
0.0
  0
LINE
  5
1AE
100
AcDbEntity
100
AcDbLine
  8
BLACK
 62
256
370
-1
  6
ByLayer
 10
1.8436000000000001
 20
1.5245
 30
0.0
 11
1.8474000000000002
 21
1.5264
 31
0.0
  0
LINE
  5
1AF
100
AcDbEntity
100
AcDbLine
  8
BLACK
 62
256
370
-1
  6
ByLayer
 10
1.8474000000000002
 20
1.5264
 30
0.0
 11
1.8493000000000002
 21
1.5283
 31
0.0
  0
LINE
  5
1B0
100
AcDbEntity
100
AcDbLine
  8
BLACK
 62
256
370
-1
  6
ByLayer
 10
1.8493000000000002
 20
1.5283
 30
0.0
 11
1.8512000000000002
 21
1.5321
 31
0.0
  0
LINE
  5
1B1
100
AcDbEntity
100
AcDbLine
  8
BLACK
 62
256
370
-1
  6
ByLayer
 10
1.8512000000000002
 20
1.5321
 30
0.0
 11
1.8512000000000002
 21
1.5436000000000001
 31
0.0
  0
LINE
  5
1B2
100
AcDbEntity
100
AcDbLine
  8
BLACK
 62
256
370
-1
  6
ByLayer
 10
1.8512000000000002
 20
1.5436000000000001
 30
0.0
 11
1.8493000000000002
 21
1.5474000000000001
 31
0.0
  0
LINE
  5
1B3
100
AcDbEntity
100
AcDbLine
  8
BLACK
 62
256
370
-1
  6
ByLayer
 10
1.8493000000000002
 20
1.5474000000000001
 30
0.0
 11
1.8474000000000002
 21
1.5493000000000001
 31
0.0
  0
LINE
  5
1B4
100
AcDbEntity
100
AcDbLine
  8
BLACK
 62
256
370
-1
  6
ByLayer
 10
2.2512000000000003
 20
1.6236000000000002
 30
0.0
 11
2.2112000000000003
 21
1.6236000000000002
 31
0.0
  0
LINE
  5
1B5
100
AcDbEntity
100
AcDbLine
  8
BLACK
 62
256
370
-1
  6
ByLayer
 10
2.2112000000000003
 20
1.6236000000000002
 30
0.0
 11
2.2112000000000003
 21
1.6141000000000001
 31
0.0
  0
LINE
  5
1B6
100
AcDbEntity
100
AcDbLine
  8
BLACK
 62
256
370
-1
  6
ByLayer
 10
2.2112000000000003
 20
1.6141000000000001
 30
0.0
 11
2.2131000000000003
 21
1.6083000000000001
 31
0.0
  0
LINE
  5
1B7
100
AcDbEntity
100
AcDbLine
  8
BLACK
 62
256
370
-1
  6
ByLayer
 10
2.2131000000000003
 20
1.6083000000000001
 30
0.0
 11
2.2169000000000003
 21
1.6045
 31
0.0
  0
LINE
  5
1B8
100
AcDbEntity
100
AcDbLine
  8
BLACK
 62
256
370
-1
  6
ByLayer
 10
2.2169000000000003
 20
1.6045
 30
0.0
 11
2.2206999999999999
 21
1.6026
 31
0.0
  0
LINE
  5
1B9
100
AcDbEntity
100
AcDbLine
  8
BLACK
 62
256
370
-1
  6
ByLayer
 10
2.2206999999999999
 20
1.6026
 30
0.0
 11
2.2282999999999999
 21
1.6007
 31
0.0
  0
LINE
  5
1BA
100
AcDbEntity
100
AcDbLine
  8
BLACK
 62
256
370
-1
  6
ByLayer
 10
2.2282999999999999
 20
1.6007
 30
0.0
 11
2.234
 21
1.6007
 31
0.0
  0
LINE
  5
1BB
100
AcDbEntity
100
AcDbLine
  8
BLACK
 62
256
370
-1
  6
ByLayer
 10
2.234
 20
1.6007
 30
0.0
 11
2.2417000000000002
 21
1.6026
 31
0.0
  0
LINE
  5
1BC
100
AcDbEntity
100
AcDbLine
  8
BLACK
 62
256
370
-1
  6
ByLayer
 10
2.2417000000000002
 20
1.6026
 30
0.0
 11
2.2455000000000003
 21
1.6045
 31
0.0
  0
LINE
  5
1BD
100
AcDbEntity
100
AcDbLine
  8
BLACK
 62
256
370
-1
  6
ByLayer
 10
2.2455000000000003
 20
1.6045
 30
0.0
 11
2.2493000000000003
 21
1.6083000000000001
 31
0.0
  0
LINE
  5
1BE
100
AcDbEntity
100
AcDbLine
  8
BLACK
 62
256
370
-1
  6
ByLayer
 10
2.2493000000000003
 20
1.6083000000000001
 30
0.0
 11
2.2512000000000003
 21
1.6141000000000001
 31
0.0
  0
LINE
  5
1BF
100
AcDbEntity
100
AcDbLine
  8
BLACK
 62
256
370
-1
  6
ByLayer
 10
2.2512000000000003
 20
1.6141000000000001
 30
0.0
 11
2.2512000000000003
 21
1.6236000000000002
 31
0.0
  0
LINE
  5
1C0
100
AcDbEntity
100
AcDbLine
  8
BLACK
 62
256
370
-1
  6
ByLayer
 10
2.2512000000000003
 20
1.5626
 30
0.0
 11
2.2512000000000003
 21
1.5855000000000001
 31
0.0
  0
LINE
  5
1C1
100
AcDbEntity
100
AcDbLine
  8
BLACK
 62
256
370
-1
  6
ByLayer
 10
2.2512000000000003
 20
1.5741000000000001
 30
0.0
 11
2.2112000000000003
 21
1.5741000000000001
 31
0.0
  0
LINE
  5
1C2
100
AcDbEntity
100
AcDbLine
  8
BLACK
 62
256
370
-1
  6
ByLayer
 10
2.2112000000000003
 20
1.5741000000000001
 30
0.0
 11
2.2169000000000003
 21
1.5779000000000001
 31
0.0
  0
LINE
  5
1C3
100
AcDbEntity
100
AcDbLine
  8
BLACK
 62
256
370
-1
  6
ByLayer
 10
2.2169000000000003
 20
1.5779000000000001
 30
0.0
 11
2.2206999999999999
 21
1.5817000000000001
 31
0.0
  0
LINE
  5
1C4
100
AcDbEntity
100
AcDbLine
  8
BLACK
 62
256
370
-1
  6
ByLayer
 10
2.2206999999999999
 20
1.5817000000000001
 30
0.0
 11
2.2225999999999999
 21
1.5855000000000001
 31
0.0
  0
LINE
  5
1C5
100
AcDbEntity
100
AcDbLine
  8
BLACK
 62
256
370
-1
  6
ByLayer
 10
2.2244999999999999
 20
1.5283
 30
0.0
 11
2.2512000000000003
 21
1.5283
 31
0.0
  0
LINE
  5
1C6
100
AcDbEntity
100
AcDbLine
  8
BLACK
 62
256
370
-1
  6
ByLayer
 10
2.2093000000000003
 20
1.5379
 30
0.0
 11
2.2379000000000002
 21
1.5474000000000001
 31
0.0
  0
LINE
  5
1C7
100
AcDbEntity
100
AcDbLine
  8
BLACK
 62
256
370
-1
  6
ByLayer
 10
2.2379000000000002
 20
1.5474000000000001
 30
0.0
 11
2.2379000000000002
 21
1.5226000000000002
 31
0.0
  0
LINE
  5
1C8
100
AcDbEntity
100
AcDbLine
  8
BLACK
 62
256
370
-1
  6
ByLayer
 10
2.6512000000000002
 20
1.6236000000000002
 30
0.0
 11
2.6112000000000002
 21
1.6236000000000002
 31
0.0
  0
LINE
  5
1C9
100
AcDbEntity
100
AcDbLine
  8
BLACK
 62
256
370
-1
  6
ByLayer
 10
2.6112000000000002
 20
1.6236000000000002
 30
0.0
 11
2.6112000000000002
 21
1.6141000000000001
 31
0.0
  0
LINE
  5
1CA
100
AcDbEntity
100
AcDbLine
  8
BLACK
 62
256
370
-1
  6
ByLayer
 10
2.6112000000000002
 20
1.6141000000000001
 30
0.0
 11
2.6131000000000002
 21
1.6083000000000001
 31
0.0
  0
LINE
  5
1CB
100
AcDbEntity
100
AcDbLine
  8
BLACK
 62
256
370
-1
  6
ByLayer
 10
2.6131000000000002
 20
1.6083000000000001
 30
0.0
 11
2.6169000000000002
 21
1.6045
 31
0.0
  0
LINE
  5
1CC
100
AcDbEntity
100
AcDbLine
  8
BLACK
 62
256
370
-1
  6
ByLayer
 10
2.6169000000000002
 20
1.6045
 30
0.0
 11
2.6207000000000003
 21
1.6026
 31
0.0
  0
LINE
  5
1CD
100
AcDbEntity
100
AcDbLine
  8
BLACK
 62
256
370
-1
  6
ByLayer
 10
2.6207000000000003
 20
1.6026
 30
0.0
 11
2.6283000000000003
 21
1.6007
 31
0.0
  0
LINE
  5
1CE
100
AcDbEntity
100
AcDbLine
  8
BLACK
 62
256
370
-1
  6
ByLayer
 10
2.6283000000000003
 20
1.6007
 30
0.0
 11
2.6340000000000003
 21
1.6007
 31
0.0
  0
LINE
  5
1CF
100
AcDbEntity
100
AcDbLine
  8
BLACK
 62
256
370
-1
  6
ByLayer
 10
2.6340000000000003
 20
1.6007
 30
0.0
 11
2.6417000000000002
 21
1.6026
 31
0.0
  0
LINE
  5
1D0
100
AcDbEntity
100
AcDbLine
  8
BLACK
 62
256
370
-1
  6
ByLayer
 10
2.6417000000000002
 20
1.6026
 30
0.0
 11
2.6455000000000002
 21
1.6045
 31
0.0
  0
LINE
  5
1D1
100
AcDbEntity
100
AcDbLine
  8
BLACK
 62
256
370
-1
  6
ByLayer
 10
2.6455000000000002
 20
1.6045
 30
0.0
 11
2.6493000000000002
 21
1.6083000000000001
 31
0.0
  0
LINE
  5
1D2
100
AcDbEntity
100
AcDbLine
  8
BLACK
 62
256
370
-1
  6
ByLayer
 10
2.6493000000000002
 20
1.6083000000000001
 30
0.0
 11
2.6512000000000002
 21
1.6141000000000001
 31
0.0
  0
LINE
  5
1D3
100
AcDbEntity
100
AcDbLine
  8
BLACK
 62
256
370
-1
  6
ByLayer
 10
2.6512000000000002
 20
1.6141000000000001
 30
0.0
 11
2.6512000000000002
 21
1.6236000000000002
 31
0.0
  0
LINE
  5
1D4
100
AcDbEntity
100
AcDbLine
  8
BLACK
 62
256
370
-1
  6
ByLayer
 10
2.6512000000000002
 20
1.5626
 30
0.0
 11
2.6512000000000002
 21
1.5855000000000001
 31
0.0
  0
LINE
  5
1D5
100
AcDbEntity
100
AcDbLine
  8
BLACK
 62
256
370
-1
  6
ByLayer
 10
2.6512000000000002
 20
1.5741000000000001
 30
0.0
 11
2.6112000000000002
 21
1.5741000000000001
 31
0.0
  0
LINE
  5
1D6
100
AcDbEntity
100
AcDbLine
  8
BLACK
 62
256
370
-1
  6
ByLayer
 10
2.6112000000000002
 20
1.5741000000000001
 30
0.0
 11
2.6169000000000002
 21
1.5779000000000001
 31
0.0
  0
LINE
  5
1D7
100
AcDbEntity
100
AcDbLine
  8
BLACK
 62
256
370
-1
  6
ByLayer
 10
2.6169000000000002
 20
1.5779000000000001
 30
0.0
 11
2.6207000000000003
 21
1.5817000000000001
 31
0.0
  0
LINE
  5
1D8
100
AcDbEntity
100
AcDbLine
  8
BLACK
 62
256
370
-1
  6
ByLayer
 10
2.6207000000000003
 20
1.5817000000000001
 30
0.0
 11
2.6226000000000003
 21
1.5855000000000001
 31
0.0
  0
LINE
  5
1D9
100
AcDbEntity
100
AcDbLine
  8
BLACK
 62
256
370
-1
  6
ByLayer
 10
2.6112000000000002
 20
1.5264
 30
0.0
 11
2.6112000000000002
 21
1.5455000000000001
 31
0.0
  0
LINE
  5
1DA
100
AcDbEntity
100
AcDbLine
  8
BLACK
 62
256
370
-1
  6
ByLayer
 10
2.6112000000000002
 20
1.5455000000000001
 30
0.0
 11
2.6302000000000003
 21
1.5474000000000001
 31
0.0
  0
LINE
  5
1DB
100
AcDbEntity
100
AcDbLine
  8
BLACK
 62
256
370
-1
  6
ByLayer
 10
2.6302000000000003
 20
1.5474000000000001
 30
0.0
 11
2.6283000000000003
 21
1.5455000000000001
 31
0.0
  0
LINE
  5
1DC
100
AcDbEntity
100
AcDbLine
  8
BLACK
 62
256
370
-1
  6
ByLayer
 10
2.6283000000000003
 20
1.5455000000000001
 30
0.0
 11
2.6264000000000003
 21
1.5417000000000001
 31
0.0
  0
LINE
  5
1DD
100
AcDbEntity
100
AcDbLine
  8
BLACK
 62
256
370
-1
  6
ByLayer
 10
2.6264000000000003
 20
1.5417000000000001
 30
0.0
 11
2.6264000000000003
 21
1.5321
 31
0.0
  0
LINE
  5
1DE
100
AcDbEntity
100
AcDbLine
  8
BLACK
 62
256
370
-1
  6
ByLayer
 10
2.6264000000000003
 20
1.5321
 30
0.0
 11
2.6283000000000003
 21
1.5283
 31
0.0
  0
LINE
  5
1DF
100
AcDbEntity
100
AcDbLine
  8
BLACK
 62
256
370
-1
  6
ByLayer
 10
2.6283000000000003
 20
1.5283
 30
0.0
 11
2.6302000000000003
 21
1.5264
 31
0.0
  0
LINE
  5
1E0
100
AcDbEntity
100
AcDbLine
  8
BLACK
 62
256
370
-1
  6
ByLayer
 10
2.6302000000000003
 20
1.5264
 30
0.0
 11
2.6340000000000003
 21
1.5245
 31
0.0
  0
LINE
  5
1E1
100
AcDbEntity
100
AcDbLine
  8
BLACK
 62
256
370
-1
  6
ByLayer
 10
2.6340000000000003
 20
1.5245
 30
0.0
 11
2.6436000000000002
 21
1.5245
 31
0.0
  0
LINE
  5
1E2
100
AcDbEntity
100
AcDbLine
  8
BLACK
 62
256
370
-1
  6
ByLayer
 10
2.6436000000000002
 20
1.5245
 30
0.0
 11
2.6474000000000002
 21
1.5264
 31
0.0
  0
LINE
  5
1E3
100
AcDbEntity
100
AcDbLine
  8
BLACK
 62
256
370
-1
  6
ByLayer
 10
2.6474000000000002
 20
1.5264
 30
0.0
 11
2.6493000000000002
 21
1.5283
 31
0.0
  0
LINE
  5
1E4
100
AcDbEntity
100
AcDbLine
  8
BLACK
 62
256
370
-1
  6
ByLayer
 10
2.6493000000000002
 20
1.5283
 30
0.0
 11
2.6512000000000002
 21
1.5321
 31
0.0
  0
LINE
  5
1E5
100
AcDbEntity
100
AcDbLine
  8
BLACK
 62
256
370
-1
  6
ByLayer
 10
2.6512000000000002
 20
1.5321
 30
0.0
 11
2.6512000000000002
 21
1.5417000000000001
 31
0.0
  0
LINE
  5
1E6
100
AcDbEntity
100
AcDbLine
  8
BLACK
 62
256
370
-1
  6
ByLayer
 10
2.6512000000000002
 20
1.5417000000000001
 30
0.0
 11
2.6493000000000002
 21
1.5455000000000001
 31
0.0
  0
LINE
  5
1E7
100
AcDbEntity
100
AcDbLine
  8
BLACK
 62
256
370
-1
  6
ByLayer
 10
2.6493000000000002
 20
1.5455000000000001
 30
0.0
 11
2.6474000000000002
 21
1.5474000000000001
 31
0.0
  0
LINE
  5
1E8
100
AcDbEntity
100
AcDbLine
  8
BLACK
 62
256
370
-1
  6
ByLayer
 10
3.0512000000000001
 20
1.6236000000000002
 30
0.0
 11
3.0112000000000001
 21
1.6236000000000002
 31
0.0
  0
LINE
  5
1E9
100
AcDbEntity
100
AcDbLine
  8
BLACK
 62
256
370
-1
  6
ByLayer
 10
3.0112000000000001
 20
1.6236000000000002
 30
0.0
 11
3.0112000000000001
 21
1.6141000000000001
 31
0.0
  0
LINE
  5
1EA
100
AcDbEntity
100
AcDbLine
  8
BLACK
 62
256
370
-1
  6
ByLayer
 10
3.0112000000000001
 20
1.6141000000000001
 30
0.0
 11
3.0131000000000001
 21
1.6083000000000001
 31
0.0
  0
LINE
  5
1EB
100
AcDbEntity
100
AcDbLine
  8
BLACK
 62
256
370
-1
  6
ByLayer
 10
3.0131000000000001
 20
1.6083000000000001
 30
0.0
 11
3.0169000000000001
 21
1.6045
 31
0.0
  0
LINE
  5
1EC
100
AcDbEntity
100
AcDbLine
  8
BLACK
 62
256
370
-1
  6
ByLayer
 10
3.0169000000000001
 20
1.6045
 30
0.0
 11
3.0207000000000002
 21
1.6026
 31
0.0
  0
LINE
  5
1ED
100
AcDbEntity
100
AcDbLine
  8
BLACK
 62
256
370
-1
  6
ByLayer
 10
3.0207000000000002
 20
1.6026
 30
0.0
 11
3.0283000000000002
 21
1.6007
 31
0.0
  0
LINE
  5
1EE
100
AcDbEntity
100
AcDbLine
  8
BLACK
 62
256
370
-1
  6
ByLayer
 10
3.0283000000000002
 20
1.6007
 30
0.0
 11
3.0340000000000003
 21
1.6007
 31
0.0
  0
LINE
  5
1EF
100
AcDbEntity
100
AcDbLine
  8
BLACK
 62
256
370
-1
  6
ByLayer
 10
3.0340000000000003
 20
1.6007
 30
0.0
 11
3.0417000000000001
 21
1.6026
 31
0.0
  0
LINE
  5
1F0
100
AcDbEntity
100
AcDbLine
  8
BLACK
 62
256
370
-1
  6
ByLayer
 10
3.0417000000000001
 20
1.6026
 30
0.0
 11
3.0455000000000001
 21
1.6045
 31
0.0
  0
LINE
  5
1F1
100
AcDbEntity
100
AcDbLine
  8
BLACK
 62
256
370
-1
  6
ByLayer
 10
3.0455000000000001
 20
1.6045
 30
0.0
 11
3.0493000000000001
 21
1.6083000000000001
 31
0.0
  0
LINE
  5
1F2
100
AcDbEntity
100
AcDbLine
  8
BLACK
 62
256
370
-1
  6
ByLayer
 10
3.0493000000000001
 20
1.6083000000000001
 30
0.0
 11
3.0512000000000001
 21
1.6141000000000001
 31
0.0
  0
LINE
  5
1F3
100
AcDbEntity
100
AcDbLine
  8
BLACK
 62
256
370
-1
  6
ByLayer
 10
3.0512000000000001
 20
1.6141000000000001
 30
0.0
 11
3.0512000000000001
 21
1.6236000000000002
 31
0.0
  0
LINE
  5
1F4
100
AcDbEntity
100
AcDbLine
  8
BLACK
 62
256
370
-1
  6
ByLayer
 10
3.0512000000000001
 20
1.5626
 30
0.0
 11
3.0512000000000001
 21
1.5855000000000001
 31
0.0
  0
LINE
  5
1F5
100
AcDbEntity
100
AcDbLine
  8
BLACK
 62
256
370
-1
  6
ByLayer
 10
3.0512000000000001
 20
1.5741000000000001
 30
0.0
 11
3.0112000000000001
 21
1.5741000000000001
 31
0.0
  0
LINE
  5
1F6
100
AcDbEntity
100
AcDbLine
  8
BLACK
 62
256
370
-1
  6
ByLayer
 10
3.0112000000000001
 20
1.5741000000000001
 30
0.0
 11
3.0169000000000001
 21
1.5779000000000001
 31
0.0
  0
LINE
  5
1F7
100
AcDbEntity
100
AcDbLine
  8
BLACK
 62
256
370
-1
  6
ByLayer
 10
3.0169000000000001
 20
1.5779000000000001
 30
0.0
 11
3.0207000000000002
 21
1.5817000000000001
 31
0.0
  0
LINE
  5
1F8
100
AcDbEntity
100
AcDbLine
  8
BLACK
 62
256
370
-1
  6
ByLayer
 10
3.0207000000000002
 20
1.5817000000000001
 30
0.0
 11
3.0226000000000002
 21
1.5855000000000001
 31
0.0
  0
LINE
  5
1F9
100
AcDbEntity
100
AcDbLine
  8
BLACK
 62
256
370
-1
  6
ByLayer
 10
3.0112000000000001
 20
1.5283
 30
0.0
 11
3.0112000000000001
 21
1.536
 31
0.0
  0
LINE
  5
1FA
100
AcDbEntity
100
AcDbLine
  8
BLACK
 62
256
370
-1
  6
ByLayer
 10
3.0112000000000001
 20
1.536
 30
0.0
 11
3.0131000000000001
 21
1.5398000000000001
 31
0.0
  0
LINE
  5
1FB
100
AcDbEntity
100
AcDbLine
  8
BLACK
 62
256
370
-1
  6
ByLayer
 10
3.0131000000000001
 20
1.5398000000000001
 30
0.0
 11
3.0150000000000001
 21
1.5417000000000001
 31
0.0
  0
LINE
  5
1FC
100
AcDbEntity
100
AcDbLine
  8
BLACK
 62
256
370
-1
  6
ByLayer
 10
3.0150000000000001
 20
1.5417000000000001
 30
0.0
 11
3.0207000000000002
 21
1.5455000000000001
 31
0.0
  0
LINE
  5
1FD
100
AcDbEntity
100
AcDbLine
  8
BLACK
 62
256
370
-1
  6
ByLayer
 10
3.0207000000000002
 20
1.5455000000000001
 30
0.0
 11
3.0283000000000002
 21
1.5474000000000001
 31
0.0
  0
LINE
  5
1FE
100
AcDbEntity
100
AcDbLine
  8
BLACK
 62
256
370
-1
  6
ByLayer
 10
3.0283000000000002
 20
1.5474000000000001
 30
0.0
 11
3.0436000000000001
 21
1.5474000000000001
 31
0.0
  0
LINE
  5
1FF
100
AcDbEntity
100
AcDbLine
  8
BLACK
 62
256
370
-1
  6
ByLayer
 10
3.0436000000000001
 20
1.5474000000000001
 30
0.0
 11
3.0474000000000001
 21
1.5455000000000001
 31
0.0
  0
LINE
  5
200
100
AcDbEntity
100
AcDbLine
  8
BLACK
 62
256
370
-1
  6
ByLayer
 10
3.0474000000000001
 20
1.5455000000000001
 30
0.0
 11
3.0493000000000001
 21
1.5436000000000001
 31
0.0
  0
LINE
  5
201
100
AcDbEntity
100
AcDbLine
  8
BLACK
 62
256
370
-1
  6
ByLayer
 10
3.0493000000000001
 20
1.5436000000000001
 30
0.0
 11
3.0512000000000001
 21
1.5398000000000001
 31
0.0
  0
LINE
  5
202
100
AcDbEntity
100
AcDbLine
  8
BLACK
 62
256
370
-1
  6
ByLayer
 10
3.0512000000000001
 20
1.5398000000000001
 30
0.0
 11
3.0512000000000001
 21
1.5321
 31
0.0
  0
LINE
  5
203
100
AcDbEntity
100
AcDbLine
  8
BLACK
 62
256
370
-1
  6
ByLayer
 10
3.0512000000000001
 20
1.5321
 30
0.0
 11
3.0493000000000001
 21
1.5283
 31
0.0
  0
LINE
  5
204
100
AcDbEntity
100
AcDbLine
  8
BLACK
 62
256
370
-1
  6
ByLayer
 10
3.0493000000000001
 20
1.5283
 30
0.0
 11
3.0474000000000001
 21
1.5264
 31
0.0
  0
LINE
  5
205
100
AcDbEntity
100
AcDbLine
  8
BLACK
 62
256
370
-1
  6
ByLayer
 10
3.0474000000000001
 20
1.5264
 30
0.0
 11
3.0436000000000001
 21
1.5245
 31
0.0
  0
LINE
  5
206
100
AcDbEntity
100
AcDbLine
  8
BLACK
 62
256
370
-1
  6
ByLayer
 10
3.0436000000000001
 20
1.5245
 30
0.0
 11
3.0340000000000003
 21
1.5245
 31
0.0
  0
LINE
  5
207
100
AcDbEntity
100
AcDbLine
  8
BLACK
 62
256
370
-1
  6
ByLayer
 10
3.0340000000000003
 20
1.5245
 30
0.0
 11
3.0302000000000002
 21
1.5264
 31
0.0
  0
LINE
  5
208
100
AcDbEntity
100
AcDbLine
  8
BLACK
 62
256
370
-1
  6
ByLayer
 10
3.0302000000000002
 20
1.5264
 30
0.0
 11
3.0283000000000002
 21
1.5283
 31
0.0
  0
LINE
  5
209
100
AcDbEntity
100
AcDbLine
  8
BLACK
 62
256
370
-1
  6
ByLayer
 10
3.0283000000000002
 20
1.5283
 30
0.0
 11
3.0264000000000002
 21
1.5321
 31
0.0
  0
LINE
  5
20A
100
AcDbEntity
100
AcDbLine
  8
BLACK
 62
256
370
-1
  6
ByLayer
 10
3.0264000000000002
 20
1.5321
 30
0.0
 11
3.0264000000000002
 21
1.5398000000000001
 31
0.0
  0
LINE
  5
20B
100
AcDbEntity
100
AcDbLine
  8
BLACK
 62
256
370
-1
  6
ByLayer
 10
3.0264000000000002
 20
1.5398000000000001
 30
0.0
 11
3.0283000000000002
 21
1.5436000000000001
 31
0.0
  0
LINE
  5
20C
100
AcDbEntity
100
AcDbLine
  8
BLACK
 62
256
370
-1
  6
ByLayer
 10
3.0283000000000002
 20
1.5436000000000001
 30
0.0
 11
3.0302000000000002
 21
1.5455000000000001
 31
0.0
  0
LINE
  5
20D
100
AcDbEntity
100
AcDbLine
  8
BLACK
 62
256
370
-1
  6
ByLayer
 10
3.0302000000000002
 20
1.5455000000000001
 30
0.0
 11
3.0340000000000003
 21
1.5474000000000001
 31
0.0
  0
LINE
  5
20E
100
AcDbEntity
100
AcDbLine
  8
BLACK
 62
256
370
-1
  6
ByLayer
 10
3.4512
 20
1.6236000000000002
 30
0.0
 11
3.4112
 21
1.6236000000000002
 31
0.0
  0
LINE
  5
20F
100
AcDbEntity
100
AcDbLine
  8
BLACK
 62
256
370
-1
  6
ByLayer
 10
3.4112
 20
1.6236000000000002
 30
0.0
 11
3.4112
 21
1.6141000000000001
 31
0.0
  0
LINE
  5
210
100
AcDbEntity
100
AcDbLine
  8
BLACK
 62
256
370
-1
  6
ByLayer
 10
3.4112
 20
1.6141000000000001
 30
0.0
 11
3.4131
 21
1.6083000000000001
 31
0.0
  0
LINE
  5
211
100
AcDbEntity
100
AcDbLine
  8
BLACK
 62
256
370
-1
  6
ByLayer
 10
3.4131
 20
1.6083000000000001
 30
0.0
 11
3.4169
 21
1.6045
 31
0.0
  0
LINE
  5
212
100
AcDbEntity
100
AcDbLine
  8
BLACK
 62
256
370
-1
  6
ByLayer
 10
3.4169
 20
1.6045
 30
0.0
 11
3.4207000000000001
 21
1.6026
 31
0.0
  0
LINE
  5
213
100
AcDbEntity
100
AcDbLine
  8
BLACK
 62
256
370
-1
  6
ByLayer
 10
3.4207000000000001
 20
1.6026
 30
0.0
 11
3.4283000000000001
 21
1.6007
 31
0.0
  0
LINE
  5
214
100
AcDbEntity
100
AcDbLine
  8
BLACK
 62
256
370
-1
  6
ByLayer
 10
3.4283000000000001
 20
1.6007
 30
0.0
 11
3.4340000000000002
 21
1.6007
 31
0.0
  0
LINE
  5
215
100
AcDbEntity
100
AcDbLine
  8
BLACK
 62
256
370
-1
  6
ByLayer
 10
3.4340000000000002
 20
1.6007
 30
0.0
 11
3.4417
 21
1.6026
 31
0.0
  0
LINE
  5
216
100
AcDbEntity
100
AcDbLine
  8
BLACK
 62
256
370
-1
  6
ByLayer
 10
3.4417
 20
1.6026
 30
0.0
 11
3.4455
 21
1.6045
 31
0.0
  0
LINE
  5
217
100
AcDbEntity
100
AcDbLine
  8
BLACK
 62
256
370
-1
  6
ByLayer
 10
3.4455
 20
1.6045
 30
0.0
 11
3.4493
 21
1.6083000000000001
 31
0.0
  0
LINE
  5
218
100
AcDbEntity
100
AcDbLine
  8
BLACK
 62
256
370
-1
  6
ByLayer
 10
3.4493
 20
1.6083000000000001
 30
0.0
 11
3.4512
 21
1.6141000000000001
 31
0.0
  0
LINE
  5
219
100
AcDbEntity
100
AcDbLine
  8
BLACK
 62
256
370
-1
  6
ByLayer
 10
3.4512
 20
1.6141000000000001
 30
0.0
 11
3.4512
 21
1.6236000000000002
 31
0.0
  0
LINE
  5
21A
100
AcDbEntity
100
AcDbLine
  8
BLACK
 62
256
370
-1
  6
ByLayer
 10
3.4512
 20
1.5626
 30
0.0
 11
3.4512
 21
1.5855000000000001
 31
0.0
  0
LINE
  5
21B
100
AcDbEntity
100
AcDbLine
  8
BLACK
 62
256
370
-1
  6
ByLayer
 10
3.4512
 20
1.5741000000000001
 30
0.0
 11
3.4112
 21
1.5741000000000001
 31
0.0
  0
LINE
  5
21C
100
AcDbEntity
100
AcDbLine
  8
BLACK
 62
256
370
-1
  6
ByLayer
 10
3.4112
 20
1.5741000000000001
 30
0.0
 11
3.4169
 21
1.5779000000000001
 31
0.0
  0
LINE
  5
21D
100
AcDbEntity
100
AcDbLine
  8
BLACK
 62
256
370
-1
  6
ByLayer
 10
3.4169
 20
1.5779000000000001
 30
0.0
 11
3.4207000000000001
 21
1.5817000000000001
 31
0.0
  0
LINE
  5
21E
100
AcDbEntity
100
AcDbLine
  8
BLACK
 62
256
370
-1
  6
ByLayer
 10
3.4207000000000001
 20
1.5817000000000001
 30
0.0
 11
3.4226000000000001
 21
1.5855000000000001
 31
0.0
  0
LINE
  5
21F
100
AcDbEntity
100
AcDbLine
  8
BLACK
 62
256
370
-1
  6
ByLayer
 10
3.4112
 20
1.5493000000000001
 30
0.0
 11
3.4112
 21
1.5226000000000002
 31
0.0
  0
LINE
  5
220
100
AcDbEntity
100
AcDbLine
  8
BLACK
 62
256
370
-1
  6
ByLayer
 10
3.4112
 20
1.5226000000000002
 30
0.0
 11
3.4512
 21
1.5398000000000001
 31
0.0
  0
LINE
  5
221
100
AcDbEntity
100
AcDbLine
  8
BLACK
 62
256
370
-1
  6
ByLayer
 10
3.3305000000000002
 20
1.2238
 30
0.0
 11
3.3305000000000002
 21
1.1914
 31
0.0
  0
LINE
  5
222
100
AcDbEntity
100
AcDbLine
  8
BLACK
 62
256
370
-1
  6
ByLayer
 10
3.3305000000000002
 20
1.1914
 30
0.0
 11
3.3286000000000002
 21
1.1876
 31
0.0
  0
LINE
  5
223
100
AcDbEntity
100
AcDbLine
  8
BLACK
 62
256
370
-1
  6
ByLayer
 10
3.3286000000000002
 20
1.1876
 30
0.0
 11
3.3267000000000002
 21
1.1857
 31
0.0
  0
LINE
  5
224
100
AcDbEntity
100
AcDbLine
  8
BLACK
 62
256
370
-1
  6
ByLayer
 10
3.3267000000000002
 20
1.1857
 30
0.0
 11
3.3229000000000002
 21
1.1838
 31
0.0
  0
LINE
  5
225
100
AcDbEntity
100
AcDbLine
  8
BLACK
 62
256
370
-1
  6
ByLayer
 10
3.3229000000000002
 20
1.1838
 30
0.0
 11
3.3152000000000004
 21
1.1838
 31
0.0
  0
LINE
  5
226
100
AcDbEntity
100
AcDbLine
  8
BLACK
 62
256
370
-1
  6
ByLayer
 10
3.3152000000000004
 20
1.1838
 30
0.0
 11
3.3114000000000003
 21
1.1857
 31
0.0
  0
LINE
  5
227
100
AcDbEntity
100
AcDbLine
  8
BLACK
 62
256
370
-1
  6
ByLayer
 10
3.3114000000000003
 20
1.1857
 30
0.0
 11
3.3095000000000003
 21
1.1876
 31
0.0
  0
LINE
  5
228
100
AcDbEntity
100
AcDbLine
  8
BLACK
 62
256
370
-1
  6
ByLayer
 10
3.3095000000000003
 20
1.1876
 30
0.0
 11
3.3076000000000003
 21
1.1914
 31
0.0
  0
LINE
  5
229
100
AcDbEntity
100
AcDbLine
  8
BLACK
 62
256
370
-1
  6
ByLayer
 10
3.3076000000000003
 20
1.1914
 30
0.0
 11
3.3076000000000003
 21
1.2238
 31
0.0
  0
LINE
  5
22A
100
AcDbEntity
100
AcDbLine
  8
BLACK
 62
256
370
-1
  6
ByLayer
 10
3.2676000000000003
 20
1.1838
 30
0.0
 11
3.2905000000000002
 21
1.1838
 31
0.0
  0
LINE
  5
22B
100
AcDbEntity
100
AcDbLine
  8
BLACK
 62
256
370
-1
  6
ByLayer
 10
3.2791000000000001
 20
1.1838
 30
0.0
 11
3.2791000000000001
 21
1.2238
 31
0.0
  0
LINE
  5
22C
100
AcDbEntity
100
AcDbLine
  8
BLACK
 62
256
370
-1
  6
ByLayer
 10
3.2791000000000001
 20
1.2238
 30
0.0
 11
3.2829000000000002
 21
1.2181
 31
0.0
  0
LINE
  5
22D
100
AcDbEntity
100
AcDbLine
  8
BLACK
 62
256
370
-1
  6
ByLayer
 10
3.2829000000000002
 20
1.2181
 30
0.0
 11
3.2867000000000002
 21
1.2143000000000002
 31
0.0
  0
LINE
  5
22E
100
AcDbEntity
100
AcDbLine
  8
BLACK
 62
256
370
-1
  6
ByLayer
 10
3.2867000000000002
 20
1.2143000000000002
 30
0.0
 11
3.2905000000000002
 21
1.2124000000000001
 31
0.0
  0
LINE
  5
22F
100
AcDbEntity
100
AcDbLine
  8
BLACK
 62
256
370
-1
  6
ByLayer
 10
3.6828000000000003
 20
0.4607
 30
0.0
 11
3.6485000000000003
 21
0.4607
 31
0.0
  0
LINE
  5
230
100
AcDbEntity
100
AcDbLine
  8
BLACK
 62
256
370
-1
  6
ByLayer
 10
3.6656
 20
0.4007
 30
0.0
 11
3.6656
 21
0.4607
 31
0.0
  0
LINE
  5
231
100
AcDbEntity
100
AcDbLine
  8
BLACK
 62
256
370
-1
  6
ByLayer
 10
3.5999000000000003
 20
0.4007
 30
0.0
 11
3.6285000000000003
 21
0.4007
 31
0.0
  0
LINE
  5
232
100
AcDbEntity
100
AcDbLine
  8
BLACK
 62
256
370
-1
  6
ByLayer
 10
3.6285000000000003
 20
0.4007
 30
0.0
 11
3.6285000000000003
 21
0.4607
 31
0.0
  0
LINE
  5
233
100
AcDbEntity
100
AcDbLine
  8
BLACK
 62
256
370
-1
  6
ByLayer
 10
3.5799000000000003
 20
0.4321
 30
0.0
 11
3.5599000000000003
 21
0.4321
 31
0.0
  0
LINE
  5
234
100
AcDbEntity
100
AcDbLine
  8
BLACK
 62
256
370
-1
  6
ByLayer
 10
3.5513000000000003
 20
0.4007
 30
0.0
 11
3.5799000000000003
 21
0.4007
 31
0.0
  0
LINE
  5
235
100
AcDbEntity
100
AcDbLine
  8
BLACK
 62
256
370
-1
  6
ByLayer
 10
3.5799000000000003
 20
0.4007
 30
0.0
 11
3.5799000000000003
 21
0.4607
 31
0.0
  0
LINE
  5
236
100
AcDbEntity
100
AcDbLine
  8
BLACK
 62
256
370
-1
  6
ByLayer
 10
3.5799000000000003
 20
0.4607
 30
0.0
 11
3.5513000000000003
 21
0.4607
 31
0.0
  0
LINE
  5
237
100
AcDbEntity
100
AcDbLine
  8
BLACK
 62
256
370
-1
  6
ByLayer
 10
3.5313000000000003
 20
0.4607
 30
0.0
 11
3.4913000000000003
 21
0.4607
 31
0.0
  0
LINE
  5
238
100
AcDbEntity
100
AcDbLine
  8
BLACK
 62
256
370
-1
  6
ByLayer
 10
3.4913000000000003
 20
0.4607
 30
0.0
 11
3.5170000000000003
 21
0.4007
 31
0.0
  0
LINE
  5
239
100
AcDbEntity
100
AcDbLine
  8
BLACK
 62
256
370
-1
  6
ByLayer
 10
3.4714
 20
0.455
 30
0.0
 11
3.4685000000000001
 21
0.4579
 31
0.0
  0
LINE
  5
23A
100
AcDbEntity
100
AcDbLine
  8
BLACK
 62
256
370
-1
  6
ByLayer
 10
3.4685000000000001
 20
0.4579
 30
0.0
 11
3.4628000000000001
 21
0.4607
 31
0.0
  0
LINE
  5
23B
100
AcDbEntity
100
AcDbLine
  8
BLACK
 62
256
370
-1
  6
ByLayer
 10
3.4628000000000001
 20
0.4607
 30
0.0
 11
3.4485000000000001
 21
0.4607
 31
0.0
  0
LINE
  5
23C
100
AcDbEntity
100
AcDbLine
  8
BLACK
 62
256
370
-1
  6
ByLayer
 10
3.4485000000000001
 20
0.4607
 30
0.0
 11
3.4428000000000001
 21
0.4579
 31
0.0
  0
LINE
  5
23D
100
AcDbEntity
100
AcDbLine
  8
BLACK
 62
256
370
-1
  6
ByLayer
 10
3.4428000000000001
 20
0.4579
 30
0.0
 11
3.4399000000000002
 21
0.455
 31
0.0
  0
LINE
  5
23E
100
AcDbEntity
100
AcDbLine
  8
BLACK
 62
256
370
-1
  6
ByLayer
 10
3.4399000000000002
 20
0.455
 30
0.0
 11
3.4371
 21
0.4493
 31
0.0
  0
LINE
  5
23F
100
AcDbEntity
100
AcDbLine
  8
BLACK
 62
256
370
-1
  6
ByLayer
 10
3.4371
 20
0.4493
 30
0.0
 11
3.4371
 21
0.4436
 31
0.0
  0
LINE
  5
240
100
AcDbEntity
100
AcDbLine
  8
BLACK
 62
256
370
-1
  6
ByLayer
 10
3.4371
 20
0.4436
 30
0.0
 11
3.4399000000000002
 21
0.435
 31
0.0
  0
LINE
  5
241
100
AcDbEntity
100
AcDbLine
  8
BLACK
 62
256
370
-1
  6
ByLayer
 10
3.4399000000000002
 20
0.435
 30
0.0
 11
3.4742000000000002
 21
0.4007
 31
0.0
  0
LINE
  5
242
100
AcDbEntity
100
AcDbLine
  8
BLACK
 62
256
370
-1
  6
ByLayer
 10
3.4742000000000002
 20
0.4007
 30
0.0
 11
3.4371
 21
0.4007
 31
0.0
  0
LINE
  5
243
100
AcDbEntity
100
AcDbLine
  8
BLACK
 62
256
370
-1
  6
ByLayer
 10
3.4171
 20
0.4607
 30
0.0
 11
3.3800000000000003
 21
0.4607
 31
0.0
  0
LINE
  5
244
100
AcDbEntity
100
AcDbLine
  8
BLACK
 62
256
370
-1
  6
ByLayer
 10
3.3800000000000003
 20
0.4607
 30
0.0
 11
3.4000000000000004
 21
0.4379
 31
0.0
  0
LINE
  5
245
100
AcDbEntity
100
AcDbLine
  8
BLACK
 62
256
370
-1
  6
ByLayer
 10
3.4000000000000004
 20
0.4379
 30
0.0
 11
3.3914
 21
0.4379
 31
0.0
  0
LINE
  5
246
100
AcDbEntity
100
AcDbLine
  8
BLACK
 62
256
370
-1
  6
ByLayer
 10
3.3914
 20
0.4379
 30
0.0
 11
3.3857000000000004
 21
0.435
 31
0.0
  0
LINE
  5
247
100
AcDbEntity
100
AcDbLine
  8
BLACK
 62
256
370
-1
  6
ByLayer
 10
3.3857000000000004
 20
0.435
 30
0.0
 11
3.3828
 21
0.4321
 31
0.0
  0
LINE
  5
248
100
AcDbEntity
100
AcDbLine
  8
BLACK
 62
256
370
-1
  6
ByLayer
 10
3.3828
 20
0.4321
 30
0.0
 11
3.3800000000000003
 21
0.4264
 31
0.0
  0
LINE
  5
249
100
AcDbEntity
100
AcDbLine
  8
BLACK
 62
256
370
-1
  6
ByLayer
 10
3.3800000000000003
 20
0.4264
 30
0.0
 11
3.3800000000000003
 21
0.4121
 31
0.0
  0
LINE
  5
24A
100
AcDbEntity
100
AcDbLine
  8
BLACK
 62
256
370
-1
  6
ByLayer
 10
3.3800000000000003
 20
0.4121
 30
0.0
 11
3.3828
 21
0.4064
 31
0.0
  0
LINE
  5
24B
100
AcDbEntity
100
AcDbLine
  8
BLACK
 62
256
370
-1
  6
ByLayer
 10
3.3828
 20
0.4064
 30
0.0
 11
3.3857000000000004
 21
0.4036
 31
0.0
  0
LINE
  5
24C
100
AcDbEntity
100
AcDbLine
  8
BLACK
 62
256
370
-1
  6
ByLayer
 10
3.3857000000000004
 20
0.4036
 30
0.0
 11
3.3914
 21
0.4007
 31
0.0
  0
LINE
  5
24D
100
AcDbEntity
100
AcDbLine
  8
BLACK
 62
256
370
-1
  6
ByLayer
 10
3.3914
 20
0.4007
 30
0.0
 11
3.4086000000000003
 21
0.4007
 31
0.0
  0
LINE
  5
24E
100
AcDbEntity
100
AcDbLine
  8
BLACK
 62
256
370
-1
  6
ByLayer
 10
3.4086000000000003
 20
0.4007
 30
0.0
 11
3.4143000000000003
 21
0.4036
 31
0.0
  0
LINE
  5
24F
100
AcDbEntity
100
AcDbLine
  8
BLACK
 62
256
370
-1
  6
ByLayer
 10
3.4143000000000003
 20
0.4036
 30
0.0
 11
3.4171
 21
0.4064
 31
0.0
  0
LINE
  5
250
100
AcDbEntity
100
AcDbLine
  8
BLACK
 62
256
370
-1
  6
ByLayer
 10
3.3600000000000003
 20
0.4607
 30
0.0
 11
3.3200000000000003
 21
0.4007
 31
0.0
  0
LINE
  5
251
100
AcDbEntity
100
AcDbLine
  8
BLACK
 62
256
370
-1
  6
ByLayer
 10
3.3200000000000003
 20
0.4607
 30
0.0
 11
3.3600000000000003
 21
0.4007
 31
0.0
  0
LINE
  5
252
100
AcDbEntity
100
AcDbLine
  8
BLACK
 62
256
370
-1
  6
ByLayer
 10
1.0805
 20
0.7488
 30
0.0
 11
1.0805
 21
0.7164
 31
0.0
  0
LINE
  5
253
100
AcDbEntity
100
AcDbLine
  8
BLACK
 62
256
370
-1
  6
ByLayer
 10
1.0805
 20
0.7164
 30
0.0
 11
1.0786
 21
0.7126
 31
0.0
  0
LINE
  5
254
100
AcDbEntity
100
AcDbLine
  8
BLACK
 62
256
370
-1
  6
ByLayer
 10
1.0786
 20
0.7126
 30
0.0
 11
1.0767
 21
0.7107
 31
0.0
  0
LINE
  5
255
100
AcDbEntity
100
AcDbLine
  8
BLACK
 62
256
370
-1
  6
ByLayer
 10
1.0767
 20
0.7107
 30
0.0
 11
1.0729
 21
0.7088
 31
0.0
  0
LINE
  5
256
100
AcDbEntity
100
AcDbLine
  8
BLACK
 62
256
370
-1
  6
ByLayer
 10
1.0729
 20
0.7088
 30
0.0
 11
1.0652000000000001
 21
0.7088
 31
0.0
  0
LINE
  5
257
100
AcDbEntity
100
AcDbLine
  8
BLACK
 62
256
370
-1
  6
ByLayer
 10
1.0652000000000001
 20
0.7088
 30
0.0
 11
1.0614000000000001
 21
0.7107
 31
0.0
  0
LINE
  5
258
100
AcDbEntity
100
AcDbLine
  8
BLACK
 62
256
370
-1
  6
ByLayer
 10
1.0614000000000001
 20
0.7107
 30
0.0
 11
1.0595000000000001
 21
0.7126
 31
0.0
  0
LINE
  5
259
100
AcDbEntity
100
AcDbLine
  8
BLACK
 62
256
370
-1
  6
ByLayer
 10
1.0595000000000001
 20
0.7126
 30
0.0
 11
1.0576000000000001
 21
0.7164
 31
0.0
  0
LINE
  5
25A
100
AcDbEntity
100
AcDbLine
  8
BLACK
 62
256
370
-1
  6
ByLayer
 10
1.0576000000000001
 20
0.7164
 30
0.0
 11
1.0576000000000001
 21
0.7488
 31
0.0
  0
LINE
  5
25B
100
AcDbEntity
100
AcDbLine
  8
BLACK
 62
256
370
-1
  6
ByLayer
 10
1.0405
 20
0.745
 30
0.0
 11
1.0386
 21
0.7469
 31
0.0
  0
LINE
  5
25C
100
AcDbEntity
100
AcDbLine
  8
BLACK
 62
256
370
-1
  6
ByLayer
 10
1.0386
 20
0.7469
 30
0.0
 11
1.0347999999999999
 21
0.7488
 31
0.0
  0
LINE
  5
25D
100
AcDbEntity
100
AcDbLine
  8
BLACK
 62
256
370
-1
  6
ByLayer
 10
1.0347999999999999
 20
0.7488
 30
0.0
 11
1.0252000000000001
 21
0.7488
 31
0.0
  0
LINE
  5
25E
100
AcDbEntity
100
AcDbLine
  8
BLACK
 62
256
370
-1
  6
ByLayer
 10
1.0252000000000001
 20
0.7488
 30
0.0
 11
1.0214000000000001
 21
0.7469
 31
0.0
  0
LINE
  5
25F
100
AcDbEntity
100
AcDbLine
  8
BLACK
 62
256
370
-1
  6
ByLayer
 10
1.0214000000000001
 20
0.7469
 30
0.0
 11
1.0195000000000001
 21
0.745
 31
0.0
  0
LINE
  5
260
100
AcDbEntity
100
AcDbLine
  8
BLACK
 62
256
370
-1
  6
ByLayer
 10
1.0195000000000001
 20
0.745
 30
0.0
 11
1.0176000000000001
 21
0.7412000000000001
 31
0.0
  0
LINE
  5
261
100
AcDbEntity
100
AcDbLine
  8
BLACK
 62
256
370
-1
  6
ByLayer
 10
1.0176000000000001
 20
0.7412000000000001
 30
0.0
 11
1.0176000000000001
 21
0.7374000000000001
 31
0.0
  0
LINE
  5
262
100
AcDbEntity
100
AcDbLine
  8
BLACK
 62
256
370
-1
  6
ByLayer
 10
1.0176000000000001
 20
0.7374000000000001
 30
0.0
 11
1.0195000000000001
 21
0.7317
 31
0.0
  0
LINE
  5
263
100
AcDbEntity
100
AcDbLine
  8
BLACK
 62
256
370
-1
  6
ByLayer
 10
1.0195000000000001
 20
0.7317
 30
0.0
 11
1.0424
 21
0.7088
 31
0.0
  0
LINE
  5
264
100
AcDbEntity
100
AcDbLine
  8
BLACK
 62
256
370
-1
  6
ByLayer
 10
1.0424
 20
0.7088
 30
0.0
 11
1.0176000000000001
 21
0.7088
 31
0.0
  0
LINE
  5
265
100
AcDbEntity
100
AcDbLine
  8
BLACK
 62
256
370
-1
  6
ByLayer
 10
1.2099
 20
0.1507
 30
0.0
 11
1.2099
 21
0.2107
 31
0.0
  0
LINE
  5
266
100
AcDbEntity
100
AcDbLine
  8
BLACK
 62
256
370
-1
  6
ByLayer
 10
1.2099
 20
0.2107
 30
0.0
 11
1.1899
 21
0.1679
 31
0.0
  0
LINE
  5
267
100
AcDbEntity
100
AcDbLine
  8
BLACK
 62
256
370
-1
  6
ByLayer
 10
1.1899
 20
0.1679
 30
0.0
 11
1.1699000000000002
 21
0.2107
 31
0.0
  0
LINE
  5
268
100
AcDbEntity
100
AcDbLine
  8
BLACK
 62
256
370
-1
  6
ByLayer
 10
1.1699000000000002
 20
0.2107
 30
0.0
 11
1.1699000000000002
 21
0.1507
 31
0.0
  0
LINE
  5
269
100
AcDbEntity
100
AcDbLine
  8
BLACK
 62
256
370
-1
  6
ByLayer
 10
1.1442000000000001
 20
0.1679
 30
0.0
 11
1.1156000000000001
 21
0.1679
 31
0.0
  0
LINE
  5
26A
100
AcDbEntity
100
AcDbLine
  8
BLACK
 62
256
370
-1
  6
ByLayer
 10
1.1499000000000001
 20
0.1507
 30
0.0
 11
1.1299000000000001
 21
0.2107
 31
0.0
  0
LINE
  5
26B
100
AcDbEntity
100
AcDbLine
  8
BLACK
 62
256
370
-1
  6
ByLayer
 10
1.1299000000000001
 20
0.2107
 30
0.0
 11
1.1099000000000001
 21
0.1507
 31
0.0
  0
LINE
  5
26C
100
AcDbEntity
100
AcDbLine
  8
BLACK
 62
256
370
-1
  6
ByLayer
 10
1.0956000000000001
 20
0.2107
 30
0.0
 11
1.0556000000000001
 21
0.1507
 31
0.0
  0
LINE
  5
26D
100
AcDbEntity
100
AcDbLine
  8
BLACK
 62
256
370
-1
  6
ByLayer
 10
1.0556000000000001
 20
0.2107
 30
0.0
 11
1.0956000000000001
 21
0.1507
 31
0.0
  0
LINE
  5
26E
100
AcDbEntity
100
AcDbLine
  8
BLACK
 62
256
370
-1
  6
ByLayer
 10
1.0357000000000001
 20
0.205
 30
0.0
 11
1.0327999999999999
 21
0.2079
 31
0.0
  0
LINE
  5
26F
100
AcDbEntity
100
AcDbLine
  8
BLACK
 62
256
370
-1
  6
ByLayer
 10
1.0327999999999999
 20
0.2079
 30
0.0
 11
1.0271000000000001
 21
0.2107
 31
0.0
  0
LINE
  5
270
100
AcDbEntity
100
AcDbLine
  8
BLACK
 62
256
370
-1
  6
ByLayer
 10
1.0271000000000001
 20
0.2107
 30
0.0
 11
1.0128000000000001
 21
0.2107
 31
0.0
  0
LINE
  5
271
100
AcDbEntity
100
AcDbLine
  8
BLACK
 62
256
370
-1
  6
ByLayer
 10
1.0128000000000001
 20
0.2107
 30
0.0
 11
1.0071000000000001
 21
0.2079
 31
0.0
  0
LINE
  5
272
100
AcDbEntity
100
AcDbLine
  8
BLACK
 62
256
370
-1
  6
ByLayer
 10
1.0071000000000001
 20
0.2079
 30
0.0
 11
1.0042
 21
0.205
 31
0.0
  0
LINE
  5
273
100
AcDbEntity
100
AcDbLine
  8
BLACK
 62
256
370
-1
  6
ByLayer
 10
1.0042
 20
0.205
 30
0.0
 11
1.0014000000000001
 21
0.1993
 31
0.0
  0
LINE
  5
274
100
AcDbEntity
100
AcDbLine
  8
BLACK
 62
256
370
-1
  6
ByLayer
 10
1.0014000000000001
 20
0.1993
 30
0.0
 11
1.0014000000000001
 21
0.1936
 31
0.0
  0
LINE
  5
275
100
AcDbEntity
100
AcDbLine
  8
BLACK
 62
256
370
-1
  6
ByLayer
 10
1.0014000000000001
 20
0.1936
 30
0.0
 11
1.0042
 21
0.185
 31
0.0
  0
LINE
  5
276
100
AcDbEntity
100
AcDbLine
  8
BLACK
 62
256
370
-1
  6
ByLayer
 10
1.0042
 20
0.185
 30
0.0
 11
1.0385
 21
0.1507
 31
0.0
  0
LINE
  5
277
100
AcDbEntity
100
AcDbLine
  8
BLACK
 62
256
370
-1
  6
ByLayer
 10
1.0385
 20
0.1507
 30
0.0
 11
1.0014000000000001
 21
0.1507
 31
0.0
  0
LINE
  5
278
100
AcDbEntity
100
AcDbLine
  8
BLACK
 62
256
370
-1
  6
ByLayer
 10
0.9814000000000001
 20
0.2107
 30
0.0
 11
0.9443
 21
0.2107
 31
0.0
  0
LINE
  5
279
100
AcDbEntity
100
AcDbLine
  8
BLACK
 62
256
370
-1
  6
ByLayer
 10
0.9443
 20
0.2107
 30
0.0
 11
0.9643
 21
0.1879
 31
0.0
  0
LINE
  5
27A
100
AcDbEntity
100
AcDbLine
  8
BLACK
 62
256
370
-1
  6
ByLayer
 10
0.9643
 20
0.1879
 30
0.0
 11
0.9557
 21
0.1879
 31
0.0
  0
LINE
  5
27B
100
AcDbEntity
100
AcDbLine
  8
BLACK
 62
256
370
-1
  6
ByLayer
 10
0.9557
 20
0.1879
 30
0.0
 11
0.9500000000000001
 21
0.185
 31
0.0
  0
LINE
  5
27C
100
AcDbEntity
100
AcDbLine
  8
BLACK
 62
256
370
-1
  6
ByLayer
 10
0.9500000000000001
 20
0.185
 30
0.0
 11
0.9471000000000001
 21
0.1821
 31
0.0
  0
LINE
  5
27D
100
AcDbEntity
100
AcDbLine
  8
BLACK
 62
256
370
-1
  6
ByLayer
 10
0.9471000000000001
 20
0.1821
 30
0.0
 11
0.9443
 21
0.1764
 31
0.0
  0
LINE
  5
27E
100
AcDbEntity
100
AcDbLine
  8
BLACK
 62
256
370
-1
  6
ByLayer
 10
0.9443
 20
0.1764
 30
0.0
 11
0.9443
 21
0.1621
 31
0.0
  0
LINE
  5
27F
100
AcDbEntity
100
AcDbLine
  8
BLACK
 62
256
370
-1
  6
ByLayer
 10
0.9443
 20
0.1621
 30
0.0
 11
0.9471000000000001
 21
0.1564
 31
0.0
  0
LINE
  5
280
100
AcDbEntity
100
AcDbLine
  8
BLACK
 62
256
370
-1
  6
ByLayer
 10
0.9471000000000001
 20
0.1564
 30
0.0
 11
0.9500000000000001
 21
0.1536
 31
0.0
  0
LINE
  5
281
100
AcDbEntity
100
AcDbLine
  8
BLACK
 62
256
370
-1
  6
ByLayer
 10
0.9500000000000001
 20
0.1536
 30
0.0
 11
0.9557
 21
0.1507
 31
0.0
  0
LINE
  5
282
100
AcDbEntity
100
AcDbLine
  8
BLACK
 62
256
370
-1
  6
ByLayer
 10
0.9557
 20
0.1507
 30
0.0
 11
0.9729000000000001
 21
0.1507
 31
0.0
  0
LINE
  5
283
100
AcDbEntity
100
AcDbLine
  8
BLACK
 62
256
370
-1
  6
ByLayer
 10
0.9729000000000001
 20
0.1507
 30
0.0
 11
0.9786
 21
0.1536
 31
0.0
  0
LINE
  5
284
100
AcDbEntity
100
AcDbLine
  8
BLACK
 62
256
370
-1
  6
ByLayer
 10
0.9786
 20
0.1536
 30
0.0
 11
0.9814000000000001
 21
0.1564
 31
0.0
  0
LINE
  5
285
100
AcDbEntity
100
AcDbLine
  8
BLACK
 62
256
370
-1
  6
ByLayer
 10
0.9215000000000001
 20
0.205
 30
0.0
 11
0.9186000000000001
 21
0.2079
 31
0.0
  0
LINE
  5
286
100
AcDbEntity
100
AcDbLine
  8
BLACK
 62
256
370
-1
  6
ByLayer
 10
0.9186000000000001
 20
0.2079
 30
0.0
 11
0.9129
 21
0.2107
 31
0.0
  0
LINE
  5
287
100
AcDbEntity
100
AcDbLine
  8
BLACK
 62
256
370
-1
  6
ByLayer
 10
0.9129
 20
0.2107
 30
0.0
 11
0.8986000000000001
 21
0.2107
 31
0.0
  0
LINE
  5
288
100
AcDbEntity
100
AcDbLine
  8
BLACK
 62
256
370
-1
  6
ByLayer
 10
0.8986000000000001
 20
0.2107
 30
0.0
 11
0.8929
 21
0.2079
 31
0.0
  0
LINE
  5
289
100
AcDbEntity
100
AcDbLine
  8
BLACK
 62
256
370
-1
  6
ByLayer
 10
0.8929
 20
0.2079
 30
0.0
 11
0.89
 21
0.205
 31
0.0
  0
LINE
  5
28A
100
AcDbEntity
100
AcDbLine
  8
BLACK
 62
256
370
-1
  6
ByLayer
 10
0.89
 20
0.205
 30
0.0
 11
0.8872
 21
0.1993
 31
0.0
  0
LINE
  5
28B
100
AcDbEntity
100
AcDbLine
  8
BLACK
 62
256
370
-1
  6
ByLayer
 10
0.8872
 20
0.1993
 30
0.0
 11
0.8872
 21
0.1936
 31
0.0
  0
LINE
  5
28C
100
AcDbEntity
100
AcDbLine
  8
BLACK
 62
256
370
-1
  6
ByLayer
 10
0.8872
 20
0.1936
 30
0.0
 11
0.89
 21
0.185
 31
0.0
  0
LINE
  5
28D
100
AcDbEntity
100
AcDbLine
  8
BLACK
 62
256
370
-1
  6
ByLayer
 10
0.89
 20
0.185
 30
0.0
 11
0.9243
 21
0.1507
 31
0.0
  0
LINE
  5
28E
100
AcDbEntity
100
AcDbLine
  8
BLACK
 62
256
370
-1
  6
ByLayer
 10
0.9243
 20
0.1507
 30
0.0
 11
0.8872
 21
0.1507
 31
0.0
  0
ENDSEC
  0
SECTION
  2
OBJECTS
  0
DICTIONARY
  5
C
100
AcDbDictionary
280
0
281
1
  3
ACAD_GROUP
350
D
  3
ACAD_LAYOUT
350
1A
  3
ACAD_MLINESTYLE
350
17
  3
ACAD_PLOTSETTINGS
350
19
  3
ACAD_PLOTSTYLENAME
350
E
  3
AcDbVariableDictionary
350
28F
  0
DICTIONARY
  5
D
100
AcDbDictionary
280
0
281
1
  0
ACDBDICTIONARYWDFLT
  5
E
100
AcDbDictionary
281
1
  3
Normal
350
F
100
AcDbDictionaryWithDefault
340
F
  0
ACDBPLACEHOLDER
  5
F
  0
DICTIONARY
  5
17
100
AcDbDictionary
280
0
281
1
  3
Standard
350
18
  0
MLINESTYLE
  5
18
100
AcDbMlineStyle
  2
STANDARD
 70
0
  3

 62
256
 51
90.0
 52
90.0
 71
2
 49
0.5
 62
256
  6
BYLAYER
 49
-0.5
 62
256
  6
BYLAYER
  0
DICTIONARY
  5
19
100
AcDbDictionary
280
0
281
1
  0
DICTIONARY
  5
1A
100
AcDbDictionary
281
1
  3
Layout1
350
1E
  3
Layout2
350
26
  3
Model
350
22
  0
LAYOUT
  5
1E
100
AcDbPlotSettings
  1

  2
C:\Program Files\AutoCAD 2002\plotters\DWF ePlot (optimized for plotting).pc3
  4

  6

 40
0.0
 41
0.0
 42
0.0
 43
0.0
 44
0.0
 45
0.0
 46
0.0
 47
0.0
 48
0.0
 49
0.0
140
0.0
141
0.0
142
1.0
143
1.0
 70
688
 72
0
 73
0
 74
5
  7

 75
16
147
1.0
148
0.0
149
0.0
100
AcDbLayout
  1
Layout1
 70
1
 71
1
 10
0.0
 20
0.0
 11
420.0
 21
297.0
 12
0.0
 22
0.0
 32
0.0
 14
100000000000000000000.0
 24
100000000000000000000.0
 34
100000000000000000000.0
 15
-100000000000000000000.0
 25
-100000000000000000000.0
 35
-100000000000000000000.0
146
0.0
 13
0.0
 23
0.0
 33
0.0
 16
1.0
 26
0.0
 36
0.0
 17
0.0
 27
1.0
 37
0.0
 76
0
330
1B
  0
LAYOUT
  5
22
100
AcDbPlotSettings
  1

  2
C:\Program Files\AutoCAD 2002\plotters\DWF ePlot (optimized for plotting).pc3
  4

  6

 40
0.0
 41
0.0
 42
0.0
 43
0.0
 44
0.0
 45
0.0
 46
0.0
 47
0.0
 48
0.0
 49
0.0
140
0.0
141
0.0
142
1.0
143
1.0
 70
1712
 72
0
 73
0
 74
0
  7

 75
0
147
1.0
148
0.0
149
0.0
100
AcDbLayout
  1
Model
 70
1
 71
0
 10
0.0
 20
0.0
 11
12.0
 21
9.0
 12
0.0
 22
0.0
 32
0.0
 14
0.0
 24
0.0
 34
0.0
 15
0.0
 25
0.0
 35
0.0
146
0.0
 13
0.0
 23
0.0
 33
0.0
 16
1.0
 26
0.0
 36
0.0
 17
0.0
 27
1.0
 37
0.0
 76
0
330
1F
  0
LAYOUT
  5
26
100
AcDbPlotSettings
  1

  2
C:\Program Files\AutoCAD 2002\plotters\DWF ePlot (optimized for plotting).pc3
  4

  6

 40
0.0
 41
0.0
 42
0.0
 43
0.0
 44
0.0
 45
0.0
 46
0.0
 47
0.0
 48
0.0
 49
0.0
140
0.0
141
0.0
142
1.0
143
1.0
 70
688
 72
0
 73
0
 74
5
  7

 75
16
147
1.0
148
0.0
149
0.0
100
AcDbLayout
  1
Layout2
 70
1
 71
2
 10
0.0
 20
0.0
 11
12.0
 21
9.0
 12
0.0
 22
0.0
 32
0.0
 14
0.0
 24
0.0
 34
0.0
 15
0.0
 25
0.0
 35
0.0
146
0.0
 13
0.0
 23
0.0
 33
0.0
 16
1.0
 26
0.0
 36
0.0
 17
0.0
 27
1.0
 37
0.0
 76
0
330
23
  0
DICTIONARY
  5
28F
100
AcDbDictionary
281
1
  3
DIMASSOC
350
291
  3
HIDETEXT
350
290
  0
DICTIONARYVAR
  5
290
100
DictionaryVariables
280
0
  1
2
  0
DICTIONARYVAR
  5
291
100
DictionaryVariables
280
0
  1
1
  0
ENDSEC
  0
EOF
