G04 (created by PCBNEW-RS274X (2011-05-25)-stable) date Thu 31 Oct 2013 03:42:36 PM EDT*
G01*
G70*
G90*
%MOIN*%
G04 Gerber Fmt 3.4, Leading zero omitted, Abs format*
%FSLAX34Y34*%
G04 APERTURE LIST*
%ADD10C,0.006000*%
%ADD11C,0.009000*%
%ADD12C,0.015000*%
%ADD13C,0.005000*%
%ADD14C,0.010000*%
%ADD15C,0.012000*%
%ADD16C,0.096000*%
%ADD17C,0.160000*%
%ADD18C,0.180000*%
%ADD19C,0.175000*%
%ADD20O,0.080000X0.120000*%
%ADD21C,0.080000*%
%ADD22R,0.120000X0.070000*%
%ADD23R,0.070000X0.120000*%
%ADD24C,0.093000*%
%ADD25R,0.093000X0.093000*%
%ADD26R,0.045000X0.100000*%
%ADD27C,0.170000*%
%ADD28C,0.140000*%
%ADD29R,0.085000X0.085000*%
%ADD30C,0.085000*%
%ADD31R,0.070000X0.044000*%
%ADD32R,0.070000X0.035000*%
%ADD33R,0.081000X0.044000*%
G04 APERTURE END LIST*
G54D10*
G54D11*
X89500Y-51500D02*
X43500Y-51500D01*
X43500Y-30500D02*
X89500Y-30500D01*
X43500Y-30500D02*
X43500Y-51500D01*
X89500Y-51500D02*
X89500Y-30500D01*
G54D12*
X60200Y-45800D02*
X59800Y-45800D01*
X60000Y-46000D02*
X60000Y-45600D01*
G54D13*
X59450Y-46700D02*
X59450Y-46100D01*
X59450Y-46100D02*
X60550Y-46100D01*
X60550Y-46100D02*
X60550Y-46700D01*
X60550Y-47300D02*
X60550Y-47900D01*
X60550Y-47900D02*
X59450Y-47900D01*
X59450Y-47900D02*
X59450Y-47300D01*
G54D12*
X84300Y-35050D02*
X84300Y-35450D01*
X84500Y-35250D02*
X84100Y-35250D01*
G54D13*
X85200Y-35800D02*
X84600Y-35800D01*
X84600Y-35800D02*
X84600Y-34700D01*
X84600Y-34700D02*
X85200Y-34700D01*
X85800Y-34700D02*
X86400Y-34700D01*
X86400Y-34700D02*
X86400Y-35800D01*
X86400Y-35800D02*
X85800Y-35800D01*
X78200Y-39550D02*
X77600Y-39550D01*
X77600Y-39550D02*
X77600Y-38450D01*
X77600Y-38450D02*
X78200Y-38450D01*
X78800Y-38450D02*
X79400Y-38450D01*
X79400Y-38450D02*
X79400Y-39550D01*
X79400Y-39550D02*
X78800Y-39550D01*
X65450Y-46700D02*
X65450Y-46100D01*
X65450Y-46100D02*
X66550Y-46100D01*
X66550Y-46100D02*
X66550Y-46700D01*
X66550Y-47300D02*
X66550Y-47900D01*
X66550Y-47900D02*
X65450Y-47900D01*
X65450Y-47900D02*
X65450Y-47300D01*
X85200Y-34050D02*
X84600Y-34050D01*
X84600Y-34050D02*
X84600Y-32950D01*
X84600Y-32950D02*
X85200Y-32950D01*
X85800Y-32950D02*
X86400Y-32950D01*
X86400Y-32950D02*
X86400Y-34050D01*
X86400Y-34050D02*
X85800Y-34050D01*
X85200Y-32300D02*
X84600Y-32300D01*
X84600Y-32300D02*
X84600Y-31200D01*
X84600Y-31200D02*
X85200Y-31200D01*
X85800Y-31200D02*
X86400Y-31200D01*
X86400Y-31200D02*
X86400Y-32300D01*
X86400Y-32300D02*
X85800Y-32300D01*
X71450Y-46700D02*
X71450Y-46100D01*
X71450Y-46100D02*
X72550Y-46100D01*
X72550Y-46100D02*
X72550Y-46700D01*
X72550Y-47300D02*
X72550Y-47900D01*
X72550Y-47900D02*
X71450Y-47900D01*
X71450Y-47900D02*
X71450Y-47300D01*
G54D12*
X67103Y-40500D02*
X67096Y-40568D01*
X67076Y-40634D01*
X67044Y-40695D01*
X67000Y-40748D01*
X66947Y-40792D01*
X66886Y-40825D01*
X66820Y-40845D01*
X66752Y-40852D01*
X66684Y-40846D01*
X66618Y-40827D01*
X66557Y-40795D01*
X66504Y-40752D01*
X66459Y-40699D01*
X66426Y-40639D01*
X66405Y-40573D01*
X66398Y-40504D01*
X66403Y-40437D01*
X66422Y-40371D01*
X66454Y-40309D01*
X66497Y-40255D01*
X66549Y-40211D01*
X66609Y-40177D01*
X66675Y-40156D01*
X66743Y-40148D01*
X66811Y-40153D01*
X66877Y-40171D01*
X66939Y-40202D01*
X66993Y-40245D01*
X67038Y-40297D01*
X67072Y-40357D01*
X67094Y-40422D01*
X67102Y-40491D01*
X67103Y-40500D01*
X67250Y-39500D02*
X67250Y-41000D01*
X67250Y-41000D02*
X62750Y-41000D01*
X62750Y-41000D02*
X62750Y-39500D01*
X62750Y-39500D02*
X67250Y-39500D01*
G54D13*
X87200Y-45450D02*
X87200Y-44850D01*
X87200Y-44850D02*
X88300Y-44850D01*
X88300Y-44850D02*
X88300Y-45450D01*
X88300Y-46050D02*
X88300Y-46650D01*
X88300Y-46650D02*
X87200Y-46650D01*
X87200Y-46650D02*
X87200Y-46050D01*
X51800Y-48550D02*
X51800Y-49150D01*
X51800Y-49150D02*
X50700Y-49150D01*
X50700Y-49150D02*
X50700Y-48550D01*
X50700Y-47950D02*
X50700Y-47350D01*
X50700Y-47350D02*
X51800Y-47350D01*
X51800Y-47350D02*
X51800Y-47950D01*
X51800Y-46050D02*
X51800Y-46650D01*
X51800Y-46650D02*
X50700Y-46650D01*
X50700Y-46650D02*
X50700Y-46050D01*
X50700Y-45450D02*
X50700Y-44850D01*
X50700Y-44850D02*
X51800Y-44850D01*
X51800Y-44850D02*
X51800Y-45450D01*
G54D12*
X79750Y-40500D02*
X79745Y-40548D01*
X79731Y-40595D01*
X79708Y-40638D01*
X79677Y-40676D01*
X79639Y-40707D01*
X79596Y-40730D01*
X79550Y-40744D01*
X79501Y-40749D01*
X79454Y-40745D01*
X79407Y-40731D01*
X79364Y-40709D01*
X79326Y-40678D01*
X79294Y-40641D01*
X79271Y-40598D01*
X79256Y-40551D01*
X79251Y-40503D01*
X79255Y-40455D01*
X79268Y-40408D01*
X79290Y-40365D01*
X79321Y-40327D01*
X79358Y-40295D01*
X79400Y-40271D01*
X79447Y-40256D01*
X79495Y-40251D01*
X79543Y-40254D01*
X79590Y-40267D01*
X79633Y-40289D01*
X79672Y-40319D01*
X79704Y-40356D01*
X79728Y-40399D01*
X79743Y-40445D01*
X79749Y-40494D01*
X79750Y-40500D01*
X77000Y-40000D02*
X80000Y-40000D01*
X80000Y-40000D02*
X80000Y-46500D01*
X80000Y-46500D02*
X77000Y-46500D01*
X77000Y-46500D02*
X77000Y-40000D01*
X54000Y-49000D02*
X53995Y-49048D01*
X53981Y-49095D01*
X53958Y-49138D01*
X53927Y-49176D01*
X53889Y-49207D01*
X53846Y-49230D01*
X53800Y-49244D01*
X53751Y-49249D01*
X53704Y-49245D01*
X53657Y-49231D01*
X53614Y-49209D01*
X53576Y-49178D01*
X53544Y-49141D01*
X53521Y-49098D01*
X53506Y-49051D01*
X53501Y-49003D01*
X53505Y-48955D01*
X53518Y-48908D01*
X53540Y-48865D01*
X53571Y-48827D01*
X53608Y-48795D01*
X53650Y-48771D01*
X53697Y-48756D01*
X53745Y-48751D01*
X53793Y-48754D01*
X53840Y-48767D01*
X53883Y-48789D01*
X53922Y-48819D01*
X53954Y-48856D01*
X53978Y-48899D01*
X53993Y-48945D01*
X53999Y-48994D01*
X54000Y-49000D01*
X54500Y-49250D02*
X53500Y-49250D01*
X53500Y-49250D02*
X53500Y-44750D01*
X53500Y-44750D02*
X54500Y-44750D01*
X54500Y-44750D02*
X54500Y-49250D01*
G54D14*
X60066Y-48624D02*
X60085Y-48643D01*
X60142Y-48662D01*
X60180Y-48662D01*
X60238Y-48643D01*
X60276Y-48605D01*
X60295Y-48567D01*
X60314Y-48490D01*
X60314Y-48433D01*
X60295Y-48357D01*
X60276Y-48319D01*
X60238Y-48281D01*
X60180Y-48262D01*
X60142Y-48262D01*
X60085Y-48281D01*
X60066Y-48300D01*
X59704Y-48262D02*
X59895Y-48262D01*
X59914Y-48452D01*
X59895Y-48433D01*
X59857Y-48414D01*
X59761Y-48414D01*
X59723Y-48433D01*
X59704Y-48452D01*
X59685Y-48490D01*
X59685Y-48586D01*
X59704Y-48624D01*
X59723Y-48643D01*
X59761Y-48662D01*
X59857Y-48662D01*
X59895Y-48643D01*
X59914Y-48624D01*
G54D13*
X59100Y-46436D02*
X59086Y-46450D01*
X59071Y-46479D01*
X59071Y-46550D01*
X59086Y-46579D01*
X59100Y-46593D01*
X59129Y-46608D01*
X59157Y-46608D01*
X59200Y-46593D01*
X59371Y-46422D01*
X59371Y-46608D01*
X59343Y-46736D02*
X59357Y-46751D01*
X59371Y-46736D01*
X59357Y-46722D01*
X59343Y-46736D01*
X59371Y-46736D01*
X59100Y-46865D02*
X59086Y-46879D01*
X59071Y-46908D01*
X59071Y-46979D01*
X59086Y-47008D01*
X59100Y-47022D01*
X59129Y-47037D01*
X59157Y-47037D01*
X59200Y-47022D01*
X59371Y-46851D01*
X59371Y-47037D01*
X59171Y-47294D02*
X59371Y-47294D01*
X59171Y-47165D02*
X59329Y-47165D01*
X59357Y-47180D01*
X59371Y-47208D01*
X59371Y-47251D01*
X59357Y-47280D01*
X59343Y-47294D01*
X59214Y-47536D02*
X59214Y-47436D01*
X59371Y-47436D02*
X59071Y-47436D01*
X59071Y-47579D01*
G54D14*
X86874Y-35184D02*
X86893Y-35165D01*
X86912Y-35108D01*
X86912Y-35070D01*
X86893Y-35012D01*
X86855Y-34974D01*
X86817Y-34955D01*
X86740Y-34936D01*
X86683Y-34936D01*
X86607Y-34955D01*
X86569Y-34974D01*
X86531Y-35012D01*
X86512Y-35070D01*
X86512Y-35108D01*
X86531Y-35165D01*
X86550Y-35184D01*
X86512Y-35527D02*
X86512Y-35450D01*
X86531Y-35412D01*
X86550Y-35393D01*
X86607Y-35355D01*
X86683Y-35336D01*
X86836Y-35336D01*
X86874Y-35355D01*
X86893Y-35374D01*
X86912Y-35412D01*
X86912Y-35489D01*
X86893Y-35527D01*
X86874Y-35546D01*
X86836Y-35565D01*
X86740Y-35565D01*
X86702Y-35546D01*
X86683Y-35527D01*
X86664Y-35489D01*
X86664Y-35412D01*
X86683Y-35374D01*
X86702Y-35355D01*
X86740Y-35336D01*
G54D13*
X86064Y-36050D02*
X86050Y-36036D01*
X86021Y-36021D01*
X85950Y-36021D01*
X85921Y-36036D01*
X85907Y-36050D01*
X85892Y-36079D01*
X85892Y-36107D01*
X85907Y-36150D01*
X86078Y-36321D01*
X85892Y-36321D01*
X85764Y-36293D02*
X85749Y-36307D01*
X85764Y-36321D01*
X85778Y-36307D01*
X85764Y-36293D01*
X85764Y-36321D01*
X85635Y-36050D02*
X85621Y-36036D01*
X85592Y-36021D01*
X85521Y-36021D01*
X85492Y-36036D01*
X85478Y-36050D01*
X85463Y-36079D01*
X85463Y-36107D01*
X85478Y-36150D01*
X85649Y-36321D01*
X85463Y-36321D01*
X85206Y-36121D02*
X85206Y-36321D01*
X85335Y-36121D02*
X85335Y-36279D01*
X85320Y-36307D01*
X85292Y-36321D01*
X85249Y-36321D01*
X85220Y-36307D01*
X85206Y-36293D01*
X84964Y-36164D02*
X85064Y-36164D01*
X85064Y-36321D02*
X85064Y-36021D01*
X84921Y-36021D01*
G54D14*
X78566Y-38124D02*
X78585Y-38143D01*
X78642Y-38162D01*
X78680Y-38162D01*
X78738Y-38143D01*
X78776Y-38105D01*
X78795Y-38067D01*
X78814Y-37990D01*
X78814Y-37933D01*
X78795Y-37857D01*
X78776Y-37819D01*
X78738Y-37781D01*
X78680Y-37762D01*
X78642Y-37762D01*
X78585Y-37781D01*
X78566Y-37800D01*
X78185Y-38162D02*
X78414Y-38162D01*
X78300Y-38162D02*
X78300Y-37762D01*
X78338Y-37819D01*
X78376Y-37857D01*
X78414Y-37876D01*
G54D13*
X79621Y-38508D02*
X79621Y-38536D01*
X79636Y-38565D01*
X79650Y-38579D01*
X79679Y-38593D01*
X79736Y-38608D01*
X79807Y-38608D01*
X79864Y-38593D01*
X79893Y-38579D01*
X79907Y-38565D01*
X79921Y-38536D01*
X79921Y-38508D01*
X79907Y-38479D01*
X79893Y-38465D01*
X79864Y-38450D01*
X79807Y-38436D01*
X79736Y-38436D01*
X79679Y-38450D01*
X79650Y-38465D01*
X79636Y-38479D01*
X79621Y-38508D01*
X79893Y-38736D02*
X79907Y-38751D01*
X79921Y-38736D01*
X79907Y-38722D01*
X79893Y-38736D01*
X79921Y-38736D01*
X79921Y-39037D02*
X79921Y-38865D01*
X79921Y-38951D02*
X79621Y-38951D01*
X79664Y-38922D01*
X79693Y-38894D01*
X79707Y-38865D01*
X79721Y-39294D02*
X79921Y-39294D01*
X79721Y-39165D02*
X79879Y-39165D01*
X79907Y-39180D01*
X79921Y-39208D01*
X79921Y-39251D01*
X79907Y-39280D01*
X79893Y-39294D01*
X79764Y-39536D02*
X79764Y-39436D01*
X79921Y-39436D02*
X79621Y-39436D01*
X79621Y-39579D01*
G54D14*
X66066Y-48624D02*
X66085Y-48643D01*
X66142Y-48662D01*
X66180Y-48662D01*
X66238Y-48643D01*
X66276Y-48605D01*
X66295Y-48567D01*
X66314Y-48490D01*
X66314Y-48433D01*
X66295Y-48357D01*
X66276Y-48319D01*
X66238Y-48281D01*
X66180Y-48262D01*
X66142Y-48262D01*
X66085Y-48281D01*
X66066Y-48300D01*
X65933Y-48262D02*
X65666Y-48262D01*
X65838Y-48662D01*
G54D13*
X66492Y-45571D02*
X66464Y-45571D01*
X66435Y-45586D01*
X66421Y-45600D01*
X66407Y-45629D01*
X66392Y-45686D01*
X66392Y-45757D01*
X66407Y-45814D01*
X66421Y-45843D01*
X66435Y-45857D01*
X66464Y-45871D01*
X66492Y-45871D01*
X66521Y-45857D01*
X66535Y-45843D01*
X66550Y-45814D01*
X66564Y-45757D01*
X66564Y-45686D01*
X66550Y-45629D01*
X66535Y-45600D01*
X66521Y-45586D01*
X66492Y-45571D01*
X66264Y-45843D02*
X66249Y-45857D01*
X66264Y-45871D01*
X66278Y-45857D01*
X66264Y-45843D01*
X66264Y-45871D01*
X65963Y-45871D02*
X66135Y-45871D01*
X66049Y-45871D02*
X66049Y-45571D01*
X66078Y-45614D01*
X66106Y-45643D01*
X66135Y-45657D01*
X65706Y-45671D02*
X65706Y-45871D01*
X65835Y-45671D02*
X65835Y-45829D01*
X65820Y-45857D01*
X65792Y-45871D01*
X65749Y-45871D01*
X65720Y-45857D01*
X65706Y-45843D01*
X65464Y-45714D02*
X65564Y-45714D01*
X65564Y-45871D02*
X65564Y-45571D01*
X65421Y-45571D01*
G54D14*
X86874Y-33434D02*
X86893Y-33415D01*
X86912Y-33358D01*
X86912Y-33320D01*
X86893Y-33262D01*
X86855Y-33224D01*
X86817Y-33205D01*
X86740Y-33186D01*
X86683Y-33186D01*
X86607Y-33205D01*
X86569Y-33224D01*
X86531Y-33262D01*
X86512Y-33320D01*
X86512Y-33358D01*
X86531Y-33415D01*
X86550Y-33434D01*
X86645Y-33777D02*
X86912Y-33777D01*
X86493Y-33681D02*
X86779Y-33586D01*
X86779Y-33834D01*
G54D13*
X85821Y-34521D02*
X85993Y-34521D01*
X85907Y-34521D02*
X85907Y-34221D01*
X85936Y-34264D01*
X85964Y-34293D01*
X85993Y-34307D01*
X85635Y-34221D02*
X85607Y-34221D01*
X85578Y-34236D01*
X85564Y-34250D01*
X85550Y-34279D01*
X85535Y-34336D01*
X85535Y-34407D01*
X85550Y-34464D01*
X85564Y-34493D01*
X85578Y-34507D01*
X85607Y-34521D01*
X85635Y-34521D01*
X85664Y-34507D01*
X85678Y-34493D01*
X85693Y-34464D01*
X85707Y-34407D01*
X85707Y-34336D01*
X85693Y-34279D01*
X85678Y-34250D01*
X85664Y-34236D01*
X85635Y-34221D01*
X85278Y-34321D02*
X85278Y-34521D01*
X85407Y-34321D02*
X85407Y-34479D01*
X85392Y-34507D01*
X85364Y-34521D01*
X85321Y-34521D01*
X85292Y-34507D01*
X85278Y-34493D01*
X85036Y-34364D02*
X85136Y-34364D01*
X85136Y-34521D02*
X85136Y-34221D01*
X84993Y-34221D01*
G54D14*
X86874Y-31684D02*
X86893Y-31665D01*
X86912Y-31608D01*
X86912Y-31570D01*
X86893Y-31512D01*
X86855Y-31474D01*
X86817Y-31455D01*
X86740Y-31436D01*
X86683Y-31436D01*
X86607Y-31455D01*
X86569Y-31474D01*
X86531Y-31512D01*
X86512Y-31570D01*
X86512Y-31608D01*
X86531Y-31665D01*
X86550Y-31684D01*
X86550Y-31836D02*
X86531Y-31855D01*
X86512Y-31893D01*
X86512Y-31989D01*
X86531Y-32027D01*
X86550Y-32046D01*
X86588Y-32065D01*
X86626Y-32065D01*
X86683Y-32046D01*
X86912Y-31817D01*
X86912Y-32065D01*
G54D13*
X85992Y-32421D02*
X85964Y-32421D01*
X85935Y-32436D01*
X85921Y-32450D01*
X85907Y-32479D01*
X85892Y-32536D01*
X85892Y-32607D01*
X85907Y-32664D01*
X85921Y-32693D01*
X85935Y-32707D01*
X85964Y-32721D01*
X85992Y-32721D01*
X86021Y-32707D01*
X86035Y-32693D01*
X86050Y-32664D01*
X86064Y-32607D01*
X86064Y-32536D01*
X86050Y-32479D01*
X86035Y-32450D01*
X86021Y-32436D01*
X85992Y-32421D01*
X85764Y-32693D02*
X85749Y-32707D01*
X85764Y-32721D01*
X85778Y-32707D01*
X85764Y-32693D01*
X85764Y-32721D01*
X85463Y-32721D02*
X85635Y-32721D01*
X85549Y-32721D02*
X85549Y-32421D01*
X85578Y-32464D01*
X85606Y-32493D01*
X85635Y-32507D01*
X85206Y-32521D02*
X85206Y-32721D01*
X85335Y-32521D02*
X85335Y-32679D01*
X85320Y-32707D01*
X85292Y-32721D01*
X85249Y-32721D01*
X85220Y-32707D01*
X85206Y-32693D01*
X84964Y-32564D02*
X85064Y-32564D01*
X85064Y-32721D02*
X85064Y-32421D01*
X84921Y-32421D01*
G54D14*
X72066Y-48624D02*
X72085Y-48643D01*
X72142Y-48662D01*
X72180Y-48662D01*
X72238Y-48643D01*
X72276Y-48605D01*
X72295Y-48567D01*
X72314Y-48490D01*
X72314Y-48433D01*
X72295Y-48357D01*
X72276Y-48319D01*
X72238Y-48281D01*
X72180Y-48262D01*
X72142Y-48262D01*
X72085Y-48281D01*
X72066Y-48300D01*
X71933Y-48262D02*
X71685Y-48262D01*
X71819Y-48414D01*
X71761Y-48414D01*
X71723Y-48433D01*
X71704Y-48452D01*
X71685Y-48490D01*
X71685Y-48586D01*
X71704Y-48624D01*
X71723Y-48643D01*
X71761Y-48662D01*
X71876Y-48662D01*
X71914Y-48643D01*
X71933Y-48624D01*
G54D13*
X72321Y-45871D02*
X72493Y-45871D01*
X72407Y-45871D02*
X72407Y-45571D01*
X72436Y-45614D01*
X72464Y-45643D01*
X72493Y-45657D01*
X72135Y-45571D02*
X72107Y-45571D01*
X72078Y-45586D01*
X72064Y-45600D01*
X72050Y-45629D01*
X72035Y-45686D01*
X72035Y-45757D01*
X72050Y-45814D01*
X72064Y-45843D01*
X72078Y-45857D01*
X72107Y-45871D01*
X72135Y-45871D01*
X72164Y-45857D01*
X72178Y-45843D01*
X72193Y-45814D01*
X72207Y-45757D01*
X72207Y-45686D01*
X72193Y-45629D01*
X72178Y-45600D01*
X72164Y-45586D01*
X72135Y-45571D01*
X71778Y-45671D02*
X71778Y-45871D01*
X71907Y-45671D02*
X71907Y-45829D01*
X71892Y-45857D01*
X71864Y-45871D01*
X71821Y-45871D01*
X71792Y-45857D01*
X71778Y-45843D01*
X71536Y-45714D02*
X71636Y-45714D01*
X71636Y-45871D02*
X71636Y-45571D01*
X71493Y-45571D01*
G54D14*
X62412Y-39984D02*
X62221Y-39850D01*
X62412Y-39755D02*
X62012Y-39755D01*
X62012Y-39908D01*
X62031Y-39946D01*
X62050Y-39965D01*
X62088Y-39984D01*
X62145Y-39984D01*
X62183Y-39965D01*
X62202Y-39946D01*
X62221Y-39908D01*
X62221Y-39755D01*
X62412Y-40155D02*
X62012Y-40155D01*
X62012Y-40308D01*
X62031Y-40346D01*
X62050Y-40365D01*
X62088Y-40384D01*
X62145Y-40384D01*
X62183Y-40365D01*
X62202Y-40346D01*
X62221Y-40308D01*
X62221Y-40155D01*
X62412Y-40765D02*
X62412Y-40536D01*
X62412Y-40650D02*
X62012Y-40650D01*
X62069Y-40612D01*
X62107Y-40574D01*
X62126Y-40536D01*
X67550Y-39688D02*
X67531Y-39707D01*
X67512Y-39745D01*
X67512Y-39841D01*
X67531Y-39879D01*
X67550Y-39898D01*
X67588Y-39917D01*
X67626Y-39917D01*
X67683Y-39898D01*
X67912Y-39669D01*
X67912Y-39917D01*
X67874Y-40088D02*
X67893Y-40107D01*
X67912Y-40088D01*
X67893Y-40069D01*
X67874Y-40088D01*
X67912Y-40088D01*
X67550Y-40259D02*
X67531Y-40278D01*
X67512Y-40316D01*
X67512Y-40412D01*
X67531Y-40450D01*
X67550Y-40469D01*
X67588Y-40488D01*
X67626Y-40488D01*
X67683Y-40469D01*
X67912Y-40240D01*
X67912Y-40488D01*
X67912Y-40659D02*
X67512Y-40659D01*
X67760Y-40697D02*
X67912Y-40812D01*
X67645Y-40812D02*
X67798Y-40659D01*
X87816Y-44624D02*
X87835Y-44643D01*
X87892Y-44662D01*
X87930Y-44662D01*
X87988Y-44643D01*
X88026Y-44605D01*
X88045Y-44567D01*
X88064Y-44490D01*
X88064Y-44433D01*
X88045Y-44357D01*
X88026Y-44319D01*
X87988Y-44281D01*
X87930Y-44262D01*
X87892Y-44262D01*
X87835Y-44281D01*
X87816Y-44300D01*
X87588Y-44433D02*
X87626Y-44414D01*
X87645Y-44395D01*
X87664Y-44357D01*
X87664Y-44338D01*
X87645Y-44300D01*
X87626Y-44281D01*
X87588Y-44262D01*
X87511Y-44262D01*
X87473Y-44281D01*
X87454Y-44300D01*
X87435Y-44338D01*
X87435Y-44357D01*
X87454Y-44395D01*
X87473Y-44414D01*
X87511Y-44433D01*
X87588Y-44433D01*
X87626Y-44452D01*
X87645Y-44471D01*
X87664Y-44510D01*
X87664Y-44586D01*
X87645Y-44624D01*
X87626Y-44643D01*
X87588Y-44662D01*
X87511Y-44662D01*
X87473Y-44643D01*
X87454Y-44624D01*
X87435Y-44586D01*
X87435Y-44510D01*
X87454Y-44471D01*
X87473Y-44452D01*
X87511Y-44433D01*
G54D13*
X88071Y-47121D02*
X88243Y-47121D01*
X88157Y-47121D02*
X88157Y-46821D01*
X88186Y-46864D01*
X88214Y-46893D01*
X88243Y-46907D01*
X87885Y-46821D02*
X87857Y-46821D01*
X87828Y-46836D01*
X87814Y-46850D01*
X87800Y-46879D01*
X87785Y-46936D01*
X87785Y-47007D01*
X87800Y-47064D01*
X87814Y-47093D01*
X87828Y-47107D01*
X87857Y-47121D01*
X87885Y-47121D01*
X87914Y-47107D01*
X87928Y-47093D01*
X87943Y-47064D01*
X87957Y-47007D01*
X87957Y-46936D01*
X87943Y-46879D01*
X87928Y-46850D01*
X87914Y-46836D01*
X87885Y-46821D01*
X87528Y-46921D02*
X87528Y-47121D01*
X87657Y-46921D02*
X87657Y-47079D01*
X87642Y-47107D01*
X87614Y-47121D01*
X87571Y-47121D01*
X87542Y-47107D01*
X87528Y-47093D01*
X87286Y-46964D02*
X87386Y-46964D01*
X87386Y-47121D02*
X87386Y-46821D01*
X87243Y-46821D01*
G54D14*
X51316Y-49624D02*
X51335Y-49643D01*
X51392Y-49662D01*
X51430Y-49662D01*
X51488Y-49643D01*
X51526Y-49605D01*
X51545Y-49567D01*
X51564Y-49490D01*
X51564Y-49433D01*
X51545Y-49357D01*
X51526Y-49319D01*
X51488Y-49281D01*
X51430Y-49262D01*
X51392Y-49262D01*
X51335Y-49281D01*
X51316Y-49300D01*
X51126Y-49662D02*
X51050Y-49662D01*
X51011Y-49643D01*
X50992Y-49624D01*
X50954Y-49567D01*
X50935Y-49490D01*
X50935Y-49338D01*
X50954Y-49300D01*
X50973Y-49281D01*
X51011Y-49262D01*
X51088Y-49262D01*
X51126Y-49281D01*
X51145Y-49300D01*
X51164Y-49338D01*
X51164Y-49433D01*
X51145Y-49471D01*
X51126Y-49490D01*
X51088Y-49510D01*
X51011Y-49510D01*
X50973Y-49490D01*
X50954Y-49471D01*
X50935Y-49433D01*
G54D13*
X50621Y-48072D02*
X50621Y-47900D01*
X50621Y-47986D02*
X50321Y-47986D01*
X50364Y-47957D01*
X50393Y-47929D01*
X50407Y-47900D01*
X50421Y-48329D02*
X50621Y-48329D01*
X50421Y-48200D02*
X50579Y-48200D01*
X50607Y-48215D01*
X50621Y-48243D01*
X50621Y-48286D01*
X50607Y-48315D01*
X50593Y-48329D01*
X50464Y-48571D02*
X50464Y-48471D01*
X50621Y-48471D02*
X50321Y-48471D01*
X50321Y-48614D01*
G54D14*
X51507Y-44624D02*
X51526Y-44643D01*
X51583Y-44662D01*
X51621Y-44662D01*
X51679Y-44643D01*
X51717Y-44605D01*
X51736Y-44567D01*
X51755Y-44490D01*
X51755Y-44433D01*
X51736Y-44357D01*
X51717Y-44319D01*
X51679Y-44281D01*
X51621Y-44262D01*
X51583Y-44262D01*
X51526Y-44281D01*
X51507Y-44300D01*
X51126Y-44662D02*
X51355Y-44662D01*
X51241Y-44662D02*
X51241Y-44262D01*
X51279Y-44319D01*
X51317Y-44357D01*
X51355Y-44376D01*
X50879Y-44262D02*
X50840Y-44262D01*
X50802Y-44281D01*
X50783Y-44300D01*
X50764Y-44338D01*
X50745Y-44414D01*
X50745Y-44510D01*
X50764Y-44586D01*
X50783Y-44624D01*
X50802Y-44643D01*
X50840Y-44662D01*
X50879Y-44662D01*
X50917Y-44643D01*
X50936Y-44624D01*
X50955Y-44586D01*
X50974Y-44510D01*
X50974Y-44414D01*
X50955Y-44338D01*
X50936Y-44300D01*
X50917Y-44281D01*
X50879Y-44262D01*
G54D13*
X50621Y-45572D02*
X50621Y-45400D01*
X50621Y-45486D02*
X50321Y-45486D01*
X50364Y-45457D01*
X50393Y-45429D01*
X50407Y-45400D01*
X50421Y-45829D02*
X50621Y-45829D01*
X50421Y-45700D02*
X50579Y-45700D01*
X50607Y-45715D01*
X50621Y-45743D01*
X50621Y-45786D01*
X50607Y-45815D01*
X50593Y-45829D01*
X50464Y-46071D02*
X50464Y-45971D01*
X50621Y-45971D02*
X50321Y-45971D01*
X50321Y-46114D01*
G54D14*
X50012Y-35264D02*
X49612Y-35264D01*
X49612Y-35359D01*
X49631Y-35417D01*
X49669Y-35455D01*
X49707Y-35474D01*
X49783Y-35493D01*
X49840Y-35493D01*
X49917Y-35474D01*
X49955Y-35455D01*
X49993Y-35417D01*
X50012Y-35359D01*
X50012Y-35264D01*
X50012Y-35874D02*
X50012Y-35645D01*
X50012Y-35759D02*
X49612Y-35759D01*
X49669Y-35721D01*
X49707Y-35683D01*
X49726Y-35645D01*
X49612Y-36121D02*
X49612Y-36160D01*
X49631Y-36198D01*
X49650Y-36217D01*
X49688Y-36236D01*
X49764Y-36255D01*
X49860Y-36255D01*
X49936Y-36236D01*
X49974Y-36217D01*
X49993Y-36198D01*
X50012Y-36160D01*
X50012Y-36121D01*
X49993Y-36083D01*
X49974Y-36064D01*
X49936Y-36045D01*
X49860Y-36026D01*
X49764Y-36026D01*
X49688Y-36045D01*
X49650Y-36064D01*
X49631Y-36083D01*
X49612Y-36121D01*
X54012Y-35264D02*
X53612Y-35264D01*
X53612Y-35359D01*
X53631Y-35417D01*
X53669Y-35455D01*
X53707Y-35474D01*
X53783Y-35493D01*
X53840Y-35493D01*
X53917Y-35474D01*
X53955Y-35455D01*
X53993Y-35417D01*
X54012Y-35359D01*
X54012Y-35264D01*
X54012Y-35874D02*
X54012Y-35645D01*
X54012Y-35759D02*
X53612Y-35759D01*
X53669Y-35721D01*
X53707Y-35683D01*
X53726Y-35645D01*
X54012Y-36255D02*
X54012Y-36026D01*
X54012Y-36140D02*
X53612Y-36140D01*
X53669Y-36102D01*
X53707Y-36064D01*
X53726Y-36026D01*
X58012Y-35264D02*
X57612Y-35264D01*
X57612Y-35359D01*
X57631Y-35417D01*
X57669Y-35455D01*
X57707Y-35474D01*
X57783Y-35493D01*
X57840Y-35493D01*
X57917Y-35474D01*
X57955Y-35455D01*
X57993Y-35417D01*
X58012Y-35359D01*
X58012Y-35264D01*
X58012Y-35874D02*
X58012Y-35645D01*
X58012Y-35759D02*
X57612Y-35759D01*
X57669Y-35721D01*
X57707Y-35683D01*
X57726Y-35645D01*
X57650Y-36026D02*
X57631Y-36045D01*
X57612Y-36083D01*
X57612Y-36179D01*
X57631Y-36217D01*
X57650Y-36236D01*
X57688Y-36255D01*
X57726Y-36255D01*
X57783Y-36236D01*
X58012Y-36007D01*
X58012Y-36255D01*
X62012Y-35264D02*
X61612Y-35264D01*
X61612Y-35359D01*
X61631Y-35417D01*
X61669Y-35455D01*
X61707Y-35474D01*
X61783Y-35493D01*
X61840Y-35493D01*
X61917Y-35474D01*
X61955Y-35455D01*
X61993Y-35417D01*
X62012Y-35359D01*
X62012Y-35264D01*
X62012Y-35874D02*
X62012Y-35645D01*
X62012Y-35759D02*
X61612Y-35759D01*
X61669Y-35721D01*
X61707Y-35683D01*
X61726Y-35645D01*
X61612Y-36007D02*
X61612Y-36255D01*
X61764Y-36121D01*
X61764Y-36179D01*
X61783Y-36217D01*
X61802Y-36236D01*
X61840Y-36255D01*
X61936Y-36255D01*
X61974Y-36236D01*
X61993Y-36217D01*
X62012Y-36179D01*
X62012Y-36064D01*
X61993Y-36026D01*
X61974Y-36007D01*
X66012Y-35264D02*
X65612Y-35264D01*
X65612Y-35359D01*
X65631Y-35417D01*
X65669Y-35455D01*
X65707Y-35474D01*
X65783Y-35493D01*
X65840Y-35493D01*
X65917Y-35474D01*
X65955Y-35455D01*
X65993Y-35417D01*
X66012Y-35359D01*
X66012Y-35264D01*
X66012Y-35874D02*
X66012Y-35645D01*
X66012Y-35759D02*
X65612Y-35759D01*
X65669Y-35721D01*
X65707Y-35683D01*
X65726Y-35645D01*
X65745Y-36217D02*
X66012Y-36217D01*
X65593Y-36121D02*
X65879Y-36026D01*
X65879Y-36274D01*
X70012Y-35264D02*
X69612Y-35264D01*
X69612Y-35359D01*
X69631Y-35417D01*
X69669Y-35455D01*
X69707Y-35474D01*
X69783Y-35493D01*
X69840Y-35493D01*
X69917Y-35474D01*
X69955Y-35455D01*
X69993Y-35417D01*
X70012Y-35359D01*
X70012Y-35264D01*
X70012Y-35874D02*
X70012Y-35645D01*
X70012Y-35759D02*
X69612Y-35759D01*
X69669Y-35721D01*
X69707Y-35683D01*
X69726Y-35645D01*
X69612Y-36236D02*
X69612Y-36045D01*
X69802Y-36026D01*
X69783Y-36045D01*
X69764Y-36083D01*
X69764Y-36179D01*
X69783Y-36217D01*
X69802Y-36236D01*
X69840Y-36255D01*
X69936Y-36255D01*
X69974Y-36236D01*
X69993Y-36217D01*
X70012Y-36179D01*
X70012Y-36083D01*
X69993Y-36045D01*
X69974Y-36026D01*
X74012Y-35264D02*
X73612Y-35264D01*
X73612Y-35359D01*
X73631Y-35417D01*
X73669Y-35455D01*
X73707Y-35474D01*
X73783Y-35493D01*
X73840Y-35493D01*
X73917Y-35474D01*
X73955Y-35455D01*
X73993Y-35417D01*
X74012Y-35359D01*
X74012Y-35264D01*
X74012Y-35874D02*
X74012Y-35645D01*
X74012Y-35759D02*
X73612Y-35759D01*
X73669Y-35721D01*
X73707Y-35683D01*
X73726Y-35645D01*
X73612Y-36217D02*
X73612Y-36140D01*
X73631Y-36102D01*
X73650Y-36083D01*
X73707Y-36045D01*
X73783Y-36026D01*
X73936Y-36026D01*
X73974Y-36045D01*
X73993Y-36064D01*
X74012Y-36102D01*
X74012Y-36179D01*
X73993Y-36217D01*
X73974Y-36236D01*
X73936Y-36255D01*
X73840Y-36255D01*
X73802Y-36236D01*
X73783Y-36217D01*
X73764Y-36179D01*
X73764Y-36102D01*
X73783Y-36064D01*
X73802Y-36045D01*
X73840Y-36026D01*
X78012Y-35264D02*
X77612Y-35264D01*
X77612Y-35359D01*
X77631Y-35417D01*
X77669Y-35455D01*
X77707Y-35474D01*
X77783Y-35493D01*
X77840Y-35493D01*
X77917Y-35474D01*
X77955Y-35455D01*
X77993Y-35417D01*
X78012Y-35359D01*
X78012Y-35264D01*
X78012Y-35874D02*
X78012Y-35645D01*
X78012Y-35759D02*
X77612Y-35759D01*
X77669Y-35721D01*
X77707Y-35683D01*
X77726Y-35645D01*
X77612Y-36007D02*
X77612Y-36274D01*
X78012Y-36102D01*
X77205Y-39362D02*
X77205Y-39686D01*
X77186Y-39724D01*
X77167Y-39743D01*
X77129Y-39762D01*
X77052Y-39762D01*
X77014Y-39743D01*
X76995Y-39724D01*
X76976Y-39686D01*
X76976Y-39362D01*
X76576Y-39762D02*
X76805Y-39762D01*
X76691Y-39762D02*
X76691Y-39362D01*
X76729Y-39419D01*
X76767Y-39457D01*
X76805Y-39476D01*
G54D15*
X80328Y-46943D02*
X79985Y-46943D01*
X80156Y-47543D02*
X80156Y-46943D01*
X79499Y-47543D02*
X79785Y-47543D01*
X79785Y-46943D01*
X79299Y-47229D02*
X79099Y-47229D01*
X79013Y-47543D02*
X79299Y-47543D01*
X79299Y-46943D01*
X79013Y-46943D01*
X78813Y-46943D02*
X78413Y-46943D01*
X78670Y-47543D01*
X78214Y-47000D02*
X78185Y-46971D01*
X78128Y-46943D01*
X77985Y-46943D01*
X77928Y-46971D01*
X77899Y-47000D01*
X77871Y-47057D01*
X77871Y-47114D01*
X77899Y-47200D01*
X78242Y-47543D01*
X77871Y-47543D01*
X77671Y-46943D02*
X77300Y-46943D01*
X77500Y-47171D01*
X77414Y-47171D01*
X77357Y-47200D01*
X77328Y-47229D01*
X77300Y-47286D01*
X77300Y-47429D01*
X77328Y-47486D01*
X77357Y-47514D01*
X77414Y-47543D01*
X77586Y-47543D01*
X77643Y-47514D01*
X77671Y-47486D01*
X77100Y-46943D02*
X76700Y-47543D01*
X76700Y-46943D02*
X77100Y-47543D01*
G54D14*
X54305Y-44012D02*
X54305Y-44336D01*
X54286Y-44374D01*
X54267Y-44393D01*
X54229Y-44412D01*
X54152Y-44412D01*
X54114Y-44393D01*
X54095Y-44374D01*
X54076Y-44336D01*
X54076Y-44012D01*
X53905Y-44050D02*
X53886Y-44031D01*
X53848Y-44012D01*
X53752Y-44012D01*
X53714Y-44031D01*
X53695Y-44050D01*
X53676Y-44088D01*
X53676Y-44126D01*
X53695Y-44183D01*
X53924Y-44412D01*
X53676Y-44412D01*
G54D15*
X55599Y-49993D02*
X55599Y-49393D01*
X55399Y-49821D01*
X55199Y-49393D01*
X55199Y-49993D01*
X54942Y-49821D02*
X54656Y-49821D01*
X54999Y-49993D02*
X54799Y-49393D01*
X54599Y-49993D01*
X54456Y-49393D02*
X54056Y-49993D01*
X54056Y-49393D02*
X54456Y-49993D01*
X53857Y-49450D02*
X53828Y-49421D01*
X53771Y-49393D01*
X53628Y-49393D01*
X53571Y-49421D01*
X53542Y-49450D01*
X53514Y-49507D01*
X53514Y-49564D01*
X53542Y-49650D01*
X53885Y-49993D01*
X53514Y-49993D01*
X53314Y-49393D02*
X52943Y-49393D01*
X53143Y-49621D01*
X53057Y-49621D01*
X53000Y-49650D01*
X52971Y-49679D01*
X52943Y-49736D01*
X52943Y-49879D01*
X52971Y-49936D01*
X53000Y-49964D01*
X53057Y-49993D01*
X53229Y-49993D01*
X53286Y-49964D01*
X53314Y-49936D01*
X52715Y-49450D02*
X52686Y-49421D01*
X52629Y-49393D01*
X52486Y-49393D01*
X52429Y-49421D01*
X52400Y-49450D01*
X52372Y-49507D01*
X52372Y-49564D01*
X52400Y-49650D01*
X52743Y-49993D01*
X52372Y-49993D01*
%LPC*%
G54D16*
X88320Y-41000D03*
G54D17*
X87140Y-41000D03*
G54D18*
X84780Y-41000D03*
G54D17*
X87530Y-39230D03*
X87530Y-42770D03*
G54D19*
X50500Y-50500D03*
X51000Y-31500D03*
X83000Y-50500D03*
X80500Y-31500D03*
G54D20*
X56000Y-50500D03*
X57000Y-50500D03*
X58000Y-50500D03*
X59000Y-50500D03*
X60000Y-50500D03*
X61000Y-50500D03*
X62000Y-50500D03*
X63000Y-50500D03*
X65000Y-50500D03*
X66000Y-50500D03*
X67000Y-50500D03*
X68000Y-50500D03*
X69000Y-50500D03*
X70000Y-50500D03*
X71000Y-50500D03*
X72000Y-50500D03*
X74000Y-50500D03*
X75000Y-50500D03*
X76000Y-50500D03*
X77000Y-50500D03*
X78000Y-50500D03*
X79000Y-50500D03*
X80000Y-50500D03*
X81000Y-50500D03*
X52400Y-31500D03*
X53400Y-31500D03*
X54400Y-31500D03*
X55400Y-31500D03*
X56400Y-31500D03*
X57400Y-31500D03*
X58400Y-31500D03*
X59400Y-31500D03*
X60400Y-31500D03*
X61400Y-31500D03*
X63000Y-31500D03*
X70000Y-31500D03*
X69000Y-31500D03*
X68000Y-31500D03*
X67000Y-31500D03*
X66000Y-31500D03*
X65000Y-31500D03*
X64000Y-31500D03*
X72000Y-31500D03*
X73000Y-31500D03*
X74000Y-31500D03*
X75000Y-31500D03*
X76000Y-31500D03*
X77000Y-31500D03*
X78000Y-31500D03*
X79000Y-31500D03*
G54D21*
X82000Y-31500D03*
X83000Y-31500D03*
X82000Y-32500D03*
X83000Y-32500D03*
X82000Y-33500D03*
X83000Y-33500D03*
X82000Y-34500D03*
X83000Y-34500D03*
X82000Y-35500D03*
X83000Y-35500D03*
X82000Y-36500D03*
X83000Y-36500D03*
X82000Y-37500D03*
X83000Y-37500D03*
X82000Y-38500D03*
X83000Y-38500D03*
X82000Y-39500D03*
X83000Y-39500D03*
X82000Y-40500D03*
X83000Y-40500D03*
X82000Y-41500D03*
X83000Y-41500D03*
X82000Y-42500D03*
X83000Y-42500D03*
X82000Y-43500D03*
X83000Y-43500D03*
X82000Y-44500D03*
X83000Y-44500D03*
X82000Y-45500D03*
X83000Y-45500D03*
X82000Y-46500D03*
X83000Y-46500D03*
X82000Y-47500D03*
X83000Y-47500D03*
X82000Y-48500D03*
X83000Y-48500D03*
G54D22*
X60000Y-46400D03*
X60000Y-47600D03*
G54D23*
X84900Y-35250D03*
X86100Y-35250D03*
X77900Y-39000D03*
X79100Y-39000D03*
G54D22*
X66000Y-46400D03*
X66000Y-47600D03*
G54D23*
X84900Y-33500D03*
X86100Y-33500D03*
X84900Y-31750D03*
X86100Y-31750D03*
G54D22*
X72000Y-46400D03*
X72000Y-47600D03*
G54D24*
X69000Y-47000D03*
X69000Y-48000D03*
G54D25*
X69000Y-46000D03*
G54D24*
X75250Y-47000D03*
X75250Y-48000D03*
G54D25*
X75250Y-46000D03*
G54D24*
X63000Y-47000D03*
X63000Y-48000D03*
G54D25*
X63000Y-46000D03*
G54D24*
X57000Y-47000D03*
X57000Y-48000D03*
G54D25*
X57000Y-46000D03*
G54D24*
X51500Y-34000D03*
G54D25*
X50500Y-34000D03*
G54D24*
X55500Y-34000D03*
G54D25*
X54500Y-34000D03*
G54D24*
X59500Y-34000D03*
G54D25*
X58500Y-34000D03*
G54D24*
X63500Y-34000D03*
G54D25*
X62500Y-34000D03*
G54D24*
X67500Y-34000D03*
G54D25*
X66500Y-34000D03*
G54D24*
X71500Y-34000D03*
G54D25*
X70500Y-34000D03*
G54D24*
X75500Y-34000D03*
G54D25*
X74500Y-34000D03*
G54D24*
X79500Y-34000D03*
G54D25*
X78500Y-34000D03*
G54D26*
X66750Y-41700D03*
X66250Y-41700D03*
X65750Y-41700D03*
X65250Y-41700D03*
X64750Y-41700D03*
X64250Y-41700D03*
X63750Y-41700D03*
X63250Y-41700D03*
X63250Y-38800D03*
X63750Y-38800D03*
X64250Y-38800D03*
X64750Y-38800D03*
X65250Y-38800D03*
X65750Y-38800D03*
X66250Y-38800D03*
X66750Y-38800D03*
G54D22*
X87750Y-45150D03*
X87750Y-46350D03*
X51250Y-48850D03*
X51250Y-47650D03*
X51250Y-46350D03*
X51250Y-45150D03*
G54D27*
X44750Y-38500D03*
X44750Y-43500D03*
G54D21*
X46400Y-38300D03*
X46400Y-39300D03*
X46400Y-42700D03*
X46400Y-43700D03*
X48000Y-39250D03*
X48000Y-40250D03*
X48000Y-41250D03*
X48000Y-42250D03*
X49000Y-39750D03*
X49000Y-40750D03*
X49000Y-41750D03*
X49000Y-42750D03*
X50450Y-39250D03*
X50450Y-40250D03*
X51450Y-39750D03*
X51450Y-40750D03*
X50450Y-41250D03*
X51450Y-41750D03*
X50450Y-42250D03*
X51450Y-42750D03*
X53000Y-38300D03*
X53000Y-39300D03*
X53000Y-42700D03*
X53000Y-43700D03*
X86250Y-46250D03*
X86250Y-45250D03*
X86250Y-47250D03*
G54D28*
X59000Y-43000D03*
X59000Y-39000D03*
G54D29*
X61000Y-41000D03*
G54D30*
X61000Y-42000D03*
G54D28*
X63000Y-43000D03*
X71000Y-43000D03*
X71000Y-39000D03*
G54D29*
X73000Y-41000D03*
G54D30*
X73000Y-42000D03*
G54D28*
X75000Y-43000D03*
G54D31*
X51500Y-35750D03*
X50700Y-35380D03*
X50700Y-36120D03*
X55500Y-35750D03*
X54700Y-35380D03*
X54700Y-36120D03*
X59500Y-35750D03*
X58700Y-35380D03*
X58700Y-36120D03*
X63500Y-35750D03*
X62700Y-35380D03*
X62700Y-36120D03*
X67500Y-35750D03*
X66700Y-35380D03*
X66700Y-36120D03*
X71500Y-35750D03*
X70700Y-35380D03*
X70700Y-36120D03*
X75500Y-35750D03*
X74700Y-35380D03*
X74700Y-36120D03*
X79500Y-35750D03*
X78700Y-35380D03*
X78700Y-36120D03*
G54D32*
X80500Y-43000D03*
X80500Y-42500D03*
X80500Y-42000D03*
X80500Y-41500D03*
X80500Y-41000D03*
X80500Y-40500D03*
X80500Y-43500D03*
X80500Y-44000D03*
X80500Y-44500D03*
X80500Y-45000D03*
X80500Y-45500D03*
X80500Y-46000D03*
X76500Y-46000D03*
X76500Y-45500D03*
X76500Y-45000D03*
X76500Y-44500D03*
X76500Y-44000D03*
X76500Y-43500D03*
X76500Y-43000D03*
X76500Y-42500D03*
X76500Y-42000D03*
X76500Y-41500D03*
X76500Y-41000D03*
X76500Y-40500D03*
G54D33*
X52940Y-48750D03*
X52940Y-48250D03*
X52940Y-47750D03*
X52940Y-47250D03*
X52940Y-46750D03*
X52940Y-46250D03*
X52940Y-45750D03*
X52940Y-45250D03*
X55060Y-45250D03*
X55060Y-45750D03*
X55060Y-46250D03*
X55060Y-46750D03*
X55060Y-47250D03*
X55060Y-47750D03*
X55060Y-48250D03*
X55060Y-48750D03*
G54D24*
X47500Y-47250D03*
X48500Y-47250D03*
G54D25*
X46500Y-47250D03*
M02*
