G04 (created by PCBNEW-RS274X (2011-05-25)-stable) date Thu 31 Oct 2013 03:42:36 PM EDT*
G01*
G70*
G90*
%MOIN*%
G04 Gerber Fmt 3.4, Leading zero omitted, Abs format*
%FSLAX34Y34*%
G04 APERTURE LIST*
%ADD10C,0.006000*%
%ADD11C,0.009000*%
%ADD12C,0.076000*%
%ADD13C,0.140000*%
%ADD14C,0.160000*%
%ADD15C,0.155000*%
%ADD16O,0.060000X0.100000*%
%ADD17C,0.060000*%
%ADD18R,0.100000X0.050000*%
%ADD19R,0.050000X0.100000*%
%ADD20C,0.073000*%
%ADD21R,0.073000X0.073000*%
%ADD22R,0.025000X0.080000*%
%ADD23C,0.150000*%
%ADD24C,0.120000*%
%ADD25R,0.065000X0.065000*%
%ADD26C,0.065000*%
%ADD27R,0.050000X0.024000*%
%ADD28R,0.050000X0.015000*%
%ADD29R,0.061000X0.024000*%
%ADD30C,0.035000*%
%ADD31C,0.036000*%
%ADD32C,0.008000*%
%ADD33C,0.024000*%
%ADD34C,0.016000*%
%ADD35C,0.010000*%
G04 APERTURE END LIST*
G54D10*
G54D11*
X89500Y-51500D02*
X43500Y-51500D01*
X43500Y-30500D02*
X89500Y-30500D01*
X43500Y-30500D02*
X43500Y-51500D01*
X89500Y-51500D02*
X89500Y-30500D01*
G54D12*
X88320Y-41000D03*
G54D13*
X87140Y-41000D03*
G54D14*
X84780Y-41000D03*
G54D13*
X87530Y-39230D03*
X87530Y-42770D03*
G54D15*
X50500Y-50500D03*
X51000Y-31500D03*
X83000Y-50500D03*
X80500Y-31500D03*
G54D16*
X56000Y-50500D03*
X57000Y-50500D03*
X58000Y-50500D03*
X59000Y-50500D03*
X60000Y-50500D03*
X61000Y-50500D03*
X62000Y-50500D03*
X63000Y-50500D03*
X65000Y-50500D03*
X66000Y-50500D03*
X67000Y-50500D03*
X68000Y-50500D03*
X69000Y-50500D03*
X70000Y-50500D03*
X71000Y-50500D03*
X72000Y-50500D03*
X74000Y-50500D03*
X75000Y-50500D03*
X76000Y-50500D03*
X77000Y-50500D03*
X78000Y-50500D03*
X79000Y-50500D03*
X80000Y-50500D03*
X81000Y-50500D03*
X52400Y-31500D03*
X53400Y-31500D03*
X54400Y-31500D03*
X55400Y-31500D03*
X56400Y-31500D03*
X57400Y-31500D03*
X58400Y-31500D03*
X59400Y-31500D03*
X60400Y-31500D03*
X61400Y-31500D03*
X63000Y-31500D03*
X70000Y-31500D03*
X69000Y-31500D03*
X68000Y-31500D03*
X67000Y-31500D03*
X66000Y-31500D03*
X65000Y-31500D03*
X64000Y-31500D03*
X72000Y-31500D03*
X73000Y-31500D03*
X74000Y-31500D03*
X75000Y-31500D03*
X76000Y-31500D03*
X77000Y-31500D03*
X78000Y-31500D03*
X79000Y-31500D03*
G54D17*
X82000Y-31500D03*
X83000Y-31500D03*
X82000Y-32500D03*
X83000Y-32500D03*
X82000Y-33500D03*
X83000Y-33500D03*
X82000Y-34500D03*
X83000Y-34500D03*
X82000Y-35500D03*
X83000Y-35500D03*
X82000Y-36500D03*
X83000Y-36500D03*
X82000Y-37500D03*
X83000Y-37500D03*
X82000Y-38500D03*
X83000Y-38500D03*
X82000Y-39500D03*
X83000Y-39500D03*
X82000Y-40500D03*
X83000Y-40500D03*
X82000Y-41500D03*
X83000Y-41500D03*
X82000Y-42500D03*
X83000Y-42500D03*
X82000Y-43500D03*
X83000Y-43500D03*
X82000Y-44500D03*
X83000Y-44500D03*
X82000Y-45500D03*
X83000Y-45500D03*
X82000Y-46500D03*
X83000Y-46500D03*
X82000Y-47500D03*
X83000Y-47500D03*
X82000Y-48500D03*
X83000Y-48500D03*
G54D18*
X60000Y-46400D03*
X60000Y-47600D03*
G54D19*
X84900Y-35250D03*
X86100Y-35250D03*
X77900Y-39000D03*
X79100Y-39000D03*
G54D18*
X66000Y-46400D03*
X66000Y-47600D03*
G54D19*
X84900Y-33500D03*
X86100Y-33500D03*
X84900Y-31750D03*
X86100Y-31750D03*
G54D18*
X72000Y-46400D03*
X72000Y-47600D03*
G54D20*
X69000Y-47000D03*
X69000Y-48000D03*
G54D21*
X69000Y-46000D03*
G54D20*
X75250Y-47000D03*
X75250Y-48000D03*
G54D21*
X75250Y-46000D03*
G54D20*
X63000Y-47000D03*
X63000Y-48000D03*
G54D21*
X63000Y-46000D03*
G54D20*
X57000Y-47000D03*
X57000Y-48000D03*
G54D21*
X57000Y-46000D03*
G54D20*
X51500Y-34000D03*
G54D21*
X50500Y-34000D03*
G54D20*
X55500Y-34000D03*
G54D21*
X54500Y-34000D03*
G54D20*
X59500Y-34000D03*
G54D21*
X58500Y-34000D03*
G54D20*
X63500Y-34000D03*
G54D21*
X62500Y-34000D03*
G54D20*
X67500Y-34000D03*
G54D21*
X66500Y-34000D03*
G54D20*
X71500Y-34000D03*
G54D21*
X70500Y-34000D03*
G54D20*
X75500Y-34000D03*
G54D21*
X74500Y-34000D03*
G54D20*
X79500Y-34000D03*
G54D21*
X78500Y-34000D03*
G54D22*
X66750Y-41700D03*
X66250Y-41700D03*
X65750Y-41700D03*
X65250Y-41700D03*
X64750Y-41700D03*
X64250Y-41700D03*
X63750Y-41700D03*
X63250Y-41700D03*
X63250Y-38800D03*
X63750Y-38800D03*
X64250Y-38800D03*
X64750Y-38800D03*
X65250Y-38800D03*
X65750Y-38800D03*
X66250Y-38800D03*
X66750Y-38800D03*
G54D18*
X87750Y-45150D03*
X87750Y-46350D03*
X51250Y-48850D03*
X51250Y-47650D03*
X51250Y-46350D03*
X51250Y-45150D03*
G54D23*
X44750Y-38500D03*
X44750Y-43500D03*
G54D17*
X46400Y-38300D03*
X46400Y-39300D03*
X46400Y-42700D03*
X46400Y-43700D03*
X48000Y-39250D03*
X48000Y-40250D03*
X48000Y-41250D03*
X48000Y-42250D03*
X49000Y-39750D03*
X49000Y-40750D03*
X49000Y-41750D03*
X49000Y-42750D03*
X50450Y-39250D03*
X50450Y-40250D03*
X51450Y-39750D03*
X51450Y-40750D03*
X50450Y-41250D03*
X51450Y-41750D03*
X50450Y-42250D03*
X51450Y-42750D03*
X53000Y-38300D03*
X53000Y-39300D03*
X53000Y-42700D03*
X53000Y-43700D03*
X86250Y-46250D03*
X86250Y-45250D03*
X86250Y-47250D03*
G54D24*
X59000Y-43000D03*
X59000Y-39000D03*
G54D25*
X61000Y-41000D03*
G54D26*
X61000Y-42000D03*
G54D24*
X63000Y-43000D03*
X71000Y-43000D03*
X71000Y-39000D03*
G54D25*
X73000Y-41000D03*
G54D26*
X73000Y-42000D03*
G54D24*
X75000Y-43000D03*
G54D27*
X51500Y-35750D03*
X50700Y-35380D03*
X50700Y-36120D03*
X55500Y-35750D03*
X54700Y-35380D03*
X54700Y-36120D03*
X59500Y-35750D03*
X58700Y-35380D03*
X58700Y-36120D03*
X63500Y-35750D03*
X62700Y-35380D03*
X62700Y-36120D03*
X67500Y-35750D03*
X66700Y-35380D03*
X66700Y-36120D03*
X71500Y-35750D03*
X70700Y-35380D03*
X70700Y-36120D03*
X75500Y-35750D03*
X74700Y-35380D03*
X74700Y-36120D03*
X79500Y-35750D03*
X78700Y-35380D03*
X78700Y-36120D03*
G54D28*
X80500Y-43000D03*
X80500Y-42500D03*
X80500Y-42000D03*
X80500Y-41500D03*
X80500Y-41000D03*
X80500Y-40500D03*
X80500Y-43500D03*
X80500Y-44000D03*
X80500Y-44500D03*
X80500Y-45000D03*
X80500Y-45500D03*
X80500Y-46000D03*
X76500Y-46000D03*
X76500Y-45500D03*
X76500Y-45000D03*
X76500Y-44500D03*
X76500Y-44000D03*
X76500Y-43500D03*
X76500Y-43000D03*
X76500Y-42500D03*
X76500Y-42000D03*
X76500Y-41500D03*
X76500Y-41000D03*
X76500Y-40500D03*
G54D29*
X52940Y-48750D03*
X52940Y-48250D03*
X52940Y-47750D03*
X52940Y-47250D03*
X52940Y-46750D03*
X52940Y-46250D03*
X52940Y-45750D03*
X52940Y-45250D03*
X55060Y-45250D03*
X55060Y-45750D03*
X55060Y-46250D03*
X55060Y-46750D03*
X55060Y-47250D03*
X55060Y-47750D03*
X55060Y-48250D03*
X55060Y-48750D03*
G54D20*
X47500Y-47250D03*
X48500Y-47250D03*
G54D21*
X46500Y-47250D03*
G54D30*
X73312Y-47306D03*
X77884Y-46346D03*
X74160Y-40817D03*
X75663Y-41415D03*
X71606Y-38173D03*
X77529Y-40736D03*
X77814Y-41192D03*
X77647Y-43399D03*
X77962Y-42725D03*
X77569Y-46676D03*
X66737Y-36770D03*
X75075Y-36767D03*
X63098Y-36862D03*
X62669Y-38075D03*
X79415Y-36763D03*
X63593Y-36767D03*
X69592Y-36770D03*
X51926Y-48250D03*
X63234Y-37757D03*
X52356Y-46096D03*
X79916Y-46023D03*
G54D31*
X60000Y-46400D02*
X60783Y-46400D01*
X60000Y-48813D02*
X60000Y-50500D01*
X60783Y-48030D02*
X60000Y-48813D01*
X60783Y-46400D02*
X60783Y-48030D01*
X55648Y-47352D02*
X57000Y-46000D01*
X55648Y-48750D02*
X55648Y-47352D01*
X55060Y-48750D02*
X55648Y-48750D01*
X72000Y-46400D02*
X72783Y-46400D01*
X75250Y-46000D02*
X74602Y-46000D01*
X74602Y-46102D02*
X74304Y-46400D01*
X74602Y-46000D02*
X74602Y-46102D01*
X74304Y-46400D02*
X72783Y-46400D01*
X80500Y-45500D02*
X79967Y-45500D01*
X66000Y-46400D02*
X66783Y-46400D01*
X61183Y-46000D02*
X63000Y-46000D01*
X60783Y-46400D02*
X61183Y-46000D01*
X64817Y-46000D02*
X65217Y-46400D01*
X63000Y-46000D02*
X64817Y-46000D01*
X66000Y-46400D02*
X65217Y-46400D01*
X67183Y-46000D02*
X69000Y-46000D01*
X66783Y-46400D02*
X67183Y-46000D01*
X70817Y-46000D02*
X71217Y-46400D01*
X69000Y-46000D02*
X70817Y-46000D01*
X72000Y-46400D02*
X71217Y-46400D01*
X79967Y-45500D02*
X79151Y-45500D01*
X74304Y-48005D02*
X74304Y-46400D01*
X75384Y-49085D02*
X74304Y-48005D01*
X75808Y-49085D02*
X75384Y-49085D01*
X79151Y-45742D02*
X75808Y-49085D01*
X79151Y-45500D02*
X79151Y-45742D01*
X77033Y-41129D02*
X77033Y-41000D01*
X78421Y-42517D02*
X77033Y-41129D01*
X78421Y-44770D02*
X78421Y-42517D01*
X79151Y-45500D02*
X78421Y-44770D01*
X76500Y-41000D02*
X76874Y-41000D01*
X76874Y-41000D02*
X77033Y-41000D01*
X77034Y-39333D02*
X77367Y-39000D01*
X77034Y-40840D02*
X77034Y-39333D01*
X76874Y-41000D02*
X77034Y-40840D01*
X77900Y-39000D02*
X77367Y-39000D01*
G54D32*
X61000Y-41000D02*
X61000Y-41234D01*
X59993Y-44007D02*
X57000Y-47000D01*
X59994Y-44007D02*
X59993Y-44007D01*
X59994Y-42240D02*
X59994Y-44007D01*
X61000Y-41234D02*
X59994Y-42240D01*
X66000Y-50500D02*
X66000Y-49857D01*
X63143Y-47000D02*
X63000Y-47000D01*
X66000Y-49857D02*
X63143Y-47000D01*
X67000Y-50500D02*
X67000Y-49857D01*
X65562Y-47000D02*
X69000Y-47000D01*
X65356Y-47206D02*
X65562Y-47000D01*
X65356Y-48213D02*
X65356Y-47206D01*
X67000Y-49857D02*
X65356Y-48213D01*
X70761Y-49857D02*
X68000Y-49857D01*
X73312Y-47306D02*
X70761Y-49857D01*
X68000Y-50500D02*
X68000Y-49857D01*
X83476Y-45024D02*
X83000Y-45500D01*
X83476Y-31104D02*
X83476Y-45024D01*
X83422Y-31050D02*
X83476Y-31104D01*
X82695Y-31050D02*
X83422Y-31050D01*
X82547Y-31198D02*
X82695Y-31050D01*
X82547Y-32821D02*
X82547Y-31198D01*
X82422Y-32946D02*
X82547Y-32821D01*
X81852Y-32946D02*
X82422Y-32946D01*
X80893Y-33905D02*
X81852Y-32946D01*
X80893Y-40500D02*
X80893Y-33905D01*
X80500Y-40500D02*
X80893Y-40500D01*
X82456Y-45044D02*
X82000Y-45500D01*
X82456Y-42078D02*
X82456Y-45044D01*
X82434Y-42056D02*
X82456Y-42078D01*
X81928Y-42056D02*
X82434Y-42056D01*
X80893Y-41021D02*
X81928Y-42056D01*
X80893Y-41000D02*
X80893Y-41021D01*
X80500Y-41000D02*
X80893Y-41000D01*
X50792Y-41750D02*
X49000Y-41750D01*
X51067Y-42025D02*
X50792Y-41750D01*
X51067Y-42335D02*
X51067Y-42025D01*
X50606Y-42796D02*
X51067Y-42335D01*
X50606Y-49222D02*
X50606Y-42796D01*
X50628Y-49244D02*
X50606Y-49222D01*
X53118Y-49244D02*
X50628Y-49244D01*
X54612Y-47750D02*
X53118Y-49244D01*
X55060Y-47750D02*
X54612Y-47750D01*
X48445Y-38805D02*
X48000Y-39250D01*
X51493Y-38805D02*
X48445Y-38805D01*
X53834Y-41146D02*
X51493Y-38805D01*
X53834Y-46472D02*
X53834Y-41146D01*
X54612Y-47250D02*
X53834Y-46472D01*
X55060Y-47250D02*
X54612Y-47250D01*
X52940Y-45750D02*
X52492Y-45750D01*
X52265Y-45523D02*
X52492Y-45750D01*
X52265Y-42565D02*
X52265Y-45523D01*
X51450Y-41750D02*
X52265Y-42565D01*
X52940Y-45250D02*
X52492Y-45250D01*
X52492Y-41165D02*
X52492Y-45250D01*
X51633Y-40306D02*
X52492Y-41165D01*
X51348Y-40306D02*
X51633Y-40306D01*
X50450Y-39408D02*
X51348Y-40306D01*
X50450Y-39250D02*
X50450Y-39408D01*
X81393Y-46500D02*
X82000Y-46500D01*
X80893Y-46000D02*
X81393Y-46500D01*
X80500Y-46000D02*
X80893Y-46000D01*
X76500Y-45500D02*
X76893Y-45500D01*
X77739Y-46346D02*
X77884Y-46346D01*
X76893Y-45500D02*
X77739Y-46346D01*
G54D33*
X50226Y-34862D02*
X50500Y-34588D01*
X50226Y-35646D02*
X50226Y-34862D01*
X50357Y-35777D02*
X50226Y-35646D01*
X50700Y-35777D02*
X50357Y-35777D01*
X50700Y-36120D02*
X50700Y-35777D01*
X50500Y-34000D02*
X50500Y-34588D01*
X75343Y-42000D02*
X74160Y-40817D01*
X76500Y-42000D02*
X75343Y-42000D01*
X54357Y-35777D02*
X54700Y-35777D01*
X54226Y-35646D02*
X54357Y-35777D01*
X54226Y-34862D02*
X54226Y-35646D01*
X54500Y-34588D02*
X54226Y-34862D01*
X54500Y-34000D02*
X54500Y-34588D01*
X54700Y-36120D02*
X54700Y-35777D01*
X75748Y-41500D02*
X75663Y-41415D01*
X76500Y-41500D02*
X75748Y-41500D01*
X80500Y-41500D02*
X80027Y-41500D01*
X58357Y-35777D02*
X58700Y-35777D01*
X58226Y-35646D02*
X58357Y-35777D01*
X58226Y-34862D02*
X58226Y-35646D01*
X58500Y-34588D02*
X58226Y-34862D01*
X58500Y-34000D02*
X58500Y-34588D01*
X58700Y-36120D02*
X58700Y-35777D01*
X71897Y-37882D02*
X71606Y-38173D01*
X79619Y-37882D02*
X71897Y-37882D01*
X80027Y-38290D02*
X79619Y-37882D01*
X80027Y-41500D02*
X80027Y-38290D01*
X62500Y-34000D02*
X62500Y-34588D01*
X62188Y-34900D02*
X62500Y-34588D01*
X62188Y-35608D02*
X62188Y-34900D01*
X62357Y-35777D02*
X62188Y-35608D01*
X62700Y-35777D02*
X62357Y-35777D01*
X62700Y-36120D02*
X62700Y-35777D01*
X62700Y-36120D02*
X62700Y-36463D01*
X62242Y-36921D02*
X62700Y-36463D01*
X62242Y-38681D02*
X62242Y-36921D01*
X63450Y-39889D02*
X62242Y-38681D01*
X74968Y-39889D02*
X63450Y-39889D01*
X76631Y-38226D02*
X74968Y-39889D01*
X79476Y-38226D02*
X76631Y-38226D01*
X79683Y-38433D02*
X79476Y-38226D01*
X79683Y-41686D02*
X79683Y-38433D01*
X79997Y-42000D02*
X79683Y-41686D01*
X80500Y-42000D02*
X79997Y-42000D01*
X80500Y-44500D02*
X80027Y-44500D01*
X66357Y-35777D02*
X66700Y-35777D01*
X66226Y-35646D02*
X66357Y-35777D01*
X66226Y-34862D02*
X66226Y-35646D01*
X66500Y-34588D02*
X66226Y-34862D01*
X66500Y-34000D02*
X66500Y-34588D01*
X66700Y-36120D02*
X66700Y-35777D01*
X77923Y-40736D02*
X77529Y-40736D01*
X78456Y-41269D02*
X77923Y-40736D01*
X78456Y-41439D02*
X78456Y-41269D01*
X80027Y-43010D02*
X78456Y-41439D01*
X80027Y-44500D02*
X80027Y-43010D01*
X70357Y-35777D02*
X70700Y-35777D01*
X70226Y-35646D02*
X70357Y-35777D01*
X70226Y-34862D02*
X70226Y-35646D01*
X70500Y-34588D02*
X70226Y-34862D01*
X70500Y-34000D02*
X70500Y-34588D01*
X70700Y-36120D02*
X70700Y-35777D01*
X77814Y-41321D02*
X77814Y-41192D01*
X79553Y-43060D02*
X77814Y-41321D01*
X79553Y-44714D02*
X79553Y-43060D01*
X79839Y-45000D02*
X79553Y-44714D01*
X80500Y-45000D02*
X79839Y-45000D01*
X74500Y-34000D02*
X74500Y-34588D01*
X74226Y-34862D02*
X74500Y-34588D01*
X74226Y-35646D02*
X74226Y-34862D01*
X74357Y-35777D02*
X74226Y-35646D01*
X74700Y-35777D02*
X74357Y-35777D01*
X74700Y-36120D02*
X74700Y-35777D01*
X77647Y-44514D02*
X77647Y-43399D01*
X77161Y-45000D02*
X77647Y-44514D01*
X76500Y-45000D02*
X77161Y-45000D01*
X78357Y-35777D02*
X78700Y-35777D01*
X78226Y-35646D02*
X78357Y-35777D01*
X78226Y-34862D02*
X78226Y-35646D01*
X78500Y-34588D02*
X78226Y-34862D01*
X78500Y-34000D02*
X78500Y-34588D01*
X78700Y-36120D02*
X78700Y-35777D01*
X76500Y-44500D02*
X76973Y-44500D01*
X76973Y-43510D02*
X76973Y-44500D01*
X77758Y-42725D02*
X76973Y-43510D01*
X77962Y-42725D02*
X77758Y-42725D01*
G54D32*
X58000Y-47366D02*
X58000Y-50500D01*
X60898Y-44468D02*
X58000Y-47366D01*
X65064Y-44468D02*
X60898Y-44468D01*
X69039Y-40493D02*
X65064Y-44468D01*
X76100Y-40493D02*
X69039Y-40493D01*
X76107Y-40500D02*
X76100Y-40493D01*
X76500Y-40500D02*
X76107Y-40500D01*
X55060Y-46750D02*
X55508Y-46750D01*
X77000Y-31500D02*
X77000Y-32143D01*
X76116Y-33027D02*
X77000Y-32143D01*
X58534Y-33027D02*
X76116Y-33027D01*
X57907Y-33654D02*
X58534Y-33027D01*
X57907Y-44038D02*
X57907Y-33654D01*
X55910Y-46035D02*
X57907Y-44038D01*
X55910Y-46348D02*
X55910Y-46035D01*
X55508Y-46750D02*
X55910Y-46348D01*
X55060Y-45250D02*
X55508Y-45250D01*
X75000Y-31500D02*
X75000Y-32143D01*
X57408Y-43350D02*
X55508Y-45250D01*
X57408Y-33505D02*
X57408Y-43350D01*
X58254Y-32659D02*
X57408Y-33505D01*
X74484Y-32659D02*
X58254Y-32659D01*
X75000Y-32143D02*
X74484Y-32659D01*
X76500Y-46000D02*
X76893Y-46000D01*
X76893Y-46000D02*
X77569Y-46676D01*
X75300Y-32843D02*
X76000Y-32143D01*
X58331Y-32843D02*
X75300Y-32843D01*
X57592Y-33582D02*
X58331Y-32843D01*
X57592Y-44092D02*
X57592Y-33582D01*
X55508Y-46176D02*
X57592Y-44092D01*
X55508Y-46250D02*
X55508Y-46176D01*
X55060Y-46250D02*
X55508Y-46250D01*
X76000Y-31500D02*
X76000Y-32143D01*
X73768Y-32375D02*
X74000Y-32143D01*
X58265Y-32375D02*
X73768Y-32375D01*
X56766Y-33874D02*
X58265Y-32375D01*
X56766Y-35372D02*
X56766Y-33874D01*
X54612Y-37526D02*
X56766Y-35372D01*
X54612Y-45750D02*
X54612Y-37526D01*
X55060Y-45750D02*
X54612Y-45750D01*
X74000Y-31500D02*
X74000Y-32143D01*
X57474Y-32143D02*
X72000Y-32143D01*
X56683Y-32934D02*
X57474Y-32143D01*
X50438Y-32934D02*
X56683Y-32934D01*
X46894Y-36478D02*
X50438Y-32934D01*
X46894Y-46348D02*
X46894Y-36478D01*
X46500Y-46742D02*
X46894Y-46348D01*
X46500Y-47250D02*
X46500Y-46742D01*
X72000Y-31500D02*
X72000Y-32143D01*
G54D31*
X86867Y-45250D02*
X86967Y-45150D01*
X86250Y-45250D02*
X86867Y-45250D01*
X87750Y-45150D02*
X86967Y-45150D01*
G54D34*
X80500Y-43500D02*
X80500Y-44000D01*
X80500Y-42500D02*
X80500Y-43000D01*
X76500Y-44000D02*
X76500Y-43500D01*
X76500Y-43500D02*
X76500Y-43000D01*
X76500Y-43000D02*
X76500Y-42500D01*
X87750Y-46350D02*
X87067Y-46350D01*
X86967Y-46250D02*
X86250Y-46250D01*
X87067Y-46350D02*
X86967Y-46250D01*
X85434Y-42706D02*
X87140Y-41000D01*
X85434Y-45434D02*
X85434Y-42706D01*
X86250Y-46250D02*
X85434Y-45434D01*
X80500Y-42500D02*
X80067Y-42500D01*
X86100Y-31750D02*
X85667Y-31750D01*
X80555Y-44000D02*
X80653Y-44000D01*
X80653Y-44000D02*
X81481Y-44828D01*
X81481Y-44828D02*
X81481Y-45966D01*
X81481Y-45966D02*
X81526Y-46011D01*
X81526Y-46011D02*
X83439Y-46011D01*
X83439Y-46011D02*
X83700Y-45750D01*
X83700Y-45750D02*
X83700Y-31494D01*
X83700Y-31494D02*
X84128Y-31066D01*
X84128Y-31066D02*
X85416Y-31066D01*
X85416Y-31066D02*
X85667Y-31317D01*
X85667Y-31317D02*
X85667Y-31750D01*
X80500Y-44000D02*
X80555Y-44000D01*
X86100Y-33500D02*
X86100Y-31750D01*
X75799Y-47451D02*
X75250Y-48000D01*
X75799Y-44137D02*
X75799Y-47451D01*
X74980Y-44137D02*
X75799Y-44137D01*
X73000Y-42157D02*
X74980Y-44137D01*
X73000Y-42000D02*
X73000Y-42157D01*
X75930Y-44137D02*
X76067Y-44000D01*
X75799Y-44137D02*
X75930Y-44137D01*
X76500Y-44000D02*
X76392Y-44000D01*
X76392Y-44000D02*
X76067Y-44000D01*
X79100Y-39000D02*
X79100Y-39683D01*
X86100Y-39960D02*
X86100Y-35250D01*
X87140Y-41000D02*
X86100Y-39960D01*
X86100Y-35250D02*
X86100Y-33500D01*
X80500Y-43500D02*
X80500Y-43000D01*
X79100Y-41533D02*
X80067Y-42500D01*
X79100Y-39683D02*
X79100Y-41533D01*
X66000Y-47600D02*
X66683Y-47600D01*
X67083Y-48000D02*
X69000Y-48000D01*
X66683Y-47600D02*
X67083Y-48000D01*
X70917Y-48000D02*
X71317Y-47600D01*
X69000Y-48000D02*
X70917Y-48000D01*
X72000Y-47600D02*
X71317Y-47600D01*
X55882Y-49118D02*
X57000Y-48000D01*
X54601Y-49118D02*
X55882Y-49118D01*
X54572Y-49089D02*
X54601Y-49118D01*
X54572Y-48250D02*
X54572Y-49089D01*
X55060Y-48250D02*
X54572Y-48250D01*
X61000Y-44000D02*
X57000Y-48000D01*
X61000Y-42000D02*
X61000Y-44000D01*
X59500Y-48533D02*
X60000Y-48033D01*
X59500Y-51155D02*
X59500Y-48533D01*
X59528Y-51183D02*
X59500Y-51155D01*
X61000Y-51183D02*
X59528Y-51183D01*
X61000Y-50500D02*
X61000Y-51183D01*
X60000Y-47600D02*
X60000Y-48033D01*
X62000Y-49000D02*
X63000Y-48000D01*
X62000Y-50500D02*
X62000Y-49000D01*
G54D32*
X65250Y-38800D02*
X65250Y-38257D01*
X65250Y-38257D02*
X66737Y-36770D01*
X74688Y-37154D02*
X75075Y-36767D01*
X67353Y-37154D02*
X74688Y-37154D01*
X66250Y-38257D02*
X67353Y-37154D01*
X66250Y-38800D02*
X66250Y-38257D01*
X63098Y-37105D02*
X63098Y-36862D01*
X64250Y-38257D02*
X63098Y-37105D01*
X64250Y-38800D02*
X64250Y-38257D01*
X62851Y-38257D02*
X62669Y-38075D01*
X63250Y-38257D02*
X62851Y-38257D01*
X63250Y-38800D02*
X63250Y-38257D01*
X66750Y-38800D02*
X66750Y-38257D01*
X78634Y-37544D02*
X79415Y-36763D01*
X67463Y-37544D02*
X78634Y-37544D01*
X66750Y-38257D02*
X67463Y-37544D01*
X63593Y-37100D02*
X63593Y-36767D01*
X64750Y-38257D02*
X63593Y-37100D01*
X64750Y-38800D02*
X64750Y-38257D01*
X65750Y-38800D02*
X65750Y-38257D01*
X67237Y-36770D02*
X69592Y-36770D01*
X65750Y-38257D02*
X67237Y-36770D01*
X52940Y-48250D02*
X51926Y-48250D01*
X51250Y-47650D02*
X51893Y-47650D01*
X52392Y-47650D02*
X51893Y-47650D01*
X52492Y-47750D02*
X52392Y-47650D01*
X52940Y-47750D02*
X52492Y-47750D01*
X51757Y-47250D02*
X51250Y-46743D01*
X52940Y-47250D02*
X51757Y-47250D01*
X51250Y-46350D02*
X51250Y-46743D01*
X51250Y-48850D02*
X51893Y-48850D01*
X52392Y-48850D02*
X52492Y-48750D01*
X51893Y-48850D02*
X52392Y-48850D01*
X52940Y-48750D02*
X52492Y-48750D01*
X52940Y-46750D02*
X52492Y-46750D01*
X51250Y-45150D02*
X51250Y-45543D01*
X52038Y-46296D02*
X52492Y-46750D01*
X52038Y-45962D02*
X52038Y-46296D01*
X51619Y-45543D02*
X52038Y-45962D01*
X51250Y-45543D02*
X51619Y-45543D01*
X63734Y-38257D02*
X63234Y-37757D01*
X63750Y-38257D02*
X63734Y-38257D01*
X63750Y-38800D02*
X63750Y-38257D01*
X52492Y-46232D02*
X52356Y-46096D01*
X52492Y-46250D02*
X52492Y-46232D01*
X52940Y-46250D02*
X52492Y-46250D01*
G54D31*
X63250Y-41700D02*
X63250Y-41017D01*
X59500Y-37267D02*
X59500Y-35750D01*
X59500Y-37267D02*
X63250Y-41017D01*
X66750Y-41700D02*
X66250Y-41700D01*
X66250Y-41700D02*
X65750Y-41700D01*
X65750Y-41700D02*
X65250Y-41700D01*
X65250Y-41700D02*
X64750Y-41700D01*
X64750Y-41700D02*
X64250Y-41700D01*
X64250Y-41700D02*
X63750Y-41700D01*
X63750Y-41700D02*
X63250Y-41700D01*
X55500Y-35750D02*
X55500Y-34000D01*
X51500Y-35750D02*
X51500Y-34000D01*
X84780Y-36153D02*
X84780Y-41000D01*
X84900Y-36033D02*
X84780Y-36153D01*
X84900Y-35250D02*
X84900Y-36033D01*
X49366Y-43334D02*
X50450Y-42250D01*
X48685Y-43334D02*
X49366Y-43334D01*
X48000Y-42649D02*
X48685Y-43334D01*
X48000Y-42250D02*
X48000Y-42649D01*
X51500Y-35750D02*
X51500Y-36153D01*
X47400Y-41650D02*
X48000Y-42250D01*
X47400Y-38937D02*
X47400Y-41650D01*
X49794Y-36543D02*
X47400Y-38937D01*
X51110Y-36543D02*
X49794Y-36543D01*
X51500Y-36153D02*
X51110Y-36543D01*
X59500Y-34000D02*
X59500Y-35347D01*
X59500Y-35548D02*
X59500Y-35750D01*
X59500Y-35548D02*
X59500Y-35347D01*
X67500Y-35750D02*
X67500Y-34000D01*
X63500Y-35750D02*
X63500Y-34000D01*
X55500Y-35750D02*
X55500Y-36153D01*
X51880Y-36533D02*
X51500Y-36153D01*
X55120Y-36533D02*
X51880Y-36533D01*
X55500Y-36153D02*
X55120Y-36533D01*
X63500Y-34000D02*
X63500Y-33455D01*
X63396Y-33351D02*
X63500Y-33455D01*
X60149Y-33351D02*
X63396Y-33351D01*
X59500Y-34000D02*
X60149Y-33351D01*
X79500Y-35750D02*
X79500Y-34000D01*
X75777Y-33351D02*
X75500Y-33628D01*
X79130Y-33351D02*
X75777Y-33351D01*
X79500Y-33721D02*
X79130Y-33351D01*
X79500Y-34000D02*
X79500Y-33721D01*
X72149Y-33351D02*
X72033Y-33467D01*
X75223Y-33351D02*
X72149Y-33351D01*
X75500Y-33628D02*
X75223Y-33351D01*
X71917Y-33351D02*
X67500Y-33351D01*
X72033Y-33467D02*
X71917Y-33351D01*
X67500Y-34000D02*
X67500Y-33351D01*
X63604Y-33351D02*
X63500Y-33455D01*
X67500Y-33351D02*
X63604Y-33351D01*
X84900Y-35250D02*
X84900Y-33500D01*
X84900Y-33500D02*
X84900Y-31750D01*
X72033Y-33467D02*
X71500Y-34000D01*
X71500Y-34000D02*
X71500Y-35750D01*
X84780Y-47250D02*
X84780Y-41000D01*
X84779Y-47250D02*
X84780Y-47250D01*
X84779Y-47985D02*
X84779Y-47250D01*
X83502Y-49262D02*
X84779Y-47985D01*
X81641Y-49262D02*
X83502Y-49262D01*
X79916Y-47537D02*
X81641Y-49262D01*
X79916Y-46023D02*
X79916Y-47537D01*
X84780Y-47250D02*
X86250Y-47250D01*
X75500Y-33628D02*
X75500Y-34000D01*
X75500Y-34000D02*
X75500Y-35750D01*
G54D10*
G36*
X57797Y-32433D02*
X56561Y-33669D01*
X56498Y-33763D01*
X56476Y-33874D01*
X56476Y-35252D01*
X56107Y-35621D01*
X56107Y-34095D01*
X56097Y-33856D01*
X56025Y-33680D01*
X55924Y-33646D01*
X55854Y-33716D01*
X55571Y-34000D01*
X55924Y-34354D01*
X56025Y-34320D01*
X56107Y-34095D01*
X56107Y-35621D01*
X56000Y-35728D01*
X56000Y-35650D01*
X55988Y-35650D01*
X56000Y-35638D01*
X55999Y-35581D01*
X55961Y-35489D01*
X55891Y-35419D01*
X55854Y-35403D01*
X55854Y-34424D01*
X55535Y-34106D01*
X55500Y-34071D01*
X55429Y-34000D01*
X55500Y-33929D01*
X55535Y-33894D01*
X55854Y-33576D01*
X55820Y-33475D01*
X55595Y-33393D01*
X55356Y-33403D01*
X55180Y-33475D01*
X55163Y-33522D01*
X55128Y-33487D01*
X55089Y-33525D01*
X55076Y-33494D01*
X55006Y-33424D01*
X54915Y-33386D01*
X54816Y-33386D01*
X54086Y-33386D01*
X53994Y-33424D01*
X53924Y-33494D01*
X53886Y-33585D01*
X53886Y-33684D01*
X53886Y-34414D01*
X53924Y-34506D01*
X53991Y-34573D01*
X53964Y-34600D01*
X53884Y-34720D01*
X53879Y-34744D01*
X53855Y-34862D01*
X53856Y-34866D01*
X53856Y-35641D01*
X53855Y-35646D01*
X53879Y-35763D01*
X53884Y-35788D01*
X53964Y-35908D01*
X54093Y-36036D01*
X54095Y-36039D01*
X54201Y-36109D01*
X54201Y-36289D01*
X54239Y-36381D01*
X54309Y-36451D01*
X54400Y-36489D01*
X54499Y-36489D01*
X54694Y-36489D01*
X54700Y-36490D01*
X54705Y-36489D01*
X54999Y-36489D01*
X55091Y-36451D01*
X55161Y-36381D01*
X55199Y-36290D01*
X55199Y-36191D01*
X55199Y-36118D01*
X55200Y-36119D01*
X55299Y-36119D01*
X55388Y-36120D01*
X55450Y-36058D01*
X55450Y-35850D01*
X55450Y-35800D01*
X55450Y-35700D01*
X55450Y-35650D01*
X55450Y-35442D01*
X55388Y-35380D01*
X55299Y-35381D01*
X55200Y-35381D01*
X55199Y-35381D01*
X55199Y-35211D01*
X55161Y-35119D01*
X55091Y-35049D01*
X55000Y-35011D01*
X54901Y-35011D01*
X54600Y-35011D01*
X54759Y-34851D01*
X54761Y-34850D01*
X54762Y-34850D01*
X54842Y-34730D01*
X54864Y-34614D01*
X54914Y-34614D01*
X55006Y-34576D01*
X55076Y-34506D01*
X55089Y-34474D01*
X55128Y-34513D01*
X55163Y-34477D01*
X55180Y-34525D01*
X55405Y-34607D01*
X55644Y-34597D01*
X55820Y-34525D01*
X55854Y-34424D01*
X55854Y-35403D01*
X55800Y-35381D01*
X55701Y-35381D01*
X55612Y-35380D01*
X55550Y-35442D01*
X55550Y-35650D01*
X55550Y-35700D01*
X55550Y-35800D01*
X55550Y-35850D01*
X55550Y-36058D01*
X55610Y-36118D01*
X55450Y-36278D01*
X54407Y-37321D01*
X54344Y-37415D01*
X54322Y-37526D01*
X54322Y-43950D01*
X54124Y-43950D01*
X54124Y-41146D01*
X54102Y-41035D01*
X54039Y-40941D01*
X54039Y-40940D01*
X52947Y-39849D01*
X53109Y-39849D01*
X53311Y-39765D01*
X53465Y-39611D01*
X53549Y-39409D01*
X53549Y-39191D01*
X53465Y-38989D01*
X53311Y-38835D01*
X53226Y-38800D01*
X53311Y-38765D01*
X53465Y-38611D01*
X53549Y-38409D01*
X53549Y-38191D01*
X53465Y-37989D01*
X53311Y-37835D01*
X53109Y-37751D01*
X52891Y-37751D01*
X52689Y-37835D01*
X52535Y-37989D01*
X52451Y-38191D01*
X52451Y-38409D01*
X52535Y-38611D01*
X52689Y-38765D01*
X52773Y-38800D01*
X52689Y-38835D01*
X52535Y-38989D01*
X52451Y-39191D01*
X52451Y-39352D01*
X52107Y-39008D01*
X52107Y-34095D01*
X52097Y-33856D01*
X52025Y-33680D01*
X51924Y-33646D01*
X51854Y-33716D01*
X51571Y-34000D01*
X51924Y-34354D01*
X52025Y-34320D01*
X52107Y-34095D01*
X52107Y-39008D01*
X52000Y-38901D01*
X52000Y-35862D01*
X52000Y-35638D01*
X51999Y-35581D01*
X51961Y-35489D01*
X51891Y-35419D01*
X51854Y-35403D01*
X51800Y-35381D01*
X51701Y-35381D01*
X51612Y-35380D01*
X51550Y-35442D01*
X51550Y-35700D01*
X51938Y-35700D01*
X52000Y-35638D01*
X52000Y-35862D01*
X51938Y-35800D01*
X51550Y-35800D01*
X51550Y-36058D01*
X51612Y-36120D01*
X51701Y-36119D01*
X51800Y-36119D01*
X51891Y-36081D01*
X51961Y-36011D01*
X51999Y-35919D01*
X52000Y-35862D01*
X52000Y-38901D01*
X51698Y-38600D01*
X51604Y-38537D01*
X51493Y-38515D01*
X48445Y-38515D01*
X48334Y-38537D01*
X48240Y-38600D01*
X48130Y-38709D01*
X48109Y-38701D01*
X47891Y-38701D01*
X47689Y-38785D01*
X47535Y-38939D01*
X47451Y-39141D01*
X47451Y-39359D01*
X47535Y-39561D01*
X47689Y-39715D01*
X47773Y-39750D01*
X47689Y-39785D01*
X47535Y-39939D01*
X47451Y-40141D01*
X47451Y-40359D01*
X47535Y-40561D01*
X47689Y-40715D01*
X47773Y-40750D01*
X47689Y-40785D01*
X47535Y-40939D01*
X47451Y-41141D01*
X47451Y-41359D01*
X47535Y-41561D01*
X47689Y-41715D01*
X47780Y-41752D01*
X47719Y-41778D01*
X47692Y-41872D01*
X48000Y-42179D01*
X48308Y-41872D01*
X48281Y-41778D01*
X48215Y-41754D01*
X48311Y-41715D01*
X48465Y-41561D01*
X48549Y-41359D01*
X48549Y-41141D01*
X48465Y-40939D01*
X48311Y-40785D01*
X48226Y-40750D01*
X48311Y-40715D01*
X48465Y-40561D01*
X48549Y-40359D01*
X48549Y-40141D01*
X48465Y-39939D01*
X48311Y-39785D01*
X48226Y-39750D01*
X48311Y-39715D01*
X48465Y-39561D01*
X48549Y-39359D01*
X48549Y-39141D01*
X48540Y-39119D01*
X48565Y-39095D01*
X49920Y-39095D01*
X49901Y-39141D01*
X49901Y-39359D01*
X49985Y-39561D01*
X50139Y-39715D01*
X50223Y-39750D01*
X50139Y-39785D01*
X49985Y-39939D01*
X49901Y-40141D01*
X49901Y-40359D01*
X49985Y-40561D01*
X50139Y-40715D01*
X50223Y-40750D01*
X50139Y-40785D01*
X49985Y-40939D01*
X49901Y-41141D01*
X49901Y-41359D01*
X49943Y-41460D01*
X49473Y-41460D01*
X49465Y-41439D01*
X49311Y-41285D01*
X49226Y-41250D01*
X49311Y-41215D01*
X49465Y-41061D01*
X49549Y-40859D01*
X49549Y-40641D01*
X49465Y-40439D01*
X49311Y-40285D01*
X49226Y-40250D01*
X49311Y-40215D01*
X49465Y-40061D01*
X49549Y-39859D01*
X49549Y-39641D01*
X49465Y-39439D01*
X49311Y-39285D01*
X49109Y-39201D01*
X48891Y-39201D01*
X48689Y-39285D01*
X48535Y-39439D01*
X48451Y-39641D01*
X48451Y-39859D01*
X48535Y-40061D01*
X48689Y-40215D01*
X48773Y-40250D01*
X48689Y-40285D01*
X48535Y-40439D01*
X48451Y-40641D01*
X48451Y-40859D01*
X48535Y-41061D01*
X48689Y-41215D01*
X48773Y-41250D01*
X48689Y-41285D01*
X48535Y-41439D01*
X48451Y-41641D01*
X48451Y-41859D01*
X48535Y-42061D01*
X48689Y-42215D01*
X48773Y-42250D01*
X48689Y-42285D01*
X48543Y-42431D01*
X48543Y-42329D01*
X48532Y-42116D01*
X48472Y-41969D01*
X48378Y-41942D01*
X48071Y-42250D01*
X48378Y-42558D01*
X48472Y-42531D01*
X48543Y-42329D01*
X48543Y-42431D01*
X48535Y-42439D01*
X48451Y-42641D01*
X48451Y-42859D01*
X48535Y-43061D01*
X48689Y-43215D01*
X48891Y-43299D01*
X49109Y-43299D01*
X49311Y-43215D01*
X49465Y-43061D01*
X49549Y-42859D01*
X49549Y-42641D01*
X49465Y-42439D01*
X49311Y-42285D01*
X49226Y-42250D01*
X49311Y-42215D01*
X49465Y-42061D01*
X49473Y-42040D01*
X49953Y-42040D01*
X49907Y-42171D01*
X49918Y-42384D01*
X49978Y-42531D01*
X50072Y-42558D01*
X50344Y-42285D01*
X50379Y-42250D01*
X50450Y-42179D01*
X50521Y-42250D01*
X50450Y-42321D01*
X50142Y-42628D01*
X50169Y-42722D01*
X50320Y-42775D01*
X50316Y-42796D01*
X50316Y-43950D01*
X48308Y-43950D01*
X48308Y-42628D01*
X48000Y-42321D01*
X47929Y-42391D01*
X47929Y-42250D01*
X47622Y-41942D01*
X47528Y-41969D01*
X47457Y-42171D01*
X47468Y-42384D01*
X47528Y-42531D01*
X47622Y-42558D01*
X47929Y-42250D01*
X47929Y-42391D01*
X47692Y-42628D01*
X47719Y-42722D01*
X47921Y-42793D01*
X48134Y-42782D01*
X48281Y-42722D01*
X48308Y-42628D01*
X48308Y-43950D01*
X47184Y-43950D01*
X47184Y-36598D01*
X49886Y-33896D01*
X49886Y-34414D01*
X49924Y-34506D01*
X49991Y-34573D01*
X49964Y-34600D01*
X49884Y-34720D01*
X49879Y-34744D01*
X49855Y-34862D01*
X49856Y-34866D01*
X49856Y-35641D01*
X49855Y-35646D01*
X49879Y-35763D01*
X49884Y-35788D01*
X49964Y-35908D01*
X50093Y-36036D01*
X50095Y-36039D01*
X50201Y-36109D01*
X50201Y-36289D01*
X50239Y-36381D01*
X50309Y-36451D01*
X50400Y-36489D01*
X50499Y-36489D01*
X50694Y-36489D01*
X50700Y-36490D01*
X50705Y-36489D01*
X50999Y-36489D01*
X51091Y-36451D01*
X51161Y-36381D01*
X51199Y-36290D01*
X51199Y-36191D01*
X51199Y-36118D01*
X51200Y-36119D01*
X51299Y-36119D01*
X51388Y-36120D01*
X51450Y-36058D01*
X51450Y-35850D01*
X51450Y-35800D01*
X51450Y-35700D01*
X51450Y-35650D01*
X51450Y-35442D01*
X51388Y-35380D01*
X51299Y-35381D01*
X51200Y-35381D01*
X51199Y-35381D01*
X51199Y-35211D01*
X51161Y-35119D01*
X51091Y-35049D01*
X51000Y-35011D01*
X50901Y-35011D01*
X50600Y-35011D01*
X50759Y-34851D01*
X50761Y-34850D01*
X50762Y-34850D01*
X50842Y-34730D01*
X50864Y-34614D01*
X50914Y-34614D01*
X51006Y-34576D01*
X51076Y-34506D01*
X51089Y-34474D01*
X51128Y-34513D01*
X51163Y-34477D01*
X51180Y-34525D01*
X51405Y-34607D01*
X51644Y-34597D01*
X51820Y-34525D01*
X51854Y-34424D01*
X51535Y-34106D01*
X51500Y-34071D01*
X51429Y-34000D01*
X51500Y-33929D01*
X51535Y-33894D01*
X51854Y-33576D01*
X51820Y-33475D01*
X51595Y-33393D01*
X51356Y-33403D01*
X51180Y-33475D01*
X51163Y-33522D01*
X51128Y-33487D01*
X51089Y-33525D01*
X51076Y-33494D01*
X51006Y-33424D01*
X50915Y-33386D01*
X50816Y-33386D01*
X50396Y-33386D01*
X50558Y-33224D01*
X56683Y-33224D01*
X56794Y-33202D01*
X56888Y-33139D01*
X57594Y-32433D01*
X57797Y-32433D01*
X57797Y-32433D01*
G37*
G54D35*
X57797Y-32433D02*
X56561Y-33669D01*
X56498Y-33763D01*
X56476Y-33874D01*
X56476Y-35252D01*
X56107Y-35621D01*
X56107Y-34095D01*
X56097Y-33856D01*
X56025Y-33680D01*
X55924Y-33646D01*
X55854Y-33716D01*
X55571Y-34000D01*
X55924Y-34354D01*
X56025Y-34320D01*
X56107Y-34095D01*
X56107Y-35621D01*
X56000Y-35728D01*
X56000Y-35650D01*
X55988Y-35650D01*
X56000Y-35638D01*
X55999Y-35581D01*
X55961Y-35489D01*
X55891Y-35419D01*
X55854Y-35403D01*
X55854Y-34424D01*
X55535Y-34106D01*
X55500Y-34071D01*
X55429Y-34000D01*
X55500Y-33929D01*
X55535Y-33894D01*
X55854Y-33576D01*
X55820Y-33475D01*
X55595Y-33393D01*
X55356Y-33403D01*
X55180Y-33475D01*
X55163Y-33522D01*
X55128Y-33487D01*
X55089Y-33525D01*
X55076Y-33494D01*
X55006Y-33424D01*
X54915Y-33386D01*
X54816Y-33386D01*
X54086Y-33386D01*
X53994Y-33424D01*
X53924Y-33494D01*
X53886Y-33585D01*
X53886Y-33684D01*
X53886Y-34414D01*
X53924Y-34506D01*
X53991Y-34573D01*
X53964Y-34600D01*
X53884Y-34720D01*
X53879Y-34744D01*
X53855Y-34862D01*
X53856Y-34866D01*
X53856Y-35641D01*
X53855Y-35646D01*
X53879Y-35763D01*
X53884Y-35788D01*
X53964Y-35908D01*
X54093Y-36036D01*
X54095Y-36039D01*
X54201Y-36109D01*
X54201Y-36289D01*
X54239Y-36381D01*
X54309Y-36451D01*
X54400Y-36489D01*
X54499Y-36489D01*
X54694Y-36489D01*
X54700Y-36490D01*
X54705Y-36489D01*
X54999Y-36489D01*
X55091Y-36451D01*
X55161Y-36381D01*
X55199Y-36290D01*
X55199Y-36191D01*
X55199Y-36118D01*
X55200Y-36119D01*
X55299Y-36119D01*
X55388Y-36120D01*
X55450Y-36058D01*
X55450Y-35850D01*
X55450Y-35800D01*
X55450Y-35700D01*
X55450Y-35650D01*
X55450Y-35442D01*
X55388Y-35380D01*
X55299Y-35381D01*
X55200Y-35381D01*
X55199Y-35381D01*
X55199Y-35211D01*
X55161Y-35119D01*
X55091Y-35049D01*
X55000Y-35011D01*
X54901Y-35011D01*
X54600Y-35011D01*
X54759Y-34851D01*
X54761Y-34850D01*
X54762Y-34850D01*
X54842Y-34730D01*
X54864Y-34614D01*
X54914Y-34614D01*
X55006Y-34576D01*
X55076Y-34506D01*
X55089Y-34474D01*
X55128Y-34513D01*
X55163Y-34477D01*
X55180Y-34525D01*
X55405Y-34607D01*
X55644Y-34597D01*
X55820Y-34525D01*
X55854Y-34424D01*
X55854Y-35403D01*
X55800Y-35381D01*
X55701Y-35381D01*
X55612Y-35380D01*
X55550Y-35442D01*
X55550Y-35650D01*
X55550Y-35700D01*
X55550Y-35800D01*
X55550Y-35850D01*
X55550Y-36058D01*
X55610Y-36118D01*
X55450Y-36278D01*
X54407Y-37321D01*
X54344Y-37415D01*
X54322Y-37526D01*
X54322Y-43950D01*
X54124Y-43950D01*
X54124Y-41146D01*
X54102Y-41035D01*
X54039Y-40941D01*
X54039Y-40940D01*
X52947Y-39849D01*
X53109Y-39849D01*
X53311Y-39765D01*
X53465Y-39611D01*
X53549Y-39409D01*
X53549Y-39191D01*
X53465Y-38989D01*
X53311Y-38835D01*
X53226Y-38800D01*
X53311Y-38765D01*
X53465Y-38611D01*
X53549Y-38409D01*
X53549Y-38191D01*
X53465Y-37989D01*
X53311Y-37835D01*
X53109Y-37751D01*
X52891Y-37751D01*
X52689Y-37835D01*
X52535Y-37989D01*
X52451Y-38191D01*
X52451Y-38409D01*
X52535Y-38611D01*
X52689Y-38765D01*
X52773Y-38800D01*
X52689Y-38835D01*
X52535Y-38989D01*
X52451Y-39191D01*
X52451Y-39352D01*
X52107Y-39008D01*
X52107Y-34095D01*
X52097Y-33856D01*
X52025Y-33680D01*
X51924Y-33646D01*
X51854Y-33716D01*
X51571Y-34000D01*
X51924Y-34354D01*
X52025Y-34320D01*
X52107Y-34095D01*
X52107Y-39008D01*
X52000Y-38901D01*
X52000Y-35862D01*
X52000Y-35638D01*
X51999Y-35581D01*
X51961Y-35489D01*
X51891Y-35419D01*
X51854Y-35403D01*
X51800Y-35381D01*
X51701Y-35381D01*
X51612Y-35380D01*
X51550Y-35442D01*
X51550Y-35700D01*
X51938Y-35700D01*
X52000Y-35638D01*
X52000Y-35862D01*
X51938Y-35800D01*
X51550Y-35800D01*
X51550Y-36058D01*
X51612Y-36120D01*
X51701Y-36119D01*
X51800Y-36119D01*
X51891Y-36081D01*
X51961Y-36011D01*
X51999Y-35919D01*
X52000Y-35862D01*
X52000Y-38901D01*
X51698Y-38600D01*
X51604Y-38537D01*
X51493Y-38515D01*
X48445Y-38515D01*
X48334Y-38537D01*
X48240Y-38600D01*
X48130Y-38709D01*
X48109Y-38701D01*
X47891Y-38701D01*
X47689Y-38785D01*
X47535Y-38939D01*
X47451Y-39141D01*
X47451Y-39359D01*
X47535Y-39561D01*
X47689Y-39715D01*
X47773Y-39750D01*
X47689Y-39785D01*
X47535Y-39939D01*
X47451Y-40141D01*
X47451Y-40359D01*
X47535Y-40561D01*
X47689Y-40715D01*
X47773Y-40750D01*
X47689Y-40785D01*
X47535Y-40939D01*
X47451Y-41141D01*
X47451Y-41359D01*
X47535Y-41561D01*
X47689Y-41715D01*
X47780Y-41752D01*
X47719Y-41778D01*
X47692Y-41872D01*
X48000Y-42179D01*
X48308Y-41872D01*
X48281Y-41778D01*
X48215Y-41754D01*
X48311Y-41715D01*
X48465Y-41561D01*
X48549Y-41359D01*
X48549Y-41141D01*
X48465Y-40939D01*
X48311Y-40785D01*
X48226Y-40750D01*
X48311Y-40715D01*
X48465Y-40561D01*
X48549Y-40359D01*
X48549Y-40141D01*
X48465Y-39939D01*
X48311Y-39785D01*
X48226Y-39750D01*
X48311Y-39715D01*
X48465Y-39561D01*
X48549Y-39359D01*
X48549Y-39141D01*
X48540Y-39119D01*
X48565Y-39095D01*
X49920Y-39095D01*
X49901Y-39141D01*
X49901Y-39359D01*
X49985Y-39561D01*
X50139Y-39715D01*
X50223Y-39750D01*
X50139Y-39785D01*
X49985Y-39939D01*
X49901Y-40141D01*
X49901Y-40359D01*
X49985Y-40561D01*
X50139Y-40715D01*
X50223Y-40750D01*
X50139Y-40785D01*
X49985Y-40939D01*
X49901Y-41141D01*
X49901Y-41359D01*
X49943Y-41460D01*
X49473Y-41460D01*
X49465Y-41439D01*
X49311Y-41285D01*
X49226Y-41250D01*
X49311Y-41215D01*
X49465Y-41061D01*
X49549Y-40859D01*
X49549Y-40641D01*
X49465Y-40439D01*
X49311Y-40285D01*
X49226Y-40250D01*
X49311Y-40215D01*
X49465Y-40061D01*
X49549Y-39859D01*
X49549Y-39641D01*
X49465Y-39439D01*
X49311Y-39285D01*
X49109Y-39201D01*
X48891Y-39201D01*
X48689Y-39285D01*
X48535Y-39439D01*
X48451Y-39641D01*
X48451Y-39859D01*
X48535Y-40061D01*
X48689Y-40215D01*
X48773Y-40250D01*
X48689Y-40285D01*
X48535Y-40439D01*
X48451Y-40641D01*
X48451Y-40859D01*
X48535Y-41061D01*
X48689Y-41215D01*
X48773Y-41250D01*
X48689Y-41285D01*
X48535Y-41439D01*
X48451Y-41641D01*
X48451Y-41859D01*
X48535Y-42061D01*
X48689Y-42215D01*
X48773Y-42250D01*
X48689Y-42285D01*
X48543Y-42431D01*
X48543Y-42329D01*
X48532Y-42116D01*
X48472Y-41969D01*
X48378Y-41942D01*
X48071Y-42250D01*
X48378Y-42558D01*
X48472Y-42531D01*
X48543Y-42329D01*
X48543Y-42431D01*
X48535Y-42439D01*
X48451Y-42641D01*
X48451Y-42859D01*
X48535Y-43061D01*
X48689Y-43215D01*
X48891Y-43299D01*
X49109Y-43299D01*
X49311Y-43215D01*
X49465Y-43061D01*
X49549Y-42859D01*
X49549Y-42641D01*
X49465Y-42439D01*
X49311Y-42285D01*
X49226Y-42250D01*
X49311Y-42215D01*
X49465Y-42061D01*
X49473Y-42040D01*
X49953Y-42040D01*
X49907Y-42171D01*
X49918Y-42384D01*
X49978Y-42531D01*
X50072Y-42558D01*
X50344Y-42285D01*
X50379Y-42250D01*
X50450Y-42179D01*
X50521Y-42250D01*
X50450Y-42321D01*
X50142Y-42628D01*
X50169Y-42722D01*
X50320Y-42775D01*
X50316Y-42796D01*
X50316Y-43950D01*
X48308Y-43950D01*
X48308Y-42628D01*
X48000Y-42321D01*
X47929Y-42391D01*
X47929Y-42250D01*
X47622Y-41942D01*
X47528Y-41969D01*
X47457Y-42171D01*
X47468Y-42384D01*
X47528Y-42531D01*
X47622Y-42558D01*
X47929Y-42250D01*
X47929Y-42391D01*
X47692Y-42628D01*
X47719Y-42722D01*
X47921Y-42793D01*
X48134Y-42782D01*
X48281Y-42722D01*
X48308Y-42628D01*
X48308Y-43950D01*
X47184Y-43950D01*
X47184Y-36598D01*
X49886Y-33896D01*
X49886Y-34414D01*
X49924Y-34506D01*
X49991Y-34573D01*
X49964Y-34600D01*
X49884Y-34720D01*
X49879Y-34744D01*
X49855Y-34862D01*
X49856Y-34866D01*
X49856Y-35641D01*
X49855Y-35646D01*
X49879Y-35763D01*
X49884Y-35788D01*
X49964Y-35908D01*
X50093Y-36036D01*
X50095Y-36039D01*
X50201Y-36109D01*
X50201Y-36289D01*
X50239Y-36381D01*
X50309Y-36451D01*
X50400Y-36489D01*
X50499Y-36489D01*
X50694Y-36489D01*
X50700Y-36490D01*
X50705Y-36489D01*
X50999Y-36489D01*
X51091Y-36451D01*
X51161Y-36381D01*
X51199Y-36290D01*
X51199Y-36191D01*
X51199Y-36118D01*
X51200Y-36119D01*
X51299Y-36119D01*
X51388Y-36120D01*
X51450Y-36058D01*
X51450Y-35850D01*
X51450Y-35800D01*
X51450Y-35700D01*
X51450Y-35650D01*
X51450Y-35442D01*
X51388Y-35380D01*
X51299Y-35381D01*
X51200Y-35381D01*
X51199Y-35381D01*
X51199Y-35211D01*
X51161Y-35119D01*
X51091Y-35049D01*
X51000Y-35011D01*
X50901Y-35011D01*
X50600Y-35011D01*
X50759Y-34851D01*
X50761Y-34850D01*
X50762Y-34850D01*
X50842Y-34730D01*
X50864Y-34614D01*
X50914Y-34614D01*
X51006Y-34576D01*
X51076Y-34506D01*
X51089Y-34474D01*
X51128Y-34513D01*
X51163Y-34477D01*
X51180Y-34525D01*
X51405Y-34607D01*
X51644Y-34597D01*
X51820Y-34525D01*
X51854Y-34424D01*
X51535Y-34106D01*
X51500Y-34071D01*
X51429Y-34000D01*
X51500Y-33929D01*
X51535Y-33894D01*
X51854Y-33576D01*
X51820Y-33475D01*
X51595Y-33393D01*
X51356Y-33403D01*
X51180Y-33475D01*
X51163Y-33522D01*
X51128Y-33487D01*
X51089Y-33525D01*
X51076Y-33494D01*
X51006Y-33424D01*
X50915Y-33386D01*
X50816Y-33386D01*
X50396Y-33386D01*
X50558Y-33224D01*
X56683Y-33224D01*
X56794Y-33202D01*
X56888Y-33139D01*
X57594Y-32433D01*
X57797Y-32433D01*
G54D10*
G36*
X81773Y-32000D02*
X81689Y-32035D01*
X81535Y-32189D01*
X81451Y-32391D01*
X81451Y-32609D01*
X81535Y-32811D01*
X81556Y-32832D01*
X80688Y-33700D01*
X80625Y-33794D01*
X80603Y-33905D01*
X80603Y-40176D01*
X80397Y-40176D01*
X80397Y-38290D01*
X80396Y-38289D01*
X80397Y-38289D01*
X80369Y-38148D01*
X80289Y-38028D01*
X80286Y-38026D01*
X80107Y-37846D01*
X80107Y-34095D01*
X80097Y-33856D01*
X80025Y-33680D01*
X79924Y-33646D01*
X79854Y-33716D01*
X79571Y-34000D01*
X79924Y-34354D01*
X80025Y-34320D01*
X80107Y-34095D01*
X80107Y-37846D01*
X80000Y-37739D01*
X80000Y-35862D01*
X80000Y-35638D01*
X79999Y-35581D01*
X79961Y-35489D01*
X79891Y-35419D01*
X79854Y-35403D01*
X79854Y-34424D01*
X79535Y-34106D01*
X79500Y-34071D01*
X79429Y-34000D01*
X79500Y-33929D01*
X79535Y-33894D01*
X79854Y-33576D01*
X79820Y-33475D01*
X79595Y-33393D01*
X79356Y-33403D01*
X79180Y-33475D01*
X79163Y-33522D01*
X79128Y-33487D01*
X79089Y-33525D01*
X79076Y-33494D01*
X79006Y-33424D01*
X78915Y-33386D01*
X78816Y-33386D01*
X78086Y-33386D01*
X77994Y-33424D01*
X77924Y-33494D01*
X77886Y-33585D01*
X77886Y-33684D01*
X77886Y-34414D01*
X77924Y-34506D01*
X77991Y-34573D01*
X77964Y-34600D01*
X77884Y-34720D01*
X77879Y-34744D01*
X77855Y-34862D01*
X77856Y-34866D01*
X77856Y-35641D01*
X77855Y-35646D01*
X77879Y-35763D01*
X77884Y-35788D01*
X77964Y-35908D01*
X78093Y-36036D01*
X78095Y-36039D01*
X78201Y-36109D01*
X78201Y-36289D01*
X78239Y-36381D01*
X78309Y-36451D01*
X78400Y-36489D01*
X78499Y-36489D01*
X78694Y-36489D01*
X78700Y-36490D01*
X78705Y-36489D01*
X78999Y-36489D01*
X79091Y-36451D01*
X79161Y-36381D01*
X79199Y-36290D01*
X79199Y-36191D01*
X79199Y-36118D01*
X79200Y-36119D01*
X79299Y-36119D01*
X79388Y-36120D01*
X79450Y-36058D01*
X79450Y-35850D01*
X79450Y-35800D01*
X79450Y-35700D01*
X79450Y-35650D01*
X79450Y-35442D01*
X79388Y-35380D01*
X79299Y-35381D01*
X79200Y-35381D01*
X79199Y-35381D01*
X79199Y-35211D01*
X79161Y-35119D01*
X79091Y-35049D01*
X79000Y-35011D01*
X78901Y-35011D01*
X78600Y-35011D01*
X78759Y-34851D01*
X78761Y-34850D01*
X78762Y-34850D01*
X78842Y-34730D01*
X78864Y-34614D01*
X78914Y-34614D01*
X79006Y-34576D01*
X79076Y-34506D01*
X79089Y-34474D01*
X79128Y-34513D01*
X79163Y-34477D01*
X79180Y-34525D01*
X79405Y-34607D01*
X79644Y-34597D01*
X79820Y-34525D01*
X79854Y-34424D01*
X79854Y-35403D01*
X79800Y-35381D01*
X79701Y-35381D01*
X79612Y-35380D01*
X79550Y-35442D01*
X79550Y-35700D01*
X79938Y-35700D01*
X80000Y-35638D01*
X80000Y-35862D01*
X79938Y-35800D01*
X79550Y-35800D01*
X79550Y-36058D01*
X79612Y-36120D01*
X79701Y-36119D01*
X79800Y-36119D01*
X79891Y-36081D01*
X79961Y-36011D01*
X79999Y-35919D01*
X80000Y-35862D01*
X80000Y-37739D01*
X79881Y-37620D01*
X79761Y-37540D01*
X79736Y-37535D01*
X79619Y-37511D01*
X79614Y-37512D01*
X79076Y-37512D01*
X79400Y-37188D01*
X79499Y-37188D01*
X79655Y-37124D01*
X79775Y-37004D01*
X79840Y-36848D01*
X79840Y-36679D01*
X79776Y-36523D01*
X79656Y-36403D01*
X79500Y-36338D01*
X79450Y-36338D01*
X79331Y-36338D01*
X79175Y-36402D01*
X79055Y-36522D01*
X78990Y-36678D01*
X78990Y-36778D01*
X78514Y-37254D01*
X76107Y-37254D01*
X76107Y-34095D01*
X76097Y-33856D01*
X76025Y-33680D01*
X75924Y-33646D01*
X75854Y-33716D01*
X75571Y-34000D01*
X75924Y-34354D01*
X76025Y-34320D01*
X76107Y-34095D01*
X76107Y-37254D01*
X76000Y-37254D01*
X76000Y-35862D01*
X76000Y-35638D01*
X75999Y-35581D01*
X75961Y-35489D01*
X75891Y-35419D01*
X75854Y-35403D01*
X75800Y-35381D01*
X75701Y-35381D01*
X75612Y-35380D01*
X75550Y-35442D01*
X75550Y-35700D01*
X75938Y-35700D01*
X76000Y-35638D01*
X76000Y-35862D01*
X75938Y-35800D01*
X75550Y-35800D01*
X75550Y-36058D01*
X75612Y-36120D01*
X75701Y-36119D01*
X75800Y-36119D01*
X75891Y-36081D01*
X75961Y-36011D01*
X75999Y-35919D01*
X76000Y-35862D01*
X76000Y-37254D01*
X74998Y-37254D01*
X75060Y-37192D01*
X75159Y-37192D01*
X75315Y-37128D01*
X75435Y-37008D01*
X75500Y-36852D01*
X75500Y-36683D01*
X75436Y-36527D01*
X75316Y-36407D01*
X75174Y-36348D01*
X75199Y-36290D01*
X75199Y-36191D01*
X75199Y-36118D01*
X75200Y-36119D01*
X75299Y-36119D01*
X75388Y-36120D01*
X75450Y-36058D01*
X75450Y-35850D01*
X75450Y-35800D01*
X75450Y-35700D01*
X75450Y-35650D01*
X75450Y-35442D01*
X75388Y-35380D01*
X75299Y-35381D01*
X75200Y-35381D01*
X75199Y-35381D01*
X75199Y-35211D01*
X75161Y-35119D01*
X75091Y-35049D01*
X75000Y-35011D01*
X74901Y-35011D01*
X74600Y-35011D01*
X74759Y-34851D01*
X74761Y-34850D01*
X74762Y-34850D01*
X74842Y-34730D01*
X74864Y-34614D01*
X74914Y-34614D01*
X75006Y-34576D01*
X75076Y-34506D01*
X75089Y-34474D01*
X75128Y-34513D01*
X75163Y-34477D01*
X75180Y-34525D01*
X75405Y-34607D01*
X75644Y-34597D01*
X75820Y-34525D01*
X75854Y-34424D01*
X75535Y-34106D01*
X75500Y-34071D01*
X75429Y-34000D01*
X75500Y-33929D01*
X75535Y-33894D01*
X75854Y-33576D01*
X75820Y-33475D01*
X75595Y-33393D01*
X75356Y-33403D01*
X75180Y-33475D01*
X75163Y-33522D01*
X75128Y-33487D01*
X75089Y-33525D01*
X75076Y-33494D01*
X75006Y-33424D01*
X74915Y-33386D01*
X74816Y-33386D01*
X74086Y-33386D01*
X73994Y-33424D01*
X73924Y-33494D01*
X73886Y-33585D01*
X73886Y-33684D01*
X73886Y-34414D01*
X73924Y-34506D01*
X73991Y-34573D01*
X73964Y-34600D01*
X73884Y-34720D01*
X73879Y-34744D01*
X73855Y-34862D01*
X73856Y-34866D01*
X73856Y-35641D01*
X73855Y-35646D01*
X73879Y-35763D01*
X73884Y-35788D01*
X73964Y-35908D01*
X74093Y-36036D01*
X74095Y-36039D01*
X74201Y-36109D01*
X74201Y-36289D01*
X74239Y-36381D01*
X74309Y-36451D01*
X74400Y-36489D01*
X74499Y-36489D01*
X74694Y-36489D01*
X74700Y-36490D01*
X74705Y-36489D01*
X74752Y-36489D01*
X74715Y-36526D01*
X74650Y-36682D01*
X74650Y-36782D01*
X74568Y-36864D01*
X72107Y-36864D01*
X72107Y-34095D01*
X72097Y-33856D01*
X72025Y-33680D01*
X71924Y-33646D01*
X71854Y-33716D01*
X71571Y-34000D01*
X71924Y-34354D01*
X72025Y-34320D01*
X72107Y-34095D01*
X72107Y-36864D01*
X72000Y-36864D01*
X72000Y-35862D01*
X72000Y-35638D01*
X71999Y-35581D01*
X71961Y-35489D01*
X71891Y-35419D01*
X71854Y-35403D01*
X71854Y-34424D01*
X71535Y-34106D01*
X71500Y-34071D01*
X71429Y-34000D01*
X71500Y-33929D01*
X71535Y-33894D01*
X71854Y-33576D01*
X71820Y-33475D01*
X71595Y-33393D01*
X71356Y-33403D01*
X71180Y-33475D01*
X71163Y-33522D01*
X71128Y-33487D01*
X71089Y-33525D01*
X71076Y-33494D01*
X71006Y-33424D01*
X70915Y-33386D01*
X70816Y-33386D01*
X70086Y-33386D01*
X69994Y-33424D01*
X69924Y-33494D01*
X69886Y-33585D01*
X69886Y-33684D01*
X69886Y-34414D01*
X69924Y-34506D01*
X69991Y-34573D01*
X69964Y-34600D01*
X69884Y-34720D01*
X69879Y-34744D01*
X69855Y-34862D01*
X69856Y-34866D01*
X69856Y-35641D01*
X69855Y-35646D01*
X69879Y-35763D01*
X69884Y-35788D01*
X69964Y-35908D01*
X70093Y-36036D01*
X70095Y-36039D01*
X70201Y-36109D01*
X70201Y-36289D01*
X70239Y-36381D01*
X70309Y-36451D01*
X70400Y-36489D01*
X70499Y-36489D01*
X70694Y-36489D01*
X70700Y-36490D01*
X70705Y-36489D01*
X70999Y-36489D01*
X71091Y-36451D01*
X71161Y-36381D01*
X71199Y-36290D01*
X71199Y-36191D01*
X71199Y-36118D01*
X71200Y-36119D01*
X71299Y-36119D01*
X71388Y-36120D01*
X71450Y-36058D01*
X71450Y-35850D01*
X71450Y-35800D01*
X71450Y-35700D01*
X71450Y-35650D01*
X71450Y-35442D01*
X71388Y-35380D01*
X71299Y-35381D01*
X71200Y-35381D01*
X71199Y-35381D01*
X71199Y-35211D01*
X71161Y-35119D01*
X71091Y-35049D01*
X71000Y-35011D01*
X70901Y-35011D01*
X70600Y-35011D01*
X70759Y-34851D01*
X70761Y-34850D01*
X70762Y-34850D01*
X70842Y-34730D01*
X70864Y-34614D01*
X70914Y-34614D01*
X71006Y-34576D01*
X71076Y-34506D01*
X71089Y-34474D01*
X71128Y-34513D01*
X71163Y-34477D01*
X71180Y-34525D01*
X71405Y-34607D01*
X71644Y-34597D01*
X71820Y-34525D01*
X71854Y-34424D01*
X71854Y-35403D01*
X71800Y-35381D01*
X71701Y-35381D01*
X71612Y-35380D01*
X71550Y-35442D01*
X71550Y-35700D01*
X71938Y-35700D01*
X72000Y-35638D01*
X72000Y-35862D01*
X71938Y-35800D01*
X71550Y-35800D01*
X71550Y-36058D01*
X71612Y-36120D01*
X71701Y-36119D01*
X71800Y-36119D01*
X71891Y-36081D01*
X71961Y-36011D01*
X71999Y-35919D01*
X72000Y-35862D01*
X72000Y-36864D01*
X71450Y-36864D01*
X70013Y-36864D01*
X70017Y-36855D01*
X70017Y-36686D01*
X69953Y-36530D01*
X69833Y-36410D01*
X69677Y-36345D01*
X69508Y-36345D01*
X69352Y-36409D01*
X69281Y-36480D01*
X68107Y-36480D01*
X68107Y-34095D01*
X68097Y-33856D01*
X68025Y-33680D01*
X67924Y-33646D01*
X67854Y-33716D01*
X67571Y-34000D01*
X67924Y-34354D01*
X68025Y-34320D01*
X68107Y-34095D01*
X68107Y-36480D01*
X68000Y-36480D01*
X68000Y-35862D01*
X68000Y-35638D01*
X67999Y-35581D01*
X67961Y-35489D01*
X67891Y-35419D01*
X67854Y-35403D01*
X67800Y-35381D01*
X67701Y-35381D01*
X67612Y-35380D01*
X67550Y-35442D01*
X67550Y-35700D01*
X67938Y-35700D01*
X68000Y-35638D01*
X68000Y-35862D01*
X67938Y-35800D01*
X67550Y-35800D01*
X67550Y-36058D01*
X67612Y-36120D01*
X67701Y-36119D01*
X67800Y-36119D01*
X67891Y-36081D01*
X67961Y-36011D01*
X67999Y-35919D01*
X68000Y-35862D01*
X68000Y-36480D01*
X67237Y-36480D01*
X67126Y-36502D01*
X67092Y-36524D01*
X67040Y-36472D01*
X67091Y-36451D01*
X67161Y-36381D01*
X67199Y-36290D01*
X67199Y-36191D01*
X67199Y-36118D01*
X67200Y-36119D01*
X67299Y-36119D01*
X67388Y-36120D01*
X67450Y-36058D01*
X67450Y-35850D01*
X67450Y-35800D01*
X67450Y-35700D01*
X67450Y-35650D01*
X67450Y-35442D01*
X67388Y-35380D01*
X67299Y-35381D01*
X67200Y-35381D01*
X67199Y-35381D01*
X67199Y-35211D01*
X67161Y-35119D01*
X67091Y-35049D01*
X67000Y-35011D01*
X66901Y-35011D01*
X66600Y-35011D01*
X66759Y-34851D01*
X66761Y-34850D01*
X66762Y-34850D01*
X66842Y-34730D01*
X66864Y-34614D01*
X66914Y-34614D01*
X67006Y-34576D01*
X67076Y-34506D01*
X67089Y-34474D01*
X67128Y-34513D01*
X67163Y-34477D01*
X67180Y-34525D01*
X67405Y-34607D01*
X67644Y-34597D01*
X67820Y-34525D01*
X67854Y-34424D01*
X67535Y-34106D01*
X67500Y-34071D01*
X67429Y-34000D01*
X67500Y-33929D01*
X67535Y-33894D01*
X67854Y-33576D01*
X67820Y-33475D01*
X67595Y-33393D01*
X67356Y-33403D01*
X67180Y-33475D01*
X67163Y-33522D01*
X67128Y-33487D01*
X67089Y-33525D01*
X67076Y-33494D01*
X67006Y-33424D01*
X66915Y-33386D01*
X66816Y-33386D01*
X66086Y-33386D01*
X65994Y-33424D01*
X65924Y-33494D01*
X65886Y-33585D01*
X65886Y-33684D01*
X65886Y-34414D01*
X65924Y-34506D01*
X65991Y-34573D01*
X65964Y-34600D01*
X65884Y-34720D01*
X65879Y-34744D01*
X65855Y-34862D01*
X65856Y-34866D01*
X65856Y-35641D01*
X65855Y-35646D01*
X65879Y-35763D01*
X65884Y-35788D01*
X65964Y-35908D01*
X66093Y-36036D01*
X66095Y-36039D01*
X66201Y-36109D01*
X66201Y-36289D01*
X66239Y-36381D01*
X66309Y-36451D01*
X66400Y-36489D01*
X66417Y-36489D01*
X66377Y-36529D01*
X66312Y-36685D01*
X66312Y-36785D01*
X65045Y-38052D01*
X65000Y-38119D01*
X64955Y-38052D01*
X64107Y-37204D01*
X64107Y-34095D01*
X64097Y-33856D01*
X64025Y-33680D01*
X63924Y-33646D01*
X63854Y-33716D01*
X63571Y-34000D01*
X63924Y-34354D01*
X64025Y-34320D01*
X64107Y-34095D01*
X64107Y-37204D01*
X63932Y-37029D01*
X63953Y-37008D01*
X64018Y-36852D01*
X64018Y-36683D01*
X64000Y-36639D01*
X64000Y-35862D01*
X64000Y-35638D01*
X63999Y-35581D01*
X63961Y-35489D01*
X63891Y-35419D01*
X63854Y-35403D01*
X63800Y-35381D01*
X63701Y-35381D01*
X63612Y-35380D01*
X63550Y-35442D01*
X63550Y-35700D01*
X63938Y-35700D01*
X64000Y-35638D01*
X64000Y-35862D01*
X63938Y-35800D01*
X63550Y-35800D01*
X63550Y-36058D01*
X63612Y-36120D01*
X63701Y-36119D01*
X63800Y-36119D01*
X63891Y-36081D01*
X63961Y-36011D01*
X63999Y-35919D01*
X64000Y-35862D01*
X64000Y-36639D01*
X63954Y-36527D01*
X63834Y-36407D01*
X63678Y-36342D01*
X63509Y-36342D01*
X63353Y-36406D01*
X63281Y-36477D01*
X63183Y-36437D01*
X63105Y-36437D01*
X63161Y-36381D01*
X63199Y-36290D01*
X63199Y-36191D01*
X63199Y-36118D01*
X63200Y-36119D01*
X63299Y-36119D01*
X63388Y-36120D01*
X63450Y-36058D01*
X63450Y-35850D01*
X63450Y-35800D01*
X63450Y-35700D01*
X63450Y-35650D01*
X63450Y-35442D01*
X63388Y-35380D01*
X63299Y-35381D01*
X63200Y-35381D01*
X63199Y-35381D01*
X63199Y-35211D01*
X63161Y-35119D01*
X63091Y-35049D01*
X63000Y-35011D01*
X62901Y-35011D01*
X62600Y-35011D01*
X62759Y-34851D01*
X62761Y-34850D01*
X62762Y-34850D01*
X62842Y-34730D01*
X62864Y-34614D01*
X62914Y-34614D01*
X63006Y-34576D01*
X63076Y-34506D01*
X63089Y-34474D01*
X63128Y-34513D01*
X63163Y-34477D01*
X63180Y-34525D01*
X63405Y-34607D01*
X63644Y-34597D01*
X63820Y-34525D01*
X63854Y-34424D01*
X63535Y-34106D01*
X63500Y-34071D01*
X63429Y-34000D01*
X63500Y-33929D01*
X63535Y-33894D01*
X63854Y-33576D01*
X63820Y-33475D01*
X63595Y-33393D01*
X63356Y-33403D01*
X63180Y-33475D01*
X63163Y-33522D01*
X63128Y-33487D01*
X63089Y-33525D01*
X63076Y-33494D01*
X63006Y-33424D01*
X62915Y-33386D01*
X62816Y-33386D01*
X62086Y-33386D01*
X61994Y-33424D01*
X61924Y-33494D01*
X61886Y-33585D01*
X61886Y-33684D01*
X61886Y-34414D01*
X61924Y-34506D01*
X61991Y-34573D01*
X61926Y-34638D01*
X61846Y-34758D01*
X61841Y-34782D01*
X61817Y-34900D01*
X61818Y-34904D01*
X61818Y-35603D01*
X61817Y-35608D01*
X61841Y-35725D01*
X61846Y-35750D01*
X61926Y-35870D01*
X62095Y-36039D01*
X62201Y-36109D01*
X62201Y-36289D01*
X62239Y-36381D01*
X62248Y-36390D01*
X61980Y-36659D01*
X61900Y-36779D01*
X61895Y-36803D01*
X61871Y-36921D01*
X61872Y-36925D01*
X61872Y-38676D01*
X61871Y-38681D01*
X61895Y-38798D01*
X61900Y-38823D01*
X61980Y-38943D01*
X63186Y-40148D01*
X63188Y-40151D01*
X63308Y-40231D01*
X63450Y-40259D01*
X68877Y-40259D01*
X68834Y-40288D01*
X67124Y-41997D01*
X67125Y-41812D01*
X67125Y-41588D01*
X67124Y-41349D01*
X67124Y-41250D01*
X67086Y-41159D01*
X67016Y-41089D01*
X66924Y-41051D01*
X66862Y-41050D01*
X66800Y-41112D01*
X66800Y-41650D01*
X67063Y-41650D01*
X67125Y-41588D01*
X67125Y-41812D01*
X67063Y-41750D01*
X66800Y-41750D01*
X66800Y-42288D01*
X66817Y-42305D01*
X66700Y-42422D01*
X66700Y-42288D01*
X66700Y-41750D01*
X66700Y-41650D01*
X66700Y-41112D01*
X66638Y-41050D01*
X66576Y-41051D01*
X66500Y-41082D01*
X66424Y-41051D01*
X66362Y-41050D01*
X66300Y-41112D01*
X66300Y-41650D01*
X66437Y-41650D01*
X66563Y-41650D01*
X66700Y-41650D01*
X66700Y-41750D01*
X66563Y-41750D01*
X66437Y-41750D01*
X66300Y-41750D01*
X66300Y-42288D01*
X66362Y-42350D01*
X66424Y-42349D01*
X66500Y-42317D01*
X66576Y-42349D01*
X66638Y-42350D01*
X66700Y-42288D01*
X66700Y-42422D01*
X66200Y-42922D01*
X66200Y-42288D01*
X66200Y-41750D01*
X66200Y-41650D01*
X66200Y-41112D01*
X66138Y-41050D01*
X66076Y-41051D01*
X66000Y-41082D01*
X65924Y-41051D01*
X65862Y-41050D01*
X65800Y-41112D01*
X65800Y-41650D01*
X65937Y-41650D01*
X66063Y-41650D01*
X66200Y-41650D01*
X66200Y-41750D01*
X66063Y-41750D01*
X65937Y-41750D01*
X65800Y-41750D01*
X65800Y-42288D01*
X65862Y-42350D01*
X65924Y-42349D01*
X66000Y-42317D01*
X66076Y-42349D01*
X66138Y-42350D01*
X66200Y-42288D01*
X66200Y-42922D01*
X65700Y-43422D01*
X65700Y-42288D01*
X65700Y-41750D01*
X65700Y-41650D01*
X65700Y-41112D01*
X65638Y-41050D01*
X65576Y-41051D01*
X65500Y-41082D01*
X65424Y-41051D01*
X65362Y-41050D01*
X65300Y-41112D01*
X65300Y-41650D01*
X65437Y-41650D01*
X65563Y-41650D01*
X65700Y-41650D01*
X65700Y-41750D01*
X65563Y-41750D01*
X65437Y-41750D01*
X65300Y-41750D01*
X65300Y-42288D01*
X65362Y-42350D01*
X65424Y-42349D01*
X65500Y-42317D01*
X65576Y-42349D01*
X65638Y-42350D01*
X65700Y-42288D01*
X65700Y-43422D01*
X65200Y-43922D01*
X65200Y-42288D01*
X65200Y-41750D01*
X65200Y-41650D01*
X65200Y-41112D01*
X65138Y-41050D01*
X65076Y-41051D01*
X65000Y-41082D01*
X64924Y-41051D01*
X64862Y-41050D01*
X64800Y-41112D01*
X64800Y-41650D01*
X64937Y-41650D01*
X65063Y-41650D01*
X65200Y-41650D01*
X65200Y-41750D01*
X65063Y-41750D01*
X64937Y-41750D01*
X64800Y-41750D01*
X64800Y-42288D01*
X64862Y-42350D01*
X64924Y-42349D01*
X65000Y-42317D01*
X65076Y-42349D01*
X65138Y-42350D01*
X65200Y-42288D01*
X65200Y-43922D01*
X65172Y-43950D01*
X64700Y-43950D01*
X64700Y-42288D01*
X64700Y-41750D01*
X64700Y-41650D01*
X64700Y-41112D01*
X64638Y-41050D01*
X64576Y-41051D01*
X64500Y-41082D01*
X64424Y-41051D01*
X64362Y-41050D01*
X64300Y-41112D01*
X64300Y-41650D01*
X64437Y-41650D01*
X64563Y-41650D01*
X64700Y-41650D01*
X64700Y-41750D01*
X64563Y-41750D01*
X64437Y-41750D01*
X64300Y-41750D01*
X64300Y-42288D01*
X64362Y-42350D01*
X64424Y-42349D01*
X64500Y-42317D01*
X64576Y-42349D01*
X64638Y-42350D01*
X64700Y-42288D01*
X64700Y-43950D01*
X64200Y-43950D01*
X64200Y-42288D01*
X64200Y-41750D01*
X64200Y-41650D01*
X64200Y-41112D01*
X64138Y-41050D01*
X64076Y-41051D01*
X64000Y-41082D01*
X63924Y-41051D01*
X63862Y-41050D01*
X63800Y-41112D01*
X63800Y-41650D01*
X63937Y-41650D01*
X64063Y-41650D01*
X64200Y-41650D01*
X64200Y-41750D01*
X64063Y-41750D01*
X63937Y-41750D01*
X63800Y-41750D01*
X63800Y-42288D01*
X63862Y-42350D01*
X63924Y-42349D01*
X64000Y-42317D01*
X64076Y-42349D01*
X64138Y-42350D01*
X64200Y-42288D01*
X64200Y-43950D01*
X63850Y-43950D01*
X63850Y-43170D01*
X63850Y-42832D01*
X63721Y-42520D01*
X63533Y-42331D01*
X63576Y-42349D01*
X63638Y-42350D01*
X63700Y-42288D01*
X63700Y-41750D01*
X63700Y-41650D01*
X63700Y-41112D01*
X63638Y-41050D01*
X63576Y-41051D01*
X63500Y-41082D01*
X63424Y-41051D01*
X63362Y-41050D01*
X63300Y-41112D01*
X63300Y-41650D01*
X63437Y-41650D01*
X63563Y-41650D01*
X63700Y-41650D01*
X63700Y-41750D01*
X63563Y-41750D01*
X63437Y-41750D01*
X63350Y-41750D01*
X63300Y-41750D01*
X63200Y-41750D01*
X63200Y-41650D01*
X63200Y-41112D01*
X63138Y-41050D01*
X63076Y-41051D01*
X62984Y-41089D01*
X62914Y-41159D01*
X62876Y-41250D01*
X62876Y-41349D01*
X62875Y-41588D01*
X62937Y-41650D01*
X63200Y-41650D01*
X63200Y-41750D01*
X63150Y-41750D01*
X62937Y-41750D01*
X62875Y-41812D01*
X62876Y-42051D01*
X62876Y-42150D01*
X62832Y-42150D01*
X62520Y-42279D01*
X62280Y-42518D01*
X62150Y-42830D01*
X62150Y-43168D01*
X62279Y-43480D01*
X62518Y-43720D01*
X62830Y-43850D01*
X63168Y-43850D01*
X63480Y-43721D01*
X63720Y-43482D01*
X63850Y-43170D01*
X63850Y-43950D01*
X61330Y-43950D01*
X61330Y-42483D01*
X61487Y-42326D01*
X61575Y-42115D01*
X61575Y-41886D01*
X61488Y-41675D01*
X61383Y-41570D01*
X61466Y-41536D01*
X61536Y-41466D01*
X61574Y-41375D01*
X61574Y-41276D01*
X61574Y-40626D01*
X61536Y-40534D01*
X61466Y-40464D01*
X61375Y-40426D01*
X61276Y-40426D01*
X60626Y-40426D01*
X60534Y-40464D01*
X60464Y-40534D01*
X60426Y-40625D01*
X60426Y-40724D01*
X60426Y-41374D01*
X60432Y-41390D01*
X60107Y-41716D01*
X60107Y-34095D01*
X60097Y-33856D01*
X60025Y-33680D01*
X59924Y-33646D01*
X59854Y-33716D01*
X59571Y-34000D01*
X59924Y-34354D01*
X60025Y-34320D01*
X60107Y-34095D01*
X60107Y-41716D01*
X60000Y-41823D01*
X60000Y-35862D01*
X60000Y-35638D01*
X59999Y-35581D01*
X59961Y-35489D01*
X59891Y-35419D01*
X59854Y-35403D01*
X59800Y-35381D01*
X59701Y-35381D01*
X59612Y-35380D01*
X59550Y-35442D01*
X59550Y-35700D01*
X59938Y-35700D01*
X60000Y-35638D01*
X60000Y-35862D01*
X59938Y-35800D01*
X59550Y-35800D01*
X59550Y-36058D01*
X59612Y-36120D01*
X59701Y-36119D01*
X59800Y-36119D01*
X59891Y-36081D01*
X59961Y-36011D01*
X59999Y-35919D01*
X60000Y-35862D01*
X60000Y-41823D01*
X59789Y-42035D01*
X59726Y-42129D01*
X59704Y-42240D01*
X59704Y-42502D01*
X59482Y-42280D01*
X59170Y-42150D01*
X58832Y-42150D01*
X58520Y-42279D01*
X58280Y-42518D01*
X58197Y-42717D01*
X58197Y-39281D01*
X58279Y-39480D01*
X58518Y-39720D01*
X58830Y-39850D01*
X59168Y-39850D01*
X59480Y-39721D01*
X59720Y-39482D01*
X59850Y-39170D01*
X59850Y-38832D01*
X59721Y-38520D01*
X59482Y-38280D01*
X59170Y-38150D01*
X58832Y-38150D01*
X58520Y-38279D01*
X58280Y-38518D01*
X58197Y-38717D01*
X58197Y-36107D01*
X58201Y-36109D01*
X58201Y-36289D01*
X58239Y-36381D01*
X58309Y-36451D01*
X58400Y-36489D01*
X58499Y-36489D01*
X58694Y-36489D01*
X58700Y-36490D01*
X58705Y-36489D01*
X58999Y-36489D01*
X59091Y-36451D01*
X59161Y-36381D01*
X59199Y-36290D01*
X59199Y-36191D01*
X59199Y-36118D01*
X59200Y-36119D01*
X59299Y-36119D01*
X59388Y-36120D01*
X59450Y-36058D01*
X59450Y-35850D01*
X59450Y-35800D01*
X59450Y-35700D01*
X59450Y-35650D01*
X59450Y-35442D01*
X59388Y-35380D01*
X59299Y-35381D01*
X59200Y-35381D01*
X59199Y-35381D01*
X59199Y-35211D01*
X59161Y-35119D01*
X59091Y-35049D01*
X59000Y-35011D01*
X58901Y-35011D01*
X58600Y-35011D01*
X58759Y-34851D01*
X58761Y-34850D01*
X58762Y-34850D01*
X58842Y-34730D01*
X58864Y-34614D01*
X58914Y-34614D01*
X59006Y-34576D01*
X59076Y-34506D01*
X59089Y-34474D01*
X59128Y-34513D01*
X59163Y-34477D01*
X59180Y-34525D01*
X59405Y-34607D01*
X59644Y-34597D01*
X59820Y-34525D01*
X59854Y-34424D01*
X59535Y-34106D01*
X59500Y-34071D01*
X59429Y-34000D01*
X59500Y-33929D01*
X59535Y-33894D01*
X59854Y-33576D01*
X59820Y-33475D01*
X59595Y-33393D01*
X59356Y-33403D01*
X59180Y-33475D01*
X59163Y-33522D01*
X59128Y-33487D01*
X59089Y-33525D01*
X59076Y-33494D01*
X59006Y-33424D01*
X58915Y-33386D01*
X58816Y-33386D01*
X58585Y-33386D01*
X58654Y-33317D01*
X76116Y-33317D01*
X76227Y-33295D01*
X76321Y-33232D01*
X77205Y-32348D01*
X77268Y-32254D01*
X77282Y-32181D01*
X77306Y-32172D01*
X77457Y-32020D01*
X77499Y-31917D01*
X77542Y-32020D01*
X77694Y-32171D01*
X77892Y-32254D01*
X78107Y-32254D01*
X78306Y-32172D01*
X78457Y-32020D01*
X78499Y-31917D01*
X78542Y-32020D01*
X78694Y-32171D01*
X78892Y-32254D01*
X79107Y-32254D01*
X79306Y-32172D01*
X79457Y-32020D01*
X79532Y-31840D01*
X79631Y-32080D01*
X79919Y-32368D01*
X80295Y-32525D01*
X80703Y-32525D01*
X81080Y-32369D01*
X81368Y-32081D01*
X81507Y-31745D01*
X81535Y-31811D01*
X81689Y-31965D01*
X81773Y-32000D01*
X81773Y-32000D01*
G37*
G54D35*
X81773Y-32000D02*
X81689Y-32035D01*
X81535Y-32189D01*
X81451Y-32391D01*
X81451Y-32609D01*
X81535Y-32811D01*
X81556Y-32832D01*
X80688Y-33700D01*
X80625Y-33794D01*
X80603Y-33905D01*
X80603Y-40176D01*
X80397Y-40176D01*
X80397Y-38290D01*
X80396Y-38289D01*
X80397Y-38289D01*
X80369Y-38148D01*
X80289Y-38028D01*
X80286Y-38026D01*
X80107Y-37846D01*
X80107Y-34095D01*
X80097Y-33856D01*
X80025Y-33680D01*
X79924Y-33646D01*
X79854Y-33716D01*
X79571Y-34000D01*
X79924Y-34354D01*
X80025Y-34320D01*
X80107Y-34095D01*
X80107Y-37846D01*
X80000Y-37739D01*
X80000Y-35862D01*
X80000Y-35638D01*
X79999Y-35581D01*
X79961Y-35489D01*
X79891Y-35419D01*
X79854Y-35403D01*
X79854Y-34424D01*
X79535Y-34106D01*
X79500Y-34071D01*
X79429Y-34000D01*
X79500Y-33929D01*
X79535Y-33894D01*
X79854Y-33576D01*
X79820Y-33475D01*
X79595Y-33393D01*
X79356Y-33403D01*
X79180Y-33475D01*
X79163Y-33522D01*
X79128Y-33487D01*
X79089Y-33525D01*
X79076Y-33494D01*
X79006Y-33424D01*
X78915Y-33386D01*
X78816Y-33386D01*
X78086Y-33386D01*
X77994Y-33424D01*
X77924Y-33494D01*
X77886Y-33585D01*
X77886Y-33684D01*
X77886Y-34414D01*
X77924Y-34506D01*
X77991Y-34573D01*
X77964Y-34600D01*
X77884Y-34720D01*
X77879Y-34744D01*
X77855Y-34862D01*
X77856Y-34866D01*
X77856Y-35641D01*
X77855Y-35646D01*
X77879Y-35763D01*
X77884Y-35788D01*
X77964Y-35908D01*
X78093Y-36036D01*
X78095Y-36039D01*
X78201Y-36109D01*
X78201Y-36289D01*
X78239Y-36381D01*
X78309Y-36451D01*
X78400Y-36489D01*
X78499Y-36489D01*
X78694Y-36489D01*
X78700Y-36490D01*
X78705Y-36489D01*
X78999Y-36489D01*
X79091Y-36451D01*
X79161Y-36381D01*
X79199Y-36290D01*
X79199Y-36191D01*
X79199Y-36118D01*
X79200Y-36119D01*
X79299Y-36119D01*
X79388Y-36120D01*
X79450Y-36058D01*
X79450Y-35850D01*
X79450Y-35800D01*
X79450Y-35700D01*
X79450Y-35650D01*
X79450Y-35442D01*
X79388Y-35380D01*
X79299Y-35381D01*
X79200Y-35381D01*
X79199Y-35381D01*
X79199Y-35211D01*
X79161Y-35119D01*
X79091Y-35049D01*
X79000Y-35011D01*
X78901Y-35011D01*
X78600Y-35011D01*
X78759Y-34851D01*
X78761Y-34850D01*
X78762Y-34850D01*
X78842Y-34730D01*
X78864Y-34614D01*
X78914Y-34614D01*
X79006Y-34576D01*
X79076Y-34506D01*
X79089Y-34474D01*
X79128Y-34513D01*
X79163Y-34477D01*
X79180Y-34525D01*
X79405Y-34607D01*
X79644Y-34597D01*
X79820Y-34525D01*
X79854Y-34424D01*
X79854Y-35403D01*
X79800Y-35381D01*
X79701Y-35381D01*
X79612Y-35380D01*
X79550Y-35442D01*
X79550Y-35700D01*
X79938Y-35700D01*
X80000Y-35638D01*
X80000Y-35862D01*
X79938Y-35800D01*
X79550Y-35800D01*
X79550Y-36058D01*
X79612Y-36120D01*
X79701Y-36119D01*
X79800Y-36119D01*
X79891Y-36081D01*
X79961Y-36011D01*
X79999Y-35919D01*
X80000Y-35862D01*
X80000Y-37739D01*
X79881Y-37620D01*
X79761Y-37540D01*
X79736Y-37535D01*
X79619Y-37511D01*
X79614Y-37512D01*
X79076Y-37512D01*
X79400Y-37188D01*
X79499Y-37188D01*
X79655Y-37124D01*
X79775Y-37004D01*
X79840Y-36848D01*
X79840Y-36679D01*
X79776Y-36523D01*
X79656Y-36403D01*
X79500Y-36338D01*
X79450Y-36338D01*
X79331Y-36338D01*
X79175Y-36402D01*
X79055Y-36522D01*
X78990Y-36678D01*
X78990Y-36778D01*
X78514Y-37254D01*
X76107Y-37254D01*
X76107Y-34095D01*
X76097Y-33856D01*
X76025Y-33680D01*
X75924Y-33646D01*
X75854Y-33716D01*
X75571Y-34000D01*
X75924Y-34354D01*
X76025Y-34320D01*
X76107Y-34095D01*
X76107Y-37254D01*
X76000Y-37254D01*
X76000Y-35862D01*
X76000Y-35638D01*
X75999Y-35581D01*
X75961Y-35489D01*
X75891Y-35419D01*
X75854Y-35403D01*
X75800Y-35381D01*
X75701Y-35381D01*
X75612Y-35380D01*
X75550Y-35442D01*
X75550Y-35700D01*
X75938Y-35700D01*
X76000Y-35638D01*
X76000Y-35862D01*
X75938Y-35800D01*
X75550Y-35800D01*
X75550Y-36058D01*
X75612Y-36120D01*
X75701Y-36119D01*
X75800Y-36119D01*
X75891Y-36081D01*
X75961Y-36011D01*
X75999Y-35919D01*
X76000Y-35862D01*
X76000Y-37254D01*
X74998Y-37254D01*
X75060Y-37192D01*
X75159Y-37192D01*
X75315Y-37128D01*
X75435Y-37008D01*
X75500Y-36852D01*
X75500Y-36683D01*
X75436Y-36527D01*
X75316Y-36407D01*
X75174Y-36348D01*
X75199Y-36290D01*
X75199Y-36191D01*
X75199Y-36118D01*
X75200Y-36119D01*
X75299Y-36119D01*
X75388Y-36120D01*
X75450Y-36058D01*
X75450Y-35850D01*
X75450Y-35800D01*
X75450Y-35700D01*
X75450Y-35650D01*
X75450Y-35442D01*
X75388Y-35380D01*
X75299Y-35381D01*
X75200Y-35381D01*
X75199Y-35381D01*
X75199Y-35211D01*
X75161Y-35119D01*
X75091Y-35049D01*
X75000Y-35011D01*
X74901Y-35011D01*
X74600Y-35011D01*
X74759Y-34851D01*
X74761Y-34850D01*
X74762Y-34850D01*
X74842Y-34730D01*
X74864Y-34614D01*
X74914Y-34614D01*
X75006Y-34576D01*
X75076Y-34506D01*
X75089Y-34474D01*
X75128Y-34513D01*
X75163Y-34477D01*
X75180Y-34525D01*
X75405Y-34607D01*
X75644Y-34597D01*
X75820Y-34525D01*
X75854Y-34424D01*
X75535Y-34106D01*
X75500Y-34071D01*
X75429Y-34000D01*
X75500Y-33929D01*
X75535Y-33894D01*
X75854Y-33576D01*
X75820Y-33475D01*
X75595Y-33393D01*
X75356Y-33403D01*
X75180Y-33475D01*
X75163Y-33522D01*
X75128Y-33487D01*
X75089Y-33525D01*
X75076Y-33494D01*
X75006Y-33424D01*
X74915Y-33386D01*
X74816Y-33386D01*
X74086Y-33386D01*
X73994Y-33424D01*
X73924Y-33494D01*
X73886Y-33585D01*
X73886Y-33684D01*
X73886Y-34414D01*
X73924Y-34506D01*
X73991Y-34573D01*
X73964Y-34600D01*
X73884Y-34720D01*
X73879Y-34744D01*
X73855Y-34862D01*
X73856Y-34866D01*
X73856Y-35641D01*
X73855Y-35646D01*
X73879Y-35763D01*
X73884Y-35788D01*
X73964Y-35908D01*
X74093Y-36036D01*
X74095Y-36039D01*
X74201Y-36109D01*
X74201Y-36289D01*
X74239Y-36381D01*
X74309Y-36451D01*
X74400Y-36489D01*
X74499Y-36489D01*
X74694Y-36489D01*
X74700Y-36490D01*
X74705Y-36489D01*
X74752Y-36489D01*
X74715Y-36526D01*
X74650Y-36682D01*
X74650Y-36782D01*
X74568Y-36864D01*
X72107Y-36864D01*
X72107Y-34095D01*
X72097Y-33856D01*
X72025Y-33680D01*
X71924Y-33646D01*
X71854Y-33716D01*
X71571Y-34000D01*
X71924Y-34354D01*
X72025Y-34320D01*
X72107Y-34095D01*
X72107Y-36864D01*
X72000Y-36864D01*
X72000Y-35862D01*
X72000Y-35638D01*
X71999Y-35581D01*
X71961Y-35489D01*
X71891Y-35419D01*
X71854Y-35403D01*
X71854Y-34424D01*
X71535Y-34106D01*
X71500Y-34071D01*
X71429Y-34000D01*
X71500Y-33929D01*
X71535Y-33894D01*
X71854Y-33576D01*
X71820Y-33475D01*
X71595Y-33393D01*
X71356Y-33403D01*
X71180Y-33475D01*
X71163Y-33522D01*
X71128Y-33487D01*
X71089Y-33525D01*
X71076Y-33494D01*
X71006Y-33424D01*
X70915Y-33386D01*
X70816Y-33386D01*
X70086Y-33386D01*
X69994Y-33424D01*
X69924Y-33494D01*
X69886Y-33585D01*
X69886Y-33684D01*
X69886Y-34414D01*
X69924Y-34506D01*
X69991Y-34573D01*
X69964Y-34600D01*
X69884Y-34720D01*
X69879Y-34744D01*
X69855Y-34862D01*
X69856Y-34866D01*
X69856Y-35641D01*
X69855Y-35646D01*
X69879Y-35763D01*
X69884Y-35788D01*
X69964Y-35908D01*
X70093Y-36036D01*
X70095Y-36039D01*
X70201Y-36109D01*
X70201Y-36289D01*
X70239Y-36381D01*
X70309Y-36451D01*
X70400Y-36489D01*
X70499Y-36489D01*
X70694Y-36489D01*
X70700Y-36490D01*
X70705Y-36489D01*
X70999Y-36489D01*
X71091Y-36451D01*
X71161Y-36381D01*
X71199Y-36290D01*
X71199Y-36191D01*
X71199Y-36118D01*
X71200Y-36119D01*
X71299Y-36119D01*
X71388Y-36120D01*
X71450Y-36058D01*
X71450Y-35850D01*
X71450Y-35800D01*
X71450Y-35700D01*
X71450Y-35650D01*
X71450Y-35442D01*
X71388Y-35380D01*
X71299Y-35381D01*
X71200Y-35381D01*
X71199Y-35381D01*
X71199Y-35211D01*
X71161Y-35119D01*
X71091Y-35049D01*
X71000Y-35011D01*
X70901Y-35011D01*
X70600Y-35011D01*
X70759Y-34851D01*
X70761Y-34850D01*
X70762Y-34850D01*
X70842Y-34730D01*
X70864Y-34614D01*
X70914Y-34614D01*
X71006Y-34576D01*
X71076Y-34506D01*
X71089Y-34474D01*
X71128Y-34513D01*
X71163Y-34477D01*
X71180Y-34525D01*
X71405Y-34607D01*
X71644Y-34597D01*
X71820Y-34525D01*
X71854Y-34424D01*
X71854Y-35403D01*
X71800Y-35381D01*
X71701Y-35381D01*
X71612Y-35380D01*
X71550Y-35442D01*
X71550Y-35700D01*
X71938Y-35700D01*
X72000Y-35638D01*
X72000Y-35862D01*
X71938Y-35800D01*
X71550Y-35800D01*
X71550Y-36058D01*
X71612Y-36120D01*
X71701Y-36119D01*
X71800Y-36119D01*
X71891Y-36081D01*
X71961Y-36011D01*
X71999Y-35919D01*
X72000Y-35862D01*
X72000Y-36864D01*
X71450Y-36864D01*
X70013Y-36864D01*
X70017Y-36855D01*
X70017Y-36686D01*
X69953Y-36530D01*
X69833Y-36410D01*
X69677Y-36345D01*
X69508Y-36345D01*
X69352Y-36409D01*
X69281Y-36480D01*
X68107Y-36480D01*
X68107Y-34095D01*
X68097Y-33856D01*
X68025Y-33680D01*
X67924Y-33646D01*
X67854Y-33716D01*
X67571Y-34000D01*
X67924Y-34354D01*
X68025Y-34320D01*
X68107Y-34095D01*
X68107Y-36480D01*
X68000Y-36480D01*
X68000Y-35862D01*
X68000Y-35638D01*
X67999Y-35581D01*
X67961Y-35489D01*
X67891Y-35419D01*
X67854Y-35403D01*
X67800Y-35381D01*
X67701Y-35381D01*
X67612Y-35380D01*
X67550Y-35442D01*
X67550Y-35700D01*
X67938Y-35700D01*
X68000Y-35638D01*
X68000Y-35862D01*
X67938Y-35800D01*
X67550Y-35800D01*
X67550Y-36058D01*
X67612Y-36120D01*
X67701Y-36119D01*
X67800Y-36119D01*
X67891Y-36081D01*
X67961Y-36011D01*
X67999Y-35919D01*
X68000Y-35862D01*
X68000Y-36480D01*
X67237Y-36480D01*
X67126Y-36502D01*
X67092Y-36524D01*
X67040Y-36472D01*
X67091Y-36451D01*
X67161Y-36381D01*
X67199Y-36290D01*
X67199Y-36191D01*
X67199Y-36118D01*
X67200Y-36119D01*
X67299Y-36119D01*
X67388Y-36120D01*
X67450Y-36058D01*
X67450Y-35850D01*
X67450Y-35800D01*
X67450Y-35700D01*
X67450Y-35650D01*
X67450Y-35442D01*
X67388Y-35380D01*
X67299Y-35381D01*
X67200Y-35381D01*
X67199Y-35381D01*
X67199Y-35211D01*
X67161Y-35119D01*
X67091Y-35049D01*
X67000Y-35011D01*
X66901Y-35011D01*
X66600Y-35011D01*
X66759Y-34851D01*
X66761Y-34850D01*
X66762Y-34850D01*
X66842Y-34730D01*
X66864Y-34614D01*
X66914Y-34614D01*
X67006Y-34576D01*
X67076Y-34506D01*
X67089Y-34474D01*
X67128Y-34513D01*
X67163Y-34477D01*
X67180Y-34525D01*
X67405Y-34607D01*
X67644Y-34597D01*
X67820Y-34525D01*
X67854Y-34424D01*
X67535Y-34106D01*
X67500Y-34071D01*
X67429Y-34000D01*
X67500Y-33929D01*
X67535Y-33894D01*
X67854Y-33576D01*
X67820Y-33475D01*
X67595Y-33393D01*
X67356Y-33403D01*
X67180Y-33475D01*
X67163Y-33522D01*
X67128Y-33487D01*
X67089Y-33525D01*
X67076Y-33494D01*
X67006Y-33424D01*
X66915Y-33386D01*
X66816Y-33386D01*
X66086Y-33386D01*
X65994Y-33424D01*
X65924Y-33494D01*
X65886Y-33585D01*
X65886Y-33684D01*
X65886Y-34414D01*
X65924Y-34506D01*
X65991Y-34573D01*
X65964Y-34600D01*
X65884Y-34720D01*
X65879Y-34744D01*
X65855Y-34862D01*
X65856Y-34866D01*
X65856Y-35641D01*
X65855Y-35646D01*
X65879Y-35763D01*
X65884Y-35788D01*
X65964Y-35908D01*
X66093Y-36036D01*
X66095Y-36039D01*
X66201Y-36109D01*
X66201Y-36289D01*
X66239Y-36381D01*
X66309Y-36451D01*
X66400Y-36489D01*
X66417Y-36489D01*
X66377Y-36529D01*
X66312Y-36685D01*
X66312Y-36785D01*
X65045Y-38052D01*
X65000Y-38119D01*
X64955Y-38052D01*
X64107Y-37204D01*
X64107Y-34095D01*
X64097Y-33856D01*
X64025Y-33680D01*
X63924Y-33646D01*
X63854Y-33716D01*
X63571Y-34000D01*
X63924Y-34354D01*
X64025Y-34320D01*
X64107Y-34095D01*
X64107Y-37204D01*
X63932Y-37029D01*
X63953Y-37008D01*
X64018Y-36852D01*
X64018Y-36683D01*
X64000Y-36639D01*
X64000Y-35862D01*
X64000Y-35638D01*
X63999Y-35581D01*
X63961Y-35489D01*
X63891Y-35419D01*
X63854Y-35403D01*
X63800Y-35381D01*
X63701Y-35381D01*
X63612Y-35380D01*
X63550Y-35442D01*
X63550Y-35700D01*
X63938Y-35700D01*
X64000Y-35638D01*
X64000Y-35862D01*
X63938Y-35800D01*
X63550Y-35800D01*
X63550Y-36058D01*
X63612Y-36120D01*
X63701Y-36119D01*
X63800Y-36119D01*
X63891Y-36081D01*
X63961Y-36011D01*
X63999Y-35919D01*
X64000Y-35862D01*
X64000Y-36639D01*
X63954Y-36527D01*
X63834Y-36407D01*
X63678Y-36342D01*
X63509Y-36342D01*
X63353Y-36406D01*
X63281Y-36477D01*
X63183Y-36437D01*
X63105Y-36437D01*
X63161Y-36381D01*
X63199Y-36290D01*
X63199Y-36191D01*
X63199Y-36118D01*
X63200Y-36119D01*
X63299Y-36119D01*
X63388Y-36120D01*
X63450Y-36058D01*
X63450Y-35850D01*
X63450Y-35800D01*
X63450Y-35700D01*
X63450Y-35650D01*
X63450Y-35442D01*
X63388Y-35380D01*
X63299Y-35381D01*
X63200Y-35381D01*
X63199Y-35381D01*
X63199Y-35211D01*
X63161Y-35119D01*
X63091Y-35049D01*
X63000Y-35011D01*
X62901Y-35011D01*
X62600Y-35011D01*
X62759Y-34851D01*
X62761Y-34850D01*
X62762Y-34850D01*
X62842Y-34730D01*
X62864Y-34614D01*
X62914Y-34614D01*
X63006Y-34576D01*
X63076Y-34506D01*
X63089Y-34474D01*
X63128Y-34513D01*
X63163Y-34477D01*
X63180Y-34525D01*
X63405Y-34607D01*
X63644Y-34597D01*
X63820Y-34525D01*
X63854Y-34424D01*
X63535Y-34106D01*
X63500Y-34071D01*
X63429Y-34000D01*
X63500Y-33929D01*
X63535Y-33894D01*
X63854Y-33576D01*
X63820Y-33475D01*
X63595Y-33393D01*
X63356Y-33403D01*
X63180Y-33475D01*
X63163Y-33522D01*
X63128Y-33487D01*
X63089Y-33525D01*
X63076Y-33494D01*
X63006Y-33424D01*
X62915Y-33386D01*
X62816Y-33386D01*
X62086Y-33386D01*
X61994Y-33424D01*
X61924Y-33494D01*
X61886Y-33585D01*
X61886Y-33684D01*
X61886Y-34414D01*
X61924Y-34506D01*
X61991Y-34573D01*
X61926Y-34638D01*
X61846Y-34758D01*
X61841Y-34782D01*
X61817Y-34900D01*
X61818Y-34904D01*
X61818Y-35603D01*
X61817Y-35608D01*
X61841Y-35725D01*
X61846Y-35750D01*
X61926Y-35870D01*
X62095Y-36039D01*
X62201Y-36109D01*
X62201Y-36289D01*
X62239Y-36381D01*
X62248Y-36390D01*
X61980Y-36659D01*
X61900Y-36779D01*
X61895Y-36803D01*
X61871Y-36921D01*
X61872Y-36925D01*
X61872Y-38676D01*
X61871Y-38681D01*
X61895Y-38798D01*
X61900Y-38823D01*
X61980Y-38943D01*
X63186Y-40148D01*
X63188Y-40151D01*
X63308Y-40231D01*
X63450Y-40259D01*
X68877Y-40259D01*
X68834Y-40288D01*
X67124Y-41997D01*
X67125Y-41812D01*
X67125Y-41588D01*
X67124Y-41349D01*
X67124Y-41250D01*
X67086Y-41159D01*
X67016Y-41089D01*
X66924Y-41051D01*
X66862Y-41050D01*
X66800Y-41112D01*
X66800Y-41650D01*
X67063Y-41650D01*
X67125Y-41588D01*
X67125Y-41812D01*
X67063Y-41750D01*
X66800Y-41750D01*
X66800Y-42288D01*
X66817Y-42305D01*
X66700Y-42422D01*
X66700Y-42288D01*
X66700Y-41750D01*
X66700Y-41650D01*
X66700Y-41112D01*
X66638Y-41050D01*
X66576Y-41051D01*
X66500Y-41082D01*
X66424Y-41051D01*
X66362Y-41050D01*
X66300Y-41112D01*
X66300Y-41650D01*
X66437Y-41650D01*
X66563Y-41650D01*
X66700Y-41650D01*
X66700Y-41750D01*
X66563Y-41750D01*
X66437Y-41750D01*
X66300Y-41750D01*
X66300Y-42288D01*
X66362Y-42350D01*
X66424Y-42349D01*
X66500Y-42317D01*
X66576Y-42349D01*
X66638Y-42350D01*
X66700Y-42288D01*
X66700Y-42422D01*
X66200Y-42922D01*
X66200Y-42288D01*
X66200Y-41750D01*
X66200Y-41650D01*
X66200Y-41112D01*
X66138Y-41050D01*
X66076Y-41051D01*
X66000Y-41082D01*
X65924Y-41051D01*
X65862Y-41050D01*
X65800Y-41112D01*
X65800Y-41650D01*
X65937Y-41650D01*
X66063Y-41650D01*
X66200Y-41650D01*
X66200Y-41750D01*
X66063Y-41750D01*
X65937Y-41750D01*
X65800Y-41750D01*
X65800Y-42288D01*
X65862Y-42350D01*
X65924Y-42349D01*
X66000Y-42317D01*
X66076Y-42349D01*
X66138Y-42350D01*
X66200Y-42288D01*
X66200Y-42922D01*
X65700Y-43422D01*
X65700Y-42288D01*
X65700Y-41750D01*
X65700Y-41650D01*
X65700Y-41112D01*
X65638Y-41050D01*
X65576Y-41051D01*
X65500Y-41082D01*
X65424Y-41051D01*
X65362Y-41050D01*
X65300Y-41112D01*
X65300Y-41650D01*
X65437Y-41650D01*
X65563Y-41650D01*
X65700Y-41650D01*
X65700Y-41750D01*
X65563Y-41750D01*
X65437Y-41750D01*
X65300Y-41750D01*
X65300Y-42288D01*
X65362Y-42350D01*
X65424Y-42349D01*
X65500Y-42317D01*
X65576Y-42349D01*
X65638Y-42350D01*
X65700Y-42288D01*
X65700Y-43422D01*
X65200Y-43922D01*
X65200Y-42288D01*
X65200Y-41750D01*
X65200Y-41650D01*
X65200Y-41112D01*
X65138Y-41050D01*
X65076Y-41051D01*
X65000Y-41082D01*
X64924Y-41051D01*
X64862Y-41050D01*
X64800Y-41112D01*
X64800Y-41650D01*
X64937Y-41650D01*
X65063Y-41650D01*
X65200Y-41650D01*
X65200Y-41750D01*
X65063Y-41750D01*
X64937Y-41750D01*
X64800Y-41750D01*
X64800Y-42288D01*
X64862Y-42350D01*
X64924Y-42349D01*
X65000Y-42317D01*
X65076Y-42349D01*
X65138Y-42350D01*
X65200Y-42288D01*
X65200Y-43922D01*
X65172Y-43950D01*
X64700Y-43950D01*
X64700Y-42288D01*
X64700Y-41750D01*
X64700Y-41650D01*
X64700Y-41112D01*
X64638Y-41050D01*
X64576Y-41051D01*
X64500Y-41082D01*
X64424Y-41051D01*
X64362Y-41050D01*
X64300Y-41112D01*
X64300Y-41650D01*
X64437Y-41650D01*
X64563Y-41650D01*
X64700Y-41650D01*
X64700Y-41750D01*
X64563Y-41750D01*
X64437Y-41750D01*
X64300Y-41750D01*
X64300Y-42288D01*
X64362Y-42350D01*
X64424Y-42349D01*
X64500Y-42317D01*
X64576Y-42349D01*
X64638Y-42350D01*
X64700Y-42288D01*
X64700Y-43950D01*
X64200Y-43950D01*
X64200Y-42288D01*
X64200Y-41750D01*
X64200Y-41650D01*
X64200Y-41112D01*
X64138Y-41050D01*
X64076Y-41051D01*
X64000Y-41082D01*
X63924Y-41051D01*
X63862Y-41050D01*
X63800Y-41112D01*
X63800Y-41650D01*
X63937Y-41650D01*
X64063Y-41650D01*
X64200Y-41650D01*
X64200Y-41750D01*
X64063Y-41750D01*
X63937Y-41750D01*
X63800Y-41750D01*
X63800Y-42288D01*
X63862Y-42350D01*
X63924Y-42349D01*
X64000Y-42317D01*
X64076Y-42349D01*
X64138Y-42350D01*
X64200Y-42288D01*
X64200Y-43950D01*
X63850Y-43950D01*
X63850Y-43170D01*
X63850Y-42832D01*
X63721Y-42520D01*
X63533Y-42331D01*
X63576Y-42349D01*
X63638Y-42350D01*
X63700Y-42288D01*
X63700Y-41750D01*
X63700Y-41650D01*
X63700Y-41112D01*
X63638Y-41050D01*
X63576Y-41051D01*
X63500Y-41082D01*
X63424Y-41051D01*
X63362Y-41050D01*
X63300Y-41112D01*
X63300Y-41650D01*
X63437Y-41650D01*
X63563Y-41650D01*
X63700Y-41650D01*
X63700Y-41750D01*
X63563Y-41750D01*
X63437Y-41750D01*
X63350Y-41750D01*
X63300Y-41750D01*
X63200Y-41750D01*
X63200Y-41650D01*
X63200Y-41112D01*
X63138Y-41050D01*
X63076Y-41051D01*
X62984Y-41089D01*
X62914Y-41159D01*
X62876Y-41250D01*
X62876Y-41349D01*
X62875Y-41588D01*
X62937Y-41650D01*
X63200Y-41650D01*
X63200Y-41750D01*
X63150Y-41750D01*
X62937Y-41750D01*
X62875Y-41812D01*
X62876Y-42051D01*
X62876Y-42150D01*
X62832Y-42150D01*
X62520Y-42279D01*
X62280Y-42518D01*
X62150Y-42830D01*
X62150Y-43168D01*
X62279Y-43480D01*
X62518Y-43720D01*
X62830Y-43850D01*
X63168Y-43850D01*
X63480Y-43721D01*
X63720Y-43482D01*
X63850Y-43170D01*
X63850Y-43950D01*
X61330Y-43950D01*
X61330Y-42483D01*
X61487Y-42326D01*
X61575Y-42115D01*
X61575Y-41886D01*
X61488Y-41675D01*
X61383Y-41570D01*
X61466Y-41536D01*
X61536Y-41466D01*
X61574Y-41375D01*
X61574Y-41276D01*
X61574Y-40626D01*
X61536Y-40534D01*
X61466Y-40464D01*
X61375Y-40426D01*
X61276Y-40426D01*
X60626Y-40426D01*
X60534Y-40464D01*
X60464Y-40534D01*
X60426Y-40625D01*
X60426Y-40724D01*
X60426Y-41374D01*
X60432Y-41390D01*
X60107Y-41716D01*
X60107Y-34095D01*
X60097Y-33856D01*
X60025Y-33680D01*
X59924Y-33646D01*
X59854Y-33716D01*
X59571Y-34000D01*
X59924Y-34354D01*
X60025Y-34320D01*
X60107Y-34095D01*
X60107Y-41716D01*
X60000Y-41823D01*
X60000Y-35862D01*
X60000Y-35638D01*
X59999Y-35581D01*
X59961Y-35489D01*
X59891Y-35419D01*
X59854Y-35403D01*
X59800Y-35381D01*
X59701Y-35381D01*
X59612Y-35380D01*
X59550Y-35442D01*
X59550Y-35700D01*
X59938Y-35700D01*
X60000Y-35638D01*
X60000Y-35862D01*
X59938Y-35800D01*
X59550Y-35800D01*
X59550Y-36058D01*
X59612Y-36120D01*
X59701Y-36119D01*
X59800Y-36119D01*
X59891Y-36081D01*
X59961Y-36011D01*
X59999Y-35919D01*
X60000Y-35862D01*
X60000Y-41823D01*
X59789Y-42035D01*
X59726Y-42129D01*
X59704Y-42240D01*
X59704Y-42502D01*
X59482Y-42280D01*
X59170Y-42150D01*
X58832Y-42150D01*
X58520Y-42279D01*
X58280Y-42518D01*
X58197Y-42717D01*
X58197Y-39281D01*
X58279Y-39480D01*
X58518Y-39720D01*
X58830Y-39850D01*
X59168Y-39850D01*
X59480Y-39721D01*
X59720Y-39482D01*
X59850Y-39170D01*
X59850Y-38832D01*
X59721Y-38520D01*
X59482Y-38280D01*
X59170Y-38150D01*
X58832Y-38150D01*
X58520Y-38279D01*
X58280Y-38518D01*
X58197Y-38717D01*
X58197Y-36107D01*
X58201Y-36109D01*
X58201Y-36289D01*
X58239Y-36381D01*
X58309Y-36451D01*
X58400Y-36489D01*
X58499Y-36489D01*
X58694Y-36489D01*
X58700Y-36490D01*
X58705Y-36489D01*
X58999Y-36489D01*
X59091Y-36451D01*
X59161Y-36381D01*
X59199Y-36290D01*
X59199Y-36191D01*
X59199Y-36118D01*
X59200Y-36119D01*
X59299Y-36119D01*
X59388Y-36120D01*
X59450Y-36058D01*
X59450Y-35850D01*
X59450Y-35800D01*
X59450Y-35700D01*
X59450Y-35650D01*
X59450Y-35442D01*
X59388Y-35380D01*
X59299Y-35381D01*
X59200Y-35381D01*
X59199Y-35381D01*
X59199Y-35211D01*
X59161Y-35119D01*
X59091Y-35049D01*
X59000Y-35011D01*
X58901Y-35011D01*
X58600Y-35011D01*
X58759Y-34851D01*
X58761Y-34850D01*
X58762Y-34850D01*
X58842Y-34730D01*
X58864Y-34614D01*
X58914Y-34614D01*
X59006Y-34576D01*
X59076Y-34506D01*
X59089Y-34474D01*
X59128Y-34513D01*
X59163Y-34477D01*
X59180Y-34525D01*
X59405Y-34607D01*
X59644Y-34597D01*
X59820Y-34525D01*
X59854Y-34424D01*
X59535Y-34106D01*
X59500Y-34071D01*
X59429Y-34000D01*
X59500Y-33929D01*
X59535Y-33894D01*
X59854Y-33576D01*
X59820Y-33475D01*
X59595Y-33393D01*
X59356Y-33403D01*
X59180Y-33475D01*
X59163Y-33522D01*
X59128Y-33487D01*
X59089Y-33525D01*
X59076Y-33494D01*
X59006Y-33424D01*
X58915Y-33386D01*
X58816Y-33386D01*
X58585Y-33386D01*
X58654Y-33317D01*
X76116Y-33317D01*
X76227Y-33295D01*
X76321Y-33232D01*
X77205Y-32348D01*
X77268Y-32254D01*
X77282Y-32181D01*
X77306Y-32172D01*
X77457Y-32020D01*
X77499Y-31917D01*
X77542Y-32020D01*
X77694Y-32171D01*
X77892Y-32254D01*
X78107Y-32254D01*
X78306Y-32172D01*
X78457Y-32020D01*
X78499Y-31917D01*
X78542Y-32020D01*
X78694Y-32171D01*
X78892Y-32254D01*
X79107Y-32254D01*
X79306Y-32172D01*
X79457Y-32020D01*
X79532Y-31840D01*
X79631Y-32080D01*
X79919Y-32368D01*
X80295Y-32525D01*
X80703Y-32525D01*
X81080Y-32369D01*
X81368Y-32081D01*
X81507Y-31745D01*
X81535Y-31811D01*
X81689Y-31965D01*
X81773Y-32000D01*
G54D10*
G36*
X89205Y-51205D02*
X86793Y-51205D01*
X86793Y-47329D01*
X86782Y-47116D01*
X86722Y-46969D01*
X86628Y-46942D01*
X86321Y-47250D01*
X86628Y-47558D01*
X86722Y-47531D01*
X86793Y-47329D01*
X86793Y-51205D01*
X86558Y-51205D01*
X86558Y-47628D01*
X86250Y-47321D01*
X86179Y-47391D01*
X86179Y-47250D01*
X85872Y-46942D01*
X85778Y-46969D01*
X85707Y-47171D01*
X85718Y-47384D01*
X85778Y-47531D01*
X85872Y-47558D01*
X86179Y-47250D01*
X86179Y-47391D01*
X85942Y-47628D01*
X85969Y-47722D01*
X86171Y-47793D01*
X86384Y-47782D01*
X86531Y-47722D01*
X86558Y-47628D01*
X86558Y-51205D01*
X83744Y-51205D01*
X83868Y-51081D01*
X84025Y-50705D01*
X84025Y-50297D01*
X83869Y-49920D01*
X83581Y-49632D01*
X83205Y-49475D01*
X82797Y-49475D01*
X82420Y-49631D01*
X82132Y-49919D01*
X81975Y-50295D01*
X81975Y-50703D01*
X82131Y-51080D01*
X82256Y-51205D01*
X81225Y-51205D01*
X81306Y-51172D01*
X81457Y-51020D01*
X81540Y-50822D01*
X81540Y-50607D01*
X81540Y-50179D01*
X81458Y-49980D01*
X81306Y-49829D01*
X81108Y-49746D01*
X80893Y-49746D01*
X80694Y-49828D01*
X80543Y-49980D01*
X80500Y-50082D01*
X80458Y-49980D01*
X80306Y-49829D01*
X80108Y-49746D01*
X79893Y-49746D01*
X79694Y-49828D01*
X79550Y-49972D01*
X79550Y-45930D01*
X79967Y-45930D01*
X80001Y-45930D01*
X80001Y-45974D01*
X80001Y-46124D01*
X80039Y-46216D01*
X80109Y-46286D01*
X80200Y-46324D01*
X80299Y-46324D01*
X80799Y-46324D01*
X80804Y-46321D01*
X81188Y-46705D01*
X81282Y-46768D01*
X81393Y-46790D01*
X81526Y-46790D01*
X81535Y-46811D01*
X81689Y-46965D01*
X81773Y-47000D01*
X81689Y-47035D01*
X81535Y-47189D01*
X81451Y-47391D01*
X81451Y-47609D01*
X81535Y-47811D01*
X81689Y-47965D01*
X81773Y-48000D01*
X81689Y-48035D01*
X81535Y-48189D01*
X81451Y-48391D01*
X81451Y-48609D01*
X81535Y-48811D01*
X81689Y-48965D01*
X81891Y-49049D01*
X82109Y-49049D01*
X82311Y-48965D01*
X82465Y-48811D01*
X82500Y-48726D01*
X82535Y-48811D01*
X82689Y-48965D01*
X82891Y-49049D01*
X83109Y-49049D01*
X83311Y-48965D01*
X83465Y-48811D01*
X83549Y-48609D01*
X83549Y-48391D01*
X83465Y-48189D01*
X83311Y-48035D01*
X83226Y-48000D01*
X83311Y-47965D01*
X83465Y-47811D01*
X83549Y-47609D01*
X83549Y-47391D01*
X83465Y-47189D01*
X83311Y-47035D01*
X83226Y-47000D01*
X83311Y-46965D01*
X83465Y-46811D01*
X83549Y-46609D01*
X83549Y-46391D01*
X83521Y-46324D01*
X83565Y-46316D01*
X83566Y-46316D01*
X83672Y-46244D01*
X83933Y-45983D01*
X84005Y-45877D01*
X84005Y-45876D01*
X84008Y-45855D01*
X84029Y-45750D01*
X84030Y-45750D01*
X84030Y-41762D01*
X84095Y-41827D01*
X84144Y-41777D01*
X84204Y-41877D01*
X84584Y-42030D01*
X84994Y-42027D01*
X85356Y-41877D01*
X85442Y-41733D01*
X84815Y-41106D01*
X84780Y-41071D01*
X84709Y-41000D01*
X84780Y-40929D01*
X84815Y-40894D01*
X85442Y-40267D01*
X85400Y-40196D01*
X85400Y-35362D01*
X85400Y-35138D01*
X85400Y-33612D01*
X85400Y-33388D01*
X85399Y-33049D01*
X85399Y-32950D01*
X85361Y-32859D01*
X85291Y-32789D01*
X85199Y-32751D01*
X85012Y-32750D01*
X84950Y-32812D01*
X84950Y-33450D01*
X85338Y-33450D01*
X85400Y-33388D01*
X85400Y-33612D01*
X85338Y-33550D01*
X84950Y-33550D01*
X84950Y-34188D01*
X85012Y-34250D01*
X85199Y-34249D01*
X85291Y-34211D01*
X85361Y-34141D01*
X85399Y-34050D01*
X85399Y-33951D01*
X85400Y-33612D01*
X85400Y-35138D01*
X85399Y-34799D01*
X85399Y-34700D01*
X85361Y-34609D01*
X85291Y-34539D01*
X85199Y-34501D01*
X85012Y-34500D01*
X84950Y-34562D01*
X84950Y-35200D01*
X85338Y-35200D01*
X85400Y-35138D01*
X85400Y-35362D01*
X85338Y-35300D01*
X84950Y-35300D01*
X84950Y-35938D01*
X85012Y-36000D01*
X85199Y-35999D01*
X85291Y-35961D01*
X85361Y-35891D01*
X85399Y-35800D01*
X85399Y-35701D01*
X85400Y-35362D01*
X85400Y-40196D01*
X85356Y-40123D01*
X84976Y-39970D01*
X84850Y-39970D01*
X84850Y-35938D01*
X84850Y-35300D01*
X84850Y-35200D01*
X84850Y-34562D01*
X84850Y-34188D01*
X84850Y-33550D01*
X84850Y-33450D01*
X84850Y-32812D01*
X84850Y-32438D01*
X84850Y-31800D01*
X84462Y-31800D01*
X84400Y-31862D01*
X84401Y-32201D01*
X84401Y-32300D01*
X84439Y-32391D01*
X84509Y-32461D01*
X84601Y-32499D01*
X84788Y-32500D01*
X84850Y-32438D01*
X84850Y-32812D01*
X84788Y-32750D01*
X84601Y-32751D01*
X84509Y-32789D01*
X84439Y-32859D01*
X84401Y-32950D01*
X84401Y-33049D01*
X84400Y-33388D01*
X84462Y-33450D01*
X84850Y-33450D01*
X84850Y-33550D01*
X84462Y-33550D01*
X84400Y-33612D01*
X84401Y-33951D01*
X84401Y-34050D01*
X84439Y-34141D01*
X84509Y-34211D01*
X84601Y-34249D01*
X84788Y-34250D01*
X84850Y-34188D01*
X84850Y-34562D01*
X84788Y-34500D01*
X84601Y-34501D01*
X84509Y-34539D01*
X84439Y-34609D01*
X84401Y-34700D01*
X84401Y-34799D01*
X84400Y-35138D01*
X84462Y-35200D01*
X84850Y-35200D01*
X84850Y-35300D01*
X84462Y-35300D01*
X84400Y-35362D01*
X84401Y-35701D01*
X84401Y-35800D01*
X84439Y-35891D01*
X84509Y-35961D01*
X84601Y-35999D01*
X84788Y-36000D01*
X84850Y-35938D01*
X84850Y-39970D01*
X84566Y-39973D01*
X84204Y-40123D01*
X84144Y-40222D01*
X84095Y-40173D01*
X84030Y-40238D01*
X84030Y-31630D01*
X84264Y-31396D01*
X84400Y-31396D01*
X84400Y-31638D01*
X84462Y-31700D01*
X84800Y-31700D01*
X84850Y-31700D01*
X84950Y-31700D01*
X84950Y-31800D01*
X84950Y-31850D01*
X84950Y-32438D01*
X85012Y-32500D01*
X85199Y-32499D01*
X85291Y-32461D01*
X85361Y-32391D01*
X85399Y-32300D01*
X85399Y-32201D01*
X85399Y-31932D01*
X85434Y-31983D01*
X85541Y-32055D01*
X85601Y-32066D01*
X85601Y-32299D01*
X85639Y-32391D01*
X85709Y-32461D01*
X85770Y-32486D01*
X85770Y-32763D01*
X85709Y-32789D01*
X85639Y-32859D01*
X85601Y-32950D01*
X85601Y-33049D01*
X85601Y-34049D01*
X85639Y-34141D01*
X85709Y-34211D01*
X85770Y-34236D01*
X85770Y-34513D01*
X85709Y-34539D01*
X85639Y-34609D01*
X85601Y-34700D01*
X85601Y-34799D01*
X85601Y-35799D01*
X85639Y-35891D01*
X85709Y-35961D01*
X85770Y-35986D01*
X85770Y-39960D01*
X85795Y-40087D01*
X85867Y-40193D01*
X86276Y-40602D01*
X86190Y-40810D01*
X86190Y-41188D01*
X86276Y-41397D01*
X85810Y-41863D01*
X85810Y-41196D01*
X85807Y-40786D01*
X85657Y-40424D01*
X85513Y-40338D01*
X85442Y-40409D01*
X84851Y-41000D01*
X85513Y-41662D01*
X85657Y-41576D01*
X85810Y-41196D01*
X85810Y-41863D01*
X85442Y-42231D01*
X85201Y-42473D01*
X85129Y-42579D01*
X85104Y-42706D01*
X85104Y-45434D01*
X85129Y-45561D01*
X85201Y-45667D01*
X85701Y-46167D01*
X85701Y-46359D01*
X85785Y-46561D01*
X85939Y-46715D01*
X86030Y-46752D01*
X85969Y-46778D01*
X85942Y-46872D01*
X86250Y-47179D01*
X86558Y-46872D01*
X86531Y-46778D01*
X86465Y-46754D01*
X86561Y-46715D01*
X86696Y-46580D01*
X86830Y-46580D01*
X86831Y-46580D01*
X86833Y-46583D01*
X86834Y-46583D01*
X86905Y-46630D01*
X86940Y-46654D01*
X86941Y-46655D01*
X87009Y-46668D01*
X87039Y-46741D01*
X87109Y-46811D01*
X87200Y-46849D01*
X87299Y-46849D01*
X88299Y-46849D01*
X88391Y-46811D01*
X88461Y-46741D01*
X88499Y-46650D01*
X88499Y-46551D01*
X88499Y-46051D01*
X88461Y-45959D01*
X88391Y-45889D01*
X88300Y-45851D01*
X88201Y-45851D01*
X87201Y-45851D01*
X87109Y-45889D01*
X87059Y-45938D01*
X86967Y-45920D01*
X86696Y-45920D01*
X86561Y-45785D01*
X86476Y-45750D01*
X86561Y-45715D01*
X86596Y-45680D01*
X86867Y-45680D01*
X87031Y-45647D01*
X87032Y-45647D01*
X87099Y-45601D01*
X87109Y-45611D01*
X87200Y-45649D01*
X87299Y-45649D01*
X88299Y-45649D01*
X88391Y-45611D01*
X88461Y-45541D01*
X88499Y-45450D01*
X88499Y-45351D01*
X88499Y-44851D01*
X88461Y-44759D01*
X88391Y-44689D01*
X88300Y-44651D01*
X88201Y-44651D01*
X87201Y-44651D01*
X87109Y-44689D01*
X87078Y-44720D01*
X86967Y-44720D01*
X86802Y-44753D01*
X86701Y-44820D01*
X86596Y-44820D01*
X86561Y-44785D01*
X86359Y-44701D01*
X86141Y-44701D01*
X85939Y-44785D01*
X85785Y-44939D01*
X85764Y-44989D01*
X85764Y-42842D01*
X86742Y-41863D01*
X86950Y-41950D01*
X87026Y-41950D01*
X86993Y-41964D01*
X86725Y-42231D01*
X86580Y-42580D01*
X86580Y-42958D01*
X86724Y-43307D01*
X86991Y-43575D01*
X87340Y-43720D01*
X87718Y-43720D01*
X88067Y-43576D01*
X88335Y-43309D01*
X88480Y-42960D01*
X88480Y-42582D01*
X88336Y-42233D01*
X88069Y-41965D01*
X87720Y-41820D01*
X87643Y-41820D01*
X87677Y-41806D01*
X87945Y-41539D01*
X87951Y-41522D01*
X87963Y-41534D01*
X88194Y-41630D01*
X88445Y-41630D01*
X88677Y-41534D01*
X88854Y-41357D01*
X88950Y-41126D01*
X88950Y-40875D01*
X88854Y-40643D01*
X88677Y-40466D01*
X88446Y-40370D01*
X88195Y-40370D01*
X87963Y-40466D01*
X87951Y-40477D01*
X87946Y-40463D01*
X87679Y-40195D01*
X87642Y-40180D01*
X87718Y-40180D01*
X88067Y-40036D01*
X88335Y-39769D01*
X88480Y-39420D01*
X88480Y-39042D01*
X88336Y-38693D01*
X88069Y-38425D01*
X87720Y-38280D01*
X87342Y-38280D01*
X86993Y-38424D01*
X86725Y-38691D01*
X86580Y-39040D01*
X86580Y-39418D01*
X86724Y-39767D01*
X86991Y-40035D01*
X87027Y-40050D01*
X86952Y-40050D01*
X86742Y-40136D01*
X86430Y-39823D01*
X86430Y-35986D01*
X86491Y-35961D01*
X86561Y-35891D01*
X86599Y-35800D01*
X86599Y-35701D01*
X86599Y-34701D01*
X86561Y-34609D01*
X86491Y-34539D01*
X86430Y-34513D01*
X86430Y-34236D01*
X86491Y-34211D01*
X86561Y-34141D01*
X86599Y-34050D01*
X86599Y-33951D01*
X86599Y-32951D01*
X86561Y-32859D01*
X86491Y-32789D01*
X86430Y-32763D01*
X86430Y-32486D01*
X86491Y-32461D01*
X86561Y-32391D01*
X86599Y-32300D01*
X86599Y-32201D01*
X86599Y-31201D01*
X86561Y-31109D01*
X86491Y-31039D01*
X86400Y-31001D01*
X86301Y-31001D01*
X85817Y-31001D01*
X85649Y-30833D01*
X85593Y-30795D01*
X89205Y-30795D01*
X89205Y-51205D01*
X89205Y-51205D01*
G37*
G54D35*
X89205Y-51205D02*
X86793Y-51205D01*
X86793Y-47329D01*
X86782Y-47116D01*
X86722Y-46969D01*
X86628Y-46942D01*
X86321Y-47250D01*
X86628Y-47558D01*
X86722Y-47531D01*
X86793Y-47329D01*
X86793Y-51205D01*
X86558Y-51205D01*
X86558Y-47628D01*
X86250Y-47321D01*
X86179Y-47391D01*
X86179Y-47250D01*
X85872Y-46942D01*
X85778Y-46969D01*
X85707Y-47171D01*
X85718Y-47384D01*
X85778Y-47531D01*
X85872Y-47558D01*
X86179Y-47250D01*
X86179Y-47391D01*
X85942Y-47628D01*
X85969Y-47722D01*
X86171Y-47793D01*
X86384Y-47782D01*
X86531Y-47722D01*
X86558Y-47628D01*
X86558Y-51205D01*
X83744Y-51205D01*
X83868Y-51081D01*
X84025Y-50705D01*
X84025Y-50297D01*
X83869Y-49920D01*
X83581Y-49632D01*
X83205Y-49475D01*
X82797Y-49475D01*
X82420Y-49631D01*
X82132Y-49919D01*
X81975Y-50295D01*
X81975Y-50703D01*
X82131Y-51080D01*
X82256Y-51205D01*
X81225Y-51205D01*
X81306Y-51172D01*
X81457Y-51020D01*
X81540Y-50822D01*
X81540Y-50607D01*
X81540Y-50179D01*
X81458Y-49980D01*
X81306Y-49829D01*
X81108Y-49746D01*
X80893Y-49746D01*
X80694Y-49828D01*
X80543Y-49980D01*
X80500Y-50082D01*
X80458Y-49980D01*
X80306Y-49829D01*
X80108Y-49746D01*
X79893Y-49746D01*
X79694Y-49828D01*
X79550Y-49972D01*
X79550Y-45930D01*
X79967Y-45930D01*
X80001Y-45930D01*
X80001Y-45974D01*
X80001Y-46124D01*
X80039Y-46216D01*
X80109Y-46286D01*
X80200Y-46324D01*
X80299Y-46324D01*
X80799Y-46324D01*
X80804Y-46321D01*
X81188Y-46705D01*
X81282Y-46768D01*
X81393Y-46790D01*
X81526Y-46790D01*
X81535Y-46811D01*
X81689Y-46965D01*
X81773Y-47000D01*
X81689Y-47035D01*
X81535Y-47189D01*
X81451Y-47391D01*
X81451Y-47609D01*
X81535Y-47811D01*
X81689Y-47965D01*
X81773Y-48000D01*
X81689Y-48035D01*
X81535Y-48189D01*
X81451Y-48391D01*
X81451Y-48609D01*
X81535Y-48811D01*
X81689Y-48965D01*
X81891Y-49049D01*
X82109Y-49049D01*
X82311Y-48965D01*
X82465Y-48811D01*
X82500Y-48726D01*
X82535Y-48811D01*
X82689Y-48965D01*
X82891Y-49049D01*
X83109Y-49049D01*
X83311Y-48965D01*
X83465Y-48811D01*
X83549Y-48609D01*
X83549Y-48391D01*
X83465Y-48189D01*
X83311Y-48035D01*
X83226Y-48000D01*
X83311Y-47965D01*
X83465Y-47811D01*
X83549Y-47609D01*
X83549Y-47391D01*
X83465Y-47189D01*
X83311Y-47035D01*
X83226Y-47000D01*
X83311Y-46965D01*
X83465Y-46811D01*
X83549Y-46609D01*
X83549Y-46391D01*
X83521Y-46324D01*
X83565Y-46316D01*
X83566Y-46316D01*
X83672Y-46244D01*
X83933Y-45983D01*
X84005Y-45877D01*
X84005Y-45876D01*
X84008Y-45855D01*
X84029Y-45750D01*
X84030Y-45750D01*
X84030Y-41762D01*
X84095Y-41827D01*
X84144Y-41777D01*
X84204Y-41877D01*
X84584Y-42030D01*
X84994Y-42027D01*
X85356Y-41877D01*
X85442Y-41733D01*
X84815Y-41106D01*
X84780Y-41071D01*
X84709Y-41000D01*
X84780Y-40929D01*
X84815Y-40894D01*
X85442Y-40267D01*
X85400Y-40196D01*
X85400Y-35362D01*
X85400Y-35138D01*
X85400Y-33612D01*
X85400Y-33388D01*
X85399Y-33049D01*
X85399Y-32950D01*
X85361Y-32859D01*
X85291Y-32789D01*
X85199Y-32751D01*
X85012Y-32750D01*
X84950Y-32812D01*
X84950Y-33450D01*
X85338Y-33450D01*
X85400Y-33388D01*
X85400Y-33612D01*
X85338Y-33550D01*
X84950Y-33550D01*
X84950Y-34188D01*
X85012Y-34250D01*
X85199Y-34249D01*
X85291Y-34211D01*
X85361Y-34141D01*
X85399Y-34050D01*
X85399Y-33951D01*
X85400Y-33612D01*
X85400Y-35138D01*
X85399Y-34799D01*
X85399Y-34700D01*
X85361Y-34609D01*
X85291Y-34539D01*
X85199Y-34501D01*
X85012Y-34500D01*
X84950Y-34562D01*
X84950Y-35200D01*
X85338Y-35200D01*
X85400Y-35138D01*
X85400Y-35362D01*
X85338Y-35300D01*
X84950Y-35300D01*
X84950Y-35938D01*
X85012Y-36000D01*
X85199Y-35999D01*
X85291Y-35961D01*
X85361Y-35891D01*
X85399Y-35800D01*
X85399Y-35701D01*
X85400Y-35362D01*
X85400Y-40196D01*
X85356Y-40123D01*
X84976Y-39970D01*
X84850Y-39970D01*
X84850Y-35938D01*
X84850Y-35300D01*
X84850Y-35200D01*
X84850Y-34562D01*
X84850Y-34188D01*
X84850Y-33550D01*
X84850Y-33450D01*
X84850Y-32812D01*
X84850Y-32438D01*
X84850Y-31800D01*
X84462Y-31800D01*
X84400Y-31862D01*
X84401Y-32201D01*
X84401Y-32300D01*
X84439Y-32391D01*
X84509Y-32461D01*
X84601Y-32499D01*
X84788Y-32500D01*
X84850Y-32438D01*
X84850Y-32812D01*
X84788Y-32750D01*
X84601Y-32751D01*
X84509Y-32789D01*
X84439Y-32859D01*
X84401Y-32950D01*
X84401Y-33049D01*
X84400Y-33388D01*
X84462Y-33450D01*
X84850Y-33450D01*
X84850Y-33550D01*
X84462Y-33550D01*
X84400Y-33612D01*
X84401Y-33951D01*
X84401Y-34050D01*
X84439Y-34141D01*
X84509Y-34211D01*
X84601Y-34249D01*
X84788Y-34250D01*
X84850Y-34188D01*
X84850Y-34562D01*
X84788Y-34500D01*
X84601Y-34501D01*
X84509Y-34539D01*
X84439Y-34609D01*
X84401Y-34700D01*
X84401Y-34799D01*
X84400Y-35138D01*
X84462Y-35200D01*
X84850Y-35200D01*
X84850Y-35300D01*
X84462Y-35300D01*
X84400Y-35362D01*
X84401Y-35701D01*
X84401Y-35800D01*
X84439Y-35891D01*
X84509Y-35961D01*
X84601Y-35999D01*
X84788Y-36000D01*
X84850Y-35938D01*
X84850Y-39970D01*
X84566Y-39973D01*
X84204Y-40123D01*
X84144Y-40222D01*
X84095Y-40173D01*
X84030Y-40238D01*
X84030Y-31630D01*
X84264Y-31396D01*
X84400Y-31396D01*
X84400Y-31638D01*
X84462Y-31700D01*
X84800Y-31700D01*
X84850Y-31700D01*
X84950Y-31700D01*
X84950Y-31800D01*
X84950Y-31850D01*
X84950Y-32438D01*
X85012Y-32500D01*
X85199Y-32499D01*
X85291Y-32461D01*
X85361Y-32391D01*
X85399Y-32300D01*
X85399Y-32201D01*
X85399Y-31932D01*
X85434Y-31983D01*
X85541Y-32055D01*
X85601Y-32066D01*
X85601Y-32299D01*
X85639Y-32391D01*
X85709Y-32461D01*
X85770Y-32486D01*
X85770Y-32763D01*
X85709Y-32789D01*
X85639Y-32859D01*
X85601Y-32950D01*
X85601Y-33049D01*
X85601Y-34049D01*
X85639Y-34141D01*
X85709Y-34211D01*
X85770Y-34236D01*
X85770Y-34513D01*
X85709Y-34539D01*
X85639Y-34609D01*
X85601Y-34700D01*
X85601Y-34799D01*
X85601Y-35799D01*
X85639Y-35891D01*
X85709Y-35961D01*
X85770Y-35986D01*
X85770Y-39960D01*
X85795Y-40087D01*
X85867Y-40193D01*
X86276Y-40602D01*
X86190Y-40810D01*
X86190Y-41188D01*
X86276Y-41397D01*
X85810Y-41863D01*
X85810Y-41196D01*
X85807Y-40786D01*
X85657Y-40424D01*
X85513Y-40338D01*
X85442Y-40409D01*
X84851Y-41000D01*
X85513Y-41662D01*
X85657Y-41576D01*
X85810Y-41196D01*
X85810Y-41863D01*
X85442Y-42231D01*
X85201Y-42473D01*
X85129Y-42579D01*
X85104Y-42706D01*
X85104Y-45434D01*
X85129Y-45561D01*
X85201Y-45667D01*
X85701Y-46167D01*
X85701Y-46359D01*
X85785Y-46561D01*
X85939Y-46715D01*
X86030Y-46752D01*
X85969Y-46778D01*
X85942Y-46872D01*
X86250Y-47179D01*
X86558Y-46872D01*
X86531Y-46778D01*
X86465Y-46754D01*
X86561Y-46715D01*
X86696Y-46580D01*
X86830Y-46580D01*
X86831Y-46580D01*
X86833Y-46583D01*
X86834Y-46583D01*
X86905Y-46630D01*
X86940Y-46654D01*
X86941Y-46655D01*
X87009Y-46668D01*
X87039Y-46741D01*
X87109Y-46811D01*
X87200Y-46849D01*
X87299Y-46849D01*
X88299Y-46849D01*
X88391Y-46811D01*
X88461Y-46741D01*
X88499Y-46650D01*
X88499Y-46551D01*
X88499Y-46051D01*
X88461Y-45959D01*
X88391Y-45889D01*
X88300Y-45851D01*
X88201Y-45851D01*
X87201Y-45851D01*
X87109Y-45889D01*
X87059Y-45938D01*
X86967Y-45920D01*
X86696Y-45920D01*
X86561Y-45785D01*
X86476Y-45750D01*
X86561Y-45715D01*
X86596Y-45680D01*
X86867Y-45680D01*
X87031Y-45647D01*
X87032Y-45647D01*
X87099Y-45601D01*
X87109Y-45611D01*
X87200Y-45649D01*
X87299Y-45649D01*
X88299Y-45649D01*
X88391Y-45611D01*
X88461Y-45541D01*
X88499Y-45450D01*
X88499Y-45351D01*
X88499Y-44851D01*
X88461Y-44759D01*
X88391Y-44689D01*
X88300Y-44651D01*
X88201Y-44651D01*
X87201Y-44651D01*
X87109Y-44689D01*
X87078Y-44720D01*
X86967Y-44720D01*
X86802Y-44753D01*
X86701Y-44820D01*
X86596Y-44820D01*
X86561Y-44785D01*
X86359Y-44701D01*
X86141Y-44701D01*
X85939Y-44785D01*
X85785Y-44939D01*
X85764Y-44989D01*
X85764Y-42842D01*
X86742Y-41863D01*
X86950Y-41950D01*
X87026Y-41950D01*
X86993Y-41964D01*
X86725Y-42231D01*
X86580Y-42580D01*
X86580Y-42958D01*
X86724Y-43307D01*
X86991Y-43575D01*
X87340Y-43720D01*
X87718Y-43720D01*
X88067Y-43576D01*
X88335Y-43309D01*
X88480Y-42960D01*
X88480Y-42582D01*
X88336Y-42233D01*
X88069Y-41965D01*
X87720Y-41820D01*
X87643Y-41820D01*
X87677Y-41806D01*
X87945Y-41539D01*
X87951Y-41522D01*
X87963Y-41534D01*
X88194Y-41630D01*
X88445Y-41630D01*
X88677Y-41534D01*
X88854Y-41357D01*
X88950Y-41126D01*
X88950Y-40875D01*
X88854Y-40643D01*
X88677Y-40466D01*
X88446Y-40370D01*
X88195Y-40370D01*
X87963Y-40466D01*
X87951Y-40477D01*
X87946Y-40463D01*
X87679Y-40195D01*
X87642Y-40180D01*
X87718Y-40180D01*
X88067Y-40036D01*
X88335Y-39769D01*
X88480Y-39420D01*
X88480Y-39042D01*
X88336Y-38693D01*
X88069Y-38425D01*
X87720Y-38280D01*
X87342Y-38280D01*
X86993Y-38424D01*
X86725Y-38691D01*
X86580Y-39040D01*
X86580Y-39418D01*
X86724Y-39767D01*
X86991Y-40035D01*
X87027Y-40050D01*
X86952Y-40050D01*
X86742Y-40136D01*
X86430Y-39823D01*
X86430Y-35986D01*
X86491Y-35961D01*
X86561Y-35891D01*
X86599Y-35800D01*
X86599Y-35701D01*
X86599Y-34701D01*
X86561Y-34609D01*
X86491Y-34539D01*
X86430Y-34513D01*
X86430Y-34236D01*
X86491Y-34211D01*
X86561Y-34141D01*
X86599Y-34050D01*
X86599Y-33951D01*
X86599Y-32951D01*
X86561Y-32859D01*
X86491Y-32789D01*
X86430Y-32763D01*
X86430Y-32486D01*
X86491Y-32461D01*
X86561Y-32391D01*
X86599Y-32300D01*
X86599Y-32201D01*
X86599Y-31201D01*
X86561Y-31109D01*
X86491Y-31039D01*
X86400Y-31001D01*
X86301Y-31001D01*
X85817Y-31001D01*
X85649Y-30833D01*
X85593Y-30795D01*
X89205Y-30795D01*
X89205Y-51205D01*
G54D10*
G36*
X50461Y-49475D02*
X50297Y-49475D01*
X49920Y-49631D01*
X49632Y-49919D01*
X49475Y-50295D01*
X49475Y-50703D01*
X49631Y-51080D01*
X49756Y-51205D01*
X49107Y-51205D01*
X49107Y-47345D01*
X49097Y-47106D01*
X49025Y-46930D01*
X48924Y-46896D01*
X48854Y-46966D01*
X48854Y-46826D01*
X48820Y-46725D01*
X48595Y-46643D01*
X48356Y-46653D01*
X48180Y-46725D01*
X48146Y-46826D01*
X48500Y-47179D01*
X48854Y-46826D01*
X48854Y-46966D01*
X48571Y-47250D01*
X48924Y-47604D01*
X49025Y-47570D01*
X49107Y-47345D01*
X49107Y-51205D01*
X48854Y-51205D01*
X48854Y-47674D01*
X48500Y-47321D01*
X48146Y-47674D01*
X48180Y-47775D01*
X48405Y-47857D01*
X48644Y-47847D01*
X48820Y-47775D01*
X48854Y-47674D01*
X48854Y-51205D01*
X43795Y-51205D01*
X43795Y-44300D01*
X44136Y-44300D01*
X44183Y-44347D01*
X44550Y-44500D01*
X44948Y-44500D01*
X45316Y-44348D01*
X45364Y-44300D01*
X46604Y-44300D01*
X46604Y-46228D01*
X46295Y-46537D01*
X46232Y-46631D01*
X46231Y-46636D01*
X46086Y-46636D01*
X45994Y-46674D01*
X45924Y-46744D01*
X45886Y-46835D01*
X45886Y-46934D01*
X45886Y-47664D01*
X45924Y-47756D01*
X45994Y-47826D01*
X46085Y-47864D01*
X46184Y-47864D01*
X46914Y-47864D01*
X47006Y-47826D01*
X47076Y-47756D01*
X47093Y-47713D01*
X47151Y-47771D01*
X47377Y-47865D01*
X47622Y-47865D01*
X47848Y-47771D01*
X48021Y-47599D01*
X48025Y-47587D01*
X48076Y-47604D01*
X48429Y-47250D01*
X48076Y-46896D01*
X48025Y-46912D01*
X48021Y-46902D01*
X47849Y-46729D01*
X47623Y-46635D01*
X47378Y-46635D01*
X47152Y-46729D01*
X47093Y-46786D01*
X47076Y-46744D01*
X47006Y-46674D01*
X46986Y-46665D01*
X47099Y-46553D01*
X47162Y-46459D01*
X47184Y-46348D01*
X47184Y-44300D01*
X50316Y-44300D01*
X50316Y-49222D01*
X50338Y-49333D01*
X50401Y-49427D01*
X50423Y-49449D01*
X50461Y-49475D01*
X50461Y-49475D01*
G37*
G54D35*
X50461Y-49475D02*
X50297Y-49475D01*
X49920Y-49631D01*
X49632Y-49919D01*
X49475Y-50295D01*
X49475Y-50703D01*
X49631Y-51080D01*
X49756Y-51205D01*
X49107Y-51205D01*
X49107Y-47345D01*
X49097Y-47106D01*
X49025Y-46930D01*
X48924Y-46896D01*
X48854Y-46966D01*
X48854Y-46826D01*
X48820Y-46725D01*
X48595Y-46643D01*
X48356Y-46653D01*
X48180Y-46725D01*
X48146Y-46826D01*
X48500Y-47179D01*
X48854Y-46826D01*
X48854Y-46966D01*
X48571Y-47250D01*
X48924Y-47604D01*
X49025Y-47570D01*
X49107Y-47345D01*
X49107Y-51205D01*
X48854Y-51205D01*
X48854Y-47674D01*
X48500Y-47321D01*
X48146Y-47674D01*
X48180Y-47775D01*
X48405Y-47857D01*
X48644Y-47847D01*
X48820Y-47775D01*
X48854Y-47674D01*
X48854Y-51205D01*
X43795Y-51205D01*
X43795Y-44300D01*
X44136Y-44300D01*
X44183Y-44347D01*
X44550Y-44500D01*
X44948Y-44500D01*
X45316Y-44348D01*
X45364Y-44300D01*
X46604Y-44300D01*
X46604Y-46228D01*
X46295Y-46537D01*
X46232Y-46631D01*
X46231Y-46636D01*
X46086Y-46636D01*
X45994Y-46674D01*
X45924Y-46744D01*
X45886Y-46835D01*
X45886Y-46934D01*
X45886Y-47664D01*
X45924Y-47756D01*
X45994Y-47826D01*
X46085Y-47864D01*
X46184Y-47864D01*
X46914Y-47864D01*
X47006Y-47826D01*
X47076Y-47756D01*
X47093Y-47713D01*
X47151Y-47771D01*
X47377Y-47865D01*
X47622Y-47865D01*
X47848Y-47771D01*
X48021Y-47599D01*
X48025Y-47587D01*
X48076Y-47604D01*
X48429Y-47250D01*
X48076Y-46896D01*
X48025Y-46912D01*
X48021Y-46902D01*
X47849Y-46729D01*
X47623Y-46635D01*
X47378Y-46635D01*
X47152Y-46729D01*
X47093Y-46786D01*
X47076Y-46744D01*
X47006Y-46674D01*
X46986Y-46665D01*
X47099Y-46553D01*
X47162Y-46459D01*
X47184Y-46348D01*
X47184Y-44300D01*
X50316Y-44300D01*
X50316Y-49222D01*
X50338Y-49333D01*
X50401Y-49427D01*
X50423Y-49449D01*
X50461Y-49475D01*
G54D10*
G36*
X59289Y-44300D02*
X57615Y-45974D01*
X57615Y-45900D01*
X57603Y-45900D01*
X57615Y-45888D01*
X57614Y-45586D01*
X57576Y-45494D01*
X57506Y-45424D01*
X57415Y-45386D01*
X57316Y-45386D01*
X57112Y-45385D01*
X57050Y-45447D01*
X57050Y-45900D01*
X57050Y-45950D01*
X57050Y-46050D01*
X56950Y-46050D01*
X56900Y-46050D01*
X56447Y-46050D01*
X56385Y-46112D01*
X56386Y-46414D01*
X56424Y-46506D01*
X56494Y-46576D01*
X56536Y-46593D01*
X56479Y-46651D01*
X56385Y-46877D01*
X56385Y-47122D01*
X56479Y-47348D01*
X56630Y-47500D01*
X56479Y-47651D01*
X56385Y-47877D01*
X56385Y-48122D01*
X56392Y-48141D01*
X55746Y-48788D01*
X55010Y-48788D01*
X55010Y-48700D01*
X55110Y-48700D01*
X55160Y-48700D01*
X55553Y-48700D01*
X55615Y-48638D01*
X55614Y-48581D01*
X55580Y-48500D01*
X55614Y-48420D01*
X55614Y-48321D01*
X55614Y-48081D01*
X55580Y-48000D01*
X55614Y-47920D01*
X55614Y-47821D01*
X55614Y-47581D01*
X55580Y-47500D01*
X55614Y-47420D01*
X55614Y-47321D01*
X55614Y-47081D01*
X55590Y-47023D01*
X55619Y-47018D01*
X55713Y-46955D01*
X56115Y-46553D01*
X56178Y-46459D01*
X56200Y-46348D01*
X56200Y-46155D01*
X56426Y-45929D01*
X56447Y-45950D01*
X56950Y-45950D01*
X56950Y-45447D01*
X56929Y-45426D01*
X58055Y-44300D01*
X59289Y-44300D01*
X59289Y-44300D01*
G37*
G54D35*
X59289Y-44300D02*
X57615Y-45974D01*
X57615Y-45900D01*
X57603Y-45900D01*
X57615Y-45888D01*
X57614Y-45586D01*
X57576Y-45494D01*
X57506Y-45424D01*
X57415Y-45386D01*
X57316Y-45386D01*
X57112Y-45385D01*
X57050Y-45447D01*
X57050Y-45900D01*
X57050Y-45950D01*
X57050Y-46050D01*
X56950Y-46050D01*
X56900Y-46050D01*
X56447Y-46050D01*
X56385Y-46112D01*
X56386Y-46414D01*
X56424Y-46506D01*
X56494Y-46576D01*
X56536Y-46593D01*
X56479Y-46651D01*
X56385Y-46877D01*
X56385Y-47122D01*
X56479Y-47348D01*
X56630Y-47500D01*
X56479Y-47651D01*
X56385Y-47877D01*
X56385Y-48122D01*
X56392Y-48141D01*
X55746Y-48788D01*
X55010Y-48788D01*
X55010Y-48700D01*
X55110Y-48700D01*
X55160Y-48700D01*
X55553Y-48700D01*
X55615Y-48638D01*
X55614Y-48581D01*
X55580Y-48500D01*
X55614Y-48420D01*
X55614Y-48321D01*
X55614Y-48081D01*
X55580Y-48000D01*
X55614Y-47920D01*
X55614Y-47821D01*
X55614Y-47581D01*
X55580Y-47500D01*
X55614Y-47420D01*
X55614Y-47321D01*
X55614Y-47081D01*
X55590Y-47023D01*
X55619Y-47018D01*
X55713Y-46955D01*
X56115Y-46553D01*
X56178Y-46459D01*
X56200Y-46348D01*
X56200Y-46155D01*
X56426Y-45929D01*
X56447Y-45950D01*
X56950Y-45950D01*
X56950Y-45447D01*
X56929Y-45426D01*
X58055Y-44300D01*
X59289Y-44300D01*
G54D10*
G36*
X79200Y-49784D02*
X79108Y-49746D01*
X78893Y-49746D01*
X78694Y-49828D01*
X78543Y-49980D01*
X78500Y-50082D01*
X78458Y-49980D01*
X78306Y-49829D01*
X78108Y-49746D01*
X77893Y-49746D01*
X77694Y-49828D01*
X77543Y-49980D01*
X77500Y-50082D01*
X77458Y-49980D01*
X77306Y-49829D01*
X77108Y-49746D01*
X76893Y-49746D01*
X76694Y-49828D01*
X76543Y-49980D01*
X76500Y-50082D01*
X76458Y-49980D01*
X76306Y-49829D01*
X76108Y-49746D01*
X75893Y-49746D01*
X75694Y-49828D01*
X75543Y-49980D01*
X75500Y-50082D01*
X75458Y-49980D01*
X75306Y-49829D01*
X75108Y-49746D01*
X74893Y-49746D01*
X74694Y-49828D01*
X74543Y-49980D01*
X74500Y-50082D01*
X74458Y-49980D01*
X74306Y-49829D01*
X74108Y-49746D01*
X73893Y-49746D01*
X73694Y-49828D01*
X73543Y-49980D01*
X73460Y-50178D01*
X73460Y-50393D01*
X73460Y-50821D01*
X73542Y-51020D01*
X73694Y-51171D01*
X73775Y-51205D01*
X72225Y-51205D01*
X72306Y-51172D01*
X72457Y-51020D01*
X72540Y-50822D01*
X72540Y-50607D01*
X72540Y-50179D01*
X72458Y-49980D01*
X72306Y-49829D01*
X72108Y-49746D01*
X71893Y-49746D01*
X71694Y-49828D01*
X71543Y-49980D01*
X71500Y-50082D01*
X71458Y-49980D01*
X71306Y-49829D01*
X71230Y-49797D01*
X73297Y-47731D01*
X73396Y-47731D01*
X73552Y-47667D01*
X73672Y-47547D01*
X73737Y-47391D01*
X73737Y-47222D01*
X73673Y-47066D01*
X73553Y-46946D01*
X73397Y-46881D01*
X73228Y-46881D01*
X73072Y-46945D01*
X72952Y-47065D01*
X72887Y-47221D01*
X72887Y-47320D01*
X72750Y-47457D01*
X72750Y-46512D01*
X72750Y-46288D01*
X72749Y-46101D01*
X72711Y-46009D01*
X72641Y-45939D01*
X72550Y-45901D01*
X72451Y-45901D01*
X72112Y-45900D01*
X72050Y-45962D01*
X72050Y-46350D01*
X72688Y-46350D01*
X72750Y-46288D01*
X72750Y-46512D01*
X72688Y-46450D01*
X72050Y-46450D01*
X72050Y-46838D01*
X72112Y-46900D01*
X72451Y-46899D01*
X72550Y-46899D01*
X72641Y-46861D01*
X72711Y-46791D01*
X72749Y-46699D01*
X72750Y-46512D01*
X72750Y-47457D01*
X72749Y-47458D01*
X72749Y-47301D01*
X72711Y-47209D01*
X72641Y-47139D01*
X72550Y-47101D01*
X72451Y-47101D01*
X71950Y-47101D01*
X71950Y-46838D01*
X71950Y-46450D01*
X71950Y-46350D01*
X71950Y-45962D01*
X71888Y-45900D01*
X71549Y-45901D01*
X71450Y-45901D01*
X71359Y-45939D01*
X71289Y-46009D01*
X71251Y-46101D01*
X71250Y-46288D01*
X71312Y-46350D01*
X71950Y-46350D01*
X71950Y-46450D01*
X71312Y-46450D01*
X71250Y-46512D01*
X71251Y-46699D01*
X71289Y-46791D01*
X71359Y-46861D01*
X71450Y-46899D01*
X71549Y-46899D01*
X71888Y-46900D01*
X71950Y-46838D01*
X71950Y-47101D01*
X71451Y-47101D01*
X71359Y-47139D01*
X71289Y-47209D01*
X71258Y-47281D01*
X71191Y-47295D01*
X71155Y-47319D01*
X71083Y-47367D01*
X70780Y-47670D01*
X69528Y-47670D01*
X69521Y-47652D01*
X69369Y-47499D01*
X69521Y-47349D01*
X69615Y-47123D01*
X69615Y-46878D01*
X69521Y-46652D01*
X69463Y-46593D01*
X69506Y-46576D01*
X69576Y-46506D01*
X69614Y-46414D01*
X69615Y-46112D01*
X69615Y-45888D01*
X69614Y-45586D01*
X69576Y-45494D01*
X69506Y-45424D01*
X69415Y-45386D01*
X69316Y-45386D01*
X69112Y-45385D01*
X69050Y-45447D01*
X69050Y-45950D01*
X69553Y-45950D01*
X69615Y-45888D01*
X69615Y-46112D01*
X69553Y-46050D01*
X69100Y-46050D01*
X69050Y-46050D01*
X68950Y-46050D01*
X68950Y-45950D01*
X68950Y-45447D01*
X68888Y-45385D01*
X68684Y-45386D01*
X68585Y-45386D01*
X68494Y-45424D01*
X68424Y-45494D01*
X68386Y-45586D01*
X68385Y-45888D01*
X68447Y-45950D01*
X68950Y-45950D01*
X68950Y-46050D01*
X68900Y-46050D01*
X68447Y-46050D01*
X68385Y-46112D01*
X68386Y-46414D01*
X68424Y-46506D01*
X68494Y-46576D01*
X68536Y-46593D01*
X68479Y-46651D01*
X68454Y-46710D01*
X66744Y-46710D01*
X66749Y-46699D01*
X66750Y-46512D01*
X66750Y-46288D01*
X66749Y-46101D01*
X66711Y-46009D01*
X66641Y-45939D01*
X66550Y-45901D01*
X66451Y-45901D01*
X66112Y-45900D01*
X66050Y-45962D01*
X66050Y-46350D01*
X66688Y-46350D01*
X66750Y-46288D01*
X66750Y-46512D01*
X66688Y-46450D01*
X66100Y-46450D01*
X66050Y-46450D01*
X65950Y-46450D01*
X65950Y-46350D01*
X65950Y-45962D01*
X65888Y-45900D01*
X65549Y-45901D01*
X65450Y-45901D01*
X65359Y-45939D01*
X65289Y-46009D01*
X65251Y-46101D01*
X65250Y-46288D01*
X65312Y-46350D01*
X65950Y-46350D01*
X65950Y-46450D01*
X65900Y-46450D01*
X65312Y-46450D01*
X65250Y-46512D01*
X65251Y-46699D01*
X65289Y-46791D01*
X65325Y-46827D01*
X65151Y-47001D01*
X65088Y-47095D01*
X65066Y-47206D01*
X65066Y-48213D01*
X65088Y-48324D01*
X65151Y-48418D01*
X66627Y-49894D01*
X66543Y-49980D01*
X66500Y-50082D01*
X66458Y-49980D01*
X66306Y-49829D01*
X66282Y-49819D01*
X66268Y-49746D01*
X66205Y-49652D01*
X63615Y-47062D01*
X63615Y-46878D01*
X63521Y-46652D01*
X63463Y-46593D01*
X63506Y-46576D01*
X63576Y-46506D01*
X63614Y-46414D01*
X63615Y-46112D01*
X63615Y-45888D01*
X63614Y-45586D01*
X63576Y-45494D01*
X63506Y-45424D01*
X63415Y-45386D01*
X63316Y-45386D01*
X63112Y-45385D01*
X63050Y-45447D01*
X63050Y-45950D01*
X63553Y-45950D01*
X63615Y-45888D01*
X63615Y-46112D01*
X63553Y-46050D01*
X63100Y-46050D01*
X63050Y-46050D01*
X62950Y-46050D01*
X62950Y-45950D01*
X62950Y-45447D01*
X62888Y-45385D01*
X62684Y-45386D01*
X62585Y-45386D01*
X62494Y-45424D01*
X62424Y-45494D01*
X62386Y-45586D01*
X62385Y-45888D01*
X62447Y-45950D01*
X62950Y-45950D01*
X62950Y-46050D01*
X62900Y-46050D01*
X62447Y-46050D01*
X62385Y-46112D01*
X62386Y-46414D01*
X62424Y-46506D01*
X62494Y-46576D01*
X62536Y-46593D01*
X62479Y-46651D01*
X62385Y-46877D01*
X62385Y-47122D01*
X62479Y-47348D01*
X62630Y-47500D01*
X62479Y-47651D01*
X62385Y-47877D01*
X62385Y-48122D01*
X62392Y-48141D01*
X61767Y-48767D01*
X61695Y-48873D01*
X61670Y-49000D01*
X61670Y-49852D01*
X61543Y-49980D01*
X61500Y-50082D01*
X61458Y-49980D01*
X61306Y-49829D01*
X61108Y-49746D01*
X60893Y-49746D01*
X60750Y-49804D01*
X60750Y-46512D01*
X60750Y-46288D01*
X60749Y-46101D01*
X60711Y-46009D01*
X60641Y-45939D01*
X60550Y-45901D01*
X60451Y-45901D01*
X60112Y-45900D01*
X60050Y-45962D01*
X60050Y-46350D01*
X60688Y-46350D01*
X60750Y-46288D01*
X60750Y-46512D01*
X60688Y-46450D01*
X60050Y-46450D01*
X60050Y-46838D01*
X60112Y-46900D01*
X60451Y-46899D01*
X60550Y-46899D01*
X60641Y-46861D01*
X60711Y-46791D01*
X60749Y-46699D01*
X60750Y-46512D01*
X60750Y-49804D01*
X60694Y-49828D01*
X60543Y-49980D01*
X60500Y-50081D01*
X60489Y-50043D01*
X60353Y-49875D01*
X60163Y-49772D01*
X60135Y-49768D01*
X60050Y-49815D01*
X60050Y-50400D01*
X60050Y-50450D01*
X60050Y-50550D01*
X59950Y-50550D01*
X59950Y-50450D01*
X59950Y-50400D01*
X59950Y-49815D01*
X59865Y-49768D01*
X59837Y-49772D01*
X59830Y-49775D01*
X59830Y-48669D01*
X60233Y-48266D01*
X60305Y-48160D01*
X60305Y-48159D01*
X60308Y-48138D01*
X60316Y-48099D01*
X60549Y-48099D01*
X60641Y-48061D01*
X60711Y-47991D01*
X60749Y-47900D01*
X60749Y-47801D01*
X60749Y-47301D01*
X60711Y-47209D01*
X60641Y-47139D01*
X60550Y-47101D01*
X60451Y-47101D01*
X59451Y-47101D01*
X59359Y-47139D01*
X59289Y-47209D01*
X59251Y-47300D01*
X59251Y-47399D01*
X59251Y-47899D01*
X59289Y-47991D01*
X59359Y-48061D01*
X59450Y-48099D01*
X59468Y-48099D01*
X59267Y-48300D01*
X59195Y-48406D01*
X59170Y-48533D01*
X59170Y-49771D01*
X59108Y-49746D01*
X58893Y-49746D01*
X58694Y-49828D01*
X58543Y-49980D01*
X58500Y-50082D01*
X58458Y-49980D01*
X58306Y-49829D01*
X58290Y-49822D01*
X58290Y-47486D01*
X59250Y-46525D01*
X59251Y-46699D01*
X59289Y-46791D01*
X59359Y-46861D01*
X59450Y-46899D01*
X59549Y-46899D01*
X59888Y-46900D01*
X59950Y-46838D01*
X59950Y-46500D01*
X59950Y-46450D01*
X59950Y-46350D01*
X59950Y-46300D01*
X59950Y-45962D01*
X59888Y-45900D01*
X59875Y-45900D01*
X61018Y-44758D01*
X65064Y-44758D01*
X65175Y-44736D01*
X65269Y-44673D01*
X65642Y-44300D01*
X74677Y-44300D01*
X74747Y-44370D01*
X74853Y-44442D01*
X74854Y-44442D01*
X74874Y-44445D01*
X74980Y-44467D01*
X75469Y-44467D01*
X75469Y-45385D01*
X75362Y-45385D01*
X75300Y-45447D01*
X75300Y-45900D01*
X75300Y-45950D01*
X75300Y-46050D01*
X75200Y-46050D01*
X75200Y-45950D01*
X75200Y-45447D01*
X75138Y-45385D01*
X74934Y-45386D01*
X74835Y-45386D01*
X74744Y-45424D01*
X74674Y-45494D01*
X74636Y-45586D01*
X74635Y-45888D01*
X74697Y-45950D01*
X75200Y-45950D01*
X75200Y-46050D01*
X75150Y-46050D01*
X74697Y-46050D01*
X74635Y-46112D01*
X74636Y-46414D01*
X74674Y-46506D01*
X74744Y-46576D01*
X74786Y-46593D01*
X74729Y-46651D01*
X74635Y-46877D01*
X74635Y-47122D01*
X74729Y-47348D01*
X74880Y-47500D01*
X74729Y-47651D01*
X74635Y-47877D01*
X74635Y-48122D01*
X74729Y-48348D01*
X74901Y-48521D01*
X75127Y-48615D01*
X75372Y-48615D01*
X75598Y-48521D01*
X75771Y-48349D01*
X75865Y-48123D01*
X75865Y-47878D01*
X75857Y-47859D01*
X76032Y-47685D01*
X76032Y-47684D01*
X76079Y-47613D01*
X76103Y-47578D01*
X76104Y-47577D01*
X76128Y-47451D01*
X76129Y-47451D01*
X76129Y-46294D01*
X76200Y-46324D01*
X76299Y-46324D01*
X76799Y-46324D01*
X76804Y-46321D01*
X77144Y-46661D01*
X77144Y-46760D01*
X77208Y-46916D01*
X77328Y-47036D01*
X77484Y-47101D01*
X77653Y-47101D01*
X77809Y-47037D01*
X77929Y-46917D01*
X77994Y-46761D01*
X77994Y-46760D01*
X78124Y-46707D01*
X78244Y-46587D01*
X78309Y-46431D01*
X78309Y-46262D01*
X78245Y-46106D01*
X78125Y-45986D01*
X77969Y-45921D01*
X77800Y-45921D01*
X77746Y-45943D01*
X77171Y-45368D01*
X77278Y-45346D01*
X77302Y-45342D01*
X77303Y-45342D01*
X77423Y-45262D01*
X77906Y-44777D01*
X77908Y-44776D01*
X77909Y-44776D01*
X77989Y-44656D01*
X78017Y-44514D01*
X78017Y-44300D01*
X79183Y-44300D01*
X79183Y-44709D01*
X79182Y-44714D01*
X79200Y-44801D01*
X79200Y-49784D01*
X79200Y-49784D01*
G37*
G54D35*
X79200Y-49784D02*
X79108Y-49746D01*
X78893Y-49746D01*
X78694Y-49828D01*
X78543Y-49980D01*
X78500Y-50082D01*
X78458Y-49980D01*
X78306Y-49829D01*
X78108Y-49746D01*
X77893Y-49746D01*
X77694Y-49828D01*
X77543Y-49980D01*
X77500Y-50082D01*
X77458Y-49980D01*
X77306Y-49829D01*
X77108Y-49746D01*
X76893Y-49746D01*
X76694Y-49828D01*
X76543Y-49980D01*
X76500Y-50082D01*
X76458Y-49980D01*
X76306Y-49829D01*
X76108Y-49746D01*
X75893Y-49746D01*
X75694Y-49828D01*
X75543Y-49980D01*
X75500Y-50082D01*
X75458Y-49980D01*
X75306Y-49829D01*
X75108Y-49746D01*
X74893Y-49746D01*
X74694Y-49828D01*
X74543Y-49980D01*
X74500Y-50082D01*
X74458Y-49980D01*
X74306Y-49829D01*
X74108Y-49746D01*
X73893Y-49746D01*
X73694Y-49828D01*
X73543Y-49980D01*
X73460Y-50178D01*
X73460Y-50393D01*
X73460Y-50821D01*
X73542Y-51020D01*
X73694Y-51171D01*
X73775Y-51205D01*
X72225Y-51205D01*
X72306Y-51172D01*
X72457Y-51020D01*
X72540Y-50822D01*
X72540Y-50607D01*
X72540Y-50179D01*
X72458Y-49980D01*
X72306Y-49829D01*
X72108Y-49746D01*
X71893Y-49746D01*
X71694Y-49828D01*
X71543Y-49980D01*
X71500Y-50082D01*
X71458Y-49980D01*
X71306Y-49829D01*
X71230Y-49797D01*
X73297Y-47731D01*
X73396Y-47731D01*
X73552Y-47667D01*
X73672Y-47547D01*
X73737Y-47391D01*
X73737Y-47222D01*
X73673Y-47066D01*
X73553Y-46946D01*
X73397Y-46881D01*
X73228Y-46881D01*
X73072Y-46945D01*
X72952Y-47065D01*
X72887Y-47221D01*
X72887Y-47320D01*
X72750Y-47457D01*
X72750Y-46512D01*
X72750Y-46288D01*
X72749Y-46101D01*
X72711Y-46009D01*
X72641Y-45939D01*
X72550Y-45901D01*
X72451Y-45901D01*
X72112Y-45900D01*
X72050Y-45962D01*
X72050Y-46350D01*
X72688Y-46350D01*
X72750Y-46288D01*
X72750Y-46512D01*
X72688Y-46450D01*
X72050Y-46450D01*
X72050Y-46838D01*
X72112Y-46900D01*
X72451Y-46899D01*
X72550Y-46899D01*
X72641Y-46861D01*
X72711Y-46791D01*
X72749Y-46699D01*
X72750Y-46512D01*
X72750Y-47457D01*
X72749Y-47458D01*
X72749Y-47301D01*
X72711Y-47209D01*
X72641Y-47139D01*
X72550Y-47101D01*
X72451Y-47101D01*
X71950Y-47101D01*
X71950Y-46838D01*
X71950Y-46450D01*
X71950Y-46350D01*
X71950Y-45962D01*
X71888Y-45900D01*
X71549Y-45901D01*
X71450Y-45901D01*
X71359Y-45939D01*
X71289Y-46009D01*
X71251Y-46101D01*
X71250Y-46288D01*
X71312Y-46350D01*
X71950Y-46350D01*
X71950Y-46450D01*
X71312Y-46450D01*
X71250Y-46512D01*
X71251Y-46699D01*
X71289Y-46791D01*
X71359Y-46861D01*
X71450Y-46899D01*
X71549Y-46899D01*
X71888Y-46900D01*
X71950Y-46838D01*
X71950Y-47101D01*
X71451Y-47101D01*
X71359Y-47139D01*
X71289Y-47209D01*
X71258Y-47281D01*
X71191Y-47295D01*
X71155Y-47319D01*
X71083Y-47367D01*
X70780Y-47670D01*
X69528Y-47670D01*
X69521Y-47652D01*
X69369Y-47499D01*
X69521Y-47349D01*
X69615Y-47123D01*
X69615Y-46878D01*
X69521Y-46652D01*
X69463Y-46593D01*
X69506Y-46576D01*
X69576Y-46506D01*
X69614Y-46414D01*
X69615Y-46112D01*
X69615Y-45888D01*
X69614Y-45586D01*
X69576Y-45494D01*
X69506Y-45424D01*
X69415Y-45386D01*
X69316Y-45386D01*
X69112Y-45385D01*
X69050Y-45447D01*
X69050Y-45950D01*
X69553Y-45950D01*
X69615Y-45888D01*
X69615Y-46112D01*
X69553Y-46050D01*
X69100Y-46050D01*
X69050Y-46050D01*
X68950Y-46050D01*
X68950Y-45950D01*
X68950Y-45447D01*
X68888Y-45385D01*
X68684Y-45386D01*
X68585Y-45386D01*
X68494Y-45424D01*
X68424Y-45494D01*
X68386Y-45586D01*
X68385Y-45888D01*
X68447Y-45950D01*
X68950Y-45950D01*
X68950Y-46050D01*
X68900Y-46050D01*
X68447Y-46050D01*
X68385Y-46112D01*
X68386Y-46414D01*
X68424Y-46506D01*
X68494Y-46576D01*
X68536Y-46593D01*
X68479Y-46651D01*
X68454Y-46710D01*
X66744Y-46710D01*
X66749Y-46699D01*
X66750Y-46512D01*
X66750Y-46288D01*
X66749Y-46101D01*
X66711Y-46009D01*
X66641Y-45939D01*
X66550Y-45901D01*
X66451Y-45901D01*
X66112Y-45900D01*
X66050Y-45962D01*
X66050Y-46350D01*
X66688Y-46350D01*
X66750Y-46288D01*
X66750Y-46512D01*
X66688Y-46450D01*
X66100Y-46450D01*
X66050Y-46450D01*
X65950Y-46450D01*
X65950Y-46350D01*
X65950Y-45962D01*
X65888Y-45900D01*
X65549Y-45901D01*
X65450Y-45901D01*
X65359Y-45939D01*
X65289Y-46009D01*
X65251Y-46101D01*
X65250Y-46288D01*
X65312Y-46350D01*
X65950Y-46350D01*
X65950Y-46450D01*
X65900Y-46450D01*
X65312Y-46450D01*
X65250Y-46512D01*
X65251Y-46699D01*
X65289Y-46791D01*
X65325Y-46827D01*
X65151Y-47001D01*
X65088Y-47095D01*
X65066Y-47206D01*
X65066Y-48213D01*
X65088Y-48324D01*
X65151Y-48418D01*
X66627Y-49894D01*
X66543Y-49980D01*
X66500Y-50082D01*
X66458Y-49980D01*
X66306Y-49829D01*
X66282Y-49819D01*
X66268Y-49746D01*
X66205Y-49652D01*
X63615Y-47062D01*
X63615Y-46878D01*
X63521Y-46652D01*
X63463Y-46593D01*
X63506Y-46576D01*
X63576Y-46506D01*
X63614Y-46414D01*
X63615Y-46112D01*
X63615Y-45888D01*
X63614Y-45586D01*
X63576Y-45494D01*
X63506Y-45424D01*
X63415Y-45386D01*
X63316Y-45386D01*
X63112Y-45385D01*
X63050Y-45447D01*
X63050Y-45950D01*
X63553Y-45950D01*
X63615Y-45888D01*
X63615Y-46112D01*
X63553Y-46050D01*
X63100Y-46050D01*
X63050Y-46050D01*
X62950Y-46050D01*
X62950Y-45950D01*
X62950Y-45447D01*
X62888Y-45385D01*
X62684Y-45386D01*
X62585Y-45386D01*
X62494Y-45424D01*
X62424Y-45494D01*
X62386Y-45586D01*
X62385Y-45888D01*
X62447Y-45950D01*
X62950Y-45950D01*
X62950Y-46050D01*
X62900Y-46050D01*
X62447Y-46050D01*
X62385Y-46112D01*
X62386Y-46414D01*
X62424Y-46506D01*
X62494Y-46576D01*
X62536Y-46593D01*
X62479Y-46651D01*
X62385Y-46877D01*
X62385Y-47122D01*
X62479Y-47348D01*
X62630Y-47500D01*
X62479Y-47651D01*
X62385Y-47877D01*
X62385Y-48122D01*
X62392Y-48141D01*
X61767Y-48767D01*
X61695Y-48873D01*
X61670Y-49000D01*
X61670Y-49852D01*
X61543Y-49980D01*
X61500Y-50082D01*
X61458Y-49980D01*
X61306Y-49829D01*
X61108Y-49746D01*
X60893Y-49746D01*
X60750Y-49804D01*
X60750Y-46512D01*
X60750Y-46288D01*
X60749Y-46101D01*
X60711Y-46009D01*
X60641Y-45939D01*
X60550Y-45901D01*
X60451Y-45901D01*
X60112Y-45900D01*
X60050Y-45962D01*
X60050Y-46350D01*
X60688Y-46350D01*
X60750Y-46288D01*
X60750Y-46512D01*
X60688Y-46450D01*
X60050Y-46450D01*
X60050Y-46838D01*
X60112Y-46900D01*
X60451Y-46899D01*
X60550Y-46899D01*
X60641Y-46861D01*
X60711Y-46791D01*
X60749Y-46699D01*
X60750Y-46512D01*
X60750Y-49804D01*
X60694Y-49828D01*
X60543Y-49980D01*
X60500Y-50081D01*
X60489Y-50043D01*
X60353Y-49875D01*
X60163Y-49772D01*
X60135Y-49768D01*
X60050Y-49815D01*
X60050Y-50400D01*
X60050Y-50450D01*
X60050Y-50550D01*
X59950Y-50550D01*
X59950Y-50450D01*
X59950Y-50400D01*
X59950Y-49815D01*
X59865Y-49768D01*
X59837Y-49772D01*
X59830Y-49775D01*
X59830Y-48669D01*
X60233Y-48266D01*
X60305Y-48160D01*
X60305Y-48159D01*
X60308Y-48138D01*
X60316Y-48099D01*
X60549Y-48099D01*
X60641Y-48061D01*
X60711Y-47991D01*
X60749Y-47900D01*
X60749Y-47801D01*
X60749Y-47301D01*
X60711Y-47209D01*
X60641Y-47139D01*
X60550Y-47101D01*
X60451Y-47101D01*
X59451Y-47101D01*
X59359Y-47139D01*
X59289Y-47209D01*
X59251Y-47300D01*
X59251Y-47399D01*
X59251Y-47899D01*
X59289Y-47991D01*
X59359Y-48061D01*
X59450Y-48099D01*
X59468Y-48099D01*
X59267Y-48300D01*
X59195Y-48406D01*
X59170Y-48533D01*
X59170Y-49771D01*
X59108Y-49746D01*
X58893Y-49746D01*
X58694Y-49828D01*
X58543Y-49980D01*
X58500Y-50082D01*
X58458Y-49980D01*
X58306Y-49829D01*
X58290Y-49822D01*
X58290Y-47486D01*
X59250Y-46525D01*
X59251Y-46699D01*
X59289Y-46791D01*
X59359Y-46861D01*
X59450Y-46899D01*
X59549Y-46899D01*
X59888Y-46900D01*
X59950Y-46838D01*
X59950Y-46500D01*
X59950Y-46450D01*
X59950Y-46350D01*
X59950Y-46300D01*
X59950Y-45962D01*
X59888Y-45900D01*
X59875Y-45900D01*
X61018Y-44758D01*
X65064Y-44758D01*
X65175Y-44736D01*
X65269Y-44673D01*
X65642Y-44300D01*
X74677Y-44300D01*
X74747Y-44370D01*
X74853Y-44442D01*
X74854Y-44442D01*
X74874Y-44445D01*
X74980Y-44467D01*
X75469Y-44467D01*
X75469Y-45385D01*
X75362Y-45385D01*
X75300Y-45447D01*
X75300Y-45900D01*
X75300Y-45950D01*
X75300Y-46050D01*
X75200Y-46050D01*
X75200Y-45950D01*
X75200Y-45447D01*
X75138Y-45385D01*
X74934Y-45386D01*
X74835Y-45386D01*
X74744Y-45424D01*
X74674Y-45494D01*
X74636Y-45586D01*
X74635Y-45888D01*
X74697Y-45950D01*
X75200Y-45950D01*
X75200Y-46050D01*
X75150Y-46050D01*
X74697Y-46050D01*
X74635Y-46112D01*
X74636Y-46414D01*
X74674Y-46506D01*
X74744Y-46576D01*
X74786Y-46593D01*
X74729Y-46651D01*
X74635Y-46877D01*
X74635Y-47122D01*
X74729Y-47348D01*
X74880Y-47500D01*
X74729Y-47651D01*
X74635Y-47877D01*
X74635Y-48122D01*
X74729Y-48348D01*
X74901Y-48521D01*
X75127Y-48615D01*
X75372Y-48615D01*
X75598Y-48521D01*
X75771Y-48349D01*
X75865Y-48123D01*
X75865Y-47878D01*
X75857Y-47859D01*
X76032Y-47685D01*
X76032Y-47684D01*
X76079Y-47613D01*
X76103Y-47578D01*
X76104Y-47577D01*
X76128Y-47451D01*
X76129Y-47451D01*
X76129Y-46294D01*
X76200Y-46324D01*
X76299Y-46324D01*
X76799Y-46324D01*
X76804Y-46321D01*
X77144Y-46661D01*
X77144Y-46760D01*
X77208Y-46916D01*
X77328Y-47036D01*
X77484Y-47101D01*
X77653Y-47101D01*
X77809Y-47037D01*
X77929Y-46917D01*
X77994Y-46761D01*
X77994Y-46760D01*
X78124Y-46707D01*
X78244Y-46587D01*
X78309Y-46431D01*
X78309Y-46262D01*
X78245Y-46106D01*
X78125Y-45986D01*
X77969Y-45921D01*
X77800Y-45921D01*
X77746Y-45943D01*
X77171Y-45368D01*
X77278Y-45346D01*
X77302Y-45342D01*
X77303Y-45342D01*
X77423Y-45262D01*
X77906Y-44777D01*
X77908Y-44776D01*
X77909Y-44776D01*
X77989Y-44656D01*
X78017Y-44514D01*
X78017Y-44300D01*
X79183Y-44300D01*
X79183Y-44709D01*
X79182Y-44714D01*
X79200Y-44801D01*
X79200Y-49784D01*
M02*
