M48
;DRILL file {PCBnew (2011-05-25)-stable} date Wed 09 Oct 2013 04:42:21 PM EDT
;FORMAT={2:4/ absolute / inch / suppress trailing zeros}
FMAT,2
INCH,LZ
T1C0.025
T2C0.035
T3C0.039
T4C0.040
T5C0.043
T6C0.063
T7C0.079
T8C0.106
T9C0.124
T10C0.128
T11C0.130
%
G90
G05
M72
T1
X0485Y-04575
X052038Y-048036
X053525Y-04604
X054Y-03975
X054Y-047
X05525Y-0385
X056Y-042
X062527Y-038466
X062632Y-037832
X063661Y-037192
X063809Y-03673
X066219Y-043781
X06701Y-036712
X067447Y-045152
X06825Y-0415
X07Y-047
X071025Y-036737
X072046Y-036855
X072463Y-037285
X0744Y-040409
X074451Y-039824
X075749Y-040689
X079586Y-041034
X079796Y-042566
X079958Y-041477
X0875Y-04725
X08825Y-049
T2
X0464Y-0383
X0464Y-0393
X0464Y-0427
X0464Y-0437
X048Y-03925
X048Y-04025
X048Y-04125
X048Y-04225
X049Y-03975
X049Y-04075
X049Y-04175
X049Y-04275
X05045Y-03925
X05045Y-04025
X05045Y-04125
X05045Y-04225
X05145Y-03975
X05145Y-04075
X05145Y-04175
X05145Y-04275
X053Y-0383
X053Y-0393
X053Y-0427
X053Y-0437
X061Y-041
X061Y-042
X073Y-041
X073Y-042
T3
X08625Y-04525
X08625Y-04625
X08625Y-04725
T4
X0524Y-0315
X0534Y-0315
X0544Y-0315
X0554Y-0315
X056Y-0505
X0564Y-0315
X057Y-0505
X0574Y-0315
X058Y-0505
X0584Y-0315
X059Y-0505
X0594Y-0315
X06Y-0505
X0604Y-0315
X061Y-0505
X0614Y-0315
X062Y-0505
X063Y-0315
X063Y-0505
X064Y-0315
X065Y-0315
X065Y-0505
X066Y-0315
X066Y-0505
X067Y-0315
X067Y-0505
X068Y-0315
X068Y-0505
X069Y-0315
X069Y-0505
X07Y-0315
X07Y-0505
X071Y-0505
X072Y-0315
X072Y-0505
X073Y-0315
X074Y-0315
X074Y-0505
X075Y-0315
X075Y-0505
X076Y-0315
X076Y-0505
X077Y-0315
X077Y-0505
X078Y-0315
X078Y-0505
X079Y-0315
X079Y-0505
X08Y-0505
X081Y-0505
X082Y-0315
X082Y-0325
X082Y-0335
X082Y-0345
X082Y-0355
X082Y-0365
X082Y-0375
X082Y-0385
X082Y-0395
X082Y-0405
X082Y-0415
X082Y-0425
X082Y-0435
X082Y-0445
X082Y-0455
X082Y-0465
X082Y-0475
X082Y-0485
X083Y-0315
X083Y-0325
X083Y-0335
X083Y-0345
X083Y-0355
X083Y-0365
X083Y-0375
X083Y-0385
X083Y-0395
X083Y-0405
X083Y-0415
X083Y-0425
X083Y-0435
X083Y-0445
X083Y-0455
X083Y-0465
X083Y-0475
X083Y-0485
T5
X0505Y-034
X0515Y-034
X0545Y-034
X0555Y-034
X057Y-046
X057Y-047
X057Y-048
X0585Y-034
X0595Y-034
X0625Y-034
X063Y-046
X063Y-047
X063Y-048
X0635Y-034
X0665Y-034
X0675Y-034
X069Y-046
X069Y-047
X069Y-048
X0705Y-034
X0715Y-034
X0745Y-034
X07525Y-046
X07525Y-047
X07525Y-048
X0755Y-034
X0785Y-034
X0795Y-034
T6
X08832Y-041
T7
X059Y-039
X059Y-043
X063Y-043
X071Y-039
X071Y-043
X075Y-043
T8
X08714Y-041
X08753Y-03923
X08753Y-04277
T9
X08478Y-041
T10
X04475Y-0385
X04475Y-0435
T11
X0505Y-0505
X051Y-0315
X0805Y-0315
X083Y-0505
T0
M30
