G04 (created by PCBNEW-RS274X (2011-05-25)-stable) date Wed 09 Oct 2013 04:42:06 PM EDT*
G01*
G70*
G90*
%MOIN*%
G04 Gerber Fmt 3.4, Leading zero omitted, Abs format*
%FSLAX34Y34*%
G04 APERTURE LIST*
%ADD10C,0.006000*%
%ADD11C,0.009000*%
%ADD12C,0.096000*%
%ADD13C,0.160000*%
%ADD14C,0.180000*%
%ADD15C,0.175000*%
%ADD16O,0.080000X0.120000*%
%ADD17C,0.080000*%
%ADD18R,0.120000X0.070000*%
%ADD19R,0.070000X0.120000*%
%ADD20R,0.067000X0.067000*%
%ADD21C,0.093000*%
%ADD22R,0.093000X0.093000*%
%ADD23C,0.170000*%
%ADD24C,0.140000*%
%ADD25R,0.085000X0.085000*%
%ADD26C,0.085000*%
G04 APERTURE END LIST*
G54D10*
G54D11*
X89500Y-51500D02*
X43500Y-51500D01*
X43500Y-30500D02*
X89500Y-30500D01*
X43500Y-30500D02*
X43500Y-51500D01*
X89500Y-51500D02*
X89500Y-30500D01*
G54D12*
X88320Y-41000D03*
G54D13*
X87140Y-41000D03*
G54D14*
X84780Y-41000D03*
G54D13*
X87530Y-39230D03*
X87530Y-42770D03*
G54D15*
X50500Y-50500D03*
X51000Y-31500D03*
X83000Y-50500D03*
X80500Y-31500D03*
G54D16*
X56000Y-50500D03*
X57000Y-50500D03*
X58000Y-50500D03*
X59000Y-50500D03*
X60000Y-50500D03*
X61000Y-50500D03*
X62000Y-50500D03*
X63000Y-50500D03*
X65000Y-50500D03*
X66000Y-50500D03*
X67000Y-50500D03*
X68000Y-50500D03*
X69000Y-50500D03*
X70000Y-50500D03*
X71000Y-50500D03*
X72000Y-50500D03*
X74000Y-50500D03*
X75000Y-50500D03*
X76000Y-50500D03*
X77000Y-50500D03*
X78000Y-50500D03*
X79000Y-50500D03*
X80000Y-50500D03*
X81000Y-50500D03*
X52400Y-31500D03*
X53400Y-31500D03*
X54400Y-31500D03*
X55400Y-31500D03*
X56400Y-31500D03*
X57400Y-31500D03*
X58400Y-31500D03*
X59400Y-31500D03*
X60400Y-31500D03*
X61400Y-31500D03*
X63000Y-31500D03*
X70000Y-31500D03*
X69000Y-31500D03*
X68000Y-31500D03*
X67000Y-31500D03*
X66000Y-31500D03*
X65000Y-31500D03*
X64000Y-31500D03*
X72000Y-31500D03*
X73000Y-31500D03*
X74000Y-31500D03*
X75000Y-31500D03*
X76000Y-31500D03*
X77000Y-31500D03*
X78000Y-31500D03*
X79000Y-31500D03*
G54D17*
X82000Y-31500D03*
X83000Y-31500D03*
X82000Y-32500D03*
X83000Y-32500D03*
X82000Y-33500D03*
X83000Y-33500D03*
X82000Y-34500D03*
X83000Y-34500D03*
X82000Y-35500D03*
X83000Y-35500D03*
X82000Y-36500D03*
X83000Y-36500D03*
X82000Y-37500D03*
X83000Y-37500D03*
X82000Y-38500D03*
X83000Y-38500D03*
X82000Y-39500D03*
X83000Y-39500D03*
X82000Y-40500D03*
X83000Y-40500D03*
X82000Y-41500D03*
X83000Y-41500D03*
X82000Y-42500D03*
X83000Y-42500D03*
X82000Y-43500D03*
X83000Y-43500D03*
X82000Y-44500D03*
X83000Y-44500D03*
X82000Y-45500D03*
X83000Y-45500D03*
X82000Y-46500D03*
X83000Y-46500D03*
X82000Y-47500D03*
X83000Y-47500D03*
X82000Y-48500D03*
X83000Y-48500D03*
G54D18*
X60000Y-46400D03*
X60000Y-47600D03*
G54D19*
X84900Y-35250D03*
X86100Y-35250D03*
X84900Y-37000D03*
X86100Y-37000D03*
G54D18*
X66000Y-46400D03*
X66000Y-47600D03*
G54D19*
X84900Y-33500D03*
X86100Y-33500D03*
X84900Y-31750D03*
X86100Y-31750D03*
G54D18*
X72000Y-46400D03*
X72000Y-47600D03*
G54D20*
X55415Y-36250D03*
X54585Y-36250D03*
X87585Y-37000D03*
X88415Y-37000D03*
X51415Y-36250D03*
X50585Y-36250D03*
X79415Y-36250D03*
X78585Y-36250D03*
X75415Y-36250D03*
X74585Y-36250D03*
X59415Y-36250D03*
X58585Y-36250D03*
X63415Y-36250D03*
X62585Y-36250D03*
X67415Y-36250D03*
X66585Y-36250D03*
X71415Y-36250D03*
X70585Y-36250D03*
G54D21*
X69000Y-47000D03*
X69000Y-48000D03*
G54D22*
X69000Y-46000D03*
G54D21*
X75250Y-47000D03*
X75250Y-48000D03*
G54D22*
X75250Y-46000D03*
G54D21*
X63000Y-47000D03*
X63000Y-48000D03*
G54D22*
X63000Y-46000D03*
G54D21*
X57000Y-47000D03*
X57000Y-48000D03*
G54D22*
X57000Y-46000D03*
G54D21*
X51500Y-34000D03*
G54D22*
X50500Y-34000D03*
G54D21*
X55500Y-34000D03*
G54D22*
X54500Y-34000D03*
G54D21*
X59500Y-34000D03*
G54D22*
X58500Y-34000D03*
G54D21*
X63500Y-34000D03*
G54D22*
X62500Y-34000D03*
G54D21*
X67500Y-34000D03*
G54D22*
X66500Y-34000D03*
G54D21*
X71500Y-34000D03*
G54D22*
X70500Y-34000D03*
G54D21*
X75500Y-34000D03*
G54D22*
X74500Y-34000D03*
G54D21*
X79500Y-34000D03*
G54D22*
X78500Y-34000D03*
G54D18*
X88250Y-45150D03*
X88250Y-46350D03*
G54D19*
X51350Y-48250D03*
X50150Y-48250D03*
G54D18*
X54000Y-49100D03*
X54000Y-47900D03*
G54D19*
X50150Y-45750D03*
X51350Y-45750D03*
G54D23*
X44750Y-38500D03*
X44750Y-43500D03*
G54D17*
X46400Y-38300D03*
X46400Y-39300D03*
X46400Y-42700D03*
X46400Y-43700D03*
X48000Y-39250D03*
X48000Y-40250D03*
X48000Y-41250D03*
X48000Y-42250D03*
X49000Y-39750D03*
X49000Y-40750D03*
X49000Y-41750D03*
X49000Y-42750D03*
X50450Y-39250D03*
X50450Y-40250D03*
X51450Y-39750D03*
X51450Y-40750D03*
X50450Y-41250D03*
X51450Y-41750D03*
X50450Y-42250D03*
X51450Y-42750D03*
X53000Y-38300D03*
X53000Y-39300D03*
X53000Y-42700D03*
X53000Y-43700D03*
X86250Y-46250D03*
X86250Y-45250D03*
X86250Y-47250D03*
G54D24*
X59000Y-43000D03*
X59000Y-39000D03*
G54D25*
X61000Y-41000D03*
G54D26*
X61000Y-42000D03*
G54D24*
X63000Y-43000D03*
X71000Y-43000D03*
X71000Y-39000D03*
G54D25*
X73000Y-41000D03*
G54D26*
X73000Y-42000D03*
G54D24*
X75000Y-43000D03*
M02*
