G04 (created by PCBNEW-RS274X (2011-05-25)-stable) date Wed 09 Oct 2013 04:42:06 PM EDT*
G01*
G70*
G90*
%MOIN*%
G04 Gerber Fmt 3.4, Leading zero omitted, Abs format*
%FSLAX34Y34*%
G04 APERTURE LIST*
%ADD10C,0.006000*%
%ADD11C,0.012000*%
%ADD12C,0.009000*%
%ADD13C,0.015000*%
%ADD14C,0.005000*%
%ADD15C,0.010000*%
%ADD16C,0.096000*%
%ADD17C,0.160000*%
%ADD18C,0.180000*%
%ADD19C,0.175000*%
%ADD20O,0.080000X0.120000*%
%ADD21C,0.080000*%
%ADD22R,0.120000X0.070000*%
%ADD23R,0.070000X0.120000*%
%ADD24R,0.067000X0.067000*%
%ADD25C,0.093000*%
%ADD26R,0.093000X0.093000*%
%ADD27C,0.170000*%
%ADD28C,0.140000*%
%ADD29R,0.085000X0.085000*%
%ADD30C,0.085000*%
G04 APERTURE END LIST*
G54D10*
G54D11*
X76679Y-42085D02*
X76707Y-41999D01*
X76736Y-41971D01*
X76793Y-41942D01*
X76879Y-41942D01*
X76936Y-41971D01*
X76964Y-41999D01*
X76993Y-42057D01*
X76993Y-42285D01*
X76393Y-42285D01*
X76393Y-42085D01*
X76421Y-42028D01*
X76450Y-41999D01*
X76507Y-41971D01*
X76564Y-41971D01*
X76621Y-41999D01*
X76650Y-42028D01*
X76679Y-42085D01*
X76679Y-42285D01*
X76993Y-41685D02*
X76393Y-41685D01*
X76993Y-41342D01*
X76393Y-41342D01*
X76936Y-40713D02*
X76964Y-40742D01*
X76993Y-40828D01*
X76993Y-40885D01*
X76964Y-40970D01*
X76907Y-41028D01*
X76850Y-41056D01*
X76736Y-41085D01*
X76650Y-41085D01*
X76536Y-41056D01*
X76479Y-41028D01*
X76421Y-40970D01*
X76393Y-40885D01*
X76393Y-40828D01*
X76421Y-40742D01*
X76450Y-40713D01*
X76993Y-39685D02*
X76993Y-40028D01*
X76993Y-39856D02*
X76393Y-39856D01*
X76479Y-39913D01*
X76536Y-39971D01*
X76564Y-40028D01*
X64679Y-42085D02*
X64707Y-41999D01*
X64736Y-41971D01*
X64793Y-41942D01*
X64879Y-41942D01*
X64936Y-41971D01*
X64964Y-41999D01*
X64993Y-42057D01*
X64993Y-42285D01*
X64393Y-42285D01*
X64393Y-42085D01*
X64421Y-42028D01*
X64450Y-41999D01*
X64507Y-41971D01*
X64564Y-41971D01*
X64621Y-41999D01*
X64650Y-42028D01*
X64679Y-42085D01*
X64679Y-42285D01*
X64993Y-41685D02*
X64393Y-41685D01*
X64993Y-41342D01*
X64393Y-41342D01*
X64936Y-40713D02*
X64964Y-40742D01*
X64993Y-40828D01*
X64993Y-40885D01*
X64964Y-40970D01*
X64907Y-41028D01*
X64850Y-41056D01*
X64736Y-41085D01*
X64650Y-41085D01*
X64536Y-41056D01*
X64479Y-41028D01*
X64421Y-40970D01*
X64393Y-40885D01*
X64393Y-40828D01*
X64421Y-40742D01*
X64450Y-40713D01*
X64393Y-39885D02*
X64393Y-39828D01*
X64421Y-39771D01*
X64450Y-39742D01*
X64507Y-39713D01*
X64621Y-39685D01*
X64764Y-39685D01*
X64879Y-39713D01*
X64936Y-39742D01*
X64964Y-39771D01*
X64993Y-39828D01*
X64993Y-39885D01*
X64964Y-39942D01*
X64936Y-39971D01*
X64879Y-39999D01*
X64764Y-40028D01*
X64621Y-40028D01*
X64507Y-39999D01*
X64450Y-39971D01*
X64421Y-39942D01*
X64393Y-39885D01*
X55493Y-43342D02*
X54893Y-43342D01*
X55321Y-43142D01*
X54893Y-42942D01*
X55493Y-42942D01*
X55179Y-42456D02*
X55179Y-42656D01*
X55493Y-42656D02*
X54893Y-42656D01*
X54893Y-42370D01*
X55436Y-41799D02*
X55464Y-41828D01*
X55493Y-41914D01*
X55493Y-41971D01*
X55464Y-42056D01*
X55407Y-42114D01*
X55350Y-42142D01*
X55236Y-42171D01*
X55150Y-42171D01*
X55036Y-42142D01*
X54979Y-42114D01*
X54921Y-42056D01*
X54893Y-41971D01*
X54893Y-41914D01*
X54921Y-41828D01*
X54950Y-41799D01*
X55493Y-40771D02*
X55493Y-41114D01*
X55493Y-40942D02*
X54893Y-40942D01*
X54979Y-40999D01*
X55036Y-41057D01*
X55064Y-41114D01*
X54893Y-40143D02*
X54893Y-39800D01*
X55493Y-39971D02*
X54893Y-39971D01*
X54893Y-39486D02*
X54893Y-39372D01*
X54921Y-39314D01*
X54979Y-39257D01*
X55093Y-39229D01*
X55293Y-39229D01*
X55407Y-39257D01*
X55464Y-39314D01*
X55493Y-39372D01*
X55493Y-39486D01*
X55464Y-39543D01*
X55407Y-39600D01*
X55293Y-39629D01*
X55093Y-39629D01*
X54979Y-39600D01*
X54921Y-39543D01*
X54893Y-39486D01*
X55493Y-38971D02*
X54893Y-38971D01*
X54893Y-38743D01*
X54921Y-38685D01*
X54950Y-38657D01*
X55007Y-38628D01*
X55093Y-38628D01*
X55150Y-38657D01*
X55179Y-38685D01*
X55207Y-38743D01*
X55207Y-38971D01*
X54493Y-44228D02*
X53893Y-44228D01*
X54321Y-44028D01*
X53893Y-43828D01*
X54493Y-43828D01*
X54179Y-43342D02*
X54179Y-43542D01*
X54493Y-43542D02*
X53893Y-43542D01*
X53893Y-43256D01*
X54436Y-42685D02*
X54464Y-42714D01*
X54493Y-42800D01*
X54493Y-42857D01*
X54464Y-42942D01*
X54407Y-43000D01*
X54350Y-43028D01*
X54236Y-43057D01*
X54150Y-43057D01*
X54036Y-43028D01*
X53979Y-43000D01*
X53921Y-42942D01*
X53893Y-42857D01*
X53893Y-42800D01*
X53921Y-42714D01*
X53950Y-42685D01*
X53893Y-41857D02*
X53893Y-41800D01*
X53921Y-41743D01*
X53950Y-41714D01*
X54007Y-41685D01*
X54121Y-41657D01*
X54264Y-41657D01*
X54379Y-41685D01*
X54436Y-41714D01*
X54464Y-41743D01*
X54493Y-41800D01*
X54493Y-41857D01*
X54464Y-41914D01*
X54436Y-41943D01*
X54379Y-41971D01*
X54264Y-42000D01*
X54121Y-42000D01*
X54007Y-41971D01*
X53950Y-41943D01*
X53921Y-41914D01*
X53893Y-41857D01*
X54179Y-40743D02*
X54207Y-40657D01*
X54236Y-40629D01*
X54293Y-40600D01*
X54379Y-40600D01*
X54436Y-40629D01*
X54464Y-40657D01*
X54493Y-40715D01*
X54493Y-40943D01*
X53893Y-40943D01*
X53893Y-40743D01*
X53921Y-40686D01*
X53950Y-40657D01*
X54007Y-40629D01*
X54064Y-40629D01*
X54121Y-40657D01*
X54150Y-40686D01*
X54179Y-40743D01*
X54179Y-40943D01*
X53893Y-40229D02*
X53893Y-40115D01*
X53921Y-40057D01*
X53979Y-40000D01*
X54093Y-39972D01*
X54293Y-39972D01*
X54407Y-40000D01*
X54464Y-40057D01*
X54493Y-40115D01*
X54493Y-40229D01*
X54464Y-40286D01*
X54407Y-40343D01*
X54293Y-40372D01*
X54093Y-40372D01*
X53979Y-40343D01*
X53921Y-40286D01*
X53893Y-40229D01*
X53893Y-39800D02*
X53893Y-39457D01*
X54493Y-39628D02*
X53893Y-39628D01*
X53893Y-39343D02*
X53893Y-39000D01*
X54493Y-39171D02*
X53893Y-39171D01*
X53893Y-38686D02*
X53893Y-38572D01*
X53921Y-38514D01*
X53979Y-38457D01*
X54093Y-38429D01*
X54293Y-38429D01*
X54407Y-38457D01*
X54464Y-38514D01*
X54493Y-38572D01*
X54493Y-38686D01*
X54464Y-38743D01*
X54407Y-38800D01*
X54293Y-38829D01*
X54093Y-38829D01*
X53979Y-38800D01*
X53921Y-38743D01*
X53893Y-38686D01*
X54493Y-38171D02*
X53893Y-38171D01*
X54321Y-37971D01*
X53893Y-37771D01*
X54493Y-37771D01*
G54D12*
X89500Y-51500D02*
X43500Y-51500D01*
X43500Y-30500D02*
X89500Y-30500D01*
X43500Y-30500D02*
X43500Y-51500D01*
G54D11*
X78095Y-49706D02*
X78095Y-49420D01*
X78324Y-49763D02*
X77524Y-49563D01*
X78324Y-49363D01*
X78324Y-49163D02*
X77790Y-49163D01*
X77943Y-49163D02*
X77867Y-49135D01*
X77829Y-49106D01*
X77790Y-49049D01*
X77790Y-48992D01*
X78324Y-48535D02*
X77524Y-48535D01*
X78286Y-48535D02*
X78324Y-48592D01*
X78324Y-48706D01*
X78286Y-48764D01*
X78248Y-48792D01*
X78171Y-48821D01*
X77943Y-48821D01*
X77867Y-48792D01*
X77829Y-48764D01*
X77790Y-48706D01*
X77790Y-48592D01*
X77829Y-48535D01*
X77790Y-47992D02*
X78324Y-47992D01*
X77790Y-48249D02*
X78210Y-48249D01*
X78286Y-48221D01*
X78324Y-48163D01*
X78324Y-48078D01*
X78286Y-48021D01*
X78248Y-47992D01*
X78324Y-47706D02*
X77790Y-47706D01*
X77524Y-47706D02*
X77562Y-47735D01*
X77600Y-47706D01*
X77562Y-47678D01*
X77524Y-47706D01*
X77600Y-47706D01*
X77790Y-47420D02*
X78324Y-47420D01*
X77867Y-47420D02*
X77829Y-47392D01*
X77790Y-47334D01*
X77790Y-47249D01*
X77829Y-47192D01*
X77905Y-47163D01*
X78324Y-47163D01*
X78324Y-46791D02*
X78286Y-46849D01*
X78248Y-46877D01*
X78171Y-46906D01*
X77943Y-46906D01*
X77867Y-46877D01*
X77829Y-46849D01*
X77790Y-46791D01*
X77790Y-46706D01*
X77829Y-46649D01*
X77867Y-46620D01*
X77943Y-46591D01*
X78171Y-46591D01*
X78248Y-46620D01*
X78286Y-46649D01*
X78324Y-46706D01*
X78324Y-46791D01*
X78324Y-45534D02*
X77943Y-45734D01*
X78324Y-45877D02*
X77524Y-45877D01*
X77524Y-45649D01*
X77562Y-45591D01*
X77600Y-45563D01*
X77676Y-45534D01*
X77790Y-45534D01*
X77867Y-45563D01*
X77905Y-45591D01*
X77943Y-45649D01*
X77943Y-45877D01*
X78286Y-45049D02*
X78324Y-45106D01*
X78324Y-45220D01*
X78286Y-45277D01*
X78210Y-45306D01*
X77905Y-45306D01*
X77829Y-45277D01*
X77790Y-45220D01*
X77790Y-45106D01*
X77829Y-45049D01*
X77905Y-45020D01*
X77981Y-45020D01*
X78057Y-45306D01*
X78324Y-44677D02*
X78286Y-44735D01*
X78210Y-44763D01*
X77524Y-44763D01*
X78324Y-44192D02*
X77905Y-44192D01*
X77829Y-44221D01*
X77790Y-44278D01*
X77790Y-44392D01*
X77829Y-44449D01*
X78286Y-44192D02*
X78324Y-44249D01*
X78324Y-44392D01*
X78286Y-44449D01*
X78210Y-44478D01*
X78133Y-44478D01*
X78057Y-44449D01*
X78019Y-44392D01*
X78019Y-44249D01*
X77981Y-44192D01*
X77790Y-43963D02*
X78324Y-43820D01*
X77790Y-43678D02*
X78324Y-43820D01*
X78514Y-43878D01*
X78552Y-43906D01*
X78590Y-43963D01*
X78324Y-42992D02*
X77524Y-42992D01*
X78095Y-42792D01*
X77524Y-42592D01*
X78324Y-42592D01*
X77790Y-42392D02*
X77790Y-42163D01*
X78324Y-42306D02*
X77638Y-42306D01*
X77562Y-42278D01*
X77524Y-42220D01*
X77524Y-42163D01*
X78286Y-41706D02*
X78324Y-41763D01*
X78324Y-41877D01*
X78286Y-41935D01*
X78248Y-41963D01*
X78171Y-41992D01*
X77943Y-41992D01*
X77867Y-41963D01*
X77829Y-41935D01*
X77790Y-41877D01*
X77790Y-41763D01*
X77829Y-41706D01*
X78248Y-40649D02*
X78286Y-40678D01*
X78324Y-40764D01*
X78324Y-40821D01*
X78286Y-40906D01*
X78210Y-40964D01*
X78133Y-40992D01*
X77981Y-41021D01*
X77867Y-41021D01*
X77714Y-40992D01*
X77638Y-40964D01*
X77562Y-40906D01*
X77524Y-40821D01*
X77524Y-40764D01*
X77562Y-40678D01*
X77600Y-40649D01*
X78324Y-40306D02*
X78286Y-40364D01*
X78248Y-40392D01*
X78171Y-40421D01*
X77943Y-40421D01*
X77867Y-40392D01*
X77829Y-40364D01*
X77790Y-40306D01*
X77790Y-40221D01*
X77829Y-40164D01*
X77867Y-40135D01*
X77943Y-40106D01*
X78171Y-40106D01*
X78248Y-40135D01*
X78286Y-40164D01*
X78324Y-40221D01*
X78324Y-40306D01*
X77790Y-39849D02*
X78324Y-39849D01*
X77867Y-39849D02*
X77829Y-39821D01*
X77790Y-39763D01*
X77790Y-39678D01*
X77829Y-39621D01*
X77905Y-39592D01*
X78324Y-39592D01*
X77790Y-39392D02*
X77790Y-39163D01*
X77524Y-39306D02*
X78210Y-39306D01*
X78286Y-39278D01*
X78324Y-39220D01*
X78324Y-39163D01*
X78324Y-38963D02*
X77790Y-38963D01*
X77943Y-38963D02*
X77867Y-38935D01*
X77829Y-38906D01*
X77790Y-38849D01*
X77790Y-38792D01*
X78324Y-38506D02*
X78286Y-38564D01*
X78248Y-38592D01*
X78171Y-38621D01*
X77943Y-38621D01*
X77867Y-38592D01*
X77829Y-38564D01*
X77790Y-38506D01*
X77790Y-38421D01*
X77829Y-38364D01*
X77867Y-38335D01*
X77943Y-38306D01*
X78171Y-38306D01*
X78248Y-38335D01*
X78286Y-38364D01*
X78324Y-38421D01*
X78324Y-38506D01*
X78324Y-37963D02*
X78286Y-38021D01*
X78210Y-38049D01*
X77524Y-38049D01*
X78324Y-37649D02*
X78286Y-37707D01*
X78210Y-37735D01*
X77524Y-37735D01*
X78286Y-37193D02*
X78324Y-37250D01*
X78324Y-37364D01*
X78286Y-37421D01*
X78210Y-37450D01*
X77905Y-37450D01*
X77829Y-37421D01*
X77790Y-37364D01*
X77790Y-37250D01*
X77829Y-37193D01*
X77905Y-37164D01*
X77981Y-37164D01*
X78057Y-37450D01*
X78324Y-36907D02*
X77790Y-36907D01*
X77943Y-36907D02*
X77867Y-36879D01*
X77829Y-36850D01*
X77790Y-36793D01*
X77790Y-36736D01*
X80024Y-47856D02*
X80024Y-47742D01*
X80062Y-47684D01*
X80138Y-47627D01*
X80290Y-47599D01*
X80557Y-47599D01*
X80710Y-47627D01*
X80786Y-47684D01*
X80824Y-47742D01*
X80824Y-47856D01*
X80786Y-47913D01*
X80710Y-47970D01*
X80557Y-47999D01*
X80290Y-47999D01*
X80138Y-47970D01*
X80062Y-47913D01*
X80024Y-47856D01*
X80786Y-47084D02*
X80824Y-47141D01*
X80824Y-47255D01*
X80786Y-47313D01*
X80748Y-47341D01*
X80671Y-47370D01*
X80443Y-47370D01*
X80367Y-47341D01*
X80329Y-47313D01*
X80290Y-47255D01*
X80290Y-47141D01*
X80329Y-47084D01*
X80290Y-46913D02*
X80290Y-46684D01*
X80024Y-46827D02*
X80710Y-46827D01*
X80786Y-46799D01*
X80824Y-46741D01*
X80824Y-46684D01*
X80100Y-46056D02*
X80062Y-46027D01*
X80024Y-45970D01*
X80024Y-45827D01*
X80062Y-45770D01*
X80100Y-45741D01*
X80176Y-45713D01*
X80252Y-45713D01*
X80367Y-45741D01*
X80824Y-46084D01*
X80824Y-45713D01*
X80024Y-45342D02*
X80024Y-45285D01*
X80062Y-45228D01*
X80100Y-45199D01*
X80176Y-45170D01*
X80329Y-45142D01*
X80519Y-45142D01*
X80671Y-45170D01*
X80748Y-45199D01*
X80786Y-45228D01*
X80824Y-45285D01*
X80824Y-45342D01*
X80786Y-45399D01*
X80748Y-45428D01*
X80671Y-45456D01*
X80519Y-45485D01*
X80329Y-45485D01*
X80176Y-45456D01*
X80100Y-45428D01*
X80062Y-45399D01*
X80024Y-45342D01*
X80824Y-44571D02*
X80824Y-44914D01*
X80824Y-44742D02*
X80024Y-44742D01*
X80138Y-44799D01*
X80214Y-44857D01*
X80252Y-44914D01*
X80024Y-44371D02*
X80024Y-44000D01*
X80329Y-44200D01*
X80329Y-44114D01*
X80367Y-44057D01*
X80405Y-44028D01*
X80481Y-44000D01*
X80671Y-44000D01*
X80748Y-44028D01*
X80786Y-44057D01*
X80824Y-44114D01*
X80824Y-44286D01*
X80786Y-44343D01*
X80748Y-44371D01*
X78774Y-47485D02*
X79574Y-47285D01*
X78774Y-47085D01*
X79155Y-46885D02*
X79155Y-46685D01*
X79574Y-46599D02*
X79574Y-46885D01*
X78774Y-46885D01*
X78774Y-46599D01*
X79574Y-45999D02*
X79193Y-46199D01*
X79574Y-46342D02*
X78774Y-46342D01*
X78774Y-46114D01*
X78812Y-46056D01*
X78850Y-46028D01*
X78926Y-45999D01*
X79040Y-45999D01*
X79117Y-46028D01*
X79155Y-46056D01*
X79193Y-46114D01*
X79193Y-46342D01*
X79574Y-45428D02*
X79574Y-45771D01*
X79574Y-45599D02*
X78774Y-45599D01*
X78888Y-45656D01*
X78964Y-45714D01*
X79002Y-45771D01*
X79498Y-45171D02*
X79536Y-45143D01*
X79574Y-45171D01*
X79536Y-45200D01*
X79498Y-45171D01*
X79574Y-45171D01*
X78774Y-44771D02*
X78774Y-44714D01*
X78812Y-44657D01*
X78850Y-44628D01*
X78926Y-44599D01*
X79079Y-44571D01*
X79269Y-44571D01*
X79421Y-44599D01*
X79498Y-44628D01*
X79536Y-44657D01*
X79574Y-44714D01*
X79574Y-44771D01*
X79536Y-44828D01*
X79498Y-44857D01*
X79421Y-44885D01*
X79269Y-44914D01*
X79079Y-44914D01*
X78926Y-44885D01*
X78850Y-44857D01*
X78812Y-44828D01*
X78774Y-44771D01*
G54D12*
X89500Y-51500D02*
X89500Y-30500D01*
G54D13*
X89500Y-38250D02*
X89500Y-43750D01*
X89500Y-43750D02*
X83750Y-43750D01*
X83750Y-43750D02*
X83750Y-38250D01*
X83750Y-38250D02*
X89500Y-38250D01*
X71750Y-48500D02*
X71735Y-48645D01*
X71693Y-48785D01*
X71624Y-48915D01*
X71532Y-49028D01*
X71419Y-49121D01*
X71290Y-49191D01*
X71150Y-49234D01*
X71005Y-49249D01*
X70860Y-49236D01*
X70720Y-49195D01*
X70590Y-49127D01*
X70476Y-49035D01*
X70382Y-48923D01*
X70311Y-48795D01*
X70267Y-48655D01*
X70251Y-48510D01*
X70263Y-48365D01*
X70303Y-48224D01*
X70370Y-48094D01*
X70461Y-47980D01*
X70572Y-47885D01*
X70700Y-47813D01*
X70839Y-47768D01*
X70985Y-47751D01*
X71130Y-47762D01*
X71271Y-47801D01*
X71401Y-47867D01*
X71517Y-47957D01*
X71612Y-48068D01*
X71685Y-48195D01*
X71731Y-48334D01*
X71749Y-48480D01*
X71750Y-48500D01*
X71750Y-37500D02*
X71735Y-37645D01*
X71693Y-37785D01*
X71624Y-37915D01*
X71532Y-38028D01*
X71419Y-38121D01*
X71290Y-38191D01*
X71150Y-38234D01*
X71005Y-38249D01*
X70860Y-38236D01*
X70720Y-38195D01*
X70590Y-38127D01*
X70476Y-38035D01*
X70382Y-37923D01*
X70311Y-37795D01*
X70267Y-37655D01*
X70251Y-37510D01*
X70263Y-37365D01*
X70303Y-37224D01*
X70370Y-37094D01*
X70461Y-36980D01*
X70572Y-36885D01*
X70700Y-36813D01*
X70839Y-36768D01*
X70985Y-36751D01*
X71130Y-36762D01*
X71271Y-36801D01*
X71401Y-36867D01*
X71517Y-36957D01*
X71612Y-37068D01*
X71685Y-37195D01*
X71731Y-37334D01*
X71749Y-37480D01*
X71750Y-37500D01*
X69500Y-42000D02*
X71500Y-42000D01*
X71500Y-42000D02*
X71500Y-39000D01*
X71500Y-39000D02*
X69500Y-39000D01*
X69500Y-39000D02*
X69500Y-42000D01*
X50750Y-34250D02*
X50750Y-32500D01*
X51750Y-32250D02*
X53750Y-32250D01*
X53750Y-32250D02*
X53750Y-34250D01*
X53750Y-34250D02*
X50750Y-34250D01*
X75500Y-40500D02*
X75476Y-40742D01*
X75405Y-40976D01*
X75291Y-41191D01*
X75136Y-41380D01*
X74948Y-41536D01*
X74734Y-41652D01*
X74501Y-41724D01*
X74258Y-41749D01*
X74016Y-41727D01*
X73782Y-41658D01*
X73566Y-41545D01*
X73376Y-41393D01*
X73219Y-41206D01*
X73102Y-40992D01*
X73028Y-40759D01*
X73001Y-40517D01*
X73021Y-40275D01*
X73088Y-40040D01*
X73200Y-39823D01*
X73351Y-39632D01*
X73537Y-39474D01*
X73750Y-39355D01*
X73982Y-39280D01*
X74224Y-39251D01*
X74467Y-39269D01*
X74702Y-39335D01*
X74919Y-39445D01*
X75112Y-39595D01*
X75271Y-39780D01*
X75391Y-39992D01*
X75468Y-40224D01*
X75499Y-40466D01*
X75500Y-40500D01*
X42500Y-39000D02*
X42500Y-34000D01*
X42500Y-34000D02*
X48750Y-34000D01*
X48750Y-34000D02*
X48750Y-39000D01*
X48750Y-39000D02*
X42500Y-39000D01*
X71000Y-51250D02*
X71000Y-51500D01*
X71500Y-50000D02*
X72000Y-49500D01*
X44000Y-50250D02*
X44000Y-46250D01*
X44000Y-46250D02*
X49500Y-46250D01*
X49500Y-46250D02*
X49500Y-50250D01*
X49500Y-50250D02*
X44000Y-50250D01*
X70500Y-30500D02*
X71000Y-31000D01*
X71000Y-31000D02*
X71000Y-35500D01*
X71000Y-35500D02*
X72000Y-36500D01*
X72000Y-36500D02*
X72000Y-49500D01*
X45000Y-51500D02*
X45000Y-30500D01*
X45000Y-30500D02*
X83000Y-30500D01*
X83000Y-30500D02*
X84000Y-31500D01*
X84000Y-31500D02*
X84000Y-35500D01*
X84000Y-35500D02*
X85000Y-36500D01*
X85000Y-36500D02*
X85000Y-50000D01*
X85000Y-50000D02*
X84000Y-51000D01*
X84000Y-51000D02*
X84000Y-51500D01*
X84000Y-51500D02*
X45000Y-51500D01*
X59800Y-45800D02*
X60200Y-45800D01*
X60000Y-46000D02*
X60000Y-45600D01*
G54D14*
X60550Y-46700D02*
X60550Y-46100D01*
X60550Y-46100D02*
X59450Y-46100D01*
X59450Y-46100D02*
X59450Y-46700D01*
X59450Y-47300D02*
X59450Y-47900D01*
X59450Y-47900D02*
X60550Y-47900D01*
X60550Y-47900D02*
X60550Y-47300D01*
G54D13*
X84300Y-35450D02*
X84300Y-35050D01*
X84500Y-35250D02*
X84100Y-35250D01*
G54D14*
X85200Y-34700D02*
X84600Y-34700D01*
X84600Y-34700D02*
X84600Y-35800D01*
X84600Y-35800D02*
X85200Y-35800D01*
X85800Y-35800D02*
X86400Y-35800D01*
X86400Y-35800D02*
X86400Y-34700D01*
X86400Y-34700D02*
X85800Y-34700D01*
X85200Y-36450D02*
X84600Y-36450D01*
X84600Y-36450D02*
X84600Y-37550D01*
X84600Y-37550D02*
X85200Y-37550D01*
X85800Y-37550D02*
X86400Y-37550D01*
X86400Y-37550D02*
X86400Y-36450D01*
X86400Y-36450D02*
X85800Y-36450D01*
X66550Y-46700D02*
X66550Y-46100D01*
X66550Y-46100D02*
X65450Y-46100D01*
X65450Y-46100D02*
X65450Y-46700D01*
X65450Y-47300D02*
X65450Y-47900D01*
X65450Y-47900D02*
X66550Y-47900D01*
X66550Y-47900D02*
X66550Y-47300D01*
X85200Y-32950D02*
X84600Y-32950D01*
X84600Y-32950D02*
X84600Y-34050D01*
X84600Y-34050D02*
X85200Y-34050D01*
X85800Y-34050D02*
X86400Y-34050D01*
X86400Y-34050D02*
X86400Y-32950D01*
X86400Y-32950D02*
X85800Y-32950D01*
X85200Y-31200D02*
X84600Y-31200D01*
X84600Y-31200D02*
X84600Y-32300D01*
X84600Y-32300D02*
X85200Y-32300D01*
X85800Y-32300D02*
X86400Y-32300D01*
X86400Y-32300D02*
X86400Y-31200D01*
X86400Y-31200D02*
X85800Y-31200D01*
X72550Y-46700D02*
X72550Y-46100D01*
X72550Y-46100D02*
X71450Y-46100D01*
X71450Y-46100D02*
X71450Y-46700D01*
X71450Y-47300D02*
X71450Y-47900D01*
X71450Y-47900D02*
X72550Y-47900D01*
X72550Y-47900D02*
X72550Y-47300D01*
G54D13*
X56000Y-36050D02*
X56000Y-36450D01*
X55800Y-36250D02*
X56200Y-36250D01*
X87000Y-37200D02*
X87000Y-36800D01*
X87200Y-37000D02*
X86800Y-37000D01*
X52000Y-36050D02*
X52000Y-36450D01*
X51800Y-36250D02*
X52200Y-36250D01*
X80000Y-36050D02*
X80000Y-36450D01*
X79800Y-36250D02*
X80200Y-36250D01*
X76000Y-36050D02*
X76000Y-36450D01*
X75800Y-36250D02*
X76200Y-36250D01*
X60000Y-36050D02*
X60000Y-36450D01*
X59800Y-36250D02*
X60200Y-36250D01*
X64000Y-36050D02*
X64000Y-36450D01*
X63800Y-36250D02*
X64200Y-36250D01*
X68000Y-36050D02*
X68000Y-36450D01*
X67800Y-36250D02*
X68200Y-36250D01*
X72000Y-36050D02*
X72000Y-36450D01*
X71800Y-36250D02*
X72200Y-36250D01*
X67750Y-46250D02*
X68250Y-46000D01*
X68250Y-46000D02*
X67750Y-45750D01*
X67750Y-45750D02*
X67750Y-46250D01*
X67500Y-48750D02*
X67500Y-45250D01*
X67500Y-45250D02*
X68250Y-45250D01*
X67500Y-48750D02*
X68250Y-48750D01*
X68250Y-48750D02*
X69750Y-48750D01*
X69750Y-48750D02*
X69750Y-45250D01*
X69750Y-45250D02*
X68250Y-45250D01*
X68250Y-45250D02*
X68250Y-48750D01*
X74000Y-46250D02*
X74500Y-46000D01*
X74500Y-46000D02*
X74000Y-45750D01*
X74000Y-45750D02*
X74000Y-46250D01*
X73750Y-48750D02*
X73750Y-45250D01*
X73750Y-45250D02*
X74500Y-45250D01*
X73750Y-48750D02*
X74500Y-48750D01*
X74500Y-48750D02*
X76000Y-48750D01*
X76000Y-48750D02*
X76000Y-45250D01*
X76000Y-45250D02*
X74500Y-45250D01*
X74500Y-45250D02*
X74500Y-48750D01*
X61750Y-46250D02*
X62250Y-46000D01*
X62250Y-46000D02*
X61750Y-45750D01*
X61750Y-45750D02*
X61750Y-46250D01*
X61500Y-48750D02*
X61500Y-45250D01*
X61500Y-45250D02*
X62250Y-45250D01*
X61500Y-48750D02*
X62250Y-48750D01*
X62250Y-48750D02*
X63750Y-48750D01*
X63750Y-48750D02*
X63750Y-45250D01*
X63750Y-45250D02*
X62250Y-45250D01*
X62250Y-45250D02*
X62250Y-48750D01*
X55750Y-46250D02*
X56250Y-46000D01*
X56250Y-46000D02*
X55750Y-45750D01*
X55750Y-45750D02*
X55750Y-46250D01*
X55500Y-48750D02*
X55500Y-45250D01*
X55500Y-45250D02*
X56250Y-45250D01*
X55500Y-48750D02*
X56250Y-48750D01*
X56250Y-48750D02*
X57750Y-48750D01*
X57750Y-48750D02*
X57750Y-45250D01*
X57750Y-45250D02*
X56250Y-45250D01*
X56250Y-45250D02*
X56250Y-48750D01*
X52250Y-33250D02*
X49750Y-33250D01*
X52250Y-34750D02*
X49750Y-34750D01*
X52250Y-35500D02*
X49750Y-35500D01*
X50750Y-35250D02*
X50500Y-34750D01*
X50500Y-34750D02*
X50250Y-35250D01*
X50250Y-35250D02*
X50750Y-35250D01*
X49750Y-35500D02*
X49750Y-34750D01*
X52250Y-35500D02*
X52250Y-34750D01*
X52250Y-34750D02*
X52250Y-33250D01*
X49750Y-33250D02*
X49750Y-34750D01*
X56250Y-33250D02*
X53750Y-33250D01*
X56250Y-34750D02*
X53750Y-34750D01*
X56250Y-35500D02*
X53750Y-35500D01*
X54750Y-35250D02*
X54500Y-34750D01*
X54500Y-34750D02*
X54250Y-35250D01*
X54250Y-35250D02*
X54750Y-35250D01*
X53750Y-35500D02*
X53750Y-34750D01*
X56250Y-35500D02*
X56250Y-34750D01*
X56250Y-34750D02*
X56250Y-33250D01*
X53750Y-33250D02*
X53750Y-34750D01*
X60250Y-33250D02*
X57750Y-33250D01*
X60250Y-34750D02*
X57750Y-34750D01*
X60250Y-35500D02*
X57750Y-35500D01*
X58750Y-35250D02*
X58500Y-34750D01*
X58500Y-34750D02*
X58250Y-35250D01*
X58250Y-35250D02*
X58750Y-35250D01*
X57750Y-35500D02*
X57750Y-34750D01*
X60250Y-35500D02*
X60250Y-34750D01*
X60250Y-34750D02*
X60250Y-33250D01*
X57750Y-33250D02*
X57750Y-34750D01*
X64250Y-33250D02*
X61750Y-33250D01*
X64250Y-34750D02*
X61750Y-34750D01*
X64250Y-35500D02*
X61750Y-35500D01*
X62750Y-35250D02*
X62500Y-34750D01*
X62500Y-34750D02*
X62250Y-35250D01*
X62250Y-35250D02*
X62750Y-35250D01*
X61750Y-35500D02*
X61750Y-34750D01*
X64250Y-35500D02*
X64250Y-34750D01*
X64250Y-34750D02*
X64250Y-33250D01*
X61750Y-33250D02*
X61750Y-34750D01*
X68250Y-33250D02*
X65750Y-33250D01*
X68250Y-34750D02*
X65750Y-34750D01*
X68250Y-35500D02*
X65750Y-35500D01*
X66750Y-35250D02*
X66500Y-34750D01*
X66500Y-34750D02*
X66250Y-35250D01*
X66250Y-35250D02*
X66750Y-35250D01*
X65750Y-35500D02*
X65750Y-34750D01*
X68250Y-35500D02*
X68250Y-34750D01*
X68250Y-34750D02*
X68250Y-33250D01*
X65750Y-33250D02*
X65750Y-34750D01*
X72250Y-33250D02*
X69750Y-33250D01*
X72250Y-34750D02*
X69750Y-34750D01*
X72250Y-35500D02*
X69750Y-35500D01*
X70750Y-35250D02*
X70500Y-34750D01*
X70500Y-34750D02*
X70250Y-35250D01*
X70250Y-35250D02*
X70750Y-35250D01*
X69750Y-35500D02*
X69750Y-34750D01*
X72250Y-35500D02*
X72250Y-34750D01*
X72250Y-34750D02*
X72250Y-33250D01*
X69750Y-33250D02*
X69750Y-34750D01*
X76250Y-33250D02*
X73750Y-33250D01*
X76250Y-34750D02*
X73750Y-34750D01*
X76250Y-35500D02*
X73750Y-35500D01*
X74750Y-35250D02*
X74500Y-34750D01*
X74500Y-34750D02*
X74250Y-35250D01*
X74250Y-35250D02*
X74750Y-35250D01*
X73750Y-35500D02*
X73750Y-34750D01*
X76250Y-35500D02*
X76250Y-34750D01*
X76250Y-34750D02*
X76250Y-33250D01*
X73750Y-33250D02*
X73750Y-34750D01*
X80250Y-33250D02*
X77750Y-33250D01*
X80250Y-34750D02*
X77750Y-34750D01*
X80250Y-35500D02*
X77750Y-35500D01*
X78750Y-35250D02*
X78500Y-34750D01*
X78500Y-34750D02*
X78250Y-35250D01*
X78250Y-35250D02*
X78750Y-35250D01*
X77750Y-35500D02*
X77750Y-34750D01*
X80250Y-35500D02*
X80250Y-34750D01*
X80250Y-34750D02*
X80250Y-33250D01*
X77750Y-33250D02*
X77750Y-34750D01*
G54D14*
X88800Y-45450D02*
X88800Y-44850D01*
X88800Y-44850D02*
X87700Y-44850D01*
X87700Y-44850D02*
X87700Y-45450D01*
X87700Y-46050D02*
X87700Y-46650D01*
X87700Y-46650D02*
X88800Y-46650D01*
X88800Y-46650D02*
X88800Y-46050D01*
X51050Y-48800D02*
X51650Y-48800D01*
X51650Y-48800D02*
X51650Y-47700D01*
X51650Y-47700D02*
X51050Y-47700D01*
X50450Y-47700D02*
X49850Y-47700D01*
X49850Y-47700D02*
X49850Y-48800D01*
X49850Y-48800D02*
X50450Y-48800D01*
X53450Y-48800D02*
X53450Y-49400D01*
X53450Y-49400D02*
X54550Y-49400D01*
X54550Y-49400D02*
X54550Y-48800D01*
X54550Y-48200D02*
X54550Y-47600D01*
X54550Y-47600D02*
X53450Y-47600D01*
X53450Y-47600D02*
X53450Y-48200D01*
X50450Y-45200D02*
X49850Y-45200D01*
X49850Y-45200D02*
X49850Y-46300D01*
X49850Y-46300D02*
X50450Y-46300D01*
X51050Y-46300D02*
X51650Y-46300D01*
X51650Y-46300D02*
X51650Y-45200D01*
X51650Y-45200D02*
X51050Y-45200D01*
G54D13*
X43750Y-44500D02*
X43750Y-37750D01*
X42750Y-44500D02*
X42750Y-37750D01*
X42750Y-37750D02*
X53500Y-37750D01*
X53500Y-37750D02*
X53500Y-44500D01*
X53500Y-44500D02*
X42750Y-44500D01*
X87000Y-44000D02*
X83750Y-44000D01*
X83750Y-44000D02*
X83750Y-48500D01*
X83750Y-48500D02*
X87000Y-48500D01*
X87000Y-48500D02*
X87000Y-44000D01*
X58000Y-38000D02*
X64000Y-38000D01*
X58000Y-44000D02*
X64000Y-44000D01*
X58000Y-43000D02*
X57700Y-43000D01*
X57700Y-43000D02*
X57700Y-39000D01*
X57700Y-39000D02*
X58000Y-39000D01*
X62000Y-44000D02*
X62000Y-38000D01*
X58000Y-44000D02*
X58000Y-38000D01*
X64000Y-44000D02*
X64000Y-38000D01*
X70000Y-38000D02*
X76000Y-38000D01*
X70000Y-44000D02*
X76000Y-44000D01*
X70000Y-43000D02*
X69700Y-43000D01*
X69700Y-43000D02*
X69700Y-39000D01*
X69700Y-39000D02*
X70000Y-39000D01*
X74000Y-44000D02*
X74000Y-38000D01*
X70000Y-44000D02*
X70000Y-38000D01*
X76000Y-44000D02*
X76000Y-38000D01*
G54D15*
X88455Y-44412D02*
X88455Y-44012D01*
X88608Y-44012D01*
X88646Y-44031D01*
X88665Y-44050D01*
X88684Y-44088D01*
X88684Y-44145D01*
X88665Y-44183D01*
X88646Y-44202D01*
X88608Y-44221D01*
X88455Y-44221D01*
X89065Y-44412D02*
X88836Y-44412D01*
X88950Y-44412D02*
X88950Y-44012D01*
X88912Y-44069D01*
X88874Y-44107D01*
X88836Y-44126D01*
G54D11*
X81014Y-42656D02*
X81014Y-42199D01*
X81243Y-42428D02*
X80786Y-42428D01*
X80700Y-41942D02*
X80671Y-41913D01*
X80643Y-41856D01*
X80643Y-41713D01*
X80671Y-41656D01*
X80700Y-41627D01*
X80757Y-41599D01*
X80814Y-41599D01*
X80900Y-41627D01*
X81243Y-41970D01*
X81243Y-41599D01*
X80843Y-41085D02*
X81243Y-41085D01*
X80614Y-41228D02*
X81043Y-41371D01*
X81043Y-40999D01*
X80643Y-40857D02*
X81243Y-40657D01*
X80643Y-40457D01*
X81243Y-40257D02*
X80643Y-40257D01*
X80643Y-40114D01*
X80671Y-40029D01*
X80729Y-39971D01*
X80786Y-39943D01*
X80900Y-39914D01*
X80986Y-39914D01*
X81100Y-39943D01*
X81157Y-39971D01*
X81214Y-40029D01*
X81243Y-40114D01*
X81243Y-40257D01*
X81186Y-39314D02*
X81214Y-39343D01*
X81243Y-39429D01*
X81243Y-39486D01*
X81214Y-39571D01*
X81157Y-39629D01*
X81100Y-39657D01*
X80986Y-39686D01*
X80900Y-39686D01*
X80786Y-39657D01*
X80729Y-39629D01*
X80671Y-39571D01*
X80643Y-39486D01*
X80643Y-39429D01*
X80671Y-39343D01*
X80700Y-39314D01*
G54D15*
X59934Y-48624D02*
X59915Y-48643D01*
X59858Y-48662D01*
X59820Y-48662D01*
X59762Y-48643D01*
X59724Y-48605D01*
X59705Y-48567D01*
X59686Y-48490D01*
X59686Y-48433D01*
X59705Y-48357D01*
X59724Y-48319D01*
X59762Y-48281D01*
X59820Y-48262D01*
X59858Y-48262D01*
X59915Y-48281D01*
X59934Y-48300D01*
X60296Y-48262D02*
X60105Y-48262D01*
X60086Y-48452D01*
X60105Y-48433D01*
X60143Y-48414D01*
X60239Y-48414D01*
X60277Y-48433D01*
X60296Y-48452D01*
X60315Y-48490D01*
X60315Y-48586D01*
X60296Y-48624D01*
X60277Y-48643D01*
X60239Y-48662D01*
X60143Y-48662D01*
X60105Y-48643D01*
X60086Y-48624D01*
G54D14*
X59436Y-46850D02*
X59450Y-46836D01*
X59479Y-46821D01*
X59550Y-46821D01*
X59579Y-46836D01*
X59593Y-46850D01*
X59608Y-46879D01*
X59608Y-46907D01*
X59593Y-46950D01*
X59422Y-47121D01*
X59608Y-47121D01*
X59736Y-47093D02*
X59751Y-47107D01*
X59736Y-47121D01*
X59722Y-47107D01*
X59736Y-47093D01*
X59736Y-47121D01*
X59865Y-46850D02*
X59879Y-46836D01*
X59908Y-46821D01*
X59979Y-46821D01*
X60008Y-46836D01*
X60022Y-46850D01*
X60037Y-46879D01*
X60037Y-46907D01*
X60022Y-46950D01*
X59851Y-47121D01*
X60037Y-47121D01*
X60294Y-46921D02*
X60294Y-47121D01*
X60165Y-46921D02*
X60165Y-47079D01*
X60180Y-47107D01*
X60208Y-47121D01*
X60251Y-47121D01*
X60280Y-47107D01*
X60294Y-47093D01*
X60536Y-46964D02*
X60436Y-46964D01*
X60436Y-47121D02*
X60436Y-46821D01*
X60579Y-46821D01*
G54D15*
X86874Y-35316D02*
X86893Y-35335D01*
X86912Y-35392D01*
X86912Y-35430D01*
X86893Y-35488D01*
X86855Y-35526D01*
X86817Y-35545D01*
X86740Y-35564D01*
X86683Y-35564D01*
X86607Y-35545D01*
X86569Y-35526D01*
X86531Y-35488D01*
X86512Y-35430D01*
X86512Y-35392D01*
X86531Y-35335D01*
X86550Y-35316D01*
X86512Y-34973D02*
X86512Y-35050D01*
X86531Y-35088D01*
X86550Y-35107D01*
X86607Y-35145D01*
X86683Y-35164D01*
X86836Y-35164D01*
X86874Y-35145D01*
X86893Y-35126D01*
X86912Y-35088D01*
X86912Y-35011D01*
X86893Y-34973D01*
X86874Y-34954D01*
X86836Y-34935D01*
X86740Y-34935D01*
X86702Y-34954D01*
X86683Y-34973D01*
X86664Y-35011D01*
X86664Y-35088D01*
X86683Y-35126D01*
X86702Y-35145D01*
X86740Y-35164D01*
G54D14*
X85350Y-35814D02*
X85336Y-35800D01*
X85321Y-35771D01*
X85321Y-35700D01*
X85336Y-35671D01*
X85350Y-35657D01*
X85379Y-35642D01*
X85407Y-35642D01*
X85450Y-35657D01*
X85621Y-35828D01*
X85621Y-35642D01*
X85593Y-35514D02*
X85607Y-35499D01*
X85621Y-35514D01*
X85607Y-35528D01*
X85593Y-35514D01*
X85621Y-35514D01*
X85350Y-35385D02*
X85336Y-35371D01*
X85321Y-35342D01*
X85321Y-35271D01*
X85336Y-35242D01*
X85350Y-35228D01*
X85379Y-35213D01*
X85407Y-35213D01*
X85450Y-35228D01*
X85621Y-35399D01*
X85621Y-35213D01*
X85421Y-34956D02*
X85621Y-34956D01*
X85421Y-35085D02*
X85579Y-35085D01*
X85607Y-35070D01*
X85621Y-35042D01*
X85621Y-34999D01*
X85607Y-34970D01*
X85593Y-34956D01*
X85464Y-34714D02*
X85464Y-34814D01*
X85621Y-34814D02*
X85321Y-34814D01*
X85321Y-34671D01*
G54D15*
X84412Y-37066D02*
X84221Y-37200D01*
X84412Y-37295D02*
X84012Y-37295D01*
X84012Y-37142D01*
X84031Y-37104D01*
X84050Y-37085D01*
X84088Y-37066D01*
X84145Y-37066D01*
X84183Y-37085D01*
X84202Y-37104D01*
X84221Y-37142D01*
X84221Y-37295D01*
X84412Y-36685D02*
X84412Y-36914D01*
X84412Y-36800D02*
X84012Y-36800D01*
X84069Y-36838D01*
X84107Y-36876D01*
X84126Y-36914D01*
G54D14*
X85621Y-37393D02*
X85621Y-37565D01*
X85621Y-37479D02*
X85321Y-37479D01*
X85364Y-37508D01*
X85393Y-37536D01*
X85407Y-37565D01*
X85593Y-37265D02*
X85607Y-37250D01*
X85621Y-37265D01*
X85607Y-37279D01*
X85593Y-37265D01*
X85621Y-37265D01*
X85621Y-37107D02*
X85621Y-37050D01*
X85607Y-37022D01*
X85593Y-37007D01*
X85550Y-36979D01*
X85493Y-36964D01*
X85379Y-36964D01*
X85350Y-36979D01*
X85336Y-36993D01*
X85321Y-37022D01*
X85321Y-37079D01*
X85336Y-37107D01*
X85350Y-37122D01*
X85379Y-37136D01*
X85450Y-37136D01*
X85479Y-37122D01*
X85493Y-37107D01*
X85507Y-37079D01*
X85507Y-37022D01*
X85493Y-36993D01*
X85479Y-36979D01*
X85450Y-36964D01*
X85321Y-36707D02*
X85321Y-36764D01*
X85336Y-36793D01*
X85350Y-36807D01*
X85393Y-36836D01*
X85450Y-36850D01*
X85564Y-36850D01*
X85593Y-36836D01*
X85607Y-36821D01*
X85621Y-36793D01*
X85621Y-36736D01*
X85607Y-36707D01*
X85593Y-36693D01*
X85564Y-36678D01*
X85493Y-36678D01*
X85464Y-36693D01*
X85450Y-36707D01*
X85436Y-36736D01*
X85436Y-36793D01*
X85450Y-36821D01*
X85464Y-36836D01*
X85493Y-36850D01*
X85621Y-36550D02*
X85321Y-36550D01*
X85507Y-36521D02*
X85621Y-36435D01*
X85421Y-36435D02*
X85536Y-36550D01*
G54D15*
X65934Y-48624D02*
X65915Y-48643D01*
X65858Y-48662D01*
X65820Y-48662D01*
X65762Y-48643D01*
X65724Y-48605D01*
X65705Y-48567D01*
X65686Y-48490D01*
X65686Y-48433D01*
X65705Y-48357D01*
X65724Y-48319D01*
X65762Y-48281D01*
X65820Y-48262D01*
X65858Y-48262D01*
X65915Y-48281D01*
X65934Y-48300D01*
X66067Y-48262D02*
X66334Y-48262D01*
X66162Y-48662D01*
G54D14*
X65508Y-46821D02*
X65536Y-46821D01*
X65565Y-46836D01*
X65579Y-46850D01*
X65593Y-46879D01*
X65608Y-46936D01*
X65608Y-47007D01*
X65593Y-47064D01*
X65579Y-47093D01*
X65565Y-47107D01*
X65536Y-47121D01*
X65508Y-47121D01*
X65479Y-47107D01*
X65465Y-47093D01*
X65450Y-47064D01*
X65436Y-47007D01*
X65436Y-46936D01*
X65450Y-46879D01*
X65465Y-46850D01*
X65479Y-46836D01*
X65508Y-46821D01*
X65736Y-47093D02*
X65751Y-47107D01*
X65736Y-47121D01*
X65722Y-47107D01*
X65736Y-47093D01*
X65736Y-47121D01*
X66037Y-47121D02*
X65865Y-47121D01*
X65951Y-47121D02*
X65951Y-46821D01*
X65922Y-46864D01*
X65894Y-46893D01*
X65865Y-46907D01*
X66294Y-46921D02*
X66294Y-47121D01*
X66165Y-46921D02*
X66165Y-47079D01*
X66180Y-47107D01*
X66208Y-47121D01*
X66251Y-47121D01*
X66280Y-47107D01*
X66294Y-47093D01*
X66536Y-46964D02*
X66436Y-46964D01*
X66436Y-47121D02*
X66436Y-46821D01*
X66579Y-46821D01*
G54D15*
X86874Y-33566D02*
X86893Y-33585D01*
X86912Y-33642D01*
X86912Y-33680D01*
X86893Y-33738D01*
X86855Y-33776D01*
X86817Y-33795D01*
X86740Y-33814D01*
X86683Y-33814D01*
X86607Y-33795D01*
X86569Y-33776D01*
X86531Y-33738D01*
X86512Y-33680D01*
X86512Y-33642D01*
X86531Y-33585D01*
X86550Y-33566D01*
X86645Y-33223D02*
X86912Y-33223D01*
X86493Y-33319D02*
X86779Y-33414D01*
X86779Y-33166D01*
G54D14*
X85621Y-33821D02*
X85621Y-33993D01*
X85621Y-33907D02*
X85321Y-33907D01*
X85364Y-33936D01*
X85393Y-33964D01*
X85407Y-33993D01*
X85321Y-33635D02*
X85321Y-33607D01*
X85336Y-33578D01*
X85350Y-33564D01*
X85379Y-33550D01*
X85436Y-33535D01*
X85507Y-33535D01*
X85564Y-33550D01*
X85593Y-33564D01*
X85607Y-33578D01*
X85621Y-33607D01*
X85621Y-33635D01*
X85607Y-33664D01*
X85593Y-33678D01*
X85564Y-33693D01*
X85507Y-33707D01*
X85436Y-33707D01*
X85379Y-33693D01*
X85350Y-33678D01*
X85336Y-33664D01*
X85321Y-33635D01*
X85421Y-33278D02*
X85621Y-33278D01*
X85421Y-33407D02*
X85579Y-33407D01*
X85607Y-33392D01*
X85621Y-33364D01*
X85621Y-33321D01*
X85607Y-33292D01*
X85593Y-33278D01*
X85464Y-33036D02*
X85464Y-33136D01*
X85621Y-33136D02*
X85321Y-33136D01*
X85321Y-32993D01*
G54D15*
X86874Y-31816D02*
X86893Y-31835D01*
X86912Y-31892D01*
X86912Y-31930D01*
X86893Y-31988D01*
X86855Y-32026D01*
X86817Y-32045D01*
X86740Y-32064D01*
X86683Y-32064D01*
X86607Y-32045D01*
X86569Y-32026D01*
X86531Y-31988D01*
X86512Y-31930D01*
X86512Y-31892D01*
X86531Y-31835D01*
X86550Y-31816D01*
X86550Y-31664D02*
X86531Y-31645D01*
X86512Y-31607D01*
X86512Y-31511D01*
X86531Y-31473D01*
X86550Y-31454D01*
X86588Y-31435D01*
X86626Y-31435D01*
X86683Y-31454D01*
X86912Y-31683D01*
X86912Y-31435D01*
G54D14*
X85321Y-32242D02*
X85321Y-32214D01*
X85336Y-32185D01*
X85350Y-32171D01*
X85379Y-32157D01*
X85436Y-32142D01*
X85507Y-32142D01*
X85564Y-32157D01*
X85593Y-32171D01*
X85607Y-32185D01*
X85621Y-32214D01*
X85621Y-32242D01*
X85607Y-32271D01*
X85593Y-32285D01*
X85564Y-32300D01*
X85507Y-32314D01*
X85436Y-32314D01*
X85379Y-32300D01*
X85350Y-32285D01*
X85336Y-32271D01*
X85321Y-32242D01*
X85593Y-32014D02*
X85607Y-31999D01*
X85621Y-32014D01*
X85607Y-32028D01*
X85593Y-32014D01*
X85621Y-32014D01*
X85621Y-31713D02*
X85621Y-31885D01*
X85621Y-31799D02*
X85321Y-31799D01*
X85364Y-31828D01*
X85393Y-31856D01*
X85407Y-31885D01*
X85421Y-31456D02*
X85621Y-31456D01*
X85421Y-31585D02*
X85579Y-31585D01*
X85607Y-31570D01*
X85621Y-31542D01*
X85621Y-31499D01*
X85607Y-31470D01*
X85593Y-31456D01*
X85464Y-31214D02*
X85464Y-31314D01*
X85621Y-31314D02*
X85321Y-31314D01*
X85321Y-31171D01*
G54D15*
X72434Y-48624D02*
X72415Y-48643D01*
X72358Y-48662D01*
X72320Y-48662D01*
X72262Y-48643D01*
X72224Y-48605D01*
X72205Y-48567D01*
X72186Y-48490D01*
X72186Y-48433D01*
X72205Y-48357D01*
X72224Y-48319D01*
X72262Y-48281D01*
X72320Y-48262D01*
X72358Y-48262D01*
X72415Y-48281D01*
X72434Y-48300D01*
X72567Y-48262D02*
X72815Y-48262D01*
X72681Y-48414D01*
X72739Y-48414D01*
X72777Y-48433D01*
X72796Y-48452D01*
X72815Y-48490D01*
X72815Y-48586D01*
X72796Y-48624D01*
X72777Y-48643D01*
X72739Y-48662D01*
X72624Y-48662D01*
X72586Y-48643D01*
X72567Y-48624D01*
G54D14*
X71679Y-47121D02*
X71507Y-47121D01*
X71593Y-47121D02*
X71593Y-46821D01*
X71564Y-46864D01*
X71536Y-46893D01*
X71507Y-46907D01*
X71865Y-46821D02*
X71893Y-46821D01*
X71922Y-46836D01*
X71936Y-46850D01*
X71950Y-46879D01*
X71965Y-46936D01*
X71965Y-47007D01*
X71950Y-47064D01*
X71936Y-47093D01*
X71922Y-47107D01*
X71893Y-47121D01*
X71865Y-47121D01*
X71836Y-47107D01*
X71822Y-47093D01*
X71807Y-47064D01*
X71793Y-47007D01*
X71793Y-46936D01*
X71807Y-46879D01*
X71822Y-46850D01*
X71836Y-46836D01*
X71865Y-46821D01*
X72222Y-46921D02*
X72222Y-47121D01*
X72093Y-46921D02*
X72093Y-47079D01*
X72108Y-47107D01*
X72136Y-47121D01*
X72179Y-47121D01*
X72208Y-47107D01*
X72222Y-47093D01*
X72464Y-46964D02*
X72364Y-46964D01*
X72364Y-47121D02*
X72364Y-46821D01*
X72507Y-46821D01*
G54D15*
X53455Y-36412D02*
X53455Y-36012D01*
X53550Y-36012D01*
X53608Y-36031D01*
X53646Y-36069D01*
X53665Y-36107D01*
X53684Y-36183D01*
X53684Y-36240D01*
X53665Y-36317D01*
X53646Y-36355D01*
X53608Y-36393D01*
X53550Y-36412D01*
X53455Y-36412D01*
X53817Y-36012D02*
X54065Y-36012D01*
X53931Y-36164D01*
X53989Y-36164D01*
X54027Y-36183D01*
X54046Y-36202D01*
X54065Y-36240D01*
X54065Y-36336D01*
X54046Y-36374D01*
X54027Y-36393D01*
X53989Y-36412D01*
X53874Y-36412D01*
X53836Y-36393D01*
X53817Y-36374D01*
X87705Y-36412D02*
X87705Y-36012D01*
X87800Y-36012D01*
X87858Y-36031D01*
X87896Y-36069D01*
X87915Y-36107D01*
X87934Y-36183D01*
X87934Y-36240D01*
X87915Y-36317D01*
X87896Y-36355D01*
X87858Y-36393D01*
X87800Y-36412D01*
X87705Y-36412D01*
X88315Y-36412D02*
X88086Y-36412D01*
X88200Y-36412D02*
X88200Y-36012D01*
X88162Y-36069D01*
X88124Y-36107D01*
X88086Y-36126D01*
X49455Y-36412D02*
X49455Y-36012D01*
X49550Y-36012D01*
X49608Y-36031D01*
X49646Y-36069D01*
X49665Y-36107D01*
X49684Y-36183D01*
X49684Y-36240D01*
X49665Y-36317D01*
X49646Y-36355D01*
X49608Y-36393D01*
X49550Y-36412D01*
X49455Y-36412D01*
X49836Y-36050D02*
X49855Y-36031D01*
X49893Y-36012D01*
X49989Y-36012D01*
X50027Y-36031D01*
X50046Y-36050D01*
X50065Y-36088D01*
X50065Y-36126D01*
X50046Y-36183D01*
X49817Y-36412D01*
X50065Y-36412D01*
X77455Y-36412D02*
X77455Y-36012D01*
X77550Y-36012D01*
X77608Y-36031D01*
X77646Y-36069D01*
X77665Y-36107D01*
X77684Y-36183D01*
X77684Y-36240D01*
X77665Y-36317D01*
X77646Y-36355D01*
X77608Y-36393D01*
X77550Y-36412D01*
X77455Y-36412D01*
X77874Y-36412D02*
X77950Y-36412D01*
X77989Y-36393D01*
X78008Y-36374D01*
X78046Y-36317D01*
X78065Y-36240D01*
X78065Y-36088D01*
X78046Y-36050D01*
X78027Y-36031D01*
X77989Y-36012D01*
X77912Y-36012D01*
X77874Y-36031D01*
X77855Y-36050D01*
X77836Y-36088D01*
X77836Y-36183D01*
X77855Y-36221D01*
X77874Y-36240D01*
X77912Y-36260D01*
X77989Y-36260D01*
X78027Y-36240D01*
X78046Y-36221D01*
X78065Y-36183D01*
X73455Y-36412D02*
X73455Y-36012D01*
X73550Y-36012D01*
X73608Y-36031D01*
X73646Y-36069D01*
X73665Y-36107D01*
X73684Y-36183D01*
X73684Y-36240D01*
X73665Y-36317D01*
X73646Y-36355D01*
X73608Y-36393D01*
X73550Y-36412D01*
X73455Y-36412D01*
X73912Y-36183D02*
X73874Y-36164D01*
X73855Y-36145D01*
X73836Y-36107D01*
X73836Y-36088D01*
X73855Y-36050D01*
X73874Y-36031D01*
X73912Y-36012D01*
X73989Y-36012D01*
X74027Y-36031D01*
X74046Y-36050D01*
X74065Y-36088D01*
X74065Y-36107D01*
X74046Y-36145D01*
X74027Y-36164D01*
X73989Y-36183D01*
X73912Y-36183D01*
X73874Y-36202D01*
X73855Y-36221D01*
X73836Y-36260D01*
X73836Y-36336D01*
X73855Y-36374D01*
X73874Y-36393D01*
X73912Y-36412D01*
X73989Y-36412D01*
X74027Y-36393D01*
X74046Y-36374D01*
X74065Y-36336D01*
X74065Y-36260D01*
X74046Y-36221D01*
X74027Y-36202D01*
X73989Y-36183D01*
X57455Y-36412D02*
X57455Y-36012D01*
X57550Y-36012D01*
X57608Y-36031D01*
X57646Y-36069D01*
X57665Y-36107D01*
X57684Y-36183D01*
X57684Y-36240D01*
X57665Y-36317D01*
X57646Y-36355D01*
X57608Y-36393D01*
X57550Y-36412D01*
X57455Y-36412D01*
X58027Y-36145D02*
X58027Y-36412D01*
X57931Y-35993D02*
X57836Y-36279D01*
X58084Y-36279D01*
X61455Y-36412D02*
X61455Y-36012D01*
X61550Y-36012D01*
X61608Y-36031D01*
X61646Y-36069D01*
X61665Y-36107D01*
X61684Y-36183D01*
X61684Y-36240D01*
X61665Y-36317D01*
X61646Y-36355D01*
X61608Y-36393D01*
X61550Y-36412D01*
X61455Y-36412D01*
X62046Y-36012D02*
X61855Y-36012D01*
X61836Y-36202D01*
X61855Y-36183D01*
X61893Y-36164D01*
X61989Y-36164D01*
X62027Y-36183D01*
X62046Y-36202D01*
X62065Y-36240D01*
X62065Y-36336D01*
X62046Y-36374D01*
X62027Y-36393D01*
X61989Y-36412D01*
X61893Y-36412D01*
X61855Y-36393D01*
X61836Y-36374D01*
X65455Y-36412D02*
X65455Y-36012D01*
X65550Y-36012D01*
X65608Y-36031D01*
X65646Y-36069D01*
X65665Y-36107D01*
X65684Y-36183D01*
X65684Y-36240D01*
X65665Y-36317D01*
X65646Y-36355D01*
X65608Y-36393D01*
X65550Y-36412D01*
X65455Y-36412D01*
X66027Y-36012D02*
X65950Y-36012D01*
X65912Y-36031D01*
X65893Y-36050D01*
X65855Y-36107D01*
X65836Y-36183D01*
X65836Y-36336D01*
X65855Y-36374D01*
X65874Y-36393D01*
X65912Y-36412D01*
X65989Y-36412D01*
X66027Y-36393D01*
X66046Y-36374D01*
X66065Y-36336D01*
X66065Y-36240D01*
X66046Y-36202D01*
X66027Y-36183D01*
X65989Y-36164D01*
X65912Y-36164D01*
X65874Y-36183D01*
X65855Y-36202D01*
X65836Y-36240D01*
X69455Y-36412D02*
X69455Y-36012D01*
X69550Y-36012D01*
X69608Y-36031D01*
X69646Y-36069D01*
X69665Y-36107D01*
X69684Y-36183D01*
X69684Y-36240D01*
X69665Y-36317D01*
X69646Y-36355D01*
X69608Y-36393D01*
X69550Y-36412D01*
X69455Y-36412D01*
X69817Y-36012D02*
X70084Y-36012D01*
X69912Y-36412D01*
X68205Y-49412D02*
X68205Y-49012D01*
X68434Y-49412D02*
X68262Y-49183D01*
X68434Y-49012D02*
X68205Y-49240D01*
X68567Y-49012D02*
X68815Y-49012D01*
X68681Y-49164D01*
X68739Y-49164D01*
X68777Y-49183D01*
X68796Y-49202D01*
X68815Y-49240D01*
X68815Y-49336D01*
X68796Y-49374D01*
X68777Y-49393D01*
X68739Y-49412D01*
X68624Y-49412D01*
X68586Y-49393D01*
X68567Y-49374D01*
G54D11*
X66886Y-44821D02*
X67172Y-44821D01*
X66829Y-44993D02*
X67029Y-44393D01*
X67229Y-44993D01*
X67400Y-44450D02*
X67429Y-44421D01*
X67486Y-44393D01*
X67629Y-44393D01*
X67686Y-44421D01*
X67715Y-44450D01*
X67743Y-44507D01*
X67743Y-44564D01*
X67715Y-44650D01*
X67372Y-44993D01*
X67743Y-44993D01*
X68428Y-44364D02*
X67914Y-45136D01*
X68629Y-44993D02*
X68629Y-44393D01*
X68772Y-44393D01*
X68857Y-44421D01*
X68915Y-44479D01*
X68943Y-44536D01*
X68972Y-44650D01*
X68972Y-44736D01*
X68943Y-44850D01*
X68915Y-44907D01*
X68857Y-44964D01*
X68772Y-44993D01*
X68629Y-44993D01*
X69200Y-44450D02*
X69229Y-44421D01*
X69286Y-44393D01*
X69429Y-44393D01*
X69486Y-44421D01*
X69515Y-44450D01*
X69543Y-44507D01*
X69543Y-44564D01*
X69515Y-44650D01*
X69172Y-44993D01*
X69543Y-44993D01*
X70057Y-44593D02*
X70057Y-44993D01*
X69914Y-44364D02*
X69771Y-44793D01*
X70143Y-44793D01*
G54D15*
X74455Y-49412D02*
X74455Y-49012D01*
X74684Y-49412D02*
X74512Y-49183D01*
X74684Y-49012D02*
X74455Y-49240D01*
X75027Y-49145D02*
X75027Y-49412D01*
X74931Y-48993D02*
X74836Y-49279D01*
X75084Y-49279D01*
G54D11*
X73136Y-44821D02*
X73422Y-44821D01*
X73079Y-44993D02*
X73279Y-44393D01*
X73479Y-44993D01*
X73622Y-44393D02*
X73993Y-44393D01*
X73793Y-44621D01*
X73879Y-44621D01*
X73936Y-44650D01*
X73965Y-44679D01*
X73993Y-44736D01*
X73993Y-44879D01*
X73965Y-44936D01*
X73936Y-44964D01*
X73879Y-44993D01*
X73707Y-44993D01*
X73650Y-44964D01*
X73622Y-44936D01*
X74678Y-44364D02*
X74164Y-45136D01*
X74879Y-44993D02*
X74879Y-44393D01*
X75022Y-44393D01*
X75107Y-44421D01*
X75165Y-44479D01*
X75193Y-44536D01*
X75222Y-44650D01*
X75222Y-44736D01*
X75193Y-44850D01*
X75165Y-44907D01*
X75107Y-44964D01*
X75022Y-44993D01*
X74879Y-44993D01*
X75450Y-44450D02*
X75479Y-44421D01*
X75536Y-44393D01*
X75679Y-44393D01*
X75736Y-44421D01*
X75765Y-44450D01*
X75793Y-44507D01*
X75793Y-44564D01*
X75765Y-44650D01*
X75422Y-44993D01*
X75793Y-44993D01*
X76336Y-44393D02*
X76050Y-44393D01*
X76021Y-44679D01*
X76050Y-44650D01*
X76107Y-44621D01*
X76250Y-44621D01*
X76307Y-44650D01*
X76336Y-44679D01*
X76364Y-44736D01*
X76364Y-44879D01*
X76336Y-44936D01*
X76307Y-44964D01*
X76250Y-44993D01*
X76107Y-44993D01*
X76050Y-44964D01*
X76021Y-44936D01*
G54D15*
X62205Y-49412D02*
X62205Y-49012D01*
X62434Y-49412D02*
X62262Y-49183D01*
X62434Y-49012D02*
X62205Y-49240D01*
X62586Y-49050D02*
X62605Y-49031D01*
X62643Y-49012D01*
X62739Y-49012D01*
X62777Y-49031D01*
X62796Y-49050D01*
X62815Y-49088D01*
X62815Y-49126D01*
X62796Y-49183D01*
X62567Y-49412D01*
X62815Y-49412D01*
G54D11*
X60886Y-44821D02*
X61172Y-44821D01*
X60829Y-44993D02*
X61029Y-44393D01*
X61229Y-44993D01*
X61743Y-44993D02*
X61400Y-44993D01*
X61572Y-44993D02*
X61572Y-44393D01*
X61515Y-44479D01*
X61457Y-44536D01*
X61400Y-44564D01*
X62428Y-44364D02*
X61914Y-45136D01*
X62629Y-44993D02*
X62629Y-44393D01*
X62772Y-44393D01*
X62857Y-44421D01*
X62915Y-44479D01*
X62943Y-44536D01*
X62972Y-44650D01*
X62972Y-44736D01*
X62943Y-44850D01*
X62915Y-44907D01*
X62857Y-44964D01*
X62772Y-44993D01*
X62629Y-44993D01*
X63200Y-44450D02*
X63229Y-44421D01*
X63286Y-44393D01*
X63429Y-44393D01*
X63486Y-44421D01*
X63515Y-44450D01*
X63543Y-44507D01*
X63543Y-44564D01*
X63515Y-44650D01*
X63172Y-44993D01*
X63543Y-44993D01*
X63743Y-44393D02*
X64114Y-44393D01*
X63914Y-44621D01*
X64000Y-44621D01*
X64057Y-44650D01*
X64086Y-44679D01*
X64114Y-44736D01*
X64114Y-44879D01*
X64086Y-44936D01*
X64057Y-44964D01*
X64000Y-44993D01*
X63828Y-44993D01*
X63771Y-44964D01*
X63743Y-44936D01*
G54D15*
X56205Y-49412D02*
X56205Y-49012D01*
X56434Y-49412D02*
X56262Y-49183D01*
X56434Y-49012D02*
X56205Y-49240D01*
X56815Y-49412D02*
X56586Y-49412D01*
X56700Y-49412D02*
X56700Y-49012D01*
X56662Y-49069D01*
X56624Y-49107D01*
X56586Y-49126D01*
G54D11*
X54886Y-44821D02*
X55172Y-44821D01*
X54829Y-44993D02*
X55029Y-44393D01*
X55229Y-44993D01*
X55543Y-44393D02*
X55600Y-44393D01*
X55657Y-44421D01*
X55686Y-44450D01*
X55715Y-44507D01*
X55743Y-44621D01*
X55743Y-44764D01*
X55715Y-44879D01*
X55686Y-44936D01*
X55657Y-44964D01*
X55600Y-44993D01*
X55543Y-44993D01*
X55486Y-44964D01*
X55457Y-44936D01*
X55429Y-44879D01*
X55400Y-44764D01*
X55400Y-44621D01*
X55429Y-44507D01*
X55457Y-44450D01*
X55486Y-44421D01*
X55543Y-44393D01*
X56428Y-44364D02*
X55914Y-45136D01*
X56629Y-44993D02*
X56629Y-44393D01*
X56772Y-44393D01*
X56857Y-44421D01*
X56915Y-44479D01*
X56943Y-44536D01*
X56972Y-44650D01*
X56972Y-44736D01*
X56943Y-44850D01*
X56915Y-44907D01*
X56857Y-44964D01*
X56772Y-44993D01*
X56629Y-44993D01*
X57200Y-44450D02*
X57229Y-44421D01*
X57286Y-44393D01*
X57429Y-44393D01*
X57486Y-44421D01*
X57515Y-44450D01*
X57543Y-44507D01*
X57543Y-44564D01*
X57515Y-44650D01*
X57172Y-44993D01*
X57543Y-44993D01*
X57771Y-44450D02*
X57800Y-44421D01*
X57857Y-44393D01*
X58000Y-44393D01*
X58057Y-44421D01*
X58086Y-44450D01*
X58114Y-44507D01*
X58114Y-44564D01*
X58086Y-44650D01*
X57743Y-44993D01*
X58114Y-44993D01*
G54D15*
X51705Y-32912D02*
X51705Y-32512D01*
X51858Y-32512D01*
X51896Y-32531D01*
X51915Y-32550D01*
X51934Y-32588D01*
X51934Y-32645D01*
X51915Y-32683D01*
X51896Y-32702D01*
X51858Y-32721D01*
X51705Y-32721D01*
X52086Y-32550D02*
X52105Y-32531D01*
X52143Y-32512D01*
X52239Y-32512D01*
X52277Y-32531D01*
X52296Y-32550D01*
X52315Y-32588D01*
X52315Y-32626D01*
X52296Y-32683D01*
X52067Y-32912D01*
X52315Y-32912D01*
G54D11*
X49493Y-35378D02*
X49207Y-35578D01*
X49493Y-35721D02*
X48893Y-35721D01*
X48893Y-35493D01*
X48921Y-35435D01*
X48950Y-35407D01*
X49007Y-35378D01*
X49093Y-35378D01*
X49150Y-35407D01*
X49179Y-35435D01*
X49207Y-35493D01*
X49207Y-35721D01*
X49179Y-35121D02*
X49179Y-34921D01*
X49493Y-34835D02*
X49493Y-35121D01*
X48893Y-35121D01*
X48893Y-34835D01*
X49493Y-34292D02*
X49493Y-34578D01*
X48893Y-34578D01*
X49321Y-34121D02*
X49321Y-33835D01*
X49493Y-34178D02*
X48893Y-33978D01*
X49493Y-33778D01*
X49207Y-33464D02*
X49493Y-33464D01*
X48893Y-33664D02*
X49207Y-33464D01*
X48893Y-33264D01*
X48893Y-32950D02*
X48893Y-32893D01*
X48921Y-32836D01*
X48950Y-32807D01*
X49007Y-32778D01*
X49121Y-32750D01*
X49264Y-32750D01*
X49379Y-32778D01*
X49436Y-32807D01*
X49464Y-32836D01*
X49493Y-32893D01*
X49493Y-32950D01*
X49464Y-33007D01*
X49436Y-33036D01*
X49379Y-33064D01*
X49264Y-33093D01*
X49121Y-33093D01*
X49007Y-33064D01*
X48950Y-33036D01*
X48921Y-33007D01*
X48893Y-32950D01*
G54D15*
X55705Y-32912D02*
X55705Y-32512D01*
X55858Y-32512D01*
X55896Y-32531D01*
X55915Y-32550D01*
X55934Y-32588D01*
X55934Y-32645D01*
X55915Y-32683D01*
X55896Y-32702D01*
X55858Y-32721D01*
X55705Y-32721D01*
X56067Y-32512D02*
X56315Y-32512D01*
X56181Y-32664D01*
X56239Y-32664D01*
X56277Y-32683D01*
X56296Y-32702D01*
X56315Y-32740D01*
X56315Y-32836D01*
X56296Y-32874D01*
X56277Y-32893D01*
X56239Y-32912D01*
X56124Y-32912D01*
X56086Y-32893D01*
X56067Y-32874D01*
G54D11*
X53493Y-35378D02*
X53207Y-35578D01*
X53493Y-35721D02*
X52893Y-35721D01*
X52893Y-35493D01*
X52921Y-35435D01*
X52950Y-35407D01*
X53007Y-35378D01*
X53093Y-35378D01*
X53150Y-35407D01*
X53179Y-35435D01*
X53207Y-35493D01*
X53207Y-35721D01*
X53179Y-35121D02*
X53179Y-34921D01*
X53493Y-34835D02*
X53493Y-35121D01*
X52893Y-35121D01*
X52893Y-34835D01*
X53493Y-34292D02*
X53493Y-34578D01*
X52893Y-34578D01*
X53321Y-34121D02*
X53321Y-33835D01*
X53493Y-34178D02*
X52893Y-33978D01*
X53493Y-33778D01*
X53207Y-33464D02*
X53493Y-33464D01*
X52893Y-33664D02*
X53207Y-33464D01*
X52893Y-33264D01*
X53493Y-32750D02*
X53493Y-33093D01*
X53493Y-32921D02*
X52893Y-32921D01*
X52979Y-32978D01*
X53036Y-33036D01*
X53064Y-33093D01*
G54D15*
X59705Y-32912D02*
X59705Y-32512D01*
X59858Y-32512D01*
X59896Y-32531D01*
X59915Y-32550D01*
X59934Y-32588D01*
X59934Y-32645D01*
X59915Y-32683D01*
X59896Y-32702D01*
X59858Y-32721D01*
X59705Y-32721D01*
X60277Y-32645D02*
X60277Y-32912D01*
X60181Y-32493D02*
X60086Y-32779D01*
X60334Y-32779D01*
G54D11*
X57493Y-35378D02*
X57207Y-35578D01*
X57493Y-35721D02*
X56893Y-35721D01*
X56893Y-35493D01*
X56921Y-35435D01*
X56950Y-35407D01*
X57007Y-35378D01*
X57093Y-35378D01*
X57150Y-35407D01*
X57179Y-35435D01*
X57207Y-35493D01*
X57207Y-35721D01*
X57179Y-35121D02*
X57179Y-34921D01*
X57493Y-34835D02*
X57493Y-35121D01*
X56893Y-35121D01*
X56893Y-34835D01*
X57493Y-34292D02*
X57493Y-34578D01*
X56893Y-34578D01*
X57321Y-34121D02*
X57321Y-33835D01*
X57493Y-34178D02*
X56893Y-33978D01*
X57493Y-33778D01*
X57207Y-33464D02*
X57493Y-33464D01*
X56893Y-33664D02*
X57207Y-33464D01*
X56893Y-33264D01*
X56950Y-33093D02*
X56921Y-33064D01*
X56893Y-33007D01*
X56893Y-32864D01*
X56921Y-32807D01*
X56950Y-32778D01*
X57007Y-32750D01*
X57064Y-32750D01*
X57150Y-32778D01*
X57493Y-33121D01*
X57493Y-32750D01*
G54D15*
X63705Y-32912D02*
X63705Y-32512D01*
X63858Y-32512D01*
X63896Y-32531D01*
X63915Y-32550D01*
X63934Y-32588D01*
X63934Y-32645D01*
X63915Y-32683D01*
X63896Y-32702D01*
X63858Y-32721D01*
X63705Y-32721D01*
X64296Y-32512D02*
X64105Y-32512D01*
X64086Y-32702D01*
X64105Y-32683D01*
X64143Y-32664D01*
X64239Y-32664D01*
X64277Y-32683D01*
X64296Y-32702D01*
X64315Y-32740D01*
X64315Y-32836D01*
X64296Y-32874D01*
X64277Y-32893D01*
X64239Y-32912D01*
X64143Y-32912D01*
X64105Y-32893D01*
X64086Y-32874D01*
G54D11*
X61493Y-35378D02*
X61207Y-35578D01*
X61493Y-35721D02*
X60893Y-35721D01*
X60893Y-35493D01*
X60921Y-35435D01*
X60950Y-35407D01*
X61007Y-35378D01*
X61093Y-35378D01*
X61150Y-35407D01*
X61179Y-35435D01*
X61207Y-35493D01*
X61207Y-35721D01*
X61179Y-35121D02*
X61179Y-34921D01*
X61493Y-34835D02*
X61493Y-35121D01*
X60893Y-35121D01*
X60893Y-34835D01*
X61493Y-34292D02*
X61493Y-34578D01*
X60893Y-34578D01*
X61321Y-34121D02*
X61321Y-33835D01*
X61493Y-34178D02*
X60893Y-33978D01*
X61493Y-33778D01*
X61207Y-33464D02*
X61493Y-33464D01*
X60893Y-33664D02*
X61207Y-33464D01*
X60893Y-33264D01*
X60893Y-33121D02*
X60893Y-32750D01*
X61121Y-32950D01*
X61121Y-32864D01*
X61150Y-32807D01*
X61179Y-32778D01*
X61236Y-32750D01*
X61379Y-32750D01*
X61436Y-32778D01*
X61464Y-32807D01*
X61493Y-32864D01*
X61493Y-33036D01*
X61464Y-33093D01*
X61436Y-33121D01*
G54D15*
X67705Y-32912D02*
X67705Y-32512D01*
X67858Y-32512D01*
X67896Y-32531D01*
X67915Y-32550D01*
X67934Y-32588D01*
X67934Y-32645D01*
X67915Y-32683D01*
X67896Y-32702D01*
X67858Y-32721D01*
X67705Y-32721D01*
X68277Y-32512D02*
X68200Y-32512D01*
X68162Y-32531D01*
X68143Y-32550D01*
X68105Y-32607D01*
X68086Y-32683D01*
X68086Y-32836D01*
X68105Y-32874D01*
X68124Y-32893D01*
X68162Y-32912D01*
X68239Y-32912D01*
X68277Y-32893D01*
X68296Y-32874D01*
X68315Y-32836D01*
X68315Y-32740D01*
X68296Y-32702D01*
X68277Y-32683D01*
X68239Y-32664D01*
X68162Y-32664D01*
X68124Y-32683D01*
X68105Y-32702D01*
X68086Y-32740D01*
G54D11*
X65493Y-35378D02*
X65207Y-35578D01*
X65493Y-35721D02*
X64893Y-35721D01*
X64893Y-35493D01*
X64921Y-35435D01*
X64950Y-35407D01*
X65007Y-35378D01*
X65093Y-35378D01*
X65150Y-35407D01*
X65179Y-35435D01*
X65207Y-35493D01*
X65207Y-35721D01*
X65179Y-35121D02*
X65179Y-34921D01*
X65493Y-34835D02*
X65493Y-35121D01*
X64893Y-35121D01*
X64893Y-34835D01*
X65493Y-34292D02*
X65493Y-34578D01*
X64893Y-34578D01*
X65321Y-34121D02*
X65321Y-33835D01*
X65493Y-34178D02*
X64893Y-33978D01*
X65493Y-33778D01*
X65207Y-33464D02*
X65493Y-33464D01*
X64893Y-33664D02*
X65207Y-33464D01*
X64893Y-33264D01*
X65093Y-32807D02*
X65493Y-32807D01*
X64864Y-32950D02*
X65293Y-33093D01*
X65293Y-32721D01*
G54D15*
X71705Y-32912D02*
X71705Y-32512D01*
X71858Y-32512D01*
X71896Y-32531D01*
X71915Y-32550D01*
X71934Y-32588D01*
X71934Y-32645D01*
X71915Y-32683D01*
X71896Y-32702D01*
X71858Y-32721D01*
X71705Y-32721D01*
X72067Y-32512D02*
X72334Y-32512D01*
X72162Y-32912D01*
G54D11*
X69493Y-35378D02*
X69207Y-35578D01*
X69493Y-35721D02*
X68893Y-35721D01*
X68893Y-35493D01*
X68921Y-35435D01*
X68950Y-35407D01*
X69007Y-35378D01*
X69093Y-35378D01*
X69150Y-35407D01*
X69179Y-35435D01*
X69207Y-35493D01*
X69207Y-35721D01*
X69179Y-35121D02*
X69179Y-34921D01*
X69493Y-34835D02*
X69493Y-35121D01*
X68893Y-35121D01*
X68893Y-34835D01*
X69493Y-34292D02*
X69493Y-34578D01*
X68893Y-34578D01*
X69321Y-34121D02*
X69321Y-33835D01*
X69493Y-34178D02*
X68893Y-33978D01*
X69493Y-33778D01*
X69207Y-33464D02*
X69493Y-33464D01*
X68893Y-33664D02*
X69207Y-33464D01*
X68893Y-33264D01*
X68893Y-32778D02*
X68893Y-33064D01*
X69179Y-33093D01*
X69150Y-33064D01*
X69121Y-33007D01*
X69121Y-32864D01*
X69150Y-32807D01*
X69179Y-32778D01*
X69236Y-32750D01*
X69379Y-32750D01*
X69436Y-32778D01*
X69464Y-32807D01*
X69493Y-32864D01*
X69493Y-33007D01*
X69464Y-33064D01*
X69436Y-33093D01*
G54D15*
X75705Y-32912D02*
X75705Y-32512D01*
X75858Y-32512D01*
X75896Y-32531D01*
X75915Y-32550D01*
X75934Y-32588D01*
X75934Y-32645D01*
X75915Y-32683D01*
X75896Y-32702D01*
X75858Y-32721D01*
X75705Y-32721D01*
X76162Y-32683D02*
X76124Y-32664D01*
X76105Y-32645D01*
X76086Y-32607D01*
X76086Y-32588D01*
X76105Y-32550D01*
X76124Y-32531D01*
X76162Y-32512D01*
X76239Y-32512D01*
X76277Y-32531D01*
X76296Y-32550D01*
X76315Y-32588D01*
X76315Y-32607D01*
X76296Y-32645D01*
X76277Y-32664D01*
X76239Y-32683D01*
X76162Y-32683D01*
X76124Y-32702D01*
X76105Y-32721D01*
X76086Y-32760D01*
X76086Y-32836D01*
X76105Y-32874D01*
X76124Y-32893D01*
X76162Y-32912D01*
X76239Y-32912D01*
X76277Y-32893D01*
X76296Y-32874D01*
X76315Y-32836D01*
X76315Y-32760D01*
X76296Y-32721D01*
X76277Y-32702D01*
X76239Y-32683D01*
G54D11*
X73493Y-35378D02*
X73207Y-35578D01*
X73493Y-35721D02*
X72893Y-35721D01*
X72893Y-35493D01*
X72921Y-35435D01*
X72950Y-35407D01*
X73007Y-35378D01*
X73093Y-35378D01*
X73150Y-35407D01*
X73179Y-35435D01*
X73207Y-35493D01*
X73207Y-35721D01*
X73179Y-35121D02*
X73179Y-34921D01*
X73493Y-34835D02*
X73493Y-35121D01*
X72893Y-35121D01*
X72893Y-34835D01*
X73493Y-34292D02*
X73493Y-34578D01*
X72893Y-34578D01*
X73321Y-34121D02*
X73321Y-33835D01*
X73493Y-34178D02*
X72893Y-33978D01*
X73493Y-33778D01*
X73207Y-33464D02*
X73493Y-33464D01*
X72893Y-33664D02*
X73207Y-33464D01*
X72893Y-33264D01*
X72893Y-32807D02*
X72893Y-32921D01*
X72921Y-32978D01*
X72950Y-33007D01*
X73036Y-33064D01*
X73150Y-33093D01*
X73379Y-33093D01*
X73436Y-33064D01*
X73464Y-33036D01*
X73493Y-32978D01*
X73493Y-32864D01*
X73464Y-32807D01*
X73436Y-32778D01*
X73379Y-32750D01*
X73236Y-32750D01*
X73179Y-32778D01*
X73150Y-32807D01*
X73121Y-32864D01*
X73121Y-32978D01*
X73150Y-33036D01*
X73179Y-33064D01*
X73236Y-33093D01*
G54D15*
X79705Y-32912D02*
X79705Y-32512D01*
X79858Y-32512D01*
X79896Y-32531D01*
X79915Y-32550D01*
X79934Y-32588D01*
X79934Y-32645D01*
X79915Y-32683D01*
X79896Y-32702D01*
X79858Y-32721D01*
X79705Y-32721D01*
X80124Y-32912D02*
X80200Y-32912D01*
X80239Y-32893D01*
X80258Y-32874D01*
X80296Y-32817D01*
X80315Y-32740D01*
X80315Y-32588D01*
X80296Y-32550D01*
X80277Y-32531D01*
X80239Y-32512D01*
X80162Y-32512D01*
X80124Y-32531D01*
X80105Y-32550D01*
X80086Y-32588D01*
X80086Y-32683D01*
X80105Y-32721D01*
X80124Y-32740D01*
X80162Y-32760D01*
X80239Y-32760D01*
X80277Y-32740D01*
X80296Y-32721D01*
X80315Y-32683D01*
G54D11*
X77493Y-35378D02*
X77207Y-35578D01*
X77493Y-35721D02*
X76893Y-35721D01*
X76893Y-35493D01*
X76921Y-35435D01*
X76950Y-35407D01*
X77007Y-35378D01*
X77093Y-35378D01*
X77150Y-35407D01*
X77179Y-35435D01*
X77207Y-35493D01*
X77207Y-35721D01*
X77179Y-35121D02*
X77179Y-34921D01*
X77493Y-34835D02*
X77493Y-35121D01*
X76893Y-35121D01*
X76893Y-34835D01*
X77493Y-34292D02*
X77493Y-34578D01*
X76893Y-34578D01*
X77321Y-34121D02*
X77321Y-33835D01*
X77493Y-34178D02*
X76893Y-33978D01*
X77493Y-33778D01*
X77207Y-33464D02*
X77493Y-33464D01*
X76893Y-33664D02*
X77207Y-33464D01*
X76893Y-33264D01*
X76893Y-33121D02*
X76893Y-32721D01*
X77493Y-32978D01*
G54D15*
X89374Y-45816D02*
X89393Y-45835D01*
X89412Y-45892D01*
X89412Y-45930D01*
X89393Y-45988D01*
X89355Y-46026D01*
X89317Y-46045D01*
X89240Y-46064D01*
X89183Y-46064D01*
X89107Y-46045D01*
X89069Y-46026D01*
X89031Y-45988D01*
X89012Y-45930D01*
X89012Y-45892D01*
X89031Y-45835D01*
X89050Y-45816D01*
X89183Y-45588D02*
X89164Y-45626D01*
X89145Y-45645D01*
X89107Y-45664D01*
X89088Y-45664D01*
X89050Y-45645D01*
X89031Y-45626D01*
X89012Y-45588D01*
X89012Y-45511D01*
X89031Y-45473D01*
X89050Y-45454D01*
X89088Y-45435D01*
X89107Y-45435D01*
X89145Y-45454D01*
X89164Y-45473D01*
X89183Y-45511D01*
X89183Y-45588D01*
X89202Y-45626D01*
X89221Y-45645D01*
X89260Y-45664D01*
X89336Y-45664D01*
X89374Y-45645D01*
X89393Y-45626D01*
X89412Y-45588D01*
X89412Y-45511D01*
X89393Y-45473D01*
X89374Y-45454D01*
X89336Y-45435D01*
X89260Y-45435D01*
X89221Y-45454D01*
X89202Y-45473D01*
X89183Y-45511D01*
G54D14*
X87929Y-45871D02*
X87757Y-45871D01*
X87843Y-45871D02*
X87843Y-45571D01*
X87814Y-45614D01*
X87786Y-45643D01*
X87757Y-45657D01*
X88115Y-45571D02*
X88143Y-45571D01*
X88172Y-45586D01*
X88186Y-45600D01*
X88200Y-45629D01*
X88215Y-45686D01*
X88215Y-45757D01*
X88200Y-45814D01*
X88186Y-45843D01*
X88172Y-45857D01*
X88143Y-45871D01*
X88115Y-45871D01*
X88086Y-45857D01*
X88072Y-45843D01*
X88057Y-45814D01*
X88043Y-45757D01*
X88043Y-45686D01*
X88057Y-45629D01*
X88072Y-45600D01*
X88086Y-45586D01*
X88115Y-45571D01*
X88472Y-45671D02*
X88472Y-45871D01*
X88343Y-45671D02*
X88343Y-45829D01*
X88358Y-45857D01*
X88386Y-45871D01*
X88429Y-45871D01*
X88458Y-45857D01*
X88472Y-45843D01*
X88714Y-45714D02*
X88614Y-45714D01*
X88614Y-45871D02*
X88614Y-45571D01*
X88757Y-45571D01*
G54D15*
X50493Y-49374D02*
X50474Y-49393D01*
X50417Y-49412D01*
X50379Y-49412D01*
X50321Y-49393D01*
X50283Y-49355D01*
X50264Y-49317D01*
X50245Y-49240D01*
X50245Y-49183D01*
X50264Y-49107D01*
X50283Y-49069D01*
X50321Y-49031D01*
X50379Y-49012D01*
X50417Y-49012D01*
X50474Y-49031D01*
X50493Y-49050D01*
X50874Y-49412D02*
X50645Y-49412D01*
X50759Y-49412D02*
X50759Y-49012D01*
X50721Y-49069D01*
X50683Y-49107D01*
X50645Y-49126D01*
X51255Y-49412D02*
X51026Y-49412D01*
X51140Y-49412D02*
X51140Y-49012D01*
X51102Y-49069D01*
X51064Y-49107D01*
X51026Y-49126D01*
G54D14*
X50871Y-48428D02*
X50871Y-48600D01*
X50871Y-48514D02*
X50571Y-48514D01*
X50614Y-48543D01*
X50643Y-48571D01*
X50657Y-48600D01*
X50671Y-48171D02*
X50871Y-48171D01*
X50671Y-48300D02*
X50829Y-48300D01*
X50857Y-48285D01*
X50871Y-48257D01*
X50871Y-48214D01*
X50857Y-48185D01*
X50843Y-48171D01*
X50714Y-47929D02*
X50714Y-48029D01*
X50871Y-48029D02*
X50571Y-48029D01*
X50571Y-47886D01*
G54D15*
X53124Y-48757D02*
X53143Y-48776D01*
X53162Y-48833D01*
X53162Y-48871D01*
X53143Y-48929D01*
X53105Y-48967D01*
X53067Y-48986D01*
X52990Y-49005D01*
X52933Y-49005D01*
X52857Y-48986D01*
X52819Y-48967D01*
X52781Y-48929D01*
X52762Y-48871D01*
X52762Y-48833D01*
X52781Y-48776D01*
X52800Y-48757D01*
X53162Y-48376D02*
X53162Y-48605D01*
X53162Y-48491D02*
X52762Y-48491D01*
X52819Y-48529D01*
X52857Y-48567D01*
X52876Y-48605D01*
X52800Y-48224D02*
X52781Y-48205D01*
X52762Y-48167D01*
X52762Y-48071D01*
X52781Y-48033D01*
X52800Y-48014D01*
X52838Y-47995D01*
X52876Y-47995D01*
X52933Y-48014D01*
X53162Y-48243D01*
X53162Y-47995D01*
G54D14*
X53822Y-48621D02*
X53650Y-48621D01*
X53736Y-48621D02*
X53736Y-48321D01*
X53707Y-48364D01*
X53679Y-48393D01*
X53650Y-48407D01*
X54079Y-48421D02*
X54079Y-48621D01*
X53950Y-48421D02*
X53950Y-48579D01*
X53965Y-48607D01*
X53993Y-48621D01*
X54036Y-48621D01*
X54065Y-48607D01*
X54079Y-48593D01*
X54321Y-48464D02*
X54221Y-48464D01*
X54221Y-48621D02*
X54221Y-48321D01*
X54364Y-48321D01*
G54D15*
X50493Y-46874D02*
X50474Y-46893D01*
X50417Y-46912D01*
X50379Y-46912D01*
X50321Y-46893D01*
X50283Y-46855D01*
X50264Y-46817D01*
X50245Y-46740D01*
X50245Y-46683D01*
X50264Y-46607D01*
X50283Y-46569D01*
X50321Y-46531D01*
X50379Y-46512D01*
X50417Y-46512D01*
X50474Y-46531D01*
X50493Y-46550D01*
X50874Y-46912D02*
X50645Y-46912D01*
X50759Y-46912D02*
X50759Y-46512D01*
X50721Y-46569D01*
X50683Y-46607D01*
X50645Y-46626D01*
X51007Y-46512D02*
X51255Y-46512D01*
X51121Y-46664D01*
X51179Y-46664D01*
X51217Y-46683D01*
X51236Y-46702D01*
X51255Y-46740D01*
X51255Y-46836D01*
X51236Y-46874D01*
X51217Y-46893D01*
X51179Y-46912D01*
X51064Y-46912D01*
X51026Y-46893D01*
X51007Y-46874D01*
G54D14*
X50871Y-45928D02*
X50871Y-46100D01*
X50871Y-46014D02*
X50571Y-46014D01*
X50614Y-46043D01*
X50643Y-46071D01*
X50657Y-46100D01*
X50671Y-45671D02*
X50871Y-45671D01*
X50671Y-45800D02*
X50829Y-45800D01*
X50857Y-45785D01*
X50871Y-45757D01*
X50871Y-45714D01*
X50857Y-45685D01*
X50843Y-45671D01*
X50714Y-45429D02*
X50714Y-45529D01*
X50871Y-45529D02*
X50571Y-45529D01*
X50571Y-45386D01*
G54D15*
X52514Y-45162D02*
X52514Y-44762D01*
X52667Y-44762D01*
X52705Y-44781D01*
X52724Y-44800D01*
X52743Y-44838D01*
X52743Y-44895D01*
X52724Y-44933D01*
X52705Y-44952D01*
X52667Y-44971D01*
X52514Y-44971D01*
X53124Y-45162D02*
X52895Y-45162D01*
X53009Y-45162D02*
X53009Y-44762D01*
X52971Y-44819D01*
X52933Y-44857D01*
X52895Y-44876D01*
X53371Y-44762D02*
X53410Y-44762D01*
X53448Y-44781D01*
X53467Y-44800D01*
X53486Y-44838D01*
X53505Y-44914D01*
X53505Y-45010D01*
X53486Y-45086D01*
X53467Y-45124D01*
X53448Y-45143D01*
X53410Y-45162D01*
X53371Y-45162D01*
X53333Y-45143D01*
X53314Y-45124D01*
X53295Y-45086D01*
X53276Y-45010D01*
X53276Y-44914D01*
X53295Y-44838D01*
X53314Y-44800D01*
X53333Y-44781D01*
X53371Y-44762D01*
X85803Y-49162D02*
X85669Y-48971D01*
X85574Y-49162D02*
X85574Y-48762D01*
X85727Y-48762D01*
X85765Y-48781D01*
X85784Y-48800D01*
X85803Y-48838D01*
X85803Y-48895D01*
X85784Y-48933D01*
X85765Y-48952D01*
X85727Y-48971D01*
X85574Y-48971D01*
X85974Y-48952D02*
X86108Y-48952D01*
X86165Y-49162D02*
X85974Y-49162D01*
X85974Y-48762D01*
X86165Y-48762D01*
X86546Y-48781D02*
X86508Y-48762D01*
X86451Y-48762D01*
X86393Y-48781D01*
X86355Y-48819D01*
X86336Y-48857D01*
X86317Y-48933D01*
X86317Y-48990D01*
X86336Y-49067D01*
X86355Y-49105D01*
X86393Y-49143D01*
X86451Y-49162D01*
X86489Y-49162D01*
X86546Y-49143D01*
X86565Y-49124D01*
X86565Y-48990D01*
X86489Y-48990D01*
X86946Y-49162D02*
X86717Y-49162D01*
X86831Y-49162D02*
X86831Y-48762D01*
X86793Y-48819D01*
X86755Y-48857D01*
X86717Y-48876D01*
X60514Y-37662D02*
X60514Y-37262D01*
X60667Y-37262D01*
X60705Y-37281D01*
X60724Y-37300D01*
X60743Y-37338D01*
X60743Y-37395D01*
X60724Y-37433D01*
X60705Y-37452D01*
X60667Y-37471D01*
X60514Y-37471D01*
X61124Y-37662D02*
X60895Y-37662D01*
X61009Y-37662D02*
X61009Y-37262D01*
X60971Y-37319D01*
X60933Y-37357D01*
X60895Y-37376D01*
X61505Y-37662D02*
X61276Y-37662D01*
X61390Y-37662D02*
X61390Y-37262D01*
X61352Y-37319D01*
X61314Y-37357D01*
X61276Y-37376D01*
G54D11*
X57071Y-42614D02*
X57071Y-42328D01*
X57243Y-42671D02*
X56643Y-42471D01*
X57243Y-42271D01*
X56643Y-41957D02*
X56643Y-41900D01*
X56671Y-41843D01*
X56700Y-41814D01*
X56757Y-41785D01*
X56871Y-41757D01*
X57014Y-41757D01*
X57129Y-41785D01*
X57186Y-41814D01*
X57214Y-41843D01*
X57243Y-41900D01*
X57243Y-41957D01*
X57214Y-42014D01*
X57186Y-42043D01*
X57129Y-42071D01*
X57014Y-42100D01*
X56871Y-42100D01*
X56757Y-42071D01*
X56700Y-42043D01*
X56671Y-42014D01*
X56643Y-41957D01*
X56614Y-41072D02*
X57386Y-41586D01*
X57243Y-40871D02*
X56643Y-40871D01*
X56643Y-40728D01*
X56671Y-40643D01*
X56729Y-40585D01*
X56786Y-40557D01*
X56900Y-40528D01*
X56986Y-40528D01*
X57100Y-40557D01*
X57157Y-40585D01*
X57214Y-40643D01*
X57243Y-40728D01*
X57243Y-40871D01*
X56700Y-40300D02*
X56671Y-40271D01*
X56643Y-40214D01*
X56643Y-40071D01*
X56671Y-40014D01*
X56700Y-39985D01*
X56757Y-39957D01*
X56814Y-39957D01*
X56900Y-39985D01*
X57243Y-40328D01*
X57243Y-39957D01*
X56700Y-39729D02*
X56671Y-39700D01*
X56643Y-39643D01*
X56643Y-39500D01*
X56671Y-39443D01*
X56700Y-39414D01*
X56757Y-39386D01*
X56814Y-39386D01*
X56900Y-39414D01*
X57243Y-39757D01*
X57243Y-39386D01*
G54D15*
X72764Y-37662D02*
X72764Y-37262D01*
X72917Y-37262D01*
X72955Y-37281D01*
X72974Y-37300D01*
X72993Y-37338D01*
X72993Y-37395D01*
X72974Y-37433D01*
X72955Y-37452D01*
X72917Y-37471D01*
X72764Y-37471D01*
X73374Y-37662D02*
X73145Y-37662D01*
X73259Y-37662D02*
X73259Y-37262D01*
X73221Y-37319D01*
X73183Y-37357D01*
X73145Y-37376D01*
X73526Y-37300D02*
X73545Y-37281D01*
X73583Y-37262D01*
X73679Y-37262D01*
X73717Y-37281D01*
X73736Y-37300D01*
X73755Y-37338D01*
X73755Y-37376D01*
X73736Y-37433D01*
X73507Y-37662D01*
X73755Y-37662D01*
G54D11*
X69071Y-42614D02*
X69071Y-42328D01*
X69243Y-42671D02*
X68643Y-42471D01*
X69243Y-42271D01*
X69243Y-41757D02*
X69243Y-42100D01*
X69243Y-41928D02*
X68643Y-41928D01*
X68729Y-41985D01*
X68786Y-42043D01*
X68814Y-42100D01*
X68614Y-41072D02*
X69386Y-41586D01*
X69243Y-40871D02*
X68643Y-40871D01*
X68643Y-40728D01*
X68671Y-40643D01*
X68729Y-40585D01*
X68786Y-40557D01*
X68900Y-40528D01*
X68986Y-40528D01*
X69100Y-40557D01*
X69157Y-40585D01*
X69214Y-40643D01*
X69243Y-40728D01*
X69243Y-40871D01*
X68700Y-40300D02*
X68671Y-40271D01*
X68643Y-40214D01*
X68643Y-40071D01*
X68671Y-40014D01*
X68700Y-39985D01*
X68757Y-39957D01*
X68814Y-39957D01*
X68900Y-39985D01*
X69243Y-40328D01*
X69243Y-39957D01*
X68643Y-39757D02*
X68643Y-39386D01*
X68871Y-39586D01*
X68871Y-39500D01*
X68900Y-39443D01*
X68929Y-39414D01*
X68986Y-39386D01*
X69129Y-39386D01*
X69186Y-39414D01*
X69214Y-39443D01*
X69243Y-39500D01*
X69243Y-39672D01*
X69214Y-39729D01*
X69186Y-39757D01*
%LPC*%
G54D16*
X88320Y-41000D03*
G54D17*
X87140Y-41000D03*
G54D18*
X84780Y-41000D03*
G54D17*
X87530Y-39230D03*
X87530Y-42770D03*
G54D19*
X50500Y-50500D03*
X51000Y-31500D03*
X83000Y-50500D03*
X80500Y-31500D03*
G54D20*
X56000Y-50500D03*
X57000Y-50500D03*
X58000Y-50500D03*
X59000Y-50500D03*
X60000Y-50500D03*
X61000Y-50500D03*
X62000Y-50500D03*
X63000Y-50500D03*
X65000Y-50500D03*
X66000Y-50500D03*
X67000Y-50500D03*
X68000Y-50500D03*
X69000Y-50500D03*
X70000Y-50500D03*
X71000Y-50500D03*
X72000Y-50500D03*
X74000Y-50500D03*
X75000Y-50500D03*
X76000Y-50500D03*
X77000Y-50500D03*
X78000Y-50500D03*
X79000Y-50500D03*
X80000Y-50500D03*
X81000Y-50500D03*
X52400Y-31500D03*
X53400Y-31500D03*
X54400Y-31500D03*
X55400Y-31500D03*
X56400Y-31500D03*
X57400Y-31500D03*
X58400Y-31500D03*
X59400Y-31500D03*
X60400Y-31500D03*
X61400Y-31500D03*
X63000Y-31500D03*
X70000Y-31500D03*
X69000Y-31500D03*
X68000Y-31500D03*
X67000Y-31500D03*
X66000Y-31500D03*
X65000Y-31500D03*
X64000Y-31500D03*
X72000Y-31500D03*
X73000Y-31500D03*
X74000Y-31500D03*
X75000Y-31500D03*
X76000Y-31500D03*
X77000Y-31500D03*
X78000Y-31500D03*
X79000Y-31500D03*
G54D21*
X82000Y-31500D03*
X83000Y-31500D03*
X82000Y-32500D03*
X83000Y-32500D03*
X82000Y-33500D03*
X83000Y-33500D03*
X82000Y-34500D03*
X83000Y-34500D03*
X82000Y-35500D03*
X83000Y-35500D03*
X82000Y-36500D03*
X83000Y-36500D03*
X82000Y-37500D03*
X83000Y-37500D03*
X82000Y-38500D03*
X83000Y-38500D03*
X82000Y-39500D03*
X83000Y-39500D03*
X82000Y-40500D03*
X83000Y-40500D03*
X82000Y-41500D03*
X83000Y-41500D03*
X82000Y-42500D03*
X83000Y-42500D03*
X82000Y-43500D03*
X83000Y-43500D03*
X82000Y-44500D03*
X83000Y-44500D03*
X82000Y-45500D03*
X83000Y-45500D03*
X82000Y-46500D03*
X83000Y-46500D03*
X82000Y-47500D03*
X83000Y-47500D03*
X82000Y-48500D03*
X83000Y-48500D03*
G54D22*
X60000Y-46400D03*
X60000Y-47600D03*
G54D23*
X84900Y-35250D03*
X86100Y-35250D03*
X84900Y-37000D03*
X86100Y-37000D03*
G54D22*
X66000Y-46400D03*
X66000Y-47600D03*
G54D23*
X84900Y-33500D03*
X86100Y-33500D03*
X84900Y-31750D03*
X86100Y-31750D03*
G54D22*
X72000Y-46400D03*
X72000Y-47600D03*
G54D24*
X55415Y-36250D03*
X54585Y-36250D03*
X87585Y-37000D03*
X88415Y-37000D03*
X51415Y-36250D03*
X50585Y-36250D03*
X79415Y-36250D03*
X78585Y-36250D03*
X75415Y-36250D03*
X74585Y-36250D03*
X59415Y-36250D03*
X58585Y-36250D03*
X63415Y-36250D03*
X62585Y-36250D03*
X67415Y-36250D03*
X66585Y-36250D03*
X71415Y-36250D03*
X70585Y-36250D03*
G54D25*
X69000Y-47000D03*
X69000Y-48000D03*
G54D26*
X69000Y-46000D03*
G54D25*
X75250Y-47000D03*
X75250Y-48000D03*
G54D26*
X75250Y-46000D03*
G54D25*
X63000Y-47000D03*
X63000Y-48000D03*
G54D26*
X63000Y-46000D03*
G54D25*
X57000Y-47000D03*
X57000Y-48000D03*
G54D26*
X57000Y-46000D03*
G54D25*
X51500Y-34000D03*
G54D26*
X50500Y-34000D03*
G54D25*
X55500Y-34000D03*
G54D26*
X54500Y-34000D03*
G54D25*
X59500Y-34000D03*
G54D26*
X58500Y-34000D03*
G54D25*
X63500Y-34000D03*
G54D26*
X62500Y-34000D03*
G54D25*
X67500Y-34000D03*
G54D26*
X66500Y-34000D03*
G54D25*
X71500Y-34000D03*
G54D26*
X70500Y-34000D03*
G54D25*
X75500Y-34000D03*
G54D26*
X74500Y-34000D03*
G54D25*
X79500Y-34000D03*
G54D26*
X78500Y-34000D03*
G54D22*
X88250Y-45150D03*
X88250Y-46350D03*
G54D23*
X51350Y-48250D03*
X50150Y-48250D03*
G54D22*
X54000Y-49100D03*
X54000Y-47900D03*
G54D23*
X50150Y-45750D03*
X51350Y-45750D03*
G54D27*
X44750Y-38500D03*
X44750Y-43500D03*
G54D21*
X46400Y-38300D03*
X46400Y-39300D03*
X46400Y-42700D03*
X46400Y-43700D03*
X48000Y-39250D03*
X48000Y-40250D03*
X48000Y-41250D03*
X48000Y-42250D03*
X49000Y-39750D03*
X49000Y-40750D03*
X49000Y-41750D03*
X49000Y-42750D03*
X50450Y-39250D03*
X50450Y-40250D03*
X51450Y-39750D03*
X51450Y-40750D03*
X50450Y-41250D03*
X51450Y-41750D03*
X50450Y-42250D03*
X51450Y-42750D03*
X53000Y-38300D03*
X53000Y-39300D03*
X53000Y-42700D03*
X53000Y-43700D03*
X86250Y-46250D03*
X86250Y-45250D03*
X86250Y-47250D03*
G54D28*
X59000Y-43000D03*
X59000Y-39000D03*
G54D29*
X61000Y-41000D03*
G54D30*
X61000Y-42000D03*
G54D28*
X63000Y-43000D03*
X71000Y-43000D03*
X71000Y-39000D03*
G54D29*
X73000Y-41000D03*
G54D30*
X73000Y-42000D03*
G54D28*
X75000Y-43000D03*
M02*
