G04 (created by PCBNEW-RS274X (2011-05-25)-stable) date Wed 09 Oct 2013 04:42:06 PM EDT*
G01*
G70*
G90*
%MOIN*%
G04 Gerber Fmt 3.4, Leading zero omitted, Abs format*
%FSLAX34Y34*%
G04 APERTURE LIST*
%ADD10C,0.006000*%
%ADD11C,0.009000*%
%ADD12C,0.076000*%
%ADD13C,0.140000*%
%ADD14C,0.160000*%
%ADD15C,0.155000*%
%ADD16O,0.060000X0.100000*%
%ADD17C,0.060000*%
%ADD18R,0.100000X0.050000*%
%ADD19R,0.050000X0.100000*%
%ADD20R,0.047000X0.047000*%
%ADD21C,0.073000*%
%ADD22R,0.073000X0.073000*%
%ADD23C,0.150000*%
%ADD24C,0.120000*%
%ADD25R,0.065000X0.065000*%
%ADD26C,0.065000*%
%ADD27C,0.035000*%
%ADD28C,0.036000*%
%ADD29C,0.008000*%
%ADD30C,0.024000*%
%ADD31C,0.016000*%
%ADD32C,0.010000*%
G04 APERTURE END LIST*
G54D10*
G54D11*
X89500Y-51500D02*
X43500Y-51500D01*
X43500Y-30500D02*
X89500Y-30500D01*
X43500Y-30500D02*
X43500Y-51500D01*
X89500Y-51500D02*
X89500Y-30500D01*
G54D12*
X88320Y-41000D03*
G54D13*
X87140Y-41000D03*
G54D14*
X84780Y-41000D03*
G54D13*
X87530Y-39230D03*
X87530Y-42770D03*
G54D15*
X50500Y-50500D03*
X51000Y-31500D03*
X83000Y-50500D03*
X80500Y-31500D03*
G54D16*
X56000Y-50500D03*
X57000Y-50500D03*
X58000Y-50500D03*
X59000Y-50500D03*
X60000Y-50500D03*
X61000Y-50500D03*
X62000Y-50500D03*
X63000Y-50500D03*
X65000Y-50500D03*
X66000Y-50500D03*
X67000Y-50500D03*
X68000Y-50500D03*
X69000Y-50500D03*
X70000Y-50500D03*
X71000Y-50500D03*
X72000Y-50500D03*
X74000Y-50500D03*
X75000Y-50500D03*
X76000Y-50500D03*
X77000Y-50500D03*
X78000Y-50500D03*
X79000Y-50500D03*
X80000Y-50500D03*
X81000Y-50500D03*
X52400Y-31500D03*
X53400Y-31500D03*
X54400Y-31500D03*
X55400Y-31500D03*
X56400Y-31500D03*
X57400Y-31500D03*
X58400Y-31500D03*
X59400Y-31500D03*
X60400Y-31500D03*
X61400Y-31500D03*
X63000Y-31500D03*
X70000Y-31500D03*
X69000Y-31500D03*
X68000Y-31500D03*
X67000Y-31500D03*
X66000Y-31500D03*
X65000Y-31500D03*
X64000Y-31500D03*
X72000Y-31500D03*
X73000Y-31500D03*
X74000Y-31500D03*
X75000Y-31500D03*
X76000Y-31500D03*
X77000Y-31500D03*
X78000Y-31500D03*
X79000Y-31500D03*
G54D17*
X82000Y-31500D03*
X83000Y-31500D03*
X82000Y-32500D03*
X83000Y-32500D03*
X82000Y-33500D03*
X83000Y-33500D03*
X82000Y-34500D03*
X83000Y-34500D03*
X82000Y-35500D03*
X83000Y-35500D03*
X82000Y-36500D03*
X83000Y-36500D03*
X82000Y-37500D03*
X83000Y-37500D03*
X82000Y-38500D03*
X83000Y-38500D03*
X82000Y-39500D03*
X83000Y-39500D03*
X82000Y-40500D03*
X83000Y-40500D03*
X82000Y-41500D03*
X83000Y-41500D03*
X82000Y-42500D03*
X83000Y-42500D03*
X82000Y-43500D03*
X83000Y-43500D03*
X82000Y-44500D03*
X83000Y-44500D03*
X82000Y-45500D03*
X83000Y-45500D03*
X82000Y-46500D03*
X83000Y-46500D03*
X82000Y-47500D03*
X83000Y-47500D03*
X82000Y-48500D03*
X83000Y-48500D03*
G54D18*
X60000Y-46400D03*
X60000Y-47600D03*
G54D19*
X84900Y-35250D03*
X86100Y-35250D03*
X84900Y-37000D03*
X86100Y-37000D03*
G54D18*
X66000Y-46400D03*
X66000Y-47600D03*
G54D19*
X84900Y-33500D03*
X86100Y-33500D03*
X84900Y-31750D03*
X86100Y-31750D03*
G54D18*
X72000Y-46400D03*
X72000Y-47600D03*
G54D20*
X55415Y-36250D03*
X54585Y-36250D03*
X87585Y-37000D03*
X88415Y-37000D03*
X51415Y-36250D03*
X50585Y-36250D03*
X79415Y-36250D03*
X78585Y-36250D03*
X75415Y-36250D03*
X74585Y-36250D03*
X59415Y-36250D03*
X58585Y-36250D03*
X63415Y-36250D03*
X62585Y-36250D03*
X67415Y-36250D03*
X66585Y-36250D03*
X71415Y-36250D03*
X70585Y-36250D03*
G54D21*
X69000Y-47000D03*
X69000Y-48000D03*
G54D22*
X69000Y-46000D03*
G54D21*
X75250Y-47000D03*
X75250Y-48000D03*
G54D22*
X75250Y-46000D03*
G54D21*
X63000Y-47000D03*
X63000Y-48000D03*
G54D22*
X63000Y-46000D03*
G54D21*
X57000Y-47000D03*
X57000Y-48000D03*
G54D22*
X57000Y-46000D03*
G54D21*
X51500Y-34000D03*
G54D22*
X50500Y-34000D03*
G54D21*
X55500Y-34000D03*
G54D22*
X54500Y-34000D03*
G54D21*
X59500Y-34000D03*
G54D22*
X58500Y-34000D03*
G54D21*
X63500Y-34000D03*
G54D22*
X62500Y-34000D03*
G54D21*
X67500Y-34000D03*
G54D22*
X66500Y-34000D03*
G54D21*
X71500Y-34000D03*
G54D22*
X70500Y-34000D03*
G54D21*
X75500Y-34000D03*
G54D22*
X74500Y-34000D03*
G54D21*
X79500Y-34000D03*
G54D22*
X78500Y-34000D03*
G54D18*
X88250Y-45150D03*
X88250Y-46350D03*
G54D19*
X51350Y-48250D03*
X50150Y-48250D03*
G54D18*
X54000Y-49100D03*
X54000Y-47900D03*
G54D19*
X50150Y-45750D03*
X51350Y-45750D03*
G54D23*
X44750Y-38500D03*
X44750Y-43500D03*
G54D17*
X46400Y-38300D03*
X46400Y-39300D03*
X46400Y-42700D03*
X46400Y-43700D03*
X48000Y-39250D03*
X48000Y-40250D03*
X48000Y-41250D03*
X48000Y-42250D03*
X49000Y-39750D03*
X49000Y-40750D03*
X49000Y-41750D03*
X49000Y-42750D03*
X50450Y-39250D03*
X50450Y-40250D03*
X51450Y-39750D03*
X51450Y-40750D03*
X50450Y-41250D03*
X51450Y-41750D03*
X50450Y-42250D03*
X51450Y-42750D03*
X53000Y-38300D03*
X53000Y-39300D03*
X53000Y-42700D03*
X53000Y-43700D03*
X86250Y-46250D03*
X86250Y-45250D03*
X86250Y-47250D03*
G54D24*
X59000Y-43000D03*
X59000Y-39000D03*
G54D25*
X61000Y-41000D03*
G54D26*
X61000Y-42000D03*
G54D24*
X63000Y-43000D03*
X71000Y-43000D03*
X71000Y-39000D03*
G54D25*
X73000Y-41000D03*
G54D26*
X73000Y-42000D03*
G54D24*
X75000Y-43000D03*
G54D27*
X66219Y-43781D03*
X74400Y-40409D03*
X74451Y-39824D03*
X79958Y-41477D03*
X79586Y-41034D03*
X79796Y-42566D03*
X75749Y-40689D03*
X67447Y-45152D03*
X87500Y-47250D03*
X88250Y-49000D03*
X70000Y-47000D03*
X56000Y-42000D03*
X54000Y-39750D03*
X54000Y-47000D03*
X55250Y-38500D03*
X68250Y-41500D03*
X48500Y-45750D03*
X62632Y-37832D03*
X62527Y-38466D03*
X63661Y-37192D03*
X63809Y-36730D03*
X67010Y-36712D03*
X71025Y-36737D03*
X72463Y-37285D03*
X72046Y-36855D03*
X53525Y-46040D03*
X52038Y-48036D03*
G54D28*
X72000Y-46400D02*
X72783Y-46400D01*
X66000Y-46400D02*
X66783Y-46400D01*
X60000Y-46400D02*
X60783Y-46400D01*
X60000Y-46400D02*
X59217Y-46400D01*
X58817Y-46000D02*
X57648Y-46000D01*
X59217Y-46400D02*
X58817Y-46000D01*
X57000Y-46000D02*
X57648Y-46000D01*
X54084Y-49717D02*
X54000Y-49633D01*
X60000Y-49717D02*
X54084Y-49717D01*
X60000Y-50500D02*
X60000Y-49717D01*
X54000Y-49100D02*
X54000Y-49633D01*
X73183Y-46000D02*
X75250Y-46000D01*
X72783Y-46400D02*
X73183Y-46000D01*
X70817Y-46000D02*
X71217Y-46400D01*
X69000Y-46000D02*
X70817Y-46000D01*
X72000Y-46400D02*
X71217Y-46400D01*
X67952Y-46400D02*
X68352Y-46000D01*
X66783Y-46400D02*
X67952Y-46400D01*
X69000Y-46000D02*
X68352Y-46000D01*
X61183Y-46000D02*
X63000Y-46000D01*
X60783Y-46400D02*
X61183Y-46000D01*
X64817Y-46000D02*
X65217Y-46400D01*
X63000Y-46000D02*
X64817Y-46000D01*
X66000Y-46400D02*
X65217Y-46400D01*
G54D29*
X56491Y-46491D02*
X57000Y-47000D01*
X56491Y-44194D02*
X56491Y-46491D01*
X59685Y-41000D02*
X56491Y-44194D01*
X61000Y-41000D02*
X59685Y-41000D01*
X73904Y-41000D02*
X73000Y-41000D01*
X71941Y-43781D02*
X66219Y-43781D01*
X73904Y-41818D02*
X71941Y-43781D01*
X73904Y-41000D02*
X73904Y-41818D01*
X74988Y-41000D02*
X73904Y-41000D01*
X75742Y-40246D02*
X74988Y-41000D01*
X77007Y-40246D02*
X75742Y-40246D01*
X79779Y-43018D02*
X77007Y-40246D01*
X79811Y-43018D02*
X79779Y-43018D01*
X81366Y-41463D02*
X79811Y-43018D01*
X81366Y-33066D02*
X81366Y-41463D01*
X81388Y-33044D02*
X81366Y-33066D01*
X82456Y-33044D02*
X81388Y-33044D01*
X83000Y-32500D02*
X82456Y-33044D01*
X82500Y-34000D02*
X83000Y-33500D01*
X82500Y-37922D02*
X82500Y-34000D01*
X82366Y-38056D02*
X82500Y-37922D01*
X81572Y-38056D02*
X82366Y-38056D01*
X81550Y-38078D02*
X81572Y-38056D01*
X81550Y-41540D02*
X81550Y-38078D01*
X76090Y-47000D02*
X81550Y-41540D01*
X75250Y-47000D02*
X76090Y-47000D01*
G54D30*
X50500Y-34000D02*
X50500Y-34588D01*
X50500Y-35707D02*
X50585Y-35792D01*
X50500Y-34588D02*
X50500Y-35707D01*
X50585Y-36250D02*
X50585Y-35792D01*
X55900Y-40409D02*
X74400Y-40409D01*
X52445Y-36954D02*
X55900Y-40409D01*
X51289Y-36954D02*
X52445Y-36954D01*
X50585Y-36250D02*
X51289Y-36954D01*
X54500Y-34000D02*
X54500Y-34588D01*
X54585Y-36250D02*
X54585Y-35734D01*
X54585Y-34673D02*
X54500Y-34588D01*
X54585Y-35734D02*
X54585Y-34673D01*
X56279Y-35734D02*
X54585Y-35734D01*
X57965Y-37420D02*
X56279Y-35734D01*
X62805Y-37420D02*
X57965Y-37420D01*
X65209Y-39824D02*
X62805Y-37420D01*
X74451Y-39824D02*
X65209Y-39824D01*
X58500Y-35707D02*
X58585Y-35792D01*
X58500Y-34000D02*
X58500Y-35707D01*
X58585Y-36250D02*
X58585Y-35792D01*
X79272Y-41477D02*
X79958Y-41477D01*
X77173Y-39378D02*
X79272Y-41477D01*
X72639Y-39378D02*
X77173Y-39378D01*
X71436Y-38175D02*
X72639Y-39378D01*
X64046Y-38175D02*
X71436Y-38175D01*
X62867Y-36996D02*
X64046Y-38175D01*
X59331Y-36996D02*
X62867Y-36996D01*
X58585Y-36250D02*
X59331Y-36996D01*
X62500Y-34000D02*
X62500Y-34588D01*
X64458Y-35791D02*
X62585Y-35791D01*
X66481Y-37814D02*
X64458Y-35791D01*
X71926Y-37814D02*
X66481Y-37814D01*
X73146Y-39034D02*
X71926Y-37814D01*
X77586Y-39034D02*
X73146Y-39034D01*
X79586Y-41034D02*
X77586Y-39034D01*
X62585Y-34673D02*
X62585Y-35791D01*
X62500Y-34588D02*
X62585Y-34673D01*
X62585Y-35791D02*
X62585Y-36250D01*
X66500Y-34000D02*
X66500Y-34588D01*
X66500Y-35707D02*
X66585Y-35792D01*
X66500Y-34588D02*
X66500Y-35707D01*
X66585Y-36250D02*
X66585Y-35792D01*
X66585Y-36851D02*
X66585Y-36250D01*
X66943Y-37209D02*
X66585Y-36851D01*
X71825Y-37209D02*
X66943Y-37209D01*
X72451Y-37835D02*
X71825Y-37209D01*
X77351Y-37835D02*
X72451Y-37835D01*
X80465Y-40949D02*
X77351Y-37835D01*
X80465Y-41897D02*
X80465Y-40949D01*
X79796Y-42566D02*
X80465Y-41897D01*
X70585Y-34673D02*
X70585Y-36250D01*
X70500Y-34588D02*
X70585Y-34673D01*
X70500Y-34000D02*
X70500Y-34588D01*
X74585Y-34673D02*
X74585Y-36250D01*
X74500Y-34588D02*
X74585Y-34673D01*
X74500Y-34000D02*
X74500Y-34588D01*
X78585Y-34673D02*
X78585Y-36250D01*
X78500Y-34588D02*
X78585Y-34673D01*
X78500Y-34000D02*
X78500Y-34588D01*
G54D29*
X71286Y-45152D02*
X67447Y-45152D01*
X75749Y-40689D02*
X71286Y-45152D01*
G54D28*
X88250Y-45150D02*
X88250Y-45683D01*
X63000Y-50500D02*
X63000Y-49717D01*
X88783Y-45683D02*
X88250Y-45683D01*
X89034Y-45934D02*
X88783Y-45683D01*
X89034Y-46923D02*
X89034Y-45934D01*
X86699Y-49258D02*
X89034Y-46923D01*
X63459Y-49258D02*
X86699Y-49258D01*
X63000Y-49717D02*
X63459Y-49258D01*
X87367Y-45250D02*
X87467Y-45150D01*
X86250Y-45250D02*
X87367Y-45250D01*
X88250Y-45150D02*
X87467Y-45150D01*
G54D31*
X88250Y-46350D02*
X88250Y-46500D01*
X88250Y-46500D02*
X87500Y-47250D01*
X69000Y-48000D02*
X70000Y-47000D01*
X54000Y-39750D02*
X54000Y-40000D01*
X54000Y-40000D02*
X56000Y-42000D01*
X54000Y-47000D02*
X54000Y-47900D01*
X54000Y-39750D02*
X54000Y-47000D01*
X68250Y-42000D02*
X68250Y-41500D01*
X50150Y-45750D02*
X48500Y-45750D01*
X51450Y-40750D02*
X49000Y-40750D01*
X72000Y-47600D02*
X72683Y-47600D01*
X86100Y-31750D02*
X86100Y-33500D01*
X86100Y-33500D02*
X86100Y-35250D01*
X66342Y-47600D02*
X66683Y-47600D01*
X86665Y-35250D02*
X88415Y-37000D01*
X86100Y-35250D02*
X86665Y-35250D01*
X54000Y-47900D02*
X53317Y-47900D01*
X50150Y-48250D02*
X50583Y-48250D01*
X52983Y-47566D02*
X50834Y-47566D01*
X53317Y-47900D02*
X52983Y-47566D01*
X50583Y-47817D02*
X50583Y-48250D01*
X50834Y-47566D02*
X50583Y-47817D01*
X50583Y-47315D02*
X50834Y-47566D01*
X50583Y-45750D02*
X50583Y-47315D01*
X50150Y-45750D02*
X50583Y-45750D01*
X66342Y-47600D02*
X66000Y-47600D01*
X50150Y-43828D02*
X50150Y-45750D01*
X50078Y-43828D02*
X50150Y-43828D01*
X49000Y-42750D02*
X50078Y-43828D01*
X61000Y-50500D02*
X61000Y-50158D01*
X61341Y-49817D02*
X62000Y-49817D01*
X61000Y-50158D02*
X61341Y-49817D01*
X62000Y-50500D02*
X62000Y-49817D01*
X63400Y-47600D02*
X63000Y-48000D01*
X66000Y-47600D02*
X63400Y-47600D01*
X60683Y-47683D02*
X62000Y-49000D01*
X60683Y-47600D02*
X60683Y-47683D01*
X63000Y-48000D02*
X62000Y-49000D01*
X62000Y-49000D02*
X62000Y-49817D01*
X60000Y-47600D02*
X60683Y-47600D01*
X60000Y-47600D02*
X59317Y-47600D01*
X50372Y-43828D02*
X51450Y-42750D01*
X50150Y-43828D02*
X50372Y-43828D01*
X50934Y-41266D02*
X51450Y-40750D01*
X50934Y-42234D02*
X50934Y-41266D01*
X51450Y-42750D02*
X50934Y-42234D01*
X67083Y-48000D02*
X69000Y-48000D01*
X66683Y-47600D02*
X67083Y-48000D01*
X70917Y-48000D02*
X71317Y-47600D01*
X69000Y-48000D02*
X70917Y-48000D01*
X72000Y-47600D02*
X71317Y-47600D01*
X87467Y-46250D02*
X87567Y-46350D01*
X86250Y-46250D02*
X87467Y-46250D01*
X88250Y-46350D02*
X87567Y-46350D01*
X73083Y-48000D02*
X75250Y-48000D01*
X72683Y-47600D02*
X73083Y-48000D01*
X84500Y-48000D02*
X86250Y-46250D01*
X75250Y-48000D02*
X84500Y-48000D01*
X61000Y-42000D02*
X68250Y-42000D01*
X68250Y-42000D02*
X73000Y-42000D01*
X58917Y-48000D02*
X57000Y-48000D01*
X59317Y-47600D02*
X58917Y-48000D01*
X54783Y-48000D02*
X54683Y-47900D01*
X57000Y-48000D02*
X54783Y-48000D01*
X54000Y-47900D02*
X54683Y-47900D01*
X88415Y-39725D02*
X88415Y-37000D01*
X87140Y-41000D02*
X88415Y-39725D01*
G54D29*
X55415Y-36250D02*
X55793Y-36250D01*
X57375Y-37832D02*
X62632Y-37832D01*
X55793Y-36250D02*
X57375Y-37832D01*
X62180Y-38119D02*
X62527Y-38466D01*
X55635Y-38119D02*
X62180Y-38119D01*
X53766Y-36250D02*
X55635Y-38119D01*
X51415Y-36250D02*
X53766Y-36250D01*
X59415Y-36250D02*
X59793Y-36250D01*
X60171Y-36628D02*
X59793Y-36250D01*
X63097Y-36628D02*
X60171Y-36628D01*
X63661Y-37192D02*
X63097Y-36628D01*
X63415Y-36250D02*
X63415Y-36628D01*
X63707Y-36628D02*
X63809Y-36730D01*
X63415Y-36628D02*
X63707Y-36628D01*
X67094Y-36628D02*
X67010Y-36712D01*
X67415Y-36628D02*
X67094Y-36628D01*
X67415Y-36250D02*
X67415Y-36628D01*
X71415Y-36250D02*
X71415Y-36628D01*
X71134Y-36628D02*
X71415Y-36628D01*
X71025Y-36737D02*
X71134Y-36628D01*
X79415Y-36250D02*
X79037Y-36250D01*
X78380Y-37285D02*
X72463Y-37285D01*
X79037Y-36628D02*
X78380Y-37285D01*
X79037Y-36250D02*
X79037Y-36628D01*
X75415Y-36250D02*
X75037Y-36250D01*
X74682Y-36855D02*
X72046Y-36855D01*
X75037Y-36500D02*
X74682Y-36855D01*
X75037Y-36250D02*
X75037Y-36500D01*
X87585Y-37000D02*
X86100Y-37000D01*
X51350Y-45750D02*
X51743Y-45750D01*
X52033Y-46040D02*
X51743Y-45750D01*
X53525Y-46040D02*
X52033Y-46040D01*
X51957Y-48036D02*
X51743Y-48250D01*
X52038Y-48036D02*
X51957Y-48036D01*
X51350Y-48250D02*
X51743Y-48250D01*
G54D28*
X84900Y-31750D02*
X84900Y-33500D01*
X84900Y-33500D02*
X84900Y-35250D01*
X84900Y-35250D02*
X84900Y-37000D01*
X84900Y-40880D02*
X84780Y-41000D01*
X84900Y-37000D02*
X84900Y-40880D01*
X71500Y-33351D02*
X71500Y-34000D01*
X63500Y-34000D02*
X63500Y-33351D01*
X60149Y-33351D02*
X59500Y-34000D01*
X63500Y-33351D02*
X60149Y-33351D01*
X67500Y-33351D02*
X67500Y-34000D01*
X71500Y-33351D02*
X67500Y-33351D01*
X67500Y-33351D02*
X63500Y-33351D01*
X75604Y-33351D02*
X75500Y-33455D01*
X79396Y-33351D02*
X75604Y-33351D01*
X79500Y-33455D02*
X79396Y-33351D01*
X79500Y-34000D02*
X79500Y-33455D01*
X75500Y-34000D02*
X75500Y-33455D01*
X75396Y-33351D02*
X71500Y-33351D01*
X75500Y-33455D02*
X75396Y-33351D01*
G54D10*
G36*
X64900Y-40039D02*
X56054Y-40039D01*
X52707Y-36692D01*
X52587Y-36612D01*
X52562Y-36607D01*
X52445Y-36583D01*
X52440Y-36584D01*
X51878Y-36584D01*
X51896Y-36540D01*
X53646Y-36540D01*
X55430Y-38324D01*
X55524Y-38387D01*
X55635Y-38409D01*
X58389Y-38409D01*
X58280Y-38518D01*
X58150Y-38830D01*
X58150Y-39168D01*
X58279Y-39480D01*
X58518Y-39720D01*
X58830Y-39850D01*
X59168Y-39850D01*
X59480Y-39721D01*
X59720Y-39482D01*
X59850Y-39170D01*
X59850Y-38832D01*
X59721Y-38520D01*
X59610Y-38409D01*
X62059Y-38409D01*
X62102Y-38451D01*
X62102Y-38550D01*
X62166Y-38706D01*
X62286Y-38826D01*
X62442Y-38891D01*
X62611Y-38891D01*
X62767Y-38827D01*
X62887Y-38707D01*
X62952Y-38551D01*
X62952Y-38382D01*
X62888Y-38226D01*
X62859Y-38197D01*
X62872Y-38193D01*
X62963Y-38101D01*
X64900Y-40039D01*
X64900Y-40039D01*
G37*
G54D32*
X64900Y-40039D02*
X56054Y-40039D01*
X52707Y-36692D01*
X52587Y-36612D01*
X52562Y-36607D01*
X52445Y-36583D01*
X52440Y-36584D01*
X51878Y-36584D01*
X51896Y-36540D01*
X53646Y-36540D01*
X55430Y-38324D01*
X55524Y-38387D01*
X55635Y-38409D01*
X58389Y-38409D01*
X58280Y-38518D01*
X58150Y-38830D01*
X58150Y-39168D01*
X58279Y-39480D01*
X58518Y-39720D01*
X58830Y-39850D01*
X59168Y-39850D01*
X59480Y-39721D01*
X59720Y-39482D01*
X59850Y-39170D01*
X59850Y-38832D01*
X59721Y-38520D01*
X59610Y-38409D01*
X62059Y-38409D01*
X62102Y-38451D01*
X62102Y-38550D01*
X62166Y-38706D01*
X62286Y-38826D01*
X62442Y-38891D01*
X62611Y-38891D01*
X62767Y-38827D01*
X62887Y-38707D01*
X62952Y-38551D01*
X62952Y-38382D01*
X62888Y-38226D01*
X62859Y-38197D01*
X62872Y-38193D01*
X62963Y-38101D01*
X64900Y-40039D01*
G54D10*
G36*
X73614Y-41698D02*
X73525Y-41786D01*
X73492Y-41704D01*
X73396Y-41675D01*
X73106Y-41965D01*
X73071Y-42000D01*
X73000Y-42071D01*
X72965Y-42106D01*
X72929Y-42142D01*
X72929Y-42000D01*
X72604Y-41675D01*
X72508Y-41704D01*
X72432Y-41916D01*
X72444Y-42139D01*
X72508Y-42296D01*
X72604Y-42325D01*
X72929Y-42000D01*
X72929Y-42142D01*
X72675Y-42396D01*
X72704Y-42492D01*
X72789Y-42522D01*
X71821Y-43491D01*
X71710Y-43491D01*
X71720Y-43482D01*
X71850Y-43170D01*
X71850Y-42832D01*
X71721Y-42520D01*
X71482Y-42280D01*
X71170Y-42150D01*
X70832Y-42150D01*
X70520Y-42279D01*
X70280Y-42518D01*
X70150Y-42830D01*
X70150Y-43168D01*
X70279Y-43480D01*
X70289Y-43491D01*
X66530Y-43491D01*
X66460Y-43421D01*
X66304Y-43356D01*
X66135Y-43356D01*
X65979Y-43420D01*
X65859Y-43540D01*
X65794Y-43696D01*
X65794Y-43865D01*
X65858Y-44021D01*
X65978Y-44141D01*
X66134Y-44206D01*
X66303Y-44206D01*
X66459Y-44142D01*
X66530Y-44071D01*
X71941Y-44071D01*
X71960Y-44067D01*
X71165Y-44862D01*
X67758Y-44862D01*
X67688Y-44792D01*
X67532Y-44727D01*
X67363Y-44727D01*
X67207Y-44791D01*
X67087Y-44911D01*
X67022Y-45067D01*
X67022Y-45236D01*
X67086Y-45392D01*
X67206Y-45512D01*
X67362Y-45577D01*
X67531Y-45577D01*
X67687Y-45513D01*
X67758Y-45442D01*
X68476Y-45442D01*
X68424Y-45494D01*
X68392Y-45570D01*
X68352Y-45570D01*
X68187Y-45603D01*
X68047Y-45696D01*
X67773Y-45970D01*
X66783Y-45970D01*
X66672Y-45970D01*
X66641Y-45939D01*
X66550Y-45901D01*
X66451Y-45901D01*
X65451Y-45901D01*
X65362Y-45937D01*
X65121Y-45696D01*
X64982Y-45603D01*
X64817Y-45570D01*
X63850Y-45570D01*
X63850Y-43170D01*
X63850Y-42832D01*
X63721Y-42520D01*
X63482Y-42280D01*
X63170Y-42150D01*
X62832Y-42150D01*
X62520Y-42279D01*
X62280Y-42518D01*
X62150Y-42830D01*
X62150Y-43168D01*
X62279Y-43480D01*
X62518Y-43720D01*
X62830Y-43850D01*
X63168Y-43850D01*
X63480Y-43721D01*
X63720Y-43482D01*
X63850Y-43170D01*
X63850Y-45570D01*
X63607Y-45570D01*
X63576Y-45494D01*
X63506Y-45424D01*
X63415Y-45386D01*
X63316Y-45386D01*
X62586Y-45386D01*
X62494Y-45424D01*
X62424Y-45494D01*
X62392Y-45570D01*
X61568Y-45570D01*
X61568Y-42084D01*
X61556Y-41861D01*
X61492Y-41704D01*
X61396Y-41675D01*
X61071Y-42000D01*
X61396Y-42325D01*
X61492Y-42296D01*
X61568Y-42084D01*
X61568Y-45570D01*
X61325Y-45570D01*
X61325Y-42396D01*
X61000Y-42071D01*
X60929Y-42142D01*
X60929Y-42000D01*
X60604Y-41675D01*
X60508Y-41704D01*
X60432Y-41916D01*
X60444Y-42139D01*
X60508Y-42296D01*
X60604Y-42325D01*
X60929Y-42000D01*
X60929Y-42142D01*
X60675Y-42396D01*
X60704Y-42492D01*
X60916Y-42568D01*
X61139Y-42556D01*
X61296Y-42492D01*
X61325Y-42396D01*
X61325Y-45570D01*
X61183Y-45570D01*
X61018Y-45603D01*
X60878Y-45696D01*
X60637Y-45937D01*
X60550Y-45901D01*
X60451Y-45901D01*
X59451Y-45901D01*
X59362Y-45937D01*
X59121Y-45696D01*
X58982Y-45603D01*
X58817Y-45570D01*
X57648Y-45570D01*
X57607Y-45570D01*
X57576Y-45494D01*
X57506Y-45424D01*
X57415Y-45386D01*
X57316Y-45386D01*
X56781Y-45386D01*
X56781Y-44314D01*
X58150Y-42945D01*
X58150Y-43168D01*
X58279Y-43480D01*
X58518Y-43720D01*
X58830Y-43850D01*
X59168Y-43850D01*
X59480Y-43721D01*
X59720Y-43482D01*
X59850Y-43170D01*
X59850Y-42832D01*
X59721Y-42520D01*
X59482Y-42280D01*
X59170Y-42150D01*
X58945Y-42150D01*
X59805Y-41290D01*
X60426Y-41290D01*
X60426Y-41374D01*
X60464Y-41466D01*
X60534Y-41536D01*
X60625Y-41574D01*
X60684Y-41574D01*
X60675Y-41604D01*
X61000Y-41929D01*
X61325Y-41604D01*
X61315Y-41574D01*
X61374Y-41574D01*
X61466Y-41536D01*
X61536Y-41466D01*
X61574Y-41375D01*
X61574Y-41276D01*
X61574Y-40779D01*
X72426Y-40779D01*
X72426Y-41374D01*
X72464Y-41466D01*
X72534Y-41536D01*
X72625Y-41574D01*
X72684Y-41574D01*
X72675Y-41604D01*
X73000Y-41929D01*
X73325Y-41604D01*
X73315Y-41574D01*
X73374Y-41574D01*
X73466Y-41536D01*
X73536Y-41466D01*
X73574Y-41375D01*
X73574Y-41290D01*
X73614Y-41290D01*
X73614Y-41698D01*
X73614Y-41698D01*
G37*
G54D32*
X73614Y-41698D02*
X73525Y-41786D01*
X73492Y-41704D01*
X73396Y-41675D01*
X73106Y-41965D01*
X73071Y-42000D01*
X73000Y-42071D01*
X72965Y-42106D01*
X72929Y-42142D01*
X72929Y-42000D01*
X72604Y-41675D01*
X72508Y-41704D01*
X72432Y-41916D01*
X72444Y-42139D01*
X72508Y-42296D01*
X72604Y-42325D01*
X72929Y-42000D01*
X72929Y-42142D01*
X72675Y-42396D01*
X72704Y-42492D01*
X72789Y-42522D01*
X71821Y-43491D01*
X71710Y-43491D01*
X71720Y-43482D01*
X71850Y-43170D01*
X71850Y-42832D01*
X71721Y-42520D01*
X71482Y-42280D01*
X71170Y-42150D01*
X70832Y-42150D01*
X70520Y-42279D01*
X70280Y-42518D01*
X70150Y-42830D01*
X70150Y-43168D01*
X70279Y-43480D01*
X70289Y-43491D01*
X66530Y-43491D01*
X66460Y-43421D01*
X66304Y-43356D01*
X66135Y-43356D01*
X65979Y-43420D01*
X65859Y-43540D01*
X65794Y-43696D01*
X65794Y-43865D01*
X65858Y-44021D01*
X65978Y-44141D01*
X66134Y-44206D01*
X66303Y-44206D01*
X66459Y-44142D01*
X66530Y-44071D01*
X71941Y-44071D01*
X71960Y-44067D01*
X71165Y-44862D01*
X67758Y-44862D01*
X67688Y-44792D01*
X67532Y-44727D01*
X67363Y-44727D01*
X67207Y-44791D01*
X67087Y-44911D01*
X67022Y-45067D01*
X67022Y-45236D01*
X67086Y-45392D01*
X67206Y-45512D01*
X67362Y-45577D01*
X67531Y-45577D01*
X67687Y-45513D01*
X67758Y-45442D01*
X68476Y-45442D01*
X68424Y-45494D01*
X68392Y-45570D01*
X68352Y-45570D01*
X68187Y-45603D01*
X68047Y-45696D01*
X67773Y-45970D01*
X66783Y-45970D01*
X66672Y-45970D01*
X66641Y-45939D01*
X66550Y-45901D01*
X66451Y-45901D01*
X65451Y-45901D01*
X65362Y-45937D01*
X65121Y-45696D01*
X64982Y-45603D01*
X64817Y-45570D01*
X63850Y-45570D01*
X63850Y-43170D01*
X63850Y-42832D01*
X63721Y-42520D01*
X63482Y-42280D01*
X63170Y-42150D01*
X62832Y-42150D01*
X62520Y-42279D01*
X62280Y-42518D01*
X62150Y-42830D01*
X62150Y-43168D01*
X62279Y-43480D01*
X62518Y-43720D01*
X62830Y-43850D01*
X63168Y-43850D01*
X63480Y-43721D01*
X63720Y-43482D01*
X63850Y-43170D01*
X63850Y-45570D01*
X63607Y-45570D01*
X63576Y-45494D01*
X63506Y-45424D01*
X63415Y-45386D01*
X63316Y-45386D01*
X62586Y-45386D01*
X62494Y-45424D01*
X62424Y-45494D01*
X62392Y-45570D01*
X61568Y-45570D01*
X61568Y-42084D01*
X61556Y-41861D01*
X61492Y-41704D01*
X61396Y-41675D01*
X61071Y-42000D01*
X61396Y-42325D01*
X61492Y-42296D01*
X61568Y-42084D01*
X61568Y-45570D01*
X61325Y-45570D01*
X61325Y-42396D01*
X61000Y-42071D01*
X60929Y-42142D01*
X60929Y-42000D01*
X60604Y-41675D01*
X60508Y-41704D01*
X60432Y-41916D01*
X60444Y-42139D01*
X60508Y-42296D01*
X60604Y-42325D01*
X60929Y-42000D01*
X60929Y-42142D01*
X60675Y-42396D01*
X60704Y-42492D01*
X60916Y-42568D01*
X61139Y-42556D01*
X61296Y-42492D01*
X61325Y-42396D01*
X61325Y-45570D01*
X61183Y-45570D01*
X61018Y-45603D01*
X60878Y-45696D01*
X60637Y-45937D01*
X60550Y-45901D01*
X60451Y-45901D01*
X59451Y-45901D01*
X59362Y-45937D01*
X59121Y-45696D01*
X58982Y-45603D01*
X58817Y-45570D01*
X57648Y-45570D01*
X57607Y-45570D01*
X57576Y-45494D01*
X57506Y-45424D01*
X57415Y-45386D01*
X57316Y-45386D01*
X56781Y-45386D01*
X56781Y-44314D01*
X58150Y-42945D01*
X58150Y-43168D01*
X58279Y-43480D01*
X58518Y-43720D01*
X58830Y-43850D01*
X59168Y-43850D01*
X59480Y-43721D01*
X59720Y-43482D01*
X59850Y-43170D01*
X59850Y-42832D01*
X59721Y-42520D01*
X59482Y-42280D01*
X59170Y-42150D01*
X58945Y-42150D01*
X59805Y-41290D01*
X60426Y-41290D01*
X60426Y-41374D01*
X60464Y-41466D01*
X60534Y-41536D01*
X60625Y-41574D01*
X60684Y-41574D01*
X60675Y-41604D01*
X61000Y-41929D01*
X61325Y-41604D01*
X61315Y-41574D01*
X61374Y-41574D01*
X61466Y-41536D01*
X61536Y-41466D01*
X61574Y-41375D01*
X61574Y-41276D01*
X61574Y-40779D01*
X72426Y-40779D01*
X72426Y-41374D01*
X72464Y-41466D01*
X72534Y-41536D01*
X72625Y-41574D01*
X72684Y-41574D01*
X72675Y-41604D01*
X73000Y-41929D01*
X73325Y-41604D01*
X73315Y-41574D01*
X73374Y-41574D01*
X73466Y-41536D01*
X73536Y-41466D01*
X73574Y-41375D01*
X73574Y-41290D01*
X73614Y-41290D01*
X73614Y-41698D01*
G54D10*
G36*
X81773Y-48000D02*
X81689Y-48035D01*
X81535Y-48189D01*
X81451Y-48391D01*
X81451Y-48609D01*
X81535Y-48811D01*
X81552Y-48828D01*
X75857Y-48828D01*
X75857Y-48095D01*
X75847Y-47856D01*
X75775Y-47680D01*
X75674Y-47646D01*
X75321Y-48000D01*
X75674Y-48354D01*
X75775Y-48320D01*
X75857Y-48095D01*
X75857Y-48828D01*
X75604Y-48828D01*
X75604Y-48424D01*
X75250Y-48071D01*
X75179Y-48141D01*
X75179Y-48000D01*
X74826Y-47646D01*
X74725Y-47680D01*
X74643Y-47905D01*
X74653Y-48144D01*
X74725Y-48320D01*
X74826Y-48354D01*
X75179Y-48000D01*
X75179Y-48141D01*
X74896Y-48424D01*
X74930Y-48525D01*
X75155Y-48607D01*
X75394Y-48597D01*
X75570Y-48525D01*
X75604Y-48424D01*
X75604Y-48828D01*
X72750Y-48828D01*
X72750Y-47712D01*
X72750Y-47488D01*
X72749Y-47301D01*
X72711Y-47209D01*
X72641Y-47139D01*
X72550Y-47101D01*
X72451Y-47101D01*
X72112Y-47100D01*
X72050Y-47162D01*
X72050Y-47550D01*
X72688Y-47550D01*
X72750Y-47488D01*
X72750Y-47712D01*
X72688Y-47650D01*
X72050Y-47650D01*
X72050Y-48038D01*
X72112Y-48100D01*
X72451Y-48099D01*
X72550Y-48099D01*
X72641Y-48061D01*
X72711Y-47991D01*
X72749Y-47899D01*
X72750Y-47712D01*
X72750Y-48828D01*
X71950Y-48828D01*
X71950Y-48038D01*
X71950Y-47650D01*
X71950Y-47550D01*
X71950Y-47162D01*
X71888Y-47100D01*
X71549Y-47101D01*
X71450Y-47101D01*
X71359Y-47139D01*
X71289Y-47209D01*
X71251Y-47301D01*
X71250Y-47488D01*
X71312Y-47550D01*
X71950Y-47550D01*
X71950Y-47650D01*
X71312Y-47650D01*
X71250Y-47712D01*
X71251Y-47899D01*
X71289Y-47991D01*
X71359Y-48061D01*
X71450Y-48099D01*
X71549Y-48099D01*
X71888Y-48100D01*
X71950Y-48038D01*
X71950Y-48828D01*
X69607Y-48828D01*
X69607Y-48095D01*
X69597Y-47856D01*
X69525Y-47680D01*
X69424Y-47646D01*
X69071Y-48000D01*
X69424Y-48354D01*
X69525Y-48320D01*
X69607Y-48095D01*
X69607Y-48828D01*
X69354Y-48828D01*
X69354Y-48424D01*
X69000Y-48071D01*
X68929Y-48141D01*
X68929Y-48000D01*
X68576Y-47646D01*
X68475Y-47680D01*
X68393Y-47905D01*
X68403Y-48144D01*
X68475Y-48320D01*
X68576Y-48354D01*
X68929Y-48000D01*
X68929Y-48141D01*
X68646Y-48424D01*
X68680Y-48525D01*
X68905Y-48607D01*
X69144Y-48597D01*
X69320Y-48525D01*
X69354Y-48424D01*
X69354Y-48828D01*
X66750Y-48828D01*
X66750Y-47712D01*
X66750Y-47488D01*
X66749Y-47301D01*
X66711Y-47209D01*
X66641Y-47139D01*
X66550Y-47101D01*
X66451Y-47101D01*
X66112Y-47100D01*
X66050Y-47162D01*
X66050Y-47550D01*
X66688Y-47550D01*
X66750Y-47488D01*
X66750Y-47712D01*
X66688Y-47650D01*
X66050Y-47650D01*
X66050Y-48038D01*
X66112Y-48100D01*
X66451Y-48099D01*
X66550Y-48099D01*
X66641Y-48061D01*
X66711Y-47991D01*
X66749Y-47899D01*
X66750Y-47712D01*
X66750Y-48828D01*
X65950Y-48828D01*
X65950Y-48038D01*
X65950Y-47650D01*
X65950Y-47550D01*
X65950Y-47162D01*
X65888Y-47100D01*
X65549Y-47101D01*
X65450Y-47101D01*
X65359Y-47139D01*
X65289Y-47209D01*
X65251Y-47301D01*
X65250Y-47488D01*
X65312Y-47550D01*
X65950Y-47550D01*
X65950Y-47650D01*
X65312Y-47650D01*
X65250Y-47712D01*
X65251Y-47899D01*
X65289Y-47991D01*
X65359Y-48061D01*
X65450Y-48099D01*
X65549Y-48099D01*
X65888Y-48100D01*
X65950Y-48038D01*
X65950Y-48828D01*
X63607Y-48828D01*
X63607Y-48095D01*
X63597Y-47856D01*
X63525Y-47680D01*
X63424Y-47646D01*
X63071Y-48000D01*
X63424Y-48354D01*
X63525Y-48320D01*
X63607Y-48095D01*
X63607Y-48828D01*
X63459Y-48828D01*
X63354Y-48849D01*
X63354Y-48424D01*
X63000Y-48071D01*
X62929Y-48141D01*
X62929Y-48000D01*
X62576Y-47646D01*
X62475Y-47680D01*
X62393Y-47905D01*
X62403Y-48144D01*
X62475Y-48320D01*
X62576Y-48354D01*
X62929Y-48000D01*
X62929Y-48141D01*
X62646Y-48424D01*
X62680Y-48525D01*
X62905Y-48607D01*
X63144Y-48597D01*
X63320Y-48525D01*
X63354Y-48424D01*
X63354Y-48849D01*
X63294Y-48861D01*
X63155Y-48954D01*
X62696Y-49413D01*
X62603Y-49552D01*
X62570Y-49717D01*
X62570Y-49952D01*
X62543Y-49980D01*
X62500Y-50081D01*
X62489Y-50043D01*
X62353Y-49875D01*
X62163Y-49772D01*
X62135Y-49768D01*
X62050Y-49815D01*
X62050Y-50400D01*
X62050Y-50450D01*
X62050Y-50550D01*
X61950Y-50550D01*
X61950Y-50450D01*
X61950Y-49815D01*
X61865Y-49768D01*
X61837Y-49772D01*
X61647Y-49875D01*
X61511Y-50043D01*
X61500Y-50080D01*
X61489Y-50043D01*
X61353Y-49875D01*
X61163Y-49772D01*
X61135Y-49768D01*
X61050Y-49815D01*
X61050Y-50450D01*
X61450Y-50450D01*
X61550Y-50450D01*
X61950Y-50450D01*
X61950Y-50550D01*
X61900Y-50550D01*
X61550Y-50550D01*
X61450Y-50550D01*
X61100Y-50550D01*
X61050Y-50550D01*
X60950Y-50550D01*
X60950Y-50450D01*
X60950Y-50400D01*
X60950Y-49815D01*
X60865Y-49768D01*
X60837Y-49772D01*
X60750Y-49819D01*
X60750Y-47712D01*
X60750Y-47488D01*
X60749Y-47301D01*
X60711Y-47209D01*
X60641Y-47139D01*
X60550Y-47101D01*
X60451Y-47101D01*
X60112Y-47100D01*
X60050Y-47162D01*
X60050Y-47550D01*
X60688Y-47550D01*
X60750Y-47488D01*
X60750Y-47712D01*
X60688Y-47650D01*
X60050Y-47650D01*
X60050Y-48038D01*
X60112Y-48100D01*
X60451Y-48099D01*
X60550Y-48099D01*
X60641Y-48061D01*
X60711Y-47991D01*
X60749Y-47899D01*
X60750Y-47712D01*
X60750Y-49819D01*
X60647Y-49875D01*
X60511Y-50043D01*
X60499Y-50081D01*
X60458Y-49980D01*
X60430Y-49952D01*
X60430Y-49717D01*
X60397Y-49552D01*
X60304Y-49413D01*
X60165Y-49320D01*
X60000Y-49287D01*
X59950Y-49287D01*
X59950Y-48038D01*
X59950Y-47650D01*
X59950Y-47550D01*
X59950Y-47162D01*
X59888Y-47100D01*
X59549Y-47101D01*
X59450Y-47101D01*
X59359Y-47139D01*
X59289Y-47209D01*
X59251Y-47301D01*
X59250Y-47488D01*
X59312Y-47550D01*
X59950Y-47550D01*
X59950Y-47650D01*
X59312Y-47650D01*
X59250Y-47712D01*
X59251Y-47899D01*
X59289Y-47991D01*
X59359Y-48061D01*
X59450Y-48099D01*
X59549Y-48099D01*
X59888Y-48100D01*
X59950Y-48038D01*
X59950Y-49287D01*
X57607Y-49287D01*
X57607Y-48095D01*
X57597Y-47856D01*
X57525Y-47680D01*
X57424Y-47646D01*
X57071Y-48000D01*
X57424Y-48354D01*
X57525Y-48320D01*
X57607Y-48095D01*
X57607Y-49287D01*
X57354Y-49287D01*
X57354Y-48424D01*
X57000Y-48071D01*
X56929Y-48141D01*
X56929Y-48000D01*
X56576Y-47646D01*
X56475Y-47680D01*
X56393Y-47905D01*
X56403Y-48144D01*
X56475Y-48320D01*
X56576Y-48354D01*
X56929Y-48000D01*
X56929Y-48141D01*
X56646Y-48424D01*
X56680Y-48525D01*
X56905Y-48607D01*
X57144Y-48597D01*
X57320Y-48525D01*
X57354Y-48424D01*
X57354Y-49287D01*
X54750Y-49287D01*
X54750Y-48012D01*
X54750Y-47788D01*
X54749Y-47601D01*
X54711Y-47509D01*
X54641Y-47439D01*
X54550Y-47401D01*
X54451Y-47401D01*
X54112Y-47400D01*
X54050Y-47462D01*
X54050Y-47850D01*
X54688Y-47850D01*
X54750Y-47788D01*
X54750Y-48012D01*
X54688Y-47950D01*
X54050Y-47950D01*
X54050Y-48338D01*
X54112Y-48400D01*
X54451Y-48399D01*
X54550Y-48399D01*
X54641Y-48361D01*
X54711Y-48291D01*
X54749Y-48199D01*
X54750Y-48012D01*
X54750Y-49287D01*
X54749Y-49287D01*
X54749Y-48801D01*
X54711Y-48709D01*
X54641Y-48639D01*
X54550Y-48601D01*
X54451Y-48601D01*
X53950Y-48601D01*
X53950Y-48338D01*
X53950Y-47950D01*
X53950Y-47850D01*
X53950Y-47462D01*
X53950Y-46125D01*
X53950Y-45956D01*
X53886Y-45800D01*
X53766Y-45680D01*
X53610Y-45615D01*
X53549Y-45615D01*
X53549Y-43809D01*
X53549Y-43591D01*
X53465Y-43389D01*
X53311Y-43235D01*
X53226Y-43200D01*
X53311Y-43165D01*
X53465Y-43011D01*
X53549Y-42809D01*
X53549Y-42591D01*
X53465Y-42389D01*
X53311Y-42235D01*
X53109Y-42151D01*
X52891Y-42151D01*
X52689Y-42235D01*
X52535Y-42389D01*
X52451Y-42591D01*
X52451Y-42809D01*
X52535Y-43011D01*
X52689Y-43165D01*
X52773Y-43200D01*
X52689Y-43235D01*
X52535Y-43389D01*
X52451Y-43591D01*
X52451Y-43809D01*
X52535Y-44011D01*
X52689Y-44165D01*
X52891Y-44249D01*
X53109Y-44249D01*
X53311Y-44165D01*
X53465Y-44011D01*
X53549Y-43809D01*
X53549Y-45615D01*
X53441Y-45615D01*
X53285Y-45679D01*
X53214Y-45750D01*
X52153Y-45750D01*
X51999Y-45596D01*
X51999Y-41859D01*
X51999Y-41641D01*
X51999Y-39859D01*
X51999Y-39641D01*
X51915Y-39439D01*
X51761Y-39285D01*
X51559Y-39201D01*
X51341Y-39201D01*
X51139Y-39285D01*
X50985Y-39439D01*
X50901Y-39641D01*
X50901Y-39859D01*
X50985Y-40061D01*
X51139Y-40215D01*
X51230Y-40252D01*
X51169Y-40278D01*
X51142Y-40372D01*
X51450Y-40679D01*
X51758Y-40372D01*
X51731Y-40278D01*
X51665Y-40254D01*
X51761Y-40215D01*
X51915Y-40061D01*
X51999Y-39859D01*
X51999Y-41641D01*
X51993Y-41626D01*
X51993Y-40829D01*
X51982Y-40616D01*
X51922Y-40469D01*
X51828Y-40442D01*
X51521Y-40750D01*
X51828Y-41058D01*
X51922Y-41031D01*
X51993Y-40829D01*
X51993Y-41626D01*
X51915Y-41439D01*
X51761Y-41285D01*
X51669Y-41247D01*
X51731Y-41222D01*
X51758Y-41128D01*
X51450Y-40821D01*
X51379Y-40891D01*
X51379Y-40750D01*
X51072Y-40442D01*
X50978Y-40469D01*
X50907Y-40671D01*
X50918Y-40884D01*
X50978Y-41031D01*
X51072Y-41058D01*
X51379Y-40750D01*
X51379Y-40891D01*
X51142Y-41128D01*
X51169Y-41222D01*
X51234Y-41245D01*
X51139Y-41285D01*
X50985Y-41439D01*
X50901Y-41641D01*
X50901Y-41859D01*
X50985Y-42061D01*
X51139Y-42215D01*
X51230Y-42252D01*
X51169Y-42278D01*
X51142Y-42372D01*
X51450Y-42679D01*
X51758Y-42372D01*
X51731Y-42278D01*
X51665Y-42254D01*
X51761Y-42215D01*
X51915Y-42061D01*
X51999Y-41859D01*
X51999Y-45596D01*
X51993Y-45590D01*
X51993Y-42829D01*
X51982Y-42616D01*
X51922Y-42469D01*
X51828Y-42442D01*
X51521Y-42750D01*
X51828Y-43058D01*
X51922Y-43031D01*
X51993Y-42829D01*
X51993Y-45590D01*
X51948Y-45545D01*
X51854Y-45482D01*
X51849Y-45481D01*
X51849Y-45201D01*
X51811Y-45109D01*
X51758Y-45056D01*
X51758Y-43128D01*
X51450Y-42821D01*
X51379Y-42891D01*
X51379Y-42750D01*
X51072Y-42442D01*
X50999Y-42462D01*
X50999Y-42359D01*
X50999Y-42141D01*
X50915Y-41939D01*
X50761Y-41785D01*
X50676Y-41750D01*
X50761Y-41715D01*
X50915Y-41561D01*
X50999Y-41359D01*
X50999Y-41141D01*
X50915Y-40939D01*
X50761Y-40785D01*
X50676Y-40750D01*
X50761Y-40715D01*
X50915Y-40561D01*
X50999Y-40359D01*
X50999Y-40141D01*
X50915Y-39939D01*
X50761Y-39785D01*
X50676Y-39750D01*
X50761Y-39715D01*
X50915Y-39561D01*
X50999Y-39359D01*
X50999Y-39141D01*
X50915Y-38939D01*
X50761Y-38785D01*
X50559Y-38701D01*
X50341Y-38701D01*
X50139Y-38785D01*
X49985Y-38939D01*
X49901Y-39141D01*
X49901Y-39359D01*
X49985Y-39561D01*
X50139Y-39715D01*
X50223Y-39750D01*
X50139Y-39785D01*
X49985Y-39939D01*
X49901Y-40141D01*
X49901Y-40359D01*
X49985Y-40561D01*
X50139Y-40715D01*
X50223Y-40750D01*
X50139Y-40785D01*
X49985Y-40939D01*
X49901Y-41141D01*
X49901Y-41359D01*
X49985Y-41561D01*
X50139Y-41715D01*
X50223Y-41750D01*
X50139Y-41785D01*
X49985Y-41939D01*
X49901Y-42141D01*
X49901Y-42359D01*
X49985Y-42561D01*
X50139Y-42715D01*
X50341Y-42799D01*
X50559Y-42799D01*
X50761Y-42715D01*
X50915Y-42561D01*
X50999Y-42359D01*
X50999Y-42462D01*
X50978Y-42469D01*
X50907Y-42671D01*
X50918Y-42884D01*
X50978Y-43031D01*
X51072Y-43058D01*
X51379Y-42750D01*
X51379Y-42891D01*
X51142Y-43128D01*
X51169Y-43222D01*
X51371Y-43293D01*
X51584Y-43282D01*
X51731Y-43222D01*
X51758Y-43128D01*
X51758Y-45056D01*
X51741Y-45039D01*
X51650Y-45001D01*
X51551Y-45001D01*
X51051Y-45001D01*
X50959Y-45039D01*
X50889Y-45109D01*
X50851Y-45200D01*
X50851Y-45299D01*
X50851Y-46299D01*
X50889Y-46391D01*
X50959Y-46461D01*
X51050Y-46499D01*
X51149Y-46499D01*
X51649Y-46499D01*
X51741Y-46461D01*
X51811Y-46391D01*
X51849Y-46300D01*
X51849Y-46259D01*
X51922Y-46308D01*
X52033Y-46330D01*
X53214Y-46330D01*
X53284Y-46400D01*
X53440Y-46465D01*
X53609Y-46465D01*
X53765Y-46401D01*
X53885Y-46281D01*
X53950Y-46125D01*
X53950Y-47462D01*
X53888Y-47400D01*
X53549Y-47401D01*
X53450Y-47401D01*
X53359Y-47439D01*
X53289Y-47509D01*
X53251Y-47601D01*
X53250Y-47788D01*
X53312Y-47850D01*
X53950Y-47850D01*
X53950Y-47950D01*
X53312Y-47950D01*
X53250Y-48012D01*
X53251Y-48199D01*
X53289Y-48291D01*
X53359Y-48361D01*
X53450Y-48399D01*
X53549Y-48399D01*
X53888Y-48400D01*
X53950Y-48338D01*
X53950Y-48601D01*
X53451Y-48601D01*
X53359Y-48639D01*
X53289Y-48709D01*
X53251Y-48800D01*
X53251Y-48899D01*
X53251Y-49399D01*
X53289Y-49491D01*
X53359Y-49561D01*
X53450Y-49599D01*
X53549Y-49599D01*
X53570Y-49599D01*
X53570Y-49633D01*
X53603Y-49798D01*
X53696Y-49937D01*
X53779Y-50020D01*
X53780Y-50021D01*
X53919Y-50114D01*
X54083Y-50146D01*
X54084Y-50147D01*
X55472Y-50147D01*
X55460Y-50178D01*
X55460Y-50393D01*
X55460Y-50821D01*
X55542Y-51020D01*
X55694Y-51171D01*
X55775Y-51205D01*
X52463Y-51205D01*
X52463Y-48121D01*
X52463Y-47952D01*
X52399Y-47796D01*
X52279Y-47676D01*
X52123Y-47611D01*
X51954Y-47611D01*
X51832Y-47660D01*
X51811Y-47609D01*
X51741Y-47539D01*
X51650Y-47501D01*
X51551Y-47501D01*
X51051Y-47501D01*
X50959Y-47539D01*
X50889Y-47609D01*
X50851Y-47700D01*
X50851Y-47799D01*
X50851Y-48799D01*
X50889Y-48891D01*
X50959Y-48961D01*
X51050Y-48999D01*
X51149Y-48999D01*
X51649Y-48999D01*
X51741Y-48961D01*
X51811Y-48891D01*
X51849Y-48800D01*
X51849Y-48701D01*
X51849Y-48518D01*
X51854Y-48518D01*
X51944Y-48457D01*
X51953Y-48461D01*
X52122Y-48461D01*
X52278Y-48397D01*
X52398Y-48277D01*
X52463Y-48121D01*
X52463Y-51205D01*
X51244Y-51205D01*
X51368Y-51081D01*
X51525Y-50705D01*
X51525Y-50297D01*
X51369Y-49920D01*
X51081Y-49632D01*
X50705Y-49475D01*
X50650Y-49475D01*
X50650Y-48362D01*
X50650Y-48138D01*
X50650Y-45862D01*
X50650Y-45638D01*
X50649Y-45299D01*
X50649Y-45200D01*
X50611Y-45109D01*
X50541Y-45039D01*
X50449Y-45001D01*
X50262Y-45000D01*
X50200Y-45062D01*
X50200Y-45700D01*
X50588Y-45700D01*
X50650Y-45638D01*
X50650Y-45862D01*
X50588Y-45800D01*
X50200Y-45800D01*
X50200Y-46438D01*
X50262Y-46500D01*
X50449Y-46499D01*
X50541Y-46461D01*
X50611Y-46391D01*
X50649Y-46300D01*
X50649Y-46201D01*
X50650Y-45862D01*
X50650Y-48138D01*
X50649Y-47799D01*
X50649Y-47700D01*
X50611Y-47609D01*
X50541Y-47539D01*
X50449Y-47501D01*
X50262Y-47500D01*
X50200Y-47562D01*
X50200Y-48200D01*
X50588Y-48200D01*
X50650Y-48138D01*
X50650Y-48362D01*
X50588Y-48300D01*
X50200Y-48300D01*
X50200Y-48938D01*
X50262Y-49000D01*
X50449Y-48999D01*
X50541Y-48961D01*
X50611Y-48891D01*
X50649Y-48800D01*
X50649Y-48701D01*
X50650Y-48362D01*
X50650Y-49475D01*
X50297Y-49475D01*
X50100Y-49556D01*
X50100Y-48938D01*
X50100Y-48300D01*
X50100Y-48200D01*
X50100Y-47562D01*
X50100Y-46438D01*
X50100Y-45800D01*
X50100Y-45700D01*
X50100Y-45062D01*
X50038Y-45000D01*
X49851Y-45001D01*
X49759Y-45039D01*
X49689Y-45109D01*
X49651Y-45200D01*
X49651Y-45299D01*
X49650Y-45638D01*
X49712Y-45700D01*
X50100Y-45700D01*
X50100Y-45800D01*
X49712Y-45800D01*
X49650Y-45862D01*
X49651Y-46201D01*
X49651Y-46300D01*
X49689Y-46391D01*
X49759Y-46461D01*
X49851Y-46499D01*
X50038Y-46500D01*
X50100Y-46438D01*
X50100Y-47562D01*
X50038Y-47500D01*
X49851Y-47501D01*
X49759Y-47539D01*
X49689Y-47609D01*
X49651Y-47700D01*
X49651Y-47799D01*
X49650Y-48138D01*
X49712Y-48200D01*
X50100Y-48200D01*
X50100Y-48300D01*
X49712Y-48300D01*
X49650Y-48362D01*
X49651Y-48701D01*
X49651Y-48800D01*
X49689Y-48891D01*
X49759Y-48961D01*
X49851Y-48999D01*
X50038Y-49000D01*
X50100Y-48938D01*
X50100Y-49556D01*
X49920Y-49631D01*
X49632Y-49919D01*
X49549Y-50117D01*
X49549Y-41859D01*
X49549Y-41641D01*
X49549Y-39859D01*
X49549Y-39641D01*
X49465Y-39439D01*
X49311Y-39285D01*
X49109Y-39201D01*
X48891Y-39201D01*
X48689Y-39285D01*
X48535Y-39439D01*
X48451Y-39641D01*
X48451Y-39859D01*
X48535Y-40061D01*
X48689Y-40215D01*
X48780Y-40252D01*
X48719Y-40278D01*
X48692Y-40372D01*
X49000Y-40679D01*
X49308Y-40372D01*
X49281Y-40278D01*
X49215Y-40254D01*
X49311Y-40215D01*
X49465Y-40061D01*
X49549Y-39859D01*
X49549Y-41641D01*
X49543Y-41626D01*
X49543Y-40829D01*
X49532Y-40616D01*
X49472Y-40469D01*
X49378Y-40442D01*
X49071Y-40750D01*
X49378Y-41058D01*
X49472Y-41031D01*
X49543Y-40829D01*
X49543Y-41626D01*
X49465Y-41439D01*
X49311Y-41285D01*
X49219Y-41247D01*
X49281Y-41222D01*
X49308Y-41128D01*
X49000Y-40821D01*
X48929Y-40891D01*
X48929Y-40750D01*
X48622Y-40442D01*
X48528Y-40469D01*
X48457Y-40671D01*
X48468Y-40884D01*
X48528Y-41031D01*
X48622Y-41058D01*
X48929Y-40750D01*
X48929Y-40891D01*
X48692Y-41128D01*
X48719Y-41222D01*
X48784Y-41245D01*
X48689Y-41285D01*
X48535Y-41439D01*
X48451Y-41641D01*
X48451Y-41859D01*
X48535Y-42061D01*
X48689Y-42215D01*
X48780Y-42252D01*
X48719Y-42278D01*
X48692Y-42372D01*
X49000Y-42679D01*
X49308Y-42372D01*
X49281Y-42278D01*
X49215Y-42254D01*
X49311Y-42215D01*
X49465Y-42061D01*
X49549Y-41859D01*
X49549Y-50117D01*
X49543Y-50132D01*
X49543Y-42829D01*
X49532Y-42616D01*
X49472Y-42469D01*
X49378Y-42442D01*
X49071Y-42750D01*
X49378Y-43058D01*
X49472Y-43031D01*
X49543Y-42829D01*
X49543Y-50132D01*
X49475Y-50295D01*
X49475Y-50703D01*
X49631Y-51080D01*
X49756Y-51205D01*
X49308Y-51205D01*
X49308Y-43128D01*
X49000Y-42821D01*
X48929Y-42891D01*
X48929Y-42750D01*
X48622Y-42442D01*
X48549Y-42462D01*
X48549Y-42359D01*
X48549Y-42141D01*
X48465Y-41939D01*
X48311Y-41785D01*
X48226Y-41750D01*
X48311Y-41715D01*
X48465Y-41561D01*
X48549Y-41359D01*
X48549Y-41141D01*
X48465Y-40939D01*
X48311Y-40785D01*
X48226Y-40750D01*
X48311Y-40715D01*
X48465Y-40561D01*
X48549Y-40359D01*
X48549Y-40141D01*
X48465Y-39939D01*
X48311Y-39785D01*
X48226Y-39750D01*
X48311Y-39715D01*
X48465Y-39561D01*
X48549Y-39359D01*
X48549Y-39141D01*
X48465Y-38939D01*
X48311Y-38785D01*
X48109Y-38701D01*
X47891Y-38701D01*
X47689Y-38785D01*
X47535Y-38939D01*
X47451Y-39141D01*
X47451Y-39359D01*
X47535Y-39561D01*
X47689Y-39715D01*
X47773Y-39750D01*
X47689Y-39785D01*
X47535Y-39939D01*
X47451Y-40141D01*
X47451Y-40359D01*
X47535Y-40561D01*
X47689Y-40715D01*
X47773Y-40750D01*
X47689Y-40785D01*
X47535Y-40939D01*
X47451Y-41141D01*
X47451Y-41359D01*
X47535Y-41561D01*
X47689Y-41715D01*
X47773Y-41750D01*
X47689Y-41785D01*
X47535Y-41939D01*
X47451Y-42141D01*
X47451Y-42359D01*
X47535Y-42561D01*
X47689Y-42715D01*
X47891Y-42799D01*
X48109Y-42799D01*
X48311Y-42715D01*
X48465Y-42561D01*
X48549Y-42359D01*
X48549Y-42462D01*
X48528Y-42469D01*
X48457Y-42671D01*
X48468Y-42884D01*
X48528Y-43031D01*
X48622Y-43058D01*
X48929Y-42750D01*
X48929Y-42891D01*
X48692Y-43128D01*
X48719Y-43222D01*
X48921Y-43293D01*
X49134Y-43282D01*
X49281Y-43222D01*
X49308Y-43128D01*
X49308Y-51205D01*
X46949Y-51205D01*
X46949Y-43809D01*
X46949Y-43591D01*
X46865Y-43389D01*
X46711Y-43235D01*
X46626Y-43200D01*
X46711Y-43165D01*
X46865Y-43011D01*
X46949Y-42809D01*
X46949Y-42591D01*
X46949Y-39409D01*
X46949Y-39191D01*
X46865Y-38989D01*
X46711Y-38835D01*
X46626Y-38800D01*
X46711Y-38765D01*
X46865Y-38611D01*
X46949Y-38409D01*
X46949Y-38191D01*
X46865Y-37989D01*
X46711Y-37835D01*
X46509Y-37751D01*
X46291Y-37751D01*
X46089Y-37835D01*
X45935Y-37989D01*
X45851Y-38191D01*
X45851Y-38409D01*
X45935Y-38611D01*
X46089Y-38765D01*
X46173Y-38800D01*
X46089Y-38835D01*
X45935Y-38989D01*
X45851Y-39191D01*
X45851Y-39409D01*
X45935Y-39611D01*
X46089Y-39765D01*
X46291Y-39849D01*
X46509Y-39849D01*
X46711Y-39765D01*
X46865Y-39611D01*
X46949Y-39409D01*
X46949Y-42591D01*
X46865Y-42389D01*
X46711Y-42235D01*
X46509Y-42151D01*
X46291Y-42151D01*
X46089Y-42235D01*
X45935Y-42389D01*
X45851Y-42591D01*
X45851Y-42809D01*
X45935Y-43011D01*
X46089Y-43165D01*
X46173Y-43200D01*
X46089Y-43235D01*
X45935Y-43389D01*
X45851Y-43591D01*
X45851Y-43809D01*
X45935Y-44011D01*
X46089Y-44165D01*
X46291Y-44249D01*
X46509Y-44249D01*
X46711Y-44165D01*
X46865Y-44011D01*
X46949Y-43809D01*
X46949Y-51205D01*
X43795Y-51205D01*
X43795Y-43806D01*
X43902Y-44066D01*
X44183Y-44347D01*
X44550Y-44500D01*
X44948Y-44500D01*
X45316Y-44348D01*
X45597Y-44067D01*
X45750Y-43700D01*
X45750Y-43302D01*
X45598Y-42934D01*
X45317Y-42653D01*
X44950Y-42500D01*
X44552Y-42500D01*
X44184Y-42652D01*
X43903Y-42933D01*
X43795Y-43192D01*
X43795Y-38806D01*
X43902Y-39066D01*
X44183Y-39347D01*
X44550Y-39500D01*
X44948Y-39500D01*
X45316Y-39348D01*
X45597Y-39067D01*
X45750Y-38700D01*
X45750Y-38302D01*
X45598Y-37934D01*
X45317Y-37653D01*
X44950Y-37500D01*
X44552Y-37500D01*
X44184Y-37652D01*
X43903Y-37933D01*
X43795Y-38192D01*
X43795Y-30795D01*
X50256Y-30795D01*
X50132Y-30919D01*
X49975Y-31295D01*
X49975Y-31703D01*
X50131Y-32080D01*
X50419Y-32368D01*
X50795Y-32525D01*
X51203Y-32525D01*
X51580Y-32369D01*
X51868Y-32081D01*
X51917Y-31961D01*
X51942Y-32020D01*
X52094Y-32171D01*
X52292Y-32254D01*
X52507Y-32254D01*
X52706Y-32172D01*
X52857Y-32020D01*
X52899Y-31917D01*
X52942Y-32020D01*
X53094Y-32171D01*
X53292Y-32254D01*
X53507Y-32254D01*
X53706Y-32172D01*
X53857Y-32020D01*
X53899Y-31917D01*
X53942Y-32020D01*
X54094Y-32171D01*
X54292Y-32254D01*
X54507Y-32254D01*
X54706Y-32172D01*
X54857Y-32020D01*
X54899Y-31917D01*
X54942Y-32020D01*
X55094Y-32171D01*
X55292Y-32254D01*
X55507Y-32254D01*
X55706Y-32172D01*
X55857Y-32020D01*
X55899Y-31917D01*
X55942Y-32020D01*
X56094Y-32171D01*
X56292Y-32254D01*
X56507Y-32254D01*
X56706Y-32172D01*
X56857Y-32020D01*
X56899Y-31917D01*
X56942Y-32020D01*
X57094Y-32171D01*
X57292Y-32254D01*
X57507Y-32254D01*
X57706Y-32172D01*
X57857Y-32020D01*
X57899Y-31917D01*
X57942Y-32020D01*
X58094Y-32171D01*
X58292Y-32254D01*
X58507Y-32254D01*
X58706Y-32172D01*
X58857Y-32020D01*
X58899Y-31917D01*
X58942Y-32020D01*
X59094Y-32171D01*
X59292Y-32254D01*
X59507Y-32254D01*
X59706Y-32172D01*
X59857Y-32020D01*
X59899Y-31917D01*
X59942Y-32020D01*
X60094Y-32171D01*
X60292Y-32254D01*
X60507Y-32254D01*
X60706Y-32172D01*
X60857Y-32020D01*
X60899Y-31917D01*
X60942Y-32020D01*
X61094Y-32171D01*
X61292Y-32254D01*
X61507Y-32254D01*
X61706Y-32172D01*
X61857Y-32020D01*
X61940Y-31822D01*
X61940Y-31607D01*
X61940Y-31179D01*
X61858Y-30980D01*
X61706Y-30829D01*
X61624Y-30795D01*
X62774Y-30795D01*
X62694Y-30828D01*
X62543Y-30980D01*
X62460Y-31178D01*
X62460Y-31393D01*
X62460Y-31821D01*
X62542Y-32020D01*
X62694Y-32171D01*
X62892Y-32254D01*
X63107Y-32254D01*
X63306Y-32172D01*
X63457Y-32020D01*
X63499Y-31917D01*
X63542Y-32020D01*
X63694Y-32171D01*
X63892Y-32254D01*
X64107Y-32254D01*
X64306Y-32172D01*
X64457Y-32020D01*
X64499Y-31917D01*
X64542Y-32020D01*
X64694Y-32171D01*
X64892Y-32254D01*
X65107Y-32254D01*
X65306Y-32172D01*
X65457Y-32020D01*
X65499Y-31917D01*
X65542Y-32020D01*
X65694Y-32171D01*
X65892Y-32254D01*
X66107Y-32254D01*
X66306Y-32172D01*
X66457Y-32020D01*
X66499Y-31917D01*
X66542Y-32020D01*
X66694Y-32171D01*
X66892Y-32254D01*
X67107Y-32254D01*
X67306Y-32172D01*
X67457Y-32020D01*
X67499Y-31917D01*
X67542Y-32020D01*
X67694Y-32171D01*
X67892Y-32254D01*
X68107Y-32254D01*
X68306Y-32172D01*
X68457Y-32020D01*
X68499Y-31917D01*
X68542Y-32020D01*
X68694Y-32171D01*
X68892Y-32254D01*
X69107Y-32254D01*
X69306Y-32172D01*
X69457Y-32020D01*
X69499Y-31917D01*
X69542Y-32020D01*
X69694Y-32171D01*
X69892Y-32254D01*
X70107Y-32254D01*
X70306Y-32172D01*
X70457Y-32020D01*
X70540Y-31822D01*
X70540Y-31607D01*
X70540Y-31179D01*
X70458Y-30980D01*
X70306Y-30829D01*
X70224Y-30795D01*
X71774Y-30795D01*
X71694Y-30828D01*
X71543Y-30980D01*
X71460Y-31178D01*
X71460Y-31393D01*
X71460Y-31821D01*
X71542Y-32020D01*
X71694Y-32171D01*
X71892Y-32254D01*
X72107Y-32254D01*
X72306Y-32172D01*
X72457Y-32020D01*
X72499Y-31917D01*
X72542Y-32020D01*
X72694Y-32171D01*
X72892Y-32254D01*
X73107Y-32254D01*
X73306Y-32172D01*
X73457Y-32020D01*
X73499Y-31917D01*
X73542Y-32020D01*
X73694Y-32171D01*
X73892Y-32254D01*
X74107Y-32254D01*
X74306Y-32172D01*
X74457Y-32020D01*
X74499Y-31917D01*
X74542Y-32020D01*
X74694Y-32171D01*
X74892Y-32254D01*
X75107Y-32254D01*
X75306Y-32172D01*
X75457Y-32020D01*
X75499Y-31917D01*
X75542Y-32020D01*
X75694Y-32171D01*
X75892Y-32254D01*
X76107Y-32254D01*
X76306Y-32172D01*
X76457Y-32020D01*
X76499Y-31917D01*
X76542Y-32020D01*
X76694Y-32171D01*
X76892Y-32254D01*
X77107Y-32254D01*
X77306Y-32172D01*
X77457Y-32020D01*
X77499Y-31917D01*
X77542Y-32020D01*
X77694Y-32171D01*
X77892Y-32254D01*
X78107Y-32254D01*
X78306Y-32172D01*
X78457Y-32020D01*
X78499Y-31917D01*
X78542Y-32020D01*
X78694Y-32171D01*
X78892Y-32254D01*
X79107Y-32254D01*
X79306Y-32172D01*
X79457Y-32020D01*
X79532Y-31840D01*
X79631Y-32080D01*
X79919Y-32368D01*
X80295Y-32525D01*
X80703Y-32525D01*
X81080Y-32369D01*
X81368Y-32081D01*
X81507Y-31745D01*
X81535Y-31811D01*
X81689Y-31965D01*
X81773Y-32000D01*
X81689Y-32035D01*
X81535Y-32189D01*
X81451Y-32391D01*
X81451Y-32609D01*
X81511Y-32754D01*
X81388Y-32754D01*
X81277Y-32776D01*
X81183Y-32839D01*
X81161Y-32861D01*
X81098Y-32955D01*
X81076Y-33066D01*
X81076Y-41343D01*
X80835Y-41584D01*
X80835Y-40949D01*
X80834Y-40948D01*
X80835Y-40948D01*
X80807Y-40807D01*
X80727Y-40687D01*
X80724Y-40685D01*
X77614Y-37575D01*
X78380Y-37575D01*
X78491Y-37553D01*
X78585Y-37490D01*
X79242Y-36833D01*
X79305Y-36739D01*
X79305Y-36734D01*
X79699Y-36734D01*
X79791Y-36696D01*
X79861Y-36626D01*
X79899Y-36535D01*
X79899Y-36436D01*
X79899Y-35966D01*
X79861Y-35874D01*
X79791Y-35804D01*
X79700Y-35766D01*
X79601Y-35766D01*
X79131Y-35766D01*
X79039Y-35804D01*
X79000Y-35843D01*
X78961Y-35804D01*
X78955Y-35801D01*
X78955Y-34673D01*
X78941Y-34602D01*
X79006Y-34576D01*
X79076Y-34506D01*
X79093Y-34463D01*
X79151Y-34521D01*
X79377Y-34615D01*
X79622Y-34615D01*
X79848Y-34521D01*
X80021Y-34349D01*
X80115Y-34123D01*
X80115Y-33878D01*
X80021Y-33652D01*
X79930Y-33560D01*
X79930Y-33455D01*
X79897Y-33291D01*
X79897Y-33290D01*
X79804Y-33151D01*
X79700Y-33047D01*
X79561Y-32954D01*
X79396Y-32921D01*
X75604Y-32921D01*
X75500Y-32941D01*
X75499Y-32941D01*
X75396Y-32921D01*
X71500Y-32921D01*
X67500Y-32921D01*
X63500Y-32921D01*
X60149Y-32921D01*
X59984Y-32954D01*
X59845Y-33047D01*
X59844Y-33047D01*
X59844Y-33048D01*
X59507Y-33385D01*
X59378Y-33385D01*
X59152Y-33479D01*
X59093Y-33536D01*
X59076Y-33494D01*
X59006Y-33424D01*
X58915Y-33386D01*
X58816Y-33386D01*
X58086Y-33386D01*
X57994Y-33424D01*
X57924Y-33494D01*
X57886Y-33585D01*
X57886Y-33684D01*
X57886Y-34414D01*
X57924Y-34506D01*
X57994Y-34576D01*
X58085Y-34614D01*
X58130Y-34614D01*
X58130Y-35702D01*
X58129Y-35707D01*
X58153Y-35824D01*
X58158Y-35849D01*
X58160Y-35852D01*
X58139Y-35874D01*
X58101Y-35965D01*
X58101Y-36064D01*
X58101Y-36534D01*
X58139Y-36626D01*
X58209Y-36696D01*
X58300Y-36734D01*
X58399Y-36734D01*
X58545Y-36734D01*
X58861Y-37050D01*
X58118Y-37050D01*
X56541Y-35472D01*
X56421Y-35392D01*
X56396Y-35387D01*
X56279Y-35363D01*
X56274Y-35364D01*
X54955Y-35364D01*
X54955Y-34673D01*
X54941Y-34602D01*
X55006Y-34576D01*
X55076Y-34506D01*
X55093Y-34463D01*
X55151Y-34521D01*
X55377Y-34615D01*
X55622Y-34615D01*
X55848Y-34521D01*
X56021Y-34349D01*
X56115Y-34123D01*
X56115Y-33878D01*
X56021Y-33652D01*
X55849Y-33479D01*
X55623Y-33385D01*
X55378Y-33385D01*
X55152Y-33479D01*
X55093Y-33536D01*
X55076Y-33494D01*
X55006Y-33424D01*
X54915Y-33386D01*
X54816Y-33386D01*
X54086Y-33386D01*
X53994Y-33424D01*
X53924Y-33494D01*
X53886Y-33585D01*
X53886Y-33684D01*
X53886Y-34414D01*
X53924Y-34506D01*
X53994Y-34576D01*
X54085Y-34614D01*
X54134Y-34614D01*
X54153Y-34705D01*
X54158Y-34730D01*
X54215Y-34815D01*
X54215Y-35734D01*
X54215Y-35801D01*
X54209Y-35804D01*
X54139Y-35874D01*
X54101Y-35965D01*
X54101Y-36064D01*
X54101Y-36175D01*
X53971Y-36045D01*
X53877Y-35982D01*
X53766Y-35960D01*
X51896Y-35960D01*
X51861Y-35874D01*
X51791Y-35804D01*
X51700Y-35766D01*
X51601Y-35766D01*
X51131Y-35766D01*
X51039Y-35804D01*
X51000Y-35843D01*
X50961Y-35804D01*
X50955Y-35801D01*
X50955Y-35792D01*
X50927Y-35650D01*
X50870Y-35565D01*
X50870Y-35564D01*
X50870Y-34614D01*
X50914Y-34614D01*
X51006Y-34576D01*
X51076Y-34506D01*
X51093Y-34463D01*
X51151Y-34521D01*
X51377Y-34615D01*
X51622Y-34615D01*
X51848Y-34521D01*
X52021Y-34349D01*
X52115Y-34123D01*
X52115Y-33878D01*
X52021Y-33652D01*
X51849Y-33479D01*
X51623Y-33385D01*
X51378Y-33385D01*
X51152Y-33479D01*
X51093Y-33536D01*
X51076Y-33494D01*
X51006Y-33424D01*
X50915Y-33386D01*
X50816Y-33386D01*
X50086Y-33386D01*
X49994Y-33424D01*
X49924Y-33494D01*
X49886Y-33585D01*
X49886Y-33684D01*
X49886Y-34414D01*
X49924Y-34506D01*
X49994Y-34576D01*
X50085Y-34614D01*
X50130Y-34614D01*
X50130Y-35702D01*
X50129Y-35707D01*
X50153Y-35824D01*
X50158Y-35849D01*
X50160Y-35852D01*
X50139Y-35874D01*
X50101Y-35965D01*
X50101Y-36064D01*
X50101Y-36534D01*
X50139Y-36626D01*
X50209Y-36696D01*
X50300Y-36734D01*
X50399Y-36734D01*
X50545Y-36734D01*
X51025Y-37213D01*
X51027Y-37216D01*
X51147Y-37296D01*
X51289Y-37324D01*
X52291Y-37324D01*
X52768Y-37801D01*
X52689Y-37835D01*
X52535Y-37989D01*
X52451Y-38191D01*
X52451Y-38409D01*
X52535Y-38611D01*
X52689Y-38765D01*
X52773Y-38800D01*
X52689Y-38835D01*
X52535Y-38989D01*
X52451Y-39191D01*
X52451Y-39409D01*
X52535Y-39611D01*
X52689Y-39765D01*
X52891Y-39849D01*
X53109Y-39849D01*
X53311Y-39765D01*
X53465Y-39611D01*
X53549Y-39409D01*
X53549Y-39191D01*
X53465Y-38989D01*
X53311Y-38835D01*
X53226Y-38800D01*
X53311Y-38765D01*
X53465Y-38611D01*
X53498Y-38531D01*
X55638Y-40671D01*
X55758Y-40751D01*
X55759Y-40751D01*
X55900Y-40779D01*
X59503Y-40779D01*
X59480Y-40795D01*
X59479Y-40795D01*
X59479Y-40796D01*
X56286Y-43989D01*
X56223Y-44083D01*
X56201Y-44194D01*
X56201Y-46491D01*
X56223Y-46602D01*
X56286Y-46696D01*
X56409Y-46819D01*
X56385Y-46877D01*
X56385Y-47122D01*
X56479Y-47348D01*
X56651Y-47521D01*
X56662Y-47525D01*
X56646Y-47576D01*
X57000Y-47929D01*
X57354Y-47576D01*
X57337Y-47525D01*
X57348Y-47521D01*
X57521Y-47349D01*
X57615Y-47123D01*
X57615Y-46878D01*
X57521Y-46652D01*
X57463Y-46593D01*
X57506Y-46576D01*
X57576Y-46506D01*
X57607Y-46430D01*
X57648Y-46430D01*
X58638Y-46430D01*
X58912Y-46704D01*
X58913Y-46704D01*
X59052Y-46797D01*
X59217Y-46830D01*
X59328Y-46830D01*
X59359Y-46861D01*
X59450Y-46899D01*
X59549Y-46899D01*
X60549Y-46899D01*
X60641Y-46861D01*
X60672Y-46830D01*
X60783Y-46830D01*
X60947Y-46797D01*
X60948Y-46797D01*
X61087Y-46704D01*
X61361Y-46430D01*
X62392Y-46430D01*
X62424Y-46506D01*
X62494Y-46576D01*
X62536Y-46593D01*
X62479Y-46651D01*
X62385Y-46877D01*
X62385Y-47122D01*
X62479Y-47348D01*
X62651Y-47521D01*
X62662Y-47525D01*
X62646Y-47576D01*
X63000Y-47929D01*
X63354Y-47576D01*
X63337Y-47525D01*
X63348Y-47521D01*
X63521Y-47349D01*
X63615Y-47123D01*
X63615Y-46878D01*
X63521Y-46652D01*
X63463Y-46593D01*
X63506Y-46576D01*
X63576Y-46506D01*
X63607Y-46430D01*
X64638Y-46430D01*
X64912Y-46704D01*
X64913Y-46704D01*
X65052Y-46797D01*
X65217Y-46830D01*
X65328Y-46830D01*
X65359Y-46861D01*
X65450Y-46899D01*
X65549Y-46899D01*
X66549Y-46899D01*
X66641Y-46861D01*
X66672Y-46830D01*
X66783Y-46830D01*
X67952Y-46830D01*
X68116Y-46797D01*
X68117Y-46797D01*
X68256Y-46704D01*
X68439Y-46521D01*
X68494Y-46576D01*
X68536Y-46593D01*
X68479Y-46651D01*
X68385Y-46877D01*
X68385Y-47122D01*
X68479Y-47348D01*
X68651Y-47521D01*
X68662Y-47525D01*
X68646Y-47576D01*
X69000Y-47929D01*
X69354Y-47576D01*
X69337Y-47525D01*
X69348Y-47521D01*
X69521Y-47349D01*
X69615Y-47123D01*
X69615Y-46878D01*
X69521Y-46652D01*
X69463Y-46593D01*
X69506Y-46576D01*
X69576Y-46506D01*
X69607Y-46430D01*
X70638Y-46430D01*
X70912Y-46704D01*
X70913Y-46704D01*
X71052Y-46797D01*
X71217Y-46830D01*
X71328Y-46830D01*
X71359Y-46861D01*
X71450Y-46899D01*
X71549Y-46899D01*
X72549Y-46899D01*
X72641Y-46861D01*
X72672Y-46830D01*
X72783Y-46830D01*
X72947Y-46797D01*
X72948Y-46797D01*
X73087Y-46704D01*
X73361Y-46430D01*
X74642Y-46430D01*
X74674Y-46506D01*
X74744Y-46576D01*
X74786Y-46593D01*
X74729Y-46651D01*
X74635Y-46877D01*
X74635Y-47122D01*
X74729Y-47348D01*
X74901Y-47521D01*
X74912Y-47525D01*
X74896Y-47576D01*
X75250Y-47929D01*
X75604Y-47576D01*
X75587Y-47525D01*
X75598Y-47521D01*
X75771Y-47349D01*
X75795Y-47290D01*
X76090Y-47290D01*
X76201Y-47268D01*
X76295Y-47205D01*
X81612Y-41888D01*
X81689Y-41965D01*
X81773Y-42000D01*
X81689Y-42035D01*
X81535Y-42189D01*
X81451Y-42391D01*
X81451Y-42609D01*
X81535Y-42811D01*
X81689Y-42965D01*
X81773Y-43000D01*
X81689Y-43035D01*
X81535Y-43189D01*
X81451Y-43391D01*
X81451Y-43609D01*
X81535Y-43811D01*
X81689Y-43965D01*
X81773Y-44000D01*
X81689Y-44035D01*
X81535Y-44189D01*
X81451Y-44391D01*
X81451Y-44609D01*
X81535Y-44811D01*
X81689Y-44965D01*
X81773Y-45000D01*
X81689Y-45035D01*
X81535Y-45189D01*
X81451Y-45391D01*
X81451Y-45609D01*
X81535Y-45811D01*
X81689Y-45965D01*
X81773Y-46000D01*
X81689Y-46035D01*
X81535Y-46189D01*
X81451Y-46391D01*
X81451Y-46609D01*
X81535Y-46811D01*
X81689Y-46965D01*
X81773Y-47000D01*
X81689Y-47035D01*
X81535Y-47189D01*
X81451Y-47391D01*
X81451Y-47609D01*
X81535Y-47811D01*
X81689Y-47965D01*
X81773Y-48000D01*
X81773Y-48000D01*
G37*
G54D32*
X81773Y-48000D02*
X81689Y-48035D01*
X81535Y-48189D01*
X81451Y-48391D01*
X81451Y-48609D01*
X81535Y-48811D01*
X81552Y-48828D01*
X75857Y-48828D01*
X75857Y-48095D01*
X75847Y-47856D01*
X75775Y-47680D01*
X75674Y-47646D01*
X75321Y-48000D01*
X75674Y-48354D01*
X75775Y-48320D01*
X75857Y-48095D01*
X75857Y-48828D01*
X75604Y-48828D01*
X75604Y-48424D01*
X75250Y-48071D01*
X75179Y-48141D01*
X75179Y-48000D01*
X74826Y-47646D01*
X74725Y-47680D01*
X74643Y-47905D01*
X74653Y-48144D01*
X74725Y-48320D01*
X74826Y-48354D01*
X75179Y-48000D01*
X75179Y-48141D01*
X74896Y-48424D01*
X74930Y-48525D01*
X75155Y-48607D01*
X75394Y-48597D01*
X75570Y-48525D01*
X75604Y-48424D01*
X75604Y-48828D01*
X72750Y-48828D01*
X72750Y-47712D01*
X72750Y-47488D01*
X72749Y-47301D01*
X72711Y-47209D01*
X72641Y-47139D01*
X72550Y-47101D01*
X72451Y-47101D01*
X72112Y-47100D01*
X72050Y-47162D01*
X72050Y-47550D01*
X72688Y-47550D01*
X72750Y-47488D01*
X72750Y-47712D01*
X72688Y-47650D01*
X72050Y-47650D01*
X72050Y-48038D01*
X72112Y-48100D01*
X72451Y-48099D01*
X72550Y-48099D01*
X72641Y-48061D01*
X72711Y-47991D01*
X72749Y-47899D01*
X72750Y-47712D01*
X72750Y-48828D01*
X71950Y-48828D01*
X71950Y-48038D01*
X71950Y-47650D01*
X71950Y-47550D01*
X71950Y-47162D01*
X71888Y-47100D01*
X71549Y-47101D01*
X71450Y-47101D01*
X71359Y-47139D01*
X71289Y-47209D01*
X71251Y-47301D01*
X71250Y-47488D01*
X71312Y-47550D01*
X71950Y-47550D01*
X71950Y-47650D01*
X71312Y-47650D01*
X71250Y-47712D01*
X71251Y-47899D01*
X71289Y-47991D01*
X71359Y-48061D01*
X71450Y-48099D01*
X71549Y-48099D01*
X71888Y-48100D01*
X71950Y-48038D01*
X71950Y-48828D01*
X69607Y-48828D01*
X69607Y-48095D01*
X69597Y-47856D01*
X69525Y-47680D01*
X69424Y-47646D01*
X69071Y-48000D01*
X69424Y-48354D01*
X69525Y-48320D01*
X69607Y-48095D01*
X69607Y-48828D01*
X69354Y-48828D01*
X69354Y-48424D01*
X69000Y-48071D01*
X68929Y-48141D01*
X68929Y-48000D01*
X68576Y-47646D01*
X68475Y-47680D01*
X68393Y-47905D01*
X68403Y-48144D01*
X68475Y-48320D01*
X68576Y-48354D01*
X68929Y-48000D01*
X68929Y-48141D01*
X68646Y-48424D01*
X68680Y-48525D01*
X68905Y-48607D01*
X69144Y-48597D01*
X69320Y-48525D01*
X69354Y-48424D01*
X69354Y-48828D01*
X66750Y-48828D01*
X66750Y-47712D01*
X66750Y-47488D01*
X66749Y-47301D01*
X66711Y-47209D01*
X66641Y-47139D01*
X66550Y-47101D01*
X66451Y-47101D01*
X66112Y-47100D01*
X66050Y-47162D01*
X66050Y-47550D01*
X66688Y-47550D01*
X66750Y-47488D01*
X66750Y-47712D01*
X66688Y-47650D01*
X66050Y-47650D01*
X66050Y-48038D01*
X66112Y-48100D01*
X66451Y-48099D01*
X66550Y-48099D01*
X66641Y-48061D01*
X66711Y-47991D01*
X66749Y-47899D01*
X66750Y-47712D01*
X66750Y-48828D01*
X65950Y-48828D01*
X65950Y-48038D01*
X65950Y-47650D01*
X65950Y-47550D01*
X65950Y-47162D01*
X65888Y-47100D01*
X65549Y-47101D01*
X65450Y-47101D01*
X65359Y-47139D01*
X65289Y-47209D01*
X65251Y-47301D01*
X65250Y-47488D01*
X65312Y-47550D01*
X65950Y-47550D01*
X65950Y-47650D01*
X65312Y-47650D01*
X65250Y-47712D01*
X65251Y-47899D01*
X65289Y-47991D01*
X65359Y-48061D01*
X65450Y-48099D01*
X65549Y-48099D01*
X65888Y-48100D01*
X65950Y-48038D01*
X65950Y-48828D01*
X63607Y-48828D01*
X63607Y-48095D01*
X63597Y-47856D01*
X63525Y-47680D01*
X63424Y-47646D01*
X63071Y-48000D01*
X63424Y-48354D01*
X63525Y-48320D01*
X63607Y-48095D01*
X63607Y-48828D01*
X63459Y-48828D01*
X63354Y-48849D01*
X63354Y-48424D01*
X63000Y-48071D01*
X62929Y-48141D01*
X62929Y-48000D01*
X62576Y-47646D01*
X62475Y-47680D01*
X62393Y-47905D01*
X62403Y-48144D01*
X62475Y-48320D01*
X62576Y-48354D01*
X62929Y-48000D01*
X62929Y-48141D01*
X62646Y-48424D01*
X62680Y-48525D01*
X62905Y-48607D01*
X63144Y-48597D01*
X63320Y-48525D01*
X63354Y-48424D01*
X63354Y-48849D01*
X63294Y-48861D01*
X63155Y-48954D01*
X62696Y-49413D01*
X62603Y-49552D01*
X62570Y-49717D01*
X62570Y-49952D01*
X62543Y-49980D01*
X62500Y-50081D01*
X62489Y-50043D01*
X62353Y-49875D01*
X62163Y-49772D01*
X62135Y-49768D01*
X62050Y-49815D01*
X62050Y-50400D01*
X62050Y-50450D01*
X62050Y-50550D01*
X61950Y-50550D01*
X61950Y-50450D01*
X61950Y-49815D01*
X61865Y-49768D01*
X61837Y-49772D01*
X61647Y-49875D01*
X61511Y-50043D01*
X61500Y-50080D01*
X61489Y-50043D01*
X61353Y-49875D01*
X61163Y-49772D01*
X61135Y-49768D01*
X61050Y-49815D01*
X61050Y-50450D01*
X61450Y-50450D01*
X61550Y-50450D01*
X61950Y-50450D01*
X61950Y-50550D01*
X61900Y-50550D01*
X61550Y-50550D01*
X61450Y-50550D01*
X61100Y-50550D01*
X61050Y-50550D01*
X60950Y-50550D01*
X60950Y-50450D01*
X60950Y-50400D01*
X60950Y-49815D01*
X60865Y-49768D01*
X60837Y-49772D01*
X60750Y-49819D01*
X60750Y-47712D01*
X60750Y-47488D01*
X60749Y-47301D01*
X60711Y-47209D01*
X60641Y-47139D01*
X60550Y-47101D01*
X60451Y-47101D01*
X60112Y-47100D01*
X60050Y-47162D01*
X60050Y-47550D01*
X60688Y-47550D01*
X60750Y-47488D01*
X60750Y-47712D01*
X60688Y-47650D01*
X60050Y-47650D01*
X60050Y-48038D01*
X60112Y-48100D01*
X60451Y-48099D01*
X60550Y-48099D01*
X60641Y-48061D01*
X60711Y-47991D01*
X60749Y-47899D01*
X60750Y-47712D01*
X60750Y-49819D01*
X60647Y-49875D01*
X60511Y-50043D01*
X60499Y-50081D01*
X60458Y-49980D01*
X60430Y-49952D01*
X60430Y-49717D01*
X60397Y-49552D01*
X60304Y-49413D01*
X60165Y-49320D01*
X60000Y-49287D01*
X59950Y-49287D01*
X59950Y-48038D01*
X59950Y-47650D01*
X59950Y-47550D01*
X59950Y-47162D01*
X59888Y-47100D01*
X59549Y-47101D01*
X59450Y-47101D01*
X59359Y-47139D01*
X59289Y-47209D01*
X59251Y-47301D01*
X59250Y-47488D01*
X59312Y-47550D01*
X59950Y-47550D01*
X59950Y-47650D01*
X59312Y-47650D01*
X59250Y-47712D01*
X59251Y-47899D01*
X59289Y-47991D01*
X59359Y-48061D01*
X59450Y-48099D01*
X59549Y-48099D01*
X59888Y-48100D01*
X59950Y-48038D01*
X59950Y-49287D01*
X57607Y-49287D01*
X57607Y-48095D01*
X57597Y-47856D01*
X57525Y-47680D01*
X57424Y-47646D01*
X57071Y-48000D01*
X57424Y-48354D01*
X57525Y-48320D01*
X57607Y-48095D01*
X57607Y-49287D01*
X57354Y-49287D01*
X57354Y-48424D01*
X57000Y-48071D01*
X56929Y-48141D01*
X56929Y-48000D01*
X56576Y-47646D01*
X56475Y-47680D01*
X56393Y-47905D01*
X56403Y-48144D01*
X56475Y-48320D01*
X56576Y-48354D01*
X56929Y-48000D01*
X56929Y-48141D01*
X56646Y-48424D01*
X56680Y-48525D01*
X56905Y-48607D01*
X57144Y-48597D01*
X57320Y-48525D01*
X57354Y-48424D01*
X57354Y-49287D01*
X54750Y-49287D01*
X54750Y-48012D01*
X54750Y-47788D01*
X54749Y-47601D01*
X54711Y-47509D01*
X54641Y-47439D01*
X54550Y-47401D01*
X54451Y-47401D01*
X54112Y-47400D01*
X54050Y-47462D01*
X54050Y-47850D01*
X54688Y-47850D01*
X54750Y-47788D01*
X54750Y-48012D01*
X54688Y-47950D01*
X54050Y-47950D01*
X54050Y-48338D01*
X54112Y-48400D01*
X54451Y-48399D01*
X54550Y-48399D01*
X54641Y-48361D01*
X54711Y-48291D01*
X54749Y-48199D01*
X54750Y-48012D01*
X54750Y-49287D01*
X54749Y-49287D01*
X54749Y-48801D01*
X54711Y-48709D01*
X54641Y-48639D01*
X54550Y-48601D01*
X54451Y-48601D01*
X53950Y-48601D01*
X53950Y-48338D01*
X53950Y-47950D01*
X53950Y-47850D01*
X53950Y-47462D01*
X53950Y-46125D01*
X53950Y-45956D01*
X53886Y-45800D01*
X53766Y-45680D01*
X53610Y-45615D01*
X53549Y-45615D01*
X53549Y-43809D01*
X53549Y-43591D01*
X53465Y-43389D01*
X53311Y-43235D01*
X53226Y-43200D01*
X53311Y-43165D01*
X53465Y-43011D01*
X53549Y-42809D01*
X53549Y-42591D01*
X53465Y-42389D01*
X53311Y-42235D01*
X53109Y-42151D01*
X52891Y-42151D01*
X52689Y-42235D01*
X52535Y-42389D01*
X52451Y-42591D01*
X52451Y-42809D01*
X52535Y-43011D01*
X52689Y-43165D01*
X52773Y-43200D01*
X52689Y-43235D01*
X52535Y-43389D01*
X52451Y-43591D01*
X52451Y-43809D01*
X52535Y-44011D01*
X52689Y-44165D01*
X52891Y-44249D01*
X53109Y-44249D01*
X53311Y-44165D01*
X53465Y-44011D01*
X53549Y-43809D01*
X53549Y-45615D01*
X53441Y-45615D01*
X53285Y-45679D01*
X53214Y-45750D01*
X52153Y-45750D01*
X51999Y-45596D01*
X51999Y-41859D01*
X51999Y-41641D01*
X51999Y-39859D01*
X51999Y-39641D01*
X51915Y-39439D01*
X51761Y-39285D01*
X51559Y-39201D01*
X51341Y-39201D01*
X51139Y-39285D01*
X50985Y-39439D01*
X50901Y-39641D01*
X50901Y-39859D01*
X50985Y-40061D01*
X51139Y-40215D01*
X51230Y-40252D01*
X51169Y-40278D01*
X51142Y-40372D01*
X51450Y-40679D01*
X51758Y-40372D01*
X51731Y-40278D01*
X51665Y-40254D01*
X51761Y-40215D01*
X51915Y-40061D01*
X51999Y-39859D01*
X51999Y-41641D01*
X51993Y-41626D01*
X51993Y-40829D01*
X51982Y-40616D01*
X51922Y-40469D01*
X51828Y-40442D01*
X51521Y-40750D01*
X51828Y-41058D01*
X51922Y-41031D01*
X51993Y-40829D01*
X51993Y-41626D01*
X51915Y-41439D01*
X51761Y-41285D01*
X51669Y-41247D01*
X51731Y-41222D01*
X51758Y-41128D01*
X51450Y-40821D01*
X51379Y-40891D01*
X51379Y-40750D01*
X51072Y-40442D01*
X50978Y-40469D01*
X50907Y-40671D01*
X50918Y-40884D01*
X50978Y-41031D01*
X51072Y-41058D01*
X51379Y-40750D01*
X51379Y-40891D01*
X51142Y-41128D01*
X51169Y-41222D01*
X51234Y-41245D01*
X51139Y-41285D01*
X50985Y-41439D01*
X50901Y-41641D01*
X50901Y-41859D01*
X50985Y-42061D01*
X51139Y-42215D01*
X51230Y-42252D01*
X51169Y-42278D01*
X51142Y-42372D01*
X51450Y-42679D01*
X51758Y-42372D01*
X51731Y-42278D01*
X51665Y-42254D01*
X51761Y-42215D01*
X51915Y-42061D01*
X51999Y-41859D01*
X51999Y-45596D01*
X51993Y-45590D01*
X51993Y-42829D01*
X51982Y-42616D01*
X51922Y-42469D01*
X51828Y-42442D01*
X51521Y-42750D01*
X51828Y-43058D01*
X51922Y-43031D01*
X51993Y-42829D01*
X51993Y-45590D01*
X51948Y-45545D01*
X51854Y-45482D01*
X51849Y-45481D01*
X51849Y-45201D01*
X51811Y-45109D01*
X51758Y-45056D01*
X51758Y-43128D01*
X51450Y-42821D01*
X51379Y-42891D01*
X51379Y-42750D01*
X51072Y-42442D01*
X50999Y-42462D01*
X50999Y-42359D01*
X50999Y-42141D01*
X50915Y-41939D01*
X50761Y-41785D01*
X50676Y-41750D01*
X50761Y-41715D01*
X50915Y-41561D01*
X50999Y-41359D01*
X50999Y-41141D01*
X50915Y-40939D01*
X50761Y-40785D01*
X50676Y-40750D01*
X50761Y-40715D01*
X50915Y-40561D01*
X50999Y-40359D01*
X50999Y-40141D01*
X50915Y-39939D01*
X50761Y-39785D01*
X50676Y-39750D01*
X50761Y-39715D01*
X50915Y-39561D01*
X50999Y-39359D01*
X50999Y-39141D01*
X50915Y-38939D01*
X50761Y-38785D01*
X50559Y-38701D01*
X50341Y-38701D01*
X50139Y-38785D01*
X49985Y-38939D01*
X49901Y-39141D01*
X49901Y-39359D01*
X49985Y-39561D01*
X50139Y-39715D01*
X50223Y-39750D01*
X50139Y-39785D01*
X49985Y-39939D01*
X49901Y-40141D01*
X49901Y-40359D01*
X49985Y-40561D01*
X50139Y-40715D01*
X50223Y-40750D01*
X50139Y-40785D01*
X49985Y-40939D01*
X49901Y-41141D01*
X49901Y-41359D01*
X49985Y-41561D01*
X50139Y-41715D01*
X50223Y-41750D01*
X50139Y-41785D01*
X49985Y-41939D01*
X49901Y-42141D01*
X49901Y-42359D01*
X49985Y-42561D01*
X50139Y-42715D01*
X50341Y-42799D01*
X50559Y-42799D01*
X50761Y-42715D01*
X50915Y-42561D01*
X50999Y-42359D01*
X50999Y-42462D01*
X50978Y-42469D01*
X50907Y-42671D01*
X50918Y-42884D01*
X50978Y-43031D01*
X51072Y-43058D01*
X51379Y-42750D01*
X51379Y-42891D01*
X51142Y-43128D01*
X51169Y-43222D01*
X51371Y-43293D01*
X51584Y-43282D01*
X51731Y-43222D01*
X51758Y-43128D01*
X51758Y-45056D01*
X51741Y-45039D01*
X51650Y-45001D01*
X51551Y-45001D01*
X51051Y-45001D01*
X50959Y-45039D01*
X50889Y-45109D01*
X50851Y-45200D01*
X50851Y-45299D01*
X50851Y-46299D01*
X50889Y-46391D01*
X50959Y-46461D01*
X51050Y-46499D01*
X51149Y-46499D01*
X51649Y-46499D01*
X51741Y-46461D01*
X51811Y-46391D01*
X51849Y-46300D01*
X51849Y-46259D01*
X51922Y-46308D01*
X52033Y-46330D01*
X53214Y-46330D01*
X53284Y-46400D01*
X53440Y-46465D01*
X53609Y-46465D01*
X53765Y-46401D01*
X53885Y-46281D01*
X53950Y-46125D01*
X53950Y-47462D01*
X53888Y-47400D01*
X53549Y-47401D01*
X53450Y-47401D01*
X53359Y-47439D01*
X53289Y-47509D01*
X53251Y-47601D01*
X53250Y-47788D01*
X53312Y-47850D01*
X53950Y-47850D01*
X53950Y-47950D01*
X53312Y-47950D01*
X53250Y-48012D01*
X53251Y-48199D01*
X53289Y-48291D01*
X53359Y-48361D01*
X53450Y-48399D01*
X53549Y-48399D01*
X53888Y-48400D01*
X53950Y-48338D01*
X53950Y-48601D01*
X53451Y-48601D01*
X53359Y-48639D01*
X53289Y-48709D01*
X53251Y-48800D01*
X53251Y-48899D01*
X53251Y-49399D01*
X53289Y-49491D01*
X53359Y-49561D01*
X53450Y-49599D01*
X53549Y-49599D01*
X53570Y-49599D01*
X53570Y-49633D01*
X53603Y-49798D01*
X53696Y-49937D01*
X53779Y-50020D01*
X53780Y-50021D01*
X53919Y-50114D01*
X54083Y-50146D01*
X54084Y-50147D01*
X55472Y-50147D01*
X55460Y-50178D01*
X55460Y-50393D01*
X55460Y-50821D01*
X55542Y-51020D01*
X55694Y-51171D01*
X55775Y-51205D01*
X52463Y-51205D01*
X52463Y-48121D01*
X52463Y-47952D01*
X52399Y-47796D01*
X52279Y-47676D01*
X52123Y-47611D01*
X51954Y-47611D01*
X51832Y-47660D01*
X51811Y-47609D01*
X51741Y-47539D01*
X51650Y-47501D01*
X51551Y-47501D01*
X51051Y-47501D01*
X50959Y-47539D01*
X50889Y-47609D01*
X50851Y-47700D01*
X50851Y-47799D01*
X50851Y-48799D01*
X50889Y-48891D01*
X50959Y-48961D01*
X51050Y-48999D01*
X51149Y-48999D01*
X51649Y-48999D01*
X51741Y-48961D01*
X51811Y-48891D01*
X51849Y-48800D01*
X51849Y-48701D01*
X51849Y-48518D01*
X51854Y-48518D01*
X51944Y-48457D01*
X51953Y-48461D01*
X52122Y-48461D01*
X52278Y-48397D01*
X52398Y-48277D01*
X52463Y-48121D01*
X52463Y-51205D01*
X51244Y-51205D01*
X51368Y-51081D01*
X51525Y-50705D01*
X51525Y-50297D01*
X51369Y-49920D01*
X51081Y-49632D01*
X50705Y-49475D01*
X50650Y-49475D01*
X50650Y-48362D01*
X50650Y-48138D01*
X50650Y-45862D01*
X50650Y-45638D01*
X50649Y-45299D01*
X50649Y-45200D01*
X50611Y-45109D01*
X50541Y-45039D01*
X50449Y-45001D01*
X50262Y-45000D01*
X50200Y-45062D01*
X50200Y-45700D01*
X50588Y-45700D01*
X50650Y-45638D01*
X50650Y-45862D01*
X50588Y-45800D01*
X50200Y-45800D01*
X50200Y-46438D01*
X50262Y-46500D01*
X50449Y-46499D01*
X50541Y-46461D01*
X50611Y-46391D01*
X50649Y-46300D01*
X50649Y-46201D01*
X50650Y-45862D01*
X50650Y-48138D01*
X50649Y-47799D01*
X50649Y-47700D01*
X50611Y-47609D01*
X50541Y-47539D01*
X50449Y-47501D01*
X50262Y-47500D01*
X50200Y-47562D01*
X50200Y-48200D01*
X50588Y-48200D01*
X50650Y-48138D01*
X50650Y-48362D01*
X50588Y-48300D01*
X50200Y-48300D01*
X50200Y-48938D01*
X50262Y-49000D01*
X50449Y-48999D01*
X50541Y-48961D01*
X50611Y-48891D01*
X50649Y-48800D01*
X50649Y-48701D01*
X50650Y-48362D01*
X50650Y-49475D01*
X50297Y-49475D01*
X50100Y-49556D01*
X50100Y-48938D01*
X50100Y-48300D01*
X50100Y-48200D01*
X50100Y-47562D01*
X50100Y-46438D01*
X50100Y-45800D01*
X50100Y-45700D01*
X50100Y-45062D01*
X50038Y-45000D01*
X49851Y-45001D01*
X49759Y-45039D01*
X49689Y-45109D01*
X49651Y-45200D01*
X49651Y-45299D01*
X49650Y-45638D01*
X49712Y-45700D01*
X50100Y-45700D01*
X50100Y-45800D01*
X49712Y-45800D01*
X49650Y-45862D01*
X49651Y-46201D01*
X49651Y-46300D01*
X49689Y-46391D01*
X49759Y-46461D01*
X49851Y-46499D01*
X50038Y-46500D01*
X50100Y-46438D01*
X50100Y-47562D01*
X50038Y-47500D01*
X49851Y-47501D01*
X49759Y-47539D01*
X49689Y-47609D01*
X49651Y-47700D01*
X49651Y-47799D01*
X49650Y-48138D01*
X49712Y-48200D01*
X50100Y-48200D01*
X50100Y-48300D01*
X49712Y-48300D01*
X49650Y-48362D01*
X49651Y-48701D01*
X49651Y-48800D01*
X49689Y-48891D01*
X49759Y-48961D01*
X49851Y-48999D01*
X50038Y-49000D01*
X50100Y-48938D01*
X50100Y-49556D01*
X49920Y-49631D01*
X49632Y-49919D01*
X49549Y-50117D01*
X49549Y-41859D01*
X49549Y-41641D01*
X49549Y-39859D01*
X49549Y-39641D01*
X49465Y-39439D01*
X49311Y-39285D01*
X49109Y-39201D01*
X48891Y-39201D01*
X48689Y-39285D01*
X48535Y-39439D01*
X48451Y-39641D01*
X48451Y-39859D01*
X48535Y-40061D01*
X48689Y-40215D01*
X48780Y-40252D01*
X48719Y-40278D01*
X48692Y-40372D01*
X49000Y-40679D01*
X49308Y-40372D01*
X49281Y-40278D01*
X49215Y-40254D01*
X49311Y-40215D01*
X49465Y-40061D01*
X49549Y-39859D01*
X49549Y-41641D01*
X49543Y-41626D01*
X49543Y-40829D01*
X49532Y-40616D01*
X49472Y-40469D01*
X49378Y-40442D01*
X49071Y-40750D01*
X49378Y-41058D01*
X49472Y-41031D01*
X49543Y-40829D01*
X49543Y-41626D01*
X49465Y-41439D01*
X49311Y-41285D01*
X49219Y-41247D01*
X49281Y-41222D01*
X49308Y-41128D01*
X49000Y-40821D01*
X48929Y-40891D01*
X48929Y-40750D01*
X48622Y-40442D01*
X48528Y-40469D01*
X48457Y-40671D01*
X48468Y-40884D01*
X48528Y-41031D01*
X48622Y-41058D01*
X48929Y-40750D01*
X48929Y-40891D01*
X48692Y-41128D01*
X48719Y-41222D01*
X48784Y-41245D01*
X48689Y-41285D01*
X48535Y-41439D01*
X48451Y-41641D01*
X48451Y-41859D01*
X48535Y-42061D01*
X48689Y-42215D01*
X48780Y-42252D01*
X48719Y-42278D01*
X48692Y-42372D01*
X49000Y-42679D01*
X49308Y-42372D01*
X49281Y-42278D01*
X49215Y-42254D01*
X49311Y-42215D01*
X49465Y-42061D01*
X49549Y-41859D01*
X49549Y-50117D01*
X49543Y-50132D01*
X49543Y-42829D01*
X49532Y-42616D01*
X49472Y-42469D01*
X49378Y-42442D01*
X49071Y-42750D01*
X49378Y-43058D01*
X49472Y-43031D01*
X49543Y-42829D01*
X49543Y-50132D01*
X49475Y-50295D01*
X49475Y-50703D01*
X49631Y-51080D01*
X49756Y-51205D01*
X49308Y-51205D01*
X49308Y-43128D01*
X49000Y-42821D01*
X48929Y-42891D01*
X48929Y-42750D01*
X48622Y-42442D01*
X48549Y-42462D01*
X48549Y-42359D01*
X48549Y-42141D01*
X48465Y-41939D01*
X48311Y-41785D01*
X48226Y-41750D01*
X48311Y-41715D01*
X48465Y-41561D01*
X48549Y-41359D01*
X48549Y-41141D01*
X48465Y-40939D01*
X48311Y-40785D01*
X48226Y-40750D01*
X48311Y-40715D01*
X48465Y-40561D01*
X48549Y-40359D01*
X48549Y-40141D01*
X48465Y-39939D01*
X48311Y-39785D01*
X48226Y-39750D01*
X48311Y-39715D01*
X48465Y-39561D01*
X48549Y-39359D01*
X48549Y-39141D01*
X48465Y-38939D01*
X48311Y-38785D01*
X48109Y-38701D01*
X47891Y-38701D01*
X47689Y-38785D01*
X47535Y-38939D01*
X47451Y-39141D01*
X47451Y-39359D01*
X47535Y-39561D01*
X47689Y-39715D01*
X47773Y-39750D01*
X47689Y-39785D01*
X47535Y-39939D01*
X47451Y-40141D01*
X47451Y-40359D01*
X47535Y-40561D01*
X47689Y-40715D01*
X47773Y-40750D01*
X47689Y-40785D01*
X47535Y-40939D01*
X47451Y-41141D01*
X47451Y-41359D01*
X47535Y-41561D01*
X47689Y-41715D01*
X47773Y-41750D01*
X47689Y-41785D01*
X47535Y-41939D01*
X47451Y-42141D01*
X47451Y-42359D01*
X47535Y-42561D01*
X47689Y-42715D01*
X47891Y-42799D01*
X48109Y-42799D01*
X48311Y-42715D01*
X48465Y-42561D01*
X48549Y-42359D01*
X48549Y-42462D01*
X48528Y-42469D01*
X48457Y-42671D01*
X48468Y-42884D01*
X48528Y-43031D01*
X48622Y-43058D01*
X48929Y-42750D01*
X48929Y-42891D01*
X48692Y-43128D01*
X48719Y-43222D01*
X48921Y-43293D01*
X49134Y-43282D01*
X49281Y-43222D01*
X49308Y-43128D01*
X49308Y-51205D01*
X46949Y-51205D01*
X46949Y-43809D01*
X46949Y-43591D01*
X46865Y-43389D01*
X46711Y-43235D01*
X46626Y-43200D01*
X46711Y-43165D01*
X46865Y-43011D01*
X46949Y-42809D01*
X46949Y-42591D01*
X46949Y-39409D01*
X46949Y-39191D01*
X46865Y-38989D01*
X46711Y-38835D01*
X46626Y-38800D01*
X46711Y-38765D01*
X46865Y-38611D01*
X46949Y-38409D01*
X46949Y-38191D01*
X46865Y-37989D01*
X46711Y-37835D01*
X46509Y-37751D01*
X46291Y-37751D01*
X46089Y-37835D01*
X45935Y-37989D01*
X45851Y-38191D01*
X45851Y-38409D01*
X45935Y-38611D01*
X46089Y-38765D01*
X46173Y-38800D01*
X46089Y-38835D01*
X45935Y-38989D01*
X45851Y-39191D01*
X45851Y-39409D01*
X45935Y-39611D01*
X46089Y-39765D01*
X46291Y-39849D01*
X46509Y-39849D01*
X46711Y-39765D01*
X46865Y-39611D01*
X46949Y-39409D01*
X46949Y-42591D01*
X46865Y-42389D01*
X46711Y-42235D01*
X46509Y-42151D01*
X46291Y-42151D01*
X46089Y-42235D01*
X45935Y-42389D01*
X45851Y-42591D01*
X45851Y-42809D01*
X45935Y-43011D01*
X46089Y-43165D01*
X46173Y-43200D01*
X46089Y-43235D01*
X45935Y-43389D01*
X45851Y-43591D01*
X45851Y-43809D01*
X45935Y-44011D01*
X46089Y-44165D01*
X46291Y-44249D01*
X46509Y-44249D01*
X46711Y-44165D01*
X46865Y-44011D01*
X46949Y-43809D01*
X46949Y-51205D01*
X43795Y-51205D01*
X43795Y-43806D01*
X43902Y-44066D01*
X44183Y-44347D01*
X44550Y-44500D01*
X44948Y-44500D01*
X45316Y-44348D01*
X45597Y-44067D01*
X45750Y-43700D01*
X45750Y-43302D01*
X45598Y-42934D01*
X45317Y-42653D01*
X44950Y-42500D01*
X44552Y-42500D01*
X44184Y-42652D01*
X43903Y-42933D01*
X43795Y-43192D01*
X43795Y-38806D01*
X43902Y-39066D01*
X44183Y-39347D01*
X44550Y-39500D01*
X44948Y-39500D01*
X45316Y-39348D01*
X45597Y-39067D01*
X45750Y-38700D01*
X45750Y-38302D01*
X45598Y-37934D01*
X45317Y-37653D01*
X44950Y-37500D01*
X44552Y-37500D01*
X44184Y-37652D01*
X43903Y-37933D01*
X43795Y-38192D01*
X43795Y-30795D01*
X50256Y-30795D01*
X50132Y-30919D01*
X49975Y-31295D01*
X49975Y-31703D01*
X50131Y-32080D01*
X50419Y-32368D01*
X50795Y-32525D01*
X51203Y-32525D01*
X51580Y-32369D01*
X51868Y-32081D01*
X51917Y-31961D01*
X51942Y-32020D01*
X52094Y-32171D01*
X52292Y-32254D01*
X52507Y-32254D01*
X52706Y-32172D01*
X52857Y-32020D01*
X52899Y-31917D01*
X52942Y-32020D01*
X53094Y-32171D01*
X53292Y-32254D01*
X53507Y-32254D01*
X53706Y-32172D01*
X53857Y-32020D01*
X53899Y-31917D01*
X53942Y-32020D01*
X54094Y-32171D01*
X54292Y-32254D01*
X54507Y-32254D01*
X54706Y-32172D01*
X54857Y-32020D01*
X54899Y-31917D01*
X54942Y-32020D01*
X55094Y-32171D01*
X55292Y-32254D01*
X55507Y-32254D01*
X55706Y-32172D01*
X55857Y-32020D01*
X55899Y-31917D01*
X55942Y-32020D01*
X56094Y-32171D01*
X56292Y-32254D01*
X56507Y-32254D01*
X56706Y-32172D01*
X56857Y-32020D01*
X56899Y-31917D01*
X56942Y-32020D01*
X57094Y-32171D01*
X57292Y-32254D01*
X57507Y-32254D01*
X57706Y-32172D01*
X57857Y-32020D01*
X57899Y-31917D01*
X57942Y-32020D01*
X58094Y-32171D01*
X58292Y-32254D01*
X58507Y-32254D01*
X58706Y-32172D01*
X58857Y-32020D01*
X58899Y-31917D01*
X58942Y-32020D01*
X59094Y-32171D01*
X59292Y-32254D01*
X59507Y-32254D01*
X59706Y-32172D01*
X59857Y-32020D01*
X59899Y-31917D01*
X59942Y-32020D01*
X60094Y-32171D01*
X60292Y-32254D01*
X60507Y-32254D01*
X60706Y-32172D01*
X60857Y-32020D01*
X60899Y-31917D01*
X60942Y-32020D01*
X61094Y-32171D01*
X61292Y-32254D01*
X61507Y-32254D01*
X61706Y-32172D01*
X61857Y-32020D01*
X61940Y-31822D01*
X61940Y-31607D01*
X61940Y-31179D01*
X61858Y-30980D01*
X61706Y-30829D01*
X61624Y-30795D01*
X62774Y-30795D01*
X62694Y-30828D01*
X62543Y-30980D01*
X62460Y-31178D01*
X62460Y-31393D01*
X62460Y-31821D01*
X62542Y-32020D01*
X62694Y-32171D01*
X62892Y-32254D01*
X63107Y-32254D01*
X63306Y-32172D01*
X63457Y-32020D01*
X63499Y-31917D01*
X63542Y-32020D01*
X63694Y-32171D01*
X63892Y-32254D01*
X64107Y-32254D01*
X64306Y-32172D01*
X64457Y-32020D01*
X64499Y-31917D01*
X64542Y-32020D01*
X64694Y-32171D01*
X64892Y-32254D01*
X65107Y-32254D01*
X65306Y-32172D01*
X65457Y-32020D01*
X65499Y-31917D01*
X65542Y-32020D01*
X65694Y-32171D01*
X65892Y-32254D01*
X66107Y-32254D01*
X66306Y-32172D01*
X66457Y-32020D01*
X66499Y-31917D01*
X66542Y-32020D01*
X66694Y-32171D01*
X66892Y-32254D01*
X67107Y-32254D01*
X67306Y-32172D01*
X67457Y-32020D01*
X67499Y-31917D01*
X67542Y-32020D01*
X67694Y-32171D01*
X67892Y-32254D01*
X68107Y-32254D01*
X68306Y-32172D01*
X68457Y-32020D01*
X68499Y-31917D01*
X68542Y-32020D01*
X68694Y-32171D01*
X68892Y-32254D01*
X69107Y-32254D01*
X69306Y-32172D01*
X69457Y-32020D01*
X69499Y-31917D01*
X69542Y-32020D01*
X69694Y-32171D01*
X69892Y-32254D01*
X70107Y-32254D01*
X70306Y-32172D01*
X70457Y-32020D01*
X70540Y-31822D01*
X70540Y-31607D01*
X70540Y-31179D01*
X70458Y-30980D01*
X70306Y-30829D01*
X70224Y-30795D01*
X71774Y-30795D01*
X71694Y-30828D01*
X71543Y-30980D01*
X71460Y-31178D01*
X71460Y-31393D01*
X71460Y-31821D01*
X71542Y-32020D01*
X71694Y-32171D01*
X71892Y-32254D01*
X72107Y-32254D01*
X72306Y-32172D01*
X72457Y-32020D01*
X72499Y-31917D01*
X72542Y-32020D01*
X72694Y-32171D01*
X72892Y-32254D01*
X73107Y-32254D01*
X73306Y-32172D01*
X73457Y-32020D01*
X73499Y-31917D01*
X73542Y-32020D01*
X73694Y-32171D01*
X73892Y-32254D01*
X74107Y-32254D01*
X74306Y-32172D01*
X74457Y-32020D01*
X74499Y-31917D01*
X74542Y-32020D01*
X74694Y-32171D01*
X74892Y-32254D01*
X75107Y-32254D01*
X75306Y-32172D01*
X75457Y-32020D01*
X75499Y-31917D01*
X75542Y-32020D01*
X75694Y-32171D01*
X75892Y-32254D01*
X76107Y-32254D01*
X76306Y-32172D01*
X76457Y-32020D01*
X76499Y-31917D01*
X76542Y-32020D01*
X76694Y-32171D01*
X76892Y-32254D01*
X77107Y-32254D01*
X77306Y-32172D01*
X77457Y-32020D01*
X77499Y-31917D01*
X77542Y-32020D01*
X77694Y-32171D01*
X77892Y-32254D01*
X78107Y-32254D01*
X78306Y-32172D01*
X78457Y-32020D01*
X78499Y-31917D01*
X78542Y-32020D01*
X78694Y-32171D01*
X78892Y-32254D01*
X79107Y-32254D01*
X79306Y-32172D01*
X79457Y-32020D01*
X79532Y-31840D01*
X79631Y-32080D01*
X79919Y-32368D01*
X80295Y-32525D01*
X80703Y-32525D01*
X81080Y-32369D01*
X81368Y-32081D01*
X81507Y-31745D01*
X81535Y-31811D01*
X81689Y-31965D01*
X81773Y-32000D01*
X81689Y-32035D01*
X81535Y-32189D01*
X81451Y-32391D01*
X81451Y-32609D01*
X81511Y-32754D01*
X81388Y-32754D01*
X81277Y-32776D01*
X81183Y-32839D01*
X81161Y-32861D01*
X81098Y-32955D01*
X81076Y-33066D01*
X81076Y-41343D01*
X80835Y-41584D01*
X80835Y-40949D01*
X80834Y-40948D01*
X80835Y-40948D01*
X80807Y-40807D01*
X80727Y-40687D01*
X80724Y-40685D01*
X77614Y-37575D01*
X78380Y-37575D01*
X78491Y-37553D01*
X78585Y-37490D01*
X79242Y-36833D01*
X79305Y-36739D01*
X79305Y-36734D01*
X79699Y-36734D01*
X79791Y-36696D01*
X79861Y-36626D01*
X79899Y-36535D01*
X79899Y-36436D01*
X79899Y-35966D01*
X79861Y-35874D01*
X79791Y-35804D01*
X79700Y-35766D01*
X79601Y-35766D01*
X79131Y-35766D01*
X79039Y-35804D01*
X79000Y-35843D01*
X78961Y-35804D01*
X78955Y-35801D01*
X78955Y-34673D01*
X78941Y-34602D01*
X79006Y-34576D01*
X79076Y-34506D01*
X79093Y-34463D01*
X79151Y-34521D01*
X79377Y-34615D01*
X79622Y-34615D01*
X79848Y-34521D01*
X80021Y-34349D01*
X80115Y-34123D01*
X80115Y-33878D01*
X80021Y-33652D01*
X79930Y-33560D01*
X79930Y-33455D01*
X79897Y-33291D01*
X79897Y-33290D01*
X79804Y-33151D01*
X79700Y-33047D01*
X79561Y-32954D01*
X79396Y-32921D01*
X75604Y-32921D01*
X75500Y-32941D01*
X75499Y-32941D01*
X75396Y-32921D01*
X71500Y-32921D01*
X67500Y-32921D01*
X63500Y-32921D01*
X60149Y-32921D01*
X59984Y-32954D01*
X59845Y-33047D01*
X59844Y-33047D01*
X59844Y-33048D01*
X59507Y-33385D01*
X59378Y-33385D01*
X59152Y-33479D01*
X59093Y-33536D01*
X59076Y-33494D01*
X59006Y-33424D01*
X58915Y-33386D01*
X58816Y-33386D01*
X58086Y-33386D01*
X57994Y-33424D01*
X57924Y-33494D01*
X57886Y-33585D01*
X57886Y-33684D01*
X57886Y-34414D01*
X57924Y-34506D01*
X57994Y-34576D01*
X58085Y-34614D01*
X58130Y-34614D01*
X58130Y-35702D01*
X58129Y-35707D01*
X58153Y-35824D01*
X58158Y-35849D01*
X58160Y-35852D01*
X58139Y-35874D01*
X58101Y-35965D01*
X58101Y-36064D01*
X58101Y-36534D01*
X58139Y-36626D01*
X58209Y-36696D01*
X58300Y-36734D01*
X58399Y-36734D01*
X58545Y-36734D01*
X58861Y-37050D01*
X58118Y-37050D01*
X56541Y-35472D01*
X56421Y-35392D01*
X56396Y-35387D01*
X56279Y-35363D01*
X56274Y-35364D01*
X54955Y-35364D01*
X54955Y-34673D01*
X54941Y-34602D01*
X55006Y-34576D01*
X55076Y-34506D01*
X55093Y-34463D01*
X55151Y-34521D01*
X55377Y-34615D01*
X55622Y-34615D01*
X55848Y-34521D01*
X56021Y-34349D01*
X56115Y-34123D01*
X56115Y-33878D01*
X56021Y-33652D01*
X55849Y-33479D01*
X55623Y-33385D01*
X55378Y-33385D01*
X55152Y-33479D01*
X55093Y-33536D01*
X55076Y-33494D01*
X55006Y-33424D01*
X54915Y-33386D01*
X54816Y-33386D01*
X54086Y-33386D01*
X53994Y-33424D01*
X53924Y-33494D01*
X53886Y-33585D01*
X53886Y-33684D01*
X53886Y-34414D01*
X53924Y-34506D01*
X53994Y-34576D01*
X54085Y-34614D01*
X54134Y-34614D01*
X54153Y-34705D01*
X54158Y-34730D01*
X54215Y-34815D01*
X54215Y-35734D01*
X54215Y-35801D01*
X54209Y-35804D01*
X54139Y-35874D01*
X54101Y-35965D01*
X54101Y-36064D01*
X54101Y-36175D01*
X53971Y-36045D01*
X53877Y-35982D01*
X53766Y-35960D01*
X51896Y-35960D01*
X51861Y-35874D01*
X51791Y-35804D01*
X51700Y-35766D01*
X51601Y-35766D01*
X51131Y-35766D01*
X51039Y-35804D01*
X51000Y-35843D01*
X50961Y-35804D01*
X50955Y-35801D01*
X50955Y-35792D01*
X50927Y-35650D01*
X50870Y-35565D01*
X50870Y-35564D01*
X50870Y-34614D01*
X50914Y-34614D01*
X51006Y-34576D01*
X51076Y-34506D01*
X51093Y-34463D01*
X51151Y-34521D01*
X51377Y-34615D01*
X51622Y-34615D01*
X51848Y-34521D01*
X52021Y-34349D01*
X52115Y-34123D01*
X52115Y-33878D01*
X52021Y-33652D01*
X51849Y-33479D01*
X51623Y-33385D01*
X51378Y-33385D01*
X51152Y-33479D01*
X51093Y-33536D01*
X51076Y-33494D01*
X51006Y-33424D01*
X50915Y-33386D01*
X50816Y-33386D01*
X50086Y-33386D01*
X49994Y-33424D01*
X49924Y-33494D01*
X49886Y-33585D01*
X49886Y-33684D01*
X49886Y-34414D01*
X49924Y-34506D01*
X49994Y-34576D01*
X50085Y-34614D01*
X50130Y-34614D01*
X50130Y-35702D01*
X50129Y-35707D01*
X50153Y-35824D01*
X50158Y-35849D01*
X50160Y-35852D01*
X50139Y-35874D01*
X50101Y-35965D01*
X50101Y-36064D01*
X50101Y-36534D01*
X50139Y-36626D01*
X50209Y-36696D01*
X50300Y-36734D01*
X50399Y-36734D01*
X50545Y-36734D01*
X51025Y-37213D01*
X51027Y-37216D01*
X51147Y-37296D01*
X51289Y-37324D01*
X52291Y-37324D01*
X52768Y-37801D01*
X52689Y-37835D01*
X52535Y-37989D01*
X52451Y-38191D01*
X52451Y-38409D01*
X52535Y-38611D01*
X52689Y-38765D01*
X52773Y-38800D01*
X52689Y-38835D01*
X52535Y-38989D01*
X52451Y-39191D01*
X52451Y-39409D01*
X52535Y-39611D01*
X52689Y-39765D01*
X52891Y-39849D01*
X53109Y-39849D01*
X53311Y-39765D01*
X53465Y-39611D01*
X53549Y-39409D01*
X53549Y-39191D01*
X53465Y-38989D01*
X53311Y-38835D01*
X53226Y-38800D01*
X53311Y-38765D01*
X53465Y-38611D01*
X53498Y-38531D01*
X55638Y-40671D01*
X55758Y-40751D01*
X55759Y-40751D01*
X55900Y-40779D01*
X59503Y-40779D01*
X59480Y-40795D01*
X59479Y-40795D01*
X59479Y-40796D01*
X56286Y-43989D01*
X56223Y-44083D01*
X56201Y-44194D01*
X56201Y-46491D01*
X56223Y-46602D01*
X56286Y-46696D01*
X56409Y-46819D01*
X56385Y-46877D01*
X56385Y-47122D01*
X56479Y-47348D01*
X56651Y-47521D01*
X56662Y-47525D01*
X56646Y-47576D01*
X57000Y-47929D01*
X57354Y-47576D01*
X57337Y-47525D01*
X57348Y-47521D01*
X57521Y-47349D01*
X57615Y-47123D01*
X57615Y-46878D01*
X57521Y-46652D01*
X57463Y-46593D01*
X57506Y-46576D01*
X57576Y-46506D01*
X57607Y-46430D01*
X57648Y-46430D01*
X58638Y-46430D01*
X58912Y-46704D01*
X58913Y-46704D01*
X59052Y-46797D01*
X59217Y-46830D01*
X59328Y-46830D01*
X59359Y-46861D01*
X59450Y-46899D01*
X59549Y-46899D01*
X60549Y-46899D01*
X60641Y-46861D01*
X60672Y-46830D01*
X60783Y-46830D01*
X60947Y-46797D01*
X60948Y-46797D01*
X61087Y-46704D01*
X61361Y-46430D01*
X62392Y-46430D01*
X62424Y-46506D01*
X62494Y-46576D01*
X62536Y-46593D01*
X62479Y-46651D01*
X62385Y-46877D01*
X62385Y-47122D01*
X62479Y-47348D01*
X62651Y-47521D01*
X62662Y-47525D01*
X62646Y-47576D01*
X63000Y-47929D01*
X63354Y-47576D01*
X63337Y-47525D01*
X63348Y-47521D01*
X63521Y-47349D01*
X63615Y-47123D01*
X63615Y-46878D01*
X63521Y-46652D01*
X63463Y-46593D01*
X63506Y-46576D01*
X63576Y-46506D01*
X63607Y-46430D01*
X64638Y-46430D01*
X64912Y-46704D01*
X64913Y-46704D01*
X65052Y-46797D01*
X65217Y-46830D01*
X65328Y-46830D01*
X65359Y-46861D01*
X65450Y-46899D01*
X65549Y-46899D01*
X66549Y-46899D01*
X66641Y-46861D01*
X66672Y-46830D01*
X66783Y-46830D01*
X67952Y-46830D01*
X68116Y-46797D01*
X68117Y-46797D01*
X68256Y-46704D01*
X68439Y-46521D01*
X68494Y-46576D01*
X68536Y-46593D01*
X68479Y-46651D01*
X68385Y-46877D01*
X68385Y-47122D01*
X68479Y-47348D01*
X68651Y-47521D01*
X68662Y-47525D01*
X68646Y-47576D01*
X69000Y-47929D01*
X69354Y-47576D01*
X69337Y-47525D01*
X69348Y-47521D01*
X69521Y-47349D01*
X69615Y-47123D01*
X69615Y-46878D01*
X69521Y-46652D01*
X69463Y-46593D01*
X69506Y-46576D01*
X69576Y-46506D01*
X69607Y-46430D01*
X70638Y-46430D01*
X70912Y-46704D01*
X70913Y-46704D01*
X71052Y-46797D01*
X71217Y-46830D01*
X71328Y-46830D01*
X71359Y-46861D01*
X71450Y-46899D01*
X71549Y-46899D01*
X72549Y-46899D01*
X72641Y-46861D01*
X72672Y-46830D01*
X72783Y-46830D01*
X72947Y-46797D01*
X72948Y-46797D01*
X73087Y-46704D01*
X73361Y-46430D01*
X74642Y-46430D01*
X74674Y-46506D01*
X74744Y-46576D01*
X74786Y-46593D01*
X74729Y-46651D01*
X74635Y-46877D01*
X74635Y-47122D01*
X74729Y-47348D01*
X74901Y-47521D01*
X74912Y-47525D01*
X74896Y-47576D01*
X75250Y-47929D01*
X75604Y-47576D01*
X75587Y-47525D01*
X75598Y-47521D01*
X75771Y-47349D01*
X75795Y-47290D01*
X76090Y-47290D01*
X76201Y-47268D01*
X76295Y-47205D01*
X81612Y-41888D01*
X81689Y-41965D01*
X81773Y-42000D01*
X81689Y-42035D01*
X81535Y-42189D01*
X81451Y-42391D01*
X81451Y-42609D01*
X81535Y-42811D01*
X81689Y-42965D01*
X81773Y-43000D01*
X81689Y-43035D01*
X81535Y-43189D01*
X81451Y-43391D01*
X81451Y-43609D01*
X81535Y-43811D01*
X81689Y-43965D01*
X81773Y-44000D01*
X81689Y-44035D01*
X81535Y-44189D01*
X81451Y-44391D01*
X81451Y-44609D01*
X81535Y-44811D01*
X81689Y-44965D01*
X81773Y-45000D01*
X81689Y-45035D01*
X81535Y-45189D01*
X81451Y-45391D01*
X81451Y-45609D01*
X81535Y-45811D01*
X81689Y-45965D01*
X81773Y-46000D01*
X81689Y-46035D01*
X81535Y-46189D01*
X81451Y-46391D01*
X81451Y-46609D01*
X81535Y-46811D01*
X81689Y-46965D01*
X81773Y-47000D01*
X81689Y-47035D01*
X81535Y-47189D01*
X81451Y-47391D01*
X81451Y-47609D01*
X81535Y-47811D01*
X81689Y-47965D01*
X81773Y-48000D01*
G54D10*
G36*
X89205Y-45497D02*
X89087Y-45379D01*
X88999Y-45320D01*
X88999Y-44851D01*
X88961Y-44759D01*
X88950Y-44748D01*
X88950Y-41126D01*
X88950Y-40875D01*
X88900Y-40754D01*
X88900Y-37112D01*
X88900Y-36888D01*
X88899Y-36814D01*
X88899Y-36715D01*
X88861Y-36624D01*
X88791Y-36554D01*
X88699Y-36516D01*
X88527Y-36515D01*
X88465Y-36577D01*
X88465Y-36950D01*
X88838Y-36950D01*
X88900Y-36888D01*
X88900Y-37112D01*
X88838Y-37050D01*
X88465Y-37050D01*
X88465Y-37423D01*
X88527Y-37485D01*
X88699Y-37484D01*
X88791Y-37446D01*
X88861Y-37376D01*
X88899Y-37285D01*
X88899Y-37186D01*
X88900Y-37112D01*
X88900Y-40754D01*
X88854Y-40643D01*
X88677Y-40466D01*
X88480Y-40384D01*
X88480Y-39420D01*
X88480Y-39042D01*
X88365Y-38763D01*
X88365Y-37423D01*
X88365Y-37100D01*
X88365Y-37050D01*
X88365Y-36950D01*
X88365Y-36900D01*
X88365Y-36577D01*
X88303Y-36515D01*
X88131Y-36516D01*
X88039Y-36554D01*
X88000Y-36593D01*
X87961Y-36554D01*
X87870Y-36516D01*
X87771Y-36516D01*
X87301Y-36516D01*
X87209Y-36554D01*
X87139Y-36624D01*
X87103Y-36710D01*
X86600Y-36710D01*
X86600Y-35362D01*
X86600Y-35138D01*
X86600Y-33612D01*
X86600Y-33388D01*
X86600Y-31862D01*
X86600Y-31638D01*
X86599Y-31299D01*
X86599Y-31200D01*
X86561Y-31109D01*
X86491Y-31039D01*
X86399Y-31001D01*
X86212Y-31000D01*
X86150Y-31062D01*
X86150Y-31700D01*
X86538Y-31700D01*
X86600Y-31638D01*
X86600Y-31862D01*
X86538Y-31800D01*
X86150Y-31800D01*
X86150Y-32438D01*
X86212Y-32500D01*
X86399Y-32499D01*
X86491Y-32461D01*
X86561Y-32391D01*
X86599Y-32300D01*
X86599Y-32201D01*
X86600Y-31862D01*
X86600Y-33388D01*
X86599Y-33049D01*
X86599Y-32950D01*
X86561Y-32859D01*
X86491Y-32789D01*
X86399Y-32751D01*
X86212Y-32750D01*
X86150Y-32812D01*
X86150Y-33450D01*
X86538Y-33450D01*
X86600Y-33388D01*
X86600Y-33612D01*
X86538Y-33550D01*
X86150Y-33550D01*
X86150Y-34188D01*
X86212Y-34250D01*
X86399Y-34249D01*
X86491Y-34211D01*
X86561Y-34141D01*
X86599Y-34050D01*
X86599Y-33951D01*
X86600Y-33612D01*
X86600Y-35138D01*
X86599Y-34799D01*
X86599Y-34700D01*
X86561Y-34609D01*
X86491Y-34539D01*
X86399Y-34501D01*
X86212Y-34500D01*
X86150Y-34562D01*
X86150Y-35200D01*
X86538Y-35200D01*
X86600Y-35138D01*
X86600Y-35362D01*
X86538Y-35300D01*
X86150Y-35300D01*
X86150Y-35938D01*
X86212Y-36000D01*
X86399Y-35999D01*
X86491Y-35961D01*
X86561Y-35891D01*
X86599Y-35800D01*
X86599Y-35701D01*
X86600Y-35362D01*
X86600Y-36710D01*
X86599Y-36710D01*
X86599Y-36451D01*
X86561Y-36359D01*
X86491Y-36289D01*
X86400Y-36251D01*
X86301Y-36251D01*
X86050Y-36251D01*
X86050Y-35938D01*
X86050Y-35300D01*
X86050Y-35200D01*
X86050Y-34562D01*
X86050Y-34188D01*
X86050Y-33550D01*
X86050Y-33450D01*
X86050Y-32812D01*
X86050Y-32438D01*
X86050Y-31800D01*
X86050Y-31700D01*
X86050Y-31062D01*
X85988Y-31000D01*
X85801Y-31001D01*
X85709Y-31039D01*
X85639Y-31109D01*
X85601Y-31200D01*
X85601Y-31299D01*
X85600Y-31638D01*
X85662Y-31700D01*
X86050Y-31700D01*
X86050Y-31800D01*
X85662Y-31800D01*
X85600Y-31862D01*
X85601Y-32201D01*
X85601Y-32300D01*
X85639Y-32391D01*
X85709Y-32461D01*
X85801Y-32499D01*
X85988Y-32500D01*
X86050Y-32438D01*
X86050Y-32812D01*
X85988Y-32750D01*
X85801Y-32751D01*
X85709Y-32789D01*
X85639Y-32859D01*
X85601Y-32950D01*
X85601Y-33049D01*
X85600Y-33388D01*
X85662Y-33450D01*
X86050Y-33450D01*
X86050Y-33550D01*
X85662Y-33550D01*
X85600Y-33612D01*
X85601Y-33951D01*
X85601Y-34050D01*
X85639Y-34141D01*
X85709Y-34211D01*
X85801Y-34249D01*
X85988Y-34250D01*
X86050Y-34188D01*
X86050Y-34562D01*
X85988Y-34500D01*
X85801Y-34501D01*
X85709Y-34539D01*
X85639Y-34609D01*
X85601Y-34700D01*
X85601Y-34799D01*
X85600Y-35138D01*
X85662Y-35200D01*
X86050Y-35200D01*
X86050Y-35300D01*
X85662Y-35300D01*
X85600Y-35362D01*
X85601Y-35701D01*
X85601Y-35800D01*
X85639Y-35891D01*
X85709Y-35961D01*
X85801Y-35999D01*
X85988Y-36000D01*
X86050Y-35938D01*
X86050Y-36251D01*
X85801Y-36251D01*
X85709Y-36289D01*
X85639Y-36359D01*
X85601Y-36450D01*
X85601Y-36549D01*
X85601Y-37549D01*
X85639Y-37641D01*
X85709Y-37711D01*
X85800Y-37749D01*
X85899Y-37749D01*
X86399Y-37749D01*
X86491Y-37711D01*
X86561Y-37641D01*
X86599Y-37550D01*
X86599Y-37451D01*
X86599Y-37290D01*
X87103Y-37290D01*
X87139Y-37376D01*
X87209Y-37446D01*
X87300Y-37484D01*
X87399Y-37484D01*
X87869Y-37484D01*
X87961Y-37446D01*
X88000Y-37407D01*
X88039Y-37446D01*
X88131Y-37484D01*
X88303Y-37485D01*
X88365Y-37423D01*
X88365Y-38763D01*
X88336Y-38693D01*
X88069Y-38425D01*
X87720Y-38280D01*
X87342Y-38280D01*
X86993Y-38424D01*
X86725Y-38691D01*
X86580Y-39040D01*
X86580Y-39418D01*
X86724Y-39767D01*
X86991Y-40035D01*
X87071Y-40068D01*
X86943Y-40070D01*
X86623Y-40203D01*
X86549Y-40338D01*
X87140Y-40929D01*
X87731Y-40338D01*
X87657Y-40203D01*
X87599Y-40180D01*
X87718Y-40180D01*
X88067Y-40036D01*
X88335Y-39769D01*
X88480Y-39420D01*
X88480Y-40384D01*
X88446Y-40370D01*
X88195Y-40370D01*
X87963Y-40466D01*
X87939Y-40489D01*
X87937Y-40483D01*
X87802Y-40409D01*
X87211Y-41000D01*
X87802Y-41591D01*
X87937Y-41517D01*
X87939Y-41510D01*
X87963Y-41534D01*
X88194Y-41630D01*
X88445Y-41630D01*
X88677Y-41534D01*
X88854Y-41357D01*
X88950Y-41126D01*
X88950Y-44748D01*
X88891Y-44689D01*
X88800Y-44651D01*
X88701Y-44651D01*
X88480Y-44651D01*
X88480Y-42960D01*
X88480Y-42582D01*
X88336Y-42233D01*
X88069Y-41965D01*
X87720Y-41820D01*
X87601Y-41820D01*
X87657Y-41797D01*
X87731Y-41662D01*
X87140Y-41071D01*
X87069Y-41142D01*
X87069Y-41000D01*
X86478Y-40409D01*
X86343Y-40483D01*
X86206Y-40827D01*
X86210Y-41197D01*
X86343Y-41517D01*
X86478Y-41591D01*
X87069Y-41000D01*
X87069Y-41142D01*
X86549Y-41662D01*
X86623Y-41797D01*
X86967Y-41934D01*
X87068Y-41932D01*
X86993Y-41964D01*
X86725Y-42231D01*
X86580Y-42580D01*
X86580Y-42958D01*
X86724Y-43307D01*
X86991Y-43575D01*
X87340Y-43720D01*
X87718Y-43720D01*
X88067Y-43576D01*
X88335Y-43309D01*
X88480Y-42960D01*
X88480Y-44651D01*
X87701Y-44651D01*
X87609Y-44689D01*
X87578Y-44720D01*
X87467Y-44720D01*
X87302Y-44753D01*
X87201Y-44820D01*
X86596Y-44820D01*
X86561Y-44785D01*
X86359Y-44701D01*
X86141Y-44701D01*
X85939Y-44785D01*
X85830Y-44894D01*
X85830Y-41210D01*
X85830Y-40792D01*
X85670Y-40406D01*
X85375Y-40110D01*
X85330Y-40091D01*
X85330Y-37672D01*
X85361Y-37641D01*
X85399Y-37550D01*
X85399Y-37451D01*
X85399Y-36451D01*
X85361Y-36359D01*
X85330Y-36328D01*
X85330Y-35922D01*
X85361Y-35891D01*
X85399Y-35800D01*
X85399Y-35701D01*
X85399Y-34701D01*
X85361Y-34609D01*
X85330Y-34578D01*
X85330Y-34172D01*
X85361Y-34141D01*
X85399Y-34050D01*
X85399Y-33951D01*
X85399Y-32951D01*
X85361Y-32859D01*
X85330Y-32828D01*
X85330Y-32422D01*
X85361Y-32391D01*
X85399Y-32300D01*
X85399Y-32201D01*
X85399Y-31201D01*
X85361Y-31109D01*
X85291Y-31039D01*
X85200Y-31001D01*
X85101Y-31001D01*
X84601Y-31001D01*
X84509Y-31039D01*
X84439Y-31109D01*
X84401Y-31200D01*
X84401Y-31299D01*
X84401Y-32299D01*
X84439Y-32391D01*
X84470Y-32422D01*
X84470Y-32828D01*
X84439Y-32859D01*
X84401Y-32950D01*
X84401Y-33049D01*
X84401Y-34049D01*
X84439Y-34141D01*
X84470Y-34172D01*
X84470Y-34578D01*
X84439Y-34609D01*
X84401Y-34700D01*
X84401Y-34799D01*
X84401Y-35799D01*
X84439Y-35891D01*
X84470Y-35922D01*
X84470Y-36328D01*
X84439Y-36359D01*
X84401Y-36450D01*
X84401Y-36549D01*
X84401Y-37549D01*
X84439Y-37641D01*
X84470Y-37672D01*
X84470Y-39992D01*
X84186Y-40110D01*
X83890Y-40405D01*
X83730Y-40790D01*
X83730Y-41208D01*
X83890Y-41594D01*
X84185Y-41890D01*
X84570Y-42050D01*
X84988Y-42050D01*
X85374Y-41890D01*
X85670Y-41595D01*
X85830Y-41210D01*
X85830Y-44894D01*
X85785Y-44939D01*
X85701Y-45141D01*
X85701Y-45359D01*
X85785Y-45561D01*
X85939Y-45715D01*
X86030Y-45752D01*
X85969Y-45778D01*
X85942Y-45872D01*
X86250Y-46179D01*
X86558Y-45872D01*
X86531Y-45778D01*
X86465Y-45754D01*
X86561Y-45715D01*
X86596Y-45680D01*
X87367Y-45680D01*
X87531Y-45647D01*
X87532Y-45647D01*
X87599Y-45601D01*
X87609Y-45611D01*
X87700Y-45649D01*
X87799Y-45649D01*
X87820Y-45649D01*
X87820Y-45683D01*
X87853Y-45848D01*
X87854Y-45850D01*
X87799Y-45851D01*
X87700Y-45851D01*
X87609Y-45889D01*
X87539Y-45959D01*
X87501Y-46051D01*
X87500Y-46238D01*
X87562Y-46300D01*
X88150Y-46300D01*
X88200Y-46300D01*
X88300Y-46300D01*
X88300Y-46400D01*
X88300Y-46450D01*
X88300Y-46788D01*
X88362Y-46850D01*
X88499Y-46849D01*
X88200Y-47148D01*
X88200Y-46788D01*
X88200Y-46400D01*
X87562Y-46400D01*
X87500Y-46462D01*
X87501Y-46649D01*
X87539Y-46741D01*
X87609Y-46811D01*
X87700Y-46849D01*
X87799Y-46849D01*
X88138Y-46850D01*
X88200Y-46788D01*
X88200Y-47148D01*
X86799Y-48549D01*
X86799Y-47359D01*
X86799Y-47141D01*
X86793Y-47126D01*
X86793Y-46329D01*
X86782Y-46116D01*
X86722Y-45969D01*
X86628Y-45942D01*
X86321Y-46250D01*
X86628Y-46558D01*
X86722Y-46531D01*
X86793Y-46329D01*
X86793Y-47126D01*
X86715Y-46939D01*
X86561Y-46785D01*
X86469Y-46747D01*
X86531Y-46722D01*
X86558Y-46628D01*
X86250Y-46321D01*
X86179Y-46391D01*
X86179Y-46250D01*
X85872Y-45942D01*
X85778Y-45969D01*
X85707Y-46171D01*
X85718Y-46384D01*
X85778Y-46531D01*
X85872Y-46558D01*
X86179Y-46250D01*
X86179Y-46391D01*
X85942Y-46628D01*
X85969Y-46722D01*
X86034Y-46745D01*
X85939Y-46785D01*
X85785Y-46939D01*
X85701Y-47141D01*
X85701Y-47359D01*
X85785Y-47561D01*
X85939Y-47715D01*
X86141Y-47799D01*
X86359Y-47799D01*
X86561Y-47715D01*
X86715Y-47561D01*
X86799Y-47359D01*
X86799Y-48549D01*
X86521Y-48828D01*
X83448Y-48828D01*
X83465Y-48811D01*
X83549Y-48609D01*
X83549Y-48391D01*
X83465Y-48189D01*
X83311Y-48035D01*
X83226Y-48000D01*
X83311Y-47965D01*
X83465Y-47811D01*
X83549Y-47609D01*
X83549Y-47391D01*
X83465Y-47189D01*
X83311Y-47035D01*
X83226Y-47000D01*
X83311Y-46965D01*
X83465Y-46811D01*
X83549Y-46609D01*
X83549Y-46391D01*
X83465Y-46189D01*
X83311Y-46035D01*
X83226Y-46000D01*
X83311Y-45965D01*
X83465Y-45811D01*
X83549Y-45609D01*
X83549Y-45391D01*
X83465Y-45189D01*
X83311Y-45035D01*
X83226Y-45000D01*
X83311Y-44965D01*
X83465Y-44811D01*
X83549Y-44609D01*
X83549Y-44391D01*
X83465Y-44189D01*
X83311Y-44035D01*
X83226Y-44000D01*
X83311Y-43965D01*
X83465Y-43811D01*
X83549Y-43609D01*
X83549Y-43391D01*
X83465Y-43189D01*
X83311Y-43035D01*
X83226Y-43000D01*
X83311Y-42965D01*
X83465Y-42811D01*
X83549Y-42609D01*
X83549Y-42391D01*
X83465Y-42189D01*
X83311Y-42035D01*
X83226Y-42000D01*
X83311Y-41965D01*
X83465Y-41811D01*
X83549Y-41609D01*
X83549Y-41391D01*
X83465Y-41189D01*
X83311Y-41035D01*
X83226Y-41000D01*
X83311Y-40965D01*
X83465Y-40811D01*
X83549Y-40609D01*
X83549Y-40391D01*
X83465Y-40189D01*
X83311Y-40035D01*
X83226Y-40000D01*
X83311Y-39965D01*
X83465Y-39811D01*
X83549Y-39609D01*
X83549Y-39391D01*
X83465Y-39189D01*
X83311Y-39035D01*
X83226Y-39000D01*
X83311Y-38965D01*
X83465Y-38811D01*
X83549Y-38609D01*
X83549Y-38391D01*
X83465Y-38189D01*
X83311Y-38035D01*
X83226Y-38000D01*
X83311Y-37965D01*
X83465Y-37811D01*
X83549Y-37609D01*
X83549Y-37391D01*
X83465Y-37189D01*
X83311Y-37035D01*
X83226Y-37000D01*
X83311Y-36965D01*
X83465Y-36811D01*
X83549Y-36609D01*
X83549Y-36391D01*
X83465Y-36189D01*
X83311Y-36035D01*
X83226Y-36000D01*
X83311Y-35965D01*
X83465Y-35811D01*
X83549Y-35609D01*
X83549Y-35391D01*
X83465Y-35189D01*
X83311Y-35035D01*
X83226Y-35000D01*
X83311Y-34965D01*
X83465Y-34811D01*
X83549Y-34609D01*
X83549Y-34391D01*
X83465Y-34189D01*
X83311Y-34035D01*
X83226Y-34000D01*
X83311Y-33965D01*
X83465Y-33811D01*
X83549Y-33609D01*
X83549Y-33391D01*
X83465Y-33189D01*
X83311Y-33035D01*
X83226Y-33000D01*
X83311Y-32965D01*
X83465Y-32811D01*
X83549Y-32609D01*
X83549Y-32391D01*
X83465Y-32189D01*
X83311Y-32035D01*
X83226Y-32000D01*
X83311Y-31965D01*
X83465Y-31811D01*
X83549Y-31609D01*
X83549Y-31391D01*
X83465Y-31189D01*
X83311Y-31035D01*
X83109Y-30951D01*
X82891Y-30951D01*
X82689Y-31035D01*
X82535Y-31189D01*
X82500Y-31273D01*
X82465Y-31189D01*
X82311Y-31035D01*
X82109Y-30951D01*
X81891Y-30951D01*
X81689Y-31035D01*
X81535Y-31189D01*
X81507Y-31254D01*
X81369Y-30920D01*
X81244Y-30795D01*
X89205Y-30795D01*
X89205Y-45497D01*
X89205Y-45497D01*
G37*
G54D32*
X89205Y-45497D02*
X89087Y-45379D01*
X88999Y-45320D01*
X88999Y-44851D01*
X88961Y-44759D01*
X88950Y-44748D01*
X88950Y-41126D01*
X88950Y-40875D01*
X88900Y-40754D01*
X88900Y-37112D01*
X88900Y-36888D01*
X88899Y-36814D01*
X88899Y-36715D01*
X88861Y-36624D01*
X88791Y-36554D01*
X88699Y-36516D01*
X88527Y-36515D01*
X88465Y-36577D01*
X88465Y-36950D01*
X88838Y-36950D01*
X88900Y-36888D01*
X88900Y-37112D01*
X88838Y-37050D01*
X88465Y-37050D01*
X88465Y-37423D01*
X88527Y-37485D01*
X88699Y-37484D01*
X88791Y-37446D01*
X88861Y-37376D01*
X88899Y-37285D01*
X88899Y-37186D01*
X88900Y-37112D01*
X88900Y-40754D01*
X88854Y-40643D01*
X88677Y-40466D01*
X88480Y-40384D01*
X88480Y-39420D01*
X88480Y-39042D01*
X88365Y-38763D01*
X88365Y-37423D01*
X88365Y-37100D01*
X88365Y-37050D01*
X88365Y-36950D01*
X88365Y-36900D01*
X88365Y-36577D01*
X88303Y-36515D01*
X88131Y-36516D01*
X88039Y-36554D01*
X88000Y-36593D01*
X87961Y-36554D01*
X87870Y-36516D01*
X87771Y-36516D01*
X87301Y-36516D01*
X87209Y-36554D01*
X87139Y-36624D01*
X87103Y-36710D01*
X86600Y-36710D01*
X86600Y-35362D01*
X86600Y-35138D01*
X86600Y-33612D01*
X86600Y-33388D01*
X86600Y-31862D01*
X86600Y-31638D01*
X86599Y-31299D01*
X86599Y-31200D01*
X86561Y-31109D01*
X86491Y-31039D01*
X86399Y-31001D01*
X86212Y-31000D01*
X86150Y-31062D01*
X86150Y-31700D01*
X86538Y-31700D01*
X86600Y-31638D01*
X86600Y-31862D01*
X86538Y-31800D01*
X86150Y-31800D01*
X86150Y-32438D01*
X86212Y-32500D01*
X86399Y-32499D01*
X86491Y-32461D01*
X86561Y-32391D01*
X86599Y-32300D01*
X86599Y-32201D01*
X86600Y-31862D01*
X86600Y-33388D01*
X86599Y-33049D01*
X86599Y-32950D01*
X86561Y-32859D01*
X86491Y-32789D01*
X86399Y-32751D01*
X86212Y-32750D01*
X86150Y-32812D01*
X86150Y-33450D01*
X86538Y-33450D01*
X86600Y-33388D01*
X86600Y-33612D01*
X86538Y-33550D01*
X86150Y-33550D01*
X86150Y-34188D01*
X86212Y-34250D01*
X86399Y-34249D01*
X86491Y-34211D01*
X86561Y-34141D01*
X86599Y-34050D01*
X86599Y-33951D01*
X86600Y-33612D01*
X86600Y-35138D01*
X86599Y-34799D01*
X86599Y-34700D01*
X86561Y-34609D01*
X86491Y-34539D01*
X86399Y-34501D01*
X86212Y-34500D01*
X86150Y-34562D01*
X86150Y-35200D01*
X86538Y-35200D01*
X86600Y-35138D01*
X86600Y-35362D01*
X86538Y-35300D01*
X86150Y-35300D01*
X86150Y-35938D01*
X86212Y-36000D01*
X86399Y-35999D01*
X86491Y-35961D01*
X86561Y-35891D01*
X86599Y-35800D01*
X86599Y-35701D01*
X86600Y-35362D01*
X86600Y-36710D01*
X86599Y-36710D01*
X86599Y-36451D01*
X86561Y-36359D01*
X86491Y-36289D01*
X86400Y-36251D01*
X86301Y-36251D01*
X86050Y-36251D01*
X86050Y-35938D01*
X86050Y-35300D01*
X86050Y-35200D01*
X86050Y-34562D01*
X86050Y-34188D01*
X86050Y-33550D01*
X86050Y-33450D01*
X86050Y-32812D01*
X86050Y-32438D01*
X86050Y-31800D01*
X86050Y-31700D01*
X86050Y-31062D01*
X85988Y-31000D01*
X85801Y-31001D01*
X85709Y-31039D01*
X85639Y-31109D01*
X85601Y-31200D01*
X85601Y-31299D01*
X85600Y-31638D01*
X85662Y-31700D01*
X86050Y-31700D01*
X86050Y-31800D01*
X85662Y-31800D01*
X85600Y-31862D01*
X85601Y-32201D01*
X85601Y-32300D01*
X85639Y-32391D01*
X85709Y-32461D01*
X85801Y-32499D01*
X85988Y-32500D01*
X86050Y-32438D01*
X86050Y-32812D01*
X85988Y-32750D01*
X85801Y-32751D01*
X85709Y-32789D01*
X85639Y-32859D01*
X85601Y-32950D01*
X85601Y-33049D01*
X85600Y-33388D01*
X85662Y-33450D01*
X86050Y-33450D01*
X86050Y-33550D01*
X85662Y-33550D01*
X85600Y-33612D01*
X85601Y-33951D01*
X85601Y-34050D01*
X85639Y-34141D01*
X85709Y-34211D01*
X85801Y-34249D01*
X85988Y-34250D01*
X86050Y-34188D01*
X86050Y-34562D01*
X85988Y-34500D01*
X85801Y-34501D01*
X85709Y-34539D01*
X85639Y-34609D01*
X85601Y-34700D01*
X85601Y-34799D01*
X85600Y-35138D01*
X85662Y-35200D01*
X86050Y-35200D01*
X86050Y-35300D01*
X85662Y-35300D01*
X85600Y-35362D01*
X85601Y-35701D01*
X85601Y-35800D01*
X85639Y-35891D01*
X85709Y-35961D01*
X85801Y-35999D01*
X85988Y-36000D01*
X86050Y-35938D01*
X86050Y-36251D01*
X85801Y-36251D01*
X85709Y-36289D01*
X85639Y-36359D01*
X85601Y-36450D01*
X85601Y-36549D01*
X85601Y-37549D01*
X85639Y-37641D01*
X85709Y-37711D01*
X85800Y-37749D01*
X85899Y-37749D01*
X86399Y-37749D01*
X86491Y-37711D01*
X86561Y-37641D01*
X86599Y-37550D01*
X86599Y-37451D01*
X86599Y-37290D01*
X87103Y-37290D01*
X87139Y-37376D01*
X87209Y-37446D01*
X87300Y-37484D01*
X87399Y-37484D01*
X87869Y-37484D01*
X87961Y-37446D01*
X88000Y-37407D01*
X88039Y-37446D01*
X88131Y-37484D01*
X88303Y-37485D01*
X88365Y-37423D01*
X88365Y-38763D01*
X88336Y-38693D01*
X88069Y-38425D01*
X87720Y-38280D01*
X87342Y-38280D01*
X86993Y-38424D01*
X86725Y-38691D01*
X86580Y-39040D01*
X86580Y-39418D01*
X86724Y-39767D01*
X86991Y-40035D01*
X87071Y-40068D01*
X86943Y-40070D01*
X86623Y-40203D01*
X86549Y-40338D01*
X87140Y-40929D01*
X87731Y-40338D01*
X87657Y-40203D01*
X87599Y-40180D01*
X87718Y-40180D01*
X88067Y-40036D01*
X88335Y-39769D01*
X88480Y-39420D01*
X88480Y-40384D01*
X88446Y-40370D01*
X88195Y-40370D01*
X87963Y-40466D01*
X87939Y-40489D01*
X87937Y-40483D01*
X87802Y-40409D01*
X87211Y-41000D01*
X87802Y-41591D01*
X87937Y-41517D01*
X87939Y-41510D01*
X87963Y-41534D01*
X88194Y-41630D01*
X88445Y-41630D01*
X88677Y-41534D01*
X88854Y-41357D01*
X88950Y-41126D01*
X88950Y-44748D01*
X88891Y-44689D01*
X88800Y-44651D01*
X88701Y-44651D01*
X88480Y-44651D01*
X88480Y-42960D01*
X88480Y-42582D01*
X88336Y-42233D01*
X88069Y-41965D01*
X87720Y-41820D01*
X87601Y-41820D01*
X87657Y-41797D01*
X87731Y-41662D01*
X87140Y-41071D01*
X87069Y-41142D01*
X87069Y-41000D01*
X86478Y-40409D01*
X86343Y-40483D01*
X86206Y-40827D01*
X86210Y-41197D01*
X86343Y-41517D01*
X86478Y-41591D01*
X87069Y-41000D01*
X87069Y-41142D01*
X86549Y-41662D01*
X86623Y-41797D01*
X86967Y-41934D01*
X87068Y-41932D01*
X86993Y-41964D01*
X86725Y-42231D01*
X86580Y-42580D01*
X86580Y-42958D01*
X86724Y-43307D01*
X86991Y-43575D01*
X87340Y-43720D01*
X87718Y-43720D01*
X88067Y-43576D01*
X88335Y-43309D01*
X88480Y-42960D01*
X88480Y-44651D01*
X87701Y-44651D01*
X87609Y-44689D01*
X87578Y-44720D01*
X87467Y-44720D01*
X87302Y-44753D01*
X87201Y-44820D01*
X86596Y-44820D01*
X86561Y-44785D01*
X86359Y-44701D01*
X86141Y-44701D01*
X85939Y-44785D01*
X85830Y-44894D01*
X85830Y-41210D01*
X85830Y-40792D01*
X85670Y-40406D01*
X85375Y-40110D01*
X85330Y-40091D01*
X85330Y-37672D01*
X85361Y-37641D01*
X85399Y-37550D01*
X85399Y-37451D01*
X85399Y-36451D01*
X85361Y-36359D01*
X85330Y-36328D01*
X85330Y-35922D01*
X85361Y-35891D01*
X85399Y-35800D01*
X85399Y-35701D01*
X85399Y-34701D01*
X85361Y-34609D01*
X85330Y-34578D01*
X85330Y-34172D01*
X85361Y-34141D01*
X85399Y-34050D01*
X85399Y-33951D01*
X85399Y-32951D01*
X85361Y-32859D01*
X85330Y-32828D01*
X85330Y-32422D01*
X85361Y-32391D01*
X85399Y-32300D01*
X85399Y-32201D01*
X85399Y-31201D01*
X85361Y-31109D01*
X85291Y-31039D01*
X85200Y-31001D01*
X85101Y-31001D01*
X84601Y-31001D01*
X84509Y-31039D01*
X84439Y-31109D01*
X84401Y-31200D01*
X84401Y-31299D01*
X84401Y-32299D01*
X84439Y-32391D01*
X84470Y-32422D01*
X84470Y-32828D01*
X84439Y-32859D01*
X84401Y-32950D01*
X84401Y-33049D01*
X84401Y-34049D01*
X84439Y-34141D01*
X84470Y-34172D01*
X84470Y-34578D01*
X84439Y-34609D01*
X84401Y-34700D01*
X84401Y-34799D01*
X84401Y-35799D01*
X84439Y-35891D01*
X84470Y-35922D01*
X84470Y-36328D01*
X84439Y-36359D01*
X84401Y-36450D01*
X84401Y-36549D01*
X84401Y-37549D01*
X84439Y-37641D01*
X84470Y-37672D01*
X84470Y-39992D01*
X84186Y-40110D01*
X83890Y-40405D01*
X83730Y-40790D01*
X83730Y-41208D01*
X83890Y-41594D01*
X84185Y-41890D01*
X84570Y-42050D01*
X84988Y-42050D01*
X85374Y-41890D01*
X85670Y-41595D01*
X85830Y-41210D01*
X85830Y-44894D01*
X85785Y-44939D01*
X85701Y-45141D01*
X85701Y-45359D01*
X85785Y-45561D01*
X85939Y-45715D01*
X86030Y-45752D01*
X85969Y-45778D01*
X85942Y-45872D01*
X86250Y-46179D01*
X86558Y-45872D01*
X86531Y-45778D01*
X86465Y-45754D01*
X86561Y-45715D01*
X86596Y-45680D01*
X87367Y-45680D01*
X87531Y-45647D01*
X87532Y-45647D01*
X87599Y-45601D01*
X87609Y-45611D01*
X87700Y-45649D01*
X87799Y-45649D01*
X87820Y-45649D01*
X87820Y-45683D01*
X87853Y-45848D01*
X87854Y-45850D01*
X87799Y-45851D01*
X87700Y-45851D01*
X87609Y-45889D01*
X87539Y-45959D01*
X87501Y-46051D01*
X87500Y-46238D01*
X87562Y-46300D01*
X88150Y-46300D01*
X88200Y-46300D01*
X88300Y-46300D01*
X88300Y-46400D01*
X88300Y-46450D01*
X88300Y-46788D01*
X88362Y-46850D01*
X88499Y-46849D01*
X88200Y-47148D01*
X88200Y-46788D01*
X88200Y-46400D01*
X87562Y-46400D01*
X87500Y-46462D01*
X87501Y-46649D01*
X87539Y-46741D01*
X87609Y-46811D01*
X87700Y-46849D01*
X87799Y-46849D01*
X88138Y-46850D01*
X88200Y-46788D01*
X88200Y-47148D01*
X86799Y-48549D01*
X86799Y-47359D01*
X86799Y-47141D01*
X86793Y-47126D01*
X86793Y-46329D01*
X86782Y-46116D01*
X86722Y-45969D01*
X86628Y-45942D01*
X86321Y-46250D01*
X86628Y-46558D01*
X86722Y-46531D01*
X86793Y-46329D01*
X86793Y-47126D01*
X86715Y-46939D01*
X86561Y-46785D01*
X86469Y-46747D01*
X86531Y-46722D01*
X86558Y-46628D01*
X86250Y-46321D01*
X86179Y-46391D01*
X86179Y-46250D01*
X85872Y-45942D01*
X85778Y-45969D01*
X85707Y-46171D01*
X85718Y-46384D01*
X85778Y-46531D01*
X85872Y-46558D01*
X86179Y-46250D01*
X86179Y-46391D01*
X85942Y-46628D01*
X85969Y-46722D01*
X86034Y-46745D01*
X85939Y-46785D01*
X85785Y-46939D01*
X85701Y-47141D01*
X85701Y-47359D01*
X85785Y-47561D01*
X85939Y-47715D01*
X86141Y-47799D01*
X86359Y-47799D01*
X86561Y-47715D01*
X86715Y-47561D01*
X86799Y-47359D01*
X86799Y-48549D01*
X86521Y-48828D01*
X83448Y-48828D01*
X83465Y-48811D01*
X83549Y-48609D01*
X83549Y-48391D01*
X83465Y-48189D01*
X83311Y-48035D01*
X83226Y-48000D01*
X83311Y-47965D01*
X83465Y-47811D01*
X83549Y-47609D01*
X83549Y-47391D01*
X83465Y-47189D01*
X83311Y-47035D01*
X83226Y-47000D01*
X83311Y-46965D01*
X83465Y-46811D01*
X83549Y-46609D01*
X83549Y-46391D01*
X83465Y-46189D01*
X83311Y-46035D01*
X83226Y-46000D01*
X83311Y-45965D01*
X83465Y-45811D01*
X83549Y-45609D01*
X83549Y-45391D01*
X83465Y-45189D01*
X83311Y-45035D01*
X83226Y-45000D01*
X83311Y-44965D01*
X83465Y-44811D01*
X83549Y-44609D01*
X83549Y-44391D01*
X83465Y-44189D01*
X83311Y-44035D01*
X83226Y-44000D01*
X83311Y-43965D01*
X83465Y-43811D01*
X83549Y-43609D01*
X83549Y-43391D01*
X83465Y-43189D01*
X83311Y-43035D01*
X83226Y-43000D01*
X83311Y-42965D01*
X83465Y-42811D01*
X83549Y-42609D01*
X83549Y-42391D01*
X83465Y-42189D01*
X83311Y-42035D01*
X83226Y-42000D01*
X83311Y-41965D01*
X83465Y-41811D01*
X83549Y-41609D01*
X83549Y-41391D01*
X83465Y-41189D01*
X83311Y-41035D01*
X83226Y-41000D01*
X83311Y-40965D01*
X83465Y-40811D01*
X83549Y-40609D01*
X83549Y-40391D01*
X83465Y-40189D01*
X83311Y-40035D01*
X83226Y-40000D01*
X83311Y-39965D01*
X83465Y-39811D01*
X83549Y-39609D01*
X83549Y-39391D01*
X83465Y-39189D01*
X83311Y-39035D01*
X83226Y-39000D01*
X83311Y-38965D01*
X83465Y-38811D01*
X83549Y-38609D01*
X83549Y-38391D01*
X83465Y-38189D01*
X83311Y-38035D01*
X83226Y-38000D01*
X83311Y-37965D01*
X83465Y-37811D01*
X83549Y-37609D01*
X83549Y-37391D01*
X83465Y-37189D01*
X83311Y-37035D01*
X83226Y-37000D01*
X83311Y-36965D01*
X83465Y-36811D01*
X83549Y-36609D01*
X83549Y-36391D01*
X83465Y-36189D01*
X83311Y-36035D01*
X83226Y-36000D01*
X83311Y-35965D01*
X83465Y-35811D01*
X83549Y-35609D01*
X83549Y-35391D01*
X83465Y-35189D01*
X83311Y-35035D01*
X83226Y-35000D01*
X83311Y-34965D01*
X83465Y-34811D01*
X83549Y-34609D01*
X83549Y-34391D01*
X83465Y-34189D01*
X83311Y-34035D01*
X83226Y-34000D01*
X83311Y-33965D01*
X83465Y-33811D01*
X83549Y-33609D01*
X83549Y-33391D01*
X83465Y-33189D01*
X83311Y-33035D01*
X83226Y-33000D01*
X83311Y-32965D01*
X83465Y-32811D01*
X83549Y-32609D01*
X83549Y-32391D01*
X83465Y-32189D01*
X83311Y-32035D01*
X83226Y-32000D01*
X83311Y-31965D01*
X83465Y-31811D01*
X83549Y-31609D01*
X83549Y-31391D01*
X83465Y-31189D01*
X83311Y-31035D01*
X83109Y-30951D01*
X82891Y-30951D01*
X82689Y-31035D01*
X82535Y-31189D01*
X82500Y-31273D01*
X82465Y-31189D01*
X82311Y-31035D01*
X82109Y-30951D01*
X81891Y-30951D01*
X81689Y-31035D01*
X81535Y-31189D01*
X81507Y-31254D01*
X81369Y-30920D01*
X81244Y-30795D01*
X89205Y-30795D01*
X89205Y-45497D01*
G54D10*
G36*
X89205Y-51205D02*
X83744Y-51205D01*
X83868Y-51081D01*
X84025Y-50705D01*
X84025Y-50297D01*
X83869Y-49920D01*
X83637Y-49688D01*
X86699Y-49688D01*
X86863Y-49655D01*
X86864Y-49655D01*
X87003Y-49562D01*
X89205Y-47360D01*
X89205Y-51205D01*
X89205Y-51205D01*
G37*
G54D32*
X89205Y-51205D02*
X83744Y-51205D01*
X83868Y-51081D01*
X84025Y-50705D01*
X84025Y-50297D01*
X83869Y-49920D01*
X83637Y-49688D01*
X86699Y-49688D01*
X86863Y-49655D01*
X86864Y-49655D01*
X87003Y-49562D01*
X89205Y-47360D01*
X89205Y-51205D01*
M02*
